G04 EAGLE Gerber RS-274X export*
G75*
%MOMM*%
%FSLAX34Y34*%
%LPD*%
%INTop Copper*%
%IPPOS*%
%AMOC8*
5,1,8,0,0,1.08239X$1,22.5*%
G01*
%ADD10R,0.800000X0.800000*%
%ADD11R,1.000000X1.100000*%
%ADD12R,1.100000X1.000000*%
%ADD13R,2.500000X2.500000*%
%ADD14C,2.500000*%
%ADD15R,1.300000X1.500000*%
%ADD16R,0.800000X0.500000*%
%ADD17R,1.554000X0.572000*%
%ADD18C,0.572000*%
%ADD19C,1.000000*%
%ADD20C,0.100000*%
%ADD21C,1.524000*%
%ADD22P,1.649562X8X22.500000*%
%ADD23C,0.756400*%
%ADD24C,0.812800*%
%ADD25C,0.304800*%
%ADD26C,0.508000*%
%ADD27C,0.406400*%
%ADD28C,0.609600*%
%ADD29C,0.297181*%

G36*
X-33506Y140D02*
X-33506Y140D01*
X-33438Y145D01*
X-33369Y143D01*
X-33154Y166D01*
X-32938Y182D01*
X-32871Y197D01*
X-32802Y205D01*
X-32592Y258D01*
X-32382Y304D01*
X-32317Y328D01*
X-32250Y345D01*
X-32050Y427D01*
X-31847Y502D01*
X-31787Y535D01*
X-31723Y561D01*
X-31536Y671D01*
X-31346Y773D01*
X-31291Y814D01*
X-31231Y849D01*
X-31062Y983D01*
X-30888Y1112D01*
X-30839Y1160D01*
X-30785Y1203D01*
X-30636Y1359D01*
X-30482Y1511D01*
X-30439Y1566D01*
X-30392Y1616D01*
X-30267Y1792D01*
X-30135Y1964D01*
X-30101Y2024D01*
X-30061Y2080D01*
X-29961Y2272D01*
X-29855Y2460D01*
X-29830Y2524D01*
X-29798Y2585D01*
X-29726Y2789D01*
X-29647Y2990D01*
X-29631Y3057D01*
X-29608Y3122D01*
X-29588Y3241D01*
X-29516Y3545D01*
X-29494Y3783D01*
X-29473Y3899D01*
X-29461Y4063D01*
X-29461Y4162D01*
X-29451Y4261D01*
X-29460Y4380D01*
X-29459Y4632D01*
X-29468Y4702D01*
X-29454Y4762D01*
X-29367Y5325D01*
X-29366Y5347D01*
X-29364Y5363D01*
X-29358Y5441D01*
X-29278Y5631D01*
X-29203Y5918D01*
X-29164Y6033D01*
X-28626Y8392D01*
X-28611Y8490D01*
X-28586Y8586D01*
X-28577Y8706D01*
X-28538Y8955D01*
X-28537Y9025D01*
X-28515Y9083D01*
X-28344Y9626D01*
X-28341Y9648D01*
X-28336Y9663D01*
X-28318Y9739D01*
X-28211Y9916D01*
X-28094Y10188D01*
X-28038Y10296D01*
X-27154Y12548D01*
X-27125Y12643D01*
X-27087Y12735D01*
X-27059Y12851D01*
X-26984Y13092D01*
X-26973Y13161D01*
X-26942Y13215D01*
X-26692Y13727D01*
X-26685Y13748D01*
X-26678Y13762D01*
X-26650Y13835D01*
X-26517Y13993D01*
X-26361Y14245D01*
X-26290Y14344D01*
X-25080Y16439D01*
X-25037Y16528D01*
X-24985Y16613D01*
X-24941Y16724D01*
X-24831Y16951D01*
X-24809Y17018D01*
X-24771Y17066D01*
X-24447Y17535D01*
X-24437Y17555D01*
X-24428Y17568D01*
X-24389Y17636D01*
X-24234Y17773D01*
X-24042Y17998D01*
X-23958Y18085D01*
X-22449Y19977D01*
X-22393Y20059D01*
X-22329Y20135D01*
X-22269Y20239D01*
X-22126Y20446D01*
X-22095Y20509D01*
X-22049Y20551D01*
X-21660Y20967D01*
X-21647Y20985D01*
X-21636Y20996D01*
X-21588Y21057D01*
X-21414Y21170D01*
X-21190Y21364D01*
X-21094Y21438D01*
X-19320Y23083D01*
X-19252Y23156D01*
X-19178Y23222D01*
X-19103Y23315D01*
X-18931Y23499D01*
X-18890Y23557D01*
X-18839Y23592D01*
X-18392Y23945D01*
X-18377Y23961D01*
X-18364Y23970D01*
X-18307Y24023D01*
X-18119Y24109D01*
X-17869Y24267D01*
X-17762Y24326D01*
X-15763Y25689D01*
X-15685Y25750D01*
X-15602Y25805D01*
X-15514Y25886D01*
X-15316Y26042D01*
X-15268Y26093D01*
X-15212Y26119D01*
X-14717Y26402D01*
X-14700Y26416D01*
X-14686Y26423D01*
X-14622Y26467D01*
X-14423Y26524D01*
X-14152Y26643D01*
X-14037Y26685D01*
X-13762Y26818D01*
X-13661Y26876D01*
X-13555Y26925D01*
X-13413Y27017D01*
X-13267Y27101D01*
X-13175Y27172D01*
X-13078Y27235D01*
X-12950Y27346D01*
X-12817Y27450D01*
X-12736Y27533D01*
X-12648Y27609D01*
X-12537Y27737D01*
X-12420Y27858D01*
X-12351Y27952D01*
X-12275Y28040D01*
X-12183Y28182D01*
X-12083Y28318D01*
X-12029Y28421D01*
X-11966Y28519D01*
X-11895Y28672D01*
X-11815Y28821D01*
X-11775Y28931D01*
X-11726Y29036D01*
X-11678Y29197D01*
X-11620Y29356D01*
X-11595Y29470D01*
X-11562Y29581D01*
X-11536Y29749D01*
X-11501Y29914D01*
X-11493Y30029D01*
X-11475Y30145D01*
X-11473Y30314D01*
X-11462Y30482D01*
X-11470Y30598D01*
X-11468Y30714D01*
X-11490Y30882D01*
X-11502Y31050D01*
X-11526Y31164D01*
X-11541Y31279D01*
X-11575Y31389D01*
X-11622Y31608D01*
X-11737Y31922D01*
X-11771Y32034D01*
X-12465Y33709D01*
X-12465Y36141D01*
X-11534Y38389D01*
X-9814Y40109D01*
X-7566Y41040D01*
X10872Y41040D01*
X11102Y41056D01*
X11332Y41066D01*
X11386Y41076D01*
X11441Y41080D01*
X11666Y41128D01*
X11892Y41170D01*
X11944Y41187D01*
X11998Y41199D01*
X12214Y41278D01*
X12432Y41351D01*
X12481Y41376D01*
X12533Y41395D01*
X12736Y41503D01*
X12942Y41606D01*
X12987Y41637D01*
X13035Y41663D01*
X13221Y41799D01*
X13411Y41930D01*
X13451Y41967D01*
X13495Y42000D01*
X13660Y42160D01*
X13829Y42316D01*
X13864Y42359D01*
X13904Y42397D01*
X14044Y42579D01*
X14190Y42757D01*
X14219Y42805D01*
X14252Y42848D01*
X14366Y43048D01*
X14486Y43245D01*
X14507Y43295D01*
X14534Y43343D01*
X14620Y43557D01*
X14710Y43768D01*
X14724Y43821D01*
X14745Y43872D01*
X14799Y44097D01*
X14859Y44318D01*
X14863Y44362D01*
X14879Y44426D01*
X14934Y44993D01*
X14931Y45059D01*
X14936Y45103D01*
X14936Y46374D01*
X16408Y49928D01*
X19128Y52648D01*
X22683Y54121D01*
X26530Y54121D01*
X30084Y52648D01*
X32805Y49928D01*
X33552Y48123D01*
X33604Y48020D01*
X33646Y47913D01*
X33731Y47766D01*
X33807Y47613D01*
X33872Y47518D01*
X33929Y47418D01*
X34034Y47284D01*
X34130Y47144D01*
X34208Y47059D01*
X34279Y46968D01*
X34401Y46850D01*
X34516Y46725D01*
X34605Y46652D01*
X34687Y46571D01*
X34825Y46471D01*
X34956Y46363D01*
X35055Y46303D01*
X35148Y46236D01*
X35298Y46156D01*
X35443Y46067D01*
X35549Y46022D01*
X35651Y45967D01*
X35810Y45909D01*
X35966Y45842D01*
X36078Y45812D01*
X36186Y45772D01*
X36352Y45737D01*
X36516Y45692D01*
X36630Y45678D01*
X36743Y45654D01*
X36913Y45642D01*
X37081Y45621D01*
X37197Y45623D01*
X37312Y45615D01*
X37481Y45627D01*
X37651Y45629D01*
X37765Y45647D01*
X37880Y45656D01*
X38046Y45691D01*
X38214Y45718D01*
X38325Y45751D01*
X38437Y45775D01*
X38597Y45834D01*
X38759Y45884D01*
X38864Y45932D01*
X38972Y45972D01*
X39121Y46052D01*
X39276Y46124D01*
X39373Y46187D01*
X39474Y46241D01*
X39611Y46342D01*
X39754Y46435D01*
X39840Y46510D01*
X39933Y46578D01*
X40055Y46697D01*
X40183Y46809D01*
X40259Y46896D01*
X40341Y46976D01*
X40445Y47111D01*
X40556Y47239D01*
X40619Y47336D01*
X40689Y47427D01*
X40744Y47529D01*
X40865Y47718D01*
X41005Y48019D01*
X41060Y48123D01*
X41808Y49928D01*
X44528Y52648D01*
X48083Y54121D01*
X51930Y54121D01*
X55484Y52648D01*
X58205Y49928D01*
X58952Y48123D01*
X59004Y48020D01*
X59046Y47913D01*
X59131Y47766D01*
X59207Y47613D01*
X59272Y47518D01*
X59329Y47418D01*
X59434Y47284D01*
X59530Y47144D01*
X59608Y47059D01*
X59679Y46968D01*
X59801Y46850D01*
X59916Y46725D01*
X60005Y46652D01*
X60087Y46571D01*
X60225Y46471D01*
X60356Y46363D01*
X60455Y46303D01*
X60548Y46236D01*
X60698Y46156D01*
X60843Y46067D01*
X60949Y46022D01*
X61051Y45967D01*
X61210Y45909D01*
X61366Y45842D01*
X61478Y45812D01*
X61586Y45772D01*
X61752Y45737D01*
X61916Y45692D01*
X62030Y45678D01*
X62143Y45654D01*
X62313Y45642D01*
X62481Y45621D01*
X62597Y45623D01*
X62712Y45615D01*
X62881Y45627D01*
X63051Y45629D01*
X63165Y45647D01*
X63280Y45656D01*
X63446Y45691D01*
X63614Y45718D01*
X63725Y45751D01*
X63837Y45775D01*
X63997Y45834D01*
X64159Y45884D01*
X64264Y45932D01*
X64372Y45972D01*
X64521Y46052D01*
X64676Y46124D01*
X64773Y46187D01*
X64874Y46241D01*
X65011Y46342D01*
X65154Y46435D01*
X65240Y46510D01*
X65333Y46578D01*
X65455Y46697D01*
X65583Y46809D01*
X65659Y46896D01*
X65741Y46976D01*
X65845Y47111D01*
X65956Y47239D01*
X66019Y47336D01*
X66089Y47427D01*
X66144Y47529D01*
X66265Y47718D01*
X66405Y48019D01*
X66460Y48123D01*
X67208Y49928D01*
X69928Y52648D01*
X73483Y54121D01*
X77330Y54121D01*
X80884Y52648D01*
X83605Y49928D01*
X85077Y46374D01*
X85077Y42526D01*
X83605Y38972D01*
X80884Y36252D01*
X77330Y34779D01*
X73483Y34779D01*
X69928Y36252D01*
X67208Y38972D01*
X66460Y40777D01*
X66409Y40880D01*
X66366Y40987D01*
X66282Y41135D01*
X66206Y41287D01*
X66140Y41382D01*
X66083Y41482D01*
X65979Y41616D01*
X65883Y41756D01*
X65805Y41841D01*
X65734Y41932D01*
X65612Y42050D01*
X65497Y42175D01*
X65408Y42249D01*
X65325Y42329D01*
X65188Y42429D01*
X65056Y42537D01*
X64958Y42597D01*
X64865Y42664D01*
X64715Y42744D01*
X64569Y42833D01*
X64464Y42878D01*
X64362Y42933D01*
X64202Y42991D01*
X64046Y43058D01*
X63935Y43088D01*
X63827Y43128D01*
X63660Y43163D01*
X63496Y43208D01*
X63382Y43222D01*
X63269Y43246D01*
X63100Y43258D01*
X62931Y43279D01*
X62816Y43277D01*
X62701Y43285D01*
X62531Y43273D01*
X62361Y43270D01*
X62248Y43253D01*
X62132Y43244D01*
X61966Y43209D01*
X61798Y43182D01*
X61688Y43149D01*
X61575Y43125D01*
X61416Y43066D01*
X61253Y43016D01*
X61149Y42968D01*
X61041Y42928D01*
X60891Y42848D01*
X60737Y42776D01*
X60640Y42713D01*
X60539Y42659D01*
X60401Y42558D01*
X60259Y42465D01*
X60172Y42390D01*
X60079Y42322D01*
X59958Y42203D01*
X59829Y42091D01*
X59754Y42004D01*
X59671Y41924D01*
X59568Y41789D01*
X59456Y41661D01*
X59394Y41564D01*
X59323Y41473D01*
X59269Y41371D01*
X59147Y41182D01*
X59008Y40881D01*
X58952Y40777D01*
X58205Y38972D01*
X55484Y36252D01*
X51930Y34779D01*
X48083Y34779D01*
X44528Y36252D01*
X41808Y38972D01*
X41060Y40777D01*
X41009Y40880D01*
X40966Y40987D01*
X40882Y41135D01*
X40806Y41287D01*
X40740Y41382D01*
X40683Y41482D01*
X40579Y41616D01*
X40483Y41756D01*
X40405Y41841D01*
X40334Y41932D01*
X40212Y42050D01*
X40097Y42175D01*
X40008Y42249D01*
X39925Y42329D01*
X39788Y42429D01*
X39656Y42537D01*
X39558Y42597D01*
X39465Y42664D01*
X39315Y42744D01*
X39169Y42833D01*
X39063Y42878D01*
X38962Y42933D01*
X38802Y42991D01*
X38646Y43058D01*
X38535Y43088D01*
X38427Y43128D01*
X38261Y43163D01*
X38096Y43208D01*
X37982Y43222D01*
X37869Y43246D01*
X37700Y43258D01*
X37531Y43279D01*
X37416Y43277D01*
X37301Y43285D01*
X37131Y43273D01*
X36961Y43270D01*
X36848Y43253D01*
X36732Y43244D01*
X36566Y43209D01*
X36398Y43182D01*
X36288Y43149D01*
X36175Y43125D01*
X36016Y43066D01*
X35853Y43016D01*
X35749Y42968D01*
X35641Y42928D01*
X35491Y42848D01*
X35337Y42776D01*
X35240Y42713D01*
X35139Y42659D01*
X35002Y42558D01*
X34859Y42465D01*
X34772Y42390D01*
X34679Y42322D01*
X34557Y42203D01*
X34429Y42091D01*
X34354Y42004D01*
X34271Y41924D01*
X34167Y41789D01*
X34056Y41661D01*
X33994Y41564D01*
X33923Y41473D01*
X33869Y41371D01*
X33747Y41182D01*
X33608Y40881D01*
X33552Y40777D01*
X32820Y39009D01*
X32819Y39006D01*
X32818Y39004D01*
X32730Y38740D01*
X32639Y38468D01*
X32639Y38466D01*
X32638Y38463D01*
X32586Y38180D01*
X32536Y37908D01*
X32536Y37905D01*
X32535Y37902D01*
X32524Y37615D01*
X32512Y37339D01*
X32512Y37336D01*
X32512Y37333D01*
X32540Y37053D01*
X32568Y36772D01*
X32569Y36769D01*
X32569Y36766D01*
X32636Y36495D01*
X32703Y36218D01*
X32704Y36215D01*
X32705Y36213D01*
X32809Y35951D01*
X32914Y35689D01*
X32915Y35686D01*
X32916Y35684D01*
X33051Y35450D01*
X33197Y35194D01*
X33199Y35192D01*
X33200Y35189D01*
X33208Y35180D01*
X33546Y34744D01*
X33646Y34647D01*
X33701Y34581D01*
X33820Y34462D01*
X34750Y32214D01*
X34750Y29782D01*
X33820Y27534D01*
X32804Y26518D01*
X32803Y26518D01*
X32707Y26422D01*
X32594Y26291D01*
X32473Y26167D01*
X32407Y26077D01*
X32334Y25992D01*
X32240Y25847D01*
X32137Y25707D01*
X32085Y25608D01*
X32024Y25514D01*
X31951Y25357D01*
X31869Y25204D01*
X31831Y25099D01*
X31784Y24997D01*
X31734Y24831D01*
X31674Y24669D01*
X31651Y24559D01*
X31619Y24452D01*
X31592Y24281D01*
X31556Y24111D01*
X31548Y23999D01*
X31531Y23889D01*
X31529Y23716D01*
X31517Y23543D01*
X31525Y23431D01*
X31523Y23319D01*
X31545Y23147D01*
X31558Y22975D01*
X31581Y22865D01*
X31595Y22754D01*
X31641Y22587D01*
X31677Y22418D01*
X31716Y22312D01*
X31746Y22204D01*
X31814Y22045D01*
X31874Y21883D01*
X31927Y21784D01*
X31971Y21681D01*
X32062Y21533D01*
X32143Y21381D01*
X32210Y21290D01*
X32268Y21195D01*
X32378Y21061D01*
X32481Y20921D01*
X32559Y20841D01*
X32630Y20754D01*
X32758Y20637D01*
X32879Y20514D01*
X32967Y20445D01*
X33050Y20369D01*
X33193Y20271D01*
X33318Y20174D01*
X35107Y18385D01*
X35995Y16241D01*
X35995Y13921D01*
X35107Y11777D01*
X33466Y10136D01*
X31560Y9347D01*
X31405Y9269D01*
X31246Y9201D01*
X31150Y9142D01*
X31050Y9092D01*
X30908Y8994D01*
X30759Y8904D01*
X30673Y8832D01*
X30581Y8769D01*
X30453Y8652D01*
X30319Y8541D01*
X30244Y8459D01*
X30162Y8383D01*
X30052Y8249D01*
X29934Y8121D01*
X29871Y8029D01*
X29800Y7943D01*
X29710Y7795D01*
X29612Y7652D01*
X29562Y7552D01*
X29504Y7456D01*
X29436Y7297D01*
X29358Y7141D01*
X29323Y7035D01*
X29279Y6933D01*
X29233Y6765D01*
X29179Y6601D01*
X29159Y6491D01*
X29129Y6383D01*
X29108Y6211D01*
X29076Y6040D01*
X29072Y5928D01*
X29058Y5818D01*
X29060Y5644D01*
X29054Y5471D01*
X29064Y5387D01*
X29066Y5248D01*
X29152Y4698D01*
X29154Y4689D01*
X29161Y4654D01*
X29159Y4626D01*
X29159Y4614D01*
X29158Y4603D01*
X29171Y4329D01*
X29183Y4056D01*
X29185Y4045D01*
X29185Y4034D01*
X29237Y3764D01*
X29286Y3496D01*
X29290Y3485D01*
X29292Y3474D01*
X29381Y3213D01*
X29467Y2956D01*
X29472Y2946D01*
X29476Y2935D01*
X29601Y2687D01*
X29722Y2446D01*
X29728Y2437D01*
X29733Y2426D01*
X29891Y2200D01*
X30045Y1977D01*
X30053Y1969D01*
X30059Y1959D01*
X30247Y1757D01*
X30431Y1558D01*
X30440Y1550D01*
X30447Y1542D01*
X30659Y1370D01*
X30872Y1196D01*
X30881Y1190D01*
X30890Y1183D01*
X31123Y1044D01*
X31358Y900D01*
X31369Y896D01*
X31379Y890D01*
X31630Y784D01*
X31882Y676D01*
X31893Y673D01*
X31903Y668D01*
X32170Y597D01*
X32432Y526D01*
X32443Y525D01*
X32454Y522D01*
X32501Y517D01*
X32997Y455D01*
X33149Y457D01*
X33239Y449D01*
X66950Y605D01*
X66959Y567D01*
X66968Y496D01*
X66982Y471D01*
X66988Y444D01*
X67031Y386D01*
X67067Y324D01*
X67089Y306D01*
X67106Y284D01*
X67168Y247D01*
X67225Y204D01*
X67253Y197D01*
X67277Y182D01*
X67377Y165D01*
X67418Y155D01*
X67429Y157D01*
X67441Y155D01*
X86441Y155D01*
X86517Y170D01*
X86595Y179D01*
X86614Y190D01*
X86636Y194D01*
X86700Y238D01*
X86768Y276D01*
X86784Y296D01*
X86800Y307D01*
X86824Y344D01*
X86874Y405D01*
X87521Y1528D01*
X87697Y1658D01*
X87699Y1660D01*
X87701Y1661D01*
X87890Y1848D01*
X88104Y2057D01*
X88105Y2059D01*
X88107Y2060D01*
X88454Y2513D01*
X88519Y2629D01*
X88567Y2695D01*
X114035Y46084D01*
X114077Y46168D01*
X114126Y46248D01*
X114203Y46423D01*
X114288Y46595D01*
X114318Y46684D01*
X114355Y46770D01*
X114407Y46954D01*
X114468Y47136D01*
X114484Y47228D01*
X114510Y47318D01*
X114535Y47508D01*
X114570Y47696D01*
X114573Y47790D01*
X114586Y47883D01*
X114585Y48074D01*
X114592Y48266D01*
X114583Y48359D01*
X114582Y48452D01*
X114554Y48642D01*
X114535Y48833D01*
X114512Y48924D01*
X114499Y49016D01*
X114445Y49199D01*
X114399Y49386D01*
X114364Y49473D01*
X114337Y49563D01*
X114258Y49736D01*
X114187Y49915D01*
X114140Y49996D01*
X114101Y50081D01*
X113998Y50242D01*
X113903Y50409D01*
X113845Y50482D01*
X113795Y50561D01*
X113670Y50707D01*
X113552Y50858D01*
X113485Y50923D01*
X113424Y50994D01*
X113331Y51072D01*
X113142Y51254D01*
X112912Y51421D01*
X112818Y51499D01*
X112136Y51964D01*
X112050Y52014D01*
X111970Y52072D01*
X111862Y52124D01*
X111644Y52251D01*
X111579Y52278D01*
X111534Y52320D01*
X111090Y52677D01*
X111071Y52688D01*
X111059Y52698D01*
X110994Y52742D01*
X110869Y52907D01*
X110658Y53116D01*
X110578Y53206D01*
X108802Y54853D01*
X108725Y54915D01*
X108653Y54984D01*
X108555Y55052D01*
X108358Y55210D01*
X108298Y55246D01*
X108259Y55294D01*
X107873Y55713D01*
X107856Y55727D01*
X107846Y55739D01*
X107789Y55792D01*
X107689Y55974D01*
X107512Y56211D01*
X107446Y56313D01*
X105935Y58206D01*
X105868Y58279D01*
X105808Y58358D01*
X105720Y58440D01*
X105550Y58625D01*
X105496Y58670D01*
X105465Y58723D01*
X105146Y59195D01*
X105131Y59212D01*
X105122Y59225D01*
X105074Y59286D01*
X105002Y59480D01*
X104863Y59741D01*
X104813Y59852D01*
X103601Y61949D01*
X103546Y62031D01*
X103498Y62118D01*
X103423Y62212D01*
X103282Y62421D01*
X103235Y62473D01*
X103212Y62531D01*
X102967Y63045D01*
X102955Y63064D01*
X102949Y63078D01*
X102910Y63145D01*
X102868Y63348D01*
X102795Y63555D01*
X102766Y63658D01*
X102748Y63702D01*
X102735Y63745D01*
X102714Y63801D01*
X102689Y63852D01*
X102677Y63885D01*
X102632Y63971D01*
X102623Y63990D01*
X102541Y64182D01*
X102501Y64246D01*
X102468Y64315D01*
X102353Y64489D01*
X102244Y64668D01*
X102195Y64727D01*
X102154Y64790D01*
X102015Y64946D01*
X101882Y65108D01*
X101826Y65159D01*
X101775Y65216D01*
X101616Y65352D01*
X101462Y65493D01*
X101399Y65536D01*
X101341Y65585D01*
X101165Y65697D01*
X100992Y65816D01*
X100924Y65850D01*
X100860Y65890D01*
X100670Y65976D01*
X100482Y66069D01*
X100410Y66094D01*
X100341Y66125D01*
X100140Y66183D01*
X99941Y66249D01*
X99867Y66263D01*
X99794Y66284D01*
X99587Y66314D01*
X99381Y66352D01*
X99305Y66355D01*
X99230Y66366D01*
X99021Y66366D01*
X98812Y66375D01*
X98736Y66367D01*
X98660Y66368D01*
X98453Y66339D01*
X98245Y66318D01*
X98171Y66300D01*
X98096Y66290D01*
X97894Y66232D01*
X97691Y66183D01*
X97621Y66154D01*
X97548Y66133D01*
X97356Y66049D01*
X97162Y65971D01*
X97096Y65933D01*
X97027Y65902D01*
X96850Y65792D01*
X96668Y65687D01*
X96621Y65649D01*
X96544Y65600D01*
X96107Y65234D01*
X96081Y65204D01*
X96059Y65187D01*
X95539Y64666D01*
X93291Y63735D01*
X90859Y63735D01*
X88611Y64666D01*
X79747Y73530D01*
X78817Y75777D01*
X78817Y88994D01*
X78816Y88997D01*
X78817Y89000D01*
X78797Y89273D01*
X78777Y89562D01*
X78776Y89565D01*
X78776Y89568D01*
X78716Y89845D01*
X78657Y90120D01*
X78657Y90122D01*
X78656Y90125D01*
X78559Y90389D01*
X78462Y90655D01*
X78460Y90657D01*
X78459Y90660D01*
X78336Y90890D01*
X78193Y91157D01*
X78191Y91159D01*
X78190Y91162D01*
X78020Y91394D01*
X77856Y91617D01*
X77855Y91619D01*
X77853Y91621D01*
X77660Y91819D01*
X77459Y92025D01*
X77457Y92027D01*
X77455Y92029D01*
X77234Y92200D01*
X77008Y92374D01*
X77006Y92375D01*
X77004Y92377D01*
X76992Y92383D01*
X76513Y92656D01*
X76383Y92708D01*
X76308Y92748D01*
X75118Y93241D01*
X73397Y94961D01*
X72467Y97209D01*
X72467Y99641D01*
X73397Y101889D01*
X75118Y103609D01*
X77365Y104540D01*
X85942Y104540D01*
X86060Y104548D01*
X86178Y104547D01*
X86343Y104568D01*
X86510Y104580D01*
X86626Y104604D01*
X86743Y104619D01*
X86852Y104653D01*
X87068Y104699D01*
X87386Y104815D01*
X87497Y104849D01*
X89699Y105761D01*
X96100Y105761D01*
X98347Y104830D01*
X100068Y103110D01*
X100999Y100863D01*
X100999Y98526D01*
X101001Y98488D01*
X100999Y98449D01*
X101021Y98204D01*
X101038Y97957D01*
X101046Y97920D01*
X101050Y97882D01*
X101106Y97642D01*
X101158Y97400D01*
X101171Y97364D01*
X101179Y97327D01*
X101268Y97097D01*
X101353Y96865D01*
X101371Y96831D01*
X101385Y96796D01*
X101505Y96581D01*
X101622Y96363D01*
X101645Y96332D01*
X101663Y96298D01*
X101813Y96102D01*
X101959Y95903D01*
X101985Y95875D01*
X102008Y95845D01*
X102184Y95671D01*
X102356Y95494D01*
X102386Y95471D01*
X102413Y95444D01*
X102612Y95297D01*
X102807Y95146D01*
X102840Y95127D01*
X102870Y95104D01*
X103087Y94986D01*
X103302Y94863D01*
X103337Y94849D01*
X103371Y94831D01*
X103601Y94745D01*
X103831Y94653D01*
X103868Y94644D01*
X103904Y94631D01*
X104145Y94577D01*
X104385Y94519D01*
X104423Y94515D01*
X104460Y94507D01*
X104706Y94488D01*
X104952Y94464D01*
X104990Y94466D01*
X105028Y94463D01*
X105275Y94478D01*
X105521Y94489D01*
X105559Y94495D01*
X105597Y94498D01*
X105839Y94547D01*
X106082Y94593D01*
X106118Y94605D01*
X106155Y94612D01*
X106388Y94695D01*
X106622Y94774D01*
X106656Y94791D01*
X106692Y94804D01*
X106735Y94826D01*
X106736Y94827D01*
X106756Y94837D01*
X106911Y94918D01*
X107131Y95029D01*
X107163Y95051D01*
X107196Y95068D01*
X107222Y95088D01*
X107238Y95096D01*
X107384Y95203D01*
X107600Y95353D01*
X107650Y95399D01*
X107697Y95434D01*
X107756Y95494D01*
X107824Y95546D01*
X107831Y95552D01*
X107924Y95652D01*
X108019Y95739D01*
X108106Y95846D01*
X108221Y95968D01*
X108234Y95988D01*
X108246Y96000D01*
X108295Y96061D01*
X108468Y96173D01*
X108692Y96367D01*
X108788Y96441D01*
X110563Y98089D01*
X110631Y98162D01*
X110705Y98228D01*
X110780Y98321D01*
X110953Y98505D01*
X110993Y98562D01*
X111044Y98597D01*
X111491Y98950D01*
X111506Y98967D01*
X111519Y98976D01*
X111576Y99029D01*
X111764Y99115D01*
X112014Y99274D01*
X112121Y99332D01*
X114121Y100697D01*
X114199Y100758D01*
X114282Y100813D01*
X114371Y100894D01*
X114568Y101050D01*
X114617Y101101D01*
X114672Y101128D01*
X115167Y101410D01*
X115185Y101424D01*
X115198Y101432D01*
X115263Y101476D01*
X115462Y101532D01*
X115732Y101652D01*
X115847Y101694D01*
X118028Y102745D01*
X118115Y102794D01*
X118205Y102836D01*
X118304Y102903D01*
X118523Y103028D01*
X118578Y103071D01*
X118637Y103089D01*
X119169Y103295D01*
X119188Y103306D01*
X119203Y103311D01*
X119273Y103345D01*
X119478Y103371D01*
X119764Y103449D01*
X119883Y103474D01*
X122197Y104188D01*
X122290Y104224D01*
X122385Y104251D01*
X122493Y104303D01*
X122728Y104394D01*
X122789Y104428D01*
X122850Y104438D01*
X123406Y104562D01*
X123427Y104570D01*
X123442Y104573D01*
X123517Y104596D01*
X123724Y104591D01*
X124018Y104626D01*
X124139Y104632D01*
X126534Y104994D01*
X126631Y105016D01*
X126729Y105028D01*
X126844Y105063D01*
X127090Y105118D01*
X127156Y105143D01*
X127217Y105143D01*
X127786Y105183D01*
X127807Y105188D01*
X127823Y105189D01*
X127900Y105200D01*
X128104Y105165D01*
X128400Y105155D01*
X128521Y105144D01*
X130943Y105144D01*
X131042Y105151D01*
X131141Y105149D01*
X131259Y105167D01*
X131511Y105184D01*
X131580Y105199D01*
X131641Y105190D01*
X132209Y105145D01*
X132231Y105146D01*
X132246Y105145D01*
X132324Y105145D01*
X132521Y105079D01*
X132812Y105026D01*
X132930Y104996D01*
X135325Y104636D01*
X135423Y104628D01*
X135521Y104611D01*
X135641Y104611D01*
X135893Y104591D01*
X135963Y104595D01*
X136021Y104577D01*
X136576Y104448D01*
X136599Y104446D01*
X136614Y104442D01*
X136691Y104430D01*
X136875Y104336D01*
X137155Y104240D01*
X137267Y104193D01*
X139582Y103480D01*
X139678Y103458D01*
X139773Y103426D01*
X139891Y103408D01*
X140137Y103351D01*
X140207Y103345D01*
X140262Y103318D01*
X140792Y103107D01*
X140813Y103102D01*
X140828Y103096D01*
X140902Y103073D01*
X141071Y102953D01*
X141333Y102816D01*
X141437Y102753D01*
X142634Y102176D01*
X142693Y102153D01*
X142749Y102124D01*
X142958Y102048D01*
X143164Y101966D01*
X143225Y101951D01*
X143285Y101930D01*
X143502Y101884D01*
X143718Y101832D01*
X143781Y101825D01*
X143842Y101813D01*
X144063Y101798D01*
X144285Y101776D01*
X144348Y101779D01*
X144411Y101775D01*
X144632Y101791D01*
X144854Y101800D01*
X144916Y101812D01*
X144979Y101817D01*
X145196Y101864D01*
X145414Y101904D01*
X145474Y101924D01*
X145536Y101938D01*
X145744Y102015D01*
X145954Y102085D01*
X146011Y102114D01*
X146070Y102135D01*
X146265Y102241D01*
X146464Y102340D01*
X146516Y102376D01*
X146572Y102406D01*
X146751Y102538D01*
X146933Y102664D01*
X146979Y102707D01*
X147030Y102744D01*
X147189Y102900D01*
X147352Y103050D01*
X147392Y103099D01*
X147437Y103143D01*
X147507Y103239D01*
X147713Y103491D01*
X147832Y103687D01*
X147900Y103781D01*
X171700Y144329D01*
X171811Y144552D01*
X171926Y144774D01*
X171938Y144808D01*
X171953Y144839D01*
X172032Y145076D01*
X172115Y145312D01*
X172122Y145347D01*
X172133Y145380D01*
X172177Y145626D01*
X172226Y145871D01*
X172228Y145906D01*
X172235Y145941D01*
X172245Y146190D01*
X172259Y146440D01*
X172256Y146475D01*
X172257Y146510D01*
X172232Y146759D01*
X172211Y147007D01*
X172204Y147042D01*
X172200Y147077D01*
X172140Y147321D01*
X172085Y147563D01*
X172074Y147590D01*
X172064Y147630D01*
X171987Y147822D01*
X173474Y150405D01*
X173484Y150436D01*
X173493Y150449D01*
X173497Y150474D01*
X173498Y150477D01*
X173529Y150548D01*
X173530Y150571D01*
X173537Y150593D01*
X173531Y150670D01*
X173532Y150747D01*
X173523Y150771D01*
X173521Y150792D01*
X173501Y150831D01*
X173474Y150903D01*
X163974Y167403D01*
X163955Y167425D01*
X163943Y167451D01*
X163890Y167499D01*
X163842Y167552D01*
X163816Y167565D01*
X163795Y167584D01*
X163727Y167607D01*
X163663Y167638D01*
X163634Y167639D01*
X163607Y167649D01*
X163536Y167644D01*
X163464Y167647D01*
X163437Y167637D01*
X163408Y167635D01*
X163318Y167593D01*
X163278Y167578D01*
X163270Y167570D01*
X163258Y167565D01*
X162005Y166700D01*
X152213Y185132D01*
X152202Y185149D01*
X152194Y185168D01*
X152051Y185392D01*
X151911Y185616D01*
X151898Y185631D01*
X151887Y185648D01*
X151714Y185849D01*
X151544Y186052D01*
X151529Y186065D01*
X151516Y186080D01*
X151318Y186255D01*
X151120Y186432D01*
X151104Y186444D01*
X151089Y186457D01*
X150868Y186602D01*
X150647Y186750D01*
X150629Y186759D01*
X150612Y186770D01*
X150374Y186882D01*
X150134Y186998D01*
X150115Y187005D01*
X150097Y187013D01*
X149844Y187091D01*
X149592Y187172D01*
X149572Y187176D01*
X149553Y187182D01*
X149291Y187224D01*
X149030Y187269D01*
X149010Y187270D01*
X148990Y187273D01*
X148725Y187278D01*
X148461Y187286D01*
X148441Y187284D01*
X148421Y187284D01*
X148158Y187252D01*
X147895Y187223D01*
X147875Y187218D01*
X147855Y187216D01*
X147599Y187147D01*
X147343Y187082D01*
X147324Y187074D01*
X147305Y187069D01*
X147060Y186965D01*
X146816Y186865D01*
X146799Y186854D01*
X146780Y186846D01*
X146720Y186808D01*
X146325Y186576D01*
X146196Y186474D01*
X146115Y186422D01*
X84578Y138113D01*
X84439Y137986D01*
X84293Y137866D01*
X84228Y137795D01*
X84156Y137730D01*
X84035Y137585D01*
X83908Y137446D01*
X83853Y137367D01*
X83791Y137293D01*
X83692Y137132D01*
X83585Y136977D01*
X83542Y136890D01*
X83491Y136808D01*
X83415Y136635D01*
X83331Y136466D01*
X83301Y136375D01*
X83262Y136286D01*
X83211Y136105D01*
X83152Y135926D01*
X83134Y135831D01*
X83108Y135738D01*
X83083Y135551D01*
X83049Y135365D01*
X83045Y135269D01*
X83032Y135173D01*
X83034Y134985D01*
X83026Y134796D01*
X83036Y134700D01*
X83036Y134603D01*
X83064Y134417D01*
X83083Y134229D01*
X83106Y134135D01*
X83120Y134040D01*
X83174Y133859D01*
X83218Y133676D01*
X83254Y133586D01*
X83282Y133493D01*
X83360Y133321D01*
X83430Y133147D01*
X83478Y133063D01*
X83518Y132975D01*
X83620Y132816D01*
X83714Y132652D01*
X83761Y132595D01*
X83825Y132495D01*
X84196Y132062D01*
X84207Y132052D01*
X84214Y132043D01*
X84464Y131794D01*
X84464Y123782D01*
X78799Y118117D01*
X70787Y118117D01*
X68199Y120706D01*
X67995Y120883D01*
X67790Y121064D01*
X67779Y121071D01*
X67769Y121080D01*
X67540Y121228D01*
X67314Y121377D01*
X67302Y121382D01*
X67291Y121389D01*
X67043Y121504D01*
X66798Y121620D01*
X66786Y121624D01*
X66774Y121629D01*
X66513Y121708D01*
X66254Y121789D01*
X66241Y121791D01*
X66228Y121794D01*
X65961Y121836D01*
X65692Y121879D01*
X65678Y121880D01*
X65665Y121882D01*
X65394Y121885D01*
X65122Y121891D01*
X65109Y121889D01*
X65096Y121889D01*
X64825Y121855D01*
X64556Y121822D01*
X64544Y121819D01*
X64530Y121817D01*
X64268Y121746D01*
X64006Y121676D01*
X63994Y121670D01*
X63981Y121667D01*
X63733Y121560D01*
X63481Y121453D01*
X63472Y121447D01*
X63458Y121441D01*
X62971Y121144D01*
X62880Y121069D01*
X62817Y121029D01*
X59249Y118228D01*
X59192Y118177D01*
X59131Y118132D01*
X58982Y117986D01*
X58827Y117846D01*
X58778Y117787D01*
X58723Y117734D01*
X58596Y117568D01*
X58462Y117408D01*
X58422Y117343D01*
X58375Y117283D01*
X58318Y117175D01*
X58162Y116923D01*
X58061Y116693D01*
X58004Y116587D01*
X57332Y114965D01*
X55618Y113250D01*
X55616Y113250D01*
X55614Y113248D01*
X55612Y113247D01*
X55380Y113087D01*
X55147Y112926D01*
X55145Y112925D01*
X55143Y112923D01*
X54929Y112726D01*
X54728Y112541D01*
X54726Y112539D01*
X54724Y112537D01*
X54540Y112312D01*
X54366Y112100D01*
X54365Y112098D01*
X54363Y112096D01*
X54215Y111852D01*
X54070Y111613D01*
X54069Y111611D01*
X54068Y111609D01*
X53953Y111342D01*
X53845Y111090D01*
X53844Y111087D01*
X53843Y111085D01*
X53769Y110810D01*
X53695Y110540D01*
X53695Y110538D01*
X53694Y110535D01*
X53693Y110521D01*
X53624Y109975D01*
X53626Y109835D01*
X53618Y109750D01*
X53618Y105532D01*
X53101Y104283D01*
X53060Y104195D01*
X52957Y103988D01*
X52940Y103937D01*
X52917Y103888D01*
X52850Y103667D01*
X52777Y103448D01*
X52768Y103394D01*
X52752Y103343D01*
X52717Y103115D01*
X52675Y102887D01*
X52673Y102833D01*
X52665Y102780D01*
X52662Y102549D01*
X52652Y102318D01*
X52658Y102264D01*
X52657Y102210D01*
X52686Y101981D01*
X52709Y101751D01*
X52722Y101698D01*
X52729Y101645D01*
X52790Y101422D01*
X52845Y101197D01*
X52865Y101147D01*
X52879Y101095D01*
X52971Y100883D01*
X53057Y100668D01*
X53084Y100622D01*
X53105Y100572D01*
X53123Y100543D01*
X53618Y99348D01*
X53618Y88532D01*
X53306Y87778D01*
X52729Y87202D01*
X51975Y86889D01*
X40159Y86889D01*
X39406Y87202D01*
X38829Y87778D01*
X38503Y88564D01*
X38488Y88680D01*
X38477Y88848D01*
X38452Y88962D01*
X38437Y89079D01*
X38392Y89241D01*
X38357Y89405D01*
X38317Y89515D01*
X38286Y89628D01*
X38219Y89782D01*
X38162Y89940D01*
X38106Y90044D01*
X38060Y90151D01*
X37972Y90294D01*
X37893Y90442D01*
X37824Y90537D01*
X37762Y90637D01*
X37655Y90767D01*
X37556Y90902D01*
X37475Y90986D01*
X37400Y91077D01*
X37276Y91190D01*
X37159Y91310D01*
X37066Y91382D01*
X36979Y91462D01*
X36841Y91557D01*
X36708Y91659D01*
X36606Y91717D01*
X36509Y91784D01*
X36359Y91858D01*
X36213Y91941D01*
X36104Y91985D01*
X35999Y92037D01*
X35840Y92090D01*
X35684Y92152D01*
X35570Y92179D01*
X35458Y92216D01*
X35293Y92246D01*
X35130Y92286D01*
X35013Y92297D01*
X34898Y92318D01*
X34730Y92325D01*
X34563Y92341D01*
X34445Y92336D01*
X34328Y92340D01*
X34162Y92324D01*
X33994Y92316D01*
X33878Y92295D01*
X33761Y92283D01*
X33598Y92243D01*
X33433Y92212D01*
X33322Y92175D01*
X33208Y92147D01*
X33052Y92084D01*
X32893Y92031D01*
X32788Y91978D01*
X32679Y91935D01*
X32534Y91851D01*
X32384Y91776D01*
X32287Y91709D01*
X32185Y91651D01*
X32053Y91548D01*
X31915Y91452D01*
X31829Y91372D01*
X31736Y91300D01*
X31619Y91180D01*
X31496Y91066D01*
X31422Y90975D01*
X31340Y90890D01*
X31276Y90796D01*
X31135Y90625D01*
X30960Y90336D01*
X30894Y90240D01*
X21741Y73628D01*
X-28616Y73119D01*
X-28747Y73109D01*
X-28878Y73108D01*
X-29031Y73086D01*
X-29184Y73074D01*
X-29312Y73045D01*
X-29442Y73026D01*
X-29590Y72983D01*
X-29740Y72949D01*
X-29863Y72903D01*
X-29989Y72866D01*
X-30129Y72802D01*
X-30273Y72748D01*
X-30388Y72685D01*
X-30508Y72630D01*
X-30638Y72548D01*
X-30773Y72474D01*
X-30878Y72395D01*
X-30989Y72325D01*
X-31106Y72225D01*
X-31229Y72133D01*
X-31322Y72040D01*
X-31422Y71955D01*
X-31492Y71872D01*
X-31633Y71731D01*
X-31860Y71433D01*
X-31928Y71351D01*
X-51356Y42957D01*
X-62612Y42957D01*
X-62612Y43050D01*
X-62616Y43110D01*
X-62614Y43170D01*
X-62636Y43394D01*
X-62652Y43618D01*
X-62664Y43677D01*
X-62670Y43737D01*
X-62724Y43956D01*
X-62771Y44175D01*
X-62791Y44232D01*
X-62806Y44291D01*
X-62889Y44499D01*
X-62967Y44710D01*
X-62995Y44764D01*
X-63018Y44820D01*
X-63129Y45015D01*
X-63235Y45213D01*
X-63271Y45262D01*
X-63301Y45314D01*
X-63346Y45368D01*
X-63728Y46290D01*
X-63728Y58106D01*
X-63357Y59002D01*
X-63240Y59193D01*
X-63118Y59382D01*
X-63093Y59437D01*
X-63062Y59488D01*
X-62973Y59694D01*
X-62879Y59899D01*
X-62861Y59956D01*
X-62837Y60012D01*
X-62779Y60229D01*
X-62713Y60444D01*
X-62704Y60504D01*
X-62688Y60562D01*
X-62677Y60679D01*
X-62626Y61007D01*
X-62623Y61232D01*
X-62612Y61347D01*
X-62612Y62706D01*
X-62631Y62974D01*
X-62647Y63241D01*
X-62651Y63258D01*
X-62652Y63275D01*
X-62708Y63537D01*
X-62761Y63799D01*
X-62767Y63815D01*
X-62771Y63832D01*
X-62863Y64084D01*
X-62953Y64336D01*
X-62960Y64348D01*
X-62967Y64367D01*
X-63235Y64869D01*
X-63302Y64961D01*
X-63338Y65024D01*
X-68406Y72323D01*
X-68420Y72340D01*
X-68432Y72360D01*
X-68599Y72563D01*
X-68763Y72767D01*
X-68780Y72782D01*
X-68794Y72800D01*
X-68987Y72977D01*
X-69179Y73157D01*
X-69198Y73170D01*
X-69214Y73185D01*
X-69430Y73333D01*
X-69645Y73484D01*
X-69665Y73495D01*
X-69684Y73508D01*
X-69918Y73624D01*
X-70152Y73744D01*
X-70174Y73751D01*
X-70194Y73761D01*
X-70441Y73844D01*
X-70691Y73930D01*
X-70713Y73934D01*
X-70734Y73941D01*
X-70992Y73988D01*
X-71250Y74038D01*
X-71273Y74040D01*
X-71295Y74044D01*
X-71558Y74054D01*
X-71819Y74068D01*
X-71842Y74066D01*
X-71864Y74067D01*
X-72126Y74040D01*
X-72387Y74017D01*
X-72409Y74012D01*
X-72431Y74010D01*
X-72684Y73948D01*
X-72942Y73888D01*
X-72963Y73880D01*
X-72985Y73874D01*
X-73227Y73777D01*
X-73473Y73682D01*
X-73493Y73671D01*
X-73514Y73663D01*
X-73741Y73532D01*
X-73970Y73404D01*
X-73988Y73390D01*
X-74008Y73379D01*
X-74067Y73331D01*
X-74424Y73059D01*
X-74542Y72940D01*
X-74617Y72878D01*
X-76499Y70996D01*
X-78362Y69133D01*
X-78682Y69001D01*
X-78787Y68948D01*
X-78897Y68904D01*
X-79042Y68821D01*
X-79192Y68746D01*
X-79289Y68679D01*
X-79391Y68621D01*
X-79479Y68548D01*
X-79661Y68423D01*
X-79910Y68194D01*
X-80000Y68120D01*
X-80040Y68080D01*
X-82184Y67192D01*
X-84504Y67192D01*
X-86648Y68080D01*
X-88288Y69721D01*
X-89176Y71865D01*
X-89176Y74185D01*
X-88288Y76329D01*
X-86648Y77970D01*
X-84504Y78858D01*
X-83305Y78858D01*
X-83245Y78862D01*
X-83185Y78860D01*
X-82961Y78882D01*
X-82737Y78898D01*
X-82678Y78910D01*
X-82618Y78916D01*
X-82399Y78970D01*
X-82179Y79017D01*
X-82123Y79037D01*
X-82064Y79052D01*
X-81855Y79135D01*
X-81644Y79213D01*
X-81591Y79241D01*
X-81535Y79263D01*
X-81340Y79375D01*
X-81142Y79481D01*
X-81093Y79517D01*
X-81041Y79547D01*
X-80950Y79622D01*
X-80682Y79818D01*
X-80521Y79975D01*
X-80432Y80048D01*
X-78902Y81578D01*
X-78802Y81693D01*
X-78694Y81802D01*
X-78615Y81908D01*
X-78529Y82008D01*
X-78445Y82136D01*
X-78354Y82259D01*
X-78291Y82375D01*
X-78219Y82486D01*
X-78154Y82625D01*
X-78081Y82759D01*
X-78035Y82883D01*
X-77979Y83003D01*
X-77934Y83149D01*
X-77881Y83292D01*
X-77852Y83422D01*
X-77814Y83548D01*
X-77790Y83699D01*
X-77757Y83849D01*
X-77747Y83980D01*
X-77726Y84111D01*
X-77724Y84264D01*
X-77712Y84417D01*
X-77720Y84549D01*
X-77719Y84681D01*
X-77738Y84833D01*
X-77747Y84985D01*
X-77774Y85115D01*
X-77791Y85246D01*
X-77831Y85394D01*
X-77862Y85544D01*
X-77906Y85668D01*
X-77941Y85796D01*
X-78002Y85936D01*
X-78053Y86080D01*
X-78101Y86165D01*
X-78167Y86319D01*
X-78401Y86702D01*
X-78438Y86768D01*
X-85826Y97407D01*
X-86029Y97659D01*
X-86098Y97756D01*
X-93572Y106347D01*
X-93633Y106408D01*
X-93688Y106475D01*
X-93834Y106609D01*
X-93975Y106750D01*
X-94044Y106802D01*
X-94108Y106860D01*
X-94271Y106972D01*
X-94431Y107092D01*
X-94506Y107134D01*
X-94577Y107183D01*
X-94755Y107271D01*
X-94930Y107367D01*
X-95010Y107398D01*
X-95087Y107436D01*
X-95276Y107499D01*
X-95462Y107570D01*
X-95546Y107589D01*
X-95628Y107616D01*
X-95824Y107652D01*
X-96018Y107696D01*
X-96104Y107703D01*
X-96189Y107719D01*
X-96388Y107727D01*
X-96586Y107743D01*
X-96671Y107738D01*
X-96758Y107742D01*
X-96956Y107722D01*
X-97154Y107710D01*
X-97239Y107693D01*
X-97325Y107685D01*
X-97518Y107638D01*
X-97713Y107598D01*
X-97794Y107570D01*
X-97878Y107549D01*
X-98063Y107475D01*
X-98251Y107409D01*
X-98327Y107370D01*
X-98407Y107338D01*
X-98580Y107239D01*
X-98756Y107147D01*
X-98827Y107097D01*
X-98902Y107054D01*
X-98995Y106977D01*
X-99221Y106817D01*
X-99417Y106630D01*
X-99510Y106553D01*
X-99883Y106180D01*
X-102027Y105292D01*
X-104348Y105292D01*
X-106492Y106180D01*
X-108132Y107821D01*
X-109020Y109965D01*
X-109020Y109989D01*
X-109022Y110011D01*
X-109020Y110033D01*
X-109042Y110293D01*
X-109060Y110557D01*
X-109065Y110579D01*
X-109067Y110601D01*
X-109124Y110858D01*
X-109179Y111114D01*
X-109187Y111135D01*
X-109192Y111156D01*
X-109285Y111403D01*
X-109375Y111650D01*
X-109385Y111669D01*
X-109393Y111689D01*
X-109520Y111920D01*
X-109644Y112152D01*
X-109657Y112170D01*
X-109667Y112189D01*
X-109825Y112399D01*
X-109980Y112612D01*
X-109996Y112628D01*
X-110009Y112645D01*
X-110194Y112831D01*
X-110378Y113020D01*
X-110395Y113034D01*
X-110411Y113049D01*
X-110472Y113093D01*
X-110828Y113369D01*
X-110973Y113451D01*
X-111052Y113508D01*
X-119171Y118195D01*
X-119994Y119268D01*
X-120050Y119347D01*
X-120177Y119539D01*
X-120213Y119580D01*
X-120245Y119624D01*
X-120403Y119793D01*
X-120556Y119965D01*
X-120597Y120000D01*
X-120634Y120040D01*
X-120814Y120185D01*
X-120990Y120334D01*
X-121036Y120363D01*
X-121078Y120397D01*
X-121277Y120515D01*
X-121472Y120639D01*
X-121521Y120661D01*
X-121568Y120689D01*
X-121781Y120778D01*
X-121991Y120873D01*
X-122043Y120888D01*
X-122093Y120909D01*
X-122317Y120967D01*
X-122538Y121032D01*
X-122592Y121040D01*
X-122644Y121053D01*
X-122874Y121080D01*
X-123102Y121113D01*
X-123156Y121113D01*
X-123210Y121119D01*
X-123244Y121119D01*
X-124527Y121288D01*
X-133894Y126695D01*
X-134390Y127343D01*
X-134602Y128131D01*
X-134495Y128940D01*
X-128587Y139172D01*
X-128143Y139513D01*
X-128090Y139560D01*
X-128033Y139600D01*
X-127877Y139749D01*
X-127716Y139891D01*
X-127671Y139944D01*
X-127620Y139993D01*
X-127486Y140161D01*
X-127347Y140325D01*
X-127309Y140384D01*
X-127266Y140439D01*
X-127157Y140624D01*
X-127041Y140806D01*
X-127013Y140870D01*
X-126977Y140930D01*
X-126895Y141129D01*
X-126807Y141325D01*
X-126787Y141392D01*
X-126760Y141457D01*
X-126707Y141665D01*
X-126646Y141872D01*
X-126636Y141941D01*
X-126619Y142009D01*
X-126595Y142222D01*
X-126564Y142435D01*
X-126564Y142506D01*
X-126556Y142575D01*
X-126563Y142790D01*
X-126562Y143005D01*
X-126572Y143075D01*
X-126574Y143145D01*
X-126610Y143356D01*
X-126640Y143570D01*
X-126659Y143637D01*
X-126671Y143706D01*
X-126736Y143911D01*
X-126795Y144118D01*
X-126824Y144182D01*
X-126845Y144249D01*
X-126939Y144442D01*
X-127026Y144639D01*
X-127063Y144698D01*
X-127094Y144762D01*
X-127164Y144860D01*
X-127327Y145122D01*
X-127482Y145307D01*
X-127551Y145404D01*
X-153214Y174901D01*
X-153384Y175071D01*
X-153550Y175244D01*
X-153585Y175272D01*
X-153617Y175304D01*
X-153809Y175448D01*
X-153998Y175596D01*
X-154037Y175619D01*
X-154073Y175646D01*
X-154283Y175762D01*
X-154490Y175883D01*
X-154532Y175900D01*
X-154572Y175921D01*
X-154796Y176007D01*
X-155018Y176097D01*
X-155062Y176108D01*
X-155104Y176124D01*
X-155339Y176177D01*
X-155571Y176235D01*
X-155616Y176240D01*
X-155660Y176250D01*
X-155899Y176270D01*
X-156138Y176295D01*
X-156183Y176294D01*
X-156228Y176297D01*
X-156467Y176284D01*
X-156707Y176275D01*
X-156751Y176267D01*
X-156797Y176265D01*
X-157032Y176217D01*
X-157268Y176176D01*
X-157311Y176162D01*
X-157355Y176153D01*
X-157582Y176073D01*
X-157810Y175999D01*
X-157850Y175979D01*
X-157893Y175964D01*
X-158106Y175853D01*
X-158321Y175747D01*
X-158358Y175722D01*
X-158399Y175701D01*
X-158594Y175562D01*
X-158792Y175427D01*
X-158826Y175397D01*
X-158863Y175371D01*
X-159037Y175206D01*
X-159214Y175044D01*
X-159237Y175015D01*
X-159276Y174979D01*
X-159630Y174532D01*
X-159670Y174465D01*
X-159702Y174425D01*
X-164073Y167595D01*
X-164075Y167594D01*
X-164140Y167566D01*
X-164160Y167545D01*
X-164186Y167531D01*
X-164249Y167454D01*
X-164279Y167424D01*
X-164283Y167413D01*
X-164291Y167403D01*
X-165148Y165915D01*
X-173280Y153208D01*
X-173335Y153107D01*
X-173399Y153011D01*
X-173472Y152857D01*
X-173553Y152708D01*
X-173594Y152600D01*
X-173643Y152496D01*
X-173693Y152334D01*
X-173753Y152175D01*
X-173778Y152062D01*
X-173812Y151952D01*
X-173840Y151784D01*
X-173877Y151618D01*
X-173886Y151503D01*
X-173904Y151390D01*
X-173908Y151220D01*
X-173921Y151050D01*
X-173914Y150935D01*
X-173916Y150820D01*
X-173896Y150651D01*
X-173886Y150482D01*
X-173863Y150369D01*
X-173849Y150254D01*
X-173805Y150090D01*
X-173771Y149923D01*
X-173732Y149815D01*
X-173703Y149704D01*
X-173655Y149598D01*
X-173579Y149387D01*
X-173425Y149093D01*
X-173377Y148986D01*
X-147490Y104163D01*
X-147446Y104099D01*
X-147410Y104030D01*
X-147287Y103863D01*
X-147171Y103691D01*
X-147119Y103633D01*
X-147073Y103571D01*
X-146928Y103422D01*
X-146789Y103268D01*
X-146730Y103218D01*
X-146675Y103163D01*
X-146511Y103035D01*
X-146352Y102902D01*
X-146286Y102862D01*
X-146225Y102814D01*
X-146044Y102711D01*
X-145868Y102602D01*
X-145797Y102571D01*
X-145730Y102532D01*
X-145536Y102456D01*
X-145347Y102372D01*
X-145272Y102351D01*
X-145200Y102322D01*
X-144998Y102273D01*
X-144798Y102217D01*
X-144721Y102207D01*
X-144646Y102188D01*
X-144439Y102168D01*
X-144234Y102140D01*
X-144156Y102141D01*
X-144079Y102133D01*
X-143872Y102142D01*
X-143664Y102144D01*
X-143587Y102155D01*
X-143510Y102158D01*
X-143305Y102196D01*
X-143100Y102226D01*
X-143026Y102248D01*
X-142949Y102262D01*
X-142835Y102304D01*
X-142553Y102387D01*
X-142322Y102492D01*
X-142209Y102534D01*
X-141754Y102753D01*
X-141668Y102802D01*
X-141578Y102843D01*
X-141479Y102910D01*
X-141259Y103035D01*
X-141204Y103078D01*
X-141145Y103096D01*
X-140614Y103302D01*
X-140595Y103312D01*
X-140580Y103318D01*
X-140509Y103352D01*
X-140304Y103378D01*
X-140018Y103456D01*
X-139899Y103480D01*
X-137585Y104193D01*
X-137492Y104229D01*
X-137397Y104256D01*
X-137289Y104308D01*
X-137053Y104399D01*
X-136992Y104433D01*
X-136931Y104442D01*
X-136375Y104566D01*
X-136354Y104574D01*
X-136339Y104577D01*
X-136264Y104600D01*
X-136057Y104595D01*
X-135764Y104630D01*
X-135642Y104636D01*
X-133247Y104996D01*
X-133150Y105018D01*
X-133052Y105030D01*
X-132938Y105065D01*
X-132691Y105120D01*
X-132626Y105145D01*
X-132564Y105145D01*
X-131995Y105185D01*
X-131974Y105189D01*
X-131958Y105190D01*
X-131881Y105202D01*
X-131677Y105166D01*
X-131381Y105156D01*
X-131260Y105144D01*
X-128838Y105144D01*
X-128739Y105150D01*
X-128640Y105148D01*
X-128522Y105166D01*
X-128270Y105183D01*
X-128201Y105198D01*
X-128140Y105189D01*
X-127573Y105143D01*
X-127550Y105145D01*
X-127535Y105143D01*
X-127457Y105143D01*
X-127260Y105077D01*
X-126969Y105024D01*
X-126851Y104994D01*
X-124457Y104632D01*
X-124358Y104624D01*
X-124260Y104607D01*
X-124141Y104607D01*
X-123889Y104587D01*
X-123819Y104591D01*
X-123760Y104573D01*
X-123205Y104443D01*
X-123183Y104441D01*
X-123168Y104438D01*
X-123090Y104426D01*
X-122906Y104332D01*
X-122627Y104235D01*
X-122514Y104188D01*
X-120200Y103474D01*
X-120104Y103451D01*
X-120010Y103420D01*
X-119891Y103402D01*
X-119645Y103344D01*
X-119576Y103338D01*
X-119520Y103311D01*
X-118991Y103100D01*
X-118969Y103095D01*
X-118955Y103089D01*
X-118880Y103066D01*
X-118712Y102945D01*
X-118450Y102808D01*
X-118346Y102745D01*
X-116164Y101694D01*
X-116072Y101657D01*
X-115983Y101612D01*
X-115869Y101576D01*
X-115635Y101483D01*
X-115567Y101466D01*
X-115516Y101432D01*
X-115024Y101144D01*
X-115003Y101136D01*
X-114990Y101128D01*
X-114919Y101094D01*
X-114771Y100949D01*
X-114532Y100775D01*
X-114439Y100697D01*
X-112438Y99332D01*
X-112353Y99282D01*
X-112272Y99224D01*
X-112164Y99172D01*
X-111946Y99045D01*
X-111881Y99018D01*
X-111836Y98976D01*
X-111392Y98619D01*
X-111374Y98607D01*
X-111361Y98597D01*
X-111297Y98553D01*
X-111172Y98389D01*
X-110962Y98180D01*
X-110881Y98089D01*
X-109106Y96441D01*
X-109029Y96379D01*
X-108958Y96310D01*
X-108859Y96242D01*
X-108662Y96084D01*
X-108602Y96048D01*
X-108564Y96000D01*
X-108178Y95580D01*
X-108161Y95566D01*
X-108151Y95554D01*
X-107795Y95224D01*
X-107674Y95126D01*
X-107560Y95022D01*
X-107453Y94948D01*
X-107351Y94866D01*
X-107218Y94787D01*
X-107090Y94699D01*
X-106974Y94641D01*
X-106862Y94575D01*
X-106719Y94515D01*
X-106580Y94445D01*
X-106456Y94404D01*
X-106336Y94354D01*
X-106186Y94315D01*
X-106039Y94266D01*
X-105911Y94242D01*
X-105785Y94209D01*
X-105631Y94191D01*
X-105479Y94163D01*
X-105349Y94158D01*
X-105219Y94143D01*
X-105064Y94146D01*
X-104909Y94140D01*
X-104780Y94153D01*
X-104650Y94156D01*
X-104497Y94181D01*
X-104343Y94197D01*
X-104216Y94228D01*
X-104088Y94249D01*
X-103940Y94296D01*
X-103789Y94333D01*
X-103668Y94381D01*
X-103544Y94420D01*
X-103404Y94487D01*
X-103260Y94544D01*
X-103147Y94609D01*
X-103030Y94665D01*
X-102900Y94751D01*
X-102766Y94828D01*
X-102692Y94889D01*
X-102555Y94980D01*
X-102395Y95121D01*
X-100199Y96031D01*
X-97879Y96031D01*
X-95735Y95143D01*
X-94094Y93502D01*
X-93206Y91358D01*
X-93206Y89038D01*
X-94094Y86894D01*
X-95735Y85253D01*
X-98291Y84194D01*
X-98446Y84117D01*
X-98604Y84049D01*
X-98700Y83990D01*
X-98801Y83940D01*
X-98943Y83842D01*
X-99090Y83752D01*
X-99177Y83681D01*
X-99270Y83617D01*
X-99397Y83500D01*
X-99531Y83390D01*
X-99607Y83307D01*
X-99689Y83231D01*
X-99799Y83097D01*
X-99916Y82970D01*
X-99979Y82878D01*
X-100051Y82791D01*
X-100140Y82643D01*
X-100238Y82500D01*
X-100288Y82400D01*
X-100347Y82304D01*
X-100415Y82145D01*
X-100492Y81990D01*
X-100527Y81884D01*
X-100572Y81780D01*
X-100617Y81614D01*
X-100672Y81450D01*
X-100692Y81339D01*
X-100722Y81231D01*
X-100743Y81059D01*
X-100774Y80889D01*
X-100779Y80777D01*
X-100793Y80665D01*
X-100790Y80492D01*
X-100797Y80320D01*
X-100787Y80235D01*
X-100784Y80096D01*
X-100726Y79720D01*
X-100750Y79473D01*
X-100738Y79178D01*
X-100740Y79056D01*
X-100560Y76641D01*
X-100546Y76542D01*
X-100541Y76443D01*
X-100514Y76326D01*
X-100478Y76077D01*
X-100458Y76010D01*
X-100463Y75948D01*
X-100466Y75378D01*
X-100463Y75356D01*
X-100463Y75340D01*
X-100457Y75263D01*
X-100508Y75062D01*
X-100540Y74768D01*
X-100561Y74648D01*
X-100743Y72233D01*
X-100743Y72134D01*
X-100753Y72035D01*
X-100744Y71915D01*
X-100745Y71663D01*
X-100736Y71594D01*
X-100750Y71534D01*
X-100837Y70971D01*
X-100838Y70949D01*
X-100840Y70933D01*
X-100846Y70855D01*
X-100926Y70664D01*
X-101002Y70378D01*
X-101040Y70263D01*
X-101580Y67902D01*
X-101595Y67804D01*
X-101619Y67708D01*
X-101629Y67588D01*
X-101668Y67339D01*
X-101669Y67269D01*
X-101691Y67211D01*
X-101862Y66668D01*
X-101865Y66646D01*
X-101870Y66631D01*
X-101888Y66555D01*
X-101995Y66378D01*
X-102113Y66106D01*
X-102168Y65998D01*
X-103053Y63744D01*
X-103083Y63649D01*
X-103121Y63558D01*
X-103148Y63441D01*
X-103224Y63200D01*
X-103235Y63131D01*
X-103266Y63078D01*
X-103516Y62566D01*
X-103523Y62545D01*
X-103530Y62531D01*
X-103559Y62458D01*
X-103691Y62299D01*
X-103848Y62048D01*
X-103918Y61949D01*
X-105130Y59852D01*
X-105174Y59763D01*
X-105225Y59678D01*
X-105269Y59567D01*
X-105380Y59340D01*
X-105401Y59273D01*
X-105440Y59225D01*
X-105557Y59055D01*
X-105567Y59042D01*
X-105572Y59034D01*
X-105763Y58756D01*
X-105773Y58736D01*
X-105782Y58723D01*
X-105821Y58656D01*
X-105976Y58519D01*
X-106168Y58293D01*
X-106253Y58206D01*
X-107764Y56313D01*
X-107820Y56231D01*
X-107883Y56155D01*
X-107944Y56052D01*
X-108087Y55844D01*
X-108118Y55781D01*
X-108163Y55739D01*
X-108379Y55509D01*
X-108460Y55430D01*
X-108494Y55386D01*
X-108553Y55324D01*
X-108566Y55305D01*
X-108577Y55294D01*
X-108626Y55233D01*
X-108799Y55121D01*
X-109023Y54926D01*
X-109119Y54853D01*
X-110895Y53206D01*
X-110963Y53134D01*
X-111037Y53068D01*
X-111112Y52974D01*
X-111285Y52790D01*
X-111325Y52733D01*
X-111376Y52698D01*
X-111823Y52345D01*
X-111839Y52329D01*
X-111851Y52320D01*
X-111908Y52267D01*
X-112097Y52181D01*
X-112347Y52023D01*
X-112453Y51964D01*
X-112845Y51698D01*
X-112907Y51648D01*
X-112974Y51606D01*
X-113131Y51472D01*
X-113292Y51344D01*
X-113347Y51287D01*
X-113407Y51236D01*
X-113543Y51082D01*
X-113686Y50932D01*
X-113732Y50868D01*
X-113784Y50808D01*
X-113898Y50636D01*
X-114018Y50469D01*
X-114054Y50399D01*
X-114098Y50333D01*
X-114186Y50146D01*
X-114281Y49964D01*
X-114308Y49890D01*
X-114342Y49818D01*
X-114403Y49621D01*
X-114472Y49427D01*
X-114488Y49350D01*
X-114512Y49274D01*
X-114545Y49071D01*
X-114586Y48869D01*
X-114591Y48790D01*
X-114603Y48711D01*
X-114608Y48506D01*
X-114620Y48300D01*
X-114614Y48221D01*
X-114616Y48142D01*
X-114591Y47937D01*
X-114575Y47732D01*
X-114557Y47655D01*
X-114548Y47576D01*
X-114495Y47377D01*
X-114450Y47176D01*
X-114422Y47102D01*
X-114402Y47025D01*
X-114352Y46914D01*
X-114249Y46643D01*
X-114126Y46417D01*
X-114076Y46307D01*
X-88448Y1933D01*
X-88430Y1907D01*
X-88416Y1879D01*
X-88271Y1671D01*
X-88129Y1461D01*
X-88108Y1438D01*
X-88090Y1412D01*
X-87917Y1226D01*
X-87747Y1038D01*
X-87723Y1018D01*
X-87702Y995D01*
X-87504Y835D01*
X-87379Y730D01*
X-87191Y405D01*
X-87140Y346D01*
X-87094Y284D01*
X-87075Y272D01*
X-87060Y256D01*
X-86990Y222D01*
X-86923Y182D01*
X-86898Y178D01*
X-86881Y170D01*
X-86836Y168D01*
X-86759Y155D01*
X-86334Y155D01*
X-86305Y142D01*
X-86275Y133D01*
X-86246Y121D01*
X-86001Y56D01*
X-85756Y-13D01*
X-85725Y-17D01*
X-85695Y-25D01*
X-85604Y-34D01*
X-85192Y-90D01*
X-85012Y-89D01*
X-84910Y-98D01*
X-33506Y140D01*
G37*
G36*
X-65668Y114950D02*
X-65668Y114950D01*
X-65575Y114946D01*
X-65467Y114963D01*
X-65359Y114970D01*
X-65269Y114994D01*
X-65177Y115008D01*
X-65075Y115045D01*
X-64970Y115073D01*
X-64869Y115121D01*
X-64799Y115147D01*
X-64747Y115179D01*
X-64670Y115215D01*
X-58651Y118691D01*
X-58577Y118744D01*
X-58497Y118788D01*
X-58414Y118861D01*
X-58324Y118926D01*
X-58262Y118992D01*
X-58193Y119052D01*
X-58125Y119139D01*
X-58049Y119220D01*
X-58002Y119298D01*
X-57946Y119370D01*
X-57897Y119469D01*
X-57839Y119563D01*
X-57807Y119649D01*
X-57767Y119730D01*
X-57738Y119837D01*
X-57700Y119941D01*
X-57686Y120031D01*
X-57662Y120119D01*
X-57651Y120256D01*
X-57638Y120339D01*
X-57640Y120387D01*
X-57635Y120450D01*
X-57635Y126206D01*
X-56859Y128080D01*
X-43666Y141273D01*
X-43649Y141294D01*
X-43629Y141311D01*
X-43522Y141449D01*
X-43411Y141584D01*
X-43398Y141608D01*
X-43382Y141629D01*
X-43304Y141786D01*
X-43222Y141940D01*
X-43215Y141966D01*
X-43203Y141990D01*
X-43157Y142159D01*
X-43107Y142326D01*
X-43105Y142353D01*
X-43098Y142379D01*
X-43071Y142709D01*
X-43071Y143936D01*
X-42183Y146079D01*
X-40542Y147720D01*
X-38398Y148608D01*
X-37638Y148608D01*
X-37474Y148624D01*
X-37311Y148635D01*
X-37274Y148644D01*
X-37237Y148648D01*
X-37080Y148696D01*
X-36922Y148738D01*
X-36884Y148757D01*
X-36852Y148766D01*
X-36775Y148808D01*
X-36622Y148880D01*
X-28826Y153381D01*
X-28815Y153389D01*
X-28804Y153394D01*
X-28652Y153506D01*
X-28499Y153616D01*
X-28490Y153626D01*
X-28480Y153633D01*
X-28354Y153772D01*
X-28224Y153911D01*
X-28218Y153922D01*
X-28209Y153932D01*
X-28113Y154093D01*
X-28014Y154254D01*
X-28009Y154266D01*
X-28003Y154277D01*
X-27940Y154455D01*
X-27875Y154632D01*
X-27873Y154645D01*
X-27869Y154657D01*
X-27842Y154844D01*
X-27813Y155030D01*
X-27814Y155043D01*
X-27812Y155056D01*
X-27823Y155244D01*
X-27831Y155432D01*
X-27834Y155445D01*
X-27835Y155458D01*
X-27883Y155640D01*
X-27928Y155823D01*
X-27934Y155835D01*
X-27937Y155847D01*
X-28077Y156148D01*
X-29449Y158550D01*
X-29462Y158569D01*
X-29472Y158589D01*
X-29579Y158733D01*
X-29682Y158878D01*
X-29699Y158894D01*
X-29712Y158912D01*
X-29845Y159032D01*
X-29976Y159154D01*
X-29995Y159166D01*
X-30012Y159181D01*
X-30166Y159272D01*
X-30318Y159366D01*
X-30339Y159374D01*
X-30359Y159386D01*
X-30527Y159445D01*
X-30695Y159507D01*
X-30717Y159511D01*
X-30739Y159518D01*
X-30916Y159543D01*
X-31092Y159571D01*
X-31115Y159570D01*
X-31138Y159573D01*
X-31317Y159562D01*
X-31495Y159555D01*
X-31517Y159549D01*
X-31540Y159548D01*
X-31712Y159502D01*
X-31886Y159460D01*
X-31907Y159450D01*
X-31929Y159444D01*
X-32229Y159302D01*
X-32543Y159121D01*
X-34584Y159668D01*
X-37140Y164096D01*
X-36594Y166137D01*
X-32066Y168751D01*
X-32045Y168766D01*
X-32021Y168777D01*
X-31882Y168883D01*
X-31767Y168965D01*
X-30127Y169902D01*
X-30126Y169902D01*
X-29832Y170041D01*
X-29827Y170043D01*
X-29827Y170044D01*
X-29826Y170044D01*
X-27434Y171425D01*
X-27419Y171436D01*
X-27403Y171443D01*
X-27256Y171553D01*
X-27107Y171660D01*
X-27095Y171673D01*
X-27080Y171684D01*
X-26958Y171820D01*
X-26833Y171955D01*
X-26823Y171970D01*
X-26811Y171983D01*
X-26718Y172142D01*
X-26622Y172298D01*
X-26616Y172315D01*
X-26607Y172330D01*
X-26546Y172503D01*
X-26483Y172676D01*
X-26480Y172693D01*
X-26474Y172710D01*
X-26449Y172893D01*
X-26421Y173074D01*
X-26422Y173091D01*
X-26420Y173109D01*
X-26431Y173293D01*
X-26439Y173476D01*
X-26444Y173493D01*
X-26445Y173511D01*
X-26492Y173689D01*
X-26536Y173866D01*
X-26544Y173883D01*
X-26549Y173900D01*
X-26690Y174200D01*
X-27108Y174924D01*
X-27119Y174938D01*
X-27127Y174954D01*
X-27236Y175101D01*
X-27343Y175251D01*
X-27356Y175263D01*
X-27367Y175277D01*
X-27503Y175400D01*
X-27638Y175525D01*
X-27653Y175534D01*
X-27667Y175546D01*
X-27825Y175640D01*
X-27981Y175736D01*
X-27998Y175742D01*
X-28013Y175751D01*
X-28188Y175812D01*
X-28359Y175875D01*
X-28377Y175878D01*
X-28394Y175883D01*
X-28576Y175908D01*
X-28757Y175936D01*
X-28775Y175936D01*
X-28792Y175938D01*
X-28976Y175927D01*
X-29159Y175918D01*
X-29176Y175914D01*
X-29194Y175913D01*
X-29372Y175866D01*
X-29550Y175821D01*
X-29566Y175814D01*
X-29583Y175809D01*
X-29883Y175667D01*
X-37822Y171084D01*
X-37903Y171026D01*
X-37989Y170976D01*
X-38084Y170896D01*
X-38149Y170849D01*
X-38186Y170809D01*
X-38242Y170761D01*
X-39028Y169976D01*
X-41297Y169036D01*
X-41325Y169021D01*
X-41354Y169011D01*
X-41502Y168926D01*
X-41652Y168846D01*
X-41676Y168826D01*
X-41703Y168810D01*
X-41956Y168595D01*
X-54441Y156111D01*
X-54539Y155991D01*
X-54642Y155876D01*
X-54666Y155835D01*
X-54696Y155799D01*
X-54768Y155663D01*
X-54847Y155529D01*
X-54863Y155485D01*
X-54884Y155444D01*
X-54928Y155295D01*
X-54979Y155149D01*
X-54986Y155102D01*
X-54999Y155058D01*
X-55013Y154903D01*
X-55034Y154750D01*
X-55031Y154703D01*
X-55035Y154657D01*
X-55019Y154502D01*
X-55009Y154348D01*
X-54997Y154303D01*
X-54992Y154257D01*
X-54945Y154109D01*
X-54905Y153959D01*
X-54883Y153911D01*
X-54871Y153873D01*
X-54829Y153797D01*
X-54763Y153659D01*
X-50493Y146262D01*
X-50933Y144621D01*
X-61284Y138645D01*
X-61410Y138554D01*
X-61540Y138470D01*
X-61573Y138437D01*
X-61611Y138410D01*
X-61717Y138296D01*
X-61828Y138188D01*
X-61854Y138149D01*
X-61886Y138115D01*
X-61967Y137983D01*
X-62054Y137855D01*
X-62072Y137812D01*
X-62096Y137772D01*
X-62150Y137627D01*
X-62210Y137484D01*
X-62219Y137438D01*
X-62235Y137394D01*
X-62259Y137241D01*
X-62290Y137089D01*
X-62290Y137042D01*
X-62297Y136996D01*
X-62290Y136842D01*
X-62290Y136686D01*
X-62281Y136635D01*
X-62279Y136594D01*
X-62258Y136510D01*
X-62231Y136360D01*
X-61961Y135352D01*
X-62216Y133415D01*
X-63192Y131723D01*
X-64742Y130534D01*
X-66629Y130028D01*
X-68566Y130283D01*
X-78762Y136170D01*
X-79952Y137720D01*
X-80330Y139133D01*
X-80337Y139149D01*
X-80340Y139167D01*
X-80407Y139337D01*
X-80473Y139509D01*
X-80482Y139525D01*
X-80489Y139541D01*
X-80589Y139695D01*
X-80686Y139851D01*
X-80699Y139864D01*
X-80708Y139879D01*
X-80837Y140010D01*
X-80963Y140143D01*
X-80978Y140153D01*
X-80990Y140166D01*
X-81142Y140269D01*
X-81292Y140375D01*
X-81309Y140382D01*
X-81323Y140392D01*
X-81493Y140463D01*
X-81660Y140538D01*
X-81678Y140541D01*
X-81694Y140548D01*
X-81874Y140585D01*
X-82054Y140624D01*
X-82072Y140625D01*
X-82089Y140628D01*
X-82272Y140628D01*
X-82456Y140632D01*
X-82474Y140628D01*
X-82492Y140628D01*
X-82818Y140569D01*
X-85252Y139917D01*
X-100182Y148536D01*
X-100621Y150177D01*
X-96912Y156602D01*
X-95271Y157042D01*
X-88863Y153342D01*
X-88713Y153275D01*
X-88567Y153202D01*
X-88530Y153192D01*
X-88496Y153176D01*
X-88337Y153140D01*
X-88178Y153097D01*
X-88136Y153094D01*
X-88103Y153086D01*
X-88016Y153084D01*
X-87847Y153070D01*
X-66071Y153070D01*
X-66053Y153072D01*
X-66035Y153070D01*
X-65853Y153092D01*
X-65670Y153110D01*
X-65653Y153115D01*
X-65635Y153117D01*
X-65461Y153174D01*
X-65285Y153228D01*
X-65270Y153237D01*
X-65253Y153242D01*
X-65092Y153333D01*
X-64931Y153420D01*
X-64918Y153431D01*
X-64902Y153440D01*
X-64763Y153560D01*
X-64622Y153678D01*
X-64611Y153692D01*
X-64597Y153703D01*
X-64485Y153848D01*
X-64370Y153991D01*
X-64361Y154007D01*
X-64350Y154021D01*
X-64268Y154186D01*
X-64184Y154349D01*
X-64179Y154366D01*
X-64171Y154382D01*
X-64123Y154560D01*
X-64073Y154736D01*
X-64071Y154753D01*
X-64067Y154771D01*
X-64040Y155101D01*
X-64040Y157181D01*
X-63418Y158681D01*
X-48760Y173340D01*
X-48743Y173360D01*
X-48722Y173378D01*
X-48615Y173516D01*
X-48505Y173651D01*
X-48492Y173675D01*
X-48476Y173696D01*
X-48398Y173853D01*
X-48316Y174007D01*
X-48308Y174032D01*
X-48296Y174056D01*
X-48251Y174226D01*
X-48201Y174393D01*
X-48199Y174419D01*
X-48192Y174445D01*
X-48165Y174776D01*
X-48165Y176081D01*
X-47277Y178224D01*
X-45636Y179865D01*
X-43492Y180753D01*
X-41172Y180753D01*
X-39830Y180197D01*
X-39677Y180151D01*
X-39526Y180099D01*
X-39485Y180093D01*
X-39444Y180081D01*
X-39285Y180066D01*
X-39127Y180044D01*
X-39085Y180047D01*
X-39043Y180043D01*
X-38885Y180059D01*
X-38726Y180069D01*
X-38685Y180080D01*
X-38643Y180084D01*
X-38491Y180132D01*
X-38337Y180173D01*
X-38294Y180193D01*
X-38259Y180204D01*
X-38182Y180246D01*
X-38037Y180315D01*
X-31824Y183902D01*
X-30195Y183465D01*
X-30105Y183451D01*
X-30018Y183426D01*
X-29907Y183418D01*
X-29798Y183400D01*
X-29707Y183403D01*
X-29616Y183397D01*
X-29506Y183411D01*
X-29396Y183415D01*
X-29307Y183436D01*
X-29217Y183447D01*
X-29112Y183482D01*
X-29004Y183508D01*
X-28921Y183546D01*
X-28835Y183575D01*
X-28739Y183631D01*
X-28639Y183677D01*
X-28565Y183731D01*
X-28486Y183776D01*
X-28381Y183865D01*
X-28314Y183915D01*
X-28281Y183950D01*
X-28233Y183991D01*
X-27303Y184921D01*
X-27200Y185047D01*
X-27091Y185170D01*
X-27072Y185203D01*
X-27048Y185232D01*
X-26972Y185376D01*
X-26889Y185519D01*
X-26875Y185559D01*
X-26860Y185588D01*
X-26835Y185671D01*
X-26778Y185831D01*
X-26466Y186995D01*
X-16586Y192699D01*
X-16571Y192710D01*
X-16555Y192717D01*
X-16408Y192827D01*
X-16259Y192934D01*
X-16247Y192947D01*
X-16232Y192958D01*
X-16110Y193094D01*
X-15985Y193229D01*
X-15975Y193244D01*
X-15963Y193258D01*
X-15871Y193414D01*
X-15774Y193572D01*
X-15768Y193589D01*
X-15759Y193604D01*
X-15698Y193777D01*
X-15635Y193950D01*
X-15632Y193968D01*
X-15626Y193985D01*
X-15601Y194167D01*
X-15573Y194348D01*
X-15574Y194366D01*
X-15572Y194383D01*
X-15583Y194568D01*
X-15591Y194750D01*
X-15595Y194767D01*
X-15597Y194785D01*
X-15644Y194964D01*
X-15688Y195141D01*
X-15696Y195157D01*
X-15700Y195174D01*
X-15842Y195474D01*
X-15846Y195480D01*
X-15845Y195481D01*
X-15822Y195653D01*
X-15793Y195826D01*
X-15794Y195853D01*
X-15791Y195879D01*
X-15801Y196054D01*
X-15808Y196229D01*
X-15814Y196254D01*
X-15816Y196281D01*
X-15861Y196450D01*
X-15901Y196620D01*
X-15912Y196644D01*
X-15919Y196670D01*
X-16061Y196970D01*
X-16281Y197350D01*
X-16339Y197431D01*
X-16389Y197518D01*
X-16415Y197549D01*
X-16450Y197615D01*
X-16527Y197777D01*
X-20688Y204984D01*
X-20704Y205006D01*
X-20715Y205030D01*
X-20821Y205169D01*
X-20923Y205311D01*
X-20942Y205329D01*
X-20959Y205350D01*
X-21089Y205466D01*
X-21218Y205585D01*
X-21241Y205599D01*
X-21261Y205617D01*
X-21411Y205704D01*
X-21561Y205796D01*
X-21563Y205797D01*
X-27438Y215973D01*
X-26998Y217614D01*
X-15979Y223976D01*
X-15951Y223971D01*
X-15760Y223940D01*
X-15751Y223940D01*
X-15743Y223939D01*
X-15551Y223948D01*
X-15358Y223954D01*
X-15349Y223957D01*
X-15340Y223957D01*
X-15153Y224003D01*
X-14966Y224048D01*
X-14958Y224052D01*
X-14950Y224054D01*
X-14777Y224136D01*
X-14601Y224217D01*
X-14594Y224222D01*
X-14586Y224226D01*
X-14433Y224339D01*
X-14276Y224455D01*
X-14270Y224461D01*
X-14263Y224467D01*
X-14135Y224608D01*
X-14004Y224752D01*
X-14000Y224760D01*
X-13994Y224766D01*
X-13895Y224933D01*
X-13797Y225097D01*
X-13794Y225105D01*
X-13789Y225113D01*
X-13726Y225295D01*
X-13661Y225476D01*
X-13660Y225485D01*
X-13657Y225493D01*
X-13631Y225683D01*
X-13603Y225874D01*
X-13603Y225883D01*
X-13602Y225892D01*
X-13614Y226083D01*
X-13624Y226276D01*
X-13627Y226285D01*
X-13627Y226294D01*
X-13677Y226480D01*
X-13725Y226666D01*
X-13729Y226674D01*
X-13731Y226683D01*
X-13873Y226983D01*
X-15370Y229576D01*
X-14931Y231217D01*
X-13661Y231951D01*
X-13557Y232025D01*
X-13449Y232091D01*
X-13394Y232142D01*
X-13334Y232186D01*
X-13247Y232279D01*
X-13154Y232365D01*
X-13110Y232426D01*
X-13059Y232480D01*
X-12993Y232589D01*
X-12918Y232692D01*
X-12888Y232760D01*
X-12849Y232823D01*
X-12805Y232943D01*
X-12752Y233059D01*
X-12735Y233131D01*
X-12710Y233201D01*
X-12690Y233327D01*
X-12661Y233451D01*
X-12659Y233525D01*
X-12648Y233599D01*
X-12654Y233726D01*
X-12650Y233853D01*
X-12663Y233927D01*
X-12666Y234001D01*
X-12697Y234125D01*
X-12718Y234250D01*
X-12745Y234320D01*
X-12763Y234392D01*
X-12817Y234507D01*
X-12863Y234626D01*
X-12903Y234689D01*
X-12935Y234756D01*
X-13011Y234858D01*
X-13079Y234965D01*
X-13131Y235019D01*
X-13176Y235079D01*
X-13270Y235164D01*
X-13358Y235256D01*
X-13420Y235298D01*
X-13475Y235348D01*
X-13585Y235413D01*
X-13689Y235485D01*
X-13758Y235515D01*
X-13822Y235553D01*
X-13942Y235594D01*
X-14059Y235645D01*
X-14143Y235664D01*
X-14202Y235685D01*
X-14276Y235695D01*
X-14382Y235720D01*
X-28281Y237754D01*
X-28368Y237758D01*
X-28455Y237771D01*
X-28569Y237767D01*
X-28683Y237772D01*
X-28770Y237759D01*
X-28857Y237755D01*
X-28968Y237728D01*
X-29081Y237711D01*
X-29163Y237681D01*
X-29248Y237660D01*
X-29352Y237612D01*
X-29459Y237573D01*
X-29534Y237527D01*
X-29613Y237490D01*
X-29705Y237422D01*
X-29802Y237362D01*
X-29866Y237303D01*
X-29937Y237251D01*
X-30014Y237166D01*
X-30098Y237088D01*
X-30149Y237017D01*
X-30207Y236953D01*
X-30283Y236831D01*
X-30333Y236762D01*
X-30351Y236721D01*
X-30382Y236671D01*
X-61752Y175500D01*
X-125049Y154640D01*
X-125213Y154568D01*
X-125378Y154499D01*
X-125397Y154486D01*
X-125417Y154477D01*
X-125563Y154374D01*
X-125712Y154273D01*
X-125728Y154257D01*
X-125746Y154244D01*
X-125869Y154114D01*
X-125995Y153986D01*
X-126007Y153968D01*
X-126022Y153952D01*
X-126117Y153799D01*
X-126215Y153650D01*
X-126223Y153629D01*
X-126235Y153610D01*
X-126298Y153442D01*
X-126365Y153276D01*
X-126369Y153254D01*
X-126377Y153233D01*
X-126405Y153056D01*
X-126438Y152880D01*
X-126437Y152858D01*
X-126441Y152835D01*
X-126434Y152657D01*
X-126431Y152477D01*
X-126427Y152455D01*
X-126426Y152433D01*
X-126384Y152259D01*
X-126346Y152084D01*
X-126337Y152064D01*
X-126331Y152042D01*
X-126256Y151879D01*
X-126184Y151715D01*
X-126170Y151695D01*
X-126162Y151677D01*
X-126114Y151612D01*
X-126065Y151538D01*
X-126047Y151508D01*
X-126032Y151490D01*
X-125998Y151440D01*
X-122459Y147028D01*
X-122325Y146891D01*
X-122190Y146751D01*
X-122183Y146746D01*
X-122177Y146740D01*
X-122019Y146632D01*
X-121859Y146522D01*
X-121851Y146519D01*
X-121844Y146514D01*
X-121666Y146439D01*
X-121489Y146363D01*
X-121481Y146361D01*
X-121473Y146358D01*
X-121283Y146319D01*
X-121095Y146279D01*
X-121087Y146279D01*
X-121078Y146278D01*
X-120886Y146277D01*
X-120693Y146275D01*
X-120684Y146277D01*
X-120676Y146277D01*
X-120487Y146315D01*
X-120297Y146351D01*
X-120289Y146354D01*
X-120281Y146356D01*
X-120104Y146430D01*
X-119924Y146503D01*
X-119917Y146508D01*
X-119909Y146511D01*
X-119749Y146619D01*
X-119589Y146726D01*
X-119583Y146732D01*
X-119576Y146736D01*
X-119440Y146875D01*
X-119304Y147010D01*
X-119299Y147018D01*
X-119293Y147023D01*
X-119265Y147066D01*
X-119115Y147283D01*
X-118793Y147841D01*
X-117152Y148280D01*
X-107021Y142431D01*
X-106628Y140966D01*
X-106622Y140949D01*
X-106619Y140932D01*
X-106551Y140762D01*
X-106486Y140590D01*
X-106476Y140574D01*
X-106470Y140558D01*
X-106370Y140404D01*
X-106272Y140248D01*
X-106260Y140235D01*
X-106250Y140220D01*
X-106121Y140089D01*
X-105995Y139956D01*
X-105981Y139946D01*
X-105968Y139933D01*
X-105816Y139830D01*
X-105666Y139724D01*
X-105650Y139717D01*
X-105635Y139707D01*
X-105467Y139636D01*
X-105298Y139561D01*
X-105280Y139558D01*
X-105264Y139551D01*
X-105085Y139514D01*
X-104905Y139475D01*
X-104887Y139474D01*
X-104869Y139471D01*
X-104686Y139471D01*
X-104502Y139467D01*
X-104485Y139471D01*
X-104467Y139470D01*
X-104396Y139483D01*
X-102404Y139221D01*
X-92208Y133334D01*
X-91019Y131784D01*
X-90513Y129897D01*
X-90530Y129767D01*
X-90531Y129758D01*
X-90533Y129749D01*
X-90537Y129557D01*
X-90543Y129365D01*
X-90541Y129356D01*
X-90542Y129347D01*
X-90508Y129157D01*
X-90476Y128968D01*
X-90473Y128959D01*
X-90471Y128951D01*
X-90401Y128771D01*
X-90332Y128592D01*
X-90327Y128584D01*
X-90324Y128576D01*
X-90220Y128414D01*
X-90117Y128251D01*
X-90111Y128245D01*
X-90106Y128237D01*
X-89972Y128099D01*
X-89839Y127960D01*
X-89832Y127955D01*
X-89825Y127949D01*
X-89667Y127840D01*
X-89509Y127730D01*
X-89501Y127726D01*
X-89493Y127721D01*
X-89315Y127645D01*
X-89140Y127569D01*
X-89131Y127567D01*
X-89123Y127563D01*
X-88933Y127524D01*
X-88746Y127484D01*
X-88737Y127484D01*
X-88729Y127482D01*
X-88534Y127481D01*
X-88344Y127478D01*
X-88335Y127480D01*
X-88326Y127480D01*
X-88136Y127517D01*
X-87948Y127552D01*
X-87940Y127555D01*
X-87931Y127557D01*
X-87755Y127630D01*
X-87574Y127702D01*
X-87567Y127707D01*
X-87559Y127711D01*
X-87280Y127891D01*
X-87176Y127971D01*
X-85289Y128476D01*
X-83352Y128221D01*
X-79712Y126120D01*
X-79699Y126114D01*
X-79688Y126106D01*
X-79386Y125968D01*
X-78023Y125476D01*
X-77195Y124721D01*
X-77152Y124689D01*
X-77115Y124652D01*
X-76931Y124525D01*
X-76872Y124481D01*
X-76858Y124474D01*
X-76842Y124463D01*
X-73155Y122334D01*
X-71966Y120784D01*
X-71825Y120258D01*
X-71822Y120250D01*
X-71820Y120240D01*
X-71750Y120060D01*
X-71683Y119881D01*
X-71678Y119874D01*
X-71675Y119865D01*
X-71572Y119704D01*
X-71469Y119540D01*
X-71463Y119533D01*
X-71458Y119526D01*
X-71232Y119283D01*
X-67055Y115473D01*
X-66968Y115409D01*
X-66887Y115336D01*
X-66806Y115289D01*
X-66732Y115233D01*
X-66634Y115187D01*
X-66540Y115131D01*
X-66452Y115101D01*
X-66368Y115061D01*
X-66262Y115035D01*
X-66160Y114999D01*
X-66067Y114986D01*
X-65977Y114964D01*
X-65868Y114959D01*
X-65761Y114944D01*
X-65668Y114950D01*
G37*
G36*
X47038Y162579D02*
X47038Y162579D01*
X47231Y162592D01*
X47262Y162600D01*
X47294Y162603D01*
X47480Y162655D01*
X47668Y162703D01*
X47704Y162718D01*
X47728Y162724D01*
X47782Y162750D01*
X47956Y162824D01*
X115425Y196161D01*
X115474Y196191D01*
X115528Y196215D01*
X115666Y196308D01*
X115809Y196395D01*
X115853Y196434D01*
X115901Y196466D01*
X116021Y196583D01*
X116146Y196694D01*
X116182Y196740D01*
X116224Y196780D01*
X116321Y196916D01*
X116425Y197048D01*
X116452Y197099D01*
X116486Y197146D01*
X116558Y197297D01*
X116637Y197445D01*
X116655Y197500D01*
X116680Y197552D01*
X116724Y197714D01*
X116776Y197873D01*
X116784Y197931D01*
X116799Y197987D01*
X116814Y198153D01*
X116837Y198319D01*
X116834Y198377D01*
X116839Y198435D01*
X116825Y198602D01*
X116818Y198769D01*
X116805Y198826D01*
X116800Y198884D01*
X116756Y199045D01*
X116719Y199209D01*
X116697Y199262D01*
X116682Y199318D01*
X116555Y199604D01*
X104649Y222623D01*
X104612Y222681D01*
X104582Y222744D01*
X104491Y222871D01*
X104408Y223003D01*
X104361Y223054D01*
X104321Y223110D01*
X104209Y223219D01*
X104103Y223334D01*
X104048Y223376D01*
X103998Y223424D01*
X103869Y223512D01*
X103744Y223607D01*
X103683Y223638D01*
X103625Y223677D01*
X103482Y223740D01*
X103343Y223811D01*
X103277Y223831D01*
X103214Y223859D01*
X103062Y223897D01*
X102912Y223942D01*
X102844Y223950D01*
X102776Y223967D01*
X102620Y223976D01*
X102465Y223995D01*
X102396Y223990D01*
X102327Y223995D01*
X102172Y223977D01*
X102016Y223967D01*
X101948Y223951D01*
X101880Y223943D01*
X101730Y223898D01*
X101578Y223861D01*
X101515Y223833D01*
X101449Y223813D01*
X101167Y223679D01*
X101166Y223679D01*
X50030Y195439D01*
X43388Y205402D01*
X43345Y205455D01*
X43310Y205513D01*
X43205Y205630D01*
X43106Y205753D01*
X43054Y205798D01*
X43009Y205848D01*
X42885Y205945D01*
X42766Y206049D01*
X42708Y206084D01*
X42654Y206126D01*
X42515Y206199D01*
X42380Y206280D01*
X42316Y206304D01*
X42256Y206336D01*
X42106Y206384D01*
X41959Y206439D01*
X41892Y206452D01*
X41827Y206472D01*
X41671Y206493D01*
X41516Y206522D01*
X41448Y206522D01*
X41381Y206531D01*
X41223Y206523D01*
X41066Y206524D01*
X40999Y206513D01*
X40931Y206510D01*
X40777Y206474D01*
X40622Y206448D01*
X40558Y206424D01*
X40492Y206409D01*
X40201Y206295D01*
X28295Y200739D01*
X28242Y200708D01*
X28186Y200684D01*
X28047Y200595D01*
X27905Y200513D01*
X27859Y200473D01*
X27807Y200440D01*
X27573Y200233D01*
X26779Y199439D01*
X26691Y199334D01*
X26596Y199235D01*
X26547Y199162D01*
X26491Y199094D01*
X26422Y198975D01*
X26346Y198860D01*
X26311Y198780D01*
X26267Y198703D01*
X26221Y198574D01*
X26166Y198448D01*
X26146Y198362D01*
X26116Y198279D01*
X26094Y198143D01*
X26062Y198010D01*
X26057Y197922D01*
X26043Y197834D01*
X26045Y197697D01*
X26037Y197560D01*
X26048Y197473D01*
X26049Y197384D01*
X26075Y197249D01*
X26092Y197113D01*
X26118Y197029D01*
X26135Y196942D01*
X26184Y196814D01*
X26225Y196683D01*
X26276Y196577D01*
X26297Y196522D01*
X26322Y196480D01*
X26360Y196401D01*
X44617Y163858D01*
X44726Y163698D01*
X44831Y163536D01*
X44853Y163512D01*
X44871Y163486D01*
X45007Y163348D01*
X45139Y163207D01*
X45164Y163188D01*
X45187Y163165D01*
X45345Y163053D01*
X45500Y162938D01*
X45528Y162924D01*
X45554Y162905D01*
X45729Y162823D01*
X45903Y162737D01*
X45933Y162728D01*
X45962Y162714D01*
X46149Y162664D01*
X46335Y162610D01*
X46366Y162606D01*
X46397Y162598D01*
X46590Y162582D01*
X46782Y162561D01*
X46814Y162563D01*
X46846Y162561D01*
X47038Y162579D01*
G37*
G36*
X20699Y209700D02*
X20699Y209700D01*
X20768Y209698D01*
X20923Y209722D01*
X21079Y209737D01*
X21145Y209755D01*
X21213Y209766D01*
X21361Y209816D01*
X21512Y209859D01*
X21574Y209889D01*
X21639Y209911D01*
X21917Y210055D01*
X32907Y216649D01*
X37916Y216649D01*
X37931Y216651D01*
X37946Y216649D01*
X38154Y216670D01*
X38364Y216689D01*
X38379Y216693D01*
X38394Y216695D01*
X38595Y216752D01*
X38799Y216808D01*
X38812Y216814D01*
X38827Y216818D01*
X39111Y216948D01*
X89235Y243681D01*
X89313Y243732D01*
X89397Y243775D01*
X89502Y243855D01*
X89612Y243927D01*
X89680Y243991D01*
X89754Y244048D01*
X89843Y244146D01*
X89939Y244236D01*
X89995Y244311D01*
X90058Y244381D01*
X90129Y244492D01*
X90207Y244598D01*
X90249Y244682D01*
X90299Y244761D01*
X90348Y244883D01*
X90407Y245002D01*
X90433Y245092D01*
X90468Y245178D01*
X90495Y245308D01*
X90532Y245434D01*
X90542Y245527D01*
X90561Y245619D01*
X90565Y245751D01*
X90579Y245882D01*
X90572Y245975D01*
X90575Y246069D01*
X90556Y246200D01*
X90546Y246331D01*
X90523Y246422D01*
X90509Y246514D01*
X90467Y246640D01*
X90434Y246767D01*
X90395Y246852D01*
X90365Y246941D01*
X90270Y247127D01*
X90247Y247177D01*
X90236Y247193D01*
X90223Y247219D01*
X77801Y268110D01*
X77756Y268172D01*
X77719Y268239D01*
X77625Y268354D01*
X77537Y268475D01*
X77482Y268529D01*
X77434Y268588D01*
X77321Y268684D01*
X77213Y268788D01*
X77150Y268831D01*
X77092Y268880D01*
X76963Y268956D01*
X76839Y269039D01*
X76769Y269069D01*
X76703Y269108D01*
X76564Y269160D01*
X76427Y269219D01*
X76352Y269237D01*
X76281Y269264D01*
X76134Y269290D01*
X75989Y269324D01*
X75913Y269329D01*
X75837Y269342D01*
X75689Y269342D01*
X75540Y269350D01*
X75464Y269341D01*
X75387Y269341D01*
X75241Y269314D01*
X75093Y269297D01*
X75019Y269274D01*
X74944Y269261D01*
X74805Y269208D01*
X74662Y269165D01*
X74594Y269130D01*
X74522Y269103D01*
X74286Y268971D01*
X74262Y268959D01*
X74257Y268955D01*
X74249Y268951D01*
X25458Y237716D01*
X18857Y248937D01*
X18796Y249024D01*
X18742Y249115D01*
X18665Y249207D01*
X18596Y249304D01*
X18520Y249378D01*
X18451Y249459D01*
X18359Y249535D01*
X18273Y249618D01*
X18185Y249678D01*
X18104Y249745D01*
X17999Y249804D01*
X17900Y249871D01*
X17804Y249914D01*
X17711Y249966D01*
X17598Y250005D01*
X17489Y250053D01*
X17386Y250078D01*
X17286Y250113D01*
X17168Y250132D01*
X17051Y250160D01*
X16945Y250167D01*
X16841Y250183D01*
X16721Y250181D01*
X16602Y250188D01*
X16497Y250176D01*
X16391Y250174D01*
X16274Y250150D01*
X16155Y250137D01*
X16053Y250106D01*
X15949Y250085D01*
X15838Y250041D01*
X15724Y250007D01*
X15629Y249959D01*
X15530Y249920D01*
X15377Y249831D01*
X15322Y249803D01*
X15299Y249786D01*
X15260Y249763D01*
X3354Y241825D01*
X3193Y241696D01*
X3030Y241569D01*
X3018Y241555D01*
X3003Y241543D01*
X2867Y241387D01*
X2729Y241234D01*
X2720Y241218D01*
X2707Y241204D01*
X2601Y241026D01*
X2493Y240851D01*
X2486Y240833D01*
X2476Y240817D01*
X2403Y240625D01*
X2327Y240432D01*
X2324Y240413D01*
X2317Y240396D01*
X2279Y240194D01*
X2239Y239990D01*
X2238Y239972D01*
X2235Y239953D01*
X2233Y239748D01*
X2229Y239540D01*
X2232Y239522D01*
X2232Y239503D01*
X2267Y239300D01*
X2299Y239095D01*
X2305Y239078D01*
X2309Y239059D01*
X2380Y238865D01*
X2447Y238670D01*
X2457Y238650D01*
X2463Y238636D01*
X2487Y238595D01*
X2593Y238394D01*
X7381Y230517D01*
X18399Y210985D01*
X18437Y210928D01*
X18469Y210867D01*
X18565Y210743D01*
X18654Y210614D01*
X18702Y210565D01*
X18744Y210510D01*
X18860Y210405D01*
X18970Y210294D01*
X19027Y210254D01*
X19077Y210208D01*
X19210Y210125D01*
X19338Y210034D01*
X19401Y210005D01*
X19459Y209969D01*
X19605Y209911D01*
X19747Y209844D01*
X19813Y209827D01*
X19877Y209801D01*
X20030Y209769D01*
X20182Y209729D01*
X20250Y209724D01*
X20318Y209710D01*
X20475Y209706D01*
X20631Y209693D01*
X20699Y209700D01*
G37*
G36*
X-39963Y115221D02*
X-39963Y115221D01*
X-39950Y115219D01*
X-39763Y115241D01*
X-39576Y115259D01*
X-39563Y115263D01*
X-39550Y115265D01*
X-39371Y115322D01*
X-39191Y115377D01*
X-39179Y115384D01*
X-39166Y115388D01*
X-39002Y115479D01*
X-38837Y115569D01*
X-38826Y115578D01*
X-38815Y115584D01*
X-38672Y115706D01*
X-38528Y115827D01*
X-38519Y115837D01*
X-38509Y115846D01*
X-38393Y115994D01*
X-38275Y116141D01*
X-38269Y116152D01*
X-38261Y116163D01*
X-38176Y116332D01*
X-38090Y116498D01*
X-38086Y116511D01*
X-38080Y116523D01*
X-38030Y116704D01*
X-37978Y116885D01*
X-37977Y116898D01*
X-37974Y116911D01*
X-37961Y117098D01*
X-37945Y117286D01*
X-37947Y117299D01*
X-37946Y117313D01*
X-37970Y117498D01*
X-37992Y117686D01*
X-37996Y117699D01*
X-37998Y117712D01*
X-38100Y118028D01*
X-38376Y118696D01*
X-38376Y121017D01*
X-37489Y123160D01*
X-35848Y124801D01*
X-33704Y125689D01*
X-31383Y125689D01*
X-29240Y124801D01*
X-27599Y123160D01*
X-26711Y121017D01*
X-26711Y120639D01*
X-26708Y120612D01*
X-26710Y120585D01*
X-26688Y120412D01*
X-26671Y120238D01*
X-26663Y120213D01*
X-26660Y120186D01*
X-26604Y120020D01*
X-26553Y119853D01*
X-26540Y119830D01*
X-26532Y119804D01*
X-26444Y119653D01*
X-26361Y119499D01*
X-26344Y119479D01*
X-26331Y119455D01*
X-26116Y119202D01*
X-23820Y116906D01*
X-23799Y116889D01*
X-23781Y116869D01*
X-23643Y116762D01*
X-23508Y116651D01*
X-23484Y116638D01*
X-23463Y116622D01*
X-23306Y116544D01*
X-23152Y116462D01*
X-23127Y116455D01*
X-23103Y116443D01*
X-22933Y116397D01*
X-22766Y116347D01*
X-22740Y116345D01*
X-22714Y116338D01*
X-22383Y116311D01*
X7226Y116311D01*
X7253Y116314D01*
X7280Y116312D01*
X7453Y116334D01*
X7627Y116351D01*
X7652Y116359D01*
X7679Y116362D01*
X7845Y116418D01*
X8012Y116469D01*
X8035Y116482D01*
X8061Y116490D01*
X8212Y116578D01*
X8366Y116661D01*
X8386Y116678D01*
X8410Y116691D01*
X8663Y116906D01*
X22218Y130461D01*
X23718Y131083D01*
X57160Y131083D01*
X57280Y131095D01*
X57400Y131097D01*
X57480Y131115D01*
X57560Y131123D01*
X57676Y131158D01*
X57794Y131184D01*
X57868Y131217D01*
X57945Y131241D01*
X58051Y131298D01*
X58162Y131347D01*
X58228Y131394D01*
X58299Y131433D01*
X58392Y131510D01*
X58491Y131579D01*
X58546Y131638D01*
X58608Y131690D01*
X58684Y131784D01*
X58767Y131872D01*
X58810Y131941D01*
X58861Y132004D01*
X58916Y132111D01*
X58980Y132214D01*
X59009Y132290D01*
X59046Y132361D01*
X59080Y132477D01*
X59122Y132590D01*
X59135Y132670D01*
X59158Y132748D01*
X59168Y132869D01*
X59187Y132988D01*
X59184Y133069D01*
X59191Y133150D01*
X59177Y133269D01*
X59172Y133390D01*
X59153Y133469D01*
X59144Y133549D01*
X59106Y133664D01*
X59078Y133782D01*
X59040Y133868D01*
X59019Y133932D01*
X58985Y133993D01*
X58944Y134085D01*
X45162Y159409D01*
X45138Y159445D01*
X45119Y159484D01*
X45025Y159611D01*
X44936Y159741D01*
X44905Y159772D01*
X44879Y159807D01*
X44761Y159912D01*
X44648Y160023D01*
X44611Y160047D01*
X44579Y160076D01*
X44443Y160156D01*
X44310Y160242D01*
X44270Y160258D01*
X44232Y160281D01*
X44083Y160332D01*
X43936Y160391D01*
X43893Y160399D01*
X43852Y160413D01*
X43696Y160434D01*
X43540Y160462D01*
X43496Y160462D01*
X43453Y160467D01*
X43296Y160458D01*
X43137Y160455D01*
X43095Y160445D01*
X43051Y160442D01*
X42899Y160402D01*
X42744Y160367D01*
X42704Y160350D01*
X42662Y160339D01*
X42419Y160224D01*
X42376Y160205D01*
X42370Y160201D01*
X42362Y160197D01*
X29982Y153049D01*
X28341Y153489D01*
X27584Y154800D01*
X27579Y154808D01*
X27575Y154816D01*
X27461Y154971D01*
X27349Y155127D01*
X27343Y155133D01*
X27337Y155141D01*
X27194Y155271D01*
X27054Y155402D01*
X27047Y155406D01*
X27040Y155412D01*
X26875Y155512D01*
X26711Y155612D01*
X26703Y155616D01*
X26695Y155620D01*
X26514Y155685D01*
X26333Y155751D01*
X26324Y155753D01*
X26316Y155756D01*
X26126Y155784D01*
X25935Y155813D01*
X25927Y155813D01*
X25918Y155814D01*
X25724Y155804D01*
X25533Y155795D01*
X25525Y155793D01*
X25516Y155792D01*
X25329Y155744D01*
X25143Y155698D01*
X25134Y155694D01*
X25126Y155692D01*
X24952Y155608D01*
X24779Y155526D01*
X24771Y155521D01*
X24763Y155517D01*
X24610Y155401D01*
X24456Y155285D01*
X24450Y155279D01*
X24443Y155273D01*
X24315Y155129D01*
X24187Y154986D01*
X24182Y154978D01*
X24176Y154971D01*
X24080Y154805D01*
X23982Y154639D01*
X23979Y154631D01*
X23975Y154623D01*
X23969Y154607D01*
X13806Y148739D01*
X12979Y148961D01*
X12970Y148962D01*
X12962Y148965D01*
X12773Y148995D01*
X12582Y149026D01*
X12573Y149026D01*
X12564Y149027D01*
X12372Y149018D01*
X12180Y149011D01*
X12171Y149009D01*
X12162Y149009D01*
X11975Y148963D01*
X11788Y148918D01*
X11780Y148914D01*
X11771Y148912D01*
X11597Y148830D01*
X11423Y148749D01*
X11415Y148744D01*
X11407Y148740D01*
X11252Y148624D01*
X11098Y148511D01*
X11092Y148505D01*
X11084Y148499D01*
X10955Y148355D01*
X10826Y148214D01*
X10821Y148206D01*
X10815Y148200D01*
X10717Y148034D01*
X10618Y147869D01*
X10615Y147861D01*
X10611Y147853D01*
X10547Y147672D01*
X10483Y147490D01*
X10481Y147481D01*
X10478Y147473D01*
X10452Y147282D01*
X10424Y147092D01*
X10425Y147083D01*
X10424Y147074D01*
X10436Y146881D01*
X10446Y146690D01*
X10448Y146681D01*
X10449Y146672D01*
X10498Y146486D01*
X10546Y146300D01*
X10550Y146292D01*
X10552Y146283D01*
X10694Y145983D01*
X11285Y144961D01*
X11338Y144887D01*
X11382Y144808D01*
X11455Y144724D01*
X11520Y144634D01*
X11586Y144572D01*
X11646Y144503D01*
X11733Y144435D01*
X11814Y144360D01*
X11892Y144312D01*
X11964Y144256D01*
X12063Y144207D01*
X12157Y144149D01*
X12243Y144117D01*
X12324Y144077D01*
X12431Y144048D01*
X12535Y144010D01*
X12625Y143996D01*
X12713Y143972D01*
X12850Y143961D01*
X12933Y143948D01*
X12981Y143950D01*
X13044Y143945D01*
X13860Y143945D01*
X16004Y143057D01*
X17645Y141416D01*
X18533Y139273D01*
X18533Y136952D01*
X17645Y134809D01*
X16004Y133168D01*
X13860Y132280D01*
X11540Y132280D01*
X9396Y133168D01*
X9129Y133435D01*
X9108Y133452D01*
X9091Y133472D01*
X8953Y133579D01*
X8817Y133690D01*
X8794Y133702D01*
X8773Y133719D01*
X8616Y133797D01*
X8462Y133879D01*
X8436Y133886D01*
X8412Y133898D01*
X8243Y133944D01*
X8076Y133993D01*
X8049Y133996D01*
X8023Y134003D01*
X7693Y134030D01*
X7225Y134030D01*
X7006Y134120D01*
X6854Y134166D01*
X6703Y134219D01*
X6661Y134224D01*
X6621Y134237D01*
X6462Y134252D01*
X6304Y134273D01*
X6262Y134271D01*
X6220Y134275D01*
X6062Y134258D01*
X5902Y134248D01*
X5862Y134237D01*
X5820Y134233D01*
X5668Y134186D01*
X5513Y134145D01*
X5471Y134124D01*
X5435Y134113D01*
X5359Y134072D01*
X5213Y134003D01*
X2474Y132421D01*
X833Y132861D01*
X-5016Y142992D01*
X-4572Y144651D01*
X-4569Y144668D01*
X-4563Y144685D01*
X-4537Y144867D01*
X-4507Y145048D01*
X-4508Y145066D01*
X-4505Y145084D01*
X-4515Y145267D01*
X-4521Y145451D01*
X-4525Y145468D01*
X-4526Y145486D01*
X-4572Y145664D01*
X-4615Y145842D01*
X-4622Y145858D01*
X-4627Y145876D01*
X-4707Y146041D01*
X-4784Y146208D01*
X-4794Y146222D01*
X-4802Y146238D01*
X-4913Y146384D01*
X-5022Y146533D01*
X-5035Y146545D01*
X-5046Y146559D01*
X-5183Y146680D01*
X-5319Y146804D01*
X-5334Y146813D01*
X-5347Y146825D01*
X-5506Y146917D01*
X-5664Y147012D01*
X-5680Y147018D01*
X-5696Y147027D01*
X-6008Y147139D01*
X-6927Y147385D01*
X-6945Y147388D01*
X-6961Y147394D01*
X-7143Y147420D01*
X-7324Y147450D01*
X-7342Y147449D01*
X-7360Y147452D01*
X-7543Y147442D01*
X-7727Y147435D01*
X-7744Y147431D01*
X-7762Y147430D01*
X-7940Y147384D01*
X-8118Y147342D01*
X-8134Y147334D01*
X-8152Y147330D01*
X-8317Y147250D01*
X-8484Y147173D01*
X-8498Y147162D01*
X-8514Y147155D01*
X-8660Y147044D01*
X-8809Y146935D01*
X-8821Y146922D01*
X-8835Y146911D01*
X-8957Y146773D01*
X-9080Y146638D01*
X-9089Y146623D01*
X-9101Y146609D01*
X-9194Y146449D01*
X-9288Y146293D01*
X-9294Y146276D01*
X-9303Y146261D01*
X-9415Y145948D01*
X-9849Y144326D01*
X-20115Y138399D01*
X-20281Y138393D01*
X-20307Y138387D01*
X-20333Y138385D01*
X-20503Y138340D01*
X-20672Y138300D01*
X-20697Y138289D01*
X-20722Y138282D01*
X-21022Y138140D01*
X-33050Y131196D01*
X-34691Y131635D01*
X-34901Y132000D01*
X-34949Y132067D01*
X-34989Y132138D01*
X-35066Y132230D01*
X-35136Y132327D01*
X-35196Y132383D01*
X-35250Y132445D01*
X-35343Y132520D01*
X-35431Y132601D01*
X-35501Y132644D01*
X-35566Y132695D01*
X-35672Y132749D01*
X-35774Y132812D01*
X-35851Y132840D01*
X-35924Y132877D01*
X-36040Y132910D01*
X-36152Y132951D01*
X-36233Y132963D01*
X-36312Y132985D01*
X-36432Y132994D01*
X-36550Y133012D01*
X-36632Y133009D01*
X-36714Y133015D01*
X-36833Y133000D01*
X-36952Y132994D01*
X-37032Y132975D01*
X-37113Y132964D01*
X-37227Y132926D01*
X-37343Y132897D01*
X-37417Y132862D01*
X-37495Y132836D01*
X-37599Y132776D01*
X-37707Y132725D01*
X-37773Y132676D01*
X-37844Y132635D01*
X-37961Y132536D01*
X-38030Y132485D01*
X-38057Y132455D01*
X-38097Y132421D01*
X-46843Y123675D01*
X-46860Y123654D01*
X-46880Y123637D01*
X-46987Y123499D01*
X-47098Y123363D01*
X-47110Y123340D01*
X-47127Y123319D01*
X-47205Y123162D01*
X-47286Y123008D01*
X-47294Y122982D01*
X-47306Y122958D01*
X-47351Y122789D01*
X-47401Y122622D01*
X-47403Y122595D01*
X-47410Y122569D01*
X-47438Y122239D01*
X-47438Y120673D01*
X-47421Y120510D01*
X-47411Y120346D01*
X-47401Y120310D01*
X-47398Y120272D01*
X-47350Y120116D01*
X-47307Y119957D01*
X-47289Y119919D01*
X-47279Y119887D01*
X-47238Y119811D01*
X-47165Y119657D01*
X-45189Y116235D01*
X-45136Y116161D01*
X-45092Y116082D01*
X-45019Y115998D01*
X-44955Y115908D01*
X-44888Y115846D01*
X-44828Y115777D01*
X-44741Y115709D01*
X-44660Y115634D01*
X-44582Y115586D01*
X-44510Y115530D01*
X-44411Y115481D01*
X-44317Y115423D01*
X-44231Y115392D01*
X-44150Y115351D01*
X-44043Y115322D01*
X-43939Y115284D01*
X-43849Y115270D01*
X-43761Y115246D01*
X-43624Y115235D01*
X-43541Y115222D01*
X-43493Y115224D01*
X-43430Y115219D01*
X-39976Y115219D01*
X-39963Y115221D01*
G37*
G36*
X116269Y51765D02*
X116269Y51765D01*
X116342Y51765D01*
X116367Y51776D01*
X116394Y51779D01*
X116458Y51814D01*
X116525Y51843D01*
X116544Y51863D01*
X116568Y51876D01*
X116635Y51957D01*
X116663Y51986D01*
X116666Y51995D01*
X116674Y52004D01*
X143674Y98804D01*
X143682Y98830D01*
X143698Y98852D01*
X143714Y98923D01*
X143737Y98993D01*
X143735Y99020D01*
X143740Y99047D01*
X143727Y99118D01*
X143721Y99191D01*
X143709Y99215D01*
X143704Y99242D01*
X143663Y99303D01*
X143630Y99368D01*
X143609Y99385D01*
X143594Y99408D01*
X143508Y99468D01*
X143476Y99494D01*
X143467Y99497D01*
X143458Y99504D01*
X139819Y101254D01*
X139788Y101262D01*
X139750Y101282D01*
X135891Y102470D01*
X135859Y102474D01*
X135818Y102487D01*
X131826Y103088D01*
X131794Y103086D01*
X131751Y103093D01*
X127714Y103092D01*
X127682Y103085D01*
X127639Y103086D01*
X123647Y102483D01*
X123617Y102472D01*
X123574Y102467D01*
X119716Y101275D01*
X119688Y101260D01*
X119647Y101248D01*
X116010Y99495D01*
X115984Y99476D01*
X115945Y99458D01*
X112610Y97182D01*
X112587Y97159D01*
X112551Y97135D01*
X109592Y94388D01*
X109574Y94362D01*
X109542Y94333D01*
X107025Y91176D01*
X107011Y91147D01*
X106983Y91114D01*
X104965Y87617D01*
X104955Y87587D01*
X104933Y87550D01*
X103459Y83791D01*
X103454Y83759D01*
X103437Y83719D01*
X102540Y79783D01*
X102539Y79751D01*
X102529Y79709D01*
X102228Y75682D01*
X102232Y75651D01*
X102228Y75608D01*
X102531Y71581D01*
X102540Y71551D01*
X102543Y71508D01*
X103442Y67571D01*
X103455Y67542D01*
X103464Y67500D01*
X104941Y63742D01*
X104958Y63715D01*
X104973Y63675D01*
X106993Y60179D01*
X107014Y60155D01*
X107035Y60117D01*
X109554Y56961D01*
X109578Y56941D01*
X109604Y56906D01*
X112565Y54161D01*
X112592Y54144D01*
X112623Y54115D01*
X115960Y51841D01*
X115985Y51831D01*
X116006Y51813D01*
X116076Y51792D01*
X116143Y51764D01*
X116171Y51764D01*
X116197Y51757D01*
X116269Y51765D01*
G37*
G36*
X-116554Y51764D02*
X-116554Y51764D01*
X-116481Y51761D01*
X-116456Y51770D01*
X-116429Y51772D01*
X-116333Y51816D01*
X-116295Y51830D01*
X-116288Y51836D01*
X-116278Y51841D01*
X-112941Y54115D01*
X-112919Y54137D01*
X-112882Y54161D01*
X-109922Y56906D01*
X-109903Y56932D01*
X-109871Y56961D01*
X-107353Y60117D01*
X-107338Y60145D01*
X-107311Y60179D01*
X-105291Y63675D01*
X-105280Y63705D01*
X-105258Y63742D01*
X-103782Y67500D01*
X-103776Y67532D01*
X-103760Y67571D01*
X-102860Y71508D01*
X-102859Y71539D01*
X-102849Y71581D01*
X-102546Y75608D01*
X-102550Y75639D01*
X-102546Y75682D01*
X-102846Y79709D01*
X-102855Y79739D01*
X-102857Y79783D01*
X-103755Y83719D01*
X-103768Y83748D01*
X-103777Y83791D01*
X-105251Y87550D01*
X-105268Y87576D01*
X-105283Y87617D01*
X-107301Y91114D01*
X-107322Y91138D01*
X-107343Y91176D01*
X-109859Y94333D01*
X-109883Y94354D01*
X-109910Y94388D01*
X-112869Y97135D01*
X-112896Y97152D01*
X-112927Y97182D01*
X-116262Y99458D01*
X-116292Y99470D01*
X-116327Y99495D01*
X-119964Y101248D01*
X-119995Y101256D01*
X-120034Y101275D01*
X-123892Y102467D01*
X-123923Y102470D01*
X-123964Y102483D01*
X-127957Y103086D01*
X-127989Y103085D01*
X-128031Y103092D01*
X-132069Y103093D01*
X-132100Y103087D01*
X-132143Y103088D01*
X-136136Y102487D01*
X-136166Y102476D01*
X-136209Y102470D01*
X-140067Y101282D01*
X-140095Y101266D01*
X-140137Y101254D01*
X-143775Y99504D01*
X-143797Y99487D01*
X-143822Y99478D01*
X-143875Y99428D01*
X-143934Y99383D01*
X-143947Y99360D01*
X-143967Y99341D01*
X-143996Y99274D01*
X-144033Y99211D01*
X-144036Y99184D01*
X-144047Y99159D01*
X-144048Y99086D01*
X-144056Y99014D01*
X-144049Y98987D01*
X-144049Y98960D01*
X-144013Y98862D01*
X-144001Y98823D01*
X-143995Y98815D01*
X-143991Y98804D01*
X-116991Y52004D01*
X-116973Y51984D01*
X-116962Y51959D01*
X-116908Y51910D01*
X-116860Y51855D01*
X-116835Y51844D01*
X-116815Y51825D01*
X-116746Y51801D01*
X-116680Y51769D01*
X-116653Y51768D01*
X-116627Y51759D01*
X-116554Y51764D01*
G37*
G36*
X26868Y160D02*
X26868Y160D01*
X26895Y157D01*
X26965Y180D01*
X27036Y194D01*
X27059Y210D01*
X27084Y218D01*
X27140Y265D01*
X27200Y307D01*
X27215Y330D01*
X27235Y347D01*
X27268Y413D01*
X27307Y474D01*
X27312Y501D01*
X27324Y525D01*
X27333Y630D01*
X27340Y670D01*
X27338Y680D01*
X27339Y691D01*
X27038Y4715D01*
X27029Y4746D01*
X27026Y4789D01*
X26128Y8723D01*
X26115Y8752D01*
X26106Y8795D01*
X24632Y12551D01*
X24615Y12578D01*
X24600Y12618D01*
X22582Y16113D01*
X22561Y16137D01*
X22540Y16175D01*
X20024Y19330D01*
X20000Y19350D01*
X19973Y19384D01*
X17015Y22129D01*
X16988Y22146D01*
X16957Y22176D01*
X13623Y24449D01*
X13593Y24461D01*
X13558Y24486D01*
X9922Y26237D01*
X9891Y26245D01*
X9853Y26264D01*
X5996Y27454D01*
X5965Y27457D01*
X5924Y27471D01*
X1933Y28072D01*
X1902Y28070D01*
X1859Y28078D01*
X-2176Y28078D01*
X-2208Y28071D01*
X-2251Y28072D01*
X-6241Y27471D01*
X-6271Y27460D01*
X-6314Y27454D01*
X-10170Y26264D01*
X-10198Y26249D01*
X-10240Y26237D01*
X-13875Y24486D01*
X-13901Y24467D01*
X-13940Y24449D01*
X-17274Y22176D01*
X-17297Y22153D01*
X-17333Y22129D01*
X-20291Y19384D01*
X-20309Y19359D01*
X-20342Y19330D01*
X-22858Y16175D01*
X-22872Y16146D01*
X-22900Y16113D01*
X-24917Y12618D01*
X-24927Y12588D01*
X-24950Y12551D01*
X-26424Y8795D01*
X-26429Y8763D01*
X-26446Y8723D01*
X-27344Y4789D01*
X-27345Y4757D01*
X-27355Y4715D01*
X-27657Y691D01*
X-27653Y664D01*
X-27658Y637D01*
X-27641Y566D01*
X-27632Y494D01*
X-27618Y470D01*
X-27612Y444D01*
X-27568Y385D01*
X-27532Y322D01*
X-27510Y306D01*
X-27494Y284D01*
X-27431Y247D01*
X-27373Y203D01*
X-27346Y196D01*
X-27323Y182D01*
X-27219Y165D01*
X-27180Y155D01*
X-27170Y156D01*
X-27159Y155D01*
X26841Y155D01*
X26868Y160D01*
G37*
G36*
X-55781Y65343D02*
X-55781Y65343D01*
X-55760Y65343D01*
X-55583Y65378D01*
X-55406Y65410D01*
X-55386Y65417D01*
X-55365Y65422D01*
X-55199Y65491D01*
X-55031Y65557D01*
X-55013Y65569D01*
X-54993Y65577D01*
X-54844Y65677D01*
X-54693Y65775D01*
X-54677Y65790D01*
X-54660Y65802D01*
X-54533Y65931D01*
X-54404Y66056D01*
X-54391Y66075D01*
X-54377Y66089D01*
X-54334Y66155D01*
X-54212Y66327D01*
X-51362Y71123D01*
X-51287Y71283D01*
X-51208Y71441D01*
X-51202Y71466D01*
X-51191Y71488D01*
X-51150Y71659D01*
X-51104Y71830D01*
X-51101Y71858D01*
X-51096Y71879D01*
X-51093Y71961D01*
X-51076Y72161D01*
X-51076Y72598D01*
X-50497Y73996D01*
X-50488Y74026D01*
X-50474Y74054D01*
X-50430Y74219D01*
X-50381Y74382D01*
X-50378Y74413D01*
X-50370Y74443D01*
X-50342Y74774D01*
X-50342Y75794D01*
X-49566Y77668D01*
X-34592Y92642D01*
X-34575Y92663D01*
X-34554Y92681D01*
X-34447Y92818D01*
X-34337Y92954D01*
X-34324Y92978D01*
X-34308Y92999D01*
X-34230Y93156D01*
X-34148Y93310D01*
X-34140Y93335D01*
X-34128Y93359D01*
X-34083Y93529D01*
X-34033Y93695D01*
X-34031Y93722D01*
X-34024Y93748D01*
X-33997Y94079D01*
X-33997Y97462D01*
X-33999Y97489D01*
X-33997Y97516D01*
X-34019Y97690D01*
X-34037Y97863D01*
X-34044Y97889D01*
X-34048Y97915D01*
X-34103Y98081D01*
X-34155Y98248D01*
X-34167Y98272D01*
X-34176Y98297D01*
X-34263Y98449D01*
X-34346Y98602D01*
X-34363Y98622D01*
X-34377Y98646D01*
X-34592Y98899D01*
X-40120Y104427D01*
X-40140Y104444D01*
X-40158Y104464D01*
X-40296Y104571D01*
X-40431Y104682D01*
X-40455Y104694D01*
X-40476Y104711D01*
X-40633Y104789D01*
X-40787Y104871D01*
X-40812Y104878D01*
X-40837Y104890D01*
X-41006Y104936D01*
X-41173Y104985D01*
X-41199Y104988D01*
X-41225Y104995D01*
X-41556Y105022D01*
X-47578Y105022D01*
X-47742Y105006D01*
X-47905Y104995D01*
X-47942Y104986D01*
X-47979Y104982D01*
X-48136Y104934D01*
X-48294Y104892D01*
X-48332Y104874D01*
X-48364Y104864D01*
X-48441Y104822D01*
X-48594Y104750D01*
X-56597Y100129D01*
X-56769Y100157D01*
X-56796Y100156D01*
X-56823Y100160D01*
X-56997Y100149D01*
X-57172Y100143D01*
X-57198Y100137D01*
X-57224Y100135D01*
X-57393Y100090D01*
X-57563Y100049D01*
X-57588Y100038D01*
X-57613Y100031D01*
X-57913Y99889D01*
X-64340Y96179D01*
X-64411Y96128D01*
X-64486Y96086D01*
X-64574Y96011D01*
X-64667Y95944D01*
X-64726Y95880D01*
X-64792Y95824D01*
X-64863Y95733D01*
X-64942Y95649D01*
X-64987Y95575D01*
X-65040Y95507D01*
X-65092Y95404D01*
X-65152Y95306D01*
X-65182Y95225D01*
X-65221Y95147D01*
X-65252Y95036D01*
X-65291Y94928D01*
X-65305Y94843D01*
X-65327Y94759D01*
X-65335Y94644D01*
X-65353Y94530D01*
X-65349Y94444D01*
X-65355Y94357D01*
X-65340Y94243D01*
X-65335Y94128D01*
X-65314Y94044D01*
X-65303Y93958D01*
X-65259Y93822D01*
X-65259Y88637D01*
X-65257Y88610D01*
X-65259Y88583D01*
X-65237Y88409D01*
X-65219Y88236D01*
X-65211Y88210D01*
X-65208Y88183D01*
X-65152Y88018D01*
X-65101Y87851D01*
X-65088Y87827D01*
X-65080Y87802D01*
X-64993Y87651D01*
X-64990Y87645D01*
X-64017Y85298D01*
X-64017Y82977D01*
X-64905Y80833D01*
X-66093Y79646D01*
X-66162Y79562D01*
X-66238Y79485D01*
X-66289Y79406D01*
X-66348Y79334D01*
X-66399Y79238D01*
X-66458Y79148D01*
X-66493Y79061D01*
X-66537Y78978D01*
X-66568Y78874D01*
X-66608Y78774D01*
X-66625Y78682D01*
X-66652Y78593D01*
X-66661Y78484D01*
X-66681Y78378D01*
X-66680Y78285D01*
X-66688Y78192D01*
X-66676Y78084D01*
X-66675Y77975D01*
X-66655Y77884D01*
X-66645Y77791D01*
X-66612Y77688D01*
X-66589Y77582D01*
X-66551Y77497D01*
X-66523Y77407D01*
X-66471Y77313D01*
X-66427Y77213D01*
X-66365Y77121D01*
X-66328Y77055D01*
X-66289Y77008D01*
X-66241Y76938D01*
X-57543Y66093D01*
X-57417Y65965D01*
X-57293Y65833D01*
X-57276Y65821D01*
X-57261Y65806D01*
X-57112Y65705D01*
X-56965Y65600D01*
X-56946Y65591D01*
X-56928Y65579D01*
X-56762Y65509D01*
X-56597Y65436D01*
X-56577Y65432D01*
X-56557Y65423D01*
X-56380Y65387D01*
X-56205Y65348D01*
X-56183Y65348D01*
X-56162Y65343D01*
X-55982Y65343D01*
X-55802Y65339D01*
X-55781Y65343D01*
G37*
D10*
X24232Y109054D03*
X24232Y94054D03*
D11*
X-56677Y52198D03*
X-73677Y52198D03*
D12*
X46067Y93940D03*
X46067Y110940D03*
D13*
G36*
X-78334Y212289D02*
X-90834Y190639D01*
X-112484Y203139D01*
X-99984Y224789D01*
X-78334Y212289D01*
G37*
D14*
X-70009Y251708D03*
D13*
G36*
X66681Y231787D02*
X54181Y253437D01*
X75831Y265937D01*
X88331Y244287D01*
X66681Y231787D01*
G37*
D14*
X96656Y204868D03*
D12*
G36*
X-8144Y186242D02*
X-13644Y195768D01*
X-4984Y200768D01*
X516Y191242D01*
X-8144Y186242D01*
G37*
G36*
X356Y171520D02*
X-5144Y181046D01*
X3516Y186046D01*
X9016Y176520D01*
X356Y171520D01*
G37*
G36*
X-25433Y204602D02*
X-34959Y199102D01*
X-39959Y207762D01*
X-30433Y213262D01*
X-25433Y204602D01*
G37*
G36*
X-10711Y213102D02*
X-20237Y207602D01*
X-25237Y216262D01*
X-15711Y221762D01*
X-10711Y213102D01*
G37*
G36*
X13516Y150940D02*
X8016Y160466D01*
X16676Y165466D01*
X22176Y155940D01*
X13516Y150940D01*
G37*
G36*
X22016Y136218D02*
X16516Y145744D01*
X25176Y150744D01*
X30676Y141218D01*
X22016Y136218D01*
G37*
D11*
G36*
X-5333Y216490D02*
X3327Y221490D01*
X8827Y211964D01*
X167Y206964D01*
X-5333Y216490D01*
G37*
G36*
X-20055Y207990D02*
X-11395Y212990D01*
X-5895Y203464D01*
X-14555Y198464D01*
X-20055Y207990D01*
G37*
G36*
X17009Y178135D02*
X25669Y183135D01*
X31169Y173609D01*
X22509Y168609D01*
X17009Y178135D01*
G37*
G36*
X2287Y169635D02*
X10947Y174635D01*
X16447Y165109D01*
X7787Y160109D01*
X2287Y169635D01*
G37*
D15*
G36*
X5589Y223376D02*
X-5669Y216876D01*
X-13169Y229866D01*
X-1911Y236366D01*
X5589Y223376D01*
G37*
G36*
X22043Y232876D02*
X10785Y226376D01*
X3285Y239366D01*
X14543Y245866D01*
X22043Y232876D01*
G37*
G36*
X40951Y161750D02*
X29693Y155250D01*
X22193Y168240D01*
X33451Y174740D01*
X40951Y161750D01*
G37*
G36*
X57405Y171250D02*
X46147Y164750D01*
X38647Y177740D01*
X49905Y184240D01*
X57405Y171250D01*
G37*
D16*
G36*
X35794Y202037D02*
X39794Y195109D01*
X35464Y192609D01*
X31464Y199537D01*
X35794Y202037D01*
G37*
G36*
X24794Y221090D02*
X28794Y214162D01*
X24464Y211662D01*
X20464Y218590D01*
X24794Y221090D01*
G37*
D12*
G36*
X-20271Y140677D02*
X-25771Y150203D01*
X-17111Y155203D01*
X-11611Y145677D01*
X-20271Y140677D01*
G37*
G36*
X-11771Y125955D02*
X-17271Y135481D01*
X-8611Y140481D01*
X-3111Y130955D01*
X-11771Y125955D01*
G37*
D11*
G36*
X-6316Y149344D02*
X-11316Y158004D01*
X-1790Y163504D01*
X3210Y154844D01*
X-6316Y149344D01*
G37*
G36*
X2184Y134622D02*
X-2816Y143282D01*
X6710Y148782D01*
X11710Y140122D01*
X2184Y134622D01*
G37*
G36*
X-123855Y123268D02*
X-132515Y128268D01*
X-127015Y137794D01*
X-118355Y132794D01*
X-123855Y123268D01*
G37*
G36*
X-109133Y114768D02*
X-117793Y119768D01*
X-112293Y129294D01*
X-103633Y124294D01*
X-109133Y114768D01*
G37*
D12*
G36*
X-108782Y141080D02*
X-114282Y131554D01*
X-122942Y136554D01*
X-117442Y146080D01*
X-108782Y141080D01*
G37*
G36*
X-100282Y155802D02*
X-105782Y146276D01*
X-114442Y151276D01*
X-108942Y160802D01*
X-100282Y155802D01*
G37*
G36*
X-52694Y145973D02*
X-62220Y140473D01*
X-67220Y149133D01*
X-57694Y154633D01*
X-52694Y145973D01*
G37*
G36*
X-37971Y154473D02*
X-47497Y148973D01*
X-52497Y157633D01*
X-42971Y163133D01*
X-37971Y154473D01*
G37*
D15*
G36*
X-56859Y102346D02*
X-63359Y113604D01*
X-50369Y121104D01*
X-43869Y109846D01*
X-56859Y102346D01*
G37*
G36*
X-47359Y85892D02*
X-53859Y97150D01*
X-40869Y104650D01*
X-34369Y93392D01*
X-47359Y85892D01*
G37*
D17*
G36*
X-84963Y142118D02*
X-98421Y149887D01*
X-95561Y154840D01*
X-82103Y147071D01*
X-84963Y142118D01*
G37*
D18*
X-90760Y137797D02*
X-99264Y142707D01*
X-104014Y134480D02*
X-95510Y129570D01*
X-84961Y123480D02*
X-76457Y118570D01*
X-66957Y135024D02*
X-75461Y139934D01*
D19*
X165041Y150654D03*
X82441Y7554D03*
X-82759Y7554D03*
X-165359Y150654D03*
X123741Y79154D03*
X-159Y7554D03*
X-124059Y79154D03*
D20*
X-39402Y173116D02*
X-29964Y178565D01*
X-39402Y173116D02*
X-40902Y175715D01*
X-31464Y181164D01*
X-29964Y178565D01*
X-37757Y174066D02*
X-39950Y174066D01*
X-40499Y175016D02*
X-36111Y175016D01*
X-34466Y175966D02*
X-40467Y175966D01*
X-38822Y176916D02*
X-32820Y176916D01*
X-31175Y177866D02*
X-37176Y177866D01*
X-35531Y178816D02*
X-30109Y178816D01*
X-30657Y179766D02*
X-33885Y179766D01*
X-32240Y180716D02*
X-31205Y180716D01*
X-26714Y172936D02*
X-36152Y167487D01*
X-37652Y170086D01*
X-28214Y175535D01*
X-26714Y172936D01*
X-34507Y168437D02*
X-36700Y168437D01*
X-37249Y169387D02*
X-32861Y169387D01*
X-31216Y170337D02*
X-37217Y170337D01*
X-35572Y171287D02*
X-29570Y171287D01*
X-27925Y172237D02*
X-33926Y172237D01*
X-32281Y173187D02*
X-26859Y173187D01*
X-27407Y174137D02*
X-30635Y174137D01*
X-28990Y175087D02*
X-27955Y175087D01*
X-23464Y167307D02*
X-32902Y161858D01*
X-34402Y164457D01*
X-24964Y169906D01*
X-23464Y167307D01*
X-31257Y162808D02*
X-33450Y162808D01*
X-33999Y163758D02*
X-29611Y163758D01*
X-27966Y164708D02*
X-33967Y164708D01*
X-32322Y165658D02*
X-26320Y165658D01*
X-24675Y166608D02*
X-30676Y166608D01*
X-29031Y167558D02*
X-23609Y167558D01*
X-24157Y168508D02*
X-27385Y168508D01*
X-25740Y169458D02*
X-24705Y169458D01*
X-17775Y174057D02*
X-8337Y179506D01*
X-6837Y176907D01*
X-16275Y171458D01*
X-17775Y174057D01*
X-16823Y172408D02*
X-14630Y172408D01*
X-12984Y173358D02*
X-17372Y173358D01*
X-17340Y174308D02*
X-11339Y174308D01*
X-9693Y175258D02*
X-15695Y175258D01*
X-14049Y176208D02*
X-8048Y176208D01*
X-6982Y177158D02*
X-12404Y177158D01*
X-10758Y178108D02*
X-7530Y178108D01*
X-8078Y179058D02*
X-9113Y179058D01*
X-11587Y185135D02*
X-21025Y179686D01*
X-11587Y185135D02*
X-10087Y182536D01*
X-19525Y177087D01*
X-21025Y179686D01*
X-20073Y178037D02*
X-17880Y178037D01*
X-16234Y178987D02*
X-20622Y178987D01*
X-20590Y179937D02*
X-14589Y179937D01*
X-12943Y180887D02*
X-18945Y180887D01*
X-17299Y181837D02*
X-11298Y181837D01*
X-10232Y182787D02*
X-15654Y182787D01*
X-14008Y183737D02*
X-10780Y183737D01*
X-11328Y184687D02*
X-12363Y184687D01*
X-14837Y190764D02*
X-24275Y185315D01*
X-14837Y190764D02*
X-13337Y188165D01*
X-22775Y182716D01*
X-24275Y185315D01*
X-23323Y183666D02*
X-21130Y183666D01*
X-19484Y184616D02*
X-23872Y184616D01*
X-23840Y185566D02*
X-17839Y185566D01*
X-16193Y186516D02*
X-22195Y186516D01*
X-20549Y187466D02*
X-14548Y187466D01*
X-13482Y188416D02*
X-18904Y188416D01*
X-17258Y189366D02*
X-14030Y189366D01*
X-14578Y190316D02*
X-15613Y190316D01*
D21*
X24606Y44450D03*
X50006Y44450D03*
X75406Y44450D03*
D22*
X74793Y127788D03*
D15*
G36*
X-33339Y133396D02*
X-39839Y144654D01*
X-26849Y152154D01*
X-20349Y140896D01*
X-33339Y133396D01*
G37*
G36*
X-23839Y116942D02*
X-30339Y128200D01*
X-17349Y135700D01*
X-10849Y124442D01*
X-23839Y116942D01*
G37*
D12*
G36*
X-65114Y98100D02*
X-70614Y107626D01*
X-61954Y112626D01*
X-56454Y103100D01*
X-65114Y98100D01*
G37*
G36*
X-56614Y83377D02*
X-62114Y92903D01*
X-53454Y97903D01*
X-47954Y88377D01*
X-56614Y83377D01*
G37*
D23*
X-103188Y111125D03*
X-83344Y73025D03*
X94884Y99646D03*
D24*
X90915Y99646D01*
X88503Y97234D01*
X84931Y93663D01*
X84931Y76994D01*
X92075Y69850D01*
D23*
X92075Y69850D03*
X78581Y98425D03*
D24*
X87313Y98425D01*
X88503Y97234D01*
D23*
X28636Y30998D03*
X-6350Y34925D03*
D24*
X12803Y34925D02*
X18317Y29411D01*
X12803Y34925D02*
X-6350Y34925D01*
D23*
X-69850Y84138D03*
D25*
X20666Y90488D02*
X24232Y94054D01*
X20666Y90488D02*
X17463Y90488D01*
D23*
X17463Y90488D03*
D24*
X28636Y30998D02*
X27048Y29411D01*
X18317Y29411D01*
D26*
X-101600Y112713D02*
X-103188Y111125D01*
X-101600Y112713D02*
X-89694Y112713D01*
X-69850Y92869D01*
X-69850Y84138D01*
X-80963Y73025D01*
X-83344Y73025D01*
D23*
X65881Y82464D03*
D27*
X-73677Y52198D02*
X-73677Y16636D01*
X-82759Y7554D01*
D25*
X24232Y109054D02*
X30954Y109054D01*
X46067Y93940D01*
X-111156Y92057D02*
X-113015Y90198D01*
D23*
X-99039Y90198D03*
D25*
X-113015Y90198D01*
X-124059Y79154D01*
D23*
X-45244Y71438D03*
X-37238Y142775D03*
D28*
X-45244Y71438D02*
X-56677Y52198D01*
X-28898Y91125D02*
X-28898Y100416D01*
X-38603Y110121D01*
X-52009Y110121D02*
X-53614Y111725D01*
X-52009Y110121D02*
X-38603Y110121D01*
X-45244Y74779D02*
X-45244Y71438D01*
X-45244Y74779D02*
X-28898Y91125D01*
X-63534Y105363D02*
X-80709Y121025D01*
X-53614Y111725D02*
X-52536Y112803D01*
X-52536Y125192D01*
D27*
X-18691Y147940D02*
X-28933Y165882D01*
D26*
X-80709Y121025D02*
X-110713Y122031D01*
X-63534Y105363D02*
X-53614Y111725D01*
D28*
X-37238Y142775D02*
X-30094Y142775D01*
X-34953Y142775D01*
X-52536Y125192D01*
X-30094Y142775D02*
X-24930Y147940D01*
X-18691Y147940D01*
D27*
X-6564Y190103D02*
X-6564Y193505D01*
X-11597Y183230D02*
X-15556Y181111D01*
X-11597Y183230D02*
X-9401Y185147D01*
X-8626Y188041D01*
X-6564Y190103D01*
X-12975Y209684D02*
X-17974Y214682D01*
X-12975Y209684D02*
X-12975Y205727D01*
X-12975Y199917D02*
X-6564Y193505D01*
X-12975Y199917D02*
X-12975Y205727D01*
X-2445Y181197D02*
X-12306Y175482D01*
X-2445Y181197D02*
X1936Y178783D01*
X9367Y171352D01*
X9367Y167372D01*
X9367Y163932D02*
X15096Y158203D01*
X9367Y163932D02*
X9367Y167372D01*
D23*
X50006Y245269D03*
X54769Y234156D03*
X42069Y226219D03*
X34925Y237331D03*
X76994Y203200D03*
X82550Y189706D03*
X62706Y194469D03*
X68263Y183356D03*
X-42332Y174920D03*
D25*
X-41143Y173731D02*
X-35433Y177140D01*
X-41143Y173731D02*
X-42332Y174920D01*
D27*
X-42332Y173993D01*
X-59957Y156369D01*
X-59957Y147553D01*
D26*
X-60883Y148479D02*
X-90262Y148479D01*
X-60883Y148479D02*
X-59957Y147553D01*
D23*
X34063Y147638D03*
X-89694Y138113D03*
X-65088Y120720D03*
X-43656Y121514D03*
X-60325Y167481D03*
X-7809Y136393D03*
X-57713Y74771D03*
D25*
X-18960Y167960D02*
X-25397Y179110D01*
X-14714Y167086D02*
X-4053Y156424D01*
X-14714Y167086D02*
X-18086Y167086D01*
X-18960Y167960D01*
X-25397Y179110D02*
X-25397Y181771D01*
X-23019Y184150D01*
X-20847Y185153D01*
X-18806Y186740D01*
D27*
X4447Y141702D02*
X8037Y138113D01*
X12700Y138113D01*
D23*
X12700Y138113D03*
D26*
X-117149Y138817D02*
X-125435Y130531D01*
X-117149Y138817D02*
X-115862Y138817D01*
X-99762Y132025D01*
D23*
X-32544Y119856D03*
D27*
X-24916Y112228D01*
X9759Y112228D01*
X74005Y127000D02*
X74793Y127788D01*
X24531Y127000D02*
X9759Y112228D01*
X24531Y127000D02*
X74005Y127000D01*
X1747Y221084D02*
X-3790Y226621D01*
X1747Y221084D02*
X1747Y214227D01*
X24089Y175872D02*
X31572Y168390D01*
X31572Y164995D01*
D23*
X95107Y88208D03*
D29*
X104161Y79154D02*
X123741Y79154D01*
X104161Y79154D02*
X95107Y88208D01*
D23*
X30163Y15081D03*
D25*
X22635Y7554D01*
X-159Y7554D01*
X46067Y110940D02*
X52388Y117260D01*
X52388Y118269D01*
D23*
X52388Y118269D03*
M02*
