G04 EAGLE Gerber RS-274X export*
G75*
%MOMM*%
%FSLAX34Y34*%
%LPD*%
%INSoldermask Bottom*%
%IPPOS*%
%AMOC8*
5,1,8,0,0,1.08239X$1,22.5*%
G01*
%ADD10R,1.201600X1.101600*%
%ADD11R,1.401600X1.601600*%
%ADD12R,1.101600X1.201600*%
%ADD13R,1.501597X0.501600*%
%ADD14R,1.601600X1.401600*%
%ADD15C,1.101600*%
%ADD16C,1.625600*%
%ADD17P,1.759533X8X22.500000*%
%ADD18R,0.651600X0.398781*%
%ADD19R,0.398781X0.651600*%
%ADD20R,5.701600X5.701600*%
%ADD21R,2.601600X2.601600*%
%ADD22C,2.601600*%
%ADD23R,0.901600X0.601600*%
%ADD24R,1.701600X1.904600*%
%ADD25R,1.901600X3.301600*%

G36*
X33402Y45415D02*
X33402Y45415D01*
X33468Y45417D01*
X33512Y45435D01*
X33558Y45443D01*
X33615Y45476D01*
X33676Y45501D01*
X33711Y45533D01*
X33752Y45557D01*
X33793Y45608D01*
X33842Y45653D01*
X33863Y45695D01*
X33893Y45731D01*
X33914Y45794D01*
X33944Y45852D01*
X33952Y45907D01*
X33965Y45944D01*
X33964Y45983D01*
X33972Y46038D01*
X33972Y103188D01*
X33960Y103252D01*
X33958Y103318D01*
X33940Y103362D01*
X33932Y103408D01*
X33899Y103465D01*
X33874Y103526D01*
X33842Y103561D01*
X33818Y103602D01*
X33767Y103643D01*
X33722Y103692D01*
X33680Y103713D01*
X33644Y103743D01*
X33582Y103764D01*
X33523Y103794D01*
X33468Y103802D01*
X33431Y103815D01*
X33392Y103814D01*
X33338Y103822D01*
X21431Y103822D01*
X21366Y103810D01*
X21301Y103808D01*
X21257Y103790D01*
X21210Y103782D01*
X21154Y103749D01*
X21093Y103724D01*
X21058Y103692D01*
X21017Y103668D01*
X20976Y103617D01*
X20927Y103572D01*
X20906Y103530D01*
X20876Y103494D01*
X20855Y103432D01*
X20825Y103373D01*
X20817Y103318D01*
X20804Y103281D01*
X20805Y103242D01*
X20797Y103188D01*
X20797Y89534D01*
X6984Y89534D01*
X6984Y103188D01*
X6973Y103252D01*
X6971Y103318D01*
X6953Y103362D01*
X6945Y103408D01*
X6911Y103465D01*
X6886Y103526D01*
X6855Y103561D01*
X6830Y103602D01*
X6779Y103643D01*
X6735Y103692D01*
X6693Y103713D01*
X6656Y103743D01*
X6594Y103764D01*
X6535Y103794D01*
X6481Y103802D01*
X6444Y103815D01*
X6404Y103814D01*
X6350Y103822D01*
X-23813Y103822D01*
X-23877Y103810D01*
X-23943Y103808D01*
X-23987Y103790D01*
X-24033Y103782D01*
X-24090Y103749D01*
X-24151Y103724D01*
X-24186Y103692D01*
X-24227Y103668D01*
X-24268Y103617D01*
X-24317Y103572D01*
X-24338Y103530D01*
X-24368Y103494D01*
X-24389Y103432D01*
X-24419Y103373D01*
X-24427Y103318D01*
X-24440Y103281D01*
X-24439Y103242D01*
X-24447Y103188D01*
X-24447Y46038D01*
X-24435Y45973D01*
X-24433Y45907D01*
X-24415Y45863D01*
X-24407Y45817D01*
X-24374Y45760D01*
X-24349Y45699D01*
X-24317Y45664D01*
X-24293Y45623D01*
X-24242Y45582D01*
X-24197Y45533D01*
X-24155Y45512D01*
X-24119Y45482D01*
X-24057Y45461D01*
X-23998Y45431D01*
X-23943Y45423D01*
X-23906Y45410D01*
X-23867Y45411D01*
X-23813Y45403D01*
X33338Y45403D01*
X33402Y45415D01*
G37*
G36*
X20204Y-1268D02*
X20204Y-1268D01*
X20233Y-1271D01*
X20300Y-1249D01*
X20370Y-1235D01*
X20394Y-1218D01*
X20422Y-1209D01*
X20475Y-1162D01*
X20534Y-1122D01*
X20550Y-1098D01*
X20572Y-1078D01*
X20603Y-1014D01*
X20641Y-955D01*
X20646Y-926D01*
X20658Y-900D01*
X20667Y-800D01*
X20674Y-758D01*
X20671Y-748D01*
X20673Y-734D01*
X20441Y2064D01*
X20431Y2098D01*
X20427Y2146D01*
X19738Y4867D01*
X19723Y4899D01*
X19711Y4945D01*
X18583Y7517D01*
X18563Y7545D01*
X18544Y7589D01*
X17008Y9940D01*
X16984Y9964D01*
X16958Y10005D01*
X15056Y12070D01*
X15028Y12091D01*
X14995Y12126D01*
X12780Y13851D01*
X12749Y13866D01*
X12711Y13896D01*
X10241Y15232D01*
X10208Y15242D01*
X10166Y15265D01*
X8980Y15673D01*
X7526Y16172D01*
X7525Y16172D01*
X7510Y16177D01*
X7476Y16182D01*
X7430Y16197D01*
X4661Y16659D01*
X4626Y16658D01*
X4579Y16666D01*
X1771Y16666D01*
X1737Y16659D01*
X1689Y16659D01*
X-1080Y16197D01*
X-1113Y16185D01*
X-1160Y16177D01*
X-3816Y15265D01*
X-3846Y15248D01*
X-3891Y15232D01*
X-6361Y13896D01*
X-6387Y13874D01*
X-6430Y13851D01*
X-8645Y12126D01*
X-8668Y12100D01*
X-8706Y12070D01*
X-10608Y10005D01*
X-10626Y9975D01*
X-10658Y9940D01*
X-12194Y7589D01*
X-12207Y7557D01*
X-12233Y7517D01*
X-13361Y4945D01*
X-13368Y4912D01*
X-13371Y4905D01*
X-13377Y4896D01*
X-13378Y4890D01*
X-13388Y4867D01*
X-14077Y2146D01*
X-14079Y2111D01*
X-14091Y2064D01*
X-14323Y-734D01*
X-14319Y-763D01*
X-14324Y-792D01*
X-14308Y-861D01*
X-14299Y-931D01*
X-14285Y-957D01*
X-14278Y-985D01*
X-14236Y-1042D01*
X-14201Y-1104D01*
X-14177Y-1122D01*
X-14160Y-1145D01*
X-14099Y-1181D01*
X-14042Y-1224D01*
X-14014Y-1232D01*
X-13989Y-1247D01*
X-13891Y-1263D01*
X-13850Y-1274D01*
X-13839Y-1272D01*
X-13825Y-1274D01*
X20175Y-1274D01*
X20204Y-1268D01*
G37*
G36*
X-118218Y59035D02*
X-118218Y59035D01*
X-118147Y59032D01*
X-118120Y59042D01*
X-118091Y59044D01*
X-118001Y59086D01*
X-117961Y59101D01*
X-117953Y59109D01*
X-117940Y59115D01*
X-115637Y60714D01*
X-115613Y60740D01*
X-115573Y60767D01*
X-113564Y62724D01*
X-113545Y62753D01*
X-113510Y62786D01*
X-111851Y65047D01*
X-111836Y65078D01*
X-111807Y65117D01*
X-110543Y67620D01*
X-110534Y67654D01*
X-110512Y67697D01*
X-109676Y70374D01*
X-109673Y70408D01*
X-109658Y70454D01*
X-109275Y73233D01*
X-109277Y73267D01*
X-109271Y73315D01*
X-109350Y76118D01*
X-109358Y76152D01*
X-109359Y76200D01*
X-109898Y78952D01*
X-109912Y78984D01*
X-109921Y79032D01*
X-110906Y81657D01*
X-110921Y81682D01*
X-110926Y81702D01*
X-110934Y81713D01*
X-110941Y81732D01*
X-112345Y84160D01*
X-112368Y84186D01*
X-112392Y84228D01*
X-114176Y86391D01*
X-114203Y86413D01*
X-114234Y86450D01*
X-116350Y88291D01*
X-116380Y88308D01*
X-116416Y88340D01*
X-118807Y89807D01*
X-118839Y89818D01*
X-118880Y89844D01*
X-121479Y90897D01*
X-121513Y90904D01*
X-121558Y90922D01*
X-124295Y91533D01*
X-124330Y91534D01*
X-124377Y91545D01*
X-127177Y91697D01*
X-127211Y91692D01*
X-127259Y91695D01*
X-130047Y91385D01*
X-130080Y91374D01*
X-130128Y91369D01*
X-132826Y90604D01*
X-132856Y90588D01*
X-132903Y90575D01*
X-135438Y89376D01*
X-135462Y89359D01*
X-135489Y89349D01*
X-135541Y89300D01*
X-135598Y89257D01*
X-135612Y89232D01*
X-135634Y89212D01*
X-135662Y89147D01*
X-135698Y89086D01*
X-135701Y89057D01*
X-135713Y89030D01*
X-135714Y88959D01*
X-135723Y88888D01*
X-135715Y88860D01*
X-135715Y88831D01*
X-135681Y88738D01*
X-135669Y88697D01*
X-135662Y88688D01*
X-135657Y88675D01*
X-118657Y59275D01*
X-118638Y59253D01*
X-118625Y59227D01*
X-118572Y59179D01*
X-118525Y59126D01*
X-118499Y59114D01*
X-118477Y59094D01*
X-118410Y59071D01*
X-118346Y59041D01*
X-118317Y59039D01*
X-118289Y59030D01*
X-118218Y59035D01*
G37*
G36*
X124601Y59036D02*
X124601Y59036D01*
X124672Y59035D01*
X124699Y59046D01*
X124728Y59050D01*
X124790Y59084D01*
X124855Y59112D01*
X124876Y59133D01*
X124901Y59147D01*
X124964Y59223D01*
X124994Y59254D01*
X124998Y59264D01*
X125007Y59275D01*
X142007Y88675D01*
X142016Y88703D01*
X142033Y88727D01*
X142048Y88796D01*
X142070Y88864D01*
X142068Y88893D01*
X142074Y88921D01*
X142061Y88991D01*
X142055Y89062D01*
X142042Y89088D01*
X142036Y89116D01*
X141996Y89175D01*
X141964Y89238D01*
X141941Y89257D01*
X141925Y89281D01*
X141843Y89338D01*
X141810Y89365D01*
X141800Y89368D01*
X141788Y89376D01*
X139253Y90575D01*
X139219Y90583D01*
X139176Y90604D01*
X136478Y91369D01*
X136443Y91371D01*
X136397Y91385D01*
X133609Y91695D01*
X133575Y91692D01*
X133527Y91697D01*
X130727Y91545D01*
X130693Y91536D01*
X130645Y91533D01*
X127908Y90922D01*
X127876Y90908D01*
X127829Y90897D01*
X125230Y89844D01*
X125201Y89825D01*
X125157Y89807D01*
X122766Y88340D01*
X122741Y88316D01*
X122700Y88291D01*
X120584Y86450D01*
X120563Y86423D01*
X120526Y86391D01*
X118742Y84228D01*
X118726Y84197D01*
X118695Y84160D01*
X117291Y81732D01*
X117280Y81699D01*
X117273Y81686D01*
X117263Y81672D01*
X117263Y81669D01*
X117256Y81657D01*
X116271Y79032D01*
X116265Y78997D01*
X116248Y78952D01*
X115709Y76200D01*
X115709Y76166D01*
X115700Y76118D01*
X115621Y73315D01*
X115627Y73281D01*
X115625Y73233D01*
X116008Y70454D01*
X116020Y70422D01*
X116026Y70374D01*
X116862Y67697D01*
X116879Y67666D01*
X116893Y67620D01*
X118157Y65117D01*
X118179Y65090D01*
X118201Y65047D01*
X119860Y62786D01*
X119886Y62763D01*
X119914Y62724D01*
X121923Y60767D01*
X121952Y60748D01*
X121987Y60714D01*
X124290Y59115D01*
X124317Y59103D01*
X124340Y59085D01*
X124408Y59064D01*
X124473Y59036D01*
X124502Y59036D01*
X124530Y59028D01*
X124601Y59036D01*
G37*
G36*
X166902Y132236D02*
X166902Y132236D01*
X166973Y132236D01*
X167000Y132247D01*
X167029Y132250D01*
X167091Y132285D01*
X167156Y132313D01*
X167177Y132333D01*
X167202Y132348D01*
X167265Y132425D01*
X167295Y132455D01*
X167299Y132465D01*
X167308Y132476D01*
X176808Y148976D01*
X176818Y149008D01*
X176827Y149021D01*
X176831Y149045D01*
X176832Y149049D01*
X176863Y149119D01*
X176863Y149143D01*
X176871Y149165D01*
X176865Y149241D01*
X176866Y149318D01*
X176856Y149342D01*
X176855Y149363D01*
X176834Y149402D01*
X176808Y149474D01*
X167308Y165974D01*
X167289Y165996D01*
X167276Y166022D01*
X167223Y166070D01*
X167176Y166123D01*
X167150Y166136D01*
X167129Y166155D01*
X167061Y166178D01*
X166997Y166209D01*
X166968Y166211D01*
X166941Y166220D01*
X166869Y166215D01*
X166798Y166218D01*
X166771Y166208D01*
X166742Y166206D01*
X166652Y166164D01*
X166612Y166149D01*
X166604Y166142D01*
X166591Y166136D01*
X164068Y164394D01*
X164044Y164370D01*
X164006Y164343D01*
X161794Y162219D01*
X161775Y162191D01*
X161741Y162159D01*
X159899Y159708D01*
X159885Y159677D01*
X159856Y159640D01*
X158431Y156925D01*
X158422Y156894D01*
X158406Y156869D01*
X158405Y156861D01*
X158400Y156851D01*
X157429Y153943D01*
X157425Y153909D01*
X157410Y153865D01*
X156918Y150838D01*
X156919Y150804D01*
X156911Y150758D01*
X156911Y147692D01*
X156912Y147688D01*
X156912Y147686D01*
X156918Y147659D01*
X156918Y147612D01*
X157410Y144585D01*
X157422Y144554D01*
X157429Y144507D01*
X158400Y141599D01*
X158417Y141570D01*
X158431Y141525D01*
X159856Y138810D01*
X159878Y138784D01*
X159899Y138742D01*
X161741Y136291D01*
X161766Y136268D01*
X161794Y136231D01*
X164006Y134107D01*
X164034Y134089D01*
X164068Y134056D01*
X166591Y132314D01*
X166618Y132303D01*
X166640Y132284D01*
X166709Y132264D01*
X166774Y132236D01*
X166803Y132236D01*
X166831Y132228D01*
X166902Y132236D01*
G37*
G36*
X-160519Y132235D02*
X-160519Y132235D01*
X-160448Y132232D01*
X-160421Y132242D01*
X-160392Y132244D01*
X-160302Y132286D01*
X-160262Y132301D01*
X-160254Y132308D01*
X-160241Y132314D01*
X-157718Y134056D01*
X-157694Y134080D01*
X-157656Y134107D01*
X-155444Y136231D01*
X-155425Y136259D01*
X-155391Y136291D01*
X-153549Y138742D01*
X-153535Y138773D01*
X-153506Y138810D01*
X-152081Y141525D01*
X-152072Y141558D01*
X-152050Y141599D01*
X-151079Y144507D01*
X-151075Y144541D01*
X-151060Y144585D01*
X-150568Y147612D01*
X-150569Y147646D01*
X-150561Y147692D01*
X-150561Y150758D01*
X-150568Y150791D01*
X-150568Y150838D01*
X-151060Y153865D01*
X-151072Y153896D01*
X-151079Y153943D01*
X-152050Y156851D01*
X-152063Y156874D01*
X-152069Y156899D01*
X-152076Y156908D01*
X-152081Y156925D01*
X-153506Y159640D01*
X-153528Y159666D01*
X-153549Y159708D01*
X-155391Y162159D01*
X-155416Y162182D01*
X-155444Y162219D01*
X-157656Y164343D01*
X-157684Y164361D01*
X-157718Y164394D01*
X-160241Y166136D01*
X-160268Y166147D01*
X-160290Y166166D01*
X-160359Y166186D01*
X-160424Y166214D01*
X-160453Y166214D01*
X-160481Y166222D01*
X-160552Y166214D01*
X-160623Y166215D01*
X-160650Y166203D01*
X-160679Y166200D01*
X-160741Y166165D01*
X-160806Y166137D01*
X-160827Y166117D01*
X-160852Y166102D01*
X-160915Y166025D01*
X-160945Y165995D01*
X-160949Y165985D01*
X-160958Y165974D01*
X-170458Y149474D01*
X-170482Y149401D01*
X-170513Y149331D01*
X-170513Y149307D01*
X-170521Y149285D01*
X-170515Y149209D01*
X-170516Y149132D01*
X-170506Y149108D01*
X-170505Y149087D01*
X-170484Y149048D01*
X-170465Y148996D01*
X-170464Y148990D01*
X-170462Y148988D01*
X-170458Y148976D01*
X-160958Y132476D01*
X-160939Y132454D01*
X-160926Y132428D01*
X-160873Y132380D01*
X-160826Y132327D01*
X-160800Y132314D01*
X-160779Y132295D01*
X-160711Y132272D01*
X-160647Y132241D01*
X-160618Y132240D01*
X-160591Y132230D01*
X-160519Y132235D01*
G37*
G36*
X89851Y-1259D02*
X89851Y-1259D01*
X89929Y-1250D01*
X89948Y-1239D01*
X89970Y-1235D01*
X90034Y-1191D01*
X90102Y-1152D01*
X90118Y-1133D01*
X90134Y-1122D01*
X90158Y-1084D01*
X90208Y-1024D01*
X99708Y15476D01*
X99717Y15503D01*
X99733Y15527D01*
X99748Y15597D01*
X99771Y15665D01*
X99768Y15693D01*
X99774Y15721D01*
X99761Y15792D01*
X99755Y15863D01*
X99742Y15888D01*
X99736Y15916D01*
X99696Y15976D01*
X99663Y16039D01*
X99641Y16057D01*
X99625Y16081D01*
X99542Y16139D01*
X99510Y16166D01*
X99499Y16169D01*
X99489Y16176D01*
X96723Y17485D01*
X96690Y17493D01*
X96647Y17513D01*
X93707Y18361D01*
X93673Y18364D01*
X93629Y18377D01*
X90591Y18742D01*
X90557Y18739D01*
X90510Y18745D01*
X87453Y18618D01*
X87420Y18610D01*
X87373Y18609D01*
X84376Y17993D01*
X84345Y17980D01*
X84299Y17971D01*
X81439Y16882D01*
X81411Y16864D01*
X81367Y16848D01*
X78719Y15314D01*
X78693Y15292D01*
X78653Y15269D01*
X76285Y13331D01*
X76263Y13304D01*
X76227Y13275D01*
X74200Y10982D01*
X74184Y10953D01*
X74152Y10918D01*
X72520Y8330D01*
X72508Y8298D01*
X72483Y8259D01*
X71287Y5442D01*
X71280Y5409D01*
X71277Y5402D01*
X71273Y5396D01*
X71272Y5390D01*
X71261Y5366D01*
X70533Y2394D01*
X70531Y2360D01*
X70520Y2315D01*
X70277Y-735D01*
X70281Y-764D01*
X70276Y-792D01*
X70293Y-861D01*
X70301Y-933D01*
X70316Y-957D01*
X70322Y-985D01*
X70365Y-1043D01*
X70401Y-1105D01*
X70423Y-1122D01*
X70440Y-1145D01*
X70502Y-1182D01*
X70559Y-1225D01*
X70587Y-1232D01*
X70611Y-1247D01*
X70711Y-1263D01*
X70752Y-1274D01*
X70762Y-1272D01*
X70775Y-1274D01*
X89775Y-1274D01*
X89851Y-1259D01*
G37*
G36*
X-64397Y-1269D02*
X-64397Y-1269D01*
X-64369Y-1271D01*
X-64301Y-1249D01*
X-64230Y-1235D01*
X-64207Y-1219D01*
X-64180Y-1210D01*
X-64125Y-1163D01*
X-64066Y-1122D01*
X-64051Y-1098D01*
X-64030Y-1080D01*
X-63998Y-1015D01*
X-63959Y-955D01*
X-63954Y-927D01*
X-63942Y-901D01*
X-63933Y-799D01*
X-63926Y-758D01*
X-63928Y-748D01*
X-63927Y-735D01*
X-64170Y2315D01*
X-64179Y2347D01*
X-64183Y2394D01*
X-64911Y5366D01*
X-64926Y5397D01*
X-64937Y5442D01*
X-66133Y8259D01*
X-66152Y8287D01*
X-66170Y8330D01*
X-67802Y10918D01*
X-67826Y10942D01*
X-67850Y10982D01*
X-69877Y13275D01*
X-69904Y13295D01*
X-69935Y13331D01*
X-72303Y15269D01*
X-72333Y15285D01*
X-72369Y15314D01*
X-75017Y16848D01*
X-75049Y16858D01*
X-75089Y16882D01*
X-77949Y17971D01*
X-77982Y17976D01*
X-78026Y17993D01*
X-81023Y18609D01*
X-81057Y18609D01*
X-81103Y18618D01*
X-84160Y18745D01*
X-84194Y18740D01*
X-84241Y18742D01*
X-87279Y18377D01*
X-87311Y18366D01*
X-87357Y18361D01*
X-90297Y17513D01*
X-90327Y17497D01*
X-90373Y17485D01*
X-93139Y16176D01*
X-93161Y16159D01*
X-93188Y16149D01*
X-93240Y16100D01*
X-93298Y16057D01*
X-93312Y16032D01*
X-93333Y16013D01*
X-93362Y15947D01*
X-93398Y15885D01*
X-93401Y15857D01*
X-93413Y15831D01*
X-93414Y15759D01*
X-93423Y15688D01*
X-93415Y15661D01*
X-93416Y15632D01*
X-93380Y15537D01*
X-93369Y15497D01*
X-93362Y15488D01*
X-93358Y15476D01*
X-83858Y-1024D01*
X-83806Y-1082D01*
X-83760Y-1145D01*
X-83741Y-1156D01*
X-83726Y-1173D01*
X-83656Y-1207D01*
X-83589Y-1247D01*
X-83565Y-1251D01*
X-83547Y-1259D01*
X-83502Y-1261D01*
X-83425Y-1274D01*
X-64425Y-1274D01*
X-64397Y-1269D01*
G37*
D10*
X51031Y36513D03*
X68031Y36513D03*
D11*
X38075Y134144D03*
X19075Y134144D03*
D12*
X-100575Y125413D03*
X-83575Y125413D03*
D13*
X66675Y76294D03*
X66675Y64294D03*
X66675Y52294D03*
D10*
X-42863Y123594D03*
X-42863Y106594D03*
D14*
X-57944Y78556D03*
X-57944Y59556D03*
D11*
X55588Y108744D03*
X74588Y108744D03*
D12*
X-45244Y77556D03*
X-45244Y60556D03*
D10*
X55794Y96838D03*
X72794Y96838D03*
X37869Y122238D03*
X20869Y122238D03*
D12*
X100575Y127000D03*
X83575Y127000D03*
D15*
X168375Y149225D03*
X85775Y6125D03*
X-79425Y6125D03*
X-162025Y149225D03*
X127075Y77725D03*
X3175Y6125D03*
X-120725Y77725D03*
D16*
X-86519Y89694D03*
X-86519Y64294D03*
X-86519Y38894D03*
D17*
X50006Y25400D03*
D18*
X38563Y102120D03*
X38563Y97119D03*
X38563Y92117D03*
X38563Y87116D03*
X38563Y82115D03*
X38563Y77114D03*
X38563Y72112D03*
X38563Y67111D03*
X38563Y62110D03*
X38563Y57109D03*
X38563Y52107D03*
X38563Y47106D03*
D19*
X32270Y40813D03*
X27269Y40813D03*
X22267Y40813D03*
X17266Y40813D03*
X12265Y40813D03*
X7264Y40813D03*
X2262Y40813D03*
X-2740Y40813D03*
X-7741Y40813D03*
X-12742Y40813D03*
X-17744Y40813D03*
X-22745Y40813D03*
D18*
X-29038Y47106D03*
X-29038Y52107D03*
X-29038Y57109D03*
X-29038Y62110D03*
X-29038Y67111D03*
X-29038Y72112D03*
X-29038Y77114D03*
X-29038Y82115D03*
X-29038Y87116D03*
X-29038Y92117D03*
X-29038Y97119D03*
X-29038Y102120D03*
D19*
X-22745Y108413D03*
X-17744Y108413D03*
X-12742Y108413D03*
X-7741Y108413D03*
X-2740Y108413D03*
X2262Y108413D03*
X7264Y108413D03*
X12265Y108413D03*
X17266Y108413D03*
X22267Y108413D03*
X27269Y108413D03*
X32270Y108413D03*
D20*
X4763Y74613D03*
D21*
G36*
X-74057Y209854D02*
X-87065Y187324D01*
X-109595Y200332D01*
X-96587Y222862D01*
X-74057Y209854D01*
G37*
D22*
X-66426Y249087D03*
D21*
G36*
X69589Y228888D02*
X56581Y251418D01*
X79111Y264426D01*
X92119Y241896D01*
X69589Y228888D01*
G37*
D22*
X99750Y202663D03*
D23*
G36*
X42654Y193603D02*
X47162Y185795D01*
X41952Y182787D01*
X37444Y190595D01*
X42654Y193603D01*
G37*
G36*
X31654Y212656D02*
X36162Y204848D01*
X30952Y201840D01*
X26444Y209648D01*
X31654Y212656D01*
G37*
D24*
X-27154Y285459D03*
X1286Y285459D03*
G36*
X-34050Y163483D02*
X-48785Y171991D01*
X-39262Y188485D01*
X-24527Y179977D01*
X-34050Y163483D01*
G37*
G36*
X-58680Y177703D02*
X-73415Y186211D01*
X-63892Y202705D01*
X-49157Y194197D01*
X-58680Y177703D01*
G37*
X1888Y261356D03*
X-26552Y261356D03*
D23*
G36*
X-22391Y204989D02*
X-26899Y197181D01*
X-32109Y200189D01*
X-27601Y207997D01*
X-22391Y204989D01*
G37*
G36*
X-11391Y224042D02*
X-15899Y216234D01*
X-21109Y219242D01*
X-16601Y227050D01*
X-11391Y224042D01*
G37*
D24*
G36*
X-19864Y239340D02*
X-28372Y224605D01*
X-44866Y234128D01*
X-36358Y248863D01*
X-19864Y239340D01*
G37*
G36*
X-34084Y214710D02*
X-42592Y199975D01*
X-59086Y209498D01*
X-50578Y224233D01*
X-34084Y214710D01*
G37*
D10*
X97631Y95481D03*
X97631Y112481D03*
D12*
X96838Y85494D03*
X96838Y68494D03*
D24*
G36*
X-77627Y183124D02*
X-62892Y174616D01*
X-72415Y158122D01*
X-87150Y166630D01*
X-77627Y183124D01*
G37*
G36*
X-52997Y168904D02*
X-38262Y160396D01*
X-47785Y143902D01*
X-62520Y152410D01*
X-52997Y168904D01*
G37*
D25*
G36*
X38845Y219352D02*
X29337Y235821D01*
X57929Y252328D01*
X67437Y235859D01*
X38845Y219352D01*
G37*
G36*
X66845Y170855D02*
X57337Y187324D01*
X85929Y203831D01*
X95437Y187362D01*
X66845Y170855D01*
G37*
M02*
