G04 EAGLE Gerber RS-274X export*
G75*
%MOMM*%
%FSLAX34Y34*%
%LPD*%
%INSolderpaste Top*%
%IPPOS*%
%AMOC8*
5,1,8,0,0,1.08239X$1,22.5*%
G01*
%ADD10R,0.800000X0.800000*%
%ADD11R,1.000000X1.100000*%
%ADD12R,1.100000X1.000000*%
%ADD13R,1.300000X1.500000*%
%ADD14R,0.800000X0.500000*%
%ADD15R,1.554000X0.572000*%
%ADD16C,0.572000*%
%ADD17C,0.100000*%


D10*
X24232Y109054D03*
X24232Y94054D03*
D11*
X-56677Y52198D03*
X-73677Y52198D03*
D12*
X46067Y93940D03*
X46067Y110940D03*
G36*
X-8144Y186242D02*
X-13644Y195768D01*
X-4984Y200768D01*
X516Y191242D01*
X-8144Y186242D01*
G37*
G36*
X356Y171520D02*
X-5144Y181046D01*
X3516Y186046D01*
X9016Y176520D01*
X356Y171520D01*
G37*
G36*
X-25433Y204602D02*
X-34959Y199102D01*
X-39959Y207762D01*
X-30433Y213262D01*
X-25433Y204602D01*
G37*
G36*
X-10711Y213102D02*
X-20237Y207602D01*
X-25237Y216262D01*
X-15711Y221762D01*
X-10711Y213102D01*
G37*
G36*
X13516Y150940D02*
X8016Y160466D01*
X16676Y165466D01*
X22176Y155940D01*
X13516Y150940D01*
G37*
G36*
X22016Y136218D02*
X16516Y145744D01*
X25176Y150744D01*
X30676Y141218D01*
X22016Y136218D01*
G37*
D11*
G36*
X-5333Y216490D02*
X3327Y221490D01*
X8827Y211964D01*
X167Y206964D01*
X-5333Y216490D01*
G37*
G36*
X-20055Y207990D02*
X-11395Y212990D01*
X-5895Y203464D01*
X-14555Y198464D01*
X-20055Y207990D01*
G37*
G36*
X17009Y178135D02*
X25669Y183135D01*
X31169Y173609D01*
X22509Y168609D01*
X17009Y178135D01*
G37*
G36*
X2287Y169635D02*
X10947Y174635D01*
X16447Y165109D01*
X7787Y160109D01*
X2287Y169635D01*
G37*
D13*
G36*
X5589Y223376D02*
X-5669Y216876D01*
X-13169Y229866D01*
X-1911Y236366D01*
X5589Y223376D01*
G37*
G36*
X22043Y232876D02*
X10785Y226376D01*
X3285Y239366D01*
X14543Y245866D01*
X22043Y232876D01*
G37*
G36*
X40951Y161750D02*
X29693Y155250D01*
X22193Y168240D01*
X33451Y174740D01*
X40951Y161750D01*
G37*
G36*
X57405Y171250D02*
X46147Y164750D01*
X38647Y177740D01*
X49905Y184240D01*
X57405Y171250D01*
G37*
D14*
G36*
X35794Y202037D02*
X39794Y195109D01*
X35464Y192609D01*
X31464Y199537D01*
X35794Y202037D01*
G37*
G36*
X24794Y221090D02*
X28794Y214162D01*
X24464Y211662D01*
X20464Y218590D01*
X24794Y221090D01*
G37*
D12*
G36*
X-20271Y140677D02*
X-25771Y150203D01*
X-17111Y155203D01*
X-11611Y145677D01*
X-20271Y140677D01*
G37*
G36*
X-11771Y125955D02*
X-17271Y135481D01*
X-8611Y140481D01*
X-3111Y130955D01*
X-11771Y125955D01*
G37*
D11*
G36*
X-6316Y149344D02*
X-11316Y158004D01*
X-1790Y163504D01*
X3210Y154844D01*
X-6316Y149344D01*
G37*
G36*
X2184Y134622D02*
X-2816Y143282D01*
X6710Y148782D01*
X11710Y140122D01*
X2184Y134622D01*
G37*
G36*
X-123855Y123268D02*
X-132515Y128268D01*
X-127015Y137794D01*
X-118355Y132794D01*
X-123855Y123268D01*
G37*
G36*
X-109133Y114768D02*
X-117793Y119768D01*
X-112293Y129294D01*
X-103633Y124294D01*
X-109133Y114768D01*
G37*
D12*
G36*
X-108782Y141080D02*
X-114282Y131554D01*
X-122942Y136554D01*
X-117442Y146080D01*
X-108782Y141080D01*
G37*
G36*
X-100282Y155802D02*
X-105782Y146276D01*
X-114442Y151276D01*
X-108942Y160802D01*
X-100282Y155802D01*
G37*
G36*
X-52694Y145973D02*
X-62220Y140473D01*
X-67220Y149133D01*
X-57694Y154633D01*
X-52694Y145973D01*
G37*
G36*
X-37971Y154473D02*
X-47497Y148973D01*
X-52497Y157633D01*
X-42971Y163133D01*
X-37971Y154473D01*
G37*
D13*
G36*
X-56859Y102346D02*
X-63359Y113604D01*
X-50369Y121104D01*
X-43869Y109846D01*
X-56859Y102346D01*
G37*
G36*
X-47359Y85892D02*
X-53859Y97150D01*
X-40869Y104650D01*
X-34369Y93392D01*
X-47359Y85892D01*
G37*
D15*
G36*
X-84963Y142118D02*
X-98421Y149887D01*
X-95561Y154840D01*
X-82103Y147071D01*
X-84963Y142118D01*
G37*
D16*
X-90760Y137797D02*
X-99264Y142707D01*
X-104014Y134480D02*
X-95510Y129570D01*
X-84961Y123480D02*
X-76457Y118570D01*
X-66957Y135024D02*
X-75461Y139934D01*
D17*
X-39402Y173116D02*
X-29964Y178565D01*
X-39402Y173116D02*
X-40902Y175715D01*
X-31464Y181164D01*
X-29964Y178565D01*
X-37757Y174066D02*
X-39950Y174066D01*
X-40499Y175016D02*
X-36111Y175016D01*
X-34466Y175966D02*
X-40467Y175966D01*
X-38822Y176916D02*
X-32820Y176916D01*
X-31175Y177866D02*
X-37176Y177866D01*
X-35531Y178816D02*
X-30109Y178816D01*
X-30657Y179766D02*
X-33885Y179766D01*
X-32240Y180716D02*
X-31205Y180716D01*
X-26714Y172936D02*
X-36152Y167487D01*
X-37652Y170086D01*
X-28214Y175535D01*
X-26714Y172936D01*
X-34507Y168437D02*
X-36700Y168437D01*
X-37249Y169387D02*
X-32861Y169387D01*
X-31216Y170337D02*
X-37217Y170337D01*
X-35572Y171287D02*
X-29570Y171287D01*
X-27925Y172237D02*
X-33926Y172237D01*
X-32281Y173187D02*
X-26859Y173187D01*
X-27407Y174137D02*
X-30635Y174137D01*
X-28990Y175087D02*
X-27955Y175087D01*
X-23464Y167307D02*
X-32902Y161858D01*
X-34402Y164457D01*
X-24964Y169906D01*
X-23464Y167307D01*
X-31257Y162808D02*
X-33450Y162808D01*
X-33999Y163758D02*
X-29611Y163758D01*
X-27966Y164708D02*
X-33967Y164708D01*
X-32322Y165658D02*
X-26320Y165658D01*
X-24675Y166608D02*
X-30676Y166608D01*
X-29031Y167558D02*
X-23609Y167558D01*
X-24157Y168508D02*
X-27385Y168508D01*
X-25740Y169458D02*
X-24705Y169458D01*
X-17775Y174057D02*
X-8337Y179506D01*
X-6837Y176907D01*
X-16275Y171458D01*
X-17775Y174057D01*
X-16823Y172408D02*
X-14630Y172408D01*
X-12984Y173358D02*
X-17372Y173358D01*
X-17340Y174308D02*
X-11339Y174308D01*
X-9693Y175258D02*
X-15695Y175258D01*
X-14049Y176208D02*
X-8048Y176208D01*
X-6982Y177158D02*
X-12404Y177158D01*
X-10758Y178108D02*
X-7530Y178108D01*
X-8078Y179058D02*
X-9113Y179058D01*
X-11587Y185135D02*
X-21025Y179686D01*
X-11587Y185135D02*
X-10087Y182536D01*
X-19525Y177087D01*
X-21025Y179686D01*
X-20073Y178037D02*
X-17880Y178037D01*
X-16234Y178987D02*
X-20622Y178987D01*
X-20590Y179937D02*
X-14589Y179937D01*
X-12943Y180887D02*
X-18945Y180887D01*
X-17299Y181837D02*
X-11298Y181837D01*
X-10232Y182787D02*
X-15654Y182787D01*
X-14008Y183737D02*
X-10780Y183737D01*
X-11328Y184687D02*
X-12363Y184687D01*
X-14837Y190764D02*
X-24275Y185315D01*
X-14837Y190764D02*
X-13337Y188165D01*
X-22775Y182716D01*
X-24275Y185315D01*
X-23323Y183666D02*
X-21130Y183666D01*
X-19484Y184616D02*
X-23872Y184616D01*
X-23840Y185566D02*
X-17839Y185566D01*
X-16193Y186516D02*
X-22195Y186516D01*
X-20549Y187466D02*
X-14548Y187466D01*
X-13482Y188416D02*
X-18904Y188416D01*
X-17258Y189366D02*
X-14030Y189366D01*
X-14578Y190316D02*
X-15613Y190316D01*
D13*
G36*
X-33339Y133396D02*
X-39839Y144654D01*
X-26849Y152154D01*
X-20349Y140896D01*
X-33339Y133396D01*
G37*
G36*
X-23839Y116942D02*
X-30339Y128200D01*
X-17349Y135700D01*
X-10849Y124442D01*
X-23839Y116942D01*
G37*
D12*
G36*
X-65114Y98100D02*
X-70614Y107626D01*
X-61954Y112626D01*
X-56454Y103100D01*
X-65114Y98100D01*
G37*
G36*
X-56614Y83377D02*
X-62114Y92903D01*
X-53454Y97903D01*
X-47954Y88377D01*
X-56614Y83377D01*
G37*
M02*
