G04 EAGLE Gerber RS-274X export*
G75*
%MOMM*%
%FSLAX34Y34*%
%LPD*%
%INSolderpaste Bottom*%
%IPPOS*%
%AMOC8*
5,1,8,0,0,1.08239X$1,22.5*%
G01*
%ADD10R,1.100000X1.000000*%
%ADD11R,1.300000X1.500000*%
%ADD12R,1.000000X1.100000*%
%ADD13R,1.399997X0.400000*%
%ADD14R,1.500000X1.300000*%
%ADD15R,0.550000X0.297181*%
%ADD16R,0.297181X0.550000*%
%ADD17R,0.800000X0.500000*%
%ADD18R,1.600000X1.803000*%
%ADD19R,1.800000X3.200000*%

G36*
X-10460Y89711D02*
X-10460Y89711D01*
X-10457Y89710D01*
X-10414Y89730D01*
X-10371Y89749D01*
X-10370Y89751D01*
X-10368Y89752D01*
X-10335Y89837D01*
X-10335Y102061D01*
X-10336Y102063D01*
X-10335Y102065D01*
X-10355Y102108D01*
X-10374Y102151D01*
X-10376Y102152D01*
X-10377Y102154D01*
X-10462Y102187D01*
X-22686Y102187D01*
X-22688Y102186D01*
X-22690Y102187D01*
X-22733Y102167D01*
X-22776Y102148D01*
X-22777Y102146D01*
X-22779Y102145D01*
X-22812Y102061D01*
X-22812Y89837D01*
X-22811Y89835D01*
X-22812Y89832D01*
X-22792Y89789D01*
X-22773Y89746D01*
X-22771Y89745D01*
X-22770Y89743D01*
X-22686Y89710D01*
X-10462Y89710D01*
X-10460Y89711D01*
G37*
G36*
X17989Y89711D02*
X17989Y89711D01*
X17991Y89710D01*
X18034Y89730D01*
X18077Y89749D01*
X18078Y89751D01*
X18080Y89752D01*
X18113Y89837D01*
X18113Y102061D01*
X18112Y102063D01*
X18113Y102065D01*
X18093Y102108D01*
X18074Y102151D01*
X18072Y102152D01*
X18071Y102154D01*
X17987Y102187D01*
X5763Y102187D01*
X5761Y102186D01*
X5758Y102187D01*
X5715Y102167D01*
X5672Y102148D01*
X5671Y102146D01*
X5669Y102145D01*
X5636Y102061D01*
X5636Y89837D01*
X5637Y89835D01*
X5636Y89832D01*
X5656Y89789D01*
X5675Y89746D01*
X5677Y89745D01*
X5678Y89743D01*
X5763Y89710D01*
X17987Y89710D01*
X17989Y89711D01*
G37*
G36*
X3765Y89711D02*
X3765Y89711D01*
X3767Y89710D01*
X3810Y89730D01*
X3853Y89749D01*
X3854Y89751D01*
X3856Y89752D01*
X3889Y89837D01*
X3889Y102061D01*
X3888Y102063D01*
X3889Y102065D01*
X3869Y102108D01*
X3850Y102151D01*
X3848Y102152D01*
X3847Y102154D01*
X3763Y102187D01*
X-8462Y102187D01*
X-8464Y102186D01*
X-8466Y102187D01*
X-8509Y102167D01*
X-8552Y102148D01*
X-8553Y102146D01*
X-8555Y102145D01*
X-8588Y102061D01*
X-8588Y89837D01*
X-8587Y89835D01*
X-8588Y89832D01*
X-8568Y89789D01*
X-8549Y89746D01*
X-8547Y89745D01*
X-8546Y89743D01*
X-8462Y89710D01*
X3763Y89710D01*
X3765Y89711D01*
G37*
G36*
X32213Y89711D02*
X32213Y89711D01*
X32215Y89710D01*
X32258Y89730D01*
X32301Y89749D01*
X32302Y89751D01*
X32304Y89752D01*
X32337Y89837D01*
X32337Y102061D01*
X32336Y102063D01*
X32337Y102065D01*
X32317Y102108D01*
X32298Y102151D01*
X32296Y102152D01*
X32295Y102154D01*
X32211Y102187D01*
X19987Y102187D01*
X19985Y102186D01*
X19982Y102187D01*
X19939Y102167D01*
X19896Y102148D01*
X19895Y102146D01*
X19893Y102145D01*
X19860Y102061D01*
X19860Y89837D01*
X19861Y89835D01*
X19860Y89832D01*
X19880Y89789D01*
X19899Y89746D01*
X19901Y89745D01*
X19902Y89743D01*
X19987Y89710D01*
X32211Y89710D01*
X32213Y89711D01*
G37*
G36*
X17989Y75487D02*
X17989Y75487D01*
X17991Y75486D01*
X18034Y75506D01*
X18077Y75525D01*
X18078Y75527D01*
X18080Y75528D01*
X18113Y75613D01*
X18113Y87837D01*
X18112Y87839D01*
X18113Y87841D01*
X18093Y87884D01*
X18074Y87927D01*
X18072Y87928D01*
X18071Y87930D01*
X17987Y87963D01*
X5763Y87963D01*
X5761Y87962D01*
X5758Y87963D01*
X5715Y87943D01*
X5672Y87924D01*
X5671Y87922D01*
X5669Y87921D01*
X5636Y87837D01*
X5636Y75613D01*
X5637Y75611D01*
X5636Y75608D01*
X5656Y75565D01*
X5675Y75522D01*
X5677Y75521D01*
X5678Y75519D01*
X5763Y75486D01*
X17987Y75486D01*
X17989Y75487D01*
G37*
G36*
X-10460Y75487D02*
X-10460Y75487D01*
X-10457Y75486D01*
X-10414Y75506D01*
X-10371Y75525D01*
X-10370Y75527D01*
X-10368Y75528D01*
X-10335Y75613D01*
X-10335Y87837D01*
X-10336Y87839D01*
X-10335Y87841D01*
X-10355Y87884D01*
X-10374Y87927D01*
X-10376Y87928D01*
X-10377Y87930D01*
X-10462Y87963D01*
X-22686Y87963D01*
X-22688Y87962D01*
X-22690Y87963D01*
X-22733Y87943D01*
X-22776Y87924D01*
X-22777Y87922D01*
X-22779Y87921D01*
X-22812Y87837D01*
X-22812Y75613D01*
X-22811Y75611D01*
X-22812Y75608D01*
X-22792Y75565D01*
X-22773Y75522D01*
X-22771Y75521D01*
X-22770Y75519D01*
X-22686Y75486D01*
X-10462Y75486D01*
X-10460Y75487D01*
G37*
G36*
X3765Y75487D02*
X3765Y75487D01*
X3767Y75486D01*
X3810Y75506D01*
X3853Y75525D01*
X3854Y75527D01*
X3856Y75528D01*
X3889Y75613D01*
X3889Y87837D01*
X3888Y87839D01*
X3889Y87841D01*
X3869Y87884D01*
X3850Y87927D01*
X3848Y87928D01*
X3847Y87930D01*
X3763Y87963D01*
X-8462Y87963D01*
X-8464Y87962D01*
X-8466Y87963D01*
X-8509Y87943D01*
X-8552Y87924D01*
X-8553Y87922D01*
X-8555Y87921D01*
X-8588Y87837D01*
X-8588Y75613D01*
X-8587Y75611D01*
X-8588Y75608D01*
X-8568Y75565D01*
X-8549Y75522D01*
X-8547Y75521D01*
X-8546Y75519D01*
X-8462Y75486D01*
X3763Y75486D01*
X3765Y75487D01*
G37*
G36*
X32213Y75487D02*
X32213Y75487D01*
X32215Y75486D01*
X32258Y75506D01*
X32301Y75525D01*
X32302Y75527D01*
X32304Y75528D01*
X32337Y75613D01*
X32337Y87837D01*
X32336Y87839D01*
X32337Y87841D01*
X32317Y87884D01*
X32298Y87927D01*
X32296Y87928D01*
X32295Y87930D01*
X32211Y87963D01*
X19987Y87963D01*
X19985Y87962D01*
X19982Y87963D01*
X19939Y87943D01*
X19896Y87924D01*
X19895Y87922D01*
X19893Y87921D01*
X19860Y87837D01*
X19860Y75613D01*
X19861Y75611D01*
X19860Y75608D01*
X19880Y75565D01*
X19899Y75522D01*
X19901Y75521D01*
X19902Y75519D01*
X19987Y75486D01*
X32211Y75486D01*
X32213Y75487D01*
G37*
G36*
X-10460Y61263D02*
X-10460Y61263D01*
X-10457Y61262D01*
X-10414Y61282D01*
X-10371Y61301D01*
X-10370Y61303D01*
X-10368Y61304D01*
X-10335Y61389D01*
X-10335Y73613D01*
X-10336Y73615D01*
X-10335Y73617D01*
X-10355Y73660D01*
X-10374Y73703D01*
X-10376Y73704D01*
X-10377Y73706D01*
X-10462Y73739D01*
X-22686Y73739D01*
X-22688Y73738D01*
X-22690Y73739D01*
X-22733Y73719D01*
X-22776Y73700D01*
X-22777Y73698D01*
X-22779Y73697D01*
X-22812Y73613D01*
X-22812Y61389D01*
X-22811Y61387D01*
X-22812Y61384D01*
X-22792Y61341D01*
X-22773Y61298D01*
X-22771Y61297D01*
X-22770Y61295D01*
X-22686Y61262D01*
X-10462Y61262D01*
X-10460Y61263D01*
G37*
G36*
X17989Y61263D02*
X17989Y61263D01*
X17991Y61262D01*
X18034Y61282D01*
X18077Y61301D01*
X18078Y61303D01*
X18080Y61304D01*
X18113Y61389D01*
X18113Y73613D01*
X18112Y73615D01*
X18113Y73617D01*
X18093Y73660D01*
X18074Y73703D01*
X18072Y73704D01*
X18071Y73706D01*
X17987Y73739D01*
X5763Y73739D01*
X5761Y73738D01*
X5758Y73739D01*
X5715Y73719D01*
X5672Y73700D01*
X5671Y73698D01*
X5669Y73697D01*
X5636Y73613D01*
X5636Y61389D01*
X5637Y61387D01*
X5636Y61384D01*
X5656Y61341D01*
X5675Y61298D01*
X5677Y61297D01*
X5678Y61295D01*
X5763Y61262D01*
X17987Y61262D01*
X17989Y61263D01*
G37*
G36*
X3765Y61263D02*
X3765Y61263D01*
X3767Y61262D01*
X3810Y61282D01*
X3853Y61301D01*
X3854Y61303D01*
X3856Y61304D01*
X3889Y61389D01*
X3889Y73613D01*
X3888Y73615D01*
X3889Y73617D01*
X3869Y73660D01*
X3850Y73703D01*
X3848Y73704D01*
X3847Y73706D01*
X3763Y73739D01*
X-8462Y73739D01*
X-8464Y73738D01*
X-8466Y73739D01*
X-8509Y73719D01*
X-8552Y73700D01*
X-8553Y73698D01*
X-8555Y73697D01*
X-8588Y73613D01*
X-8588Y61389D01*
X-8587Y61387D01*
X-8588Y61384D01*
X-8568Y61341D01*
X-8549Y61298D01*
X-8547Y61297D01*
X-8546Y61295D01*
X-8462Y61262D01*
X3763Y61262D01*
X3765Y61263D01*
G37*
G36*
X32213Y61263D02*
X32213Y61263D01*
X32215Y61262D01*
X32258Y61282D01*
X32301Y61301D01*
X32302Y61303D01*
X32304Y61304D01*
X32337Y61389D01*
X32337Y73613D01*
X32336Y73615D01*
X32337Y73617D01*
X32317Y73660D01*
X32298Y73703D01*
X32296Y73704D01*
X32295Y73706D01*
X32211Y73739D01*
X19987Y73739D01*
X19985Y73738D01*
X19982Y73739D01*
X19939Y73719D01*
X19896Y73700D01*
X19895Y73698D01*
X19893Y73697D01*
X19860Y73613D01*
X19860Y61389D01*
X19861Y61387D01*
X19860Y61384D01*
X19880Y61341D01*
X19899Y61298D01*
X19901Y61297D01*
X19902Y61295D01*
X19987Y61262D01*
X32211Y61262D01*
X32213Y61263D01*
G37*
G36*
X3765Y47039D02*
X3765Y47039D01*
X3767Y47038D01*
X3810Y47058D01*
X3853Y47077D01*
X3854Y47079D01*
X3856Y47080D01*
X3889Y47165D01*
X3889Y59389D01*
X3888Y59391D01*
X3889Y59393D01*
X3869Y59436D01*
X3850Y59479D01*
X3848Y59480D01*
X3847Y59482D01*
X3763Y59515D01*
X-8462Y59515D01*
X-8464Y59514D01*
X-8466Y59515D01*
X-8509Y59495D01*
X-8552Y59476D01*
X-8553Y59474D01*
X-8555Y59473D01*
X-8588Y59389D01*
X-8588Y47165D01*
X-8587Y47163D01*
X-8588Y47160D01*
X-8568Y47117D01*
X-8549Y47074D01*
X-8547Y47073D01*
X-8546Y47071D01*
X-8462Y47038D01*
X3763Y47038D01*
X3765Y47039D01*
G37*
G36*
X17989Y47039D02*
X17989Y47039D01*
X17991Y47038D01*
X18034Y47058D01*
X18077Y47077D01*
X18078Y47079D01*
X18080Y47080D01*
X18113Y47165D01*
X18113Y59389D01*
X18112Y59391D01*
X18113Y59393D01*
X18093Y59436D01*
X18074Y59479D01*
X18072Y59480D01*
X18071Y59482D01*
X17987Y59515D01*
X5763Y59515D01*
X5761Y59514D01*
X5758Y59515D01*
X5715Y59495D01*
X5672Y59476D01*
X5671Y59474D01*
X5669Y59473D01*
X5636Y59389D01*
X5636Y47165D01*
X5637Y47163D01*
X5636Y47160D01*
X5656Y47117D01*
X5675Y47074D01*
X5677Y47073D01*
X5678Y47071D01*
X5763Y47038D01*
X17987Y47038D01*
X17989Y47039D01*
G37*
G36*
X32213Y47039D02*
X32213Y47039D01*
X32215Y47038D01*
X32258Y47058D01*
X32301Y47077D01*
X32302Y47079D01*
X32304Y47080D01*
X32337Y47165D01*
X32337Y59389D01*
X32336Y59391D01*
X32337Y59393D01*
X32317Y59436D01*
X32298Y59479D01*
X32296Y59480D01*
X32295Y59482D01*
X32211Y59515D01*
X19987Y59515D01*
X19985Y59514D01*
X19982Y59515D01*
X19939Y59495D01*
X19896Y59476D01*
X19895Y59474D01*
X19893Y59473D01*
X19860Y59389D01*
X19860Y47165D01*
X19861Y47163D01*
X19860Y47160D01*
X19880Y47117D01*
X19899Y47074D01*
X19901Y47073D01*
X19902Y47071D01*
X19987Y47038D01*
X32211Y47038D01*
X32213Y47039D01*
G37*
G36*
X-10460Y47039D02*
X-10460Y47039D01*
X-10457Y47038D01*
X-10414Y47058D01*
X-10371Y47077D01*
X-10370Y47079D01*
X-10368Y47080D01*
X-10335Y47165D01*
X-10335Y59389D01*
X-10336Y59391D01*
X-10335Y59393D01*
X-10355Y59436D01*
X-10374Y59479D01*
X-10376Y59480D01*
X-10377Y59482D01*
X-10462Y59515D01*
X-22686Y59515D01*
X-22688Y59514D01*
X-22690Y59515D01*
X-22733Y59495D01*
X-22776Y59476D01*
X-22777Y59474D01*
X-22779Y59473D01*
X-22812Y59389D01*
X-22812Y47165D01*
X-22811Y47163D01*
X-22812Y47160D01*
X-22792Y47117D01*
X-22773Y47074D01*
X-22771Y47073D01*
X-22770Y47071D01*
X-22686Y47038D01*
X-10462Y47038D01*
X-10460Y47039D01*
G37*
D10*
X51031Y36513D03*
X68031Y36513D03*
D11*
X38075Y134144D03*
X19075Y134144D03*
D12*
X-100575Y125413D03*
X-83575Y125413D03*
D13*
X66675Y76294D03*
X66675Y64294D03*
X66675Y52294D03*
D10*
X-42863Y123594D03*
X-42863Y106594D03*
D14*
X-57944Y78556D03*
X-57944Y59556D03*
D11*
X55588Y108744D03*
X74588Y108744D03*
D12*
X-45244Y77556D03*
X-45244Y60556D03*
D10*
X55794Y96838D03*
X72794Y96838D03*
X37869Y122238D03*
X20869Y122238D03*
D12*
X100575Y127000D03*
X83575Y127000D03*
D15*
X38563Y102120D03*
X38563Y97119D03*
X38563Y92117D03*
X38563Y87116D03*
X38563Y82115D03*
X38563Y77114D03*
X38563Y72112D03*
X38563Y67111D03*
X38563Y62110D03*
X38563Y57109D03*
X38563Y52107D03*
X38563Y47106D03*
D16*
X32270Y40813D03*
X27269Y40813D03*
X22267Y40813D03*
X17266Y40813D03*
X12265Y40813D03*
X7264Y40813D03*
X2262Y40813D03*
X-2740Y40813D03*
X-7741Y40813D03*
X-12742Y40813D03*
X-17744Y40813D03*
X-22745Y40813D03*
D15*
X-29038Y47106D03*
X-29038Y52107D03*
X-29038Y57109D03*
X-29038Y62110D03*
X-29038Y67111D03*
X-29038Y72112D03*
X-29038Y77114D03*
X-29038Y82115D03*
X-29038Y87116D03*
X-29038Y92117D03*
X-29038Y97119D03*
X-29038Y102120D03*
D16*
X-22745Y108413D03*
X-17744Y108413D03*
X-12742Y108413D03*
X-7741Y108413D03*
X-2740Y108413D03*
X2262Y108413D03*
X7264Y108413D03*
X12265Y108413D03*
X17266Y108413D03*
X22267Y108413D03*
X27269Y108413D03*
X32270Y108413D03*
D17*
G36*
X42468Y192909D02*
X46468Y185981D01*
X42138Y183481D01*
X38138Y190409D01*
X42468Y192909D01*
G37*
G36*
X31468Y211962D02*
X35468Y205034D01*
X31138Y202534D01*
X27138Y209462D01*
X31468Y211962D01*
G37*
D18*
X-27154Y285459D03*
X1286Y285459D03*
G36*
X-34236Y164177D02*
X-48091Y172177D01*
X-39076Y187791D01*
X-25221Y179791D01*
X-34236Y164177D01*
G37*
G36*
X-58866Y178397D02*
X-72721Y186397D01*
X-63706Y202011D01*
X-49851Y194011D01*
X-58866Y178397D01*
G37*
X1888Y261356D03*
X-26552Y261356D03*
D17*
G36*
X-23085Y204803D02*
X-27085Y197875D01*
X-31415Y200375D01*
X-27415Y207303D01*
X-23085Y204803D01*
G37*
G36*
X-12085Y223856D02*
X-16085Y216928D01*
X-20415Y219428D01*
X-16415Y226356D01*
X-12085Y223856D01*
G37*
D18*
G36*
X-20558Y239154D02*
X-28558Y225299D01*
X-44172Y234314D01*
X-36172Y248169D01*
X-20558Y239154D01*
G37*
G36*
X-34778Y214524D02*
X-42778Y200669D01*
X-58392Y209684D01*
X-50392Y223539D01*
X-34778Y214524D01*
G37*
D10*
X97631Y95481D03*
X97631Y112481D03*
D12*
X96838Y85494D03*
X96838Y68494D03*
D18*
G36*
X-77441Y182430D02*
X-63586Y174430D01*
X-72601Y158816D01*
X-86456Y166816D01*
X-77441Y182430D01*
G37*
G36*
X-52811Y168210D02*
X-38956Y160210D01*
X-47971Y144596D01*
X-61826Y152596D01*
X-52811Y168210D01*
G37*
D19*
G36*
X39031Y220046D02*
X30031Y235635D01*
X57743Y251634D01*
X66743Y236045D01*
X39031Y220046D01*
G37*
G36*
X67031Y171549D02*
X58031Y187138D01*
X85743Y203137D01*
X94743Y187548D01*
X67031Y171549D01*
G37*
M02*
