G04 EAGLE Gerber RS-274X export*
G75*
%MOMM*%
%FSLAX34Y34*%
%LPD*%
%INSolderpaste Bottom*%
%IPPOS*%
%AMOC8*
5,1,8,0,0,1.08239X$1,22.5*%
G01*
%ADD10R,1.100000X1.000000*%
%ADD11R,1.300000X1.500000*%
%ADD12R,1.399997X0.400000*%
%ADD13R,1.500000X1.300000*%
%ADD14R,1.000000X1.100000*%
%ADD15C,0.100000*%
%ADD16R,0.800000X0.500000*%
%ADD17R,0.550000X0.297181*%
%ADD18R,0.297181X0.550000*%
%ADD19R,1.800000X3.200000*%

G36*
X-4903Y106380D02*
X-4903Y106380D01*
X-4901Y106379D01*
X-4858Y106399D01*
X-4815Y106417D01*
X-4814Y106419D01*
X-4812Y106420D01*
X-4779Y106505D01*
X-4779Y118729D01*
X-4780Y118731D01*
X-4779Y118733D01*
X-4799Y118776D01*
X-4817Y118820D01*
X-4819Y118821D01*
X-4820Y118823D01*
X-4905Y118856D01*
X-17129Y118856D01*
X-17131Y118855D01*
X-17133Y118855D01*
X-17176Y118836D01*
X-17220Y118817D01*
X-17221Y118815D01*
X-17223Y118814D01*
X-17256Y118729D01*
X-17256Y106505D01*
X-17255Y106503D01*
X-17255Y106501D01*
X-17236Y106458D01*
X-17217Y106415D01*
X-17215Y106414D01*
X-17214Y106412D01*
X-17129Y106379D01*
X-4905Y106379D01*
X-4903Y106380D01*
G37*
G36*
X9321Y106380D02*
X9321Y106380D01*
X9323Y106379D01*
X9366Y106399D01*
X9409Y106417D01*
X9410Y106419D01*
X9412Y106420D01*
X9445Y106505D01*
X9445Y118729D01*
X9444Y118731D01*
X9445Y118733D01*
X9425Y118776D01*
X9407Y118820D01*
X9405Y118821D01*
X9404Y118823D01*
X9319Y118856D01*
X-2905Y118856D01*
X-2907Y118855D01*
X-2909Y118855D01*
X-2952Y118836D01*
X-2996Y118817D01*
X-2997Y118815D01*
X-2999Y118814D01*
X-3032Y118729D01*
X-3032Y106505D01*
X-3031Y106503D01*
X-3031Y106501D01*
X-3012Y106458D01*
X-2993Y106415D01*
X-2991Y106414D01*
X-2990Y106412D01*
X-2905Y106379D01*
X9319Y106379D01*
X9321Y106380D01*
G37*
G36*
X37769Y106380D02*
X37769Y106380D01*
X37771Y106379D01*
X37814Y106399D01*
X37857Y106417D01*
X37858Y106419D01*
X37860Y106420D01*
X37893Y106505D01*
X37893Y118729D01*
X37892Y118731D01*
X37893Y118733D01*
X37873Y118776D01*
X37855Y118820D01*
X37853Y118821D01*
X37852Y118823D01*
X37767Y118856D01*
X25543Y118856D01*
X25541Y118855D01*
X25539Y118855D01*
X25496Y118836D01*
X25452Y118817D01*
X25451Y118815D01*
X25449Y118814D01*
X25417Y118729D01*
X25417Y106505D01*
X25417Y106503D01*
X25417Y106501D01*
X25436Y106458D01*
X25455Y106415D01*
X25457Y106414D01*
X25458Y106412D01*
X25543Y106379D01*
X37767Y106379D01*
X37769Y106380D01*
G37*
G36*
X23545Y106380D02*
X23545Y106380D01*
X23547Y106379D01*
X23590Y106399D01*
X23633Y106417D01*
X23634Y106419D01*
X23636Y106420D01*
X23669Y106505D01*
X23669Y118729D01*
X23668Y118731D01*
X23669Y118733D01*
X23649Y118776D01*
X23631Y118820D01*
X23629Y118821D01*
X23628Y118823D01*
X23543Y118856D01*
X11319Y118856D01*
X11317Y118855D01*
X11315Y118855D01*
X11272Y118836D01*
X11228Y118817D01*
X11227Y118815D01*
X11225Y118814D01*
X11193Y118729D01*
X11193Y106505D01*
X11193Y106503D01*
X11193Y106501D01*
X11212Y106458D01*
X11231Y106415D01*
X11233Y106414D01*
X11234Y106412D01*
X11319Y106379D01*
X23543Y106379D01*
X23545Y106380D01*
G37*
G36*
X37769Y92156D02*
X37769Y92156D01*
X37771Y92155D01*
X37814Y92175D01*
X37857Y92193D01*
X37858Y92195D01*
X37860Y92196D01*
X37893Y92281D01*
X37893Y104505D01*
X37892Y104507D01*
X37893Y104509D01*
X37873Y104552D01*
X37855Y104596D01*
X37853Y104597D01*
X37852Y104599D01*
X37767Y104632D01*
X25543Y104632D01*
X25541Y104631D01*
X25539Y104631D01*
X25496Y104612D01*
X25452Y104593D01*
X25451Y104591D01*
X25449Y104590D01*
X25417Y104505D01*
X25417Y92281D01*
X25417Y92279D01*
X25417Y92277D01*
X25436Y92234D01*
X25455Y92191D01*
X25457Y92190D01*
X25458Y92188D01*
X25543Y92155D01*
X37767Y92155D01*
X37769Y92156D01*
G37*
G36*
X9321Y92156D02*
X9321Y92156D01*
X9323Y92155D01*
X9366Y92175D01*
X9409Y92193D01*
X9410Y92195D01*
X9412Y92196D01*
X9445Y92281D01*
X9445Y104505D01*
X9444Y104507D01*
X9445Y104509D01*
X9425Y104552D01*
X9407Y104596D01*
X9405Y104597D01*
X9404Y104599D01*
X9319Y104632D01*
X-2905Y104632D01*
X-2907Y104631D01*
X-2909Y104631D01*
X-2952Y104612D01*
X-2996Y104593D01*
X-2997Y104591D01*
X-2999Y104590D01*
X-3032Y104505D01*
X-3032Y92281D01*
X-3031Y92279D01*
X-3031Y92277D01*
X-3012Y92234D01*
X-2993Y92191D01*
X-2991Y92190D01*
X-2990Y92188D01*
X-2905Y92155D01*
X9319Y92155D01*
X9321Y92156D01*
G37*
G36*
X-4903Y92156D02*
X-4903Y92156D01*
X-4901Y92155D01*
X-4858Y92175D01*
X-4815Y92193D01*
X-4814Y92195D01*
X-4812Y92196D01*
X-4779Y92281D01*
X-4779Y104505D01*
X-4780Y104507D01*
X-4779Y104509D01*
X-4799Y104552D01*
X-4817Y104596D01*
X-4819Y104597D01*
X-4820Y104599D01*
X-4905Y104632D01*
X-17129Y104632D01*
X-17131Y104631D01*
X-17133Y104631D01*
X-17176Y104612D01*
X-17220Y104593D01*
X-17221Y104591D01*
X-17223Y104590D01*
X-17256Y104505D01*
X-17256Y92281D01*
X-17255Y92279D01*
X-17255Y92277D01*
X-17236Y92234D01*
X-17217Y92191D01*
X-17215Y92190D01*
X-17214Y92188D01*
X-17129Y92155D01*
X-4905Y92155D01*
X-4903Y92156D01*
G37*
G36*
X23545Y92156D02*
X23545Y92156D01*
X23547Y92155D01*
X23590Y92175D01*
X23633Y92193D01*
X23634Y92195D01*
X23636Y92196D01*
X23669Y92281D01*
X23669Y104505D01*
X23668Y104507D01*
X23669Y104509D01*
X23649Y104552D01*
X23631Y104596D01*
X23629Y104597D01*
X23628Y104599D01*
X23543Y104632D01*
X11319Y104632D01*
X11317Y104631D01*
X11315Y104631D01*
X11272Y104612D01*
X11228Y104593D01*
X11227Y104591D01*
X11225Y104590D01*
X11193Y104505D01*
X11193Y92281D01*
X11193Y92279D01*
X11193Y92277D01*
X11212Y92234D01*
X11231Y92191D01*
X11233Y92190D01*
X11234Y92188D01*
X11319Y92155D01*
X23543Y92155D01*
X23545Y92156D01*
G37*
G36*
X23545Y77932D02*
X23545Y77932D01*
X23547Y77931D01*
X23590Y77951D01*
X23633Y77969D01*
X23634Y77971D01*
X23636Y77972D01*
X23669Y78057D01*
X23669Y90281D01*
X23668Y90283D01*
X23669Y90285D01*
X23649Y90328D01*
X23631Y90372D01*
X23629Y90373D01*
X23628Y90375D01*
X23543Y90408D01*
X11319Y90408D01*
X11317Y90407D01*
X11315Y90407D01*
X11272Y90388D01*
X11228Y90369D01*
X11227Y90367D01*
X11225Y90366D01*
X11193Y90281D01*
X11193Y78057D01*
X11193Y78055D01*
X11193Y78053D01*
X11212Y78010D01*
X11231Y77967D01*
X11233Y77966D01*
X11234Y77964D01*
X11319Y77931D01*
X23543Y77931D01*
X23545Y77932D01*
G37*
G36*
X9321Y77932D02*
X9321Y77932D01*
X9323Y77931D01*
X9366Y77951D01*
X9409Y77969D01*
X9410Y77971D01*
X9412Y77972D01*
X9445Y78057D01*
X9445Y90281D01*
X9444Y90283D01*
X9445Y90285D01*
X9425Y90328D01*
X9407Y90372D01*
X9405Y90373D01*
X9404Y90375D01*
X9319Y90408D01*
X-2905Y90408D01*
X-2907Y90407D01*
X-2909Y90407D01*
X-2952Y90388D01*
X-2996Y90369D01*
X-2997Y90367D01*
X-2999Y90366D01*
X-3032Y90281D01*
X-3032Y78057D01*
X-3031Y78055D01*
X-3031Y78053D01*
X-3012Y78010D01*
X-2993Y77967D01*
X-2991Y77966D01*
X-2990Y77964D01*
X-2905Y77931D01*
X9319Y77931D01*
X9321Y77932D01*
G37*
G36*
X37769Y77932D02*
X37769Y77932D01*
X37771Y77931D01*
X37814Y77951D01*
X37857Y77969D01*
X37858Y77971D01*
X37860Y77972D01*
X37893Y78057D01*
X37893Y90281D01*
X37892Y90283D01*
X37893Y90285D01*
X37873Y90328D01*
X37855Y90372D01*
X37853Y90373D01*
X37852Y90375D01*
X37767Y90408D01*
X25543Y90408D01*
X25541Y90407D01*
X25539Y90407D01*
X25496Y90388D01*
X25452Y90369D01*
X25451Y90367D01*
X25449Y90366D01*
X25417Y90281D01*
X25417Y78057D01*
X25417Y78055D01*
X25417Y78053D01*
X25436Y78010D01*
X25455Y77967D01*
X25457Y77966D01*
X25458Y77964D01*
X25543Y77931D01*
X37767Y77931D01*
X37769Y77932D01*
G37*
G36*
X-4903Y77932D02*
X-4903Y77932D01*
X-4901Y77931D01*
X-4858Y77951D01*
X-4815Y77969D01*
X-4814Y77971D01*
X-4812Y77972D01*
X-4779Y78057D01*
X-4779Y90281D01*
X-4780Y90283D01*
X-4779Y90285D01*
X-4799Y90328D01*
X-4817Y90372D01*
X-4819Y90373D01*
X-4820Y90375D01*
X-4905Y90408D01*
X-17129Y90408D01*
X-17131Y90407D01*
X-17133Y90407D01*
X-17176Y90388D01*
X-17220Y90369D01*
X-17221Y90367D01*
X-17223Y90366D01*
X-17256Y90281D01*
X-17256Y78057D01*
X-17255Y78055D01*
X-17255Y78053D01*
X-17236Y78010D01*
X-17217Y77967D01*
X-17215Y77966D01*
X-17214Y77964D01*
X-17129Y77931D01*
X-4905Y77931D01*
X-4903Y77932D01*
G37*
G36*
X37769Y63708D02*
X37769Y63708D01*
X37771Y63707D01*
X37814Y63727D01*
X37857Y63745D01*
X37858Y63747D01*
X37860Y63748D01*
X37893Y63833D01*
X37893Y76057D01*
X37892Y76059D01*
X37893Y76061D01*
X37873Y76104D01*
X37855Y76148D01*
X37853Y76149D01*
X37852Y76151D01*
X37767Y76184D01*
X25543Y76184D01*
X25541Y76183D01*
X25539Y76183D01*
X25496Y76164D01*
X25452Y76145D01*
X25451Y76143D01*
X25449Y76142D01*
X25417Y76057D01*
X25417Y63833D01*
X25417Y63831D01*
X25417Y63829D01*
X25436Y63786D01*
X25455Y63743D01*
X25457Y63742D01*
X25458Y63740D01*
X25543Y63707D01*
X37767Y63707D01*
X37769Y63708D01*
G37*
G36*
X23545Y63708D02*
X23545Y63708D01*
X23547Y63707D01*
X23590Y63727D01*
X23633Y63745D01*
X23634Y63747D01*
X23636Y63748D01*
X23669Y63833D01*
X23669Y76057D01*
X23668Y76059D01*
X23669Y76061D01*
X23649Y76104D01*
X23631Y76148D01*
X23629Y76149D01*
X23628Y76151D01*
X23543Y76184D01*
X11319Y76184D01*
X11317Y76183D01*
X11315Y76183D01*
X11272Y76164D01*
X11228Y76145D01*
X11227Y76143D01*
X11225Y76142D01*
X11193Y76057D01*
X11193Y63833D01*
X11193Y63831D01*
X11193Y63829D01*
X11212Y63786D01*
X11231Y63743D01*
X11233Y63742D01*
X11234Y63740D01*
X11319Y63707D01*
X23543Y63707D01*
X23545Y63708D01*
G37*
G36*
X9321Y63708D02*
X9321Y63708D01*
X9323Y63707D01*
X9366Y63727D01*
X9409Y63745D01*
X9410Y63747D01*
X9412Y63748D01*
X9445Y63833D01*
X9445Y76057D01*
X9444Y76059D01*
X9445Y76061D01*
X9425Y76104D01*
X9407Y76148D01*
X9405Y76149D01*
X9404Y76151D01*
X9319Y76184D01*
X-2905Y76184D01*
X-2907Y76183D01*
X-2909Y76183D01*
X-2952Y76164D01*
X-2996Y76145D01*
X-2997Y76143D01*
X-2999Y76142D01*
X-3032Y76057D01*
X-3032Y63833D01*
X-3031Y63831D01*
X-3031Y63829D01*
X-3012Y63786D01*
X-2993Y63743D01*
X-2991Y63742D01*
X-2990Y63740D01*
X-2905Y63707D01*
X9319Y63707D01*
X9321Y63708D01*
G37*
G36*
X-4903Y63708D02*
X-4903Y63708D01*
X-4901Y63707D01*
X-4858Y63727D01*
X-4815Y63745D01*
X-4814Y63747D01*
X-4812Y63748D01*
X-4779Y63833D01*
X-4779Y76057D01*
X-4780Y76059D01*
X-4779Y76061D01*
X-4799Y76104D01*
X-4817Y76148D01*
X-4819Y76149D01*
X-4820Y76151D01*
X-4905Y76184D01*
X-17129Y76184D01*
X-17131Y76183D01*
X-17133Y76183D01*
X-17176Y76164D01*
X-17220Y76145D01*
X-17221Y76143D01*
X-17223Y76142D01*
X-17256Y76057D01*
X-17256Y63833D01*
X-17255Y63831D01*
X-17255Y63829D01*
X-17236Y63786D01*
X-17217Y63743D01*
X-17215Y63742D01*
X-17214Y63740D01*
X-17129Y63707D01*
X-4905Y63707D01*
X-4903Y63708D01*
G37*
D10*
X88020Y127318D03*
X105020Y127318D03*
D11*
X-39554Y38894D03*
X-58554Y38894D03*
D12*
X-43021Y89124D03*
X-43021Y101124D03*
X-43021Y113124D03*
D10*
X50006Y14836D03*
X50006Y31836D03*
D13*
X71755Y81464D03*
X71755Y100464D03*
D11*
X-39459Y52705D03*
X-58459Y52705D03*
D14*
X59373Y82464D03*
X59373Y99464D03*
D10*
X-40713Y74771D03*
X-57713Y74771D03*
X-40554Y65405D03*
X-57554Y65405D03*
D14*
X-116926Y140018D03*
X-99926Y140018D03*
D10*
G36*
X56523Y144460D02*
X62023Y134934D01*
X53363Y129934D01*
X47863Y139460D01*
X56523Y144460D01*
G37*
G36*
X48023Y159182D02*
X53523Y149656D01*
X44863Y144656D01*
X39363Y154182D01*
X48023Y159182D01*
G37*
D14*
X-48991Y268263D03*
X-65991Y268263D03*
X-63653Y291597D03*
X-80653Y291597D03*
X-21863Y266310D03*
X-38863Y266310D03*
D15*
X-10287Y156241D02*
X-10287Y145341D01*
X-13287Y145341D01*
X-13287Y156241D01*
X-10287Y156241D01*
X-10287Y146291D02*
X-13287Y146291D01*
X-13287Y147241D02*
X-10287Y147241D01*
X-10287Y148191D02*
X-13287Y148191D01*
X-13287Y149141D02*
X-10287Y149141D01*
X-10287Y150091D02*
X-13287Y150091D01*
X-13287Y151041D02*
X-10287Y151041D01*
X-10287Y151991D02*
X-13287Y151991D01*
X-13287Y152941D02*
X-10287Y152941D01*
X-10287Y153891D02*
X-13287Y153891D01*
X-13287Y154841D02*
X-10287Y154841D01*
X-10287Y155791D02*
X-13287Y155791D01*
X-16787Y156241D02*
X-16787Y145341D01*
X-19787Y145341D01*
X-19787Y156241D01*
X-16787Y156241D01*
X-16787Y146291D02*
X-19787Y146291D01*
X-19787Y147241D02*
X-16787Y147241D01*
X-16787Y148191D02*
X-19787Y148191D01*
X-19787Y149141D02*
X-16787Y149141D01*
X-16787Y150091D02*
X-19787Y150091D01*
X-19787Y151041D02*
X-16787Y151041D01*
X-16787Y151991D02*
X-19787Y151991D01*
X-19787Y152941D02*
X-16787Y152941D01*
X-16787Y153891D02*
X-19787Y153891D01*
X-19787Y154841D02*
X-16787Y154841D01*
X-16787Y155791D02*
X-19787Y155791D01*
X-23287Y156241D02*
X-23287Y145341D01*
X-26287Y145341D01*
X-26287Y156241D01*
X-23287Y156241D01*
X-23287Y146291D02*
X-26287Y146291D01*
X-26287Y147241D02*
X-23287Y147241D01*
X-23287Y148191D02*
X-26287Y148191D01*
X-26287Y149141D02*
X-23287Y149141D01*
X-23287Y150091D02*
X-26287Y150091D01*
X-26287Y151041D02*
X-23287Y151041D01*
X-23287Y151991D02*
X-26287Y151991D01*
X-26287Y152941D02*
X-23287Y152941D01*
X-23287Y153891D02*
X-26287Y153891D01*
X-26287Y154841D02*
X-23287Y154841D01*
X-23287Y155791D02*
X-26287Y155791D01*
X-26287Y164541D02*
X-26287Y175441D01*
X-23287Y175441D01*
X-23287Y164541D01*
X-26287Y164541D01*
X-26287Y165491D02*
X-23287Y165491D01*
X-23287Y166441D02*
X-26287Y166441D01*
X-26287Y167391D02*
X-23287Y167391D01*
X-23287Y168341D02*
X-26287Y168341D01*
X-26287Y169291D02*
X-23287Y169291D01*
X-23287Y170241D02*
X-26287Y170241D01*
X-26287Y171191D02*
X-23287Y171191D01*
X-23287Y172141D02*
X-26287Y172141D01*
X-26287Y173091D02*
X-23287Y173091D01*
X-23287Y174041D02*
X-26287Y174041D01*
X-26287Y174991D02*
X-23287Y174991D01*
X-19787Y175441D02*
X-19787Y164541D01*
X-19787Y175441D02*
X-16787Y175441D01*
X-16787Y164541D01*
X-19787Y164541D01*
X-19787Y165491D02*
X-16787Y165491D01*
X-16787Y166441D02*
X-19787Y166441D01*
X-19787Y167391D02*
X-16787Y167391D01*
X-16787Y168341D02*
X-19787Y168341D01*
X-19787Y169291D02*
X-16787Y169291D01*
X-16787Y170241D02*
X-19787Y170241D01*
X-19787Y171191D02*
X-16787Y171191D01*
X-16787Y172141D02*
X-19787Y172141D01*
X-19787Y173091D02*
X-16787Y173091D01*
X-16787Y174041D02*
X-19787Y174041D01*
X-19787Y174991D02*
X-16787Y174991D01*
X-13287Y175441D02*
X-13287Y164541D01*
X-13287Y175441D02*
X-10287Y175441D01*
X-10287Y164541D01*
X-13287Y164541D01*
X-13287Y165491D02*
X-10287Y165491D01*
X-10287Y166441D02*
X-13287Y166441D01*
X-13287Y167391D02*
X-10287Y167391D01*
X-10287Y168341D02*
X-13287Y168341D01*
X-13287Y169291D02*
X-10287Y169291D01*
X-10287Y170241D02*
X-13287Y170241D01*
X-13287Y171191D02*
X-10287Y171191D01*
X-10287Y172141D02*
X-13287Y172141D01*
X-13287Y173091D02*
X-10287Y173091D01*
X-10287Y174041D02*
X-13287Y174041D01*
X-13287Y174991D02*
X-10287Y174991D01*
D10*
X-30038Y183318D03*
X-13038Y183318D03*
G36*
X-48813Y174840D02*
X-54313Y165314D01*
X-62973Y170314D01*
X-57473Y179840D01*
X-48813Y174840D01*
G37*
G36*
X-40313Y189562D02*
X-45813Y180036D01*
X-54473Y185036D01*
X-48973Y194562D01*
X-40313Y189562D01*
G37*
G36*
X13339Y184099D02*
X7839Y193625D01*
X16499Y198625D01*
X21999Y189099D01*
X13339Y184099D01*
G37*
G36*
X21839Y169376D02*
X16339Y178902D01*
X24999Y183902D01*
X30499Y174376D01*
X21839Y169376D01*
G37*
X-32962Y211228D03*
X-32962Y194228D03*
X-9450Y210966D03*
X-9450Y193966D03*
D13*
X-30565Y241914D03*
X-30565Y222914D03*
X-2740Y242277D03*
X-2740Y223277D03*
D14*
X23231Y146218D03*
X23231Y163218D03*
D10*
X1246Y163245D03*
X1246Y146245D03*
X-42731Y143587D03*
X-59731Y143587D03*
D16*
X10489Y268241D03*
X-11511Y268241D03*
D10*
X-20712Y293839D03*
X-20712Y276839D03*
D14*
G36*
X-92049Y282047D02*
X-87049Y290707D01*
X-77523Y285207D01*
X-82523Y276547D01*
X-92049Y282047D01*
G37*
G36*
X-100549Y267324D02*
X-95549Y275984D01*
X-86023Y270484D01*
X-91023Y261824D01*
X-100549Y267324D01*
G37*
D17*
X-23481Y63774D03*
X-23481Y68775D03*
X-23481Y73777D03*
X-23481Y78778D03*
X-23481Y83779D03*
X-23481Y88780D03*
X-23481Y93782D03*
X-23481Y98783D03*
X-23481Y103784D03*
X-23481Y108785D03*
X-23481Y113787D03*
X-23481Y118788D03*
D18*
X-17188Y125081D03*
X-12187Y125081D03*
X-7185Y125081D03*
X-2184Y125081D03*
X2817Y125081D03*
X7818Y125081D03*
X12820Y125081D03*
X17821Y125081D03*
X22822Y125081D03*
X27823Y125081D03*
X32825Y125081D03*
X37826Y125081D03*
D17*
X44119Y118788D03*
X44119Y113787D03*
X44119Y108785D03*
X44119Y103784D03*
X44119Y98783D03*
X44119Y93782D03*
X44119Y88780D03*
X44119Y83779D03*
X44119Y78778D03*
X44119Y73777D03*
X44119Y68775D03*
X44119Y63774D03*
D18*
X37826Y57481D03*
X32825Y57481D03*
X27823Y57481D03*
X22822Y57481D03*
X17821Y57481D03*
X12820Y57481D03*
X7818Y57481D03*
X2817Y57481D03*
X-2184Y57481D03*
X-7185Y57481D03*
X-12187Y57481D03*
X-17188Y57481D03*
D11*
X-41729Y155990D03*
X-60729Y155990D03*
D19*
G36*
X35885Y221315D02*
X26885Y236904D01*
X54597Y252903D01*
X63597Y237314D01*
X35885Y221315D01*
G37*
G36*
X63885Y172817D02*
X54885Y188406D01*
X82597Y204405D01*
X91597Y188816D01*
X63885Y172817D01*
G37*
M02*
