G04 EAGLE Gerber RS-274X export*
G75*
%MOMM*%
%FSLAX34Y34*%
%LPD*%
%INSoldermask Top*%
%IPPOS*%
%AMOC8*
5,1,8,0,0,1.08239X$1,22.5*%
G01*
%ADD10R,1.003200X1.003200*%
%ADD11R,1.203200X1.303200*%
%ADD12R,1.303200X1.203200*%
%ADD13R,2.703200X2.703200*%
%ADD14C,2.703200*%
%ADD15R,1.503200X1.703200*%
%ADD16R,1.003200X0.703200*%
%ADD17R,1.757200X0.775200*%
%ADD18C,0.775200*%
%ADD19C,1.203200*%
%ADD20C,0.301600*%
%ADD21C,1.727200*%
%ADD22P,1.869504X8X22.500000*%

G36*
X16870Y160D02*
X16870Y160D01*
X16899Y158D01*
X16966Y180D01*
X17036Y194D01*
X17060Y211D01*
X17088Y220D01*
X17141Y266D01*
X17200Y307D01*
X17216Y331D01*
X17238Y350D01*
X17269Y414D01*
X17307Y474D01*
X17312Y503D01*
X17325Y529D01*
X17333Y628D01*
X17340Y670D01*
X17338Y681D01*
X17339Y695D01*
X17107Y3493D01*
X17097Y3526D01*
X17093Y3574D01*
X16404Y6296D01*
X16389Y6327D01*
X16377Y6374D01*
X15250Y8945D01*
X15230Y8974D01*
X15210Y9018D01*
X13675Y11368D01*
X13650Y11393D01*
X13624Y11434D01*
X11722Y13499D01*
X11694Y13520D01*
X11662Y13555D01*
X9446Y15280D01*
X9415Y15295D01*
X9377Y15325D01*
X6908Y16661D01*
X6874Y16671D01*
X6832Y16694D01*
X5646Y17101D01*
X4192Y17601D01*
X4177Y17606D01*
X4142Y17610D01*
X4097Y17626D01*
X1327Y18088D01*
X1293Y18087D01*
X1245Y18095D01*
X-1563Y18095D01*
X-1597Y18088D01*
X-1645Y18088D01*
X-4414Y17626D01*
X-4447Y17614D01*
X-4494Y17606D01*
X-7150Y16694D01*
X-7179Y16677D01*
X-7225Y16661D01*
X-9695Y15325D01*
X-9721Y15302D01*
X-9764Y15280D01*
X-11979Y13555D01*
X-12002Y13529D01*
X-12040Y13499D01*
X-13941Y11434D01*
X-13959Y11404D01*
X-13992Y11368D01*
X-15528Y9018D01*
X-15541Y8986D01*
X-15567Y8945D01*
X-16695Y6374D01*
X-16702Y6340D01*
X-16705Y6334D01*
X-16711Y6325D01*
X-16712Y6319D01*
X-16722Y6296D01*
X-17411Y3574D01*
X-17413Y3540D01*
X-17424Y3493D01*
X-17656Y695D01*
X-17653Y666D01*
X-17658Y637D01*
X-17641Y568D01*
X-17633Y498D01*
X-17618Y472D01*
X-17612Y444D01*
X-17570Y387D01*
X-17534Y325D01*
X-17511Y307D01*
X-17494Y284D01*
X-17433Y247D01*
X-17376Y204D01*
X-17348Y197D01*
X-17323Y182D01*
X-17225Y166D01*
X-17184Y155D01*
X-17172Y157D01*
X-17159Y155D01*
X16841Y155D01*
X16870Y160D01*
G37*
G36*
X-121552Y60464D02*
X-121552Y60464D01*
X-121481Y60461D01*
X-121454Y60471D01*
X-121425Y60473D01*
X-121334Y60515D01*
X-121295Y60530D01*
X-121287Y60538D01*
X-121274Y60544D01*
X-118970Y62143D01*
X-118946Y62168D01*
X-118907Y62196D01*
X-116898Y64153D01*
X-116878Y64181D01*
X-116844Y64215D01*
X-115184Y66476D01*
X-115170Y66507D01*
X-115141Y66546D01*
X-113877Y69049D01*
X-113867Y69082D01*
X-113846Y69125D01*
X-113010Y71803D01*
X-113007Y71837D01*
X-112992Y71883D01*
X-112609Y74661D01*
X-112611Y74696D01*
X-112604Y74744D01*
X-112683Y77547D01*
X-112691Y77581D01*
X-112693Y77629D01*
X-113232Y80381D01*
X-113245Y80413D01*
X-113255Y80460D01*
X-114240Y83086D01*
X-114255Y83111D01*
X-114260Y83131D01*
X-114268Y83141D01*
X-114275Y83161D01*
X-115679Y85589D01*
X-115702Y85615D01*
X-115726Y85656D01*
X-117510Y87820D01*
X-117537Y87842D01*
X-117568Y87879D01*
X-119684Y89719D01*
X-119714Y89737D01*
X-119750Y89768D01*
X-122140Y91235D01*
X-122173Y91247D01*
X-122214Y91273D01*
X-124813Y92326D01*
X-124847Y92333D01*
X-124892Y92351D01*
X-127629Y92962D01*
X-127663Y92963D01*
X-127710Y92973D01*
X-130511Y93126D01*
X-130545Y93121D01*
X-130593Y93124D01*
X-133380Y92813D01*
X-133413Y92803D01*
X-133461Y92798D01*
X-136159Y92033D01*
X-136190Y92017D01*
X-136237Y92004D01*
X-138772Y90805D01*
X-138796Y90788D01*
X-138823Y90777D01*
X-138874Y90729D01*
X-138931Y90686D01*
X-138946Y90661D01*
X-138967Y90641D01*
X-138996Y90576D01*
X-139032Y90514D01*
X-139035Y90485D01*
X-139047Y90459D01*
X-139048Y90388D01*
X-139057Y90317D01*
X-139049Y90289D01*
X-139049Y90260D01*
X-139014Y90167D01*
X-139003Y90126D01*
X-138996Y90117D01*
X-138991Y90104D01*
X-121991Y60704D01*
X-121972Y60682D01*
X-121959Y60656D01*
X-121906Y60608D01*
X-121859Y60555D01*
X-121833Y60542D01*
X-121811Y60523D01*
X-121744Y60500D01*
X-121680Y60469D01*
X-121651Y60468D01*
X-121623Y60459D01*
X-121552Y60464D01*
G37*
G36*
X121267Y60464D02*
X121267Y60464D01*
X121338Y60464D01*
X121365Y60475D01*
X121394Y60478D01*
X121456Y60513D01*
X121522Y60541D01*
X121542Y60561D01*
X121567Y60576D01*
X121631Y60652D01*
X121661Y60683D01*
X121665Y60693D01*
X121673Y60704D01*
X138673Y90104D01*
X138683Y90132D01*
X138699Y90155D01*
X138714Y90225D01*
X138737Y90292D01*
X138734Y90321D01*
X138741Y90350D01*
X138727Y90420D01*
X138721Y90491D01*
X138708Y90517D01*
X138702Y90545D01*
X138663Y90604D01*
X138630Y90667D01*
X138607Y90686D01*
X138591Y90710D01*
X138509Y90767D01*
X138477Y90794D01*
X138466Y90797D01*
X138455Y90805D01*
X135919Y92004D01*
X135885Y92012D01*
X135842Y92033D01*
X133144Y92798D01*
X133109Y92800D01*
X133063Y92813D01*
X130276Y93124D01*
X130241Y93121D01*
X130193Y93126D01*
X127393Y92973D01*
X127359Y92965D01*
X127311Y92962D01*
X124574Y92351D01*
X124543Y92337D01*
X124495Y92326D01*
X121896Y91273D01*
X121867Y91253D01*
X121823Y91235D01*
X119433Y89768D01*
X119407Y89745D01*
X119366Y89719D01*
X117250Y87879D01*
X117229Y87851D01*
X117193Y87820D01*
X115408Y85656D01*
X115392Y85626D01*
X115361Y85589D01*
X113957Y83161D01*
X113946Y83128D01*
X113939Y83115D01*
X113929Y83100D01*
X113929Y83098D01*
X113922Y83086D01*
X112937Y80460D01*
X112932Y80426D01*
X112915Y80381D01*
X112375Y77629D01*
X112375Y77594D01*
X112366Y77547D01*
X112287Y74744D01*
X112293Y74709D01*
X112291Y74661D01*
X112675Y71883D01*
X112686Y71850D01*
X112693Y71803D01*
X113528Y69125D01*
X113545Y69095D01*
X113559Y69049D01*
X114824Y66546D01*
X114845Y66519D01*
X114867Y66476D01*
X116526Y64215D01*
X116552Y64192D01*
X116580Y64153D01*
X118589Y62196D01*
X118618Y62177D01*
X118653Y62143D01*
X120957Y60544D01*
X120983Y60532D01*
X121006Y60514D01*
X121074Y60493D01*
X121139Y60465D01*
X121168Y60465D01*
X121196Y60457D01*
X121267Y60464D01*
G37*
G36*
X163568Y133664D02*
X163568Y133664D01*
X163639Y133664D01*
X163666Y133675D01*
X163695Y133679D01*
X163757Y133714D01*
X163823Y133741D01*
X163843Y133762D01*
X163868Y133776D01*
X163932Y133853D01*
X163961Y133884D01*
X163965Y133894D01*
X163974Y133905D01*
X173474Y150405D01*
X173484Y150436D01*
X173493Y150449D01*
X173497Y150474D01*
X173498Y150477D01*
X173529Y150548D01*
X173530Y150571D01*
X173537Y150593D01*
X173531Y150670D01*
X173532Y150747D01*
X173523Y150771D01*
X173521Y150792D01*
X173501Y150831D01*
X173474Y150903D01*
X163974Y167403D01*
X163955Y167425D01*
X163943Y167451D01*
X163890Y167499D01*
X163842Y167552D01*
X163816Y167565D01*
X163795Y167584D01*
X163727Y167607D01*
X163663Y167638D01*
X163634Y167639D01*
X163607Y167649D01*
X163536Y167644D01*
X163464Y167647D01*
X163437Y167637D01*
X163408Y167635D01*
X163318Y167593D01*
X163278Y167578D01*
X163270Y167570D01*
X163258Y167565D01*
X160734Y165823D01*
X160711Y165798D01*
X160672Y165772D01*
X158461Y163648D01*
X158441Y163620D01*
X158407Y163588D01*
X156565Y161137D01*
X156551Y161106D01*
X156522Y161069D01*
X155098Y158354D01*
X155088Y158322D01*
X155072Y158297D01*
X155071Y158289D01*
X155066Y158280D01*
X154095Y155371D01*
X154091Y155338D01*
X154076Y155293D01*
X153584Y152267D01*
X153585Y152233D01*
X153578Y152187D01*
X153578Y149121D01*
X153578Y149117D01*
X153578Y149115D01*
X153584Y149088D01*
X153584Y149087D01*
X153584Y149041D01*
X154076Y146014D01*
X154088Y145982D01*
X154095Y145936D01*
X155066Y143028D01*
X155083Y142998D01*
X155098Y142954D01*
X156522Y140239D01*
X156544Y140213D01*
X156565Y140171D01*
X158407Y137720D01*
X158433Y137697D01*
X158461Y137660D01*
X160672Y135535D01*
X160701Y135517D01*
X160734Y135485D01*
X163258Y133743D01*
X163284Y133732D01*
X163307Y133713D01*
X163375Y133693D01*
X163441Y133665D01*
X163469Y133665D01*
X163497Y133656D01*
X163568Y133664D01*
G37*
G36*
X-163853Y133664D02*
X-163853Y133664D01*
X-163782Y133660D01*
X-163755Y133671D01*
X-163726Y133673D01*
X-163635Y133715D01*
X-163595Y133730D01*
X-163587Y133737D01*
X-163575Y133743D01*
X-161052Y135485D01*
X-161028Y135509D01*
X-160989Y135535D01*
X-158778Y137660D01*
X-158759Y137687D01*
X-158725Y137720D01*
X-156883Y140171D01*
X-156868Y140202D01*
X-156840Y140239D01*
X-155415Y142954D01*
X-155406Y142986D01*
X-155384Y143028D01*
X-154413Y145936D01*
X-154408Y145970D01*
X-154393Y146014D01*
X-153901Y149041D01*
X-153903Y149074D01*
X-153895Y149121D01*
X-153895Y152187D01*
X-153902Y152220D01*
X-153901Y152267D01*
X-154393Y155293D01*
X-154405Y155325D01*
X-154413Y155371D01*
X-155384Y158280D01*
X-155397Y158303D01*
X-155403Y158328D01*
X-155409Y158337D01*
X-155415Y158354D01*
X-156840Y161069D01*
X-156861Y161095D01*
X-156883Y161137D01*
X-158725Y163588D01*
X-158750Y163610D01*
X-158778Y163648D01*
X-160989Y165772D01*
X-161018Y165790D01*
X-161052Y165823D01*
X-163575Y167565D01*
X-163602Y167576D01*
X-163624Y167594D01*
X-163692Y167615D01*
X-163758Y167643D01*
X-163787Y167643D01*
X-163815Y167651D01*
X-163886Y167643D01*
X-163957Y167643D01*
X-163983Y167632D01*
X-164012Y167629D01*
X-164075Y167594D01*
X-164140Y167566D01*
X-164160Y167545D01*
X-164186Y167531D01*
X-164249Y167454D01*
X-164279Y167424D01*
X-164283Y167413D01*
X-164291Y167403D01*
X-173791Y150903D01*
X-173816Y150830D01*
X-173847Y150759D01*
X-173847Y150736D01*
X-173854Y150714D01*
X-173848Y150638D01*
X-173849Y150561D01*
X-173840Y150536D01*
X-173839Y150516D01*
X-173818Y150476D01*
X-173799Y150424D01*
X-173797Y150419D01*
X-173796Y150417D01*
X-173791Y150405D01*
X-164291Y133905D01*
X-164272Y133883D01*
X-164260Y133857D01*
X-164207Y133809D01*
X-164160Y133756D01*
X-164134Y133743D01*
X-164112Y133724D01*
X-164045Y133700D01*
X-163981Y133670D01*
X-163952Y133668D01*
X-163924Y133659D01*
X-163853Y133664D01*
G37*
G36*
X86517Y170D02*
X86517Y170D01*
X86595Y179D01*
X86614Y190D01*
X86636Y194D01*
X86700Y238D01*
X86768Y276D01*
X86784Y296D01*
X86800Y307D01*
X86824Y344D01*
X86874Y405D01*
X96374Y16905D01*
X96383Y16932D01*
X96399Y16955D01*
X96414Y17026D01*
X96437Y17093D01*
X96435Y17122D01*
X96441Y17150D01*
X96427Y17220D01*
X96421Y17292D01*
X96408Y17317D01*
X96402Y17345D01*
X96362Y17404D01*
X96329Y17468D01*
X96307Y17486D01*
X96291Y17510D01*
X96208Y17568D01*
X96176Y17594D01*
X96166Y17597D01*
X96155Y17605D01*
X93389Y18914D01*
X93356Y18922D01*
X93314Y18942D01*
X90374Y19790D01*
X90340Y19792D01*
X90295Y19806D01*
X87257Y20171D01*
X87223Y20168D01*
X87177Y20174D01*
X84119Y20047D01*
X84086Y20039D01*
X84040Y20037D01*
X81042Y19422D01*
X81011Y19408D01*
X80965Y19399D01*
X78105Y18311D01*
X78077Y18293D01*
X78033Y18276D01*
X75385Y16743D01*
X75359Y16721D01*
X75319Y16697D01*
X72951Y14759D01*
X72929Y14733D01*
X72893Y14704D01*
X70867Y12411D01*
X70850Y12382D01*
X70819Y12347D01*
X69186Y9759D01*
X69174Y9727D01*
X69149Y9687D01*
X67953Y6871D01*
X67946Y6838D01*
X67943Y6831D01*
X67939Y6824D01*
X67938Y6819D01*
X67928Y6795D01*
X67199Y3823D01*
X67198Y3789D01*
X67186Y3744D01*
X66944Y693D01*
X66947Y665D01*
X66942Y637D01*
X66959Y567D01*
X66968Y496D01*
X66982Y471D01*
X66988Y444D01*
X67031Y386D01*
X67067Y324D01*
X67089Y306D01*
X67106Y284D01*
X67168Y247D01*
X67225Y204D01*
X67253Y197D01*
X67277Y182D01*
X67377Y165D01*
X67418Y155D01*
X67429Y157D01*
X67441Y155D01*
X86441Y155D01*
X86517Y170D01*
G37*
G36*
X-67731Y160D02*
X-67731Y160D01*
X-67703Y158D01*
X-67634Y180D01*
X-67564Y194D01*
X-67540Y210D01*
X-67514Y219D01*
X-67459Y266D01*
X-67400Y307D01*
X-67385Y330D01*
X-67363Y349D01*
X-67332Y414D01*
X-67293Y474D01*
X-67288Y502D01*
X-67276Y528D01*
X-67267Y629D01*
X-67260Y670D01*
X-67262Y680D01*
X-67261Y693D01*
X-67504Y3744D01*
X-67513Y3776D01*
X-67516Y3823D01*
X-68245Y6795D01*
X-68260Y6825D01*
X-68271Y6871D01*
X-69466Y9687D01*
X-69486Y9715D01*
X-69504Y9759D01*
X-71136Y12347D01*
X-71160Y12371D01*
X-71184Y12411D01*
X-73211Y14704D01*
X-73238Y14724D01*
X-73268Y14759D01*
X-75636Y16697D01*
X-75666Y16713D01*
X-75702Y16743D01*
X-78350Y18276D01*
X-78383Y18287D01*
X-78423Y18311D01*
X-81283Y19399D01*
X-81316Y19405D01*
X-81360Y19422D01*
X-84357Y20037D01*
X-84391Y20037D01*
X-84437Y20047D01*
X-87494Y20174D01*
X-87527Y20169D01*
X-87574Y20171D01*
X-90612Y19806D01*
X-90645Y19795D01*
X-90691Y19790D01*
X-93631Y18942D01*
X-93661Y18926D01*
X-93706Y18914D01*
X-96472Y17605D01*
X-96495Y17588D01*
X-96522Y17578D01*
X-96574Y17529D01*
X-96631Y17486D01*
X-96646Y17461D01*
X-96667Y17442D01*
X-96696Y17376D01*
X-96732Y17314D01*
X-96735Y17286D01*
X-96747Y17259D01*
X-96748Y17188D01*
X-96757Y17117D01*
X-96749Y17089D01*
X-96749Y17061D01*
X-96714Y16966D01*
X-96703Y16925D01*
X-96696Y16917D01*
X-96691Y16905D01*
X-87191Y405D01*
X-87140Y346D01*
X-87094Y284D01*
X-87075Y272D01*
X-87060Y256D01*
X-86990Y222D01*
X-86923Y182D01*
X-86898Y178D01*
X-86881Y170D01*
X-86836Y168D01*
X-86759Y155D01*
X-67759Y155D01*
X-67731Y160D01*
G37*
D10*
X24232Y109054D03*
X24232Y94054D03*
D11*
X-56677Y52198D03*
X-73677Y52198D03*
D12*
X46067Y93940D03*
X46067Y110940D03*
D13*
G36*
X-76946Y212661D02*
X-90462Y189251D01*
X-113872Y202767D01*
X-100356Y226177D01*
X-76946Y212661D01*
G37*
D14*
X-70009Y251708D03*
D13*
G36*
X66309Y230399D02*
X52793Y253809D01*
X76203Y267325D01*
X89719Y243915D01*
X66309Y230399D01*
G37*
D14*
X96656Y204868D03*
D12*
G36*
X-8516Y184854D02*
X-15032Y196140D01*
X-4612Y202156D01*
X1904Y190870D01*
X-8516Y184854D01*
G37*
G36*
X-16Y170132D02*
X-6532Y181418D01*
X3888Y187434D01*
X10404Y176148D01*
X-16Y170132D01*
G37*
G36*
X-24045Y204230D02*
X-35331Y197714D01*
X-41347Y208134D01*
X-30061Y214650D01*
X-24045Y204230D01*
G37*
G36*
X-9323Y212730D02*
X-20609Y206214D01*
X-26625Y216634D01*
X-15339Y223150D01*
X-9323Y212730D01*
G37*
G36*
X13144Y149552D02*
X6628Y160838D01*
X17048Y166854D01*
X23564Y155568D01*
X13144Y149552D01*
G37*
G36*
X21644Y134830D02*
X15128Y146116D01*
X25548Y152132D01*
X32064Y140846D01*
X21644Y134830D01*
G37*
D11*
G36*
X-6721Y216862D02*
X3699Y222878D01*
X10215Y211592D01*
X-205Y205576D01*
X-6721Y216862D01*
G37*
G36*
X-21443Y208362D02*
X-11023Y214378D01*
X-4507Y203092D01*
X-14927Y197076D01*
X-21443Y208362D01*
G37*
G36*
X15621Y178507D02*
X26041Y184523D01*
X32557Y173237D01*
X22137Y167221D01*
X15621Y178507D01*
G37*
G36*
X899Y170007D02*
X11319Y176023D01*
X17835Y164737D01*
X7415Y158721D01*
X899Y170007D01*
G37*
D15*
G36*
X6977Y223004D02*
X-6041Y215488D01*
X-14557Y230238D01*
X-1539Y237754D01*
X6977Y223004D01*
G37*
G36*
X23431Y232504D02*
X10413Y224988D01*
X1897Y239738D01*
X14915Y247254D01*
X23431Y232504D01*
G37*
G36*
X42339Y161378D02*
X29321Y153862D01*
X20805Y168612D01*
X33823Y176128D01*
X42339Y161378D01*
G37*
G36*
X58793Y170878D02*
X45775Y163362D01*
X37259Y178112D01*
X50277Y185628D01*
X58793Y170878D01*
G37*
D16*
G36*
X36165Y203424D02*
X41181Y194738D01*
X35093Y191222D01*
X30077Y199908D01*
X36165Y203424D01*
G37*
G36*
X25165Y222477D02*
X30181Y213791D01*
X24093Y210275D01*
X19077Y218961D01*
X25165Y222477D01*
G37*
D12*
G36*
X-20643Y139289D02*
X-27159Y150575D01*
X-16739Y156591D01*
X-10223Y145305D01*
X-20643Y139289D01*
G37*
G36*
X-12143Y124567D02*
X-18659Y135853D01*
X-8239Y141869D01*
X-1723Y130583D01*
X-12143Y124567D01*
G37*
D11*
G36*
X-6688Y147956D02*
X-12704Y158376D01*
X-1418Y164892D01*
X4598Y154472D01*
X-6688Y147956D01*
G37*
G36*
X1812Y133234D02*
X-4204Y143654D01*
X7082Y150170D01*
X13098Y139750D01*
X1812Y133234D01*
G37*
G36*
X-123483Y121880D02*
X-133903Y127896D01*
X-127387Y139182D01*
X-116967Y133166D01*
X-123483Y121880D01*
G37*
G36*
X-108761Y113380D02*
X-119181Y119396D01*
X-112665Y130682D01*
X-102245Y124666D01*
X-108761Y113380D01*
G37*
D12*
G36*
X-107394Y141452D02*
X-113910Y130166D01*
X-124330Y136182D01*
X-117814Y147468D01*
X-107394Y141452D01*
G37*
G36*
X-98894Y156174D02*
X-105410Y144888D01*
X-115830Y150904D01*
X-109314Y162190D01*
X-98894Y156174D01*
G37*
G36*
X-51306Y145601D02*
X-62592Y139085D01*
X-68608Y149505D01*
X-57322Y156021D01*
X-51306Y145601D01*
G37*
G36*
X-36583Y154101D02*
X-47869Y147585D01*
X-53885Y158005D01*
X-42599Y164521D01*
X-36583Y154101D01*
G37*
D15*
G36*
X-57231Y100958D02*
X-64747Y113976D01*
X-49997Y122492D01*
X-42481Y109474D01*
X-57231Y100958D01*
G37*
G36*
X-47731Y84504D02*
X-55247Y97522D01*
X-40497Y106038D01*
X-32981Y93020D01*
X-47731Y84504D01*
G37*
D17*
G36*
X-84592Y140730D02*
X-99808Y149515D01*
X-95932Y156228D01*
X-80716Y147443D01*
X-84592Y140730D01*
G37*
D18*
X-90760Y137797D02*
X-99264Y142707D01*
X-104014Y134480D02*
X-95510Y129570D01*
X-84961Y123480D02*
X-76457Y118570D01*
X-66957Y135024D02*
X-75461Y139934D01*
D19*
X165041Y150654D03*
X82441Y7554D03*
X-82759Y7554D03*
X-165359Y150654D03*
X123741Y79154D03*
X-159Y7554D03*
X-124059Y79154D03*
D20*
X-39405Y173106D02*
X-29953Y178563D01*
X-39405Y173106D02*
X-40913Y175717D01*
X-31461Y181174D01*
X-29953Y178563D01*
X-34443Y175971D02*
X-40473Y175971D01*
X-35511Y178836D02*
X-30111Y178836D01*
X-26703Y172934D02*
X-36155Y167477D01*
X-37663Y170088D01*
X-28211Y175545D01*
X-26703Y172934D01*
X-31193Y170342D02*
X-37223Y170342D01*
X-32261Y173207D02*
X-26861Y173207D01*
X-23453Y167305D02*
X-32905Y161848D01*
X-34413Y164459D01*
X-24961Y169916D01*
X-23453Y167305D01*
X-27943Y164713D02*
X-33973Y164713D01*
X-29011Y167578D02*
X-23611Y167578D01*
X-17786Y174059D02*
X-8334Y179516D01*
X-6826Y176905D01*
X-16278Y171448D01*
X-17786Y174059D01*
X-17346Y174313D02*
X-11316Y174313D01*
X-12384Y177178D02*
X-6984Y177178D01*
X-11584Y185145D02*
X-21036Y179688D01*
X-11584Y185145D02*
X-10076Y182534D01*
X-19528Y177077D01*
X-21036Y179688D01*
X-20596Y179942D02*
X-14566Y179942D01*
X-15634Y182807D02*
X-10234Y182807D01*
X-14834Y190774D02*
X-24286Y185317D01*
X-14834Y190774D02*
X-13326Y188163D01*
X-22778Y182706D01*
X-24286Y185317D01*
X-23846Y185571D02*
X-17816Y185571D01*
X-18884Y188436D02*
X-13484Y188436D01*
D21*
X24606Y44450D03*
X50006Y44450D03*
X75406Y44450D03*
D22*
X74793Y127788D03*
D15*
G36*
X-33711Y132008D02*
X-41227Y145026D01*
X-26477Y153542D01*
X-18961Y140524D01*
X-33711Y132008D01*
G37*
G36*
X-24211Y115554D02*
X-31727Y128572D01*
X-16977Y137088D01*
X-9461Y124070D01*
X-24211Y115554D01*
G37*
D12*
G36*
X-65486Y96712D02*
X-72002Y107998D01*
X-61582Y114014D01*
X-55066Y102728D01*
X-65486Y96712D01*
G37*
G36*
X-56986Y81989D02*
X-63502Y93275D01*
X-53082Y99291D01*
X-46566Y88005D01*
X-56986Y81989D01*
G37*
M02*
