M48
;GenerationSoftware,Autodesk,EAGLE,9.6.2*%
;CreationDate,2023-09-26T14:34:59Z*%
FMAT,2
ICI,OFF
METRIC,TZ,000.000
T3C0.350
T2C1.016
T1C1.500
%
G90
M71
T1
X7126Y24886
X-9541Y20771
X-7001Y25171
X9666Y20487
T2
X7479Y12779
X2461Y4445
X5001Y4445
X7541Y4445
T3
X1746Y9049
X6588Y8246
X-9904Y9020
X-4524Y7144
X-3724Y14278
X5001Y24527
X5477Y23416
X4207Y22622
X3492Y23733
X7699Y20320
X8255Y18971
X6271Y19447
X6826Y18336
X2864Y3100
X3406Y14764
X-8969Y13811
X-6509Y12072
X-4366Y12151
X-6032Y16748
X-781Y13639
X-5771Y7477
X1270Y13811
X-3254Y11986
X-10319Y11112
X3016Y1508
X5239Y11827
X-8334Y7302
X9488Y9965
X-4233Y17492
X9208Y6985
X7858Y9843
X-635Y3492
X-6985Y8414
X9511Y8821
M30