M48
;GenerationSoftware,Autodesk,EAGLE,9.6.2*%
;CreationDate,2023-11-12T06:07:50Z*%
FMAT,2
ICI,OFF
METRIC,TZ,000.000
T4C0.300
T3C0.350
T2C1.016
T1C1.500
%
G90
M71
T1
X-6643Y24909
X9975Y20266
X-9183Y20509
X7435Y24666
T2
X5001Y2540
X-8652Y3889
X-8652Y6429
X-8652Y8969
T3
X-11589Y11351
X-13017Y13970
X-7302Y3175
X-10319Y4842
X10160Y3016
X9763Y2381
X14208Y16113
X-6350Y6112
X6191Y4445
X10795Y11509
X-15081Y12700
X-14526Y13811
X-5794Y397
X-4128Y476
X9366Y3810
X15399Y13652
X15319Y12144
X6350Y2461
X-6588Y8508
X10716Y4128
X4842Y18733
X2461Y21669
X13494Y15002
X-1429Y21669
X-3651Y19923
X-4921Y4043
X5556Y10319
T4
X1270Y8493
X6493Y12129
X-6906Y11016
X8890Y8814
X-5318Y9128
X8528Y6703
X7461Y13142
X-7223Y14412
X8493Y14729
X-238Y14809
X-6826Y4747
X7937Y5363
X-1429Y3220
X1349Y12269
X-9446Y14650
X-397Y12189
X2540Y2381
X7064Y8414
X-9373Y7692
X-4286Y8969
X9733Y5693
X-10716Y12621
X-4048Y3651
X1022Y3248
X873Y14809
M30