M48
;GenerationSoftware,Autodesk,EAGLE,9.6.2*%
;CreationDate,2021-04-19T14:37:20Z*%
FMAT,2
ICI,OFF
METRIC,TZ,000.000
T2C0.350
T1C1.500
%
G90
M71
T1
X44352Y39854
X25146Y40218
X27686Y44618
X41812Y44254
T2
X40640Y36045
X26289Y35941
X24892Y28321
X23749Y34290
X45974Y35535
X45808Y32131
X44423Y28208
X37996Y20226
X22049Y34339
X22733Y36608
X26035Y26416
X24754Y24546
X42804Y26040
X38916Y39370
X43586Y26924
X34394Y26457
X29152Y22257
X34406Y24875
X32925Y23203
X36830Y37813
X34671Y36703
X39863Y24610
X41035Y28753
X37313Y25248
X29258Y24225
X32226Y44767
X31115Y42545
X26987Y24606
X43445Y23597
X21273Y32147
X27661Y29870
X39697Y40259
M30