G04 EAGLE Gerber RS-274X export*
G75*
%MOMM*%
%FSLAX34Y34*%
%LPD*%
%INTop Copper*%
%IPPOS*%
%AMOC8*
5,1,8,0,0,1.08239X$1,22.5*%
G01*
%ADD10R,0.800000X0.800000*%
%ADD11R,1.100000X1.000000*%
%ADD12C,0.499997*%
%ADD13R,2.500000X2.500000*%
%ADD14C,2.500000*%
%ADD15R,1.000000X1.100000*%
%ADD16R,1.500000X1.300000*%
%ADD17R,0.800000X0.500000*%
%ADD18R,0.355600X1.168400*%
%ADD19R,0.572000X1.554000*%
%ADD20C,0.572000*%
%ADD21C,1.000000*%
%ADD22C,0.756400*%
%ADD23C,0.355600*%
%ADD24C,0.254000*%
%ADD25C,0.609600*%

G36*
X279138Y196216D02*
X279138Y196216D01*
X279166Y196214D01*
X279234Y196236D01*
X279305Y196250D01*
X279328Y196266D01*
X279355Y196275D01*
X279410Y196322D01*
X279469Y196363D01*
X279484Y196387D01*
X279506Y196405D01*
X279537Y196470D01*
X279576Y196530D01*
X279581Y196558D01*
X279593Y196584D01*
X279602Y196685D01*
X279609Y196727D01*
X279607Y196737D01*
X279608Y196750D01*
X279369Y199751D01*
X316264Y199751D01*
X316312Y199760D01*
X316361Y199760D01*
X316409Y199780D01*
X316460Y199790D01*
X316501Y199818D01*
X316547Y199837D01*
X316583Y199874D01*
X316626Y199903D01*
X316653Y199944D01*
X316688Y199979D01*
X316710Y200033D01*
X316735Y200071D01*
X316742Y200106D01*
X316758Y200145D01*
X316988Y201152D01*
X316989Y201186D01*
X316999Y201227D01*
X317073Y202217D01*
X317143Y202277D01*
X317187Y202333D01*
X317236Y202383D01*
X317249Y202413D01*
X317266Y202436D01*
X317280Y202485D01*
X317307Y202549D01*
X317685Y204207D01*
X317687Y204270D01*
X317697Y204326D01*
X317695Y204334D01*
X317697Y204347D01*
X317690Y204379D01*
X317690Y204407D01*
X317672Y204455D01*
X317656Y204523D01*
X317619Y204607D01*
X317982Y205532D01*
X317988Y205566D01*
X318004Y205604D01*
X318225Y206573D01*
X318303Y206622D01*
X318354Y206670D01*
X318411Y206713D01*
X318428Y206741D01*
X318449Y206760D01*
X318469Y206807D01*
X318506Y206866D01*
X319127Y208449D01*
X319139Y208518D01*
X319160Y208586D01*
X319157Y208619D01*
X319162Y208646D01*
X319150Y208697D01*
X319145Y208766D01*
X319121Y208855D01*
X319617Y209715D01*
X319629Y209748D01*
X319650Y209783D01*
X320013Y210708D01*
X320098Y210745D01*
X320156Y210785D01*
X320218Y210819D01*
X320239Y210844D01*
X320262Y210860D01*
X320290Y210904D01*
X320334Y210956D01*
X321184Y212429D01*
X321207Y212496D01*
X321237Y212560D01*
X321239Y212592D01*
X321248Y212619D01*
X321245Y212670D01*
X321249Y212739D01*
X321239Y212831D01*
X321858Y213608D01*
X321874Y213639D01*
X321901Y213670D01*
X322398Y214531D01*
X322487Y214555D01*
X322550Y214586D01*
X322617Y214610D01*
X322641Y214631D01*
X322666Y214644D01*
X322700Y214683D01*
X322752Y214728D01*
X323812Y216058D01*
X323845Y216121D01*
X323884Y216179D01*
X323891Y216211D01*
X323904Y216236D01*
X323908Y216287D01*
X323923Y216355D01*
X323926Y216447D01*
X324654Y217123D01*
X324668Y217142D01*
X324680Y217149D01*
X324688Y217163D01*
X324706Y217178D01*
X325326Y217955D01*
X325417Y217966D01*
X325484Y217987D01*
X325554Y218001D01*
X325581Y218018D01*
X325608Y218027D01*
X325647Y218060D01*
X325705Y218098D01*
X326952Y219254D01*
X326993Y219312D01*
X327041Y219364D01*
X327052Y219394D01*
X327069Y219417D01*
X327080Y219467D01*
X327105Y219532D01*
X327122Y219622D01*
X327943Y220182D01*
X327968Y220207D01*
X328003Y220229D01*
X328731Y220905D01*
X328823Y220902D01*
X328892Y220913D01*
X328963Y220916D01*
X328993Y220929D01*
X329021Y220934D01*
X329064Y220961D01*
X329127Y220989D01*
X330532Y221947D01*
X330582Y221998D01*
X330637Y222042D01*
X330653Y222071D01*
X330672Y222091D01*
X330691Y222139D01*
X330725Y222199D01*
X330756Y222286D01*
X331651Y222717D01*
X331679Y222738D01*
X331717Y222755D01*
X332538Y223315D01*
X332628Y223297D01*
X332699Y223298D01*
X332769Y223291D01*
X332801Y223299D01*
X332829Y223300D01*
X332876Y223320D01*
X332943Y223339D01*
X334475Y224077D01*
X334531Y224119D01*
X334592Y224155D01*
X334612Y224181D01*
X334634Y224198D01*
X334660Y224242D01*
X334703Y224297D01*
X334746Y224378D01*
X335695Y224671D01*
X335726Y224687D01*
X335766Y224699D01*
X336661Y225130D01*
X336748Y225099D01*
X336818Y225090D01*
X336886Y225072D01*
X336919Y225076D01*
X336947Y225072D01*
X336996Y225085D01*
X337065Y225093D01*
X338690Y225595D01*
X338752Y225628D01*
X338818Y225654D01*
X338841Y225677D01*
X338866Y225690D01*
X338898Y225731D01*
X338949Y225778D01*
X339003Y225852D01*
X339986Y226000D01*
X340018Y226012D01*
X340060Y226017D01*
X341009Y226310D01*
X341091Y226267D01*
X341158Y226247D01*
X341223Y226219D01*
X341256Y226218D01*
X341283Y226210D01*
X341334Y226216D01*
X341403Y226214D01*
X343085Y226467D01*
X343151Y226491D01*
X343220Y226507D01*
X343247Y226526D01*
X343273Y226536D01*
X343311Y226571D01*
X343368Y226610D01*
X343433Y226675D01*
X344426Y226675D01*
X344460Y226682D01*
X344502Y226681D01*
X345485Y226829D01*
X345559Y226774D01*
X345623Y226744D01*
X345682Y226707D01*
X345715Y226701D01*
X345740Y226690D01*
X345792Y226688D01*
X345860Y226675D01*
X347560Y226675D01*
X347630Y226689D01*
X347700Y226695D01*
X347729Y226709D01*
X347757Y226715D01*
X347799Y226744D01*
X347861Y226774D01*
X347935Y226829D01*
X348918Y226681D01*
X348953Y226683D01*
X348994Y226675D01*
X349987Y226675D01*
X350052Y226610D01*
X350111Y226571D01*
X350165Y226525D01*
X350196Y226515D01*
X350219Y226499D01*
X350270Y226490D01*
X350335Y226467D01*
X352017Y226214D01*
X352087Y226217D01*
X352158Y226212D01*
X352189Y226222D01*
X352217Y226224D01*
X352264Y226246D01*
X352329Y226267D01*
X352411Y226310D01*
X353360Y226017D01*
X353395Y226014D01*
X353434Y226000D01*
X354417Y225852D01*
X354471Y225778D01*
X354524Y225731D01*
X354570Y225677D01*
X354599Y225662D01*
X354620Y225644D01*
X354669Y225626D01*
X354730Y225595D01*
X356355Y225093D01*
X356425Y225086D01*
X356494Y225071D01*
X356526Y225076D01*
X356554Y225073D01*
X356604Y225088D01*
X356672Y225099D01*
X356759Y225130D01*
X357654Y224699D01*
X357688Y224690D01*
X357725Y224671D01*
X358674Y224378D01*
X358717Y224297D01*
X358762Y224242D01*
X358800Y224182D01*
X358826Y224163D01*
X358844Y224141D01*
X358889Y224117D01*
X358945Y224077D01*
X360477Y223339D01*
X360546Y223321D01*
X360612Y223296D01*
X360644Y223296D01*
X360672Y223289D01*
X360723Y223297D01*
X360792Y223297D01*
X360882Y223315D01*
X361703Y222755D01*
X361735Y222741D01*
X361769Y222717D01*
X362664Y222286D01*
X362695Y222199D01*
X362730Y222138D01*
X362759Y222074D01*
X362782Y222051D01*
X362797Y222027D01*
X362838Y221996D01*
X362888Y221947D01*
X364293Y220989D01*
X364357Y220962D01*
X364419Y220927D01*
X364451Y220922D01*
X364477Y220912D01*
X364529Y220911D01*
X364597Y220902D01*
X364689Y220905D01*
X365417Y220229D01*
X365447Y220211D01*
X365477Y220182D01*
X366298Y219622D01*
X366315Y219532D01*
X366341Y219466D01*
X366360Y219398D01*
X366380Y219372D01*
X366390Y219346D01*
X366427Y219310D01*
X366468Y219254D01*
X367715Y218098D01*
X367775Y218061D01*
X367830Y218017D01*
X367862Y218008D01*
X367886Y217993D01*
X367937Y217985D01*
X368003Y217966D01*
X368094Y217955D01*
X368714Y217178D01*
X368740Y217157D01*
X368755Y217135D01*
X368757Y217134D01*
X368766Y217123D01*
X369494Y216447D01*
X369497Y216355D01*
X369514Y216286D01*
X369522Y216216D01*
X369538Y216187D01*
X369544Y216160D01*
X369575Y216119D01*
X369608Y216058D01*
X370668Y214728D01*
X370722Y214683D01*
X370770Y214631D01*
X370800Y214617D01*
X370821Y214599D01*
X370871Y214584D01*
X370933Y214555D01*
X371022Y214531D01*
X371519Y213670D01*
X371542Y213644D01*
X371561Y213608D01*
X372181Y212831D01*
X372171Y212739D01*
X372177Y212669D01*
X372175Y212598D01*
X372186Y212568D01*
X372188Y212540D01*
X372212Y212494D01*
X372236Y212429D01*
X373086Y210956D01*
X373132Y210903D01*
X373172Y210845D01*
X373200Y210827D01*
X373218Y210806D01*
X373265Y210783D01*
X373322Y210745D01*
X373407Y210708D01*
X373770Y209783D01*
X373788Y209754D01*
X373803Y209715D01*
X374299Y208854D01*
X374275Y208766D01*
X374271Y208695D01*
X374258Y208626D01*
X374265Y208594D01*
X374263Y208566D01*
X374280Y208517D01*
X374293Y208449D01*
X374829Y207083D01*
X374834Y207076D01*
X374836Y207067D01*
X374888Y206992D01*
X374938Y206915D01*
X374945Y206910D01*
X374950Y206902D01*
X375028Y206853D01*
X375103Y206801D01*
X375112Y206800D01*
X375119Y206795D01*
X375210Y206780D01*
X375300Y206761D01*
X375308Y206763D01*
X375317Y206761D01*
X375406Y206782D01*
X375496Y206800D01*
X375504Y206805D01*
X375512Y206807D01*
X375660Y206910D01*
X376374Y207624D01*
X377056Y207906D01*
X378281Y208414D01*
X378698Y208587D01*
X381214Y208587D01*
X383538Y207624D01*
X385316Y205845D01*
X386279Y203522D01*
X386279Y201006D01*
X386049Y200452D01*
X386048Y200448D01*
X386046Y200445D01*
X386029Y200350D01*
X386011Y200255D01*
X386011Y200252D01*
X386011Y200248D01*
X386032Y200154D01*
X386051Y200059D01*
X386053Y200056D01*
X386054Y200052D01*
X386110Y199973D01*
X386165Y199894D01*
X386168Y199892D01*
X386170Y199889D01*
X386252Y199838D01*
X386333Y199785D01*
X386337Y199785D01*
X386341Y199783D01*
X386518Y199751D01*
X414051Y199751D01*
X413812Y196750D01*
X413816Y196721D01*
X413811Y196693D01*
X413828Y196624D01*
X413836Y196552D01*
X413851Y196528D01*
X413857Y196500D01*
X413900Y196442D01*
X413936Y196380D01*
X413958Y196363D01*
X413975Y196340D01*
X414037Y196303D01*
X414094Y196260D01*
X414122Y196253D01*
X414146Y196238D01*
X414246Y196222D01*
X414287Y196211D01*
X414297Y196213D01*
X414310Y196211D01*
X433310Y196211D01*
X433386Y196226D01*
X433464Y196235D01*
X433483Y196246D01*
X433505Y196250D01*
X433569Y196294D01*
X433637Y196333D01*
X433653Y196352D01*
X433669Y196363D01*
X433693Y196401D01*
X433743Y196461D01*
X443243Y212961D01*
X443252Y212988D01*
X443268Y213012D01*
X443283Y213082D01*
X443306Y213150D01*
X443303Y213178D01*
X443309Y213206D01*
X443296Y213277D01*
X443290Y213348D01*
X443277Y213373D01*
X443271Y213401D01*
X443231Y213461D01*
X443198Y213524D01*
X443176Y213542D01*
X443160Y213566D01*
X443077Y213624D01*
X443045Y213651D01*
X443034Y213654D01*
X443024Y213661D01*
X440323Y214939D01*
X458747Y246850D01*
X458762Y246897D01*
X458787Y246940D01*
X458794Y246991D01*
X458811Y247040D01*
X458807Y247090D01*
X458813Y247139D01*
X458800Y247189D01*
X458796Y247240D01*
X458774Y247284D01*
X458761Y247332D01*
X458726Y247378D01*
X458705Y247419D01*
X458678Y247442D01*
X458652Y247476D01*
X457901Y248173D01*
X457871Y248191D01*
X457841Y248220D01*
X457020Y248780D01*
X457003Y248870D01*
X456977Y248935D01*
X456958Y249004D01*
X456938Y249030D01*
X456928Y249056D01*
X456891Y249092D01*
X456850Y249148D01*
X455601Y250305D01*
X455541Y250342D01*
X455485Y250386D01*
X455454Y250395D01*
X455430Y250410D01*
X455379Y250418D01*
X455313Y250437D01*
X455221Y250448D01*
X454602Y251224D01*
X454575Y251247D01*
X454550Y251280D01*
X453821Y251956D01*
X453818Y252047D01*
X453801Y252116D01*
X453793Y252186D01*
X453778Y252215D01*
X453771Y252242D01*
X453740Y252284D01*
X453708Y252345D01*
X452645Y253676D01*
X452591Y253721D01*
X452543Y253772D01*
X452513Y253786D01*
X452492Y253804D01*
X452443Y253820D01*
X452380Y253849D01*
X452291Y253873D01*
X451794Y254733D01*
X451771Y254759D01*
X451751Y254796D01*
X451132Y255573D01*
X451142Y255664D01*
X451136Y255734D01*
X451138Y255805D01*
X451127Y255836D01*
X451125Y255864D01*
X451101Y255909D01*
X451077Y255974D01*
X450225Y257449D01*
X450179Y257502D01*
X450139Y257560D01*
X450111Y257578D01*
X450093Y257599D01*
X450046Y257621D01*
X449989Y257660D01*
X449904Y257697D01*
X449541Y258622D01*
X449522Y258651D01*
X449508Y258690D01*
X449011Y259550D01*
X449035Y259639D01*
X449039Y259709D01*
X449052Y259779D01*
X449046Y259811D01*
X449047Y259839D01*
X449030Y259888D01*
X449017Y259956D01*
X448394Y261540D01*
X448356Y261600D01*
X448325Y261663D01*
X448301Y261685D01*
X448286Y261709D01*
X448243Y261738D01*
X448192Y261785D01*
X448114Y261833D01*
X447893Y262802D01*
X447878Y262834D01*
X447870Y262874D01*
X447507Y263799D01*
X447544Y263884D01*
X447559Y263953D01*
X447582Y264020D01*
X447580Y264052D01*
X447586Y264080D01*
X447577Y264130D01*
X447573Y264199D01*
X447194Y265859D01*
X447165Y265924D01*
X447144Y265991D01*
X447123Y266017D01*
X447112Y266042D01*
X447074Y266077D01*
X447030Y266131D01*
X446960Y266191D01*
X446886Y267182D01*
X446876Y267215D01*
X446875Y267257D01*
X446653Y268225D01*
X446702Y268303D01*
X446727Y268369D01*
X446760Y268432D01*
X446763Y268464D01*
X446773Y268491D01*
X446771Y268542D01*
X446778Y268611D01*
X446650Y270309D01*
X446631Y270377D01*
X446620Y270447D01*
X446604Y270475D01*
X446596Y270502D01*
X446564Y270542D01*
X446529Y270602D01*
X446469Y270672D01*
X446543Y271663D01*
X446539Y271697D01*
X446543Y271738D01*
X446468Y272729D01*
X446528Y272799D01*
X446563Y272860D01*
X446604Y272917D01*
X446613Y272949D01*
X446626Y272974D01*
X446632Y273025D01*
X446650Y273092D01*
X446776Y274790D01*
X446773Y274813D01*
X446777Y274834D01*
X446767Y274878D01*
X446767Y274930D01*
X446755Y274961D01*
X446751Y274989D01*
X446737Y275013D01*
X446734Y275030D01*
X446719Y275051D01*
X446700Y275098D01*
X446651Y275175D01*
X446701Y275395D01*
X446702Y275456D01*
X446714Y275516D01*
X446705Y275555D01*
X446706Y275596D01*
X446684Y275652D01*
X446671Y275712D01*
X446648Y275745D01*
X446633Y275782D01*
X446591Y275826D01*
X446556Y275876D01*
X446522Y275897D01*
X446493Y275926D01*
X446438Y275950D01*
X446386Y275982D01*
X446346Y275989D01*
X446309Y276005D01*
X446248Y276005D01*
X446188Y276015D01*
X446145Y276006D01*
X446109Y276006D01*
X446067Y275989D01*
X446012Y275977D01*
X445583Y275799D01*
X445582Y275799D01*
X445492Y275761D01*
X442976Y275761D01*
X440652Y276724D01*
X438874Y278502D01*
X437911Y280826D01*
X437911Y283341D01*
X438874Y285665D01*
X440652Y287444D01*
X440895Y287545D01*
X440896Y287545D01*
X442120Y288052D01*
X442976Y288406D01*
X445492Y288406D01*
X447815Y287444D01*
X447946Y287313D01*
X447953Y287309D01*
X447957Y287302D01*
X448036Y287253D01*
X448113Y287202D01*
X448121Y287201D01*
X448128Y287196D01*
X448305Y287164D01*
X450621Y287164D01*
X450694Y287179D01*
X450767Y287186D01*
X450791Y287199D01*
X450818Y287204D01*
X450872Y287241D01*
X450884Y287245D01*
X450893Y287253D01*
X450944Y287280D01*
X450963Y287303D01*
X450984Y287317D01*
X451010Y287358D01*
X451034Y287379D01*
X451042Y287396D01*
X451060Y287418D01*
X451067Y287429D01*
X451078Y287462D01*
X451093Y287485D01*
X451098Y287514D01*
X451120Y287560D01*
X451122Y287592D01*
X451131Y287619D01*
X451127Y287670D01*
X451128Y287677D01*
X451128Y287682D01*
X451128Y287684D01*
X451132Y287740D01*
X451121Y287831D01*
X451741Y288608D01*
X451756Y288639D01*
X451783Y288671D01*
X452280Y289531D01*
X452369Y289555D01*
X452396Y289569D01*
X452419Y289574D01*
X452445Y289591D01*
X452498Y289610D01*
X452523Y289632D01*
X452548Y289644D01*
X452582Y289684D01*
X452634Y289729D01*
X453695Y291061D01*
X453727Y291123D01*
X453767Y291182D01*
X453774Y291214D01*
X453787Y291239D01*
X453791Y291290D01*
X453805Y291358D01*
X453809Y291450D01*
X454537Y292126D01*
X454557Y292154D01*
X454589Y292182D01*
X455208Y292959D01*
X455299Y292969D01*
X455366Y292991D01*
X455436Y293004D01*
X455463Y293022D01*
X455490Y293030D01*
X455529Y293064D01*
X455587Y293101D01*
X456835Y294260D01*
X456876Y294317D01*
X456924Y294369D01*
X456936Y294400D01*
X456952Y294422D01*
X456964Y294473D01*
X456988Y294537D01*
X457006Y294628D01*
X457826Y295188D01*
X457851Y295213D01*
X457886Y295235D01*
X458614Y295911D01*
X458706Y295908D01*
X458775Y295919D01*
X458846Y295922D01*
X458876Y295935D01*
X458903Y295940D01*
X458947Y295967D01*
X459010Y295996D01*
X460417Y296955D01*
X460466Y297006D01*
X460521Y297050D01*
X460537Y297079D01*
X460557Y297099D01*
X460576Y297147D01*
X460610Y297207D01*
X460640Y297294D01*
X461535Y297725D01*
X461563Y297746D01*
X461601Y297763D01*
X462422Y298323D01*
X462512Y298306D01*
X462583Y298307D01*
X462653Y298299D01*
X462684Y298308D01*
X462713Y298308D01*
X462760Y298329D01*
X462827Y298347D01*
X464360Y299087D01*
X464417Y299129D01*
X464478Y299165D01*
X464498Y299191D01*
X464520Y299208D01*
X464546Y299252D01*
X464589Y299307D01*
X464632Y299388D01*
X465581Y299681D01*
X465611Y299698D01*
X465652Y299709D01*
X466547Y300140D01*
X466634Y300110D01*
X466704Y300100D01*
X466772Y300082D01*
X466804Y300086D01*
X466832Y300083D01*
X466882Y300096D01*
X466951Y300104D01*
X468577Y300607D01*
X468639Y300640D01*
X468705Y300666D01*
X468729Y300689D01*
X468754Y300702D01*
X468786Y300743D01*
X468836Y300790D01*
X468891Y300864D01*
X469873Y301013D01*
X469906Y301025D01*
X469947Y301030D01*
X470896Y301323D01*
X470978Y301280D01*
X471045Y301260D01*
X471110Y301232D01*
X471143Y301231D01*
X471170Y301223D01*
X471221Y301229D01*
X471290Y301227D01*
X472974Y301481D01*
X473040Y301505D01*
X473109Y301521D01*
X473136Y301540D01*
X473162Y301550D01*
X473200Y301585D01*
X473257Y301624D01*
X473322Y301689D01*
X474316Y301689D01*
X474350Y301696D01*
X474391Y301695D01*
X475374Y301844D01*
X475448Y301789D01*
X475512Y301759D01*
X475572Y301722D01*
X475604Y301716D01*
X475629Y301704D01*
X475681Y301702D01*
X475749Y301690D01*
X477452Y301690D01*
X477521Y301704D01*
X477591Y301710D01*
X477621Y301725D01*
X477648Y301730D01*
X477691Y301759D01*
X477753Y301790D01*
X477827Y301844D01*
X478809Y301697D01*
X478844Y301698D01*
X478885Y301691D01*
X479879Y301691D01*
X479944Y301626D01*
X480003Y301587D01*
X480056Y301541D01*
X480087Y301531D01*
X480111Y301515D01*
X480161Y301506D01*
X480227Y301483D01*
X481911Y301230D01*
X481981Y301234D01*
X482052Y301229D01*
X482083Y301239D01*
X482111Y301240D01*
X482157Y301262D01*
X482223Y301283D01*
X482305Y301326D01*
X483254Y301034D01*
X483289Y301030D01*
X483328Y301017D01*
X484311Y300869D01*
X484365Y300795D01*
X484418Y300748D01*
X484464Y300695D01*
X484493Y300680D01*
X484514Y300661D01*
X484563Y300643D01*
X484624Y300612D01*
X486251Y300110D01*
X486321Y300103D01*
X486390Y300088D01*
X486423Y300093D01*
X486451Y300090D01*
X486500Y300106D01*
X486568Y300116D01*
X486655Y300147D01*
X487550Y299716D01*
X487563Y299713D01*
X487566Y299711D01*
X487581Y299708D01*
X487584Y299707D01*
X487621Y299688D01*
X488619Y299381D01*
X488668Y299376D01*
X488715Y299361D01*
X488767Y299366D01*
X488818Y299361D01*
X488866Y299375D01*
X488915Y299380D01*
X488960Y299404D01*
X489010Y299420D01*
X489048Y299451D01*
X489091Y299474D01*
X489129Y299519D01*
X489164Y299548D01*
X489180Y299580D01*
X489208Y299612D01*
X507630Y331522D01*
X510126Y329799D01*
X510153Y329788D01*
X510175Y329769D01*
X510244Y329749D01*
X510309Y329721D01*
X510338Y329721D01*
X510366Y329713D01*
X510437Y329721D01*
X510508Y329721D01*
X510535Y329732D01*
X510564Y329735D01*
X510626Y329770D01*
X510691Y329798D01*
X510712Y329818D01*
X510737Y329833D01*
X510800Y329910D01*
X510830Y329940D01*
X510834Y329950D01*
X510843Y329961D01*
X520343Y346461D01*
X520353Y346493D01*
X520362Y346506D01*
X520366Y346530D01*
X520367Y346534D01*
X520398Y346604D01*
X520398Y346628D01*
X520406Y346650D01*
X520400Y346726D01*
X520401Y346803D01*
X520391Y346827D01*
X520390Y346848D01*
X520369Y346887D01*
X520343Y346959D01*
X510843Y363459D01*
X510824Y363481D01*
X510811Y363507D01*
X510758Y363555D01*
X510711Y363608D01*
X510685Y363621D01*
X510664Y363640D01*
X510596Y363663D01*
X510532Y363694D01*
X510503Y363696D01*
X510476Y363705D01*
X510404Y363700D01*
X510333Y363703D01*
X510306Y363693D01*
X510277Y363691D01*
X510187Y363649D01*
X510147Y363634D01*
X510139Y363627D01*
X510126Y363621D01*
X507630Y361898D01*
X506936Y363100D01*
X506887Y363156D01*
X506845Y363216D01*
X506822Y363230D01*
X506804Y363251D01*
X506737Y363283D01*
X506674Y363322D01*
X506646Y363327D01*
X506623Y363338D01*
X506570Y363341D01*
X506497Y363354D01*
X479218Y363354D01*
X479213Y363353D01*
X479208Y363354D01*
X479115Y363333D01*
X479021Y363314D01*
X479017Y363311D01*
X479012Y363310D01*
X478934Y363255D01*
X478856Y363202D01*
X478853Y363197D01*
X478848Y363194D01*
X478798Y363113D01*
X478746Y363034D01*
X478745Y363028D01*
X478743Y363024D01*
X478711Y362847D01*
X478711Y347758D01*
X475758Y344805D01*
X466582Y344805D01*
X463629Y347758D01*
X463629Y349354D01*
X463629Y349358D01*
X463629Y349362D01*
X463609Y349456D01*
X463590Y349551D01*
X463587Y349554D01*
X463587Y349558D01*
X463531Y349637D01*
X463477Y349717D01*
X463474Y349719D01*
X463471Y349722D01*
X463389Y349773D01*
X463309Y349826D01*
X463305Y349826D01*
X463302Y349829D01*
X463206Y349844D01*
X463112Y349861D01*
X463108Y349860D01*
X463104Y349861D01*
X462928Y349823D01*
X461786Y349350D01*
X460998Y349023D01*
X458482Y349023D01*
X456158Y349986D01*
X454380Y351764D01*
X453417Y354088D01*
X453417Y356604D01*
X454380Y358928D01*
X456158Y360706D01*
X457099Y361096D01*
X458324Y361603D01*
X458482Y361669D01*
X460998Y361669D01*
X462928Y360869D01*
X462932Y360868D01*
X462935Y360866D01*
X463030Y360849D01*
X463125Y360831D01*
X463128Y360831D01*
X463132Y360831D01*
X463227Y360852D01*
X463321Y360871D01*
X463324Y360873D01*
X463328Y360874D01*
X463407Y360930D01*
X463486Y360985D01*
X463488Y360988D01*
X463492Y360990D01*
X463542Y361072D01*
X463595Y361153D01*
X463595Y361157D01*
X463597Y361160D01*
X463629Y361338D01*
X463629Y362847D01*
X463628Y362852D01*
X463629Y362857D01*
X463608Y362950D01*
X463590Y363043D01*
X463587Y363047D01*
X463586Y363053D01*
X463530Y363130D01*
X463477Y363209D01*
X463473Y363212D01*
X463470Y363216D01*
X463388Y363267D01*
X463309Y363318D01*
X463304Y363319D01*
X463299Y363322D01*
X463122Y363354D01*
X403606Y363354D01*
X403601Y363353D01*
X403596Y363354D01*
X403503Y363333D01*
X403409Y363314D01*
X403405Y363311D01*
X403400Y363310D01*
X403322Y363255D01*
X403244Y363202D01*
X403241Y363197D01*
X403237Y363194D01*
X403186Y363113D01*
X403134Y363034D01*
X403134Y363028D01*
X403131Y363024D01*
X403099Y362847D01*
X403099Y351788D01*
X403100Y351783D01*
X403099Y351778D01*
X403120Y351685D01*
X403138Y351591D01*
X403141Y351587D01*
X403142Y351582D01*
X403198Y351504D01*
X403251Y351426D01*
X403255Y351423D01*
X403258Y351419D01*
X403340Y351368D01*
X403419Y351316D01*
X403424Y351316D01*
X403429Y351313D01*
X403606Y351281D01*
X407332Y351281D01*
X408821Y349792D01*
X408821Y334688D01*
X407232Y333099D01*
X407229Y333094D01*
X407225Y333091D01*
X407173Y333011D01*
X407121Y332932D01*
X407120Y332927D01*
X407117Y332922D01*
X407101Y332828D01*
X407083Y332735D01*
X407084Y332730D01*
X407083Y332725D01*
X407105Y332632D01*
X407125Y332539D01*
X407128Y332534D01*
X407129Y332529D01*
X407232Y332381D01*
X408821Y330792D01*
X408821Y315688D01*
X407332Y314199D01*
X403606Y314199D01*
X403601Y314198D01*
X403596Y314199D01*
X403503Y314178D01*
X403409Y314160D01*
X403405Y314157D01*
X403400Y314156D01*
X403322Y314100D01*
X403244Y314047D01*
X403241Y314043D01*
X403237Y314040D01*
X403186Y313958D01*
X403134Y313879D01*
X403134Y313874D01*
X403131Y313869D01*
X403099Y313692D01*
X403099Y312458D01*
X403100Y312453D01*
X403099Y312448D01*
X403120Y312355D01*
X403138Y312261D01*
X403141Y312257D01*
X403142Y312252D01*
X403198Y312174D01*
X403251Y312096D01*
X403255Y312093D01*
X403258Y312089D01*
X403340Y312038D01*
X403419Y311986D01*
X403424Y311986D01*
X403429Y311983D01*
X403606Y311951D01*
X405332Y311951D01*
X406821Y310462D01*
X406821Y300228D01*
X406822Y300223D01*
X406821Y300218D01*
X406842Y300125D01*
X406860Y300031D01*
X406863Y300027D01*
X406864Y300022D01*
X406920Y299944D01*
X406973Y299866D01*
X406977Y299863D01*
X406980Y299859D01*
X407062Y299808D01*
X407141Y299756D01*
X407146Y299756D01*
X407151Y299753D01*
X407328Y299721D01*
X418172Y299721D01*
X418177Y299722D01*
X418182Y299721D01*
X418275Y299742D01*
X418369Y299760D01*
X418373Y299763D01*
X418378Y299764D01*
X418456Y299820D01*
X418534Y299873D01*
X418537Y299877D01*
X418541Y299880D01*
X418592Y299962D01*
X418644Y300041D01*
X418644Y300046D01*
X418647Y300051D01*
X418679Y300228D01*
X418679Y302352D01*
X420168Y303841D01*
X433272Y303841D01*
X434761Y302352D01*
X434761Y290248D01*
X433272Y288759D01*
X432359Y288759D01*
X432354Y288758D01*
X432349Y288759D01*
X432256Y288738D01*
X432162Y288720D01*
X432158Y288717D01*
X432153Y288716D01*
X432075Y288660D01*
X431997Y288607D01*
X431994Y288603D01*
X431990Y288600D01*
X431939Y288518D01*
X431887Y288439D01*
X431887Y288434D01*
X431884Y288429D01*
X431852Y288252D01*
X431852Y275181D01*
X431853Y275177D01*
X431852Y275173D01*
X431872Y275079D01*
X431891Y274984D01*
X431894Y274981D01*
X431894Y274977D01*
X431950Y274898D01*
X432004Y274819D01*
X432007Y274816D01*
X432010Y274813D01*
X432092Y274762D01*
X432172Y274709D01*
X432176Y274709D01*
X432179Y274707D01*
X432275Y274691D01*
X432369Y274674D01*
X432373Y274675D01*
X432377Y274674D01*
X432553Y274712D01*
X432918Y274863D01*
X434142Y275371D01*
X434143Y275371D01*
X434606Y275563D01*
X437122Y275563D01*
X439446Y274600D01*
X441224Y272822D01*
X442187Y270498D01*
X442187Y267982D01*
X441224Y265658D01*
X440183Y264618D01*
X440179Y264611D01*
X440173Y264607D01*
X440124Y264528D01*
X440072Y264451D01*
X440071Y264443D01*
X440067Y264436D01*
X440035Y264259D01*
X440035Y239097D01*
X440037Y239088D01*
X440035Y239079D01*
X440073Y238902D01*
X440769Y237224D01*
X440769Y234708D01*
X439806Y232384D01*
X438028Y230606D01*
X436918Y230146D01*
X435704Y229643D01*
X433188Y229643D01*
X430864Y230606D01*
X429086Y232384D01*
X428491Y233821D01*
X428489Y233825D01*
X428488Y233828D01*
X428432Y233908D01*
X428379Y233988D01*
X428376Y233990D01*
X428373Y233993D01*
X428292Y234045D01*
X428211Y234098D01*
X428208Y234098D01*
X428204Y234101D01*
X428109Y234117D01*
X428014Y234134D01*
X428010Y234133D01*
X428007Y234134D01*
X427913Y234112D01*
X427818Y234092D01*
X427815Y234089D01*
X427811Y234089D01*
X427663Y233986D01*
X420439Y226762D01*
X420435Y226755D01*
X420429Y226751D01*
X420380Y226672D01*
X420328Y226595D01*
X420327Y226587D01*
X420323Y226580D01*
X420291Y226403D01*
X420291Y218628D01*
X418802Y217139D01*
X406698Y217139D01*
X405209Y218628D01*
X405209Y220354D01*
X405208Y220359D01*
X405209Y220364D01*
X405188Y220457D01*
X405170Y220551D01*
X405167Y220555D01*
X405166Y220560D01*
X405110Y220638D01*
X405057Y220716D01*
X405053Y220719D01*
X405050Y220723D01*
X404968Y220774D01*
X404889Y220826D01*
X404884Y220826D01*
X404879Y220829D01*
X404702Y220861D01*
X395605Y220861D01*
X395600Y220860D01*
X395595Y220861D01*
X395502Y220840D01*
X395408Y220822D01*
X395404Y220819D01*
X395399Y220818D01*
X395321Y220762D01*
X395243Y220709D01*
X395240Y220705D01*
X395236Y220702D01*
X395185Y220620D01*
X395133Y220541D01*
X395133Y220536D01*
X395130Y220531D01*
X395098Y220354D01*
X395098Y217642D01*
X393609Y216153D01*
X387949Y216153D01*
X387836Y216266D01*
X387831Y216269D01*
X387828Y216273D01*
X387747Y216325D01*
X387669Y216377D01*
X387664Y216378D01*
X387659Y216381D01*
X387565Y216397D01*
X387472Y216415D01*
X387467Y216414D01*
X387462Y216415D01*
X387369Y216393D01*
X387276Y216373D01*
X387272Y216370D01*
X387266Y216369D01*
X387118Y216266D01*
X387005Y216153D01*
X381345Y216153D01*
X381232Y216266D01*
X381227Y216269D01*
X381224Y216273D01*
X381144Y216324D01*
X381065Y216377D01*
X381060Y216378D01*
X381055Y216381D01*
X380961Y216397D01*
X380868Y216415D01*
X380863Y216414D01*
X380857Y216415D01*
X380765Y216393D01*
X380672Y216373D01*
X380667Y216370D01*
X380662Y216369D01*
X380514Y216266D01*
X380401Y216153D01*
X374741Y216153D01*
X373252Y217642D01*
X373252Y221267D01*
X373251Y221275D01*
X373252Y221283D01*
X373231Y221373D01*
X373213Y221464D01*
X373208Y221470D01*
X373206Y221478D01*
X373104Y221626D01*
X371834Y222896D01*
X363630Y231099D01*
X363626Y231102D01*
X363623Y231107D01*
X363542Y231158D01*
X363463Y231210D01*
X363458Y231211D01*
X363453Y231214D01*
X363360Y231230D01*
X363266Y231248D01*
X363261Y231247D01*
X363256Y231248D01*
X363163Y231226D01*
X363070Y231206D01*
X363066Y231203D01*
X363061Y231202D01*
X362913Y231099D01*
X361762Y229949D01*
X348658Y229949D01*
X347069Y231538D01*
X347064Y231541D01*
X347061Y231545D01*
X346981Y231597D01*
X346902Y231649D01*
X346897Y231650D01*
X346892Y231653D01*
X346798Y231669D01*
X346705Y231687D01*
X346700Y231686D01*
X346695Y231687D01*
X346602Y231665D01*
X346509Y231645D01*
X346504Y231642D01*
X346499Y231641D01*
X346351Y231538D01*
X344762Y229949D01*
X333148Y229949D01*
X333140Y229948D01*
X333132Y229949D01*
X333042Y229928D01*
X332951Y229910D01*
X332945Y229905D01*
X332937Y229903D01*
X332789Y229801D01*
X332042Y229054D01*
X331006Y228624D01*
X331005Y228624D01*
X329781Y228117D01*
X329719Y228091D01*
X327203Y228091D01*
X324879Y229054D01*
X323450Y230483D01*
X323444Y230487D01*
X323439Y230493D01*
X323361Y230542D01*
X323283Y230594D01*
X323276Y230595D01*
X323269Y230599D01*
X323092Y230631D01*
X314325Y230631D01*
X314320Y230630D01*
X314315Y230631D01*
X314222Y230610D01*
X314128Y230592D01*
X314124Y230589D01*
X314119Y230588D01*
X314041Y230532D01*
X313963Y230479D01*
X313960Y230475D01*
X313956Y230472D01*
X313905Y230390D01*
X313853Y230311D01*
X313853Y230306D01*
X313850Y230301D01*
X313818Y230124D01*
X313818Y215000D01*
X307859Y209041D01*
X289431Y209041D01*
X281482Y216991D01*
X281475Y216995D01*
X281471Y217001D01*
X281392Y217050D01*
X281315Y217102D01*
X281307Y217103D01*
X281300Y217107D01*
X281123Y217139D01*
X273348Y217139D01*
X271859Y218628D01*
X271859Y226403D01*
X271858Y226411D01*
X271859Y226418D01*
X271838Y226508D01*
X271820Y226600D01*
X271815Y226606D01*
X271813Y226614D01*
X271711Y226762D01*
X270598Y227875D01*
X270591Y227879D01*
X270587Y227886D01*
X270508Y227934D01*
X270431Y227986D01*
X270423Y227987D01*
X270416Y227991D01*
X270239Y228023D01*
X267718Y228023D01*
X265395Y228986D01*
X263616Y230765D01*
X262653Y233088D01*
X262653Y235604D01*
X263616Y237928D01*
X265395Y239706D01*
X265773Y239863D01*
X266998Y240370D01*
X267718Y240669D01*
X270234Y240669D01*
X271158Y240286D01*
X271162Y240285D01*
X271165Y240283D01*
X271260Y240266D01*
X271355Y240247D01*
X271358Y240248D01*
X271362Y240248D01*
X271457Y240269D01*
X271551Y240288D01*
X271554Y240290D01*
X271558Y240291D01*
X271637Y240347D01*
X271716Y240402D01*
X271718Y240405D01*
X271721Y240407D01*
X271772Y240489D01*
X271825Y240570D01*
X271825Y240574D01*
X271827Y240577D01*
X271859Y240755D01*
X271859Y250834D01*
X271858Y250839D01*
X271859Y250844D01*
X271838Y250937D01*
X271820Y251031D01*
X271817Y251035D01*
X271816Y251040D01*
X271760Y251118D01*
X271707Y251196D01*
X271703Y251199D01*
X271700Y251203D01*
X271618Y251254D01*
X271539Y251306D01*
X271534Y251306D01*
X271529Y251309D01*
X271352Y251341D01*
X256241Y251341D01*
X248411Y259171D01*
X248411Y269759D01*
X258423Y279770D01*
X258427Y279777D01*
X258433Y279781D01*
X258482Y279860D01*
X258534Y279937D01*
X258535Y279945D01*
X258539Y279952D01*
X258571Y280129D01*
X258571Y295159D01*
X260229Y296816D01*
X260233Y296823D01*
X260239Y296827D01*
X260288Y296906D01*
X260340Y296983D01*
X260341Y296991D01*
X260345Y296998D01*
X260377Y297175D01*
X260377Y298438D01*
X261340Y300762D01*
X261782Y301203D01*
X261783Y301206D01*
X261785Y301207D01*
X261838Y301288D01*
X261893Y301370D01*
X261893Y301373D01*
X261895Y301375D01*
X261912Y301471D01*
X261930Y301567D01*
X261930Y301570D01*
X261930Y301572D01*
X261909Y301667D01*
X261889Y301763D01*
X261887Y301765D01*
X261887Y301768D01*
X261831Y301846D01*
X261774Y301928D01*
X261772Y301929D01*
X261771Y301931D01*
X261687Y301983D01*
X261605Y302035D01*
X261603Y302036D01*
X261600Y302037D01*
X261423Y302069D01*
X258988Y302069D01*
X257499Y303558D01*
X257499Y311007D01*
X257499Y311010D01*
X257499Y311012D01*
X257479Y311107D01*
X257460Y311204D01*
X257458Y311206D01*
X257458Y311208D01*
X257402Y311289D01*
X257347Y311369D01*
X257345Y311371D01*
X257343Y311373D01*
X257260Y311426D01*
X257179Y311479D01*
X257176Y311479D01*
X257174Y311481D01*
X257078Y311497D01*
X256982Y311514D01*
X256979Y311514D01*
X256977Y311514D01*
X256882Y311492D01*
X256786Y311471D01*
X256784Y311469D01*
X256781Y311469D01*
X256633Y311366D01*
X255729Y310462D01*
X255725Y310455D01*
X255719Y310451D01*
X255670Y310372D01*
X255618Y310295D01*
X255617Y310287D01*
X255613Y310280D01*
X255581Y310103D01*
X255581Y303558D01*
X254092Y302069D01*
X243988Y302069D01*
X242499Y303558D01*
X242499Y313662D01*
X243988Y315151D01*
X247993Y315151D01*
X248001Y315152D01*
X248008Y315151D01*
X248098Y315172D01*
X248190Y315190D01*
X248196Y315195D01*
X248204Y315197D01*
X248352Y315299D01*
X259071Y326019D01*
X265772Y326019D01*
X265777Y326020D01*
X265782Y326019D01*
X265875Y326040D01*
X265969Y326058D01*
X265973Y326061D01*
X265978Y326062D01*
X266056Y326118D01*
X266134Y326171D01*
X266137Y326175D01*
X266141Y326178D01*
X266192Y326260D01*
X266244Y326339D01*
X266244Y326344D01*
X266247Y326349D01*
X266279Y326526D01*
X266279Y327752D01*
X267768Y329241D01*
X280872Y329241D01*
X282361Y327752D01*
X282361Y315648D01*
X280872Y314159D01*
X278880Y314159D01*
X278876Y314158D01*
X278873Y314159D01*
X278779Y314139D01*
X278684Y314120D01*
X278680Y314117D01*
X278677Y314117D01*
X278598Y314061D01*
X278518Y314007D01*
X278516Y314004D01*
X278513Y314001D01*
X278461Y313919D01*
X278409Y313839D01*
X278408Y313835D01*
X278406Y313832D01*
X278390Y313736D01*
X278373Y313642D01*
X278374Y313638D01*
X278373Y313634D01*
X278412Y313458D01*
X279373Y311138D01*
X279373Y308622D01*
X278410Y306298D01*
X276632Y304520D01*
X275871Y304205D01*
X275870Y304205D01*
X274646Y303697D01*
X274308Y303557D01*
X271792Y303557D01*
X271249Y303783D01*
X271242Y303784D01*
X271237Y303787D01*
X271144Y303803D01*
X271052Y303821D01*
X271045Y303820D01*
X271039Y303821D01*
X270948Y303800D01*
X270856Y303781D01*
X270850Y303777D01*
X270844Y303775D01*
X270696Y303673D01*
X270281Y303258D01*
X270278Y303254D01*
X270274Y303251D01*
X270223Y303170D01*
X270170Y303091D01*
X270169Y303086D01*
X270166Y303081D01*
X270150Y302988D01*
X270133Y302894D01*
X270134Y302889D01*
X270133Y302884D01*
X270154Y302791D01*
X270174Y302698D01*
X270177Y302694D01*
X270178Y302689D01*
X270281Y302541D01*
X272060Y300762D01*
X273023Y298438D01*
X273023Y295922D01*
X272060Y293598D01*
X270282Y291820D01*
X269566Y291523D01*
X268341Y291016D01*
X267958Y290857D01*
X267716Y290857D01*
X267711Y290856D01*
X267706Y290857D01*
X267613Y290836D01*
X267519Y290818D01*
X267515Y290815D01*
X267510Y290814D01*
X267432Y290758D01*
X267354Y290705D01*
X267351Y290701D01*
X267347Y290698D01*
X267296Y290616D01*
X267244Y290537D01*
X267244Y290532D01*
X267241Y290527D01*
X267209Y290350D01*
X267209Y284701D01*
X267209Y284698D01*
X267209Y284696D01*
X267229Y284601D01*
X267248Y284504D01*
X267250Y284502D01*
X267250Y284500D01*
X267306Y284419D01*
X267361Y284339D01*
X267363Y284337D01*
X267365Y284335D01*
X267448Y284282D01*
X267529Y284229D01*
X267532Y284229D01*
X267534Y284227D01*
X267630Y284211D01*
X267726Y284194D01*
X267729Y284194D01*
X267731Y284194D01*
X267825Y284216D01*
X267922Y284237D01*
X267924Y284239D01*
X267927Y284239D01*
X268075Y284342D01*
X283961Y300229D01*
X286092Y300229D01*
X286097Y300230D01*
X286102Y300229D01*
X286195Y300250D01*
X286289Y300268D01*
X286293Y300271D01*
X286298Y300272D01*
X286376Y300328D01*
X286454Y300381D01*
X286457Y300385D01*
X286461Y300388D01*
X286512Y300470D01*
X286564Y300549D01*
X286564Y300554D01*
X286567Y300559D01*
X286599Y300736D01*
X286599Y310462D01*
X288088Y311951D01*
X289814Y311951D01*
X289819Y311952D01*
X289824Y311951D01*
X289917Y311972D01*
X290011Y311990D01*
X290015Y311993D01*
X290020Y311994D01*
X290098Y312050D01*
X290176Y312103D01*
X290179Y312107D01*
X290183Y312110D01*
X290234Y312192D01*
X290286Y312271D01*
X290286Y312276D01*
X290289Y312281D01*
X290321Y312458D01*
X290321Y313692D01*
X290320Y313697D01*
X290321Y313702D01*
X290300Y313795D01*
X290282Y313889D01*
X290279Y313893D01*
X290278Y313898D01*
X290222Y313976D01*
X290169Y314054D01*
X290165Y314057D01*
X290162Y314061D01*
X290080Y314112D01*
X290001Y314164D01*
X289996Y314164D01*
X289991Y314167D01*
X289814Y314199D01*
X286088Y314199D01*
X284599Y315688D01*
X284599Y330792D01*
X286188Y332381D01*
X286191Y332386D01*
X286195Y332389D01*
X286247Y332469D01*
X286299Y332548D01*
X286300Y332553D01*
X286303Y332558D01*
X286319Y332652D01*
X286337Y332745D01*
X286336Y332750D01*
X286337Y332756D01*
X286315Y332848D01*
X286295Y332941D01*
X286292Y332946D01*
X286291Y332951D01*
X286188Y333099D01*
X284599Y334688D01*
X284599Y349792D01*
X286088Y351281D01*
X289814Y351281D01*
X289819Y351282D01*
X289824Y351281D01*
X289917Y351302D01*
X290011Y351320D01*
X290015Y351323D01*
X290020Y351324D01*
X290098Y351380D01*
X290176Y351433D01*
X290179Y351437D01*
X290183Y351440D01*
X290234Y351522D01*
X290286Y351601D01*
X290286Y351606D01*
X290289Y351611D01*
X290321Y351788D01*
X290321Y362847D01*
X290320Y362852D01*
X290321Y362857D01*
X290300Y362950D01*
X290282Y363043D01*
X290279Y363047D01*
X290278Y363053D01*
X290222Y363130D01*
X290169Y363209D01*
X290165Y363212D01*
X290162Y363216D01*
X290080Y363267D01*
X290001Y363318D01*
X289996Y363319D01*
X289991Y363322D01*
X289814Y363354D01*
X233384Y363354D01*
X233378Y363353D01*
X233371Y363354D01*
X233280Y363333D01*
X233188Y363314D01*
X233182Y363311D01*
X233176Y363309D01*
X233099Y363254D01*
X233022Y363202D01*
X233018Y363196D01*
X233013Y363192D01*
X232915Y363041D01*
X232690Y362497D01*
X230912Y360718D01*
X230407Y360509D01*
X229183Y360002D01*
X228582Y359753D01*
X228577Y359750D01*
X228570Y359748D01*
X228493Y359694D01*
X228416Y359642D01*
X228412Y359636D01*
X228407Y359632D01*
X228357Y359553D01*
X228306Y359474D01*
X228305Y359468D01*
X228301Y359462D01*
X228269Y359285D01*
X228269Y357135D01*
X225316Y354182D01*
X210141Y354182D01*
X207188Y357135D01*
X207188Y362847D01*
X207187Y362852D01*
X207188Y362857D01*
X207167Y362950D01*
X207148Y363043D01*
X207145Y363047D01*
X207144Y363053D01*
X207089Y363130D01*
X207035Y363209D01*
X207031Y363212D01*
X207028Y363216D01*
X206947Y363267D01*
X206867Y363318D01*
X206862Y363319D01*
X206858Y363322D01*
X206680Y363354D01*
X186923Y363354D01*
X186850Y363339D01*
X186777Y363332D01*
X186753Y363320D01*
X186727Y363314D01*
X186665Y363273D01*
X186600Y363238D01*
X186581Y363216D01*
X186561Y363202D01*
X186532Y363157D01*
X186484Y363100D01*
X185790Y361898D01*
X183294Y363621D01*
X183267Y363632D01*
X183245Y363651D01*
X183176Y363671D01*
X183111Y363699D01*
X183082Y363699D01*
X183054Y363707D01*
X182983Y363699D01*
X182912Y363700D01*
X182885Y363688D01*
X182856Y363685D01*
X182794Y363650D01*
X182729Y363622D01*
X182708Y363602D01*
X182683Y363587D01*
X182620Y363510D01*
X182590Y363480D01*
X182586Y363470D01*
X182577Y363459D01*
X173077Y346959D01*
X173053Y346886D01*
X173022Y346816D01*
X173022Y346792D01*
X173014Y346770D01*
X173021Y346694D01*
X173020Y346617D01*
X173029Y346593D01*
X173030Y346572D01*
X173051Y346533D01*
X173070Y346481D01*
X173071Y346475D01*
X173073Y346473D01*
X173077Y346461D01*
X182577Y329961D01*
X182596Y329939D01*
X182609Y329913D01*
X182662Y329865D01*
X182709Y329812D01*
X182735Y329799D01*
X182757Y329780D01*
X182824Y329757D01*
X182888Y329726D01*
X182917Y329725D01*
X182944Y329715D01*
X183016Y329720D01*
X183087Y329717D01*
X183114Y329727D01*
X183143Y329729D01*
X183233Y329771D01*
X183273Y329786D01*
X183281Y329793D01*
X183294Y329799D01*
X185790Y331522D01*
X204212Y299612D01*
X204245Y299575D01*
X204269Y299532D01*
X204310Y299501D01*
X204345Y299462D01*
X204389Y299440D01*
X204428Y299410D01*
X204478Y299397D01*
X204525Y299374D01*
X204574Y299372D01*
X204622Y299359D01*
X204680Y299366D01*
X204725Y299364D01*
X204759Y299376D01*
X204801Y299381D01*
X205799Y299688D01*
X205830Y299705D01*
X205870Y299716D01*
X206765Y300147D01*
X206852Y300116D01*
X206922Y300107D01*
X206990Y300089D01*
X207022Y300093D01*
X207050Y300089D01*
X207100Y300102D01*
X207169Y300110D01*
X208796Y300612D01*
X208858Y300645D01*
X208924Y300672D01*
X208947Y300694D01*
X208972Y300707D01*
X209004Y300748D01*
X209055Y300795D01*
X209109Y300869D01*
X210092Y301017D01*
X210125Y301029D01*
X210166Y301034D01*
X211115Y301326D01*
X211197Y301283D01*
X211264Y301263D01*
X211329Y301235D01*
X211362Y301234D01*
X211389Y301226D01*
X211440Y301232D01*
X211509Y301230D01*
X213193Y301483D01*
X213259Y301507D01*
X213328Y301523D01*
X213355Y301542D01*
X213381Y301552D01*
X213419Y301587D01*
X213476Y301626D01*
X213541Y301691D01*
X214535Y301691D01*
X214569Y301698D01*
X214611Y301697D01*
X215593Y301844D01*
X215667Y301790D01*
X215731Y301760D01*
X215791Y301723D01*
X215823Y301717D01*
X215849Y301705D01*
X215900Y301703D01*
X215968Y301690D01*
X217671Y301690D01*
X217740Y301704D01*
X217810Y301709D01*
X217840Y301724D01*
X217867Y301729D01*
X217910Y301758D01*
X217972Y301789D01*
X218046Y301844D01*
X219029Y301695D01*
X219064Y301697D01*
X219104Y301689D01*
X220098Y301689D01*
X220163Y301624D01*
X220222Y301585D01*
X220275Y301539D01*
X220307Y301529D01*
X220330Y301513D01*
X220381Y301503D01*
X220446Y301481D01*
X222130Y301227D01*
X222200Y301230D01*
X222271Y301225D01*
X222302Y301235D01*
X222330Y301237D01*
X222376Y301259D01*
X222442Y301280D01*
X222524Y301323D01*
X223473Y301030D01*
X223508Y301026D01*
X223547Y301013D01*
X224529Y300864D01*
X224584Y300790D01*
X224636Y300743D01*
X224683Y300689D01*
X224712Y300674D01*
X224732Y300656D01*
X224781Y300638D01*
X224843Y300607D01*
X226469Y300104D01*
X226540Y300097D01*
X226609Y300082D01*
X226641Y300087D01*
X226669Y300084D01*
X226718Y300099D01*
X226786Y300110D01*
X226873Y300140D01*
X227768Y299709D01*
X227802Y299700D01*
X227839Y299681D01*
X228788Y299388D01*
X228831Y299307D01*
X228876Y299252D01*
X228914Y299192D01*
X228940Y299173D01*
X228958Y299151D01*
X229004Y299127D01*
X229060Y299087D01*
X230593Y298347D01*
X230662Y298330D01*
X230728Y298304D01*
X230760Y298305D01*
X230788Y298298D01*
X230839Y298305D01*
X230908Y298306D01*
X230998Y298323D01*
X231819Y297763D01*
X231851Y297750D01*
X231885Y297725D01*
X232780Y297294D01*
X232810Y297207D01*
X232846Y297146D01*
X232875Y297082D01*
X232898Y297058D01*
X232912Y297034D01*
X232954Y297004D01*
X233003Y296955D01*
X234410Y295996D01*
X234475Y295968D01*
X234536Y295933D01*
X234568Y295928D01*
X234594Y295918D01*
X234646Y295917D01*
X234714Y295908D01*
X234806Y295911D01*
X235534Y295235D01*
X235564Y295217D01*
X235594Y295188D01*
X236414Y294628D01*
X236432Y294537D01*
X236458Y294472D01*
X236477Y294404D01*
X236496Y294378D01*
X236507Y294352D01*
X236543Y294315D01*
X236585Y294260D01*
X237833Y293101D01*
X237893Y293064D01*
X237948Y293021D01*
X237980Y293011D01*
X238004Y292997D01*
X238055Y292989D01*
X238121Y292969D01*
X238212Y292959D01*
X238831Y292182D01*
X238858Y292159D01*
X238883Y292126D01*
X239611Y291450D01*
X239615Y291358D01*
X239631Y291289D01*
X239639Y291219D01*
X239655Y291190D01*
X239661Y291163D01*
X239692Y291121D01*
X239725Y291061D01*
X240786Y289729D01*
X240840Y289684D01*
X240846Y289677D01*
X240850Y289672D01*
X240853Y289670D01*
X240888Y289632D01*
X240918Y289618D01*
X240939Y289600D01*
X240989Y289585D01*
X240994Y289582D01*
X241020Y289566D01*
X241034Y289564D01*
X241051Y289555D01*
X241140Y289531D01*
X241637Y288671D01*
X241660Y288645D01*
X241679Y288608D01*
X242299Y287831D01*
X242288Y287740D01*
X242294Y287669D01*
X242292Y287599D01*
X242303Y287568D01*
X242306Y287540D01*
X242330Y287494D01*
X242353Y287429D01*
X242697Y286832D01*
X242745Y286779D01*
X242785Y286720D01*
X242810Y286704D01*
X242830Y286682D01*
X242894Y286651D01*
X242955Y286612D01*
X242984Y286607D01*
X243010Y286595D01*
X243082Y286591D01*
X243152Y286579D01*
X243181Y286585D01*
X243210Y286584D01*
X243278Y286608D01*
X243347Y286624D01*
X243374Y286642D01*
X243399Y286652D01*
X243437Y286687D01*
X243495Y286727D01*
X245338Y288570D01*
X246536Y289066D01*
X247662Y289533D01*
X250178Y289533D01*
X252502Y288570D01*
X254280Y286792D01*
X255243Y284468D01*
X255243Y281952D01*
X254280Y279628D01*
X252502Y277850D01*
X252448Y277828D01*
X251223Y277320D01*
X250178Y276887D01*
X248915Y276887D01*
X248907Y276886D01*
X248900Y276887D01*
X248810Y276866D01*
X248718Y276848D01*
X248712Y276843D01*
X248704Y276841D01*
X248556Y276739D01*
X246806Y274988D01*
X246791Y274966D01*
X246770Y274949D01*
X246736Y274883D01*
X246695Y274821D01*
X246690Y274795D01*
X246677Y274771D01*
X246668Y274680D01*
X246657Y274624D01*
X246660Y274609D01*
X246659Y274592D01*
X246770Y273092D01*
X246789Y273024D01*
X246800Y272954D01*
X246817Y272926D01*
X246825Y272899D01*
X246857Y272859D01*
X246892Y272799D01*
X246952Y272729D01*
X246877Y271738D01*
X246881Y271704D01*
X246877Y271663D01*
X246951Y270672D01*
X246891Y270602D01*
X246856Y270540D01*
X246815Y270483D01*
X246807Y270452D01*
X246804Y270447D01*
X246803Y270445D01*
X246793Y270427D01*
X246787Y270376D01*
X246770Y270309D01*
X246642Y268611D01*
X246650Y268541D01*
X246651Y268470D01*
X246663Y268440D01*
X246666Y268412D01*
X246692Y268368D01*
X246718Y268303D01*
X246767Y268225D01*
X246545Y267257D01*
X246545Y267222D01*
X246534Y267182D01*
X246460Y266191D01*
X246390Y266131D01*
X246346Y266075D01*
X246297Y266025D01*
X246284Y265995D01*
X246267Y265973D01*
X246253Y265923D01*
X246226Y265859D01*
X245847Y264199D01*
X245845Y264129D01*
X245835Y264059D01*
X245842Y264027D01*
X245841Y263999D01*
X245860Y263951D01*
X245876Y263884D01*
X245913Y263799D01*
X245550Y262874D01*
X245544Y262840D01*
X245541Y262837D01*
X245541Y262833D01*
X245527Y262802D01*
X245306Y261833D01*
X245228Y261785D01*
X245177Y261736D01*
X245120Y261694D01*
X245103Y261666D01*
X245083Y261647D01*
X245062Y261599D01*
X245026Y261540D01*
X244403Y259956D01*
X244391Y259886D01*
X244370Y259819D01*
X244373Y259786D01*
X244368Y259758D01*
X244379Y259708D01*
X244385Y259639D01*
X244409Y259550D01*
X243912Y258690D01*
X243901Y258657D01*
X243879Y258622D01*
X243516Y257697D01*
X243431Y257660D01*
X243373Y257620D01*
X243311Y257586D01*
X243290Y257561D01*
X243267Y257545D01*
X243239Y257502D01*
X243195Y257449D01*
X242343Y255974D01*
X242320Y255908D01*
X242290Y255844D01*
X242288Y255811D01*
X242279Y255785D01*
X242283Y255733D01*
X242278Y255664D01*
X242288Y255573D01*
X241669Y254796D01*
X241653Y254765D01*
X241626Y254733D01*
X241129Y253873D01*
X241040Y253849D01*
X240977Y253818D01*
X240910Y253794D01*
X240885Y253773D01*
X240860Y253760D01*
X240827Y253721D01*
X240775Y253676D01*
X239712Y252345D01*
X239680Y252282D01*
X239641Y252223D01*
X239634Y252191D01*
X239621Y252166D01*
X239617Y252115D01*
X239602Y252047D01*
X239599Y251956D01*
X238870Y251280D01*
X238850Y251252D01*
X238818Y251224D01*
X238199Y250448D01*
X238107Y250437D01*
X238040Y250416D01*
X237971Y250402D01*
X237943Y250385D01*
X237916Y250376D01*
X237877Y250343D01*
X237819Y250305D01*
X236570Y249148D01*
X236529Y249090D01*
X236481Y249038D01*
X236470Y249008D01*
X236453Y248985D01*
X236442Y248935D01*
X236417Y248870D01*
X236400Y248780D01*
X235579Y248220D01*
X235555Y248196D01*
X235519Y248173D01*
X234768Y247476D01*
X234739Y247436D01*
X234702Y247403D01*
X234681Y247355D01*
X234651Y247313D01*
X234639Y247265D01*
X234619Y247220D01*
X234617Y247169D01*
X234606Y247118D01*
X234614Y247069D01*
X234612Y247020D01*
X234632Y246966D01*
X234640Y246921D01*
X234659Y246891D01*
X234673Y246850D01*
X253097Y214939D01*
X250397Y213661D01*
X250374Y213644D01*
X250347Y213634D01*
X250295Y213585D01*
X250237Y213542D01*
X250223Y213517D01*
X250202Y213498D01*
X250173Y213432D01*
X250137Y213370D01*
X250134Y213342D01*
X250122Y213316D01*
X250121Y213244D01*
X250112Y213173D01*
X250120Y213146D01*
X250120Y213117D01*
X250155Y213022D01*
X250166Y212982D01*
X250173Y212973D01*
X250177Y212961D01*
X259677Y196461D01*
X259729Y196403D01*
X259775Y196340D01*
X259794Y196329D01*
X259809Y196312D01*
X259879Y196278D01*
X259946Y196238D01*
X259971Y196234D01*
X259988Y196226D01*
X260033Y196224D01*
X260110Y196211D01*
X279110Y196211D01*
X279138Y196216D01*
G37*
G36*
X463138Y247821D02*
X463138Y247821D01*
X463211Y247821D01*
X463236Y247832D01*
X463263Y247835D01*
X463327Y247871D01*
X463394Y247899D01*
X463413Y247919D01*
X463436Y247932D01*
X463504Y248013D01*
X463532Y248043D01*
X463535Y248052D01*
X463542Y248061D01*
X490542Y294861D01*
X490551Y294886D01*
X490567Y294909D01*
X490582Y294980D01*
X490606Y295049D01*
X490603Y295076D01*
X490609Y295103D01*
X490596Y295174D01*
X490590Y295247D01*
X490577Y295272D01*
X490572Y295298D01*
X490532Y295359D01*
X490498Y295424D01*
X490477Y295441D01*
X490462Y295464D01*
X490376Y295525D01*
X490345Y295550D01*
X490336Y295553D01*
X490326Y295560D01*
X486688Y297311D01*
X486657Y297318D01*
X486619Y297338D01*
X482760Y298527D01*
X482728Y298530D01*
X482687Y298543D01*
X478694Y299144D01*
X478663Y299142D01*
X478620Y299149D01*
X474582Y299148D01*
X474551Y299142D01*
X474508Y299142D01*
X470516Y298539D01*
X470486Y298528D01*
X470443Y298523D01*
X466585Y297331D01*
X466557Y297316D01*
X466516Y297304D01*
X462878Y295551D01*
X462853Y295532D01*
X462814Y295514D01*
X459478Y293238D01*
X459456Y293215D01*
X459420Y293192D01*
X456461Y290444D01*
X456442Y290419D01*
X456410Y290390D01*
X453894Y287232D01*
X453879Y287204D01*
X453852Y287170D01*
X451834Y283673D01*
X451824Y283643D01*
X451802Y283606D01*
X450328Y279847D01*
X450322Y279815D01*
X450306Y279775D01*
X449409Y275839D01*
X449408Y275807D01*
X449398Y275765D01*
X449097Y271739D01*
X449101Y271707D01*
X449097Y271664D01*
X449400Y267638D01*
X449409Y267607D01*
X449411Y267564D01*
X450311Y263628D01*
X450324Y263599D01*
X450333Y263556D01*
X451809Y259798D01*
X451827Y259771D01*
X451842Y259731D01*
X453862Y256235D01*
X453883Y256211D01*
X453904Y256173D01*
X456422Y253017D01*
X456447Y252997D01*
X456473Y252963D01*
X459434Y250217D01*
X459461Y250201D01*
X459492Y250171D01*
X462829Y247897D01*
X462854Y247887D01*
X462875Y247870D01*
X462945Y247849D01*
X463012Y247820D01*
X463040Y247821D01*
X463066Y247813D01*
X463138Y247821D01*
G37*
G36*
X230314Y247820D02*
X230314Y247820D01*
X230387Y247817D01*
X230413Y247826D01*
X230440Y247828D01*
X230536Y247872D01*
X230574Y247886D01*
X230581Y247893D01*
X230591Y247897D01*
X233928Y250171D01*
X233950Y250194D01*
X233986Y250217D01*
X236947Y252963D01*
X236966Y252989D01*
X236998Y253017D01*
X239516Y256173D01*
X239531Y256202D01*
X239558Y256235D01*
X241578Y259731D01*
X241588Y259761D01*
X241611Y259798D01*
X243087Y263556D01*
X243092Y263588D01*
X243109Y263628D01*
X244009Y267564D01*
X244009Y267596D01*
X244020Y267638D01*
X244323Y271664D01*
X244319Y271695D01*
X244323Y271739D01*
X244022Y275765D01*
X244014Y275796D01*
X244011Y275839D01*
X243114Y279775D01*
X243101Y279804D01*
X243092Y279847D01*
X241618Y283606D01*
X241601Y283633D01*
X241586Y283673D01*
X239568Y287170D01*
X239547Y287194D01*
X239526Y287232D01*
X237010Y290390D01*
X236985Y290410D01*
X236959Y290444D01*
X234000Y293192D01*
X233973Y293208D01*
X233942Y293238D01*
X230606Y295514D01*
X230577Y295526D01*
X230542Y295551D01*
X226905Y297304D01*
X226874Y297312D01*
X226835Y297331D01*
X222977Y298523D01*
X222945Y298526D01*
X222904Y298539D01*
X218912Y299142D01*
X218880Y299141D01*
X218838Y299148D01*
X214800Y299149D01*
X214769Y299143D01*
X214726Y299144D01*
X210733Y298543D01*
X210703Y298532D01*
X210660Y298527D01*
X206801Y297338D01*
X206773Y297323D01*
X206732Y297311D01*
X203094Y295560D01*
X203072Y295543D01*
X203046Y295534D01*
X202993Y295484D01*
X202935Y295440D01*
X202922Y295416D01*
X202902Y295397D01*
X202872Y295331D01*
X202836Y295267D01*
X202833Y295240D01*
X202822Y295215D01*
X202821Y295142D01*
X202812Y295070D01*
X202820Y295044D01*
X202820Y295016D01*
X202856Y294918D01*
X202868Y294879D01*
X202874Y294871D01*
X202878Y294861D01*
X229878Y248061D01*
X229896Y248040D01*
X229907Y248015D01*
X229961Y247966D01*
X230009Y247912D01*
X230034Y247900D01*
X230054Y247881D01*
X230123Y247857D01*
X230189Y247826D01*
X230216Y247825D01*
X230241Y247815D01*
X230314Y247820D01*
G37*
G36*
X373737Y196216D02*
X373737Y196216D01*
X373764Y196214D01*
X373833Y196236D01*
X373905Y196250D01*
X373927Y196266D01*
X373953Y196274D01*
X374009Y196322D01*
X374069Y196363D01*
X374083Y196386D01*
X374104Y196404D01*
X374137Y196469D01*
X374176Y196530D01*
X374180Y196557D01*
X374192Y196582D01*
X374202Y196686D01*
X374209Y196727D01*
X374207Y196736D01*
X374208Y196747D01*
X373906Y200771D01*
X373898Y200802D01*
X373895Y200845D01*
X372997Y204779D01*
X372984Y204808D01*
X372975Y204851D01*
X371501Y208607D01*
X371484Y208634D01*
X371469Y208675D01*
X369451Y212169D01*
X369430Y212193D01*
X369409Y212231D01*
X366893Y215386D01*
X366868Y215406D01*
X366842Y215441D01*
X363884Y218185D01*
X363857Y218202D01*
X363825Y218232D01*
X360491Y220505D01*
X360462Y220518D01*
X360427Y220543D01*
X356791Y222293D01*
X356760Y222301D01*
X356721Y222321D01*
X352865Y223510D01*
X352834Y223513D01*
X352792Y223527D01*
X348802Y224128D01*
X348770Y224127D01*
X348728Y224134D01*
X344692Y224134D01*
X344661Y224127D01*
X344618Y224128D01*
X340628Y223527D01*
X340598Y223516D01*
X340555Y223510D01*
X336699Y222321D01*
X336671Y222305D01*
X336629Y222293D01*
X332993Y220543D01*
X332968Y220523D01*
X332929Y220505D01*
X329595Y218232D01*
X329572Y218209D01*
X329536Y218185D01*
X326578Y215441D01*
X326560Y215415D01*
X326527Y215386D01*
X324011Y212231D01*
X323997Y212203D01*
X323969Y212169D01*
X321951Y208675D01*
X321941Y208644D01*
X321919Y208607D01*
X320445Y204851D01*
X320439Y204819D01*
X320423Y204779D01*
X319525Y200845D01*
X319524Y200813D01*
X319514Y200771D01*
X319212Y196747D01*
X319216Y196720D01*
X319211Y196693D01*
X319228Y196623D01*
X319237Y196550D01*
X319251Y196526D01*
X319257Y196500D01*
X319300Y196441D01*
X319337Y196378D01*
X319359Y196362D01*
X319375Y196340D01*
X319438Y196303D01*
X319496Y196259D01*
X319523Y196252D01*
X319546Y196238D01*
X319650Y196221D01*
X319689Y196211D01*
X319699Y196213D01*
X319710Y196211D01*
X373710Y196211D01*
X373737Y196216D01*
G37*
%LPC*%
G36*
X267768Y331159D02*
X267768Y331159D01*
X266279Y332648D01*
X266279Y333874D01*
X266278Y333879D01*
X266279Y333884D01*
X266258Y333977D01*
X266240Y334071D01*
X266237Y334075D01*
X266236Y334080D01*
X266180Y334158D01*
X266127Y334236D01*
X266123Y334239D01*
X266120Y334243D01*
X266038Y334294D01*
X265959Y334346D01*
X265954Y334346D01*
X265949Y334349D01*
X265772Y334381D01*
X239901Y334381D01*
X237854Y336429D01*
X237847Y336433D01*
X237843Y336439D01*
X237764Y336488D01*
X237687Y336540D01*
X237679Y336541D01*
X237672Y336545D01*
X237495Y336577D01*
X236232Y336577D01*
X233908Y337540D01*
X232130Y339318D01*
X231167Y341642D01*
X231167Y344158D01*
X232130Y346482D01*
X233908Y348260D01*
X234281Y348415D01*
X235506Y348922D01*
X236232Y349223D01*
X238748Y349223D01*
X241072Y348260D01*
X242850Y346482D01*
X243813Y344158D01*
X243813Y343526D01*
X243814Y343521D01*
X243813Y343516D01*
X243834Y343423D01*
X243852Y343329D01*
X243855Y343325D01*
X243856Y343320D01*
X243912Y343242D01*
X243965Y343164D01*
X243969Y343161D01*
X243972Y343157D01*
X244054Y343106D01*
X244133Y343054D01*
X244138Y343054D01*
X244143Y343051D01*
X244320Y343019D01*
X265772Y343019D01*
X265777Y343020D01*
X265782Y343019D01*
X265875Y343040D01*
X265969Y343058D01*
X265973Y343061D01*
X265978Y343062D01*
X266056Y343118D01*
X266134Y343171D01*
X266137Y343175D01*
X266141Y343178D01*
X266192Y343260D01*
X266244Y343339D01*
X266244Y343344D01*
X266247Y343349D01*
X266279Y343526D01*
X266279Y344752D01*
X267768Y346241D01*
X280872Y346241D01*
X282361Y344752D01*
X282361Y332648D01*
X280872Y331159D01*
X267768Y331159D01*
G37*
%LPD*%
%LPC*%
G36*
X461804Y313769D02*
X461804Y313769D01*
X460460Y315113D01*
X460455Y315117D01*
X460451Y315122D01*
X460372Y315172D01*
X460293Y315224D01*
X460287Y315225D01*
X460281Y315229D01*
X460189Y315244D01*
X460096Y315262D01*
X460090Y315260D01*
X460083Y315262D01*
X459907Y315223D01*
X459338Y314987D01*
X456822Y314987D01*
X454498Y315950D01*
X452720Y317728D01*
X451757Y320052D01*
X451757Y322568D01*
X452720Y324892D01*
X454498Y326670D01*
X455560Y327110D01*
X455561Y327110D01*
X456785Y327617D01*
X456822Y327633D01*
X459338Y327633D01*
X459907Y327397D01*
X459914Y327396D01*
X459919Y327392D01*
X460012Y327376D01*
X460104Y327358D01*
X460110Y327359D01*
X460117Y327358D01*
X460208Y327380D01*
X460300Y327399D01*
X460306Y327402D01*
X460312Y327404D01*
X460460Y327507D01*
X461804Y328851D01*
X476980Y328851D01*
X479933Y325898D01*
X479933Y316722D01*
X476980Y313769D01*
X461804Y313769D01*
G37*
%LPD*%
%LPC*%
G36*
X210141Y328782D02*
X210141Y328782D01*
X207188Y331735D01*
X207188Y340911D01*
X210141Y343864D01*
X213664Y343864D01*
X213670Y343865D01*
X213675Y343864D01*
X213768Y343884D01*
X213861Y343903D01*
X213865Y343906D01*
X213870Y343907D01*
X213948Y343962D01*
X214027Y344016D01*
X214030Y344020D01*
X214034Y344023D01*
X214085Y344105D01*
X214136Y344184D01*
X214137Y344189D01*
X214140Y344194D01*
X214172Y344371D01*
X214172Y344643D01*
X215134Y346967D01*
X216913Y348746D01*
X217338Y348922D01*
X218563Y349429D01*
X219237Y349708D01*
X221752Y349708D01*
X224076Y348746D01*
X225855Y346967D01*
X226817Y344643D01*
X226817Y342573D01*
X226819Y342565D01*
X226817Y342557D01*
X226838Y342467D01*
X226857Y342376D01*
X226861Y342370D01*
X226863Y342362D01*
X226966Y342214D01*
X228269Y340911D01*
X228269Y331735D01*
X225316Y328782D01*
X210141Y328782D01*
G37*
%LPD*%
D10*
X249040Y308610D03*
X264040Y308610D03*
D11*
X426720Y296300D03*
X426720Y313300D03*
X274320Y321700D03*
X274320Y338700D03*
D12*
X223228Y359223D02*
X212228Y359223D01*
X212228Y364223D01*
X223228Y364223D01*
X223228Y359223D01*
X223228Y363973D02*
X212228Y363973D01*
X212228Y338823D02*
X223228Y338823D01*
X223228Y333823D01*
X212228Y333823D01*
X212228Y338823D01*
X212228Y338573D02*
X223228Y338573D01*
X473670Y349846D02*
X473670Y360846D01*
X473670Y349846D02*
X468670Y349846D01*
X468670Y360846D01*
X473670Y360846D01*
X473670Y354596D02*
X468670Y354596D01*
X468670Y359346D02*
X473670Y359346D01*
X474892Y318810D02*
X463892Y318810D01*
X463892Y323810D01*
X474892Y323810D01*
X474892Y318810D01*
X474892Y323560D02*
X463892Y323560D01*
D13*
G36*
X268535Y406758D02*
X256035Y385108D01*
X234385Y397608D01*
X246885Y419258D01*
X268535Y406758D01*
G37*
D14*
X276860Y446177D03*
D13*
G36*
X413550Y425462D02*
X401050Y447112D01*
X422700Y459612D01*
X435200Y437962D01*
X413550Y425462D01*
G37*
D14*
X443525Y398543D03*
D11*
X395850Y270510D03*
X378850Y270510D03*
D15*
X412750Y255660D03*
X412750Y272660D03*
X361950Y271390D03*
X361950Y254390D03*
D11*
X398780Y304410D03*
X398780Y287410D03*
X375920Y304410D03*
X375920Y287410D03*
D16*
X398780Y342240D03*
X398780Y323240D03*
X375920Y342240D03*
X375920Y323240D03*
D17*
G36*
X379045Y395238D02*
X383045Y388310D01*
X378715Y385810D01*
X374715Y392738D01*
X379045Y395238D01*
G37*
G36*
X368045Y414290D02*
X372045Y407362D01*
X367715Y404862D01*
X363715Y411790D01*
X368045Y414290D01*
G37*
D15*
X412750Y225180D03*
X412750Y242180D03*
D18*
X296291Y224536D03*
X302895Y224536D03*
X309499Y224536D03*
X309499Y245364D03*
X302895Y245364D03*
X296291Y245364D03*
D11*
X314570Y267970D03*
X297570Y267970D03*
D15*
X331470Y254390D03*
X331470Y271390D03*
X279400Y272660D03*
X279400Y255660D03*
D11*
X317500Y304410D03*
X317500Y287410D03*
X294640Y304410D03*
X294640Y287410D03*
D16*
X317500Y342240D03*
X317500Y323240D03*
X294640Y342240D03*
X294640Y323240D03*
D15*
X279400Y225180D03*
X279400Y242180D03*
D17*
G36*
X318705Y392738D02*
X314705Y385810D01*
X310375Y388310D01*
X314375Y395238D01*
X318705Y392738D01*
G37*
G36*
X329705Y411790D02*
X325705Y404862D01*
X321375Y407362D01*
X325375Y414290D01*
X329705Y411790D01*
G37*
D11*
X351790Y309490D03*
X351790Y292490D03*
D15*
X351790Y342510D03*
X351790Y325510D03*
D11*
X355210Y237490D03*
X338210Y237490D03*
D16*
X346710Y424790D03*
X346710Y405790D03*
D19*
X337210Y361110D03*
D20*
X346710Y356200D02*
X346710Y366020D01*
X356210Y366020D02*
X356210Y356200D01*
X356210Y378200D02*
X356210Y388020D01*
X337210Y388020D02*
X337210Y378200D01*
D21*
X511910Y346710D03*
X429310Y203610D03*
X264110Y203610D03*
X181510Y346710D03*
X470610Y275210D03*
X346710Y203610D03*
X222810Y275210D03*
D18*
X377571Y224536D03*
X384175Y224536D03*
X390779Y224536D03*
X390779Y245364D03*
X384175Y245364D03*
X377571Y245364D03*
D22*
X435864Y269240D03*
X434446Y235966D03*
D23*
X435716Y269092D02*
X435864Y269240D01*
X435716Y269092D02*
X435716Y237236D01*
X434446Y235966D01*
X273050Y309880D02*
X271780Y308610D01*
X264040Y308610D01*
D22*
X273050Y309880D03*
X276606Y298704D03*
X406400Y360454D03*
X262890Y359410D03*
X248920Y283210D03*
D23*
X240920Y275210D01*
X222810Y275210D01*
D22*
X237490Y342900D03*
D23*
X241690Y338700D02*
X274320Y338700D01*
X241690Y338700D02*
X237490Y342900D01*
X249040Y309880D02*
X249040Y308610D01*
X260860Y321700D02*
X274320Y321700D01*
X260860Y321700D02*
X249040Y309880D01*
D22*
X459740Y355346D03*
D23*
X471170Y355346D01*
D22*
X458080Y321310D03*
D23*
X469392Y321310D01*
D22*
X444234Y282084D03*
D24*
X445504Y283354D02*
X461010Y283354D01*
X445504Y283354D02*
X444234Y282084D01*
D23*
X461010Y283354D02*
X462466Y283354D01*
X470610Y275210D01*
D22*
X379956Y202264D03*
D23*
X372110Y202264D01*
X348056Y202264D01*
X346710Y203610D01*
D22*
X220494Y343386D03*
D23*
X217728Y340620D01*
X217728Y336323D01*
D22*
X227330Y366078D03*
D23*
X222975Y361723D01*
X217728Y361723D01*
X340385Y374855D02*
X353035Y374855D01*
X356210Y378030D01*
X356210Y383110D01*
X340385Y374855D02*
X337210Y378030D01*
X337210Y383110D01*
X337210Y378950D01*
X329778Y371518D01*
X329778Y300568D02*
X325120Y295910D01*
X329778Y300568D02*
X329778Y371518D01*
X285750Y295910D02*
X269240Y279400D01*
X269240Y273050D01*
X260350Y264160D01*
D24*
X285750Y295910D02*
X325120Y295910D01*
D23*
X269605Y234975D02*
X279400Y225180D01*
X309499Y224536D02*
X309499Y216789D01*
X306070Y213360D01*
X291220Y213360D01*
X279400Y225180D01*
D22*
X260350Y264160D03*
X268976Y234346D03*
D23*
X269605Y234975D01*
X364998Y370332D02*
X356210Y379120D01*
X356210Y383110D01*
X428041Y260401D02*
X427402Y259762D01*
D24*
X364998Y295910D02*
X364998Y370332D01*
D23*
X355210Y295910D02*
X351790Y292490D01*
X355210Y295910D02*
X364490Y295910D01*
D24*
X364998Y295910D01*
D23*
X337210Y383110D02*
X337210Y388158D01*
X334638Y390730D01*
X342900Y424790D02*
X346710Y424790D01*
X342900Y424790D02*
X334638Y416528D01*
X334638Y390730D01*
D22*
X428041Y260401D03*
D23*
X412750Y225180D02*
X391423Y225180D01*
X412750Y225180D02*
X427402Y239832D01*
X427402Y259762D01*
D24*
X426330Y295910D02*
X364998Y295910D01*
D23*
X391423Y225180D02*
X390779Y224536D01*
D24*
X428041Y260401D02*
X428041Y294979D01*
X426720Y296300D02*
X426330Y295910D01*
X426720Y296300D02*
X428041Y294979D01*
D23*
X395850Y284480D02*
X395850Y270510D01*
X395850Y284480D02*
X398780Y287410D01*
X395850Y270510D02*
X390779Y265439D01*
X398000Y272660D02*
X412750Y272660D01*
X398000Y272660D02*
X395850Y270510D01*
X390779Y265439D02*
X390779Y245364D01*
X378850Y270510D02*
X378850Y284480D01*
X375920Y287410D01*
X378850Y270510D02*
X384175Y265185D01*
X377970Y271390D02*
X361950Y271390D01*
X377970Y271390D02*
X378850Y270510D01*
X384175Y265185D02*
X384175Y245364D01*
X398780Y304410D02*
X398780Y323240D01*
X375920Y323240D02*
X375920Y304410D01*
D22*
X389156Y393700D03*
D23*
X389156Y386080D02*
X375920Y372844D01*
X389156Y386080D02*
X389156Y393700D01*
X375920Y372844D02*
X375920Y342240D01*
X398780Y342240D02*
X398780Y401302D01*
X397492Y402590D01*
X396974Y402590D01*
D22*
X396974Y402590D03*
D25*
X418125Y429555D02*
X418125Y442537D01*
X418125Y429555D02*
X413386Y424816D01*
X383120Y424816D02*
X367880Y409576D01*
X383120Y424816D02*
X413386Y424816D01*
X430588Y411480D02*
X443525Y398543D01*
X430588Y411480D02*
X392216Y411480D01*
X378880Y398144D01*
X378880Y390524D01*
D23*
X337210Y361110D02*
X337210Y282550D01*
X342900Y276860D01*
X342900Y267998D01*
X343944Y266954D01*
D22*
X343944Y266954D03*
D23*
X296291Y224536D02*
X293516Y224536D01*
X290722Y227330D01*
D22*
X290722Y227330D03*
D23*
X355210Y237490D02*
X363347Y237490D01*
X376301Y224536D01*
X355210Y237490D02*
X343270Y249430D01*
X343270Y250336D01*
D22*
X343270Y250336D03*
D23*
X376301Y224536D02*
X377571Y224536D01*
X302895Y234950D02*
X287811Y234950D01*
X279400Y243361D02*
X279400Y255660D01*
X280581Y242180D02*
X287811Y234950D01*
X280581Y242180D02*
X279400Y243361D01*
X302895Y234950D02*
X302895Y224536D01*
X404020Y255660D02*
X412750Y255660D01*
X404020Y255660D02*
X397258Y248898D01*
X397258Y246104D01*
X397258Y238283D01*
X393925Y234950D01*
X361950Y247425D02*
X361950Y254390D01*
X351790Y258962D02*
X336042Y258962D01*
X331470Y254390D01*
X357378Y258962D02*
X361950Y254390D01*
X357378Y258962D02*
X351790Y258962D01*
X351790Y276860D01*
X346710Y353490D02*
X346710Y361110D01*
X346710Y353490D02*
X342900Y349680D01*
X342900Y325510D01*
D24*
X342900Y285750D02*
X351790Y276860D01*
D23*
X252730Y267970D02*
X252730Y260960D01*
X262890Y293370D02*
X266700Y297180D01*
X262890Y293370D02*
X262890Y278130D01*
X252730Y267970D01*
D22*
X266700Y297180D03*
X328461Y234414D03*
D23*
X368300Y388645D02*
X351155Y405790D01*
X346710Y405790D01*
X368300Y388645D02*
X368300Y378129D01*
D22*
X368300Y378129D03*
X346710Y367030D03*
D23*
X346710Y361110D01*
D22*
X398625Y246104D03*
D23*
X397258Y246104D01*
X412750Y242180D02*
X412750Y255660D01*
X258030Y255660D02*
X252730Y260960D01*
X258030Y255660D02*
X279400Y255660D01*
D22*
X410348Y287528D03*
D23*
X422322Y282068D02*
X422322Y265792D01*
X422322Y282068D02*
X417848Y286542D01*
X412750Y256220D02*
X412750Y255660D01*
X411334Y286542D02*
X417848Y286542D01*
X422322Y265792D02*
X412750Y256220D01*
X411334Y286542D02*
X410348Y287528D01*
X386080Y234950D02*
X374425Y234950D01*
X386080Y234950D02*
X393925Y234950D01*
X374425Y234950D02*
X361950Y247425D01*
X384175Y233045D02*
X386080Y234950D01*
X331470Y238760D02*
X331470Y254390D01*
X331470Y238760D02*
X332740Y237490D01*
X338210Y237490D01*
D24*
X342900Y285750D02*
X342900Y325510D01*
D23*
X351790Y325510D01*
X280581Y242180D02*
X279400Y242180D01*
X384175Y233045D02*
X384175Y224536D01*
X327925Y234950D02*
X302895Y234950D01*
X327925Y234950D02*
X328461Y234414D01*
X331470Y237423D01*
X331470Y238760D01*
X373126Y249809D02*
X373126Y252476D01*
D22*
X373126Y252476D03*
D23*
X373126Y249809D02*
X377571Y245364D01*
X309499Y245364D02*
X309499Y262899D01*
X314570Y267970D01*
X314570Y284480D01*
X317500Y287410D01*
X317990Y271390D02*
X331470Y271390D01*
X317990Y271390D02*
X314570Y267970D01*
X302895Y262645D02*
X302895Y245364D01*
X302895Y262645D02*
X297570Y267970D01*
X297570Y284480D01*
X294640Y287410D01*
X292880Y272660D02*
X279400Y272660D01*
X292880Y272660D02*
X297570Y267970D01*
X317500Y304410D02*
X317500Y323240D01*
X294640Y323240D02*
X294640Y304410D01*
X296291Y253619D02*
X296291Y245364D01*
X296291Y253619D02*
X293370Y256540D01*
D22*
X293370Y256540D03*
D23*
X317500Y374650D02*
X323850Y381000D01*
X317500Y374650D02*
X317500Y342240D01*
X323850Y407886D02*
X325540Y409576D01*
X323850Y407886D02*
X323850Y381000D01*
D22*
X314960Y415290D03*
D23*
X320674Y409576D01*
X325540Y409576D01*
X294640Y373380D02*
X294640Y342240D01*
X311150Y390524D02*
X314540Y390524D01*
D22*
X311150Y385880D03*
D23*
X311150Y390524D01*
X311150Y385880D02*
X307140Y385880D01*
X294640Y373380D01*
X356210Y361110D02*
X356210Y346930D01*
X351790Y342510D01*
D24*
X360346Y332675D02*
X360346Y318345D01*
X351641Y309639D01*
X351790Y341231D02*
X351790Y342510D01*
X351641Y309639D02*
X351790Y309490D01*
X360346Y332675D02*
X351790Y341231D01*
M02*
