G04 EAGLE Gerber RS-274X export*
G75*
%MOMM*%
%FSLAX34Y34*%
%LPD*%
%INSilkscreen Bottom*%
%IPPOS*%
%AMOC8*
5,1,8,0,0,1.08239X$1,22.5*%
G01*
%ADD10C,0.152400*%
%ADD11C,0.101600*%
%ADD12R,3.644900X0.012700*%
%ADD13R,3.695700X0.012700*%
%ADD14R,3.721100X0.012700*%
%ADD15R,3.746500X0.012700*%
%ADD16R,3.771900X0.012700*%
%ADD17R,3.784600X0.012700*%
%ADD18R,3.797300X0.012700*%
%ADD19R,3.733800X0.012700*%
%ADD20R,3.670300X0.012700*%
%ADD21R,3.657600X0.012700*%
%ADD22R,3.632200X0.012700*%
%ADD23R,0.279400X0.012700*%
%ADD24R,0.266700X0.012700*%
%ADD25R,0.292100X0.012700*%
%ADD26R,0.012700X0.012700*%
%ADD27R,0.038100X0.012700*%
%ADD28R,0.063500X0.012700*%
%ADD29R,0.076200X0.012700*%
%ADD30R,0.101600X0.012700*%
%ADD31R,0.114300X0.012700*%
%ADD32R,0.139700X0.012700*%
%ADD33R,0.165100X0.012700*%
%ADD34R,0.177800X0.012700*%
%ADD35R,0.190500X0.012700*%
%ADD36R,0.215900X0.012700*%
%ADD37R,0.241300X0.012700*%
%ADD38R,0.254000X0.012700*%
%ADD39R,0.228600X0.012700*%
%ADD40R,0.152400X0.012700*%
%ADD41R,0.127000X0.012700*%
%ADD42R,0.203200X0.012700*%
%ADD43R,0.317500X0.012700*%
%ADD44R,0.355600X0.012700*%
%ADD45R,0.381000X0.012700*%
%ADD46R,0.533400X0.012700*%
%ADD47R,0.546100X0.012700*%
%ADD48R,0.368300X0.012700*%
%ADD49R,0.330200X0.012700*%
%ADD50R,0.304800X0.012700*%
%ADD51R,0.050800X0.012700*%
%ADD52R,0.508000X0.012700*%
%ADD53R,0.495300X0.012700*%
%ADD54R,0.469900X0.012700*%
%ADD55R,0.457200X0.012700*%
%ADD56R,0.444500X0.012700*%
%ADD57R,0.431800X0.012700*%
%ADD58R,0.419100X0.012700*%
%ADD59R,0.406400X0.012700*%
%ADD60R,0.393700X0.012700*%
%ADD61R,0.342900X0.012700*%
%ADD62C,0.076200*%
%ADD63C,0.127000*%
%ADD64C,0.254000*%
%ADD65C,0.150000*%
%ADD66C,0.500000*%


D10*
X484802Y374205D02*
X479863Y374205D01*
X479723Y374203D01*
X479584Y374197D01*
X479444Y374187D01*
X479305Y374173D01*
X479166Y374156D01*
X479028Y374134D01*
X478891Y374108D01*
X478754Y374079D01*
X478618Y374046D01*
X478484Y374009D01*
X478350Y373968D01*
X478218Y373923D01*
X478086Y373874D01*
X477957Y373822D01*
X477829Y373767D01*
X477702Y373707D01*
X477577Y373644D01*
X477454Y373578D01*
X477333Y373508D01*
X477214Y373435D01*
X477097Y373358D01*
X476983Y373278D01*
X476870Y373195D01*
X476760Y373109D01*
X476653Y373019D01*
X476548Y372927D01*
X476446Y372832D01*
X476346Y372734D01*
X476249Y372633D01*
X476155Y372529D01*
X476065Y372423D01*
X475977Y372314D01*
X475892Y372203D01*
X475811Y372089D01*
X475732Y371974D01*
X475657Y371856D01*
X475586Y371736D01*
X475518Y371613D01*
X475453Y371490D01*
X475392Y371364D01*
X475334Y371236D01*
X475280Y371108D01*
X475230Y370977D01*
X475183Y370845D01*
X475140Y370712D01*
X475101Y370578D01*
X475066Y370443D01*
X475035Y370307D01*
X475007Y370169D01*
X474984Y370032D01*
X474964Y369893D01*
X474948Y369754D01*
X474936Y369615D01*
X474928Y369476D01*
X474924Y369336D01*
X474924Y369196D01*
X474928Y369056D01*
X474936Y368917D01*
X474948Y368778D01*
X474964Y368639D01*
X474984Y368500D01*
X475007Y368363D01*
X475035Y368225D01*
X475066Y368089D01*
X475101Y367954D01*
X475140Y367820D01*
X475183Y367687D01*
X475230Y367555D01*
X475280Y367424D01*
X475334Y367296D01*
X475392Y367168D01*
X475453Y367042D01*
X475518Y366919D01*
X475586Y366797D01*
X475657Y366676D01*
X475732Y366558D01*
X475811Y366443D01*
X475892Y366329D01*
X475977Y366218D01*
X476065Y366109D01*
X476155Y366003D01*
X476249Y365899D01*
X476346Y365798D01*
X476446Y365700D01*
X476548Y365605D01*
X476653Y365513D01*
X476760Y365423D01*
X476870Y365337D01*
X476983Y365254D01*
X477097Y365174D01*
X477214Y365097D01*
X477333Y365024D01*
X477454Y364954D01*
X477577Y364888D01*
X477702Y364825D01*
X477829Y364765D01*
X477957Y364710D01*
X478086Y364658D01*
X478218Y364609D01*
X478350Y364564D01*
X478484Y364523D01*
X478618Y364486D01*
X478754Y364453D01*
X478891Y364424D01*
X479028Y364398D01*
X479166Y364376D01*
X479305Y364359D01*
X479444Y364345D01*
X479584Y364335D01*
X479723Y364329D01*
X479863Y364327D01*
X484802Y364327D01*
X484802Y382107D01*
X479863Y382107D01*
X479739Y382105D01*
X479615Y382099D01*
X479491Y382089D01*
X479368Y382076D01*
X479245Y382058D01*
X479123Y382037D01*
X479001Y382012D01*
X478880Y381983D01*
X478761Y381950D01*
X478642Y381914D01*
X478525Y381873D01*
X478409Y381830D01*
X478294Y381782D01*
X478181Y381731D01*
X478069Y381676D01*
X477960Y381618D01*
X477852Y381557D01*
X477746Y381492D01*
X477642Y381424D01*
X477541Y381352D01*
X477441Y381278D01*
X477345Y381200D01*
X477250Y381120D01*
X477158Y381036D01*
X477069Y380950D01*
X476983Y380861D01*
X476899Y380769D01*
X476819Y380674D01*
X476741Y380578D01*
X476667Y380478D01*
X476595Y380377D01*
X476527Y380273D01*
X476462Y380167D01*
X476401Y380059D01*
X476343Y379950D01*
X476288Y379838D01*
X476237Y379725D01*
X476189Y379610D01*
X476146Y379494D01*
X476105Y379377D01*
X476069Y379258D01*
X476036Y379139D01*
X476007Y379018D01*
X475982Y378896D01*
X475961Y378774D01*
X475943Y378651D01*
X475930Y378528D01*
X475920Y378404D01*
X475914Y378280D01*
X475912Y378156D01*
X475914Y378032D01*
X475920Y377908D01*
X475930Y377784D01*
X475943Y377661D01*
X475961Y377538D01*
X475982Y377416D01*
X476007Y377294D01*
X476036Y377173D01*
X476069Y377054D01*
X476105Y376935D01*
X476146Y376818D01*
X476189Y376702D01*
X476237Y376587D01*
X476288Y376474D01*
X476343Y376362D01*
X476401Y376253D01*
X476462Y376145D01*
X476527Y376039D01*
X476595Y375935D01*
X476667Y375834D01*
X476741Y375734D01*
X476819Y375638D01*
X476899Y375543D01*
X476983Y375451D01*
X477069Y375362D01*
X477158Y375276D01*
X477250Y375192D01*
X477345Y375112D01*
X477441Y375034D01*
X477541Y374960D01*
X477642Y374888D01*
X477746Y374820D01*
X477852Y374755D01*
X477960Y374694D01*
X478069Y374636D01*
X478181Y374581D01*
X478294Y374530D01*
X478409Y374482D01*
X478525Y374439D01*
X478642Y374398D01*
X478761Y374362D01*
X478880Y374329D01*
X479001Y374300D01*
X479123Y374275D01*
X479245Y374254D01*
X479368Y374236D01*
X479491Y374223D01*
X479615Y374213D01*
X479739Y374207D01*
X479863Y374205D01*
X490542Y327680D02*
X490542Y309900D01*
X490542Y327680D02*
X485603Y327680D01*
X485463Y327678D01*
X485324Y327672D01*
X485184Y327662D01*
X485045Y327648D01*
X484906Y327631D01*
X484768Y327609D01*
X484631Y327583D01*
X484494Y327554D01*
X484358Y327521D01*
X484224Y327484D01*
X484090Y327443D01*
X483958Y327398D01*
X483826Y327349D01*
X483697Y327297D01*
X483569Y327242D01*
X483442Y327182D01*
X483317Y327119D01*
X483194Y327053D01*
X483073Y326983D01*
X482954Y326910D01*
X482837Y326833D01*
X482723Y326753D01*
X482610Y326670D01*
X482500Y326584D01*
X482393Y326494D01*
X482288Y326402D01*
X482186Y326307D01*
X482086Y326209D01*
X481989Y326108D01*
X481895Y326004D01*
X481805Y325898D01*
X481717Y325789D01*
X481632Y325678D01*
X481551Y325564D01*
X481472Y325449D01*
X481397Y325331D01*
X481326Y325211D01*
X481258Y325088D01*
X481193Y324965D01*
X481132Y324839D01*
X481074Y324711D01*
X481020Y324583D01*
X480970Y324452D01*
X480923Y324320D01*
X480880Y324187D01*
X480841Y324053D01*
X480806Y323918D01*
X480775Y323782D01*
X480747Y323644D01*
X480724Y323507D01*
X480704Y323368D01*
X480688Y323229D01*
X480676Y323090D01*
X480668Y322951D01*
X480664Y322811D01*
X480664Y322671D01*
X480668Y322531D01*
X480676Y322392D01*
X480688Y322253D01*
X480704Y322114D01*
X480724Y321975D01*
X480747Y321838D01*
X480775Y321700D01*
X480806Y321564D01*
X480841Y321429D01*
X480880Y321295D01*
X480923Y321162D01*
X480970Y321030D01*
X481020Y320899D01*
X481074Y320771D01*
X481132Y320643D01*
X481193Y320517D01*
X481258Y320394D01*
X481326Y320272D01*
X481397Y320151D01*
X481472Y320033D01*
X481551Y319918D01*
X481632Y319804D01*
X481717Y319693D01*
X481805Y319584D01*
X481895Y319478D01*
X481989Y319374D01*
X482086Y319273D01*
X482186Y319175D01*
X482288Y319080D01*
X482393Y318988D01*
X482500Y318898D01*
X482610Y318812D01*
X482723Y318729D01*
X482837Y318649D01*
X482954Y318572D01*
X483073Y318499D01*
X483194Y318429D01*
X483317Y318363D01*
X483442Y318300D01*
X483569Y318240D01*
X483697Y318185D01*
X483826Y318133D01*
X483958Y318084D01*
X484090Y318039D01*
X484224Y317998D01*
X484358Y317961D01*
X484494Y317928D01*
X484631Y317899D01*
X484768Y317873D01*
X484906Y317851D01*
X485045Y317834D01*
X485184Y317820D01*
X485324Y317810D01*
X485463Y317804D01*
X485603Y317802D01*
X485603Y317803D02*
X490542Y317803D01*
X484616Y317803D02*
X480665Y309900D01*
X238470Y331965D02*
X238470Y349745D01*
X233532Y349745D01*
X233393Y349743D01*
X233255Y349737D01*
X233117Y349728D01*
X232979Y349714D01*
X232842Y349697D01*
X232705Y349675D01*
X232568Y349650D01*
X232433Y349621D01*
X232298Y349588D01*
X232165Y349552D01*
X232032Y349512D01*
X231901Y349468D01*
X231771Y349420D01*
X231642Y349369D01*
X231515Y349314D01*
X231389Y349256D01*
X231265Y349194D01*
X231143Y349129D01*
X231023Y349060D01*
X230904Y348988D01*
X230788Y348913D01*
X230674Y348834D01*
X230562Y348752D01*
X230453Y348667D01*
X230345Y348580D01*
X230241Y348489D01*
X230139Y348395D01*
X230040Y348298D01*
X229943Y348199D01*
X229849Y348097D01*
X229758Y347993D01*
X229671Y347885D01*
X229586Y347776D01*
X229504Y347664D01*
X229425Y347550D01*
X229350Y347434D01*
X229278Y347315D01*
X229209Y347195D01*
X229144Y347073D01*
X229082Y346949D01*
X229024Y346823D01*
X228969Y346696D01*
X228918Y346567D01*
X228870Y346437D01*
X228826Y346306D01*
X228786Y346173D01*
X228750Y346040D01*
X228717Y345905D01*
X228688Y345770D01*
X228663Y345633D01*
X228641Y345496D01*
X228624Y345359D01*
X228610Y345221D01*
X228601Y345083D01*
X228595Y344945D01*
X228593Y344806D01*
X228593Y336904D01*
X228595Y336765D01*
X228601Y336627D01*
X228610Y336489D01*
X228624Y336351D01*
X228641Y336214D01*
X228663Y336077D01*
X228688Y335940D01*
X228717Y335805D01*
X228750Y335670D01*
X228786Y335537D01*
X228826Y335404D01*
X228870Y335273D01*
X228918Y335143D01*
X228969Y335014D01*
X229024Y334887D01*
X229082Y334761D01*
X229144Y334637D01*
X229209Y334515D01*
X229278Y334395D01*
X229350Y334276D01*
X229425Y334160D01*
X229504Y334046D01*
X229586Y333934D01*
X229671Y333825D01*
X229758Y333717D01*
X229849Y333613D01*
X229943Y333511D01*
X230040Y333412D01*
X230139Y333315D01*
X230241Y333221D01*
X230345Y333130D01*
X230453Y333043D01*
X230562Y332958D01*
X230674Y332876D01*
X230788Y332797D01*
X230904Y332722D01*
X231023Y332650D01*
X231143Y332581D01*
X231265Y332516D01*
X231389Y332454D01*
X231515Y332396D01*
X231642Y332341D01*
X231771Y332290D01*
X231901Y332242D01*
X232032Y332198D01*
X232165Y332158D01*
X232298Y332122D01*
X232433Y332089D01*
X232568Y332060D01*
X232705Y332035D01*
X232842Y332013D01*
X232979Y331996D01*
X233117Y331982D01*
X233255Y331973D01*
X233393Y331967D01*
X233532Y331965D01*
X238470Y331965D01*
X233531Y354033D02*
X229580Y354033D01*
X233531Y354033D02*
X233655Y354035D01*
X233779Y354041D01*
X233903Y354051D01*
X234026Y354064D01*
X234149Y354082D01*
X234271Y354103D01*
X234393Y354128D01*
X234514Y354157D01*
X234633Y354190D01*
X234752Y354226D01*
X234869Y354267D01*
X234985Y354310D01*
X235100Y354358D01*
X235213Y354409D01*
X235325Y354464D01*
X235434Y354522D01*
X235542Y354583D01*
X235648Y354648D01*
X235752Y354716D01*
X235853Y354788D01*
X235953Y354862D01*
X236049Y354940D01*
X236144Y355020D01*
X236236Y355104D01*
X236325Y355190D01*
X236411Y355279D01*
X236495Y355371D01*
X236575Y355466D01*
X236653Y355562D01*
X236727Y355662D01*
X236799Y355763D01*
X236867Y355867D01*
X236932Y355973D01*
X236993Y356081D01*
X237051Y356190D01*
X237106Y356302D01*
X237157Y356415D01*
X237205Y356530D01*
X237248Y356646D01*
X237289Y356763D01*
X237325Y356882D01*
X237358Y357001D01*
X237387Y357122D01*
X237412Y357244D01*
X237433Y357366D01*
X237451Y357489D01*
X237464Y357612D01*
X237474Y357736D01*
X237480Y357860D01*
X237482Y357984D01*
X237482Y367862D01*
X237480Y367986D01*
X237474Y368110D01*
X237464Y368234D01*
X237451Y368357D01*
X237433Y368480D01*
X237412Y368602D01*
X237387Y368724D01*
X237358Y368845D01*
X237325Y368964D01*
X237289Y369083D01*
X237248Y369200D01*
X237205Y369316D01*
X237157Y369431D01*
X237106Y369544D01*
X237051Y369656D01*
X236993Y369765D01*
X236932Y369873D01*
X236867Y369979D01*
X236799Y370083D01*
X236727Y370184D01*
X236653Y370284D01*
X236575Y370380D01*
X236495Y370475D01*
X236411Y370567D01*
X236325Y370656D01*
X236236Y370742D01*
X236144Y370826D01*
X236049Y370906D01*
X235953Y370984D01*
X235853Y371058D01*
X235752Y371130D01*
X235648Y371198D01*
X235542Y371263D01*
X235434Y371324D01*
X235325Y371382D01*
X235213Y371437D01*
X235100Y371488D01*
X234986Y371536D01*
X234869Y371579D01*
X234752Y371620D01*
X234633Y371656D01*
X234514Y371689D01*
X234393Y371718D01*
X234271Y371743D01*
X234149Y371764D01*
X234026Y371782D01*
X233903Y371795D01*
X233779Y371805D01*
X233655Y371811D01*
X233531Y371813D01*
X229580Y371813D01*
D11*
X492049Y337254D02*
X492049Y335306D01*
X492049Y337254D02*
X485558Y337254D01*
X485558Y333359D01*
X485560Y333260D01*
X485566Y333160D01*
X485575Y333061D01*
X485588Y332963D01*
X485605Y332865D01*
X485626Y332767D01*
X485651Y332671D01*
X485679Y332576D01*
X485711Y332482D01*
X485746Y332389D01*
X485785Y332297D01*
X485828Y332207D01*
X485873Y332119D01*
X485923Y332032D01*
X485975Y331948D01*
X486031Y331865D01*
X486089Y331785D01*
X486151Y331707D01*
X486216Y331632D01*
X486284Y331559D01*
X486354Y331489D01*
X486427Y331421D01*
X486502Y331356D01*
X486580Y331294D01*
X486660Y331236D01*
X486743Y331180D01*
X486827Y331128D01*
X486914Y331078D01*
X487002Y331033D01*
X487092Y330990D01*
X487184Y330951D01*
X487277Y330916D01*
X487371Y330884D01*
X487466Y330856D01*
X487562Y330831D01*
X487660Y330810D01*
X487758Y330793D01*
X487856Y330780D01*
X487955Y330771D01*
X488055Y330765D01*
X488154Y330763D01*
X494646Y330763D01*
X494745Y330765D01*
X494845Y330771D01*
X494944Y330780D01*
X495042Y330793D01*
X495140Y330810D01*
X495238Y330831D01*
X495334Y330856D01*
X495429Y330884D01*
X495523Y330916D01*
X495616Y330951D01*
X495708Y330990D01*
X495798Y331033D01*
X495886Y331078D01*
X495973Y331128D01*
X496057Y331180D01*
X496140Y331236D01*
X496220Y331294D01*
X496298Y331356D01*
X496373Y331421D01*
X496446Y331489D01*
X496516Y331559D01*
X496584Y331632D01*
X496649Y331707D01*
X496711Y331785D01*
X496769Y331865D01*
X496825Y331948D01*
X496877Y332032D01*
X496927Y332119D01*
X496972Y332207D01*
X497015Y332297D01*
X497054Y332389D01*
X497089Y332481D01*
X497121Y332576D01*
X497149Y332671D01*
X497174Y332767D01*
X497195Y332865D01*
X497212Y332963D01*
X497225Y333061D01*
X497234Y333160D01*
X497240Y333260D01*
X497242Y333359D01*
X497242Y337254D01*
X497242Y342954D02*
X485558Y342954D01*
X485558Y349446D02*
X497242Y342954D01*
X497242Y349446D02*
X485558Y349446D01*
X485558Y355146D02*
X497242Y355146D01*
X497242Y358392D01*
X497240Y358505D01*
X497234Y358618D01*
X497224Y358731D01*
X497210Y358844D01*
X497193Y358956D01*
X497171Y359067D01*
X497146Y359177D01*
X497116Y359287D01*
X497083Y359395D01*
X497046Y359502D01*
X497006Y359608D01*
X496961Y359712D01*
X496913Y359815D01*
X496862Y359916D01*
X496807Y360015D01*
X496749Y360112D01*
X496687Y360207D01*
X496622Y360300D01*
X496554Y360390D01*
X496483Y360478D01*
X496408Y360564D01*
X496331Y360647D01*
X496251Y360727D01*
X496168Y360804D01*
X496082Y360879D01*
X495994Y360950D01*
X495904Y361018D01*
X495811Y361083D01*
X495716Y361145D01*
X495619Y361203D01*
X495520Y361258D01*
X495419Y361309D01*
X495316Y361357D01*
X495212Y361402D01*
X495106Y361442D01*
X494999Y361479D01*
X494891Y361512D01*
X494781Y361542D01*
X494671Y361567D01*
X494560Y361589D01*
X494448Y361606D01*
X494335Y361620D01*
X494222Y361630D01*
X494109Y361636D01*
X493996Y361638D01*
X488804Y361638D01*
X488691Y361636D01*
X488578Y361630D01*
X488465Y361620D01*
X488352Y361606D01*
X488240Y361589D01*
X488129Y361567D01*
X488019Y361542D01*
X487909Y361512D01*
X487801Y361479D01*
X487694Y361442D01*
X487588Y361402D01*
X487484Y361357D01*
X487381Y361309D01*
X487280Y361258D01*
X487181Y361203D01*
X487084Y361145D01*
X486989Y361083D01*
X486896Y361018D01*
X486806Y360950D01*
X486718Y360879D01*
X486632Y360804D01*
X486549Y360727D01*
X486469Y360647D01*
X486392Y360564D01*
X486317Y360478D01*
X486246Y360390D01*
X486178Y360300D01*
X486113Y360207D01*
X486051Y360112D01*
X485993Y360015D01*
X485938Y359916D01*
X485887Y359815D01*
X485839Y359712D01*
X485794Y359608D01*
X485754Y359502D01*
X485717Y359395D01*
X485684Y359287D01*
X485654Y359177D01*
X485629Y359067D01*
X485607Y358956D01*
X485590Y358844D01*
X485576Y358731D01*
X485566Y358618D01*
X485560Y358505D01*
X485558Y358392D01*
X485558Y355146D01*
X425667Y224415D02*
X424072Y223298D01*
X427795Y217981D01*
X430986Y220215D01*
X430985Y220215D02*
X431065Y220274D01*
X431143Y220336D01*
X431219Y220400D01*
X431292Y220468D01*
X431363Y220538D01*
X431430Y220611D01*
X431495Y220686D01*
X431557Y220764D01*
X431616Y220844D01*
X431672Y220926D01*
X431725Y221011D01*
X431774Y221097D01*
X431820Y221185D01*
X431863Y221275D01*
X431902Y221366D01*
X431937Y221459D01*
X431969Y221553D01*
X431998Y221649D01*
X432022Y221745D01*
X432043Y221842D01*
X432061Y221940D01*
X432074Y222039D01*
X432084Y222138D01*
X432090Y222237D01*
X432092Y222336D01*
X432090Y222436D01*
X432085Y222535D01*
X432075Y222634D01*
X432062Y222733D01*
X432046Y222831D01*
X432025Y222928D01*
X432001Y223025D01*
X431973Y223120D01*
X431941Y223214D01*
X431906Y223307D01*
X431867Y223399D01*
X431825Y223489D01*
X431779Y223577D01*
X431730Y223664D01*
X431678Y223748D01*
X431623Y223831D01*
X427900Y229148D01*
X427841Y229228D01*
X427779Y229306D01*
X427715Y229382D01*
X427647Y229455D01*
X427577Y229526D01*
X427504Y229593D01*
X427429Y229658D01*
X427351Y229720D01*
X427271Y229779D01*
X427189Y229835D01*
X427104Y229888D01*
X427018Y229937D01*
X426930Y229983D01*
X426840Y230026D01*
X426749Y230065D01*
X426656Y230100D01*
X426562Y230132D01*
X426466Y230161D01*
X426370Y230185D01*
X426273Y230206D01*
X426175Y230224D01*
X426076Y230237D01*
X425977Y230247D01*
X425878Y230253D01*
X425779Y230255D01*
X425679Y230253D01*
X425580Y230248D01*
X425481Y230239D01*
X425382Y230225D01*
X425284Y230209D01*
X425187Y230188D01*
X425090Y230164D01*
X424995Y230136D01*
X424901Y230104D01*
X424808Y230069D01*
X424716Y230030D01*
X424626Y229988D01*
X424538Y229942D01*
X424451Y229893D01*
X424367Y229841D01*
X424284Y229786D01*
X421094Y227552D01*
X416424Y224282D02*
X423125Y214711D01*
X417808Y210988D02*
X416424Y224282D01*
X411107Y220559D02*
X417808Y210988D01*
X413138Y207718D02*
X406437Y217289D01*
X403778Y215427D01*
X403778Y215428D02*
X403687Y215361D01*
X403597Y215292D01*
X403510Y215219D01*
X403426Y215143D01*
X403345Y215064D01*
X403266Y214983D01*
X403190Y214899D01*
X403117Y214812D01*
X403048Y214723D01*
X402981Y214631D01*
X402918Y214537D01*
X402858Y214441D01*
X402801Y214343D01*
X402748Y214243D01*
X402698Y214141D01*
X402652Y214037D01*
X402610Y213932D01*
X402571Y213826D01*
X402536Y213718D01*
X402505Y213609D01*
X402477Y213499D01*
X402454Y213388D01*
X402434Y213277D01*
X402418Y213165D01*
X402406Y213052D01*
X402398Y212939D01*
X402394Y212826D01*
X402394Y212712D01*
X402398Y212599D01*
X402406Y212486D01*
X402418Y212373D01*
X402434Y212261D01*
X402454Y212150D01*
X402477Y212039D01*
X402505Y211929D01*
X402536Y211820D01*
X402571Y211712D01*
X402610Y211606D01*
X402652Y211501D01*
X402698Y211397D01*
X402748Y211295D01*
X402801Y211195D01*
X402858Y211097D01*
X402918Y211001D01*
X402981Y210907D01*
X405960Y206653D01*
X405959Y206653D02*
X406026Y206562D01*
X406095Y206472D01*
X406168Y206385D01*
X406244Y206301D01*
X406323Y206220D01*
X406404Y206141D01*
X406488Y206065D01*
X406575Y205992D01*
X406665Y205923D01*
X406756Y205856D01*
X406850Y205793D01*
X406946Y205733D01*
X407044Y205676D01*
X407144Y205623D01*
X407246Y205573D01*
X407350Y205527D01*
X407455Y205485D01*
X407561Y205446D01*
X407669Y205411D01*
X407778Y205380D01*
X407888Y205352D01*
X407999Y205329D01*
X408110Y205309D01*
X408222Y205293D01*
X408335Y205281D01*
X408448Y205273D01*
X408561Y205269D01*
X408675Y205269D01*
X408788Y205273D01*
X408901Y205281D01*
X409014Y205293D01*
X409126Y205309D01*
X409237Y205329D01*
X409348Y205352D01*
X409458Y205380D01*
X409567Y205411D01*
X409675Y205446D01*
X409781Y205485D01*
X409886Y205527D01*
X409990Y205573D01*
X410092Y205623D01*
X410192Y205676D01*
X410290Y205733D01*
X410386Y205793D01*
X410480Y205856D01*
X413138Y207718D01*
X284057Y212027D02*
X282462Y213144D01*
X278738Y207827D01*
X281929Y205593D01*
X282012Y205538D01*
X282096Y205486D01*
X282183Y205437D01*
X282271Y205391D01*
X282361Y205349D01*
X282453Y205310D01*
X282546Y205275D01*
X282640Y205243D01*
X282735Y205215D01*
X282832Y205191D01*
X282929Y205170D01*
X283027Y205154D01*
X283126Y205140D01*
X283225Y205131D01*
X283324Y205126D01*
X283424Y205124D01*
X283523Y205126D01*
X283622Y205132D01*
X283721Y205142D01*
X283820Y205155D01*
X283918Y205173D01*
X284015Y205194D01*
X284111Y205218D01*
X284207Y205247D01*
X284301Y205279D01*
X284394Y205314D01*
X284485Y205353D01*
X284575Y205396D01*
X284663Y205442D01*
X284749Y205491D01*
X284834Y205544D01*
X284916Y205600D01*
X284996Y205659D01*
X285074Y205721D01*
X285149Y205786D01*
X285222Y205853D01*
X285292Y205924D01*
X285360Y205997D01*
X285424Y206073D01*
X285486Y206151D01*
X285545Y206231D01*
X289268Y211548D01*
X289323Y211631D01*
X289375Y211715D01*
X289424Y211802D01*
X289470Y211890D01*
X289512Y211980D01*
X289551Y212072D01*
X289586Y212165D01*
X289618Y212259D01*
X289646Y212354D01*
X289670Y212451D01*
X289691Y212548D01*
X289707Y212646D01*
X289721Y212745D01*
X289730Y212844D01*
X289735Y212943D01*
X289737Y213043D01*
X289735Y213142D01*
X289729Y213241D01*
X289719Y213340D01*
X289706Y213439D01*
X289688Y213537D01*
X289667Y213634D01*
X289643Y213730D01*
X289614Y213826D01*
X289582Y213920D01*
X289547Y214013D01*
X289508Y214104D01*
X289465Y214194D01*
X289419Y214282D01*
X289370Y214368D01*
X289317Y214453D01*
X289261Y214535D01*
X289202Y214615D01*
X289140Y214693D01*
X289075Y214768D01*
X289008Y214841D01*
X288937Y214911D01*
X288864Y214979D01*
X288788Y215043D01*
X288710Y215105D01*
X288630Y215164D01*
X285440Y217398D01*
X280770Y220668D02*
X274069Y211097D01*
X268751Y214820D02*
X280770Y220668D01*
X275453Y224391D02*
X268751Y214820D01*
X264082Y218090D02*
X270783Y227661D01*
X268125Y229523D01*
X268031Y229586D01*
X267935Y229646D01*
X267837Y229703D01*
X267737Y229756D01*
X267635Y229806D01*
X267531Y229852D01*
X267426Y229894D01*
X267320Y229933D01*
X267212Y229968D01*
X267103Y229999D01*
X266993Y230027D01*
X266882Y230050D01*
X266771Y230070D01*
X266659Y230086D01*
X266546Y230098D01*
X266433Y230106D01*
X266320Y230110D01*
X266206Y230110D01*
X266093Y230106D01*
X265980Y230098D01*
X265867Y230086D01*
X265755Y230070D01*
X265644Y230050D01*
X265533Y230027D01*
X265423Y229999D01*
X265314Y229968D01*
X265206Y229933D01*
X265100Y229894D01*
X264995Y229852D01*
X264891Y229806D01*
X264789Y229756D01*
X264689Y229703D01*
X264591Y229646D01*
X264495Y229586D01*
X264401Y229523D01*
X264310Y229456D01*
X264220Y229387D01*
X264133Y229314D01*
X264049Y229238D01*
X263968Y229159D01*
X263889Y229078D01*
X263813Y228994D01*
X263740Y228907D01*
X263671Y228818D01*
X263604Y228726D01*
X260626Y224472D01*
X260563Y224378D01*
X260503Y224282D01*
X260446Y224184D01*
X260393Y224084D01*
X260343Y223982D01*
X260297Y223878D01*
X260255Y223773D01*
X260216Y223667D01*
X260181Y223559D01*
X260150Y223450D01*
X260122Y223340D01*
X260099Y223229D01*
X260079Y223118D01*
X260063Y223006D01*
X260051Y222893D01*
X260043Y222780D01*
X260039Y222667D01*
X260039Y222553D01*
X260043Y222440D01*
X260051Y222327D01*
X260063Y222214D01*
X260079Y222102D01*
X260099Y221991D01*
X260122Y221880D01*
X260150Y221770D01*
X260181Y221661D01*
X260216Y221553D01*
X260255Y221447D01*
X260297Y221342D01*
X260343Y221238D01*
X260393Y221136D01*
X260446Y221036D01*
X260503Y220938D01*
X260563Y220842D01*
X260626Y220748D01*
X260693Y220656D01*
X260762Y220567D01*
X260835Y220480D01*
X260911Y220396D01*
X260990Y220315D01*
X261071Y220236D01*
X261155Y220160D01*
X261242Y220087D01*
X261332Y220018D01*
X261423Y219951D01*
X261423Y219952D02*
X264082Y218090D01*
X201649Y335306D02*
X201649Y337254D01*
X195158Y337254D01*
X195158Y333359D01*
X195160Y333260D01*
X195166Y333160D01*
X195175Y333061D01*
X195188Y332963D01*
X195205Y332865D01*
X195226Y332767D01*
X195251Y332671D01*
X195279Y332576D01*
X195311Y332482D01*
X195346Y332389D01*
X195385Y332297D01*
X195428Y332207D01*
X195473Y332119D01*
X195523Y332032D01*
X195575Y331948D01*
X195631Y331865D01*
X195689Y331785D01*
X195751Y331707D01*
X195816Y331632D01*
X195884Y331559D01*
X195954Y331489D01*
X196027Y331421D01*
X196102Y331356D01*
X196180Y331294D01*
X196260Y331236D01*
X196343Y331180D01*
X196427Y331128D01*
X196514Y331078D01*
X196602Y331033D01*
X196692Y330990D01*
X196784Y330951D01*
X196877Y330916D01*
X196971Y330884D01*
X197066Y330856D01*
X197162Y330831D01*
X197260Y330810D01*
X197358Y330793D01*
X197456Y330780D01*
X197555Y330771D01*
X197655Y330765D01*
X197754Y330763D01*
X204246Y330763D01*
X204345Y330765D01*
X204445Y330771D01*
X204544Y330780D01*
X204642Y330793D01*
X204740Y330810D01*
X204838Y330831D01*
X204934Y330856D01*
X205029Y330884D01*
X205123Y330916D01*
X205216Y330951D01*
X205308Y330990D01*
X205398Y331033D01*
X205486Y331078D01*
X205573Y331128D01*
X205657Y331180D01*
X205740Y331236D01*
X205820Y331294D01*
X205898Y331356D01*
X205973Y331421D01*
X206046Y331489D01*
X206116Y331559D01*
X206184Y331632D01*
X206249Y331707D01*
X206311Y331785D01*
X206369Y331865D01*
X206425Y331948D01*
X206477Y332032D01*
X206527Y332119D01*
X206572Y332207D01*
X206615Y332297D01*
X206654Y332389D01*
X206689Y332481D01*
X206721Y332576D01*
X206749Y332671D01*
X206774Y332767D01*
X206795Y332865D01*
X206812Y332963D01*
X206825Y333061D01*
X206834Y333160D01*
X206840Y333260D01*
X206842Y333359D01*
X206842Y337254D01*
X206842Y342954D02*
X195158Y342954D01*
X195158Y349446D02*
X206842Y342954D01*
X206842Y349446D02*
X195158Y349446D01*
X195158Y355146D02*
X206842Y355146D01*
X206842Y358392D01*
X206840Y358505D01*
X206834Y358618D01*
X206824Y358731D01*
X206810Y358844D01*
X206793Y358956D01*
X206771Y359067D01*
X206746Y359177D01*
X206716Y359287D01*
X206683Y359395D01*
X206646Y359502D01*
X206606Y359608D01*
X206561Y359712D01*
X206513Y359815D01*
X206462Y359916D01*
X206407Y360015D01*
X206349Y360112D01*
X206287Y360207D01*
X206222Y360300D01*
X206154Y360390D01*
X206083Y360478D01*
X206008Y360564D01*
X205931Y360647D01*
X205851Y360727D01*
X205768Y360804D01*
X205682Y360879D01*
X205594Y360950D01*
X205504Y361018D01*
X205411Y361083D01*
X205316Y361145D01*
X205219Y361203D01*
X205120Y361258D01*
X205019Y361309D01*
X204916Y361357D01*
X204812Y361402D01*
X204706Y361442D01*
X204599Y361479D01*
X204491Y361512D01*
X204381Y361542D01*
X204271Y361567D01*
X204160Y361589D01*
X204048Y361606D01*
X203935Y361620D01*
X203822Y361630D01*
X203709Y361636D01*
X203596Y361638D01*
X198404Y361638D01*
X198291Y361636D01*
X198178Y361630D01*
X198065Y361620D01*
X197952Y361606D01*
X197840Y361589D01*
X197729Y361567D01*
X197619Y361542D01*
X197509Y361512D01*
X197401Y361479D01*
X197294Y361442D01*
X197188Y361402D01*
X197084Y361357D01*
X196981Y361309D01*
X196880Y361258D01*
X196781Y361203D01*
X196684Y361145D01*
X196589Y361083D01*
X196496Y361018D01*
X196406Y360950D01*
X196318Y360879D01*
X196232Y360804D01*
X196149Y360727D01*
X196069Y360647D01*
X195992Y360564D01*
X195917Y360478D01*
X195846Y360390D01*
X195778Y360300D01*
X195713Y360207D01*
X195651Y360112D01*
X195593Y360015D01*
X195538Y359916D01*
X195487Y359815D01*
X195439Y359712D01*
X195394Y359608D01*
X195354Y359502D01*
X195317Y359395D01*
X195284Y359287D01*
X195254Y359177D01*
X195229Y359067D01*
X195207Y358956D01*
X195190Y358844D01*
X195176Y358731D01*
X195166Y358618D01*
X195160Y358505D01*
X195158Y358392D01*
X195158Y355146D01*
D10*
X485673Y307109D02*
X485673Y289329D01*
X485673Y307109D02*
X480734Y307109D01*
X480594Y307107D01*
X480455Y307101D01*
X480315Y307091D01*
X480176Y307077D01*
X480037Y307060D01*
X479899Y307038D01*
X479762Y307012D01*
X479625Y306983D01*
X479489Y306950D01*
X479355Y306913D01*
X479221Y306872D01*
X479089Y306827D01*
X478957Y306778D01*
X478828Y306726D01*
X478700Y306671D01*
X478573Y306611D01*
X478448Y306548D01*
X478325Y306482D01*
X478204Y306412D01*
X478085Y306339D01*
X477968Y306262D01*
X477854Y306182D01*
X477741Y306099D01*
X477631Y306013D01*
X477524Y305923D01*
X477419Y305831D01*
X477317Y305736D01*
X477217Y305638D01*
X477120Y305537D01*
X477026Y305433D01*
X476936Y305327D01*
X476848Y305218D01*
X476763Y305107D01*
X476682Y304993D01*
X476603Y304878D01*
X476528Y304760D01*
X476457Y304640D01*
X476389Y304517D01*
X476324Y304394D01*
X476263Y304268D01*
X476205Y304140D01*
X476151Y304012D01*
X476101Y303881D01*
X476054Y303749D01*
X476011Y303616D01*
X475972Y303482D01*
X475937Y303347D01*
X475906Y303211D01*
X475878Y303073D01*
X475855Y302936D01*
X475835Y302797D01*
X475819Y302658D01*
X475807Y302519D01*
X475799Y302380D01*
X475795Y302240D01*
X475795Y302100D01*
X475799Y301960D01*
X475807Y301821D01*
X475819Y301682D01*
X475835Y301543D01*
X475855Y301404D01*
X475878Y301267D01*
X475906Y301129D01*
X475937Y300993D01*
X475972Y300858D01*
X476011Y300724D01*
X476054Y300591D01*
X476101Y300459D01*
X476151Y300328D01*
X476205Y300200D01*
X476263Y300072D01*
X476324Y299946D01*
X476389Y299823D01*
X476457Y299701D01*
X476528Y299580D01*
X476603Y299462D01*
X476682Y299347D01*
X476763Y299233D01*
X476848Y299122D01*
X476936Y299013D01*
X477026Y298907D01*
X477120Y298803D01*
X477217Y298702D01*
X477317Y298604D01*
X477419Y298509D01*
X477524Y298417D01*
X477631Y298327D01*
X477741Y298241D01*
X477854Y298158D01*
X477968Y298078D01*
X478085Y298001D01*
X478204Y297928D01*
X478325Y297858D01*
X478448Y297792D01*
X478573Y297729D01*
X478700Y297669D01*
X478828Y297614D01*
X478957Y297562D01*
X479089Y297513D01*
X479221Y297468D01*
X479355Y297427D01*
X479489Y297390D01*
X479625Y297357D01*
X479762Y297328D01*
X479899Y297302D01*
X480037Y297280D01*
X480176Y297263D01*
X480315Y297249D01*
X480455Y297239D01*
X480594Y297233D01*
X480734Y297231D01*
X485673Y297231D01*
X469678Y303158D02*
X464739Y307109D01*
X464739Y289329D01*
X469678Y289329D02*
X459800Y289329D01*
X447430Y296243D02*
X447430Y302170D01*
X447430Y296243D02*
X443973Y291798D01*
X447430Y296243D02*
X450888Y291798D01*
X447430Y296243D02*
X441998Y298219D01*
X447430Y296243D02*
X452863Y298219D01*
X361582Y232751D02*
X361582Y214971D01*
X361582Y232751D02*
X356644Y232751D01*
X356504Y232749D01*
X356365Y232743D01*
X356225Y232733D01*
X356086Y232719D01*
X355947Y232702D01*
X355809Y232680D01*
X355672Y232654D01*
X355535Y232625D01*
X355399Y232592D01*
X355265Y232555D01*
X355131Y232514D01*
X354999Y232469D01*
X354867Y232420D01*
X354738Y232368D01*
X354610Y232313D01*
X354483Y232253D01*
X354358Y232190D01*
X354235Y232124D01*
X354114Y232054D01*
X353995Y231981D01*
X353878Y231904D01*
X353764Y231824D01*
X353651Y231741D01*
X353541Y231655D01*
X353434Y231565D01*
X353329Y231473D01*
X353227Y231378D01*
X353127Y231280D01*
X353030Y231179D01*
X352936Y231075D01*
X352846Y230969D01*
X352758Y230860D01*
X352673Y230749D01*
X352592Y230635D01*
X352513Y230520D01*
X352438Y230402D01*
X352367Y230282D01*
X352299Y230159D01*
X352234Y230036D01*
X352173Y229910D01*
X352115Y229782D01*
X352061Y229654D01*
X352011Y229523D01*
X351964Y229391D01*
X351921Y229258D01*
X351882Y229124D01*
X351847Y228989D01*
X351816Y228853D01*
X351788Y228715D01*
X351765Y228578D01*
X351745Y228439D01*
X351729Y228300D01*
X351717Y228161D01*
X351709Y228022D01*
X351705Y227882D01*
X351705Y227742D01*
X351709Y227602D01*
X351717Y227463D01*
X351729Y227324D01*
X351745Y227185D01*
X351765Y227046D01*
X351788Y226909D01*
X351816Y226771D01*
X351847Y226635D01*
X351882Y226500D01*
X351921Y226366D01*
X351964Y226233D01*
X352011Y226101D01*
X352061Y225970D01*
X352115Y225842D01*
X352173Y225714D01*
X352234Y225588D01*
X352299Y225465D01*
X352367Y225342D01*
X352438Y225222D01*
X352513Y225104D01*
X352592Y224989D01*
X352673Y224875D01*
X352758Y224764D01*
X352846Y224655D01*
X352936Y224549D01*
X353030Y224445D01*
X353127Y224344D01*
X353227Y224246D01*
X353329Y224151D01*
X353434Y224059D01*
X353541Y223969D01*
X353651Y223883D01*
X353764Y223800D01*
X353878Y223720D01*
X353995Y223643D01*
X354114Y223570D01*
X354235Y223500D01*
X354358Y223434D01*
X354483Y223371D01*
X354610Y223311D01*
X354738Y223256D01*
X354867Y223204D01*
X354999Y223155D01*
X355131Y223110D01*
X355265Y223069D01*
X355399Y223032D01*
X355535Y222999D01*
X355672Y222970D01*
X355809Y222944D01*
X355947Y222922D01*
X356086Y222905D01*
X356225Y222891D01*
X356365Y222881D01*
X356504Y222875D01*
X356644Y222873D01*
X361582Y222873D01*
X340155Y232751D02*
X340023Y232749D01*
X339892Y232743D01*
X339760Y232733D01*
X339629Y232720D01*
X339499Y232702D01*
X339369Y232681D01*
X339239Y232656D01*
X339111Y232627D01*
X338983Y232594D01*
X338857Y232557D01*
X338731Y232517D01*
X338607Y232473D01*
X338484Y232425D01*
X338363Y232374D01*
X338243Y232319D01*
X338125Y232261D01*
X338009Y232199D01*
X337895Y232133D01*
X337782Y232065D01*
X337672Y231993D01*
X337564Y231918D01*
X337458Y231839D01*
X337354Y231758D01*
X337253Y231673D01*
X337155Y231586D01*
X337059Y231495D01*
X336966Y231402D01*
X336875Y231306D01*
X336788Y231208D01*
X336703Y231107D01*
X336622Y231003D01*
X336543Y230897D01*
X336468Y230789D01*
X336396Y230679D01*
X336328Y230566D01*
X336262Y230452D01*
X336200Y230336D01*
X336142Y230218D01*
X336087Y230098D01*
X336036Y229977D01*
X335988Y229854D01*
X335944Y229730D01*
X335904Y229604D01*
X335867Y229478D01*
X335834Y229350D01*
X335805Y229222D01*
X335780Y229092D01*
X335759Y228962D01*
X335741Y228832D01*
X335728Y228701D01*
X335718Y228569D01*
X335712Y228438D01*
X335710Y228306D01*
X340155Y232751D02*
X340305Y232749D01*
X340454Y232743D01*
X340603Y232733D01*
X340752Y232720D01*
X340901Y232702D01*
X341049Y232681D01*
X341197Y232655D01*
X341343Y232626D01*
X341489Y232593D01*
X341634Y232556D01*
X341778Y232515D01*
X341921Y232471D01*
X342063Y232423D01*
X342203Y232371D01*
X342342Y232316D01*
X342480Y232257D01*
X342615Y232194D01*
X342750Y232128D01*
X342882Y232058D01*
X343012Y231985D01*
X343141Y231908D01*
X343268Y231828D01*
X343392Y231745D01*
X343514Y231659D01*
X343634Y231569D01*
X343751Y231476D01*
X343866Y231381D01*
X343979Y231282D01*
X344089Y231180D01*
X344196Y231076D01*
X344300Y230969D01*
X344402Y230859D01*
X344500Y230746D01*
X344596Y230631D01*
X344688Y230513D01*
X344778Y230393D01*
X344864Y230271D01*
X344947Y230147D01*
X345027Y230020D01*
X345103Y229892D01*
X345176Y229761D01*
X345246Y229628D01*
X345312Y229494D01*
X345374Y229358D01*
X345433Y229221D01*
X345489Y229082D01*
X345540Y228941D01*
X345588Y228800D01*
X337192Y224849D02*
X337096Y224942D01*
X337004Y225038D01*
X336914Y225137D01*
X336827Y225238D01*
X336743Y225341D01*
X336661Y225446D01*
X336583Y225554D01*
X336508Y225664D01*
X336435Y225776D01*
X336366Y225890D01*
X336300Y226006D01*
X336238Y226124D01*
X336179Y226243D01*
X336123Y226364D01*
X336070Y226487D01*
X336021Y226611D01*
X335976Y226736D01*
X335933Y226863D01*
X335895Y226990D01*
X335860Y227119D01*
X335829Y227248D01*
X335801Y227379D01*
X335777Y227510D01*
X335756Y227642D01*
X335740Y227774D01*
X335727Y227907D01*
X335717Y228040D01*
X335712Y228173D01*
X335710Y228306D01*
X337191Y224849D02*
X345587Y214971D01*
X335710Y214971D01*
X258615Y283108D02*
X258615Y300888D01*
X253677Y300888D01*
X253677Y300889D02*
X253537Y300887D01*
X253398Y300881D01*
X253258Y300871D01*
X253119Y300857D01*
X252980Y300840D01*
X252842Y300818D01*
X252705Y300792D01*
X252568Y300763D01*
X252432Y300730D01*
X252298Y300693D01*
X252164Y300652D01*
X252032Y300607D01*
X251900Y300558D01*
X251771Y300506D01*
X251643Y300451D01*
X251516Y300391D01*
X251391Y300328D01*
X251268Y300262D01*
X251147Y300192D01*
X251028Y300119D01*
X250911Y300042D01*
X250797Y299962D01*
X250684Y299879D01*
X250574Y299793D01*
X250467Y299703D01*
X250362Y299611D01*
X250260Y299516D01*
X250160Y299418D01*
X250063Y299317D01*
X249969Y299213D01*
X249879Y299107D01*
X249791Y298998D01*
X249706Y298887D01*
X249625Y298773D01*
X249546Y298658D01*
X249471Y298540D01*
X249400Y298420D01*
X249332Y298297D01*
X249267Y298174D01*
X249206Y298048D01*
X249148Y297920D01*
X249094Y297792D01*
X249044Y297661D01*
X248997Y297529D01*
X248954Y297396D01*
X248915Y297262D01*
X248880Y297127D01*
X248849Y296991D01*
X248821Y296853D01*
X248798Y296716D01*
X248778Y296577D01*
X248762Y296438D01*
X248750Y296299D01*
X248742Y296160D01*
X248738Y296020D01*
X248738Y295880D01*
X248742Y295740D01*
X248750Y295601D01*
X248762Y295462D01*
X248778Y295323D01*
X248798Y295184D01*
X248821Y295047D01*
X248849Y294909D01*
X248880Y294773D01*
X248915Y294638D01*
X248954Y294504D01*
X248997Y294371D01*
X249044Y294239D01*
X249094Y294108D01*
X249148Y293980D01*
X249206Y293852D01*
X249267Y293726D01*
X249332Y293603D01*
X249400Y293481D01*
X249471Y293360D01*
X249546Y293242D01*
X249625Y293127D01*
X249706Y293013D01*
X249791Y292902D01*
X249879Y292793D01*
X249969Y292687D01*
X250063Y292583D01*
X250160Y292482D01*
X250260Y292384D01*
X250362Y292289D01*
X250467Y292197D01*
X250574Y292107D01*
X250684Y292021D01*
X250797Y291938D01*
X250911Y291858D01*
X251028Y291781D01*
X251147Y291708D01*
X251268Y291638D01*
X251391Y291572D01*
X251516Y291509D01*
X251643Y291449D01*
X251771Y291394D01*
X251900Y291342D01*
X252032Y291293D01*
X252164Y291248D01*
X252298Y291207D01*
X252432Y291170D01*
X252568Y291137D01*
X252705Y291108D01*
X252842Y291082D01*
X252980Y291060D01*
X253119Y291043D01*
X253258Y291029D01*
X253398Y291019D01*
X253537Y291013D01*
X253677Y291011D01*
X258615Y291011D01*
X242620Y283108D02*
X237682Y283108D01*
X237542Y283110D01*
X237403Y283116D01*
X237263Y283126D01*
X237124Y283140D01*
X236985Y283157D01*
X236847Y283179D01*
X236710Y283205D01*
X236573Y283234D01*
X236437Y283267D01*
X236303Y283304D01*
X236169Y283345D01*
X236037Y283390D01*
X235905Y283439D01*
X235776Y283491D01*
X235648Y283546D01*
X235521Y283606D01*
X235396Y283669D01*
X235273Y283735D01*
X235152Y283805D01*
X235033Y283878D01*
X234916Y283955D01*
X234802Y284035D01*
X234689Y284118D01*
X234579Y284204D01*
X234472Y284294D01*
X234367Y284386D01*
X234265Y284481D01*
X234165Y284579D01*
X234068Y284680D01*
X233974Y284784D01*
X233884Y284890D01*
X233796Y284999D01*
X233711Y285110D01*
X233630Y285224D01*
X233551Y285339D01*
X233476Y285457D01*
X233405Y285578D01*
X233337Y285700D01*
X233272Y285823D01*
X233211Y285949D01*
X233153Y286077D01*
X233099Y286205D01*
X233049Y286336D01*
X233002Y286468D01*
X232959Y286601D01*
X232920Y286735D01*
X232885Y286870D01*
X232854Y287006D01*
X232826Y287144D01*
X232803Y287281D01*
X232783Y287420D01*
X232767Y287559D01*
X232755Y287698D01*
X232747Y287837D01*
X232743Y287977D01*
X232743Y288117D01*
X232747Y288257D01*
X232755Y288396D01*
X232767Y288535D01*
X232783Y288674D01*
X232803Y288813D01*
X232826Y288950D01*
X232854Y289088D01*
X232885Y289224D01*
X232920Y289359D01*
X232959Y289493D01*
X233002Y289626D01*
X233049Y289758D01*
X233099Y289889D01*
X233153Y290017D01*
X233211Y290145D01*
X233272Y290271D01*
X233337Y290394D01*
X233405Y290517D01*
X233476Y290637D01*
X233551Y290755D01*
X233630Y290870D01*
X233711Y290984D01*
X233796Y291095D01*
X233884Y291204D01*
X233974Y291310D01*
X234068Y291414D01*
X234165Y291515D01*
X234265Y291613D01*
X234367Y291708D01*
X234472Y291800D01*
X234579Y291890D01*
X234689Y291976D01*
X234802Y292059D01*
X234916Y292139D01*
X235033Y292216D01*
X235152Y292289D01*
X235273Y292359D01*
X235396Y292425D01*
X235521Y292488D01*
X235648Y292548D01*
X235776Y292603D01*
X235905Y292655D01*
X236037Y292704D01*
X236169Y292749D01*
X236303Y292790D01*
X236437Y292827D01*
X236573Y292860D01*
X236710Y292889D01*
X236847Y292915D01*
X236985Y292937D01*
X237124Y292954D01*
X237263Y292968D01*
X237403Y292978D01*
X237542Y292984D01*
X237682Y292986D01*
X236694Y300888D02*
X242620Y300888D01*
X236694Y300888D02*
X236570Y300886D01*
X236446Y300880D01*
X236322Y300870D01*
X236199Y300857D01*
X236076Y300839D01*
X235954Y300818D01*
X235832Y300793D01*
X235711Y300764D01*
X235592Y300731D01*
X235473Y300695D01*
X235356Y300654D01*
X235240Y300611D01*
X235125Y300563D01*
X235012Y300512D01*
X234900Y300457D01*
X234791Y300399D01*
X234683Y300338D01*
X234577Y300273D01*
X234473Y300205D01*
X234372Y300133D01*
X234272Y300059D01*
X234176Y299981D01*
X234081Y299901D01*
X233989Y299817D01*
X233900Y299731D01*
X233814Y299642D01*
X233730Y299550D01*
X233650Y299455D01*
X233572Y299359D01*
X233498Y299259D01*
X233426Y299158D01*
X233358Y299054D01*
X233293Y298948D01*
X233232Y298840D01*
X233174Y298731D01*
X233119Y298619D01*
X233068Y298506D01*
X233020Y298391D01*
X232977Y298275D01*
X232936Y298158D01*
X232900Y298039D01*
X232867Y297920D01*
X232838Y297799D01*
X232813Y297677D01*
X232792Y297555D01*
X232774Y297432D01*
X232761Y297309D01*
X232751Y297185D01*
X232745Y297061D01*
X232743Y296937D01*
X232745Y296813D01*
X232751Y296689D01*
X232761Y296565D01*
X232774Y296442D01*
X232792Y296319D01*
X232813Y296197D01*
X232838Y296075D01*
X232867Y295954D01*
X232900Y295835D01*
X232936Y295716D01*
X232977Y295599D01*
X233020Y295483D01*
X233068Y295368D01*
X233119Y295255D01*
X233174Y295143D01*
X233232Y295034D01*
X233293Y294926D01*
X233358Y294820D01*
X233426Y294716D01*
X233498Y294615D01*
X233572Y294515D01*
X233650Y294419D01*
X233730Y294324D01*
X233814Y294232D01*
X233900Y294143D01*
X233989Y294057D01*
X234081Y293973D01*
X234176Y293893D01*
X234272Y293815D01*
X234372Y293741D01*
X234473Y293669D01*
X234577Y293601D01*
X234683Y293536D01*
X234791Y293475D01*
X234900Y293417D01*
X235012Y293362D01*
X235125Y293311D01*
X235240Y293263D01*
X235356Y293220D01*
X235473Y293179D01*
X235592Y293143D01*
X235711Y293110D01*
X235832Y293081D01*
X235954Y293056D01*
X236076Y293035D01*
X236199Y293017D01*
X236322Y293004D01*
X236446Y292994D01*
X236570Y292988D01*
X236694Y292986D01*
X240645Y292986D01*
X382018Y367030D02*
X382018Y384810D01*
X382018Y376908D02*
X372141Y376908D01*
X372141Y384810D02*
X372141Y367030D01*
X354832Y380365D02*
X354834Y380497D01*
X354840Y380628D01*
X354850Y380760D01*
X354863Y380891D01*
X354881Y381021D01*
X354902Y381151D01*
X354927Y381281D01*
X354956Y381409D01*
X354989Y381537D01*
X355026Y381663D01*
X355066Y381789D01*
X355110Y381913D01*
X355158Y382036D01*
X355209Y382157D01*
X355264Y382277D01*
X355322Y382395D01*
X355384Y382511D01*
X355450Y382625D01*
X355518Y382738D01*
X355590Y382848D01*
X355665Y382956D01*
X355744Y383062D01*
X355825Y383166D01*
X355910Y383267D01*
X355997Y383365D01*
X356088Y383461D01*
X356181Y383554D01*
X356277Y383645D01*
X356375Y383732D01*
X356476Y383817D01*
X356580Y383898D01*
X356686Y383977D01*
X356794Y384052D01*
X356904Y384124D01*
X357017Y384192D01*
X357131Y384258D01*
X357247Y384320D01*
X357365Y384378D01*
X357485Y384433D01*
X357606Y384484D01*
X357729Y384532D01*
X357853Y384576D01*
X357979Y384616D01*
X358105Y384653D01*
X358233Y384686D01*
X358361Y384715D01*
X358491Y384740D01*
X358621Y384761D01*
X358751Y384779D01*
X358882Y384792D01*
X359014Y384802D01*
X359145Y384808D01*
X359277Y384810D01*
X359427Y384808D01*
X359576Y384802D01*
X359725Y384792D01*
X359874Y384779D01*
X360023Y384761D01*
X360171Y384740D01*
X360319Y384714D01*
X360465Y384685D01*
X360611Y384652D01*
X360756Y384615D01*
X360900Y384574D01*
X361043Y384530D01*
X361185Y384482D01*
X361325Y384430D01*
X361464Y384375D01*
X361602Y384316D01*
X361737Y384253D01*
X361872Y384187D01*
X362004Y384117D01*
X362134Y384044D01*
X362263Y383967D01*
X362390Y383887D01*
X362514Y383804D01*
X362636Y383718D01*
X362756Y383628D01*
X362873Y383535D01*
X362988Y383440D01*
X363101Y383341D01*
X363211Y383239D01*
X363318Y383135D01*
X363422Y383028D01*
X363524Y382918D01*
X363622Y382805D01*
X363718Y382690D01*
X363810Y382572D01*
X363900Y382452D01*
X363986Y382330D01*
X364069Y382206D01*
X364149Y382079D01*
X364225Y381951D01*
X364298Y381820D01*
X364368Y381687D01*
X364434Y381553D01*
X364496Y381417D01*
X364555Y381280D01*
X364611Y381141D01*
X364662Y381000D01*
X364710Y380859D01*
X356314Y376908D02*
X356218Y377001D01*
X356126Y377097D01*
X356036Y377196D01*
X355949Y377297D01*
X355865Y377400D01*
X355783Y377505D01*
X355705Y377613D01*
X355630Y377723D01*
X355557Y377835D01*
X355488Y377949D01*
X355422Y378065D01*
X355360Y378183D01*
X355301Y378302D01*
X355245Y378423D01*
X355192Y378546D01*
X355143Y378670D01*
X355098Y378795D01*
X355055Y378922D01*
X355017Y379049D01*
X354982Y379178D01*
X354951Y379307D01*
X354923Y379438D01*
X354899Y379569D01*
X354878Y379701D01*
X354862Y379833D01*
X354849Y379966D01*
X354839Y380099D01*
X354834Y380232D01*
X354832Y380365D01*
X356313Y376908D02*
X364710Y367030D01*
X354832Y367030D01*
X348947Y367030D02*
X343020Y384810D01*
X337094Y367030D01*
X338575Y371475D02*
X347465Y371475D01*
X330565Y367030D02*
X330565Y384810D01*
X325626Y384810D01*
X325486Y384808D01*
X325347Y384802D01*
X325207Y384792D01*
X325068Y384778D01*
X324929Y384761D01*
X324791Y384739D01*
X324654Y384713D01*
X324517Y384684D01*
X324381Y384651D01*
X324247Y384614D01*
X324113Y384573D01*
X323981Y384528D01*
X323849Y384479D01*
X323720Y384427D01*
X323592Y384372D01*
X323465Y384312D01*
X323340Y384249D01*
X323217Y384183D01*
X323096Y384113D01*
X322977Y384040D01*
X322860Y383963D01*
X322746Y383883D01*
X322633Y383800D01*
X322523Y383714D01*
X322416Y383624D01*
X322311Y383532D01*
X322209Y383437D01*
X322109Y383339D01*
X322012Y383238D01*
X321918Y383134D01*
X321828Y383028D01*
X321740Y382919D01*
X321655Y382808D01*
X321574Y382694D01*
X321495Y382579D01*
X321420Y382461D01*
X321349Y382341D01*
X321281Y382218D01*
X321216Y382095D01*
X321155Y381969D01*
X321097Y381841D01*
X321043Y381713D01*
X320993Y381582D01*
X320946Y381450D01*
X320903Y381317D01*
X320864Y381183D01*
X320829Y381048D01*
X320798Y380912D01*
X320770Y380774D01*
X320747Y380637D01*
X320727Y380498D01*
X320711Y380359D01*
X320699Y380220D01*
X320691Y380081D01*
X320687Y379941D01*
X320687Y379801D01*
X320691Y379661D01*
X320699Y379522D01*
X320711Y379383D01*
X320727Y379244D01*
X320747Y379105D01*
X320770Y378968D01*
X320798Y378830D01*
X320829Y378694D01*
X320864Y378559D01*
X320903Y378425D01*
X320946Y378292D01*
X320993Y378160D01*
X321043Y378029D01*
X321097Y377901D01*
X321155Y377773D01*
X321216Y377647D01*
X321281Y377524D01*
X321349Y377402D01*
X321420Y377281D01*
X321495Y377163D01*
X321574Y377048D01*
X321655Y376934D01*
X321740Y376823D01*
X321828Y376714D01*
X321918Y376608D01*
X322012Y376504D01*
X322109Y376403D01*
X322209Y376305D01*
X322311Y376210D01*
X322416Y376118D01*
X322523Y376028D01*
X322633Y375942D01*
X322746Y375859D01*
X322860Y375779D01*
X322977Y375702D01*
X323096Y375629D01*
X323217Y375559D01*
X323340Y375493D01*
X323465Y375430D01*
X323592Y375370D01*
X323720Y375315D01*
X323849Y375263D01*
X323981Y375214D01*
X324113Y375169D01*
X324247Y375128D01*
X324381Y375091D01*
X324517Y375058D01*
X324654Y375029D01*
X324791Y375003D01*
X324929Y374981D01*
X325068Y374964D01*
X325207Y374950D01*
X325347Y374940D01*
X325486Y374934D01*
X325626Y374932D01*
X330565Y374932D01*
X324638Y374932D02*
X320687Y367030D01*
X313900Y367030D02*
X308961Y367030D01*
X308821Y367032D01*
X308682Y367038D01*
X308542Y367048D01*
X308403Y367062D01*
X308264Y367079D01*
X308126Y367101D01*
X307989Y367127D01*
X307852Y367156D01*
X307716Y367189D01*
X307582Y367226D01*
X307448Y367267D01*
X307316Y367312D01*
X307184Y367361D01*
X307055Y367413D01*
X306927Y367468D01*
X306800Y367528D01*
X306675Y367591D01*
X306552Y367657D01*
X306431Y367727D01*
X306312Y367800D01*
X306195Y367877D01*
X306081Y367957D01*
X305968Y368040D01*
X305858Y368126D01*
X305751Y368216D01*
X305646Y368308D01*
X305544Y368403D01*
X305444Y368501D01*
X305347Y368602D01*
X305253Y368706D01*
X305163Y368812D01*
X305075Y368921D01*
X304990Y369032D01*
X304909Y369146D01*
X304830Y369261D01*
X304755Y369379D01*
X304684Y369500D01*
X304616Y369622D01*
X304551Y369745D01*
X304490Y369871D01*
X304432Y369999D01*
X304378Y370127D01*
X304328Y370258D01*
X304281Y370390D01*
X304238Y370523D01*
X304199Y370657D01*
X304164Y370792D01*
X304133Y370928D01*
X304105Y371066D01*
X304082Y371203D01*
X304062Y371342D01*
X304046Y371481D01*
X304034Y371620D01*
X304026Y371759D01*
X304022Y371899D01*
X304022Y372039D01*
X304026Y372179D01*
X304034Y372318D01*
X304046Y372457D01*
X304062Y372596D01*
X304082Y372735D01*
X304105Y372872D01*
X304133Y373010D01*
X304164Y373146D01*
X304199Y373281D01*
X304238Y373415D01*
X304281Y373548D01*
X304328Y373680D01*
X304378Y373811D01*
X304432Y373939D01*
X304490Y374067D01*
X304551Y374193D01*
X304616Y374316D01*
X304684Y374439D01*
X304755Y374559D01*
X304830Y374677D01*
X304909Y374792D01*
X304990Y374906D01*
X305075Y375017D01*
X305163Y375126D01*
X305253Y375232D01*
X305347Y375336D01*
X305444Y375437D01*
X305544Y375535D01*
X305646Y375630D01*
X305751Y375722D01*
X305858Y375812D01*
X305968Y375898D01*
X306081Y375981D01*
X306195Y376061D01*
X306312Y376138D01*
X306431Y376211D01*
X306552Y376281D01*
X306675Y376347D01*
X306800Y376410D01*
X306927Y376470D01*
X307055Y376525D01*
X307184Y376577D01*
X307316Y376626D01*
X307448Y376671D01*
X307582Y376712D01*
X307716Y376749D01*
X307852Y376782D01*
X307989Y376811D01*
X308126Y376837D01*
X308264Y376859D01*
X308403Y376876D01*
X308542Y376890D01*
X308682Y376900D01*
X308821Y376906D01*
X308961Y376908D01*
X307973Y384810D02*
X313900Y384810D01*
X307973Y384810D02*
X307849Y384808D01*
X307725Y384802D01*
X307601Y384792D01*
X307478Y384779D01*
X307355Y384761D01*
X307233Y384740D01*
X307111Y384715D01*
X306990Y384686D01*
X306871Y384653D01*
X306752Y384617D01*
X306635Y384576D01*
X306519Y384533D01*
X306404Y384485D01*
X306291Y384434D01*
X306179Y384379D01*
X306070Y384321D01*
X305962Y384260D01*
X305856Y384195D01*
X305752Y384127D01*
X305651Y384055D01*
X305551Y383981D01*
X305455Y383903D01*
X305360Y383823D01*
X305268Y383739D01*
X305179Y383653D01*
X305093Y383564D01*
X305009Y383472D01*
X304929Y383377D01*
X304851Y383281D01*
X304777Y383181D01*
X304705Y383080D01*
X304637Y382976D01*
X304572Y382870D01*
X304511Y382762D01*
X304453Y382653D01*
X304398Y382541D01*
X304347Y382428D01*
X304299Y382313D01*
X304256Y382197D01*
X304215Y382080D01*
X304179Y381961D01*
X304146Y381842D01*
X304117Y381721D01*
X304092Y381599D01*
X304071Y381477D01*
X304053Y381354D01*
X304040Y381231D01*
X304030Y381107D01*
X304024Y380983D01*
X304022Y380859D01*
X304024Y380735D01*
X304030Y380611D01*
X304040Y380487D01*
X304053Y380364D01*
X304071Y380241D01*
X304092Y380119D01*
X304117Y379997D01*
X304146Y379876D01*
X304179Y379757D01*
X304215Y379638D01*
X304256Y379521D01*
X304299Y379405D01*
X304347Y379290D01*
X304398Y379177D01*
X304453Y379065D01*
X304511Y378956D01*
X304572Y378848D01*
X304637Y378742D01*
X304705Y378638D01*
X304777Y378537D01*
X304851Y378437D01*
X304929Y378341D01*
X305009Y378246D01*
X305093Y378154D01*
X305179Y378065D01*
X305268Y377979D01*
X305360Y377895D01*
X305455Y377815D01*
X305551Y377737D01*
X305651Y377663D01*
X305752Y377591D01*
X305856Y377523D01*
X305962Y377458D01*
X306070Y377397D01*
X306179Y377339D01*
X306291Y377284D01*
X306404Y377233D01*
X306519Y377185D01*
X306635Y377142D01*
X306752Y377101D01*
X306871Y377065D01*
X306990Y377032D01*
X307111Y377003D01*
X307233Y376978D01*
X307355Y376957D01*
X307478Y376939D01*
X307601Y376926D01*
X307725Y376916D01*
X307849Y376910D01*
X307973Y376908D01*
X311924Y376908D01*
X297149Y375920D02*
X297145Y376270D01*
X297132Y376619D01*
X297111Y376968D01*
X297082Y377317D01*
X297045Y377665D01*
X296999Y378012D01*
X296945Y378357D01*
X296883Y378701D01*
X296812Y379044D01*
X296733Y379385D01*
X296647Y379724D01*
X296552Y380060D01*
X296449Y380395D01*
X296338Y380726D01*
X296220Y381056D01*
X296093Y381382D01*
X295959Y381705D01*
X295817Y382024D01*
X295667Y382341D01*
X295668Y382340D02*
X295628Y382453D01*
X295584Y382563D01*
X295536Y382673D01*
X295485Y382780D01*
X295430Y382886D01*
X295372Y382991D01*
X295310Y383093D01*
X295245Y383193D01*
X295177Y383291D01*
X295106Y383387D01*
X295031Y383480D01*
X294954Y383571D01*
X294874Y383659D01*
X294791Y383744D01*
X294705Y383827D01*
X294616Y383907D01*
X294525Y383984D01*
X294431Y384058D01*
X294335Y384129D01*
X294237Y384197D01*
X294137Y384261D01*
X294034Y384323D01*
X293930Y384380D01*
X293824Y384435D01*
X293716Y384486D01*
X293606Y384533D01*
X293495Y384577D01*
X293383Y384617D01*
X293269Y384653D01*
X293155Y384686D01*
X293039Y384715D01*
X292922Y384740D01*
X292805Y384761D01*
X292687Y384779D01*
X292568Y384792D01*
X292449Y384802D01*
X292330Y384808D01*
X292211Y384810D01*
X292092Y384808D01*
X291973Y384802D01*
X291854Y384792D01*
X291735Y384779D01*
X291617Y384761D01*
X291500Y384740D01*
X291383Y384715D01*
X291267Y384686D01*
X291153Y384653D01*
X291039Y384617D01*
X290927Y384577D01*
X290816Y384533D01*
X290706Y384486D01*
X290598Y384435D01*
X290492Y384380D01*
X290388Y384323D01*
X290285Y384261D01*
X290185Y384197D01*
X290087Y384129D01*
X289991Y384058D01*
X289897Y383984D01*
X289806Y383907D01*
X289717Y383827D01*
X289632Y383744D01*
X289548Y383659D01*
X289468Y383571D01*
X289391Y383480D01*
X289316Y383387D01*
X289245Y383291D01*
X289177Y383193D01*
X289112Y383093D01*
X289050Y382991D01*
X288992Y382886D01*
X288937Y382781D01*
X288886Y382673D01*
X288838Y382563D01*
X288794Y382453D01*
X288754Y382340D01*
X288754Y382341D02*
X288604Y382024D01*
X288462Y381705D01*
X288328Y381382D01*
X288201Y381056D01*
X288083Y380726D01*
X287972Y380395D01*
X287869Y380060D01*
X287774Y379724D01*
X287688Y379385D01*
X287609Y379044D01*
X287538Y378701D01*
X287476Y378357D01*
X287422Y378012D01*
X287376Y377665D01*
X287339Y377317D01*
X287310Y376968D01*
X287289Y376619D01*
X287276Y376270D01*
X287272Y375920D01*
X297149Y375920D02*
X297145Y375570D01*
X297132Y375221D01*
X297111Y374872D01*
X297082Y374523D01*
X297045Y374175D01*
X296999Y373828D01*
X296945Y373483D01*
X296883Y373139D01*
X296812Y372796D01*
X296733Y372455D01*
X296647Y372116D01*
X296552Y371780D01*
X296449Y371445D01*
X296338Y371114D01*
X296220Y370785D01*
X296093Y370458D01*
X295959Y370135D01*
X295817Y369816D01*
X295667Y369500D01*
X295668Y369500D02*
X295628Y369387D01*
X295584Y369277D01*
X295536Y369167D01*
X295485Y369060D01*
X295430Y368954D01*
X295372Y368849D01*
X295310Y368747D01*
X295245Y368647D01*
X295177Y368549D01*
X295106Y368453D01*
X295031Y368360D01*
X294954Y368269D01*
X294874Y368181D01*
X294791Y368096D01*
X294705Y368013D01*
X294616Y367933D01*
X294525Y367856D01*
X294431Y367782D01*
X294335Y367711D01*
X294237Y367643D01*
X294137Y367579D01*
X294034Y367517D01*
X293930Y367460D01*
X293824Y367405D01*
X293716Y367354D01*
X293606Y367307D01*
X293495Y367263D01*
X293383Y367223D01*
X293269Y367187D01*
X293155Y367154D01*
X293039Y367125D01*
X292922Y367100D01*
X292805Y367079D01*
X292687Y367061D01*
X292568Y367048D01*
X292449Y367038D01*
X292330Y367032D01*
X292211Y367030D01*
X288754Y369500D02*
X288604Y369816D01*
X288462Y370135D01*
X288328Y370458D01*
X288201Y370785D01*
X288083Y371114D01*
X287972Y371445D01*
X287869Y371780D01*
X287774Y372116D01*
X287688Y372455D01*
X287609Y372796D01*
X287538Y373139D01*
X287476Y373483D01*
X287422Y373828D01*
X287376Y374175D01*
X287339Y374523D01*
X287310Y374872D01*
X287289Y375221D01*
X287276Y375570D01*
X287272Y375920D01*
X288754Y369500D02*
X288794Y369387D01*
X288838Y369277D01*
X288886Y369167D01*
X288937Y369059D01*
X288992Y368953D01*
X289050Y368849D01*
X289112Y368747D01*
X289177Y368647D01*
X289245Y368549D01*
X289316Y368453D01*
X289391Y368360D01*
X289468Y368269D01*
X289548Y368181D01*
X289632Y368096D01*
X289717Y368013D01*
X289806Y367933D01*
X289897Y367856D01*
X289991Y367782D01*
X290087Y367711D01*
X290185Y367643D01*
X290285Y367579D01*
X290388Y367517D01*
X290492Y367459D01*
X290598Y367405D01*
X290706Y367354D01*
X290816Y367307D01*
X290927Y367263D01*
X291039Y367223D01*
X291153Y367187D01*
X291267Y367154D01*
X291383Y367125D01*
X291500Y367100D01*
X291617Y367079D01*
X291735Y367061D01*
X291854Y367048D01*
X291973Y367038D01*
X292092Y367032D01*
X292211Y367030D01*
X296162Y370981D02*
X288259Y380859D01*
X267545Y466081D02*
X253467Y474209D01*
X251209Y470299D01*
X251144Y470182D01*
X251082Y470063D01*
X251024Y469943D01*
X250969Y469821D01*
X250918Y469697D01*
X250871Y469572D01*
X250828Y469445D01*
X250788Y469317D01*
X250752Y469188D01*
X250720Y469058D01*
X250692Y468927D01*
X250668Y468796D01*
X250647Y468664D01*
X250631Y468531D01*
X250618Y468398D01*
X250610Y468264D01*
X250605Y468130D01*
X250604Y467996D01*
X250608Y467863D01*
X250615Y467729D01*
X250626Y467596D01*
X250641Y467463D01*
X250660Y467330D01*
X250683Y467198D01*
X250710Y467067D01*
X250741Y466937D01*
X250776Y466808D01*
X250814Y466679D01*
X250856Y466552D01*
X250902Y466427D01*
X250952Y466302D01*
X251005Y466180D01*
X251062Y466059D01*
X251123Y465939D01*
X251187Y465822D01*
X251254Y465706D01*
X251325Y465593D01*
X251400Y465481D01*
X251477Y465372D01*
X251558Y465265D01*
X251642Y465161D01*
X251728Y465059D01*
X251818Y464960D01*
X251911Y464864D01*
X252007Y464770D01*
X252105Y464679D01*
X252206Y464591D01*
X252309Y464506D01*
X252415Y464425D01*
X252524Y464346D01*
X252634Y464271D01*
X252747Y464199D01*
X252862Y464130D01*
X252979Y464065D01*
X253098Y464003D01*
X253218Y463945D01*
X253340Y463890D01*
X253464Y463840D01*
X253589Y463792D01*
X253716Y463749D01*
X253844Y463709D01*
X253973Y463673D01*
X254103Y463641D01*
X254233Y463613D01*
X254365Y463589D01*
X254497Y463568D01*
X254630Y463552D01*
X254763Y463539D01*
X254897Y463531D01*
X255031Y463526D01*
X255165Y463525D01*
X255298Y463529D01*
X255432Y463536D01*
X255565Y463547D01*
X255698Y463562D01*
X255831Y463581D01*
X255963Y463604D01*
X256094Y463631D01*
X256224Y463662D01*
X256353Y463697D01*
X256482Y463735D01*
X256609Y463777D01*
X256734Y463823D01*
X256858Y463873D01*
X256981Y463926D01*
X257102Y463983D01*
X257222Y464044D01*
X257339Y464108D01*
X257455Y464175D01*
X257568Y464246D01*
X257680Y464320D01*
X257789Y464398D01*
X257896Y464479D01*
X258000Y464562D01*
X258102Y464649D01*
X258201Y464739D01*
X258297Y464832D01*
X258391Y464928D01*
X258482Y465026D01*
X258570Y465127D01*
X258655Y465230D01*
X258736Y465336D01*
X258815Y465445D01*
X258890Y465555D01*
X258962Y465668D01*
X259031Y465783D01*
X259030Y465783D02*
X261288Y469694D01*
X259835Y452727D02*
X245757Y460855D01*
X252014Y457243D02*
X247498Y449421D01*
X241241Y453034D02*
X255319Y444906D01*
X239174Y415897D02*
X225096Y424025D01*
X234659Y408076D01*
X220581Y416204D01*
X436732Y446280D02*
X438539Y443151D01*
X438600Y443050D01*
X438664Y442950D01*
X438731Y442853D01*
X438801Y442758D01*
X438875Y442666D01*
X438951Y442575D01*
X439031Y442488D01*
X439113Y442403D01*
X439198Y442321D01*
X439285Y442241D01*
X439376Y442165D01*
X439468Y442091D01*
X439563Y442021D01*
X439660Y441954D01*
X439760Y441890D01*
X439861Y441829D01*
X439964Y441771D01*
X440069Y441717D01*
X440176Y441667D01*
X440285Y441620D01*
X440395Y441576D01*
X440506Y441537D01*
X440619Y441501D01*
X440732Y441468D01*
X440847Y441439D01*
X440962Y441414D01*
X441079Y441393D01*
X441196Y441376D01*
X441313Y441362D01*
X441431Y441353D01*
X441549Y441347D01*
X441667Y441345D01*
X441785Y441347D01*
X441903Y441353D01*
X442021Y441362D01*
X442138Y441376D01*
X442255Y441393D01*
X442372Y441414D01*
X442487Y441439D01*
X442602Y441468D01*
X442716Y441501D01*
X442828Y441537D01*
X442939Y441577D01*
X443049Y441620D01*
X443158Y441667D01*
X443265Y441718D01*
X443370Y441772D01*
X443473Y441829D01*
X451295Y446344D01*
X451294Y446345D02*
X451395Y446406D01*
X451495Y446470D01*
X451592Y446537D01*
X451687Y446607D01*
X451779Y446681D01*
X451870Y446757D01*
X451957Y446837D01*
X452042Y446919D01*
X452124Y447004D01*
X452204Y447091D01*
X452280Y447182D01*
X452354Y447274D01*
X452424Y447369D01*
X452491Y447466D01*
X452555Y447566D01*
X452616Y447667D01*
X452673Y447770D01*
X452727Y447875D01*
X452778Y447982D01*
X452825Y448091D01*
X452868Y448201D01*
X452908Y448312D01*
X452944Y448424D01*
X452977Y448538D01*
X453006Y448653D01*
X453031Y448768D01*
X453052Y448885D01*
X453069Y449002D01*
X453083Y449119D01*
X453092Y449237D01*
X453098Y449355D01*
X453100Y449473D01*
X453098Y449591D01*
X453092Y449709D01*
X453083Y449827D01*
X453069Y449944D01*
X453052Y450061D01*
X453031Y450178D01*
X453006Y450293D01*
X452977Y450408D01*
X452944Y450521D01*
X452908Y450634D01*
X452869Y450745D01*
X452825Y450855D01*
X452778Y450964D01*
X452728Y451071D01*
X452674Y451176D01*
X452616Y451279D01*
X452617Y451279D02*
X450811Y454408D01*
X446154Y462474D02*
X432075Y454346D01*
X448411Y458563D02*
X443896Y466384D01*
X437988Y469392D02*
X438859Y475108D01*
X424781Y466980D01*
X427039Y463070D02*
X422523Y470891D01*
X464672Y396750D02*
X466479Y393621D01*
X466540Y393520D01*
X466604Y393420D01*
X466671Y393323D01*
X466741Y393228D01*
X466815Y393136D01*
X466891Y393045D01*
X466971Y392958D01*
X467053Y392873D01*
X467138Y392791D01*
X467225Y392711D01*
X467316Y392635D01*
X467408Y392561D01*
X467503Y392491D01*
X467600Y392424D01*
X467700Y392360D01*
X467801Y392299D01*
X467904Y392241D01*
X468009Y392187D01*
X468116Y392137D01*
X468225Y392090D01*
X468335Y392046D01*
X468446Y392007D01*
X468559Y391971D01*
X468672Y391938D01*
X468787Y391909D01*
X468902Y391884D01*
X469019Y391863D01*
X469136Y391846D01*
X469253Y391832D01*
X469371Y391823D01*
X469489Y391817D01*
X469607Y391815D01*
X469725Y391817D01*
X469843Y391823D01*
X469961Y391832D01*
X470078Y391846D01*
X470195Y391863D01*
X470312Y391884D01*
X470427Y391909D01*
X470542Y391938D01*
X470656Y391971D01*
X470768Y392007D01*
X470879Y392047D01*
X470989Y392090D01*
X471098Y392137D01*
X471205Y392188D01*
X471310Y392242D01*
X471413Y392299D01*
X479235Y396814D01*
X479234Y396815D02*
X479335Y396876D01*
X479435Y396940D01*
X479532Y397007D01*
X479627Y397077D01*
X479719Y397151D01*
X479810Y397227D01*
X479897Y397307D01*
X479982Y397389D01*
X480064Y397474D01*
X480144Y397561D01*
X480220Y397652D01*
X480294Y397744D01*
X480364Y397839D01*
X480431Y397936D01*
X480495Y398036D01*
X480556Y398137D01*
X480613Y398240D01*
X480667Y398345D01*
X480718Y398452D01*
X480765Y398561D01*
X480808Y398671D01*
X480848Y398782D01*
X480884Y398894D01*
X480917Y399008D01*
X480946Y399123D01*
X480971Y399238D01*
X480992Y399355D01*
X481009Y399472D01*
X481023Y399589D01*
X481032Y399707D01*
X481038Y399825D01*
X481040Y399943D01*
X481038Y400061D01*
X481032Y400179D01*
X481023Y400297D01*
X481009Y400414D01*
X480992Y400531D01*
X480971Y400648D01*
X480946Y400763D01*
X480917Y400878D01*
X480884Y400991D01*
X480848Y401104D01*
X480809Y401215D01*
X480765Y401325D01*
X480718Y401434D01*
X480668Y401541D01*
X480614Y401646D01*
X480556Y401749D01*
X480557Y401749D02*
X478751Y404878D01*
X474094Y412944D02*
X460015Y404816D01*
X476351Y409033D02*
X471836Y416854D01*
X466574Y425969D02*
X466509Y426076D01*
X466442Y426182D01*
X466371Y426285D01*
X466297Y426386D01*
X466220Y426485D01*
X466140Y426581D01*
X466057Y426675D01*
X465972Y426766D01*
X465883Y426855D01*
X465792Y426940D01*
X465698Y427023D01*
X465602Y427103D01*
X465503Y427180D01*
X465402Y427254D01*
X465299Y427325D01*
X465193Y427392D01*
X465086Y427457D01*
X464977Y427517D01*
X464865Y427575D01*
X464753Y427629D01*
X464638Y427680D01*
X464522Y427727D01*
X464405Y427770D01*
X464286Y427810D01*
X464166Y427846D01*
X464045Y427878D01*
X463923Y427907D01*
X463801Y427932D01*
X463677Y427953D01*
X463553Y427970D01*
X463429Y427984D01*
X463304Y427993D01*
X463179Y427999D01*
X463054Y428001D01*
X462929Y427999D01*
X462804Y427993D01*
X462679Y427984D01*
X462555Y427970D01*
X462431Y427953D01*
X462307Y427932D01*
X462185Y427907D01*
X462063Y427878D01*
X461942Y427846D01*
X461822Y427810D01*
X461703Y427770D01*
X461586Y427727D01*
X461470Y427680D01*
X461355Y427629D01*
X461243Y427575D01*
X461131Y427517D01*
X461022Y427457D01*
X466573Y425970D02*
X466643Y425845D01*
X466709Y425719D01*
X466772Y425590D01*
X466831Y425460D01*
X466887Y425329D01*
X466939Y425196D01*
X466987Y425062D01*
X467032Y424926D01*
X467073Y424790D01*
X467110Y424652D01*
X467144Y424513D01*
X467174Y424373D01*
X467199Y424233D01*
X467221Y424092D01*
X467239Y423950D01*
X467254Y423808D01*
X467264Y423666D01*
X467270Y423523D01*
X467273Y423381D01*
X467272Y423238D01*
X467266Y423095D01*
X467257Y422953D01*
X467244Y422811D01*
X467227Y422669D01*
X467206Y422528D01*
X467182Y422387D01*
X467153Y422247D01*
X467121Y422108D01*
X467085Y421970D01*
X467045Y421833D01*
X467001Y421697D01*
X466954Y421563D01*
X466903Y421429D01*
X466849Y421297D01*
X466791Y421167D01*
X466729Y421038D01*
X466664Y420911D01*
X466595Y420786D01*
X466523Y420663D01*
X466448Y420542D01*
X466369Y420423D01*
X466287Y420306D01*
X466202Y420191D01*
X466114Y420079D01*
X466023Y419969D01*
X465929Y419862D01*
X458961Y424704D02*
X458994Y424830D01*
X459031Y424956D01*
X459071Y425081D01*
X459115Y425204D01*
X459162Y425326D01*
X459214Y425446D01*
X459269Y425565D01*
X459327Y425682D01*
X459389Y425798D01*
X459454Y425911D01*
X459523Y426023D01*
X459595Y426132D01*
X459670Y426239D01*
X459748Y426344D01*
X459830Y426446D01*
X459915Y426546D01*
X460002Y426644D01*
X460093Y426738D01*
X460186Y426830D01*
X460282Y426919D01*
X460380Y427006D01*
X460481Y427089D01*
X460585Y427169D01*
X460691Y427246D01*
X460799Y427320D01*
X460909Y427390D01*
X461022Y427457D01*
X458962Y424703D02*
X454979Y413540D01*
X450463Y421361D01*
D12*
X302514Y422593D03*
D13*
X302514Y422720D03*
D14*
X302514Y422847D03*
D15*
X302514Y422974D03*
D16*
X302514Y423101D03*
X302514Y423228D03*
D17*
X302578Y423355D03*
D18*
X302514Y423482D03*
X302514Y423609D03*
X302514Y423736D03*
D17*
X302578Y423863D03*
D16*
X302514Y423990D03*
X302514Y424117D03*
D15*
X302514Y424244D03*
D19*
X302578Y424371D03*
D14*
X302514Y424498D03*
D13*
X302514Y424625D03*
X302514Y424752D03*
D20*
X302514Y424879D03*
D21*
X302578Y425006D03*
D12*
X302514Y425133D03*
D22*
X302578Y425260D03*
D23*
X319215Y425387D03*
X285814Y425387D03*
D24*
X319151Y425514D03*
D23*
X285941Y425514D03*
X319088Y425641D03*
X285941Y425641D03*
D24*
X319024Y425768D03*
D23*
X286068Y425768D03*
X318961Y425895D03*
D25*
X286131Y425895D03*
D23*
X318834Y426022D03*
X286195Y426022D03*
D24*
X318770Y426149D03*
D23*
X286322Y426149D03*
X318707Y426276D03*
X286322Y426276D03*
D24*
X318643Y426403D03*
D23*
X286449Y426403D03*
X318580Y426530D03*
X286449Y426530D03*
D24*
X318516Y426657D03*
D23*
X286576Y426657D03*
X318453Y426784D03*
X286576Y426784D03*
D24*
X318389Y426911D03*
D26*
X302260Y426911D03*
D23*
X286703Y426911D03*
X318326Y427038D03*
D27*
X302260Y427038D03*
D23*
X286830Y427038D03*
D24*
X318262Y427165D03*
D27*
X302260Y427165D03*
D23*
X286830Y427165D03*
D24*
X318135Y427292D03*
D28*
X302260Y427292D03*
D23*
X286957Y427292D03*
X318072Y427419D03*
D29*
X302197Y427419D03*
D23*
X286957Y427419D03*
D24*
X318008Y427546D03*
D29*
X302197Y427546D03*
D23*
X287084Y427546D03*
X317945Y427673D03*
D30*
X302197Y427673D03*
D24*
X287147Y427673D03*
X317881Y427800D03*
D30*
X302197Y427800D03*
D23*
X287211Y427800D03*
X317818Y427927D03*
D31*
X302133Y427927D03*
D23*
X287338Y427927D03*
X317691Y428054D03*
D32*
X302133Y428054D03*
D23*
X287338Y428054D03*
D24*
X317627Y428181D03*
D32*
X302133Y428181D03*
D24*
X287401Y428181D03*
D23*
X317564Y428308D03*
D33*
X302133Y428308D03*
D24*
X287528Y428308D03*
X317500Y428435D03*
D34*
X302070Y428435D03*
D23*
X287592Y428435D03*
X317437Y428562D03*
D34*
X302070Y428562D03*
D23*
X287719Y428562D03*
X317310Y428689D03*
D35*
X302006Y428689D03*
D23*
X287719Y428689D03*
D24*
X317246Y428816D03*
D36*
X302006Y428816D03*
D24*
X287782Y428816D03*
D23*
X317183Y428943D03*
D36*
X302006Y428943D03*
D23*
X287846Y428943D03*
D24*
X317119Y429070D03*
D37*
X302006Y429070D03*
D23*
X287973Y429070D03*
X317056Y429197D03*
D38*
X301943Y429197D03*
D24*
X288036Y429197D03*
X316992Y429324D03*
X301879Y429324D03*
D23*
X288100Y429324D03*
X316929Y429451D03*
D24*
X301879Y429451D03*
X288163Y429451D03*
D23*
X316802Y429578D03*
D25*
X301879Y429578D03*
D23*
X288227Y429578D03*
D24*
X316738Y429705D03*
D25*
X301879Y429705D03*
D23*
X288354Y429705D03*
X316675Y429832D03*
D39*
X302324Y429832D03*
D24*
X288417Y429832D03*
X316611Y429959D03*
D40*
X301816Y429959D03*
D23*
X288481Y429959D03*
X316548Y430086D03*
D32*
X301752Y430086D03*
D24*
X288544Y430086D03*
X316484Y430213D03*
D32*
X301752Y430213D03*
D23*
X288608Y430213D03*
D24*
X316357Y430340D03*
D40*
X301689Y430340D03*
D24*
X288671Y430340D03*
X316357Y430467D03*
D32*
X301625Y430467D03*
D23*
X288735Y430467D03*
D24*
X316230Y430594D03*
D32*
X301625Y430594D03*
D23*
X288862Y430594D03*
X316167Y430721D03*
D32*
X301625Y430721D03*
D24*
X288925Y430721D03*
X316103Y430848D03*
D32*
X301625Y430848D03*
D23*
X288989Y430848D03*
D24*
X315976Y430975D03*
D32*
X301498Y430975D03*
D24*
X289052Y430975D03*
X315976Y431102D03*
D32*
X301498Y431102D03*
D23*
X289116Y431102D03*
D24*
X315849Y431229D03*
D32*
X301498Y431229D03*
D24*
X289179Y431229D03*
D23*
X315786Y431356D03*
D32*
X301371Y431356D03*
D24*
X289306Y431356D03*
X315722Y431483D03*
D32*
X301371Y431483D03*
D24*
X289306Y431483D03*
D23*
X315659Y431610D03*
D32*
X301371Y431610D03*
D24*
X289433Y431610D03*
X315595Y431737D03*
D32*
X301244Y431737D03*
D23*
X289497Y431737D03*
D24*
X315468Y431864D03*
D32*
X301244Y431864D03*
D24*
X289560Y431864D03*
X315468Y431991D03*
D32*
X301244Y431991D03*
D24*
X289687Y431991D03*
X315341Y432118D03*
D32*
X301244Y432118D03*
D24*
X289687Y432118D03*
D23*
X315278Y432245D03*
D32*
X301117Y432245D03*
D24*
X289814Y432245D03*
X315214Y432372D03*
D32*
X301117Y432372D03*
D23*
X289878Y432372D03*
D24*
X315087Y432499D03*
D32*
X301117Y432499D03*
D24*
X289941Y432499D03*
X315087Y432626D03*
D41*
X301054Y432626D03*
D23*
X290005Y432626D03*
D24*
X314960Y432753D03*
D32*
X300990Y432753D03*
D24*
X290068Y432753D03*
D23*
X314897Y432880D03*
D32*
X300990Y432880D03*
D24*
X290195Y432880D03*
X314833Y433007D03*
D32*
X300990Y433007D03*
D24*
X290195Y433007D03*
D23*
X314770Y433134D03*
D41*
X300927Y433134D03*
D24*
X290322Y433134D03*
X314706Y433261D03*
D32*
X300863Y433261D03*
D23*
X290386Y433261D03*
D24*
X314579Y433388D03*
D32*
X300863Y433388D03*
D24*
X290449Y433388D03*
X314579Y433515D03*
D32*
X300863Y433515D03*
D24*
X290576Y433515D03*
X314452Y433642D03*
D32*
X300736Y433642D03*
D24*
X290576Y433642D03*
X314452Y433769D03*
D27*
X305181Y433769D03*
D32*
X300736Y433769D03*
D24*
X290703Y433769D03*
X314325Y433896D03*
D28*
X305054Y433896D03*
D32*
X300736Y433896D03*
D24*
X290703Y433896D03*
X314198Y434023D03*
D30*
X304864Y434023D03*
D40*
X300673Y434023D03*
D24*
X290830Y434023D03*
X314198Y434150D03*
D41*
X304737Y434150D03*
D32*
X300609Y434150D03*
D24*
X290830Y434150D03*
X314071Y434277D03*
D32*
X304546Y434277D03*
X300609Y434277D03*
D24*
X290957Y434277D03*
X314071Y434404D03*
D34*
X304356Y434404D03*
D32*
X300609Y434404D03*
D24*
X291084Y434404D03*
X313944Y434531D03*
D42*
X304229Y434531D03*
D41*
X300546Y434531D03*
D24*
X291084Y434531D03*
D38*
X313881Y434658D03*
D37*
X304038Y434658D03*
D32*
X300482Y434658D03*
D24*
X291211Y434658D03*
X313817Y434785D03*
D38*
X303848Y434785D03*
D32*
X300482Y434785D03*
D24*
X291211Y434785D03*
X313690Y434912D03*
D23*
X303721Y434912D03*
D41*
X300419Y434912D03*
D24*
X291338Y434912D03*
X313690Y435039D03*
D43*
X303530Y435039D03*
D32*
X300355Y435039D03*
D23*
X291402Y435039D03*
D24*
X313563Y435166D03*
D44*
X303340Y435166D03*
D32*
X300355Y435166D03*
D24*
X291465Y435166D03*
X313563Y435293D03*
D45*
X303086Y435293D03*
D32*
X300355Y435293D03*
D23*
X291529Y435293D03*
D24*
X313436Y435420D03*
D46*
X302324Y435420D03*
D24*
X291592Y435420D03*
X313309Y435547D03*
D47*
X302260Y435547D03*
D24*
X291719Y435547D03*
X313309Y435674D03*
D46*
X302197Y435674D03*
D24*
X291719Y435674D03*
D38*
X313246Y435801D03*
D46*
X302197Y435801D03*
D24*
X291846Y435801D03*
X313182Y435928D03*
D46*
X302197Y435928D03*
D23*
X291910Y435928D03*
D24*
X313055Y436055D03*
D46*
X302070Y436055D03*
D24*
X291973Y436055D03*
X312928Y436182D03*
D46*
X302070Y436182D03*
D24*
X292100Y436182D03*
X312928Y436309D03*
D46*
X302070Y436309D03*
D24*
X292100Y436309D03*
D38*
X312865Y436436D03*
D46*
X302070Y436436D03*
D24*
X292227Y436436D03*
X312801Y436563D03*
D46*
X301943Y436563D03*
D23*
X292291Y436563D03*
D24*
X312674Y436690D03*
D41*
X303975Y436690D03*
D48*
X301117Y436690D03*
D24*
X292354Y436690D03*
X312674Y436817D03*
D41*
X303975Y436817D03*
D49*
X300927Y436817D03*
D23*
X292418Y436817D03*
D24*
X312547Y436944D03*
D31*
X303911Y436944D03*
D50*
X300673Y436944D03*
D24*
X292481Y436944D03*
X312547Y437071D03*
D41*
X303848Y437071D03*
D23*
X300546Y437071D03*
D24*
X292608Y437071D03*
X312420Y437198D03*
D41*
X303848Y437198D03*
D38*
X300419Y437198D03*
D24*
X292608Y437198D03*
D38*
X312357Y437325D03*
D32*
X303784Y437325D03*
D36*
X300228Y437325D03*
D24*
X292735Y437325D03*
X312293Y437452D03*
D41*
X303721Y437452D03*
D42*
X300038Y437452D03*
D24*
X292735Y437452D03*
X312166Y437579D03*
D32*
X303657Y437579D03*
D33*
X299847Y437579D03*
D24*
X292862Y437579D03*
X312166Y437706D03*
D32*
X303657Y437706D03*
X299720Y437706D03*
D24*
X292989Y437706D03*
X312039Y437833D03*
D40*
X303594Y437833D03*
D30*
X299530Y437833D03*
D24*
X292989Y437833D03*
X312039Y437960D03*
D32*
X303530Y437960D03*
D29*
X299276Y437960D03*
D24*
X293116Y437960D03*
X311912Y438087D03*
D40*
X303467Y438087D03*
D51*
X299149Y438087D03*
D24*
X293116Y438087D03*
X311785Y438214D03*
D32*
X303403Y438214D03*
D26*
X298958Y438214D03*
D24*
X293243Y438214D03*
X311785Y438341D03*
D32*
X303403Y438341D03*
D38*
X293307Y438341D03*
D24*
X311658Y438468D03*
D40*
X303340Y438468D03*
D24*
X293370Y438468D03*
X311658Y438595D03*
D40*
X303340Y438595D03*
D24*
X293497Y438595D03*
X311531Y438722D03*
D33*
X303276Y438722D03*
D24*
X293497Y438722D03*
D38*
X311468Y438849D03*
D40*
X303213Y438849D03*
D24*
X293624Y438849D03*
X311404Y438976D03*
D40*
X303213Y438976D03*
D24*
X293624Y438976D03*
D38*
X311341Y439103D03*
D33*
X303149Y439103D03*
D24*
X293751Y439103D03*
X311277Y439230D03*
D40*
X303086Y439230D03*
D24*
X293878Y439230D03*
X311150Y439357D03*
D33*
X303022Y439357D03*
D24*
X293878Y439357D03*
X311150Y439484D03*
D33*
X303022Y439484D03*
D38*
X293942Y439484D03*
D24*
X311023Y439611D03*
D34*
X302959Y439611D03*
D24*
X294005Y439611D03*
D38*
X310960Y439738D03*
D33*
X302895Y439738D03*
D24*
X294132Y439738D03*
X310896Y439865D03*
D34*
X302832Y439865D03*
D24*
X294259Y439865D03*
X310769Y439992D03*
D34*
X302832Y439992D03*
D24*
X294259Y439992D03*
X310769Y440119D03*
D33*
X302768Y440119D03*
D38*
X294323Y440119D03*
D24*
X310642Y440246D03*
D34*
X302705Y440246D03*
D24*
X294386Y440246D03*
D38*
X310579Y440373D03*
D34*
X302705Y440373D03*
D24*
X294513Y440373D03*
X310515Y440500D03*
D34*
X302578Y440500D03*
D24*
X294513Y440500D03*
D38*
X310452Y440627D03*
D34*
X302578Y440627D03*
D24*
X294640Y440627D03*
X310388Y440754D03*
D35*
X302514Y440754D03*
D38*
X294704Y440754D03*
D24*
X310261Y440881D03*
D35*
X302514Y440881D03*
D24*
X294767Y440881D03*
D38*
X310198Y441008D03*
D34*
X302451Y441008D03*
D38*
X294831Y441008D03*
D24*
X310134Y441135D03*
D35*
X302387Y441135D03*
D24*
X294894Y441135D03*
D38*
X310071Y441262D03*
D35*
X302387Y441262D03*
D24*
X295021Y441262D03*
X310007Y441389D03*
D35*
X302260Y441389D03*
D38*
X295085Y441389D03*
D24*
X309880Y441516D03*
D35*
X302260Y441516D03*
D24*
X295148Y441516D03*
X309880Y441643D03*
D42*
X302197Y441643D03*
D38*
X295212Y441643D03*
D24*
X309753Y441770D03*
D42*
X302197Y441770D03*
D24*
X295275Y441770D03*
D38*
X309690Y441897D03*
D42*
X302070Y441897D03*
D24*
X295402Y441897D03*
X309626Y442024D03*
D42*
X302070Y442024D03*
D24*
X295402Y442024D03*
D38*
X309563Y442151D03*
D36*
X302006Y442151D03*
D24*
X295529Y442151D03*
X309499Y442278D03*
D42*
X301943Y442278D03*
D38*
X295593Y442278D03*
X309436Y442405D03*
D42*
X301943Y442405D03*
D24*
X295656Y442405D03*
D38*
X309309Y442532D03*
D36*
X301879Y442532D03*
D38*
X295720Y442532D03*
D24*
X309245Y442659D03*
D36*
X301879Y442659D03*
D24*
X295783Y442659D03*
D38*
X309182Y442786D03*
D36*
X301752Y442786D03*
D38*
X295847Y442786D03*
D24*
X309118Y442913D03*
D36*
X301752Y442913D03*
D38*
X295974Y442913D03*
X309055Y443040D03*
D39*
X301689Y443040D03*
D24*
X296037Y443040D03*
X308991Y443167D03*
D39*
X301689Y443167D03*
D38*
X296101Y443167D03*
X308928Y443294D03*
D36*
X301625Y443294D03*
D24*
X296164Y443294D03*
D38*
X308801Y443421D03*
D39*
X301562Y443421D03*
D38*
X296228Y443421D03*
D24*
X308737Y443548D03*
D39*
X301562Y443548D03*
D38*
X296355Y443548D03*
X308674Y443675D03*
D39*
X301435Y443675D03*
D24*
X296418Y443675D03*
X308610Y443802D03*
D39*
X301435Y443802D03*
D38*
X296482Y443802D03*
X308547Y443929D03*
D27*
X302387Y443929D03*
D24*
X296545Y443929D03*
D38*
X308420Y444056D03*
X296609Y444056D03*
D24*
X308356Y444183D03*
X296672Y444183D03*
D38*
X308293Y444310D03*
X296736Y444310D03*
D24*
X308229Y444437D03*
D38*
X296863Y444437D03*
X308166Y444564D03*
D24*
X296926Y444564D03*
D38*
X308039Y444691D03*
X296990Y444691D03*
X308039Y444818D03*
D24*
X297053Y444818D03*
D38*
X307912Y444945D03*
X297117Y444945D03*
D24*
X307848Y445072D03*
D38*
X297244Y445072D03*
X307785Y445199D03*
D24*
X297307Y445199D03*
X307721Y445326D03*
D38*
X297371Y445326D03*
X307658Y445453D03*
D24*
X297434Y445453D03*
D38*
X307531Y445580D03*
X297498Y445580D03*
X307531Y445707D03*
D24*
X297561Y445707D03*
D38*
X307404Y445834D03*
X297625Y445834D03*
X307404Y445961D03*
X297752Y445961D03*
X307277Y446088D03*
X297752Y446088D03*
X307150Y446215D03*
X297879Y446215D03*
X307150Y446342D03*
D24*
X297942Y446342D03*
D38*
X307023Y446469D03*
X298006Y446469D03*
X307023Y446596D03*
X298133Y446596D03*
X306896Y446723D03*
X298133Y446723D03*
D24*
X306832Y446850D03*
D38*
X298260Y446850D03*
X306769Y446977D03*
X298260Y446977D03*
X306642Y447104D03*
X298387Y447104D03*
X306642Y447231D03*
X298514Y447231D03*
X306515Y447358D03*
X298514Y447358D03*
X306515Y447485D03*
X298641Y447485D03*
X306388Y447612D03*
X298641Y447612D03*
D37*
X306324Y447739D03*
D38*
X298768Y447739D03*
X306261Y447866D03*
D24*
X298831Y447866D03*
D38*
X306134Y447993D03*
X298895Y447993D03*
X306134Y448120D03*
X299022Y448120D03*
X306007Y448247D03*
X299022Y448247D03*
D24*
X305943Y448374D03*
D38*
X299149Y448374D03*
X305880Y448501D03*
X299149Y448501D03*
D37*
X305816Y448628D03*
D38*
X299276Y448628D03*
X305753Y448755D03*
D37*
X299339Y448755D03*
D38*
X305626Y448882D03*
X299403Y448882D03*
X305626Y449009D03*
X299530Y449009D03*
X305499Y449136D03*
X299530Y449136D03*
D37*
X305435Y449263D03*
D38*
X299657Y449263D03*
X305372Y449390D03*
X299657Y449390D03*
X305245Y449517D03*
X299784Y449517D03*
X305245Y449644D03*
D37*
X299847Y449644D03*
D38*
X305118Y449771D03*
X299911Y449771D03*
D37*
X305054Y449898D03*
D38*
X300038Y449898D03*
X304991Y450025D03*
X300038Y450025D03*
X304864Y450152D03*
X300165Y450152D03*
X304864Y450279D03*
D37*
X300228Y450279D03*
D38*
X304737Y450406D03*
X300292Y450406D03*
X304737Y450533D03*
X300419Y450533D03*
X304610Y450660D03*
X300419Y450660D03*
D37*
X304546Y450787D03*
X300482Y450787D03*
D38*
X304483Y450914D03*
D37*
X300609Y450914D03*
D38*
X304356Y451041D03*
X300673Y451041D03*
X304356Y451168D03*
D37*
X300736Y451168D03*
D38*
X304229Y451295D03*
X300800Y451295D03*
X304229Y451422D03*
D37*
X300863Y451422D03*
D38*
X304102Y451549D03*
X300927Y451549D03*
D37*
X304038Y451676D03*
D38*
X301054Y451676D03*
X303975Y451803D03*
D37*
X301117Y451803D03*
X303911Y451930D03*
D38*
X301181Y451930D03*
D52*
X302578Y452057D03*
D53*
X302514Y452184D03*
D54*
X302514Y452311D03*
D55*
X302578Y452438D03*
D56*
X302514Y452565D03*
D57*
X302578Y452692D03*
D58*
X302514Y452819D03*
D59*
X302578Y452946D03*
D60*
X302514Y453073D03*
D48*
X302514Y453200D03*
D44*
X302578Y453327D03*
D61*
X302514Y453454D03*
D49*
X302578Y453581D03*
D43*
X302514Y453708D03*
D25*
X302514Y453835D03*
D23*
X302578Y453962D03*
D24*
X302514Y454089D03*
D38*
X302578Y454216D03*
D37*
X302514Y454343D03*
D36*
X302514Y454470D03*
D42*
X302578Y454597D03*
D35*
X302514Y454724D03*
D34*
X302578Y454851D03*
D33*
X302514Y454978D03*
D32*
X302514Y455105D03*
D31*
X302514Y455232D03*
D28*
X302514Y455359D03*
D12*
X399669Y461010D03*
D13*
X399669Y461137D03*
D14*
X399669Y461264D03*
D15*
X399669Y461391D03*
D16*
X399669Y461518D03*
X399669Y461645D03*
D17*
X399733Y461772D03*
D18*
X399669Y461899D03*
X399669Y462026D03*
X399669Y462153D03*
D17*
X399733Y462280D03*
D16*
X399669Y462407D03*
X399669Y462534D03*
D15*
X399669Y462661D03*
D19*
X399733Y462788D03*
D14*
X399669Y462915D03*
D13*
X399669Y463042D03*
X399669Y463169D03*
D20*
X399669Y463296D03*
D21*
X399733Y463423D03*
D12*
X399669Y463550D03*
D22*
X399733Y463677D03*
D23*
X416370Y463804D03*
X382969Y463804D03*
D24*
X416306Y463931D03*
D23*
X383096Y463931D03*
X416243Y464058D03*
X383096Y464058D03*
D24*
X416179Y464185D03*
D23*
X383223Y464185D03*
X416116Y464312D03*
D25*
X383286Y464312D03*
D23*
X415989Y464439D03*
X383350Y464439D03*
D24*
X415925Y464566D03*
D23*
X383477Y464566D03*
X415862Y464693D03*
X383477Y464693D03*
D24*
X415798Y464820D03*
D23*
X383604Y464820D03*
X415735Y464947D03*
X383604Y464947D03*
D24*
X415671Y465074D03*
D23*
X383731Y465074D03*
X415608Y465201D03*
X383731Y465201D03*
D24*
X415544Y465328D03*
D26*
X399415Y465328D03*
D23*
X383858Y465328D03*
X415481Y465455D03*
D27*
X399415Y465455D03*
D23*
X383985Y465455D03*
D24*
X415417Y465582D03*
D27*
X399415Y465582D03*
D23*
X383985Y465582D03*
D24*
X415290Y465709D03*
D28*
X399415Y465709D03*
D23*
X384112Y465709D03*
X415227Y465836D03*
D29*
X399352Y465836D03*
D23*
X384112Y465836D03*
D24*
X415163Y465963D03*
D29*
X399352Y465963D03*
D23*
X384239Y465963D03*
X415100Y466090D03*
D30*
X399352Y466090D03*
D24*
X384302Y466090D03*
X415036Y466217D03*
D30*
X399352Y466217D03*
D23*
X384366Y466217D03*
X414973Y466344D03*
D31*
X399288Y466344D03*
D23*
X384493Y466344D03*
X414846Y466471D03*
D32*
X399288Y466471D03*
D23*
X384493Y466471D03*
D24*
X414782Y466598D03*
D32*
X399288Y466598D03*
D24*
X384556Y466598D03*
D23*
X414719Y466725D03*
D33*
X399288Y466725D03*
D24*
X384683Y466725D03*
X414655Y466852D03*
D34*
X399225Y466852D03*
D23*
X384747Y466852D03*
X414592Y466979D03*
D34*
X399225Y466979D03*
D23*
X384874Y466979D03*
X414465Y467106D03*
D35*
X399161Y467106D03*
D23*
X384874Y467106D03*
D24*
X414401Y467233D03*
D36*
X399161Y467233D03*
D24*
X384937Y467233D03*
D23*
X414338Y467360D03*
D36*
X399161Y467360D03*
D23*
X385001Y467360D03*
D24*
X414274Y467487D03*
D37*
X399161Y467487D03*
D23*
X385128Y467487D03*
X414211Y467614D03*
D38*
X399098Y467614D03*
D24*
X385191Y467614D03*
X414147Y467741D03*
X399034Y467741D03*
D23*
X385255Y467741D03*
X414084Y467868D03*
D24*
X399034Y467868D03*
X385318Y467868D03*
D23*
X413957Y467995D03*
D25*
X399034Y467995D03*
D23*
X385382Y467995D03*
D24*
X413893Y468122D03*
D25*
X399034Y468122D03*
D23*
X385509Y468122D03*
X413830Y468249D03*
D39*
X399479Y468249D03*
D24*
X385572Y468249D03*
X413766Y468376D03*
D40*
X398971Y468376D03*
D23*
X385636Y468376D03*
X413703Y468503D03*
D32*
X398907Y468503D03*
D24*
X385699Y468503D03*
X413639Y468630D03*
D32*
X398907Y468630D03*
D23*
X385763Y468630D03*
D24*
X413512Y468757D03*
D40*
X398844Y468757D03*
D24*
X385826Y468757D03*
X413512Y468884D03*
D32*
X398780Y468884D03*
D23*
X385890Y468884D03*
D24*
X413385Y469011D03*
D32*
X398780Y469011D03*
D23*
X386017Y469011D03*
X413322Y469138D03*
D32*
X398780Y469138D03*
D24*
X386080Y469138D03*
X413258Y469265D03*
D32*
X398780Y469265D03*
D23*
X386144Y469265D03*
D24*
X413131Y469392D03*
D32*
X398653Y469392D03*
D24*
X386207Y469392D03*
X413131Y469519D03*
D32*
X398653Y469519D03*
D23*
X386271Y469519D03*
D24*
X413004Y469646D03*
D32*
X398653Y469646D03*
D24*
X386334Y469646D03*
D23*
X412941Y469773D03*
D32*
X398526Y469773D03*
D24*
X386461Y469773D03*
X412877Y469900D03*
D32*
X398526Y469900D03*
D24*
X386461Y469900D03*
D23*
X412814Y470027D03*
D32*
X398526Y470027D03*
D24*
X386588Y470027D03*
X412750Y470154D03*
D32*
X398399Y470154D03*
D23*
X386652Y470154D03*
D24*
X412623Y470281D03*
D32*
X398399Y470281D03*
D24*
X386715Y470281D03*
X412623Y470408D03*
D32*
X398399Y470408D03*
D24*
X386842Y470408D03*
X412496Y470535D03*
D32*
X398399Y470535D03*
D24*
X386842Y470535D03*
D23*
X412433Y470662D03*
D32*
X398272Y470662D03*
D24*
X386969Y470662D03*
X412369Y470789D03*
D32*
X398272Y470789D03*
D23*
X387033Y470789D03*
D24*
X412242Y470916D03*
D32*
X398272Y470916D03*
D24*
X387096Y470916D03*
X412242Y471043D03*
D41*
X398209Y471043D03*
D23*
X387160Y471043D03*
D24*
X412115Y471170D03*
D32*
X398145Y471170D03*
D24*
X387223Y471170D03*
D23*
X412052Y471297D03*
D32*
X398145Y471297D03*
D24*
X387350Y471297D03*
X411988Y471424D03*
D32*
X398145Y471424D03*
D24*
X387350Y471424D03*
D23*
X411925Y471551D03*
D41*
X398082Y471551D03*
D24*
X387477Y471551D03*
X411861Y471678D03*
D32*
X398018Y471678D03*
D23*
X387541Y471678D03*
D24*
X411734Y471805D03*
D32*
X398018Y471805D03*
D24*
X387604Y471805D03*
X411734Y471932D03*
D32*
X398018Y471932D03*
D24*
X387731Y471932D03*
X411607Y472059D03*
D32*
X397891Y472059D03*
D24*
X387731Y472059D03*
X411607Y472186D03*
D27*
X402336Y472186D03*
D32*
X397891Y472186D03*
D24*
X387858Y472186D03*
X411480Y472313D03*
D28*
X402209Y472313D03*
D32*
X397891Y472313D03*
D24*
X387858Y472313D03*
X411353Y472440D03*
D30*
X402019Y472440D03*
D40*
X397828Y472440D03*
D24*
X387985Y472440D03*
X411353Y472567D03*
D41*
X401892Y472567D03*
D32*
X397764Y472567D03*
D24*
X387985Y472567D03*
X411226Y472694D03*
D32*
X401701Y472694D03*
X397764Y472694D03*
D24*
X388112Y472694D03*
X411226Y472821D03*
D34*
X401511Y472821D03*
D32*
X397764Y472821D03*
D24*
X388239Y472821D03*
X411099Y472948D03*
D42*
X401384Y472948D03*
D41*
X397701Y472948D03*
D24*
X388239Y472948D03*
D38*
X411036Y473075D03*
D37*
X401193Y473075D03*
D32*
X397637Y473075D03*
D24*
X388366Y473075D03*
X410972Y473202D03*
D38*
X401003Y473202D03*
D32*
X397637Y473202D03*
D24*
X388366Y473202D03*
X410845Y473329D03*
D23*
X400876Y473329D03*
D41*
X397574Y473329D03*
D24*
X388493Y473329D03*
X410845Y473456D03*
D43*
X400685Y473456D03*
D32*
X397510Y473456D03*
D23*
X388557Y473456D03*
D24*
X410718Y473583D03*
D44*
X400495Y473583D03*
D32*
X397510Y473583D03*
D24*
X388620Y473583D03*
X410718Y473710D03*
D45*
X400241Y473710D03*
D32*
X397510Y473710D03*
D23*
X388684Y473710D03*
D24*
X410591Y473837D03*
D46*
X399479Y473837D03*
D24*
X388747Y473837D03*
X410464Y473964D03*
D47*
X399415Y473964D03*
D24*
X388874Y473964D03*
X410464Y474091D03*
D46*
X399352Y474091D03*
D24*
X388874Y474091D03*
D38*
X410401Y474218D03*
D46*
X399352Y474218D03*
D24*
X389001Y474218D03*
X410337Y474345D03*
D46*
X399352Y474345D03*
D23*
X389065Y474345D03*
D24*
X410210Y474472D03*
D46*
X399225Y474472D03*
D24*
X389128Y474472D03*
X410083Y474599D03*
D46*
X399225Y474599D03*
D24*
X389255Y474599D03*
X410083Y474726D03*
D46*
X399225Y474726D03*
D24*
X389255Y474726D03*
D38*
X410020Y474853D03*
D46*
X399225Y474853D03*
D24*
X389382Y474853D03*
X409956Y474980D03*
D46*
X399098Y474980D03*
D23*
X389446Y474980D03*
D24*
X409829Y475107D03*
D41*
X401130Y475107D03*
D48*
X398272Y475107D03*
D24*
X389509Y475107D03*
X409829Y475234D03*
D41*
X401130Y475234D03*
D49*
X398082Y475234D03*
D23*
X389573Y475234D03*
D24*
X409702Y475361D03*
D31*
X401066Y475361D03*
D50*
X397828Y475361D03*
D24*
X389636Y475361D03*
X409702Y475488D03*
D41*
X401003Y475488D03*
D23*
X397701Y475488D03*
D24*
X389763Y475488D03*
X409575Y475615D03*
D41*
X401003Y475615D03*
D38*
X397574Y475615D03*
D24*
X389763Y475615D03*
D38*
X409512Y475742D03*
D32*
X400939Y475742D03*
D36*
X397383Y475742D03*
D24*
X389890Y475742D03*
X409448Y475869D03*
D41*
X400876Y475869D03*
D42*
X397193Y475869D03*
D24*
X389890Y475869D03*
X409321Y475996D03*
D32*
X400812Y475996D03*
D33*
X397002Y475996D03*
D24*
X390017Y475996D03*
X409321Y476123D03*
D32*
X400812Y476123D03*
X396875Y476123D03*
D24*
X390144Y476123D03*
X409194Y476250D03*
D40*
X400749Y476250D03*
D30*
X396685Y476250D03*
D24*
X390144Y476250D03*
X409194Y476377D03*
D32*
X400685Y476377D03*
D29*
X396431Y476377D03*
D24*
X390271Y476377D03*
X409067Y476504D03*
D40*
X400622Y476504D03*
D51*
X396304Y476504D03*
D24*
X390271Y476504D03*
X408940Y476631D03*
D32*
X400558Y476631D03*
D26*
X396113Y476631D03*
D24*
X390398Y476631D03*
X408940Y476758D03*
D32*
X400558Y476758D03*
D38*
X390462Y476758D03*
D24*
X408813Y476885D03*
D40*
X400495Y476885D03*
D24*
X390525Y476885D03*
X408813Y477012D03*
D40*
X400495Y477012D03*
D24*
X390652Y477012D03*
X408686Y477139D03*
D33*
X400431Y477139D03*
D24*
X390652Y477139D03*
D38*
X408623Y477266D03*
D40*
X400368Y477266D03*
D24*
X390779Y477266D03*
X408559Y477393D03*
D40*
X400368Y477393D03*
D24*
X390779Y477393D03*
D38*
X408496Y477520D03*
D33*
X400304Y477520D03*
D24*
X390906Y477520D03*
X408432Y477647D03*
D40*
X400241Y477647D03*
D24*
X391033Y477647D03*
X408305Y477774D03*
D33*
X400177Y477774D03*
D24*
X391033Y477774D03*
X408305Y477901D03*
D33*
X400177Y477901D03*
D38*
X391097Y477901D03*
D24*
X408178Y478028D03*
D34*
X400114Y478028D03*
D24*
X391160Y478028D03*
D38*
X408115Y478155D03*
D33*
X400050Y478155D03*
D24*
X391287Y478155D03*
X408051Y478282D03*
D34*
X399987Y478282D03*
D24*
X391414Y478282D03*
X407924Y478409D03*
D34*
X399987Y478409D03*
D24*
X391414Y478409D03*
X407924Y478536D03*
D33*
X399923Y478536D03*
D38*
X391478Y478536D03*
D24*
X407797Y478663D03*
D34*
X399860Y478663D03*
D24*
X391541Y478663D03*
D38*
X407734Y478790D03*
D34*
X399860Y478790D03*
D24*
X391668Y478790D03*
X407670Y478917D03*
D34*
X399733Y478917D03*
D24*
X391668Y478917D03*
D38*
X407607Y479044D03*
D34*
X399733Y479044D03*
D24*
X391795Y479044D03*
X407543Y479171D03*
D35*
X399669Y479171D03*
D38*
X391859Y479171D03*
D24*
X407416Y479298D03*
D35*
X399669Y479298D03*
D24*
X391922Y479298D03*
D38*
X407353Y479425D03*
D34*
X399606Y479425D03*
D38*
X391986Y479425D03*
D24*
X407289Y479552D03*
D35*
X399542Y479552D03*
D24*
X392049Y479552D03*
D38*
X407226Y479679D03*
D35*
X399542Y479679D03*
D24*
X392176Y479679D03*
X407162Y479806D03*
D35*
X399415Y479806D03*
D38*
X392240Y479806D03*
D24*
X407035Y479933D03*
D35*
X399415Y479933D03*
D24*
X392303Y479933D03*
X407035Y480060D03*
D42*
X399352Y480060D03*
D38*
X392367Y480060D03*
D24*
X406908Y480187D03*
D42*
X399352Y480187D03*
D24*
X392430Y480187D03*
D38*
X406845Y480314D03*
D42*
X399225Y480314D03*
D24*
X392557Y480314D03*
X406781Y480441D03*
D42*
X399225Y480441D03*
D24*
X392557Y480441D03*
D38*
X406718Y480568D03*
D36*
X399161Y480568D03*
D24*
X392684Y480568D03*
X406654Y480695D03*
D42*
X399098Y480695D03*
D38*
X392748Y480695D03*
X406591Y480822D03*
D42*
X399098Y480822D03*
D24*
X392811Y480822D03*
D38*
X406464Y480949D03*
D36*
X399034Y480949D03*
D38*
X392875Y480949D03*
D24*
X406400Y481076D03*
D36*
X399034Y481076D03*
D24*
X392938Y481076D03*
D38*
X406337Y481203D03*
D36*
X398907Y481203D03*
D38*
X393002Y481203D03*
D24*
X406273Y481330D03*
D36*
X398907Y481330D03*
D38*
X393129Y481330D03*
X406210Y481457D03*
D39*
X398844Y481457D03*
D24*
X393192Y481457D03*
X406146Y481584D03*
D39*
X398844Y481584D03*
D38*
X393256Y481584D03*
X406083Y481711D03*
D36*
X398780Y481711D03*
D24*
X393319Y481711D03*
D38*
X405956Y481838D03*
D39*
X398717Y481838D03*
D38*
X393383Y481838D03*
D24*
X405892Y481965D03*
D39*
X398717Y481965D03*
D38*
X393510Y481965D03*
X405829Y482092D03*
D39*
X398590Y482092D03*
D24*
X393573Y482092D03*
X405765Y482219D03*
D39*
X398590Y482219D03*
D38*
X393637Y482219D03*
X405702Y482346D03*
D27*
X399542Y482346D03*
D24*
X393700Y482346D03*
D38*
X405575Y482473D03*
X393764Y482473D03*
D24*
X405511Y482600D03*
X393827Y482600D03*
D38*
X405448Y482727D03*
X393891Y482727D03*
D24*
X405384Y482854D03*
D38*
X394018Y482854D03*
X405321Y482981D03*
D24*
X394081Y482981D03*
D38*
X405194Y483108D03*
X394145Y483108D03*
X405194Y483235D03*
D24*
X394208Y483235D03*
D38*
X405067Y483362D03*
X394272Y483362D03*
D24*
X405003Y483489D03*
D38*
X394399Y483489D03*
X404940Y483616D03*
D24*
X394462Y483616D03*
X404876Y483743D03*
D38*
X394526Y483743D03*
X404813Y483870D03*
D24*
X394589Y483870D03*
D38*
X404686Y483997D03*
X394653Y483997D03*
X404686Y484124D03*
D24*
X394716Y484124D03*
D38*
X404559Y484251D03*
X394780Y484251D03*
X404559Y484378D03*
X394907Y484378D03*
X404432Y484505D03*
X394907Y484505D03*
X404305Y484632D03*
X395034Y484632D03*
X404305Y484759D03*
D24*
X395097Y484759D03*
D38*
X404178Y484886D03*
X395161Y484886D03*
X404178Y485013D03*
X395288Y485013D03*
X404051Y485140D03*
X395288Y485140D03*
D24*
X403987Y485267D03*
D38*
X395415Y485267D03*
X403924Y485394D03*
X395415Y485394D03*
X403797Y485521D03*
X395542Y485521D03*
X403797Y485648D03*
X395669Y485648D03*
X403670Y485775D03*
X395669Y485775D03*
X403670Y485902D03*
X395796Y485902D03*
X403543Y486029D03*
X395796Y486029D03*
D37*
X403479Y486156D03*
D38*
X395923Y486156D03*
X403416Y486283D03*
D24*
X395986Y486283D03*
D38*
X403289Y486410D03*
X396050Y486410D03*
X403289Y486537D03*
X396177Y486537D03*
X403162Y486664D03*
X396177Y486664D03*
D24*
X403098Y486791D03*
D38*
X396304Y486791D03*
X403035Y486918D03*
X396304Y486918D03*
D37*
X402971Y487045D03*
D38*
X396431Y487045D03*
X402908Y487172D03*
D37*
X396494Y487172D03*
D38*
X402781Y487299D03*
X396558Y487299D03*
X402781Y487426D03*
X396685Y487426D03*
X402654Y487553D03*
X396685Y487553D03*
D37*
X402590Y487680D03*
D38*
X396812Y487680D03*
X402527Y487807D03*
X396812Y487807D03*
X402400Y487934D03*
X396939Y487934D03*
X402400Y488061D03*
D37*
X397002Y488061D03*
D38*
X402273Y488188D03*
X397066Y488188D03*
D37*
X402209Y488315D03*
D38*
X397193Y488315D03*
X402146Y488442D03*
X397193Y488442D03*
X402019Y488569D03*
X397320Y488569D03*
X402019Y488696D03*
D37*
X397383Y488696D03*
D38*
X401892Y488823D03*
X397447Y488823D03*
X401892Y488950D03*
X397574Y488950D03*
X401765Y489077D03*
X397574Y489077D03*
D37*
X401701Y489204D03*
X397637Y489204D03*
D38*
X401638Y489331D03*
D37*
X397764Y489331D03*
D38*
X401511Y489458D03*
X397828Y489458D03*
X401511Y489585D03*
D37*
X397891Y489585D03*
D38*
X401384Y489712D03*
X397955Y489712D03*
X401384Y489839D03*
D37*
X398018Y489839D03*
D38*
X401257Y489966D03*
X398082Y489966D03*
D37*
X401193Y490093D03*
D38*
X398209Y490093D03*
X401130Y490220D03*
D37*
X398272Y490220D03*
X401066Y490347D03*
D38*
X398336Y490347D03*
D52*
X399733Y490474D03*
D53*
X399669Y490601D03*
D54*
X399669Y490728D03*
D55*
X399733Y490855D03*
D56*
X399669Y490982D03*
D57*
X399733Y491109D03*
D58*
X399669Y491236D03*
D59*
X399733Y491363D03*
D60*
X399669Y491490D03*
D48*
X399669Y491617D03*
D44*
X399733Y491744D03*
D61*
X399669Y491871D03*
D49*
X399733Y491998D03*
D43*
X399669Y492125D03*
D25*
X399669Y492252D03*
D23*
X399733Y492379D03*
D24*
X399669Y492506D03*
D38*
X399733Y492633D03*
D37*
X399669Y492760D03*
D36*
X399669Y492887D03*
D42*
X399733Y493014D03*
D35*
X399669Y493141D03*
D34*
X399733Y493268D03*
D33*
X399669Y493395D03*
D32*
X399669Y493522D03*
D31*
X399669Y493649D03*
D28*
X399669Y493776D03*
D62*
X454958Y333571D02*
X454958Y331483D01*
X454960Y331394D01*
X454966Y331306D01*
X454975Y331218D01*
X454988Y331130D01*
X455005Y331043D01*
X455025Y330957D01*
X455050Y330872D01*
X455077Y330787D01*
X455109Y330704D01*
X455143Y330623D01*
X455182Y330543D01*
X455223Y330465D01*
X455268Y330388D01*
X455316Y330314D01*
X455367Y330241D01*
X455421Y330171D01*
X455479Y330104D01*
X455539Y330038D01*
X455601Y329976D01*
X455667Y329916D01*
X455734Y329858D01*
X455804Y329804D01*
X455877Y329753D01*
X455951Y329705D01*
X456028Y329660D01*
X456106Y329619D01*
X456186Y329580D01*
X456267Y329546D01*
X456350Y329514D01*
X456435Y329487D01*
X456520Y329462D01*
X456606Y329442D01*
X456693Y329425D01*
X456781Y329412D01*
X456869Y329403D01*
X456957Y329397D01*
X457046Y329395D01*
X457046Y329394D02*
X462267Y329394D01*
X462267Y329395D02*
X462358Y329397D01*
X462449Y329403D01*
X462540Y329413D01*
X462630Y329427D01*
X462719Y329444D01*
X462807Y329466D01*
X462895Y329492D01*
X462981Y329521D01*
X463066Y329554D01*
X463149Y329591D01*
X463231Y329631D01*
X463311Y329675D01*
X463389Y329722D01*
X463465Y329773D01*
X463538Y329826D01*
X463609Y329883D01*
X463678Y329944D01*
X463743Y330007D01*
X463806Y330072D01*
X463866Y330141D01*
X463924Y330212D01*
X463977Y330285D01*
X464028Y330361D01*
X464075Y330439D01*
X464119Y330519D01*
X464159Y330601D01*
X464196Y330684D01*
X464229Y330769D01*
X464258Y330855D01*
X464284Y330943D01*
X464306Y331031D01*
X464323Y331120D01*
X464337Y331210D01*
X464347Y331301D01*
X464353Y331392D01*
X464355Y331483D01*
X464356Y331483D02*
X464356Y333571D01*
X457568Y337039D02*
X457669Y337041D01*
X457770Y337047D01*
X457871Y337057D01*
X457971Y337070D01*
X458071Y337088D01*
X458170Y337109D01*
X458268Y337135D01*
X458365Y337164D01*
X458461Y337196D01*
X458555Y337233D01*
X458648Y337273D01*
X458740Y337317D01*
X458829Y337364D01*
X458917Y337415D01*
X459003Y337469D01*
X459086Y337526D01*
X459168Y337586D01*
X459246Y337650D01*
X459323Y337716D01*
X459396Y337786D01*
X459467Y337858D01*
X459535Y337933D01*
X459600Y338011D01*
X459662Y338091D01*
X459721Y338173D01*
X459777Y338258D01*
X459829Y338345D01*
X459878Y338433D01*
X459924Y338524D01*
X459965Y338616D01*
X460004Y338710D01*
X460038Y338805D01*
X460069Y338901D01*
X460096Y338999D01*
X460120Y339097D01*
X460139Y339197D01*
X460155Y339297D01*
X460167Y339397D01*
X460175Y339498D01*
X460179Y339599D01*
X460179Y339701D01*
X460175Y339802D01*
X460167Y339903D01*
X460155Y340003D01*
X460139Y340103D01*
X460120Y340203D01*
X460096Y340301D01*
X460069Y340399D01*
X460038Y340495D01*
X460004Y340590D01*
X459965Y340684D01*
X459924Y340776D01*
X459878Y340867D01*
X459829Y340955D01*
X459777Y341042D01*
X459721Y341127D01*
X459662Y341209D01*
X459600Y341289D01*
X459535Y341367D01*
X459467Y341442D01*
X459396Y341514D01*
X459323Y341584D01*
X459246Y341650D01*
X459168Y341714D01*
X459086Y341774D01*
X459003Y341831D01*
X458917Y341885D01*
X458829Y341936D01*
X458740Y341983D01*
X458648Y342027D01*
X458555Y342067D01*
X458461Y342104D01*
X458365Y342136D01*
X458268Y342165D01*
X458170Y342191D01*
X458071Y342212D01*
X457971Y342230D01*
X457871Y342243D01*
X457770Y342253D01*
X457669Y342259D01*
X457568Y342261D01*
X457467Y342259D01*
X457366Y342253D01*
X457265Y342243D01*
X457165Y342230D01*
X457065Y342212D01*
X456966Y342191D01*
X456868Y342165D01*
X456771Y342136D01*
X456675Y342104D01*
X456581Y342067D01*
X456488Y342027D01*
X456396Y341983D01*
X456307Y341936D01*
X456219Y341885D01*
X456133Y341831D01*
X456050Y341774D01*
X455968Y341714D01*
X455890Y341650D01*
X455813Y341584D01*
X455740Y341514D01*
X455669Y341442D01*
X455601Y341367D01*
X455536Y341289D01*
X455474Y341209D01*
X455415Y341127D01*
X455359Y341042D01*
X455307Y340956D01*
X455258Y340867D01*
X455212Y340776D01*
X455171Y340684D01*
X455132Y340590D01*
X455098Y340495D01*
X455067Y340399D01*
X455040Y340301D01*
X455016Y340203D01*
X454997Y340103D01*
X454981Y340003D01*
X454969Y339903D01*
X454961Y339802D01*
X454957Y339701D01*
X454957Y339599D01*
X454961Y339498D01*
X454969Y339397D01*
X454981Y339297D01*
X454997Y339197D01*
X455016Y339097D01*
X455040Y338999D01*
X455067Y338901D01*
X455098Y338805D01*
X455132Y338710D01*
X455171Y338616D01*
X455212Y338524D01*
X455258Y338433D01*
X455307Y338345D01*
X455359Y338258D01*
X455415Y338173D01*
X455474Y338091D01*
X455536Y338011D01*
X455601Y337933D01*
X455669Y337858D01*
X455740Y337786D01*
X455813Y337716D01*
X455890Y337650D01*
X455968Y337586D01*
X456050Y337526D01*
X456133Y337469D01*
X456219Y337415D01*
X456307Y337364D01*
X456396Y337317D01*
X456488Y337273D01*
X456581Y337233D01*
X456675Y337196D01*
X456771Y337164D01*
X456868Y337135D01*
X456966Y337109D01*
X457065Y337088D01*
X457165Y337070D01*
X457265Y337057D01*
X457366Y337047D01*
X457467Y337041D01*
X457568Y337039D01*
X462267Y337562D02*
X462357Y337564D01*
X462446Y337570D01*
X462536Y337579D01*
X462625Y337593D01*
X462713Y337610D01*
X462800Y337631D01*
X462887Y337656D01*
X462972Y337685D01*
X463056Y337717D01*
X463138Y337752D01*
X463219Y337792D01*
X463298Y337834D01*
X463375Y337880D01*
X463450Y337930D01*
X463523Y337982D01*
X463594Y338038D01*
X463662Y338096D01*
X463727Y338158D01*
X463790Y338222D01*
X463850Y338289D01*
X463907Y338358D01*
X463961Y338430D01*
X464012Y338504D01*
X464060Y338580D01*
X464104Y338658D01*
X464145Y338738D01*
X464183Y338820D01*
X464217Y338903D01*
X464247Y338988D01*
X464274Y339074D01*
X464297Y339160D01*
X464316Y339248D01*
X464331Y339337D01*
X464343Y339426D01*
X464351Y339515D01*
X464355Y339605D01*
X464355Y339695D01*
X464351Y339785D01*
X464343Y339874D01*
X464331Y339963D01*
X464316Y340052D01*
X464297Y340140D01*
X464274Y340226D01*
X464247Y340312D01*
X464217Y340397D01*
X464183Y340480D01*
X464145Y340562D01*
X464104Y340642D01*
X464060Y340720D01*
X464012Y340796D01*
X463961Y340870D01*
X463907Y340942D01*
X463850Y341011D01*
X463790Y341078D01*
X463727Y341142D01*
X463662Y341204D01*
X463594Y341262D01*
X463523Y341318D01*
X463450Y341370D01*
X463375Y341420D01*
X463298Y341466D01*
X463219Y341508D01*
X463138Y341548D01*
X463056Y341583D01*
X462972Y341615D01*
X462887Y341644D01*
X462800Y341669D01*
X462713Y341690D01*
X462625Y341707D01*
X462536Y341721D01*
X462446Y341730D01*
X462357Y341736D01*
X462267Y341738D01*
X462177Y341736D01*
X462088Y341730D01*
X461998Y341721D01*
X461909Y341707D01*
X461821Y341690D01*
X461734Y341669D01*
X461647Y341644D01*
X461562Y341615D01*
X461478Y341583D01*
X461396Y341548D01*
X461315Y341508D01*
X461236Y341466D01*
X461159Y341420D01*
X461084Y341370D01*
X461011Y341318D01*
X460940Y341262D01*
X460872Y341204D01*
X460807Y341142D01*
X460744Y341078D01*
X460684Y341011D01*
X460627Y340942D01*
X460573Y340870D01*
X460522Y340796D01*
X460474Y340720D01*
X460430Y340642D01*
X460389Y340562D01*
X460351Y340480D01*
X460317Y340397D01*
X460287Y340312D01*
X460260Y340226D01*
X460237Y340140D01*
X460218Y340052D01*
X460203Y339963D01*
X460191Y339874D01*
X460183Y339785D01*
X460179Y339695D01*
X460179Y339605D01*
X460183Y339515D01*
X460191Y339426D01*
X460203Y339337D01*
X460218Y339248D01*
X460237Y339160D01*
X460260Y339074D01*
X460287Y338988D01*
X460317Y338903D01*
X460351Y338820D01*
X460389Y338738D01*
X460430Y338658D01*
X460474Y338580D01*
X460522Y338504D01*
X460573Y338430D01*
X460627Y338358D01*
X460684Y338289D01*
X460744Y338222D01*
X460807Y338158D01*
X460872Y338096D01*
X460940Y338038D01*
X461011Y337982D01*
X461084Y337930D01*
X461159Y337880D01*
X461236Y337834D01*
X461315Y337792D01*
X461396Y337752D01*
X461478Y337717D01*
X461562Y337685D01*
X461647Y337656D01*
X461734Y337631D01*
X461821Y337610D01*
X461909Y337593D01*
X461998Y337579D01*
X462088Y337570D01*
X462177Y337564D01*
X462267Y337562D01*
D10*
X429057Y263055D02*
X408927Y263055D01*
D62*
X430195Y266627D02*
X430195Y268716D01*
X430196Y266627D02*
X430198Y266538D01*
X430204Y266450D01*
X430213Y266362D01*
X430226Y266274D01*
X430243Y266187D01*
X430263Y266101D01*
X430288Y266016D01*
X430315Y265931D01*
X430347Y265848D01*
X430381Y265767D01*
X430420Y265687D01*
X430461Y265609D01*
X430506Y265532D01*
X430554Y265458D01*
X430605Y265385D01*
X430659Y265315D01*
X430717Y265248D01*
X430777Y265182D01*
X430839Y265120D01*
X430905Y265060D01*
X430972Y265002D01*
X431042Y264948D01*
X431115Y264897D01*
X431189Y264849D01*
X431266Y264804D01*
X431344Y264763D01*
X431424Y264724D01*
X431505Y264690D01*
X431588Y264658D01*
X431673Y264631D01*
X431758Y264606D01*
X431844Y264586D01*
X431931Y264569D01*
X432019Y264556D01*
X432107Y264547D01*
X432195Y264541D01*
X432284Y264539D01*
X437505Y264539D01*
X437596Y264541D01*
X437687Y264547D01*
X437778Y264557D01*
X437868Y264571D01*
X437957Y264588D01*
X438045Y264610D01*
X438133Y264636D01*
X438219Y264665D01*
X438304Y264698D01*
X438387Y264735D01*
X438469Y264775D01*
X438549Y264819D01*
X438627Y264866D01*
X438703Y264917D01*
X438776Y264970D01*
X438847Y265027D01*
X438916Y265088D01*
X438981Y265151D01*
X439044Y265216D01*
X439104Y265285D01*
X439162Y265356D01*
X439215Y265429D01*
X439266Y265505D01*
X439313Y265583D01*
X439357Y265663D01*
X439397Y265745D01*
X439434Y265828D01*
X439467Y265913D01*
X439496Y265999D01*
X439522Y266087D01*
X439544Y266175D01*
X439561Y266264D01*
X439575Y266354D01*
X439585Y266445D01*
X439591Y266536D01*
X439593Y266627D01*
X439593Y268716D01*
X439594Y275056D02*
X439592Y275151D01*
X439586Y275245D01*
X439577Y275339D01*
X439564Y275433D01*
X439547Y275526D01*
X439526Y275618D01*
X439501Y275710D01*
X439473Y275800D01*
X439441Y275889D01*
X439406Y275977D01*
X439367Y276063D01*
X439325Y276148D01*
X439279Y276231D01*
X439230Y276312D01*
X439178Y276391D01*
X439123Y276468D01*
X439064Y276542D01*
X439003Y276614D01*
X438939Y276684D01*
X438872Y276751D01*
X438802Y276815D01*
X438730Y276876D01*
X438656Y276935D01*
X438579Y276990D01*
X438500Y277042D01*
X438419Y277091D01*
X438336Y277137D01*
X438251Y277179D01*
X438165Y277218D01*
X438077Y277253D01*
X437988Y277285D01*
X437898Y277313D01*
X437806Y277338D01*
X437714Y277359D01*
X437621Y277376D01*
X437527Y277389D01*
X437433Y277398D01*
X437339Y277404D01*
X437244Y277406D01*
X439593Y275056D02*
X439591Y274948D01*
X439585Y274839D01*
X439575Y274731D01*
X439562Y274624D01*
X439544Y274517D01*
X439523Y274410D01*
X439498Y274305D01*
X439469Y274200D01*
X439437Y274097D01*
X439400Y273995D01*
X439360Y273894D01*
X439317Y273795D01*
X439270Y273697D01*
X439219Y273601D01*
X439165Y273507D01*
X439108Y273415D01*
X439047Y273325D01*
X438983Y273237D01*
X438917Y273152D01*
X438847Y273069D01*
X438774Y272989D01*
X438698Y272911D01*
X438620Y272836D01*
X438539Y272764D01*
X438455Y272695D01*
X438369Y272629D01*
X438281Y272566D01*
X438190Y272507D01*
X438098Y272450D01*
X438003Y272397D01*
X437907Y272348D01*
X437808Y272302D01*
X437709Y272259D01*
X437607Y272220D01*
X437505Y272185D01*
X435416Y276623D02*
X435485Y276692D01*
X435556Y276758D01*
X435629Y276822D01*
X435705Y276883D01*
X435784Y276941D01*
X435864Y276995D01*
X435947Y277047D01*
X436031Y277095D01*
X436117Y277141D01*
X436205Y277182D01*
X436295Y277221D01*
X436386Y277256D01*
X436478Y277287D01*
X436571Y277315D01*
X436665Y277339D01*
X436760Y277359D01*
X436856Y277376D01*
X436953Y277389D01*
X437050Y277398D01*
X437147Y277404D01*
X437244Y277406D01*
X435417Y276622D02*
X430195Y272184D01*
X430195Y277405D01*
D63*
X380440Y350040D02*
X375440Y355040D01*
X310440Y285050D02*
X310440Y285040D01*
X310480Y355050D02*
X310480Y355060D01*
X315180Y355060D01*
X315140Y285050D02*
X310440Y285050D01*
X310480Y350360D02*
X310480Y355050D01*
X310430Y289740D02*
X310430Y285040D01*
X375760Y285040D02*
X380460Y285040D01*
X380460Y285030D02*
X380460Y289730D01*
X385210Y347690D02*
X385212Y347779D01*
X385218Y347868D01*
X385228Y347957D01*
X385242Y348045D01*
X385259Y348132D01*
X385281Y348218D01*
X385307Y348304D01*
X385336Y348388D01*
X385369Y348471D01*
X385405Y348552D01*
X385446Y348632D01*
X385489Y348709D01*
X385536Y348785D01*
X385587Y348858D01*
X385640Y348929D01*
X385697Y348998D01*
X385757Y349064D01*
X385820Y349128D01*
X385885Y349188D01*
X385953Y349246D01*
X386024Y349300D01*
X386097Y349351D01*
X386172Y349399D01*
X386249Y349444D01*
X386328Y349485D01*
X386409Y349522D01*
X386491Y349556D01*
X386575Y349587D01*
X386660Y349613D01*
X386746Y349636D01*
X386833Y349654D01*
X386921Y349669D01*
X387010Y349680D01*
X387099Y349687D01*
X387188Y349690D01*
X387277Y349689D01*
X387366Y349684D01*
X387454Y349675D01*
X387543Y349662D01*
X387630Y349645D01*
X387717Y349625D01*
X387803Y349600D01*
X387887Y349572D01*
X387970Y349540D01*
X388052Y349504D01*
X388132Y349465D01*
X388210Y349422D01*
X388286Y349376D01*
X388360Y349326D01*
X388432Y349273D01*
X388501Y349217D01*
X388568Y349158D01*
X388632Y349096D01*
X388693Y349032D01*
X388752Y348964D01*
X388807Y348894D01*
X388859Y348822D01*
X388908Y348747D01*
X388953Y348671D01*
X388995Y348592D01*
X389033Y348512D01*
X389068Y348430D01*
X389099Y348346D01*
X389127Y348261D01*
X389150Y348175D01*
X389170Y348088D01*
X389186Y348001D01*
X389198Y347912D01*
X389206Y347824D01*
X389210Y347735D01*
X389210Y347645D01*
X389206Y347556D01*
X389198Y347468D01*
X389186Y347379D01*
X389170Y347292D01*
X389150Y347205D01*
X389127Y347119D01*
X389099Y347034D01*
X389068Y346950D01*
X389033Y346868D01*
X388995Y346788D01*
X388953Y346709D01*
X388908Y346633D01*
X388859Y346558D01*
X388807Y346486D01*
X388752Y346416D01*
X388693Y346348D01*
X388632Y346284D01*
X388568Y346222D01*
X388501Y346163D01*
X388432Y346107D01*
X388360Y346054D01*
X388286Y346004D01*
X388210Y345958D01*
X388132Y345915D01*
X388052Y345876D01*
X387970Y345840D01*
X387887Y345808D01*
X387803Y345780D01*
X387717Y345755D01*
X387630Y345735D01*
X387543Y345718D01*
X387454Y345705D01*
X387366Y345696D01*
X387277Y345691D01*
X387188Y345690D01*
X387099Y345693D01*
X387010Y345700D01*
X386921Y345711D01*
X386833Y345726D01*
X386746Y345744D01*
X386660Y345767D01*
X386575Y345793D01*
X386491Y345824D01*
X386409Y345858D01*
X386328Y345895D01*
X386249Y345936D01*
X386172Y345981D01*
X386097Y346029D01*
X386024Y346080D01*
X385953Y346134D01*
X385885Y346192D01*
X385820Y346252D01*
X385757Y346316D01*
X385697Y346382D01*
X385640Y346451D01*
X385587Y346522D01*
X385536Y346595D01*
X385489Y346671D01*
X385446Y346748D01*
X385405Y346828D01*
X385369Y346909D01*
X385336Y346992D01*
X385307Y347076D01*
X385281Y347162D01*
X385259Y347248D01*
X385242Y347335D01*
X385228Y347423D01*
X385218Y347512D01*
X385212Y347601D01*
X385210Y347690D01*
D62*
X383845Y279618D02*
X383845Y272830D01*
X383846Y272830D02*
X383844Y272729D01*
X383838Y272628D01*
X383828Y272527D01*
X383815Y272427D01*
X383797Y272327D01*
X383776Y272228D01*
X383750Y272130D01*
X383721Y272033D01*
X383689Y271937D01*
X383652Y271843D01*
X383612Y271750D01*
X383568Y271658D01*
X383521Y271569D01*
X383470Y271481D01*
X383416Y271395D01*
X383359Y271312D01*
X383299Y271230D01*
X383235Y271152D01*
X383169Y271075D01*
X383099Y271002D01*
X383027Y270931D01*
X382952Y270863D01*
X382874Y270798D01*
X382794Y270736D01*
X382712Y270677D01*
X382627Y270621D01*
X382540Y270569D01*
X382452Y270520D01*
X382361Y270474D01*
X382269Y270433D01*
X382175Y270394D01*
X382080Y270360D01*
X381984Y270329D01*
X381886Y270302D01*
X381788Y270278D01*
X381688Y270259D01*
X381588Y270243D01*
X381488Y270231D01*
X381387Y270223D01*
X381286Y270219D01*
X381184Y270219D01*
X381083Y270223D01*
X380982Y270231D01*
X380882Y270243D01*
X380782Y270259D01*
X380682Y270278D01*
X380584Y270302D01*
X380486Y270329D01*
X380390Y270360D01*
X380295Y270394D01*
X380201Y270433D01*
X380109Y270474D01*
X380018Y270520D01*
X379930Y270569D01*
X379843Y270621D01*
X379758Y270677D01*
X379676Y270736D01*
X379596Y270798D01*
X379518Y270863D01*
X379443Y270931D01*
X379371Y271002D01*
X379301Y271075D01*
X379235Y271152D01*
X379171Y271230D01*
X379111Y271312D01*
X379054Y271395D01*
X379000Y271481D01*
X378949Y271569D01*
X378902Y271658D01*
X378858Y271750D01*
X378818Y271843D01*
X378781Y271937D01*
X378749Y272033D01*
X378720Y272130D01*
X378694Y272228D01*
X378673Y272327D01*
X378655Y272427D01*
X378642Y272527D01*
X378632Y272628D01*
X378626Y272729D01*
X378624Y272830D01*
X378624Y279618D01*
X374397Y277529D02*
X371786Y279618D01*
X371786Y270220D01*
X369176Y270220D02*
X374397Y270220D01*
D64*
X411480Y307340D02*
X411480Y342900D01*
X411480Y307340D02*
X431800Y307340D01*
X431800Y342900D01*
X411480Y342900D01*
D62*
X407685Y314395D02*
X398287Y308130D01*
X398287Y314395D02*
X407685Y308130D01*
X405597Y317796D02*
X407685Y320406D01*
X398287Y320406D01*
X398287Y317796D02*
X398287Y323017D01*
X453230Y349959D02*
X462628Y349959D01*
X462628Y352569D01*
X462626Y352670D01*
X462620Y352771D01*
X462610Y352872D01*
X462597Y352972D01*
X462579Y353072D01*
X462558Y353171D01*
X462532Y353269D01*
X462503Y353366D01*
X462471Y353462D01*
X462434Y353556D01*
X462394Y353649D01*
X462350Y353741D01*
X462303Y353830D01*
X462252Y353918D01*
X462198Y354004D01*
X462141Y354087D01*
X462081Y354169D01*
X462017Y354247D01*
X461951Y354324D01*
X461881Y354397D01*
X461809Y354468D01*
X461734Y354536D01*
X461656Y354601D01*
X461576Y354663D01*
X461494Y354722D01*
X461409Y354778D01*
X461323Y354830D01*
X461234Y354879D01*
X461143Y354925D01*
X461051Y354966D01*
X460957Y355005D01*
X460862Y355039D01*
X460766Y355070D01*
X460668Y355097D01*
X460570Y355121D01*
X460470Y355140D01*
X460370Y355156D01*
X460270Y355168D01*
X460169Y355176D01*
X460068Y355180D01*
X459966Y355180D01*
X459865Y355176D01*
X459764Y355168D01*
X459664Y355156D01*
X459564Y355140D01*
X459464Y355121D01*
X459366Y355097D01*
X459268Y355070D01*
X459172Y355039D01*
X459077Y355005D01*
X458983Y354966D01*
X458891Y354925D01*
X458800Y354879D01*
X458712Y354830D01*
X458625Y354778D01*
X458540Y354722D01*
X458458Y354663D01*
X458378Y354601D01*
X458300Y354536D01*
X458225Y354468D01*
X458153Y354397D01*
X458083Y354324D01*
X458017Y354247D01*
X457953Y354169D01*
X457893Y354087D01*
X457836Y354004D01*
X457782Y353918D01*
X457731Y353830D01*
X457684Y353741D01*
X457640Y353649D01*
X457600Y353556D01*
X457563Y353462D01*
X457531Y353366D01*
X457502Y353269D01*
X457476Y353171D01*
X457455Y353072D01*
X457437Y352972D01*
X457424Y352872D01*
X457414Y352771D01*
X457408Y352670D01*
X457406Y352569D01*
X457407Y352569D02*
X457407Y349959D01*
X457407Y353091D02*
X453230Y355180D01*
X453230Y359046D02*
X453230Y361656D01*
X453229Y361656D02*
X453231Y361757D01*
X453237Y361858D01*
X453247Y361959D01*
X453260Y362059D01*
X453278Y362159D01*
X453299Y362258D01*
X453325Y362356D01*
X453354Y362453D01*
X453386Y362549D01*
X453423Y362643D01*
X453463Y362736D01*
X453507Y362828D01*
X453554Y362917D01*
X453605Y363005D01*
X453659Y363091D01*
X453716Y363174D01*
X453776Y363256D01*
X453840Y363334D01*
X453906Y363411D01*
X453976Y363484D01*
X454048Y363555D01*
X454123Y363623D01*
X454201Y363688D01*
X454281Y363750D01*
X454363Y363809D01*
X454448Y363865D01*
X454535Y363917D01*
X454623Y363966D01*
X454714Y364012D01*
X454806Y364053D01*
X454900Y364092D01*
X454995Y364126D01*
X455091Y364157D01*
X455189Y364184D01*
X455287Y364208D01*
X455387Y364227D01*
X455487Y364243D01*
X455587Y364255D01*
X455688Y364263D01*
X455789Y364267D01*
X455891Y364267D01*
X455992Y364263D01*
X456093Y364255D01*
X456193Y364243D01*
X456293Y364227D01*
X456393Y364208D01*
X456491Y364184D01*
X456589Y364157D01*
X456685Y364126D01*
X456780Y364092D01*
X456874Y364053D01*
X456966Y364012D01*
X457057Y363966D01*
X457146Y363917D01*
X457232Y363865D01*
X457317Y363809D01*
X457399Y363750D01*
X457479Y363688D01*
X457557Y363623D01*
X457632Y363555D01*
X457704Y363484D01*
X457774Y363411D01*
X457840Y363334D01*
X457904Y363256D01*
X457964Y363174D01*
X458021Y363091D01*
X458075Y363005D01*
X458126Y362917D01*
X458173Y362828D01*
X458217Y362736D01*
X458257Y362643D01*
X458294Y362549D01*
X458326Y362453D01*
X458355Y362356D01*
X458381Y362258D01*
X458402Y362159D01*
X458420Y362059D01*
X458433Y361959D01*
X458443Y361858D01*
X458449Y361757D01*
X458451Y361656D01*
X462628Y362178D02*
X462628Y359046D01*
X462627Y362178D02*
X462625Y362268D01*
X462619Y362357D01*
X462610Y362447D01*
X462596Y362536D01*
X462579Y362624D01*
X462558Y362711D01*
X462533Y362798D01*
X462504Y362883D01*
X462472Y362967D01*
X462437Y363049D01*
X462397Y363130D01*
X462355Y363209D01*
X462309Y363286D01*
X462259Y363361D01*
X462207Y363434D01*
X462151Y363505D01*
X462093Y363573D01*
X462031Y363638D01*
X461967Y363701D01*
X461900Y363761D01*
X461831Y363818D01*
X461759Y363872D01*
X461685Y363923D01*
X461609Y363971D01*
X461531Y364015D01*
X461451Y364056D01*
X461369Y364094D01*
X461286Y364128D01*
X461201Y364158D01*
X461115Y364185D01*
X461029Y364208D01*
X460941Y364227D01*
X460852Y364242D01*
X460763Y364254D01*
X460674Y364262D01*
X460584Y364266D01*
X460494Y364266D01*
X460404Y364262D01*
X460315Y364254D01*
X460226Y364242D01*
X460137Y364227D01*
X460049Y364208D01*
X459963Y364185D01*
X459877Y364158D01*
X459792Y364128D01*
X459709Y364094D01*
X459627Y364056D01*
X459547Y364015D01*
X459469Y363971D01*
X459393Y363923D01*
X459319Y363872D01*
X459247Y363818D01*
X459178Y363761D01*
X459111Y363701D01*
X459047Y363638D01*
X458985Y363573D01*
X458927Y363505D01*
X458871Y363434D01*
X458819Y363361D01*
X458769Y363286D01*
X458723Y363209D01*
X458681Y363130D01*
X458641Y363049D01*
X458606Y362967D01*
X458574Y362883D01*
X458545Y362798D01*
X458520Y362711D01*
X458499Y362624D01*
X458482Y362536D01*
X458468Y362447D01*
X458459Y362357D01*
X458453Y362268D01*
X458451Y362178D01*
X458451Y360090D01*
D10*
X284493Y368135D02*
X264363Y368135D01*
D62*
X254381Y345997D02*
X254381Y343909D01*
X254382Y343909D02*
X254384Y343820D01*
X254390Y343732D01*
X254399Y343644D01*
X254412Y343556D01*
X254429Y343469D01*
X254449Y343383D01*
X254474Y343298D01*
X254501Y343213D01*
X254533Y343130D01*
X254567Y343049D01*
X254606Y342969D01*
X254647Y342891D01*
X254692Y342814D01*
X254740Y342740D01*
X254791Y342667D01*
X254845Y342597D01*
X254903Y342530D01*
X254963Y342464D01*
X255025Y342402D01*
X255091Y342342D01*
X255158Y342284D01*
X255228Y342230D01*
X255301Y342179D01*
X255375Y342131D01*
X255452Y342086D01*
X255530Y342045D01*
X255610Y342006D01*
X255691Y341972D01*
X255774Y341940D01*
X255859Y341913D01*
X255944Y341888D01*
X256030Y341868D01*
X256117Y341851D01*
X256205Y341838D01*
X256293Y341829D01*
X256381Y341823D01*
X256470Y341821D01*
X256470Y341820D02*
X261691Y341820D01*
X261691Y341821D02*
X261782Y341823D01*
X261873Y341829D01*
X261964Y341839D01*
X262054Y341853D01*
X262143Y341870D01*
X262231Y341892D01*
X262319Y341918D01*
X262405Y341947D01*
X262490Y341980D01*
X262573Y342017D01*
X262655Y342057D01*
X262735Y342101D01*
X262813Y342148D01*
X262889Y342199D01*
X262962Y342252D01*
X263033Y342309D01*
X263102Y342370D01*
X263167Y342433D01*
X263230Y342498D01*
X263290Y342567D01*
X263348Y342638D01*
X263401Y342711D01*
X263452Y342787D01*
X263499Y342865D01*
X263543Y342945D01*
X263583Y343027D01*
X263620Y343110D01*
X263653Y343195D01*
X263682Y343281D01*
X263708Y343369D01*
X263730Y343457D01*
X263747Y343546D01*
X263761Y343636D01*
X263771Y343727D01*
X263777Y343818D01*
X263779Y343909D01*
X263779Y345997D01*
X263779Y351554D02*
X256470Y349466D01*
X256470Y354687D01*
X258558Y353121D02*
X254381Y353121D01*
D10*
X280657Y278041D02*
X300787Y278041D01*
D62*
X271061Y293762D02*
X271061Y295850D01*
X271062Y293762D02*
X271064Y293673D01*
X271070Y293585D01*
X271079Y293497D01*
X271092Y293409D01*
X271109Y293322D01*
X271129Y293236D01*
X271154Y293151D01*
X271181Y293066D01*
X271213Y292983D01*
X271247Y292902D01*
X271286Y292822D01*
X271327Y292744D01*
X271372Y292667D01*
X271420Y292593D01*
X271471Y292520D01*
X271525Y292450D01*
X271583Y292383D01*
X271643Y292317D01*
X271705Y292255D01*
X271771Y292195D01*
X271838Y292137D01*
X271908Y292083D01*
X271981Y292032D01*
X272055Y291984D01*
X272132Y291939D01*
X272210Y291898D01*
X272290Y291859D01*
X272371Y291825D01*
X272454Y291793D01*
X272539Y291766D01*
X272624Y291741D01*
X272710Y291721D01*
X272797Y291704D01*
X272885Y291691D01*
X272973Y291682D01*
X273061Y291676D01*
X273150Y291674D01*
X273150Y291673D02*
X278371Y291673D01*
X278371Y291674D02*
X278462Y291676D01*
X278553Y291682D01*
X278644Y291692D01*
X278734Y291706D01*
X278823Y291723D01*
X278911Y291745D01*
X278999Y291771D01*
X279085Y291800D01*
X279170Y291833D01*
X279253Y291870D01*
X279335Y291910D01*
X279415Y291954D01*
X279493Y292001D01*
X279569Y292052D01*
X279642Y292105D01*
X279713Y292162D01*
X279782Y292223D01*
X279847Y292286D01*
X279910Y292351D01*
X279970Y292420D01*
X280028Y292491D01*
X280081Y292564D01*
X280132Y292640D01*
X280179Y292718D01*
X280223Y292798D01*
X280263Y292880D01*
X280300Y292963D01*
X280333Y293048D01*
X280362Y293134D01*
X280388Y293222D01*
X280410Y293310D01*
X280427Y293399D01*
X280441Y293489D01*
X280451Y293580D01*
X280457Y293671D01*
X280459Y293762D01*
X280459Y295850D01*
X280459Y299319D02*
X279415Y299319D01*
X280459Y299319D02*
X280459Y304540D01*
X271061Y301930D01*
X393883Y264128D02*
X393883Y262039D01*
X393884Y262039D02*
X393886Y261950D01*
X393892Y261862D01*
X393901Y261774D01*
X393914Y261686D01*
X393931Y261599D01*
X393951Y261513D01*
X393976Y261428D01*
X394003Y261343D01*
X394035Y261260D01*
X394069Y261179D01*
X394108Y261099D01*
X394149Y261021D01*
X394194Y260944D01*
X394242Y260870D01*
X394293Y260797D01*
X394347Y260727D01*
X394405Y260660D01*
X394465Y260594D01*
X394527Y260532D01*
X394593Y260472D01*
X394660Y260414D01*
X394730Y260360D01*
X394803Y260309D01*
X394877Y260261D01*
X394954Y260216D01*
X395032Y260175D01*
X395112Y260136D01*
X395193Y260102D01*
X395276Y260070D01*
X395361Y260043D01*
X395446Y260018D01*
X395532Y259998D01*
X395619Y259981D01*
X395707Y259968D01*
X395795Y259959D01*
X395883Y259953D01*
X395972Y259951D01*
X401193Y259951D01*
X401284Y259953D01*
X401375Y259959D01*
X401466Y259969D01*
X401556Y259983D01*
X401645Y260000D01*
X401733Y260022D01*
X401821Y260048D01*
X401907Y260077D01*
X401992Y260110D01*
X402075Y260147D01*
X402157Y260187D01*
X402237Y260231D01*
X402315Y260278D01*
X402391Y260329D01*
X402464Y260382D01*
X402535Y260439D01*
X402604Y260500D01*
X402669Y260563D01*
X402732Y260628D01*
X402792Y260697D01*
X402850Y260768D01*
X402903Y260841D01*
X402954Y260917D01*
X403001Y260995D01*
X403045Y261075D01*
X403085Y261157D01*
X403122Y261240D01*
X403155Y261325D01*
X403184Y261411D01*
X403210Y261499D01*
X403232Y261587D01*
X403249Y261676D01*
X403263Y261766D01*
X403273Y261857D01*
X403279Y261948D01*
X403281Y262039D01*
X403281Y264128D01*
X401193Y267596D02*
X403281Y270207D01*
X393883Y270207D01*
X393883Y267596D02*
X393883Y272818D01*
X288890Y320290D02*
X288890Y322379D01*
X288890Y320290D02*
X288892Y320201D01*
X288898Y320113D01*
X288907Y320025D01*
X288920Y319937D01*
X288937Y319850D01*
X288957Y319764D01*
X288982Y319679D01*
X289009Y319594D01*
X289041Y319511D01*
X289075Y319430D01*
X289114Y319350D01*
X289155Y319272D01*
X289200Y319195D01*
X289248Y319121D01*
X289299Y319048D01*
X289353Y318978D01*
X289411Y318911D01*
X289471Y318845D01*
X289533Y318783D01*
X289599Y318723D01*
X289666Y318665D01*
X289736Y318611D01*
X289809Y318560D01*
X289883Y318512D01*
X289960Y318467D01*
X290038Y318426D01*
X290118Y318387D01*
X290199Y318353D01*
X290282Y318321D01*
X290367Y318294D01*
X290452Y318269D01*
X290538Y318249D01*
X290625Y318232D01*
X290713Y318219D01*
X290801Y318210D01*
X290889Y318204D01*
X290978Y318202D01*
X296199Y318202D01*
X296290Y318204D01*
X296381Y318210D01*
X296472Y318220D01*
X296562Y318234D01*
X296651Y318251D01*
X296739Y318273D01*
X296827Y318299D01*
X296913Y318328D01*
X296998Y318361D01*
X297081Y318398D01*
X297163Y318438D01*
X297243Y318482D01*
X297321Y318529D01*
X297397Y318580D01*
X297470Y318633D01*
X297541Y318690D01*
X297610Y318751D01*
X297675Y318814D01*
X297738Y318879D01*
X297798Y318948D01*
X297856Y319019D01*
X297909Y319092D01*
X297960Y319168D01*
X298007Y319246D01*
X298051Y319326D01*
X298091Y319408D01*
X298128Y319491D01*
X298161Y319576D01*
X298190Y319662D01*
X298216Y319750D01*
X298238Y319838D01*
X298255Y319927D01*
X298269Y320017D01*
X298279Y320108D01*
X298285Y320199D01*
X298287Y320290D01*
X298288Y320290D02*
X298288Y322379D01*
X288890Y325848D02*
X288890Y328458D01*
X288889Y328458D02*
X288891Y328559D01*
X288897Y328660D01*
X288907Y328761D01*
X288920Y328861D01*
X288938Y328961D01*
X288959Y329060D01*
X288985Y329158D01*
X289014Y329255D01*
X289046Y329351D01*
X289083Y329445D01*
X289123Y329538D01*
X289167Y329630D01*
X289214Y329719D01*
X289265Y329807D01*
X289319Y329893D01*
X289376Y329976D01*
X289436Y330058D01*
X289500Y330136D01*
X289566Y330213D01*
X289636Y330286D01*
X289708Y330357D01*
X289783Y330425D01*
X289861Y330490D01*
X289941Y330552D01*
X290023Y330611D01*
X290108Y330667D01*
X290195Y330719D01*
X290283Y330768D01*
X290374Y330814D01*
X290466Y330855D01*
X290560Y330894D01*
X290655Y330928D01*
X290751Y330959D01*
X290849Y330986D01*
X290947Y331010D01*
X291047Y331029D01*
X291147Y331045D01*
X291247Y331057D01*
X291348Y331065D01*
X291449Y331069D01*
X291551Y331069D01*
X291652Y331065D01*
X291753Y331057D01*
X291853Y331045D01*
X291953Y331029D01*
X292053Y331010D01*
X292151Y330986D01*
X292249Y330959D01*
X292345Y330928D01*
X292440Y330894D01*
X292534Y330855D01*
X292626Y330814D01*
X292717Y330768D01*
X292806Y330719D01*
X292892Y330667D01*
X292977Y330611D01*
X293059Y330552D01*
X293139Y330490D01*
X293217Y330425D01*
X293292Y330357D01*
X293364Y330286D01*
X293434Y330213D01*
X293500Y330136D01*
X293564Y330058D01*
X293624Y329976D01*
X293681Y329893D01*
X293735Y329807D01*
X293786Y329719D01*
X293833Y329630D01*
X293877Y329538D01*
X293917Y329445D01*
X293954Y329351D01*
X293986Y329255D01*
X294015Y329158D01*
X294041Y329060D01*
X294062Y328961D01*
X294080Y328861D01*
X294093Y328761D01*
X294103Y328660D01*
X294109Y328559D01*
X294111Y328458D01*
X298288Y328980D02*
X298288Y325848D01*
X298287Y328980D02*
X298285Y329070D01*
X298279Y329159D01*
X298270Y329249D01*
X298256Y329338D01*
X298239Y329426D01*
X298218Y329513D01*
X298193Y329600D01*
X298164Y329685D01*
X298132Y329769D01*
X298097Y329851D01*
X298057Y329932D01*
X298015Y330011D01*
X297969Y330088D01*
X297919Y330163D01*
X297867Y330236D01*
X297811Y330307D01*
X297753Y330375D01*
X297691Y330440D01*
X297627Y330503D01*
X297560Y330563D01*
X297491Y330620D01*
X297419Y330674D01*
X297345Y330725D01*
X297269Y330773D01*
X297191Y330817D01*
X297111Y330858D01*
X297029Y330896D01*
X296946Y330930D01*
X296861Y330960D01*
X296775Y330987D01*
X296689Y331010D01*
X296601Y331029D01*
X296512Y331044D01*
X296423Y331056D01*
X296334Y331064D01*
X296244Y331068D01*
X296154Y331068D01*
X296064Y331064D01*
X295975Y331056D01*
X295886Y331044D01*
X295797Y331029D01*
X295709Y331010D01*
X295623Y330987D01*
X295537Y330960D01*
X295452Y330930D01*
X295369Y330896D01*
X295287Y330858D01*
X295207Y330817D01*
X295129Y330773D01*
X295053Y330725D01*
X294979Y330674D01*
X294907Y330620D01*
X294838Y330563D01*
X294771Y330503D01*
X294707Y330440D01*
X294645Y330375D01*
X294587Y330307D01*
X294531Y330236D01*
X294479Y330163D01*
X294429Y330088D01*
X294383Y330011D01*
X294341Y329932D01*
X294301Y329851D01*
X294266Y329769D01*
X294234Y329685D01*
X294205Y329600D01*
X294180Y329513D01*
X294159Y329426D01*
X294142Y329338D01*
X294128Y329249D01*
X294119Y329159D01*
X294113Y329070D01*
X294111Y328980D01*
X294111Y326892D01*
X420938Y359870D02*
X423026Y359870D01*
X423115Y359872D01*
X423203Y359878D01*
X423291Y359887D01*
X423379Y359900D01*
X423466Y359917D01*
X423552Y359937D01*
X423637Y359962D01*
X423722Y359989D01*
X423805Y360021D01*
X423886Y360055D01*
X423966Y360094D01*
X424044Y360135D01*
X424121Y360180D01*
X424195Y360228D01*
X424268Y360279D01*
X424338Y360333D01*
X424405Y360391D01*
X424471Y360451D01*
X424533Y360513D01*
X424593Y360579D01*
X424651Y360646D01*
X424705Y360716D01*
X424756Y360789D01*
X424804Y360863D01*
X424849Y360940D01*
X424890Y361018D01*
X424929Y361098D01*
X424963Y361179D01*
X424995Y361262D01*
X425022Y361347D01*
X425047Y361432D01*
X425067Y361518D01*
X425084Y361605D01*
X425097Y361693D01*
X425106Y361781D01*
X425112Y361869D01*
X425114Y361958D01*
X425115Y361958D02*
X425115Y367179D01*
X425114Y367179D02*
X425112Y367268D01*
X425106Y367356D01*
X425097Y367444D01*
X425084Y367532D01*
X425067Y367619D01*
X425047Y367705D01*
X425022Y367790D01*
X424995Y367875D01*
X424963Y367958D01*
X424929Y368039D01*
X424890Y368119D01*
X424849Y368197D01*
X424804Y368274D01*
X424756Y368348D01*
X424705Y368421D01*
X424651Y368491D01*
X424593Y368558D01*
X424533Y368624D01*
X424471Y368686D01*
X424405Y368746D01*
X424338Y368804D01*
X424268Y368858D01*
X424195Y368909D01*
X424121Y368957D01*
X424044Y369002D01*
X423966Y369043D01*
X423886Y369082D01*
X423805Y369116D01*
X423722Y369148D01*
X423637Y369175D01*
X423552Y369200D01*
X423466Y369220D01*
X423379Y369237D01*
X423291Y369250D01*
X423203Y369259D01*
X423115Y369265D01*
X423026Y369267D01*
X423026Y369268D02*
X420938Y369268D01*
X417469Y359870D02*
X414336Y359870D01*
X414247Y359872D01*
X414159Y359878D01*
X414071Y359887D01*
X413983Y359900D01*
X413896Y359917D01*
X413810Y359937D01*
X413725Y359962D01*
X413640Y359989D01*
X413557Y360021D01*
X413476Y360055D01*
X413396Y360094D01*
X413318Y360135D01*
X413241Y360180D01*
X413167Y360228D01*
X413094Y360279D01*
X413024Y360333D01*
X412957Y360391D01*
X412891Y360451D01*
X412829Y360513D01*
X412769Y360579D01*
X412711Y360646D01*
X412657Y360716D01*
X412606Y360789D01*
X412558Y360863D01*
X412513Y360940D01*
X412472Y361018D01*
X412433Y361098D01*
X412399Y361179D01*
X412367Y361262D01*
X412340Y361347D01*
X412315Y361432D01*
X412295Y361518D01*
X412278Y361605D01*
X412265Y361693D01*
X412256Y361781D01*
X412250Y361869D01*
X412248Y361958D01*
X412248Y363002D01*
X412250Y363091D01*
X412256Y363179D01*
X412265Y363267D01*
X412278Y363355D01*
X412295Y363442D01*
X412315Y363528D01*
X412340Y363613D01*
X412367Y363698D01*
X412399Y363781D01*
X412433Y363862D01*
X412472Y363942D01*
X412513Y364020D01*
X412558Y364097D01*
X412606Y364171D01*
X412657Y364244D01*
X412711Y364314D01*
X412769Y364381D01*
X412829Y364447D01*
X412891Y364509D01*
X412957Y364569D01*
X413024Y364627D01*
X413094Y364681D01*
X413167Y364732D01*
X413241Y364780D01*
X413318Y364825D01*
X413396Y364866D01*
X413476Y364905D01*
X413557Y364939D01*
X413640Y364971D01*
X413725Y364998D01*
X413810Y365023D01*
X413896Y365043D01*
X413983Y365060D01*
X414071Y365073D01*
X414159Y365082D01*
X414247Y365088D01*
X414336Y365090D01*
X414336Y365091D02*
X417469Y365091D01*
X417469Y369268D01*
X412248Y369268D01*
X305346Y251242D02*
X303257Y251242D01*
X305346Y251242D02*
X305435Y251244D01*
X305523Y251250D01*
X305611Y251259D01*
X305699Y251272D01*
X305786Y251289D01*
X305872Y251309D01*
X305957Y251334D01*
X306042Y251361D01*
X306125Y251393D01*
X306206Y251427D01*
X306286Y251466D01*
X306364Y251507D01*
X306441Y251552D01*
X306515Y251600D01*
X306588Y251651D01*
X306658Y251705D01*
X306725Y251763D01*
X306791Y251823D01*
X306853Y251885D01*
X306913Y251951D01*
X306971Y252018D01*
X307025Y252088D01*
X307076Y252161D01*
X307124Y252235D01*
X307169Y252312D01*
X307210Y252390D01*
X307249Y252470D01*
X307283Y252551D01*
X307315Y252634D01*
X307342Y252719D01*
X307367Y252804D01*
X307387Y252890D01*
X307404Y252977D01*
X307417Y253065D01*
X307426Y253153D01*
X307432Y253241D01*
X307434Y253330D01*
X307434Y258551D01*
X307432Y258640D01*
X307426Y258728D01*
X307417Y258816D01*
X307404Y258904D01*
X307387Y258991D01*
X307367Y259077D01*
X307342Y259162D01*
X307315Y259247D01*
X307283Y259330D01*
X307249Y259411D01*
X307210Y259491D01*
X307169Y259569D01*
X307124Y259646D01*
X307076Y259720D01*
X307025Y259793D01*
X306971Y259863D01*
X306913Y259930D01*
X306853Y259996D01*
X306791Y260058D01*
X306725Y260118D01*
X306658Y260176D01*
X306588Y260230D01*
X306515Y260281D01*
X306441Y260329D01*
X306364Y260374D01*
X306286Y260415D01*
X306206Y260454D01*
X306125Y260488D01*
X306042Y260520D01*
X305957Y260547D01*
X305872Y260572D01*
X305786Y260592D01*
X305699Y260609D01*
X305611Y260622D01*
X305523Y260631D01*
X305435Y260637D01*
X305346Y260639D01*
X305346Y260640D02*
X303257Y260640D01*
X299788Y256463D02*
X296656Y256463D01*
X296656Y256462D02*
X296567Y256460D01*
X296479Y256454D01*
X296391Y256445D01*
X296303Y256432D01*
X296216Y256415D01*
X296130Y256395D01*
X296045Y256370D01*
X295960Y256343D01*
X295877Y256311D01*
X295796Y256277D01*
X295716Y256238D01*
X295638Y256197D01*
X295561Y256152D01*
X295487Y256104D01*
X295414Y256053D01*
X295344Y255999D01*
X295277Y255941D01*
X295211Y255881D01*
X295149Y255819D01*
X295089Y255753D01*
X295031Y255686D01*
X294977Y255616D01*
X294926Y255543D01*
X294878Y255469D01*
X294833Y255392D01*
X294792Y255314D01*
X294753Y255234D01*
X294719Y255153D01*
X294687Y255070D01*
X294660Y254985D01*
X294635Y254900D01*
X294615Y254814D01*
X294598Y254727D01*
X294585Y254639D01*
X294576Y254551D01*
X294570Y254463D01*
X294568Y254374D01*
X294567Y254374D02*
X294567Y253852D01*
X294569Y253751D01*
X294575Y253650D01*
X294585Y253549D01*
X294598Y253449D01*
X294616Y253349D01*
X294637Y253250D01*
X294663Y253152D01*
X294692Y253055D01*
X294724Y252959D01*
X294761Y252865D01*
X294801Y252772D01*
X294845Y252680D01*
X294892Y252591D01*
X294943Y252503D01*
X294997Y252417D01*
X295054Y252334D01*
X295114Y252252D01*
X295178Y252174D01*
X295244Y252097D01*
X295314Y252024D01*
X295386Y251953D01*
X295461Y251885D01*
X295539Y251820D01*
X295619Y251758D01*
X295701Y251699D01*
X295786Y251643D01*
X295873Y251591D01*
X295961Y251542D01*
X296052Y251496D01*
X296144Y251455D01*
X296238Y251416D01*
X296333Y251382D01*
X296429Y251351D01*
X296527Y251324D01*
X296625Y251300D01*
X296725Y251281D01*
X296825Y251265D01*
X296925Y251253D01*
X297026Y251245D01*
X297127Y251241D01*
X297229Y251241D01*
X297330Y251245D01*
X297431Y251253D01*
X297531Y251265D01*
X297631Y251281D01*
X297731Y251300D01*
X297829Y251324D01*
X297927Y251351D01*
X298023Y251382D01*
X298118Y251416D01*
X298212Y251455D01*
X298304Y251496D01*
X298395Y251542D01*
X298483Y251591D01*
X298570Y251643D01*
X298655Y251699D01*
X298737Y251758D01*
X298817Y251820D01*
X298895Y251885D01*
X298970Y251953D01*
X299042Y252024D01*
X299112Y252097D01*
X299178Y252174D01*
X299242Y252252D01*
X299302Y252334D01*
X299359Y252417D01*
X299413Y252503D01*
X299464Y252591D01*
X299511Y252680D01*
X299555Y252772D01*
X299595Y252865D01*
X299632Y252959D01*
X299664Y253055D01*
X299693Y253152D01*
X299719Y253250D01*
X299740Y253349D01*
X299758Y253449D01*
X299771Y253549D01*
X299781Y253650D01*
X299787Y253751D01*
X299789Y253852D01*
X299788Y253852D02*
X299788Y256463D01*
X299786Y256589D01*
X299780Y256715D01*
X299771Y256841D01*
X299758Y256966D01*
X299740Y257091D01*
X299720Y257216D01*
X299695Y257340D01*
X299667Y257463D01*
X299635Y257585D01*
X299599Y257706D01*
X299560Y257826D01*
X299517Y257944D01*
X299470Y258061D01*
X299420Y258177D01*
X299366Y258292D01*
X299310Y258404D01*
X299249Y258515D01*
X299186Y258624D01*
X299119Y258731D01*
X299049Y258836D01*
X298975Y258939D01*
X298899Y259039D01*
X298820Y259137D01*
X298738Y259233D01*
X298652Y259326D01*
X298565Y259417D01*
X298474Y259504D01*
X298381Y259590D01*
X298285Y259672D01*
X298187Y259751D01*
X298087Y259827D01*
X297984Y259901D01*
X297879Y259971D01*
X297772Y260038D01*
X297663Y260101D01*
X297552Y260162D01*
X297440Y260218D01*
X297325Y260272D01*
X297209Y260322D01*
X297092Y260369D01*
X296974Y260412D01*
X296854Y260451D01*
X296733Y260487D01*
X296611Y260519D01*
X296488Y260547D01*
X296364Y260572D01*
X296239Y260592D01*
X296114Y260610D01*
X295989Y260623D01*
X295863Y260632D01*
X295737Y260638D01*
X295611Y260640D01*
X386778Y321445D02*
X386778Y323534D01*
X386779Y321445D02*
X386781Y321356D01*
X386787Y321268D01*
X386796Y321180D01*
X386809Y321092D01*
X386826Y321005D01*
X386846Y320919D01*
X386871Y320834D01*
X386898Y320749D01*
X386930Y320666D01*
X386964Y320585D01*
X387003Y320505D01*
X387044Y320427D01*
X387089Y320350D01*
X387137Y320276D01*
X387188Y320203D01*
X387242Y320133D01*
X387300Y320066D01*
X387360Y320000D01*
X387422Y319938D01*
X387488Y319878D01*
X387555Y319820D01*
X387625Y319766D01*
X387698Y319715D01*
X387772Y319667D01*
X387849Y319622D01*
X387927Y319581D01*
X388007Y319542D01*
X388088Y319508D01*
X388171Y319476D01*
X388256Y319449D01*
X388341Y319424D01*
X388427Y319404D01*
X388514Y319387D01*
X388602Y319374D01*
X388690Y319365D01*
X388778Y319359D01*
X388867Y319357D01*
X394088Y319357D01*
X394179Y319359D01*
X394270Y319365D01*
X394361Y319375D01*
X394451Y319389D01*
X394540Y319406D01*
X394628Y319428D01*
X394716Y319454D01*
X394802Y319483D01*
X394887Y319516D01*
X394970Y319553D01*
X395052Y319593D01*
X395132Y319637D01*
X395210Y319684D01*
X395286Y319735D01*
X395359Y319788D01*
X395430Y319845D01*
X395499Y319906D01*
X395564Y319969D01*
X395627Y320034D01*
X395687Y320103D01*
X395745Y320174D01*
X395798Y320247D01*
X395849Y320323D01*
X395896Y320401D01*
X395940Y320481D01*
X395980Y320563D01*
X396017Y320646D01*
X396050Y320731D01*
X396079Y320817D01*
X396105Y320905D01*
X396127Y320993D01*
X396144Y321082D01*
X396158Y321172D01*
X396168Y321263D01*
X396174Y321354D01*
X396176Y321445D01*
X396176Y323534D01*
X390955Y329091D02*
X390955Y332224D01*
X390956Y329091D02*
X390958Y329002D01*
X390964Y328914D01*
X390973Y328826D01*
X390986Y328738D01*
X391003Y328651D01*
X391023Y328565D01*
X391048Y328480D01*
X391075Y328395D01*
X391107Y328312D01*
X391141Y328231D01*
X391180Y328151D01*
X391221Y328073D01*
X391266Y327996D01*
X391314Y327922D01*
X391365Y327849D01*
X391419Y327779D01*
X391477Y327712D01*
X391537Y327646D01*
X391599Y327584D01*
X391665Y327524D01*
X391732Y327466D01*
X391802Y327412D01*
X391875Y327361D01*
X391949Y327313D01*
X392026Y327268D01*
X392104Y327227D01*
X392184Y327188D01*
X392265Y327154D01*
X392348Y327122D01*
X392433Y327095D01*
X392518Y327070D01*
X392604Y327050D01*
X392691Y327033D01*
X392779Y327020D01*
X392867Y327011D01*
X392955Y327005D01*
X393044Y327003D01*
X393044Y327002D02*
X393566Y327002D01*
X393667Y327004D01*
X393768Y327010D01*
X393869Y327020D01*
X393969Y327033D01*
X394069Y327051D01*
X394168Y327072D01*
X394266Y327098D01*
X394363Y327127D01*
X394459Y327159D01*
X394553Y327196D01*
X394646Y327236D01*
X394738Y327280D01*
X394827Y327327D01*
X394915Y327378D01*
X395001Y327432D01*
X395084Y327489D01*
X395166Y327549D01*
X395244Y327613D01*
X395321Y327679D01*
X395394Y327749D01*
X395465Y327821D01*
X395533Y327896D01*
X395598Y327974D01*
X395660Y328054D01*
X395719Y328136D01*
X395775Y328221D01*
X395827Y328308D01*
X395876Y328396D01*
X395922Y328487D01*
X395963Y328579D01*
X396002Y328673D01*
X396036Y328768D01*
X396067Y328864D01*
X396094Y328962D01*
X396118Y329060D01*
X396137Y329160D01*
X396153Y329260D01*
X396165Y329360D01*
X396173Y329461D01*
X396177Y329562D01*
X396177Y329664D01*
X396173Y329765D01*
X396165Y329866D01*
X396153Y329966D01*
X396137Y330066D01*
X396118Y330166D01*
X396094Y330264D01*
X396067Y330362D01*
X396036Y330458D01*
X396002Y330553D01*
X395963Y330647D01*
X395922Y330739D01*
X395876Y330830D01*
X395827Y330918D01*
X395775Y331005D01*
X395719Y331090D01*
X395660Y331172D01*
X395598Y331252D01*
X395533Y331330D01*
X395465Y331405D01*
X395394Y331477D01*
X395321Y331547D01*
X395244Y331613D01*
X395166Y331677D01*
X395084Y331737D01*
X395001Y331794D01*
X394915Y331848D01*
X394827Y331899D01*
X394738Y331946D01*
X394646Y331990D01*
X394553Y332030D01*
X394459Y332067D01*
X394363Y332099D01*
X394266Y332128D01*
X394168Y332154D01*
X394069Y332175D01*
X393969Y332193D01*
X393869Y332206D01*
X393768Y332216D01*
X393667Y332222D01*
X393566Y332224D01*
X390955Y332224D01*
X390829Y332222D01*
X390703Y332216D01*
X390577Y332207D01*
X390452Y332194D01*
X390327Y332176D01*
X390202Y332156D01*
X390078Y332131D01*
X389955Y332103D01*
X389833Y332071D01*
X389712Y332035D01*
X389592Y331996D01*
X389474Y331953D01*
X389357Y331906D01*
X389241Y331856D01*
X389126Y331802D01*
X389014Y331746D01*
X388903Y331685D01*
X388794Y331622D01*
X388687Y331555D01*
X388582Y331485D01*
X388479Y331411D01*
X388379Y331335D01*
X388281Y331256D01*
X388185Y331174D01*
X388092Y331088D01*
X388001Y331001D01*
X387914Y330910D01*
X387828Y330817D01*
X387746Y330721D01*
X387667Y330623D01*
X387591Y330523D01*
X387517Y330420D01*
X387447Y330315D01*
X387380Y330208D01*
X387317Y330099D01*
X387256Y329988D01*
X387200Y329876D01*
X387146Y329761D01*
X387096Y329645D01*
X387049Y329528D01*
X387006Y329410D01*
X386967Y329290D01*
X386931Y329169D01*
X386899Y329047D01*
X386871Y328924D01*
X386846Y328800D01*
X386826Y328675D01*
X386808Y328550D01*
X386795Y328425D01*
X386786Y328299D01*
X386780Y328173D01*
X386778Y328047D01*
X413708Y253451D02*
X413708Y244053D01*
X413708Y253451D02*
X411097Y253451D01*
X411097Y253452D02*
X410996Y253450D01*
X410895Y253444D01*
X410794Y253434D01*
X410694Y253421D01*
X410594Y253403D01*
X410495Y253382D01*
X410397Y253356D01*
X410300Y253327D01*
X410204Y253295D01*
X410110Y253258D01*
X410017Y253218D01*
X409925Y253174D01*
X409836Y253127D01*
X409748Y253076D01*
X409662Y253022D01*
X409579Y252965D01*
X409497Y252905D01*
X409419Y252841D01*
X409342Y252775D01*
X409269Y252705D01*
X409198Y252633D01*
X409130Y252558D01*
X409065Y252480D01*
X409003Y252400D01*
X408944Y252318D01*
X408888Y252233D01*
X408836Y252147D01*
X408787Y252058D01*
X408741Y251967D01*
X408700Y251875D01*
X408661Y251781D01*
X408627Y251686D01*
X408596Y251590D01*
X408569Y251492D01*
X408545Y251394D01*
X408526Y251294D01*
X408510Y251194D01*
X408498Y251094D01*
X408490Y250993D01*
X408486Y250892D01*
X408486Y250790D01*
X408490Y250689D01*
X408498Y250588D01*
X408510Y250488D01*
X408526Y250388D01*
X408545Y250288D01*
X408569Y250190D01*
X408596Y250092D01*
X408627Y249996D01*
X408661Y249901D01*
X408700Y249807D01*
X408741Y249715D01*
X408787Y249624D01*
X408836Y249536D01*
X408888Y249449D01*
X408944Y249364D01*
X409003Y249282D01*
X409065Y249202D01*
X409130Y249124D01*
X409198Y249049D01*
X409269Y248977D01*
X409342Y248907D01*
X409419Y248841D01*
X409497Y248777D01*
X409579Y248717D01*
X409662Y248660D01*
X409748Y248606D01*
X409836Y248555D01*
X409925Y248508D01*
X410017Y248464D01*
X410110Y248424D01*
X410204Y248387D01*
X410300Y248355D01*
X410397Y248326D01*
X410495Y248300D01*
X410594Y248279D01*
X410694Y248261D01*
X410794Y248248D01*
X410895Y248238D01*
X410996Y248232D01*
X411097Y248230D01*
X413708Y248230D01*
X410575Y248230D02*
X408486Y244053D01*
X399399Y251102D02*
X399401Y251197D01*
X399407Y251291D01*
X399416Y251385D01*
X399429Y251479D01*
X399446Y251572D01*
X399467Y251664D01*
X399492Y251756D01*
X399520Y251846D01*
X399552Y251935D01*
X399587Y252023D01*
X399626Y252109D01*
X399668Y252194D01*
X399714Y252277D01*
X399763Y252358D01*
X399815Y252437D01*
X399870Y252514D01*
X399929Y252588D01*
X399990Y252660D01*
X400054Y252730D01*
X400121Y252797D01*
X400191Y252861D01*
X400263Y252922D01*
X400337Y252981D01*
X400414Y253036D01*
X400493Y253088D01*
X400574Y253137D01*
X400657Y253183D01*
X400742Y253225D01*
X400828Y253264D01*
X400916Y253299D01*
X401005Y253331D01*
X401095Y253359D01*
X401187Y253384D01*
X401279Y253405D01*
X401372Y253422D01*
X401466Y253435D01*
X401560Y253444D01*
X401654Y253450D01*
X401749Y253452D01*
X401749Y253451D02*
X401857Y253449D01*
X401966Y253443D01*
X402074Y253433D01*
X402181Y253420D01*
X402288Y253402D01*
X402395Y253381D01*
X402500Y253356D01*
X402605Y253327D01*
X402708Y253295D01*
X402810Y253258D01*
X402911Y253218D01*
X403010Y253175D01*
X403108Y253128D01*
X403204Y253077D01*
X403298Y253023D01*
X403390Y252966D01*
X403480Y252905D01*
X403568Y252841D01*
X403653Y252775D01*
X403736Y252705D01*
X403816Y252632D01*
X403894Y252556D01*
X403969Y252478D01*
X404041Y252397D01*
X404110Y252313D01*
X404176Y252227D01*
X404239Y252139D01*
X404298Y252048D01*
X404355Y251956D01*
X404408Y251861D01*
X404457Y251764D01*
X404503Y251666D01*
X404546Y251567D01*
X404585Y251465D01*
X404620Y251363D01*
X400182Y249274D02*
X400113Y249343D01*
X400047Y249414D01*
X399983Y249487D01*
X399922Y249563D01*
X399864Y249642D01*
X399810Y249722D01*
X399758Y249805D01*
X399710Y249889D01*
X399664Y249975D01*
X399623Y250063D01*
X399584Y250153D01*
X399549Y250244D01*
X399518Y250336D01*
X399490Y250429D01*
X399466Y250523D01*
X399446Y250618D01*
X399429Y250714D01*
X399416Y250811D01*
X399407Y250908D01*
X399401Y251005D01*
X399399Y251102D01*
X400183Y249274D02*
X404621Y244053D01*
X399400Y244053D01*
D65*
X417068Y406863D02*
X399218Y437780D01*
X370830Y418388D02*
X388680Y387471D01*
D66*
X422724Y379586D03*
D62*
X422960Y404780D02*
X430961Y409399D01*
X429678Y411621D01*
X429677Y411621D02*
X429626Y411706D01*
X429571Y411789D01*
X429513Y411870D01*
X429452Y411949D01*
X429388Y412025D01*
X429321Y412099D01*
X429252Y412170D01*
X429179Y412238D01*
X429104Y412304D01*
X429027Y412366D01*
X428947Y412426D01*
X428865Y412482D01*
X428781Y412535D01*
X428695Y412585D01*
X428607Y412631D01*
X428517Y412674D01*
X428425Y412713D01*
X428333Y412749D01*
X428238Y412781D01*
X428143Y412810D01*
X428047Y412835D01*
X427950Y412856D01*
X427851Y412873D01*
X427753Y412887D01*
X427654Y412896D01*
X427554Y412902D01*
X427455Y412904D01*
X427356Y412902D01*
X427256Y412896D01*
X427157Y412887D01*
X427059Y412873D01*
X426961Y412856D01*
X426863Y412835D01*
X426767Y412810D01*
X426672Y412781D01*
X426577Y412749D01*
X426485Y412713D01*
X426393Y412674D01*
X426303Y412631D01*
X426215Y412585D01*
X426129Y412535D01*
X426045Y412482D01*
X425963Y412426D01*
X425883Y412366D01*
X425806Y412304D01*
X425731Y412238D01*
X425658Y412170D01*
X425589Y412099D01*
X425522Y412025D01*
X425458Y411949D01*
X425397Y411870D01*
X425339Y411789D01*
X425284Y411706D01*
X425233Y411621D01*
X425185Y411534D01*
X425140Y411445D01*
X425099Y411354D01*
X425061Y411262D01*
X425027Y411169D01*
X424997Y411074D01*
X424970Y410978D01*
X424947Y410881D01*
X424928Y410784D01*
X424913Y410685D01*
X424901Y410586D01*
X424893Y410487D01*
X424889Y410388D01*
X424889Y410288D01*
X424893Y410189D01*
X424901Y410090D01*
X424913Y409991D01*
X424928Y409892D01*
X424947Y409795D01*
X424970Y409698D01*
X424997Y409602D01*
X425027Y409507D01*
X425061Y409414D01*
X425099Y409322D01*
X425140Y409231D01*
X425185Y409142D01*
X425233Y409055D01*
X426516Y406833D01*
X424976Y409499D02*
X420394Y409224D01*
X422933Y415091D02*
X421394Y417758D01*
X421347Y417834D01*
X421298Y417909D01*
X421245Y417981D01*
X421189Y418051D01*
X421130Y418118D01*
X421068Y418183D01*
X421003Y418245D01*
X420936Y418304D01*
X420866Y418360D01*
X420794Y418413D01*
X420719Y418462D01*
X420643Y418509D01*
X420564Y418552D01*
X420484Y418592D01*
X420402Y418628D01*
X420318Y418660D01*
X420233Y418689D01*
X420147Y418714D01*
X420060Y418735D01*
X419973Y418753D01*
X419884Y418766D01*
X419795Y418776D01*
X419706Y418782D01*
X419616Y418784D01*
X419526Y418782D01*
X419437Y418776D01*
X419348Y418766D01*
X419260Y418753D01*
X419172Y418735D01*
X419085Y418714D01*
X418999Y418689D01*
X418914Y418660D01*
X418830Y418628D01*
X418748Y418592D01*
X418668Y418552D01*
X418590Y418509D01*
X418589Y418509D02*
X418145Y418253D01*
X418145Y418252D02*
X418059Y418200D01*
X417975Y418145D01*
X417893Y418086D01*
X417813Y418024D01*
X417736Y417959D01*
X417662Y417891D01*
X417590Y417820D01*
X417521Y417747D01*
X417455Y417671D01*
X417392Y417592D01*
X417332Y417511D01*
X417276Y417427D01*
X417223Y417342D01*
X417173Y417254D01*
X417127Y417165D01*
X417084Y417074D01*
X417045Y416981D01*
X417009Y416886D01*
X416977Y416791D01*
X416949Y416694D01*
X416925Y416596D01*
X416905Y416498D01*
X416889Y416398D01*
X416876Y416298D01*
X416867Y416198D01*
X416863Y416097D01*
X416862Y415996D01*
X416866Y415896D01*
X416873Y415795D01*
X416884Y415695D01*
X416899Y415595D01*
X416918Y415496D01*
X416941Y415398D01*
X416968Y415301D01*
X416998Y415205D01*
X417032Y415110D01*
X417070Y415017D01*
X417112Y414925D01*
X417157Y414835D01*
X417206Y414747D01*
X417258Y414661D01*
X417313Y414577D01*
X417372Y414495D01*
X417434Y414415D01*
X417499Y414338D01*
X417567Y414264D01*
X417637Y414192D01*
X417711Y414123D01*
X417787Y414057D01*
X417866Y413994D01*
X417947Y413935D01*
X418030Y413878D01*
X418116Y413825D01*
X418204Y413775D01*
X418293Y413729D01*
X418384Y413686D01*
X418477Y413647D01*
X418571Y413611D01*
X418667Y413579D01*
X418764Y413551D01*
X418862Y413527D01*
X418960Y413507D01*
X419060Y413491D01*
X419160Y413478D01*
X419260Y413469D01*
X419361Y413465D01*
X419461Y413464D01*
X419562Y413468D01*
X419663Y413475D01*
X419763Y413486D01*
X419862Y413501D01*
X419961Y413520D01*
X420060Y413543D01*
X420157Y413570D01*
X420253Y413600D01*
X420347Y413634D01*
X420441Y413672D01*
X420533Y413714D01*
X420623Y413759D01*
X420711Y413808D01*
X422933Y415091D01*
X423042Y415156D01*
X423148Y415224D01*
X423252Y415296D01*
X423354Y415370D01*
X423454Y415448D01*
X423551Y415529D01*
X423646Y415613D01*
X423738Y415699D01*
X423828Y415789D01*
X423914Y415881D01*
X423998Y415976D01*
X424079Y416073D01*
X424157Y416173D01*
X424231Y416275D01*
X424303Y416379D01*
X424371Y416485D01*
X424436Y416594D01*
X424497Y416704D01*
X424556Y416817D01*
X424610Y416931D01*
X424661Y417047D01*
X424709Y417164D01*
X424753Y417282D01*
X424793Y417402D01*
X424829Y417523D01*
X424862Y417645D01*
X424891Y417769D01*
X424916Y417893D01*
X424937Y418017D01*
X424955Y418142D01*
X424968Y418268D01*
X424978Y418394D01*
X424984Y418521D01*
X424986Y418647D01*
X424984Y418773D01*
X424978Y418900D01*
X424968Y419026D01*
X424955Y419152D01*
X424937Y419277D01*
X424916Y419401D01*
X424891Y419525D01*
X424862Y419649D01*
X424829Y419771D01*
X424793Y419892D01*
X424753Y420012D01*
X424709Y420130D01*
X424661Y420247D01*
X424610Y420363D01*
X424556Y420477D01*
X424497Y420590D01*
X424436Y420700D01*
X337693Y244929D02*
X337693Y242841D01*
X337695Y242752D01*
X337701Y242664D01*
X337710Y242576D01*
X337723Y242488D01*
X337740Y242401D01*
X337760Y242315D01*
X337785Y242230D01*
X337812Y242145D01*
X337844Y242062D01*
X337878Y241981D01*
X337917Y241901D01*
X337958Y241823D01*
X338003Y241746D01*
X338051Y241672D01*
X338102Y241599D01*
X338156Y241529D01*
X338214Y241462D01*
X338274Y241396D01*
X338336Y241334D01*
X338402Y241274D01*
X338469Y241216D01*
X338539Y241162D01*
X338612Y241111D01*
X338686Y241063D01*
X338763Y241018D01*
X338841Y240977D01*
X338921Y240938D01*
X339002Y240904D01*
X339085Y240872D01*
X339170Y240845D01*
X339255Y240820D01*
X339341Y240800D01*
X339428Y240783D01*
X339516Y240770D01*
X339604Y240761D01*
X339692Y240755D01*
X339781Y240753D01*
X339781Y240752D02*
X345003Y240752D01*
X345003Y240753D02*
X345094Y240755D01*
X345185Y240761D01*
X345276Y240771D01*
X345366Y240785D01*
X345455Y240802D01*
X345543Y240824D01*
X345631Y240850D01*
X345717Y240879D01*
X345802Y240912D01*
X345885Y240949D01*
X345967Y240989D01*
X346047Y241033D01*
X346125Y241080D01*
X346201Y241131D01*
X346274Y241184D01*
X346345Y241241D01*
X346414Y241302D01*
X346479Y241365D01*
X346542Y241430D01*
X346602Y241499D01*
X346660Y241570D01*
X346713Y241643D01*
X346764Y241719D01*
X346811Y241797D01*
X346855Y241877D01*
X346895Y241959D01*
X346932Y242042D01*
X346965Y242127D01*
X346994Y242213D01*
X347020Y242301D01*
X347042Y242389D01*
X347059Y242478D01*
X347073Y242568D01*
X347083Y242659D01*
X347089Y242750D01*
X347091Y242841D01*
X347091Y244929D01*
X345003Y248398D02*
X347091Y251008D01*
X337693Y251008D01*
X337693Y248398D02*
X337693Y253619D01*
X337693Y257542D02*
X337693Y260675D01*
X337695Y260764D01*
X337701Y260852D01*
X337710Y260940D01*
X337723Y261028D01*
X337740Y261115D01*
X337760Y261201D01*
X337785Y261286D01*
X337812Y261371D01*
X337844Y261454D01*
X337878Y261535D01*
X337917Y261615D01*
X337958Y261693D01*
X338003Y261770D01*
X338051Y261844D01*
X338102Y261917D01*
X338156Y261987D01*
X338214Y262054D01*
X338274Y262120D01*
X338336Y262182D01*
X338402Y262242D01*
X338469Y262300D01*
X338539Y262354D01*
X338612Y262405D01*
X338686Y262453D01*
X338763Y262498D01*
X338841Y262539D01*
X338921Y262578D01*
X339002Y262612D01*
X339085Y262644D01*
X339170Y262671D01*
X339255Y262696D01*
X339341Y262716D01*
X339428Y262733D01*
X339516Y262746D01*
X339604Y262755D01*
X339692Y262761D01*
X339781Y262763D01*
X340826Y262763D01*
X340915Y262761D01*
X341003Y262755D01*
X341091Y262746D01*
X341179Y262733D01*
X341266Y262716D01*
X341352Y262696D01*
X341437Y262671D01*
X341522Y262644D01*
X341605Y262612D01*
X341686Y262578D01*
X341766Y262539D01*
X341844Y262498D01*
X341921Y262453D01*
X341995Y262405D01*
X342068Y262354D01*
X342138Y262300D01*
X342205Y262242D01*
X342271Y262182D01*
X342333Y262120D01*
X342393Y262054D01*
X342451Y261987D01*
X342505Y261917D01*
X342556Y261844D01*
X342604Y261770D01*
X342649Y261693D01*
X342690Y261615D01*
X342729Y261535D01*
X342763Y261454D01*
X342795Y261371D01*
X342822Y261286D01*
X342847Y261201D01*
X342867Y261115D01*
X342884Y261028D01*
X342897Y260940D01*
X342906Y260852D01*
X342912Y260764D01*
X342914Y260675D01*
X342914Y257542D01*
X347091Y257542D01*
X347091Y262763D01*
X371221Y251841D02*
X380619Y251841D01*
X380619Y254452D01*
X380617Y254553D01*
X380611Y254654D01*
X380601Y254755D01*
X380588Y254855D01*
X380570Y254955D01*
X380549Y255054D01*
X380523Y255152D01*
X380494Y255249D01*
X380462Y255345D01*
X380425Y255439D01*
X380385Y255532D01*
X380341Y255624D01*
X380294Y255713D01*
X380243Y255801D01*
X380189Y255887D01*
X380132Y255970D01*
X380072Y256052D01*
X380008Y256130D01*
X379942Y256207D01*
X379872Y256280D01*
X379800Y256351D01*
X379725Y256419D01*
X379647Y256484D01*
X379567Y256546D01*
X379485Y256605D01*
X379400Y256661D01*
X379314Y256713D01*
X379225Y256762D01*
X379134Y256808D01*
X379042Y256849D01*
X378948Y256888D01*
X378853Y256922D01*
X378757Y256953D01*
X378659Y256980D01*
X378561Y257004D01*
X378461Y257023D01*
X378361Y257039D01*
X378261Y257051D01*
X378160Y257059D01*
X378059Y257063D01*
X377957Y257063D01*
X377856Y257059D01*
X377755Y257051D01*
X377655Y257039D01*
X377555Y257023D01*
X377455Y257004D01*
X377357Y256980D01*
X377259Y256953D01*
X377163Y256922D01*
X377068Y256888D01*
X376974Y256849D01*
X376882Y256808D01*
X376791Y256762D01*
X376703Y256713D01*
X376616Y256661D01*
X376531Y256605D01*
X376449Y256546D01*
X376369Y256484D01*
X376291Y256419D01*
X376216Y256351D01*
X376144Y256280D01*
X376074Y256207D01*
X376008Y256130D01*
X375944Y256052D01*
X375884Y255970D01*
X375827Y255887D01*
X375773Y255801D01*
X375722Y255713D01*
X375675Y255624D01*
X375631Y255532D01*
X375591Y255439D01*
X375554Y255345D01*
X375522Y255249D01*
X375493Y255152D01*
X375467Y255054D01*
X375446Y254955D01*
X375428Y254855D01*
X375415Y254755D01*
X375405Y254654D01*
X375399Y254553D01*
X375397Y254452D01*
X375398Y254452D02*
X375398Y251841D01*
X375398Y254974D02*
X371221Y257062D01*
X379575Y260928D02*
X380619Y260928D01*
X380619Y266149D01*
X371221Y263538D01*
X287909Y465201D02*
X287909Y474599D01*
X285298Y474599D01*
X285197Y474597D01*
X285096Y474591D01*
X284995Y474581D01*
X284895Y474568D01*
X284795Y474550D01*
X284696Y474529D01*
X284598Y474503D01*
X284501Y474474D01*
X284405Y474442D01*
X284311Y474405D01*
X284218Y474365D01*
X284126Y474321D01*
X284037Y474274D01*
X283949Y474223D01*
X283863Y474169D01*
X283780Y474112D01*
X283698Y474052D01*
X283620Y473988D01*
X283543Y473922D01*
X283470Y473852D01*
X283399Y473780D01*
X283331Y473705D01*
X283266Y473627D01*
X283204Y473547D01*
X283145Y473465D01*
X283089Y473380D01*
X283037Y473294D01*
X282988Y473205D01*
X282942Y473114D01*
X282901Y473022D01*
X282862Y472928D01*
X282828Y472833D01*
X282797Y472737D01*
X282770Y472639D01*
X282746Y472541D01*
X282727Y472441D01*
X282711Y472341D01*
X282699Y472241D01*
X282691Y472140D01*
X282687Y472039D01*
X282687Y471937D01*
X282691Y471836D01*
X282699Y471735D01*
X282711Y471635D01*
X282727Y471535D01*
X282746Y471435D01*
X282770Y471337D01*
X282797Y471239D01*
X282828Y471143D01*
X282862Y471048D01*
X282901Y470954D01*
X282942Y470862D01*
X282988Y470771D01*
X283037Y470683D01*
X283089Y470596D01*
X283145Y470511D01*
X283204Y470429D01*
X283266Y470349D01*
X283331Y470271D01*
X283399Y470196D01*
X283470Y470124D01*
X283543Y470054D01*
X283620Y469988D01*
X283698Y469924D01*
X283780Y469864D01*
X283863Y469807D01*
X283949Y469753D01*
X284037Y469702D01*
X284126Y469655D01*
X284218Y469611D01*
X284311Y469571D01*
X284405Y469534D01*
X284501Y469502D01*
X284598Y469473D01*
X284696Y469447D01*
X284795Y469426D01*
X284895Y469408D01*
X284995Y469395D01*
X285096Y469385D01*
X285197Y469379D01*
X285298Y469377D01*
X285298Y469378D02*
X287909Y469378D01*
X284776Y469378D02*
X282688Y465201D01*
X278823Y467811D02*
X278821Y467912D01*
X278815Y468013D01*
X278805Y468114D01*
X278792Y468214D01*
X278774Y468314D01*
X278753Y468413D01*
X278727Y468511D01*
X278698Y468608D01*
X278666Y468704D01*
X278629Y468798D01*
X278589Y468891D01*
X278545Y468983D01*
X278498Y469072D01*
X278447Y469160D01*
X278393Y469246D01*
X278336Y469329D01*
X278276Y469411D01*
X278212Y469489D01*
X278146Y469566D01*
X278076Y469639D01*
X278004Y469710D01*
X277929Y469778D01*
X277851Y469843D01*
X277771Y469905D01*
X277689Y469964D01*
X277604Y470020D01*
X277518Y470072D01*
X277429Y470121D01*
X277338Y470167D01*
X277246Y470208D01*
X277152Y470247D01*
X277057Y470281D01*
X276961Y470312D01*
X276863Y470339D01*
X276765Y470363D01*
X276665Y470382D01*
X276565Y470398D01*
X276465Y470410D01*
X276364Y470418D01*
X276263Y470422D01*
X276161Y470422D01*
X276060Y470418D01*
X275959Y470410D01*
X275859Y470398D01*
X275759Y470382D01*
X275659Y470363D01*
X275561Y470339D01*
X275463Y470312D01*
X275367Y470281D01*
X275272Y470247D01*
X275178Y470208D01*
X275086Y470167D01*
X274995Y470121D01*
X274907Y470072D01*
X274820Y470020D01*
X274735Y469964D01*
X274653Y469905D01*
X274573Y469843D01*
X274495Y469778D01*
X274420Y469710D01*
X274348Y469639D01*
X274278Y469566D01*
X274212Y469489D01*
X274148Y469411D01*
X274088Y469329D01*
X274031Y469246D01*
X273977Y469160D01*
X273926Y469072D01*
X273879Y468983D01*
X273835Y468891D01*
X273795Y468798D01*
X273758Y468704D01*
X273726Y468608D01*
X273697Y468511D01*
X273671Y468413D01*
X273650Y468314D01*
X273632Y468214D01*
X273619Y468114D01*
X273609Y468013D01*
X273603Y467912D01*
X273601Y467811D01*
X273603Y467710D01*
X273609Y467609D01*
X273619Y467508D01*
X273632Y467408D01*
X273650Y467308D01*
X273671Y467209D01*
X273697Y467111D01*
X273726Y467014D01*
X273758Y466918D01*
X273795Y466824D01*
X273835Y466731D01*
X273879Y466639D01*
X273926Y466550D01*
X273977Y466462D01*
X274031Y466376D01*
X274088Y466293D01*
X274148Y466211D01*
X274212Y466133D01*
X274278Y466056D01*
X274348Y465983D01*
X274420Y465912D01*
X274495Y465844D01*
X274573Y465779D01*
X274653Y465717D01*
X274735Y465658D01*
X274820Y465602D01*
X274907Y465550D01*
X274995Y465501D01*
X275086Y465455D01*
X275178Y465414D01*
X275272Y465375D01*
X275367Y465341D01*
X275463Y465310D01*
X275561Y465283D01*
X275659Y465259D01*
X275759Y465240D01*
X275859Y465224D01*
X275959Y465212D01*
X276060Y465204D01*
X276161Y465200D01*
X276263Y465200D01*
X276364Y465204D01*
X276465Y465212D01*
X276565Y465224D01*
X276665Y465240D01*
X276765Y465259D01*
X276863Y465283D01*
X276961Y465310D01*
X277057Y465341D01*
X277152Y465375D01*
X277246Y465414D01*
X277338Y465455D01*
X277429Y465501D01*
X277517Y465550D01*
X277604Y465602D01*
X277689Y465658D01*
X277771Y465717D01*
X277851Y465779D01*
X277929Y465844D01*
X278004Y465912D01*
X278076Y465983D01*
X278146Y466056D01*
X278212Y466133D01*
X278276Y466211D01*
X278336Y466293D01*
X278393Y466376D01*
X278447Y466462D01*
X278498Y466550D01*
X278545Y466639D01*
X278589Y466731D01*
X278629Y466824D01*
X278666Y466918D01*
X278698Y467014D01*
X278727Y467111D01*
X278753Y467209D01*
X278774Y467308D01*
X278792Y467408D01*
X278805Y467508D01*
X278815Y467609D01*
X278821Y467710D01*
X278823Y467811D01*
X278300Y472510D02*
X278298Y472600D01*
X278292Y472689D01*
X278283Y472779D01*
X278269Y472868D01*
X278252Y472956D01*
X278231Y473043D01*
X278206Y473130D01*
X278177Y473215D01*
X278145Y473299D01*
X278110Y473381D01*
X278070Y473462D01*
X278028Y473541D01*
X277982Y473618D01*
X277932Y473693D01*
X277880Y473766D01*
X277824Y473837D01*
X277766Y473905D01*
X277704Y473970D01*
X277640Y474033D01*
X277573Y474093D01*
X277504Y474150D01*
X277432Y474204D01*
X277358Y474255D01*
X277282Y474303D01*
X277204Y474347D01*
X277124Y474388D01*
X277042Y474426D01*
X276959Y474460D01*
X276874Y474490D01*
X276788Y474517D01*
X276702Y474540D01*
X276614Y474559D01*
X276525Y474574D01*
X276436Y474586D01*
X276347Y474594D01*
X276257Y474598D01*
X276167Y474598D01*
X276077Y474594D01*
X275988Y474586D01*
X275899Y474574D01*
X275810Y474559D01*
X275722Y474540D01*
X275636Y474517D01*
X275550Y474490D01*
X275465Y474460D01*
X275382Y474426D01*
X275300Y474388D01*
X275220Y474347D01*
X275142Y474303D01*
X275066Y474255D01*
X274992Y474204D01*
X274920Y474150D01*
X274851Y474093D01*
X274784Y474033D01*
X274720Y473970D01*
X274658Y473905D01*
X274600Y473837D01*
X274544Y473766D01*
X274492Y473693D01*
X274442Y473618D01*
X274396Y473541D01*
X274354Y473462D01*
X274314Y473381D01*
X274279Y473299D01*
X274247Y473215D01*
X274218Y473130D01*
X274193Y473043D01*
X274172Y472956D01*
X274155Y472868D01*
X274141Y472779D01*
X274132Y472689D01*
X274126Y472600D01*
X274124Y472510D01*
X274126Y472420D01*
X274132Y472331D01*
X274141Y472241D01*
X274155Y472152D01*
X274172Y472064D01*
X274193Y471977D01*
X274218Y471890D01*
X274247Y471805D01*
X274279Y471721D01*
X274314Y471639D01*
X274354Y471558D01*
X274396Y471479D01*
X274442Y471402D01*
X274492Y471327D01*
X274544Y471254D01*
X274600Y471183D01*
X274658Y471115D01*
X274720Y471050D01*
X274784Y470987D01*
X274851Y470927D01*
X274920Y470870D01*
X274992Y470816D01*
X275066Y470765D01*
X275142Y470717D01*
X275220Y470673D01*
X275300Y470632D01*
X275382Y470594D01*
X275465Y470560D01*
X275550Y470530D01*
X275636Y470503D01*
X275722Y470480D01*
X275810Y470461D01*
X275899Y470446D01*
X275988Y470434D01*
X276077Y470426D01*
X276167Y470422D01*
X276257Y470422D01*
X276347Y470426D01*
X276436Y470434D01*
X276525Y470446D01*
X276614Y470461D01*
X276702Y470480D01*
X276788Y470503D01*
X276874Y470530D01*
X276959Y470560D01*
X277042Y470594D01*
X277124Y470632D01*
X277204Y470673D01*
X277282Y470717D01*
X277358Y470765D01*
X277432Y470816D01*
X277504Y470870D01*
X277573Y470927D01*
X277640Y470987D01*
X277704Y471050D01*
X277766Y471115D01*
X277824Y471183D01*
X277880Y471254D01*
X277932Y471327D01*
X277982Y471402D01*
X278028Y471479D01*
X278070Y471558D01*
X278110Y471639D01*
X278145Y471721D01*
X278177Y471805D01*
X278206Y471890D01*
X278231Y471977D01*
X278252Y472064D01*
X278269Y472152D01*
X278283Y472241D01*
X278292Y472331D01*
X278298Y472420D01*
X278300Y472510D01*
X362839Y417449D02*
X362839Y408051D01*
X362839Y417449D02*
X360228Y417449D01*
X360127Y417447D01*
X360026Y417441D01*
X359925Y417431D01*
X359825Y417418D01*
X359725Y417400D01*
X359626Y417379D01*
X359528Y417353D01*
X359431Y417324D01*
X359335Y417292D01*
X359241Y417255D01*
X359148Y417215D01*
X359056Y417171D01*
X358967Y417124D01*
X358879Y417073D01*
X358793Y417019D01*
X358710Y416962D01*
X358628Y416902D01*
X358550Y416838D01*
X358473Y416772D01*
X358400Y416702D01*
X358329Y416630D01*
X358261Y416555D01*
X358196Y416477D01*
X358134Y416397D01*
X358075Y416315D01*
X358019Y416230D01*
X357967Y416144D01*
X357918Y416055D01*
X357872Y415964D01*
X357831Y415872D01*
X357792Y415778D01*
X357758Y415683D01*
X357727Y415587D01*
X357700Y415489D01*
X357676Y415391D01*
X357657Y415291D01*
X357641Y415191D01*
X357629Y415091D01*
X357621Y414990D01*
X357617Y414889D01*
X357617Y414787D01*
X357621Y414686D01*
X357629Y414585D01*
X357641Y414485D01*
X357657Y414385D01*
X357676Y414285D01*
X357700Y414187D01*
X357727Y414089D01*
X357758Y413993D01*
X357792Y413898D01*
X357831Y413804D01*
X357872Y413712D01*
X357918Y413621D01*
X357967Y413533D01*
X358019Y413446D01*
X358075Y413361D01*
X358134Y413279D01*
X358196Y413199D01*
X358261Y413121D01*
X358329Y413046D01*
X358400Y412974D01*
X358473Y412904D01*
X358550Y412838D01*
X358628Y412774D01*
X358710Y412714D01*
X358793Y412657D01*
X358879Y412603D01*
X358967Y412552D01*
X359056Y412505D01*
X359148Y412461D01*
X359241Y412421D01*
X359335Y412384D01*
X359431Y412352D01*
X359528Y412323D01*
X359626Y412297D01*
X359725Y412276D01*
X359825Y412258D01*
X359925Y412245D01*
X360026Y412235D01*
X360127Y412229D01*
X360228Y412227D01*
X360228Y412228D02*
X362839Y412228D01*
X359706Y412228D02*
X357618Y408051D01*
X351664Y412228D02*
X348531Y412228D01*
X351664Y412228D02*
X351753Y412230D01*
X351841Y412236D01*
X351929Y412245D01*
X352017Y412258D01*
X352104Y412275D01*
X352190Y412295D01*
X352275Y412320D01*
X352360Y412347D01*
X352443Y412379D01*
X352524Y412413D01*
X352604Y412452D01*
X352682Y412493D01*
X352759Y412538D01*
X352833Y412586D01*
X352906Y412637D01*
X352976Y412691D01*
X353043Y412749D01*
X353109Y412809D01*
X353171Y412871D01*
X353231Y412937D01*
X353289Y413004D01*
X353343Y413074D01*
X353394Y413147D01*
X353442Y413221D01*
X353487Y413298D01*
X353528Y413376D01*
X353567Y413456D01*
X353601Y413537D01*
X353633Y413620D01*
X353660Y413705D01*
X353685Y413790D01*
X353705Y413876D01*
X353722Y413963D01*
X353735Y414051D01*
X353744Y414139D01*
X353750Y414227D01*
X353752Y414316D01*
X353752Y414838D01*
X353753Y414838D02*
X353751Y414939D01*
X353745Y415040D01*
X353735Y415141D01*
X353722Y415241D01*
X353704Y415341D01*
X353683Y415440D01*
X353657Y415538D01*
X353628Y415635D01*
X353596Y415731D01*
X353559Y415825D01*
X353519Y415918D01*
X353475Y416010D01*
X353428Y416099D01*
X353377Y416187D01*
X353323Y416273D01*
X353266Y416356D01*
X353206Y416438D01*
X353142Y416516D01*
X353076Y416593D01*
X353006Y416666D01*
X352934Y416737D01*
X352859Y416805D01*
X352781Y416870D01*
X352701Y416932D01*
X352619Y416991D01*
X352534Y417047D01*
X352448Y417099D01*
X352359Y417148D01*
X352268Y417194D01*
X352176Y417235D01*
X352082Y417274D01*
X351987Y417308D01*
X351891Y417339D01*
X351793Y417366D01*
X351695Y417390D01*
X351595Y417409D01*
X351495Y417425D01*
X351395Y417437D01*
X351294Y417445D01*
X351193Y417449D01*
X351091Y417449D01*
X350990Y417445D01*
X350889Y417437D01*
X350789Y417425D01*
X350689Y417409D01*
X350589Y417390D01*
X350491Y417366D01*
X350393Y417339D01*
X350297Y417308D01*
X350202Y417274D01*
X350108Y417235D01*
X350016Y417194D01*
X349925Y417148D01*
X349837Y417099D01*
X349750Y417047D01*
X349665Y416991D01*
X349583Y416932D01*
X349503Y416870D01*
X349425Y416805D01*
X349350Y416737D01*
X349278Y416666D01*
X349208Y416593D01*
X349142Y416516D01*
X349078Y416438D01*
X349018Y416356D01*
X348961Y416273D01*
X348907Y416187D01*
X348856Y416099D01*
X348809Y416010D01*
X348765Y415918D01*
X348725Y415825D01*
X348688Y415731D01*
X348656Y415635D01*
X348627Y415538D01*
X348601Y415440D01*
X348580Y415341D01*
X348562Y415241D01*
X348549Y415141D01*
X348539Y415040D01*
X348533Y414939D01*
X348531Y414838D01*
X348531Y412228D01*
X348533Y412102D01*
X348539Y411976D01*
X348548Y411850D01*
X348561Y411725D01*
X348579Y411600D01*
X348599Y411475D01*
X348624Y411351D01*
X348652Y411228D01*
X348684Y411106D01*
X348720Y410985D01*
X348759Y410865D01*
X348802Y410747D01*
X348849Y410630D01*
X348899Y410514D01*
X348953Y410399D01*
X349009Y410287D01*
X349070Y410176D01*
X349133Y410067D01*
X349200Y409960D01*
X349270Y409855D01*
X349344Y409752D01*
X349420Y409652D01*
X349499Y409554D01*
X349581Y409458D01*
X349667Y409365D01*
X349754Y409274D01*
X349845Y409187D01*
X349938Y409101D01*
X350034Y409019D01*
X350132Y408940D01*
X350232Y408864D01*
X350335Y408790D01*
X350440Y408720D01*
X350547Y408653D01*
X350656Y408590D01*
X350767Y408529D01*
X350879Y408473D01*
X350994Y408419D01*
X351110Y408369D01*
X351227Y408322D01*
X351345Y408279D01*
X351465Y408240D01*
X351586Y408204D01*
X351708Y408172D01*
X351831Y408144D01*
X351955Y408119D01*
X352080Y408099D01*
X352205Y408081D01*
X352330Y408068D01*
X352456Y408059D01*
X352582Y408053D01*
X352708Y408051D01*
X386461Y484568D02*
X386461Y493966D01*
X383850Y493966D01*
X383850Y493967D02*
X383749Y493965D01*
X383648Y493959D01*
X383547Y493949D01*
X383447Y493936D01*
X383347Y493918D01*
X383248Y493897D01*
X383150Y493871D01*
X383053Y493842D01*
X382957Y493810D01*
X382863Y493773D01*
X382770Y493733D01*
X382678Y493689D01*
X382589Y493642D01*
X382501Y493591D01*
X382415Y493537D01*
X382332Y493480D01*
X382250Y493420D01*
X382172Y493356D01*
X382095Y493290D01*
X382022Y493220D01*
X381951Y493148D01*
X381883Y493073D01*
X381818Y492995D01*
X381756Y492915D01*
X381697Y492833D01*
X381641Y492748D01*
X381589Y492662D01*
X381540Y492573D01*
X381494Y492482D01*
X381453Y492390D01*
X381414Y492296D01*
X381380Y492201D01*
X381349Y492105D01*
X381322Y492007D01*
X381298Y491909D01*
X381279Y491809D01*
X381263Y491709D01*
X381251Y491609D01*
X381243Y491508D01*
X381239Y491407D01*
X381239Y491305D01*
X381243Y491204D01*
X381251Y491103D01*
X381263Y491003D01*
X381279Y490903D01*
X381298Y490803D01*
X381322Y490705D01*
X381349Y490607D01*
X381380Y490511D01*
X381414Y490416D01*
X381453Y490322D01*
X381494Y490230D01*
X381540Y490139D01*
X381589Y490051D01*
X381641Y489964D01*
X381697Y489879D01*
X381756Y489797D01*
X381818Y489717D01*
X381883Y489639D01*
X381951Y489564D01*
X382022Y489492D01*
X382095Y489422D01*
X382172Y489356D01*
X382250Y489292D01*
X382332Y489232D01*
X382415Y489175D01*
X382501Y489121D01*
X382589Y489070D01*
X382678Y489023D01*
X382770Y488979D01*
X382863Y488939D01*
X382957Y488902D01*
X383053Y488870D01*
X383150Y488841D01*
X383248Y488815D01*
X383347Y488794D01*
X383447Y488776D01*
X383547Y488763D01*
X383648Y488753D01*
X383749Y488747D01*
X383850Y488745D01*
X386461Y488745D01*
X383328Y488745D02*
X381240Y484568D01*
X377374Y491878D02*
X374764Y493966D01*
X374764Y484568D01*
X377374Y484568D02*
X372153Y484568D01*
X368230Y489267D02*
X368228Y489452D01*
X368221Y489637D01*
X368210Y489821D01*
X368195Y490005D01*
X368175Y490189D01*
X368151Y490373D01*
X368122Y490555D01*
X368089Y490737D01*
X368052Y490918D01*
X368010Y491098D01*
X367964Y491278D01*
X367914Y491456D01*
X367860Y491632D01*
X367801Y491808D01*
X367739Y491982D01*
X367672Y492154D01*
X367601Y492325D01*
X367526Y492494D01*
X367447Y492661D01*
X367448Y492662D02*
X367418Y492742D01*
X367385Y492821D01*
X367348Y492898D01*
X367308Y492974D01*
X367265Y493048D01*
X367219Y493120D01*
X367169Y493189D01*
X367117Y493257D01*
X367061Y493322D01*
X367003Y493385D01*
X366941Y493444D01*
X366878Y493502D01*
X366811Y493556D01*
X366743Y493607D01*
X366672Y493655D01*
X366599Y493700D01*
X366525Y493742D01*
X366448Y493780D01*
X366370Y493815D01*
X366291Y493847D01*
X366210Y493875D01*
X366128Y493899D01*
X366044Y493920D01*
X365961Y493937D01*
X365876Y493950D01*
X365791Y493959D01*
X365706Y493965D01*
X365620Y493967D01*
X365534Y493965D01*
X365449Y493959D01*
X365364Y493950D01*
X365279Y493937D01*
X365196Y493920D01*
X365112Y493899D01*
X365030Y493875D01*
X364950Y493847D01*
X364870Y493815D01*
X364792Y493780D01*
X364715Y493742D01*
X364641Y493700D01*
X364568Y493655D01*
X364497Y493607D01*
X364429Y493556D01*
X364362Y493502D01*
X364299Y493444D01*
X364238Y493385D01*
X364179Y493322D01*
X364124Y493257D01*
X364071Y493189D01*
X364021Y493120D01*
X363975Y493048D01*
X363932Y492974D01*
X363892Y492898D01*
X363855Y492821D01*
X363822Y492742D01*
X363792Y492662D01*
X363792Y492661D02*
X363713Y492494D01*
X363638Y492325D01*
X363567Y492154D01*
X363500Y491982D01*
X363438Y491808D01*
X363379Y491632D01*
X363325Y491456D01*
X363275Y491278D01*
X363229Y491098D01*
X363187Y490918D01*
X363150Y490737D01*
X363117Y490555D01*
X363088Y490373D01*
X363064Y490189D01*
X363044Y490005D01*
X363029Y489821D01*
X363018Y489637D01*
X363011Y489452D01*
X363009Y489267D01*
X368230Y489267D02*
X368228Y489082D01*
X368221Y488897D01*
X368210Y488713D01*
X368195Y488529D01*
X368175Y488345D01*
X368151Y488161D01*
X368122Y487979D01*
X368089Y487797D01*
X368052Y487616D01*
X368010Y487436D01*
X367964Y487256D01*
X367914Y487078D01*
X367860Y486902D01*
X367801Y486726D01*
X367739Y486552D01*
X367672Y486380D01*
X367601Y486209D01*
X367526Y486040D01*
X367447Y485873D01*
X367448Y485873D02*
X367418Y485793D01*
X367385Y485714D01*
X367348Y485637D01*
X367308Y485561D01*
X367265Y485487D01*
X367219Y485415D01*
X367169Y485346D01*
X367116Y485278D01*
X367061Y485213D01*
X367002Y485150D01*
X366941Y485091D01*
X366878Y485033D01*
X366811Y484979D01*
X366743Y484928D01*
X366672Y484880D01*
X366599Y484835D01*
X366525Y484793D01*
X366448Y484755D01*
X366370Y484720D01*
X366291Y484688D01*
X366210Y484660D01*
X366128Y484636D01*
X366044Y484615D01*
X365961Y484598D01*
X365876Y484585D01*
X365791Y484576D01*
X365706Y484570D01*
X365620Y484568D01*
X363792Y485873D02*
X363713Y486040D01*
X363638Y486209D01*
X363567Y486380D01*
X363500Y486552D01*
X363438Y486726D01*
X363379Y486902D01*
X363325Y487078D01*
X363275Y487256D01*
X363229Y487436D01*
X363187Y487616D01*
X363150Y487797D01*
X363117Y487979D01*
X363088Y488161D01*
X363064Y488345D01*
X363044Y488529D01*
X363029Y488713D01*
X363018Y488897D01*
X363011Y489082D01*
X363009Y489267D01*
X363792Y485873D02*
X363822Y485793D01*
X363855Y485714D01*
X363892Y485637D01*
X363932Y485561D01*
X363975Y485487D01*
X364021Y485415D01*
X364071Y485346D01*
X364124Y485278D01*
X364179Y485213D01*
X364238Y485150D01*
X364299Y485091D01*
X364362Y485033D01*
X364429Y484979D01*
X364497Y484928D01*
X364568Y484880D01*
X364641Y484835D01*
X364715Y484793D01*
X364792Y484755D01*
X364870Y484720D01*
X364950Y484688D01*
X365030Y484660D01*
X365112Y484636D01*
X365196Y484615D01*
X365279Y484598D01*
X365364Y484585D01*
X365449Y484576D01*
X365534Y484570D01*
X365620Y484568D01*
X367708Y486657D02*
X363531Y491878D01*
X285845Y256318D02*
X285845Y246920D01*
X285845Y256318D02*
X283235Y256318D01*
X283134Y256316D01*
X283033Y256310D01*
X282932Y256300D01*
X282832Y256287D01*
X282732Y256269D01*
X282633Y256248D01*
X282535Y256222D01*
X282438Y256193D01*
X282342Y256161D01*
X282248Y256124D01*
X282155Y256084D01*
X282063Y256040D01*
X281974Y255993D01*
X281886Y255942D01*
X281800Y255888D01*
X281717Y255831D01*
X281635Y255771D01*
X281557Y255707D01*
X281480Y255641D01*
X281407Y255571D01*
X281336Y255499D01*
X281268Y255424D01*
X281203Y255346D01*
X281141Y255266D01*
X281082Y255184D01*
X281026Y255099D01*
X280974Y255013D01*
X280925Y254924D01*
X280879Y254833D01*
X280838Y254741D01*
X280799Y254647D01*
X280765Y254552D01*
X280734Y254456D01*
X280707Y254358D01*
X280683Y254260D01*
X280664Y254160D01*
X280648Y254060D01*
X280636Y253960D01*
X280628Y253859D01*
X280624Y253758D01*
X280624Y253656D01*
X280628Y253555D01*
X280636Y253454D01*
X280648Y253354D01*
X280664Y253254D01*
X280683Y253154D01*
X280707Y253056D01*
X280734Y252958D01*
X280765Y252862D01*
X280799Y252767D01*
X280838Y252673D01*
X280879Y252581D01*
X280925Y252490D01*
X280974Y252402D01*
X281026Y252315D01*
X281082Y252230D01*
X281141Y252148D01*
X281203Y252068D01*
X281268Y251990D01*
X281336Y251915D01*
X281407Y251843D01*
X281480Y251773D01*
X281557Y251707D01*
X281635Y251643D01*
X281717Y251583D01*
X281800Y251526D01*
X281886Y251472D01*
X281974Y251421D01*
X282063Y251374D01*
X282155Y251330D01*
X282248Y251290D01*
X282342Y251253D01*
X282438Y251221D01*
X282535Y251192D01*
X282633Y251166D01*
X282732Y251145D01*
X282832Y251127D01*
X282932Y251114D01*
X283033Y251104D01*
X283134Y251098D01*
X283235Y251096D01*
X283235Y251097D02*
X285845Y251097D01*
X282713Y251097D02*
X280624Y246920D01*
X276758Y254229D02*
X274148Y256318D01*
X274148Y246920D01*
X276758Y246920D02*
X271537Y246920D01*
X267614Y246920D02*
X265004Y246920D01*
X265004Y246919D02*
X264903Y246921D01*
X264802Y246927D01*
X264701Y246937D01*
X264601Y246950D01*
X264501Y246968D01*
X264402Y246989D01*
X264304Y247015D01*
X264207Y247044D01*
X264111Y247076D01*
X264017Y247113D01*
X263924Y247153D01*
X263832Y247197D01*
X263743Y247244D01*
X263655Y247295D01*
X263569Y247349D01*
X263486Y247406D01*
X263404Y247466D01*
X263326Y247530D01*
X263249Y247596D01*
X263176Y247666D01*
X263105Y247738D01*
X263037Y247813D01*
X262972Y247891D01*
X262910Y247971D01*
X262851Y248053D01*
X262795Y248138D01*
X262743Y248225D01*
X262694Y248313D01*
X262648Y248404D01*
X262607Y248496D01*
X262568Y248590D01*
X262534Y248685D01*
X262503Y248781D01*
X262476Y248879D01*
X262452Y248977D01*
X262433Y249077D01*
X262417Y249177D01*
X262405Y249277D01*
X262397Y249378D01*
X262393Y249479D01*
X262393Y249581D01*
X262397Y249682D01*
X262405Y249783D01*
X262417Y249883D01*
X262433Y249983D01*
X262452Y250083D01*
X262476Y250181D01*
X262503Y250279D01*
X262534Y250375D01*
X262568Y250470D01*
X262607Y250564D01*
X262648Y250656D01*
X262694Y250747D01*
X262743Y250836D01*
X262795Y250922D01*
X262851Y251007D01*
X262910Y251089D01*
X262972Y251169D01*
X263037Y251247D01*
X263105Y251322D01*
X263176Y251394D01*
X263249Y251464D01*
X263326Y251530D01*
X263404Y251594D01*
X263486Y251654D01*
X263569Y251711D01*
X263655Y251765D01*
X263743Y251816D01*
X263832Y251863D01*
X263924Y251907D01*
X264017Y251947D01*
X264111Y251984D01*
X264207Y252016D01*
X264304Y252045D01*
X264402Y252071D01*
X264501Y252092D01*
X264601Y252110D01*
X264701Y252123D01*
X264802Y252133D01*
X264903Y252139D01*
X265004Y252141D01*
X264482Y256318D02*
X267614Y256318D01*
X264482Y256317D02*
X264392Y256315D01*
X264303Y256309D01*
X264213Y256300D01*
X264124Y256286D01*
X264036Y256269D01*
X263949Y256248D01*
X263862Y256223D01*
X263777Y256194D01*
X263693Y256162D01*
X263611Y256127D01*
X263530Y256087D01*
X263451Y256045D01*
X263374Y255999D01*
X263299Y255949D01*
X263226Y255897D01*
X263155Y255841D01*
X263087Y255783D01*
X263022Y255721D01*
X262959Y255657D01*
X262899Y255590D01*
X262842Y255521D01*
X262788Y255449D01*
X262737Y255375D01*
X262689Y255299D01*
X262645Y255221D01*
X262604Y255141D01*
X262566Y255059D01*
X262532Y254976D01*
X262502Y254891D01*
X262475Y254805D01*
X262452Y254719D01*
X262433Y254631D01*
X262418Y254542D01*
X262406Y254453D01*
X262398Y254364D01*
X262394Y254274D01*
X262394Y254184D01*
X262398Y254094D01*
X262406Y254005D01*
X262418Y253916D01*
X262433Y253827D01*
X262452Y253739D01*
X262475Y253653D01*
X262502Y253567D01*
X262532Y253482D01*
X262566Y253399D01*
X262604Y253317D01*
X262645Y253237D01*
X262689Y253159D01*
X262737Y253083D01*
X262788Y253009D01*
X262842Y252937D01*
X262899Y252868D01*
X262959Y252801D01*
X263022Y252737D01*
X263087Y252675D01*
X263155Y252617D01*
X263226Y252561D01*
X263299Y252509D01*
X263374Y252459D01*
X263451Y252413D01*
X263530Y252371D01*
X263611Y252331D01*
X263693Y252296D01*
X263777Y252264D01*
X263862Y252235D01*
X263949Y252210D01*
X264036Y252189D01*
X264124Y252172D01*
X264213Y252158D01*
X264303Y252149D01*
X264392Y252143D01*
X264482Y252141D01*
X266570Y252141D01*
X348044Y448374D02*
X357442Y448374D01*
X357442Y450984D01*
X357440Y451085D01*
X357434Y451186D01*
X357424Y451287D01*
X357411Y451387D01*
X357393Y451487D01*
X357372Y451586D01*
X357346Y451684D01*
X357317Y451781D01*
X357285Y451877D01*
X357248Y451971D01*
X357208Y452064D01*
X357164Y452156D01*
X357117Y452245D01*
X357066Y452333D01*
X357012Y452419D01*
X356955Y452502D01*
X356895Y452584D01*
X356831Y452662D01*
X356765Y452739D01*
X356695Y452812D01*
X356623Y452883D01*
X356548Y452951D01*
X356470Y453016D01*
X356390Y453078D01*
X356308Y453137D01*
X356223Y453193D01*
X356137Y453245D01*
X356048Y453294D01*
X355957Y453340D01*
X355865Y453381D01*
X355771Y453420D01*
X355676Y453454D01*
X355580Y453485D01*
X355482Y453512D01*
X355384Y453536D01*
X355284Y453555D01*
X355184Y453571D01*
X355084Y453583D01*
X354983Y453591D01*
X354882Y453595D01*
X354780Y453595D01*
X354679Y453591D01*
X354578Y453583D01*
X354478Y453571D01*
X354378Y453555D01*
X354278Y453536D01*
X354180Y453512D01*
X354082Y453485D01*
X353986Y453454D01*
X353891Y453420D01*
X353797Y453381D01*
X353705Y453340D01*
X353614Y453294D01*
X353526Y453245D01*
X353439Y453193D01*
X353354Y453137D01*
X353272Y453078D01*
X353192Y453016D01*
X353114Y452951D01*
X353039Y452883D01*
X352967Y452812D01*
X352897Y452739D01*
X352831Y452662D01*
X352767Y452584D01*
X352707Y452502D01*
X352650Y452419D01*
X352596Y452333D01*
X352545Y452245D01*
X352498Y452156D01*
X352454Y452064D01*
X352414Y451971D01*
X352377Y451877D01*
X352345Y451781D01*
X352316Y451684D01*
X352290Y451586D01*
X352269Y451487D01*
X352251Y451387D01*
X352238Y451287D01*
X352228Y451186D01*
X352222Y451085D01*
X352220Y450984D01*
X352220Y448374D01*
X352220Y451506D02*
X348044Y453595D01*
X355353Y457460D02*
X357442Y460071D01*
X348044Y460071D01*
X348044Y457460D02*
X348044Y462682D01*
X350132Y466604D02*
X357442Y468693D01*
X350132Y466604D02*
X350132Y471826D01*
X352220Y470259D02*
X348044Y470259D01*
X313944Y417767D02*
X313944Y408369D01*
X313944Y417767D02*
X311333Y417767D01*
X311232Y417765D01*
X311131Y417759D01*
X311030Y417749D01*
X310930Y417736D01*
X310830Y417718D01*
X310731Y417697D01*
X310633Y417671D01*
X310536Y417642D01*
X310440Y417610D01*
X310346Y417573D01*
X310253Y417533D01*
X310161Y417489D01*
X310072Y417442D01*
X309984Y417391D01*
X309898Y417337D01*
X309815Y417280D01*
X309733Y417220D01*
X309655Y417156D01*
X309578Y417090D01*
X309505Y417020D01*
X309434Y416948D01*
X309366Y416873D01*
X309301Y416795D01*
X309239Y416715D01*
X309180Y416633D01*
X309124Y416548D01*
X309072Y416462D01*
X309023Y416373D01*
X308977Y416282D01*
X308936Y416190D01*
X308897Y416096D01*
X308863Y416001D01*
X308832Y415905D01*
X308805Y415807D01*
X308781Y415709D01*
X308762Y415609D01*
X308746Y415509D01*
X308734Y415409D01*
X308726Y415308D01*
X308722Y415207D01*
X308722Y415105D01*
X308726Y415004D01*
X308734Y414903D01*
X308746Y414803D01*
X308762Y414703D01*
X308781Y414603D01*
X308805Y414505D01*
X308832Y414407D01*
X308863Y414311D01*
X308897Y414216D01*
X308936Y414122D01*
X308977Y414030D01*
X309023Y413939D01*
X309072Y413851D01*
X309124Y413764D01*
X309180Y413679D01*
X309239Y413597D01*
X309301Y413517D01*
X309366Y413439D01*
X309434Y413364D01*
X309505Y413292D01*
X309578Y413222D01*
X309655Y413156D01*
X309733Y413092D01*
X309815Y413032D01*
X309898Y412975D01*
X309984Y412921D01*
X310072Y412870D01*
X310161Y412823D01*
X310253Y412779D01*
X310346Y412739D01*
X310440Y412702D01*
X310536Y412670D01*
X310633Y412641D01*
X310731Y412615D01*
X310830Y412594D01*
X310930Y412576D01*
X311030Y412563D01*
X311131Y412553D01*
X311232Y412547D01*
X311333Y412545D01*
X313944Y412545D01*
X310811Y412545D02*
X308723Y408369D01*
X304857Y415678D02*
X302247Y417767D01*
X302247Y408369D01*
X304857Y408369D02*
X299636Y408369D01*
X295713Y413590D02*
X292580Y413590D01*
X292580Y413589D02*
X292491Y413587D01*
X292403Y413581D01*
X292315Y413572D01*
X292227Y413559D01*
X292140Y413542D01*
X292054Y413522D01*
X291969Y413497D01*
X291884Y413470D01*
X291801Y413438D01*
X291720Y413404D01*
X291640Y413365D01*
X291562Y413324D01*
X291485Y413279D01*
X291411Y413231D01*
X291338Y413180D01*
X291268Y413126D01*
X291201Y413068D01*
X291135Y413008D01*
X291073Y412946D01*
X291013Y412880D01*
X290955Y412813D01*
X290901Y412743D01*
X290850Y412670D01*
X290802Y412596D01*
X290757Y412519D01*
X290716Y412441D01*
X290677Y412361D01*
X290643Y412280D01*
X290611Y412197D01*
X290584Y412112D01*
X290559Y412027D01*
X290539Y411941D01*
X290522Y411854D01*
X290509Y411766D01*
X290500Y411678D01*
X290494Y411590D01*
X290492Y411501D01*
X290492Y410979D01*
X290494Y410878D01*
X290500Y410777D01*
X290510Y410676D01*
X290523Y410576D01*
X290541Y410476D01*
X290562Y410377D01*
X290588Y410279D01*
X290617Y410182D01*
X290649Y410086D01*
X290686Y409992D01*
X290726Y409899D01*
X290770Y409807D01*
X290817Y409718D01*
X290868Y409630D01*
X290922Y409544D01*
X290979Y409461D01*
X291039Y409379D01*
X291103Y409301D01*
X291169Y409224D01*
X291239Y409151D01*
X291311Y409080D01*
X291386Y409012D01*
X291464Y408947D01*
X291544Y408885D01*
X291626Y408826D01*
X291711Y408770D01*
X291798Y408718D01*
X291886Y408669D01*
X291977Y408623D01*
X292069Y408582D01*
X292163Y408543D01*
X292258Y408509D01*
X292354Y408478D01*
X292452Y408451D01*
X292550Y408427D01*
X292650Y408408D01*
X292750Y408392D01*
X292850Y408380D01*
X292951Y408372D01*
X293052Y408368D01*
X293154Y408368D01*
X293255Y408372D01*
X293356Y408380D01*
X293456Y408392D01*
X293556Y408408D01*
X293656Y408427D01*
X293754Y408451D01*
X293852Y408478D01*
X293948Y408509D01*
X294043Y408543D01*
X294137Y408582D01*
X294229Y408623D01*
X294320Y408669D01*
X294408Y408718D01*
X294495Y408770D01*
X294580Y408826D01*
X294662Y408885D01*
X294742Y408947D01*
X294820Y409012D01*
X294895Y409080D01*
X294967Y409151D01*
X295037Y409224D01*
X295103Y409301D01*
X295167Y409379D01*
X295227Y409461D01*
X295284Y409544D01*
X295338Y409630D01*
X295389Y409718D01*
X295436Y409807D01*
X295480Y409899D01*
X295520Y409992D01*
X295557Y410086D01*
X295589Y410182D01*
X295618Y410279D01*
X295644Y410377D01*
X295665Y410476D01*
X295683Y410576D01*
X295696Y410676D01*
X295706Y410777D01*
X295712Y410878D01*
X295714Y410979D01*
X295713Y410979D02*
X295713Y413590D01*
X295711Y413716D01*
X295705Y413842D01*
X295696Y413968D01*
X295683Y414093D01*
X295665Y414218D01*
X295645Y414343D01*
X295620Y414467D01*
X295592Y414590D01*
X295560Y414712D01*
X295524Y414833D01*
X295485Y414953D01*
X295442Y415071D01*
X295395Y415188D01*
X295345Y415304D01*
X295291Y415419D01*
X295235Y415531D01*
X295174Y415642D01*
X295111Y415751D01*
X295044Y415858D01*
X294974Y415963D01*
X294900Y416066D01*
X294824Y416166D01*
X294745Y416264D01*
X294663Y416360D01*
X294577Y416453D01*
X294490Y416544D01*
X294399Y416631D01*
X294306Y416717D01*
X294210Y416799D01*
X294112Y416878D01*
X294012Y416954D01*
X293909Y417028D01*
X293804Y417098D01*
X293697Y417165D01*
X293588Y417228D01*
X293477Y417289D01*
X293365Y417345D01*
X293250Y417399D01*
X293134Y417449D01*
X293017Y417496D01*
X292899Y417539D01*
X292779Y417578D01*
X292658Y417614D01*
X292536Y417646D01*
X292413Y417674D01*
X292289Y417699D01*
X292164Y417719D01*
X292039Y417737D01*
X291914Y417750D01*
X291788Y417759D01*
X291662Y417765D01*
X291536Y417767D01*
M02*
