G04 EAGLE Gerber RS-274X export*
G75*
%MOMM*%
%FSLAX34Y34*%
%LPD*%
%INSilkscreen Top*%
%IPPOS*%
%AMOC8*
5,1,8,0,0,1.08239X$1,22.5*%
G01*
%ADD10C,0.101600*%
%ADD11C,0.152400*%
%ADD12R,0.014731X0.014731*%
%ADD13R,0.147319X0.014731*%
%ADD14R,0.265175X0.014731*%
%ADD15R,0.383031X0.014731*%
%ADD16R,0.515619X0.014731*%
%ADD17R,0.633475X0.014731*%
%ADD18R,0.751331X0.014731*%
%ADD19R,0.883919X0.014731*%
%ADD20R,1.001775X0.014731*%
%ADD21R,1.119631X0.014731*%
%ADD22R,1.134363X0.014731*%
%ADD23R,1.149094X0.014731*%
%ADD24R,1.163825X0.014731*%
%ADD25R,1.178556X0.014731*%
%ADD26R,1.193288X0.014731*%
%ADD27R,1.222756X0.014731*%
%ADD28R,1.237488X0.014731*%
%ADD29R,1.266950X0.014731*%
%ADD30R,1.281681X0.014731*%
%ADD31R,1.311144X0.014731*%
%ADD32R,1.325881X0.014731*%
%ADD33R,1.355344X0.014731*%
%ADD34R,1.370075X0.014731*%
%ADD35R,1.384806X0.014731*%
%ADD36R,1.399538X0.014731*%
%ADD37R,1.414275X0.014731*%
%ADD38R,1.443738X0.014731*%
%ADD39R,1.458469X0.014731*%
%ADD40R,1.487931X0.014731*%
%ADD41R,1.502663X0.014731*%
%ADD42R,1.517394X0.014731*%
%ADD43R,1.532125X0.014731*%
%ADD44R,1.546856X0.014731*%
%ADD45R,1.576319X0.014731*%
%ADD46R,1.605788X0.014731*%
%ADD47R,1.620519X0.014731*%
%ADD48R,1.649981X0.014731*%
%ADD49R,1.664713X0.014731*%
%ADD50R,1.694175X0.014731*%
%ADD51R,1.708913X0.014731*%
%ADD52R,1.738375X0.014731*%
%ADD53R,1.753106X0.014731*%
%ADD54R,1.767838X0.014731*%
%ADD55R,1.782569X0.014731*%
%ADD56R,1.797306X0.014731*%
%ADD57R,0.117856X0.014731*%
%ADD58R,1.826769X0.014731*%
%ADD59R,0.235713X0.014731*%
%ADD60R,0.353569X0.014731*%
%ADD61R,1.856231X0.014731*%
%ADD62R,0.486156X0.014731*%
%ADD63R,1.870963X0.014731*%
%ADD64R,0.604013X0.014731*%
%ADD65R,0.721869X0.014731*%
%ADD66R,1.885694X0.014731*%
%ADD67R,0.839719X0.014731*%
%ADD68R,0.972306X0.014731*%
%ADD69R,1.090169X0.014731*%
%ADD70R,1.208025X0.014731*%
%ADD71R,1.252219X0.014731*%
%ADD72R,1.296412X0.014731*%
%ADD73R,1.340612X0.014731*%
%ADD74R,1.826763X0.014731*%
%ADD75R,1.414269X0.014731*%
%ADD76R,1.812031X0.014731*%
%ADD77R,1.429000X0.014731*%
%ADD78R,1.458462X0.014731*%
%ADD79R,1.473200X0.014731*%
%ADD80R,1.723644X0.014731*%
%ADD81R,1.694181X0.014731*%
%ADD82R,1.679450X0.014731*%
%ADD83R,1.561594X0.014731*%
%ADD84R,1.576325X0.014731*%
%ADD85R,1.591056X0.014731*%
%ADD86R,1.635250X0.014731*%
%ADD87R,1.561588X0.014731*%
%ADD88R,1.443731X0.014731*%
%ADD89R,1.797300X0.014731*%
%ADD90R,1.841500X0.014731*%
%ADD91R,1.311150X0.014731*%
%ADD92R,1.296419X0.014731*%
%ADD93R,1.193294X0.014731*%
%ADD94R,0.957575X0.014731*%
%ADD95R,0.589281X0.014731*%
%ADD96R,0.471425X0.014731*%
%ADD97R,0.220975X0.014731*%
%ADD98R,1.812038X0.014731*%
%ADD99R,0.103119X0.014731*%
%ADD100R,0.029463X0.014731*%
%ADD101R,0.162050X0.014731*%
%ADD102R,0.397763X0.014731*%
%ADD103R,0.648206X0.014731*%
%ADD104R,1.679444X0.014731*%
%ADD105R,1.016506X0.014731*%
%ADD106R,1.104900X0.014731*%
%ADD107R,1.222750X0.014731*%
%ADD108R,1.429006X0.014731*%
%ADD109R,1.208019X0.014731*%
%ADD110R,0.987044X0.014731*%
%ADD111R,0.854456X0.014731*%
%ADD112R,0.618744X0.014731*%
%ADD113R,0.500888X0.014731*%
%ADD114R,0.368300X0.014731*%
%ADD115R,0.132587X0.014731*%
%ADD116R,1.664719X0.014731*%
%ADD117R,1.075438X0.014731*%
%ADD118R,0.942844X0.014731*%
%ADD119R,0.707131X0.014731*%
%ADD120R,0.456694X0.014731*%
%ADD121R,0.088388X0.014731*%
%ADD122C,0.127000*%
%ADD123C,0.076200*%
%ADD124C,0.254000*%
%ADD125R,12.300000X1.000000*%
%ADD126C,0.150000*%
%ADD127C,0.050800*%
%ADD128C,0.500000*%


D10*
X497242Y331524D02*
X497242Y334770D01*
X497240Y334883D01*
X497234Y334996D01*
X497224Y335109D01*
X497210Y335222D01*
X497193Y335334D01*
X497171Y335445D01*
X497146Y335555D01*
X497116Y335665D01*
X497083Y335773D01*
X497046Y335880D01*
X497006Y335986D01*
X496961Y336090D01*
X496913Y336193D01*
X496862Y336294D01*
X496807Y336393D01*
X496749Y336490D01*
X496687Y336585D01*
X496622Y336678D01*
X496554Y336768D01*
X496483Y336856D01*
X496408Y336942D01*
X496331Y337025D01*
X496251Y337105D01*
X496168Y337182D01*
X496082Y337257D01*
X495994Y337328D01*
X495904Y337396D01*
X495811Y337461D01*
X495716Y337523D01*
X495619Y337581D01*
X495520Y337636D01*
X495419Y337687D01*
X495316Y337735D01*
X495212Y337780D01*
X495106Y337820D01*
X494999Y337857D01*
X494891Y337890D01*
X494781Y337920D01*
X494671Y337945D01*
X494560Y337967D01*
X494448Y337984D01*
X494335Y337998D01*
X494222Y338008D01*
X494109Y338014D01*
X493996Y338016D01*
X493883Y338014D01*
X493770Y338008D01*
X493657Y337998D01*
X493544Y337984D01*
X493432Y337967D01*
X493321Y337945D01*
X493211Y337920D01*
X493101Y337890D01*
X492993Y337857D01*
X492886Y337820D01*
X492780Y337780D01*
X492676Y337735D01*
X492573Y337687D01*
X492472Y337636D01*
X492373Y337581D01*
X492276Y337523D01*
X492181Y337461D01*
X492088Y337396D01*
X491998Y337328D01*
X491910Y337257D01*
X491824Y337182D01*
X491741Y337105D01*
X491661Y337025D01*
X491584Y336942D01*
X491509Y336856D01*
X491438Y336768D01*
X491370Y336678D01*
X491305Y336585D01*
X491243Y336490D01*
X491185Y336393D01*
X491130Y336294D01*
X491079Y336193D01*
X491031Y336090D01*
X490986Y335986D01*
X490946Y335880D01*
X490909Y335773D01*
X490876Y335665D01*
X490846Y335555D01*
X490821Y335445D01*
X490799Y335334D01*
X490782Y335222D01*
X490768Y335109D01*
X490758Y334996D01*
X490752Y334883D01*
X490750Y334770D01*
X485558Y335419D02*
X485558Y331524D01*
X485558Y335419D02*
X485560Y335520D01*
X485566Y335620D01*
X485576Y335720D01*
X485589Y335820D01*
X485607Y335919D01*
X485628Y336018D01*
X485653Y336115D01*
X485682Y336212D01*
X485715Y336307D01*
X485751Y336401D01*
X485791Y336493D01*
X485834Y336584D01*
X485881Y336673D01*
X485931Y336760D01*
X485985Y336846D01*
X486042Y336929D01*
X486102Y337009D01*
X486165Y337088D01*
X486232Y337164D01*
X486301Y337237D01*
X486373Y337307D01*
X486447Y337375D01*
X486524Y337440D01*
X486604Y337501D01*
X486686Y337560D01*
X486770Y337615D01*
X486856Y337667D01*
X486944Y337716D01*
X487034Y337761D01*
X487126Y337803D01*
X487219Y337841D01*
X487314Y337875D01*
X487409Y337906D01*
X487506Y337933D01*
X487604Y337956D01*
X487703Y337976D01*
X487803Y337991D01*
X487903Y338003D01*
X488003Y338011D01*
X488104Y338015D01*
X488204Y338015D01*
X488305Y338011D01*
X488405Y338003D01*
X488505Y337991D01*
X488605Y337976D01*
X488704Y337956D01*
X488802Y337933D01*
X488899Y337906D01*
X488994Y337875D01*
X489089Y337841D01*
X489182Y337803D01*
X489274Y337761D01*
X489364Y337716D01*
X489452Y337667D01*
X489538Y337615D01*
X489622Y337560D01*
X489704Y337501D01*
X489784Y337440D01*
X489861Y337375D01*
X489935Y337307D01*
X490007Y337237D01*
X490076Y337164D01*
X490143Y337088D01*
X490206Y337009D01*
X490266Y336929D01*
X490323Y336846D01*
X490377Y336760D01*
X490427Y336673D01*
X490474Y336584D01*
X490517Y336493D01*
X490557Y336401D01*
X490593Y336307D01*
X490626Y336212D01*
X490655Y336115D01*
X490680Y336018D01*
X490701Y335919D01*
X490719Y335820D01*
X490732Y335720D01*
X490742Y335620D01*
X490748Y335520D01*
X490750Y335419D01*
X490751Y335419D02*
X490751Y332823D01*
X485558Y342305D02*
X497242Y346200D01*
X485558Y350095D01*
X497242Y354384D02*
X497242Y357630D01*
X497240Y357743D01*
X497234Y357856D01*
X497224Y357969D01*
X497210Y358082D01*
X497193Y358194D01*
X497171Y358305D01*
X497146Y358415D01*
X497116Y358525D01*
X497083Y358633D01*
X497046Y358740D01*
X497006Y358846D01*
X496961Y358950D01*
X496913Y359053D01*
X496862Y359154D01*
X496807Y359253D01*
X496749Y359350D01*
X496687Y359445D01*
X496622Y359538D01*
X496554Y359628D01*
X496483Y359716D01*
X496408Y359802D01*
X496331Y359885D01*
X496251Y359965D01*
X496168Y360042D01*
X496082Y360117D01*
X495994Y360188D01*
X495904Y360256D01*
X495811Y360321D01*
X495716Y360383D01*
X495619Y360441D01*
X495520Y360496D01*
X495419Y360547D01*
X495316Y360595D01*
X495212Y360640D01*
X495106Y360680D01*
X494999Y360717D01*
X494891Y360750D01*
X494781Y360780D01*
X494671Y360805D01*
X494560Y360827D01*
X494448Y360844D01*
X494335Y360858D01*
X494222Y360868D01*
X494109Y360874D01*
X493996Y360876D01*
X493883Y360874D01*
X493770Y360868D01*
X493657Y360858D01*
X493544Y360844D01*
X493432Y360827D01*
X493321Y360805D01*
X493211Y360780D01*
X493101Y360750D01*
X492993Y360717D01*
X492886Y360680D01*
X492780Y360640D01*
X492676Y360595D01*
X492573Y360547D01*
X492472Y360496D01*
X492373Y360441D01*
X492276Y360383D01*
X492181Y360321D01*
X492088Y360256D01*
X491998Y360188D01*
X491910Y360117D01*
X491824Y360042D01*
X491741Y359965D01*
X491661Y359885D01*
X491584Y359802D01*
X491509Y359716D01*
X491438Y359628D01*
X491370Y359538D01*
X491305Y359445D01*
X491243Y359350D01*
X491185Y359253D01*
X491130Y359154D01*
X491079Y359053D01*
X491031Y358950D01*
X490986Y358846D01*
X490946Y358740D01*
X490909Y358633D01*
X490876Y358525D01*
X490846Y358415D01*
X490821Y358305D01*
X490799Y358194D01*
X490782Y358082D01*
X490768Y357969D01*
X490758Y357856D01*
X490752Y357743D01*
X490750Y357630D01*
X485558Y358279D02*
X485558Y354384D01*
X485558Y358279D02*
X485560Y358380D01*
X485566Y358480D01*
X485576Y358580D01*
X485589Y358680D01*
X485607Y358779D01*
X485628Y358878D01*
X485653Y358975D01*
X485682Y359072D01*
X485715Y359167D01*
X485751Y359261D01*
X485791Y359353D01*
X485834Y359444D01*
X485881Y359533D01*
X485931Y359620D01*
X485985Y359706D01*
X486042Y359789D01*
X486102Y359869D01*
X486165Y359948D01*
X486232Y360024D01*
X486301Y360097D01*
X486373Y360167D01*
X486447Y360235D01*
X486524Y360300D01*
X486604Y360361D01*
X486686Y360420D01*
X486770Y360475D01*
X486856Y360527D01*
X486944Y360576D01*
X487034Y360621D01*
X487126Y360663D01*
X487219Y360701D01*
X487314Y360735D01*
X487409Y360766D01*
X487506Y360793D01*
X487604Y360816D01*
X487703Y360836D01*
X487803Y360851D01*
X487903Y360863D01*
X488003Y360871D01*
X488104Y360875D01*
X488204Y360875D01*
X488305Y360871D01*
X488405Y360863D01*
X488505Y360851D01*
X488605Y360836D01*
X488704Y360816D01*
X488802Y360793D01*
X488899Y360766D01*
X488994Y360735D01*
X489089Y360701D01*
X489182Y360663D01*
X489274Y360621D01*
X489364Y360576D01*
X489452Y360527D01*
X489538Y360475D01*
X489622Y360420D01*
X489704Y360361D01*
X489784Y360300D01*
X489861Y360235D01*
X489935Y360167D01*
X490007Y360097D01*
X490076Y360024D01*
X490143Y359948D01*
X490206Y359869D01*
X490266Y359789D01*
X490323Y359706D01*
X490377Y359620D01*
X490427Y359533D01*
X490474Y359444D01*
X490517Y359353D01*
X490557Y359261D01*
X490593Y359167D01*
X490626Y359072D01*
X490655Y358975D01*
X490680Y358878D01*
X490701Y358779D01*
X490719Y358680D01*
X490732Y358580D01*
X490742Y358480D01*
X490748Y358380D01*
X490750Y358279D01*
X490751Y358279D02*
X490751Y355683D01*
X387881Y199088D02*
X384635Y199088D01*
X387881Y199087D02*
X387994Y199089D01*
X388107Y199095D01*
X388220Y199105D01*
X388333Y199119D01*
X388445Y199136D01*
X388556Y199158D01*
X388666Y199183D01*
X388776Y199213D01*
X388884Y199246D01*
X388991Y199283D01*
X389097Y199323D01*
X389201Y199368D01*
X389304Y199416D01*
X389405Y199467D01*
X389504Y199522D01*
X389601Y199580D01*
X389696Y199642D01*
X389789Y199707D01*
X389879Y199775D01*
X389967Y199846D01*
X390053Y199921D01*
X390136Y199998D01*
X390216Y200078D01*
X390293Y200161D01*
X390368Y200247D01*
X390439Y200335D01*
X390507Y200425D01*
X390572Y200518D01*
X390634Y200613D01*
X390692Y200710D01*
X390747Y200809D01*
X390798Y200910D01*
X390846Y201013D01*
X390891Y201117D01*
X390931Y201223D01*
X390968Y201330D01*
X391001Y201438D01*
X391031Y201548D01*
X391056Y201658D01*
X391078Y201769D01*
X391095Y201881D01*
X391109Y201994D01*
X391119Y202107D01*
X391125Y202220D01*
X391127Y202333D01*
X391125Y202446D01*
X391119Y202559D01*
X391109Y202672D01*
X391095Y202785D01*
X391078Y202897D01*
X391056Y203008D01*
X391031Y203118D01*
X391001Y203228D01*
X390968Y203336D01*
X390931Y203443D01*
X390891Y203549D01*
X390846Y203653D01*
X390798Y203756D01*
X390747Y203857D01*
X390692Y203956D01*
X390634Y204053D01*
X390572Y204148D01*
X390507Y204241D01*
X390439Y204331D01*
X390368Y204419D01*
X390293Y204505D01*
X390216Y204588D01*
X390136Y204668D01*
X390053Y204745D01*
X389967Y204820D01*
X389879Y204891D01*
X389789Y204959D01*
X389696Y205024D01*
X389601Y205086D01*
X389504Y205144D01*
X389405Y205199D01*
X389304Y205250D01*
X389201Y205298D01*
X389097Y205343D01*
X388991Y205383D01*
X388884Y205420D01*
X388776Y205453D01*
X388666Y205483D01*
X388556Y205508D01*
X388445Y205530D01*
X388333Y205547D01*
X388220Y205561D01*
X388107Y205571D01*
X387994Y205577D01*
X387881Y205579D01*
X388530Y210772D02*
X384635Y210772D01*
X388530Y210771D02*
X388631Y210769D01*
X388731Y210763D01*
X388831Y210753D01*
X388931Y210740D01*
X389030Y210722D01*
X389129Y210701D01*
X389226Y210676D01*
X389323Y210647D01*
X389418Y210614D01*
X389512Y210578D01*
X389604Y210538D01*
X389695Y210495D01*
X389784Y210448D01*
X389871Y210398D01*
X389957Y210344D01*
X390040Y210287D01*
X390120Y210227D01*
X390199Y210164D01*
X390275Y210097D01*
X390348Y210028D01*
X390418Y209956D01*
X390486Y209882D01*
X390551Y209805D01*
X390612Y209725D01*
X390671Y209643D01*
X390726Y209559D01*
X390778Y209473D01*
X390827Y209385D01*
X390872Y209295D01*
X390914Y209203D01*
X390952Y209110D01*
X390986Y209015D01*
X391017Y208920D01*
X391044Y208823D01*
X391067Y208725D01*
X391087Y208626D01*
X391102Y208526D01*
X391114Y208426D01*
X391122Y208326D01*
X391126Y208225D01*
X391126Y208125D01*
X391122Y208024D01*
X391114Y207924D01*
X391102Y207824D01*
X391087Y207724D01*
X391067Y207625D01*
X391044Y207527D01*
X391017Y207430D01*
X390986Y207335D01*
X390952Y207240D01*
X390914Y207147D01*
X390872Y207055D01*
X390827Y206965D01*
X390778Y206877D01*
X390726Y206791D01*
X390671Y206707D01*
X390612Y206625D01*
X390551Y206545D01*
X390486Y206468D01*
X390418Y206394D01*
X390348Y206322D01*
X390275Y206253D01*
X390199Y206186D01*
X390120Y206123D01*
X390040Y206063D01*
X389957Y206006D01*
X389871Y205952D01*
X389784Y205902D01*
X389695Y205855D01*
X389604Y205812D01*
X389512Y205772D01*
X389418Y205736D01*
X389323Y205703D01*
X389226Y205674D01*
X389129Y205649D01*
X389030Y205628D01*
X388931Y205610D01*
X388831Y205597D01*
X388731Y205587D01*
X388631Y205581D01*
X388530Y205579D01*
X385933Y205579D01*
X395416Y210772D02*
X399311Y199088D01*
X403205Y210772D01*
X407495Y199088D02*
X410741Y199088D01*
X410741Y199087D02*
X410854Y199089D01*
X410967Y199095D01*
X411080Y199105D01*
X411193Y199119D01*
X411305Y199136D01*
X411416Y199158D01*
X411526Y199183D01*
X411636Y199213D01*
X411744Y199246D01*
X411851Y199283D01*
X411957Y199323D01*
X412061Y199368D01*
X412164Y199416D01*
X412265Y199467D01*
X412364Y199522D01*
X412461Y199580D01*
X412556Y199642D01*
X412649Y199707D01*
X412739Y199775D01*
X412827Y199846D01*
X412913Y199921D01*
X412996Y199998D01*
X413076Y200078D01*
X413153Y200161D01*
X413228Y200247D01*
X413299Y200335D01*
X413367Y200425D01*
X413432Y200518D01*
X413494Y200613D01*
X413552Y200710D01*
X413607Y200809D01*
X413658Y200910D01*
X413706Y201013D01*
X413751Y201117D01*
X413791Y201223D01*
X413828Y201330D01*
X413861Y201438D01*
X413891Y201548D01*
X413916Y201658D01*
X413938Y201769D01*
X413955Y201881D01*
X413969Y201994D01*
X413979Y202107D01*
X413985Y202220D01*
X413987Y202333D01*
X413985Y202446D01*
X413979Y202559D01*
X413969Y202672D01*
X413955Y202785D01*
X413938Y202897D01*
X413916Y203008D01*
X413891Y203118D01*
X413861Y203228D01*
X413828Y203336D01*
X413791Y203443D01*
X413751Y203549D01*
X413706Y203653D01*
X413658Y203756D01*
X413607Y203857D01*
X413552Y203956D01*
X413494Y204053D01*
X413432Y204148D01*
X413367Y204241D01*
X413299Y204331D01*
X413228Y204419D01*
X413153Y204505D01*
X413076Y204588D01*
X412996Y204668D01*
X412913Y204745D01*
X412827Y204820D01*
X412739Y204891D01*
X412649Y204959D01*
X412556Y205024D01*
X412461Y205086D01*
X412364Y205144D01*
X412265Y205199D01*
X412164Y205250D01*
X412061Y205298D01*
X411957Y205343D01*
X411851Y205383D01*
X411744Y205420D01*
X411636Y205453D01*
X411526Y205483D01*
X411416Y205508D01*
X411305Y205530D01*
X411193Y205547D01*
X411080Y205561D01*
X410967Y205571D01*
X410854Y205577D01*
X410741Y205579D01*
X411390Y210772D02*
X407495Y210772D01*
X411390Y210771D02*
X411491Y210769D01*
X411591Y210763D01*
X411691Y210753D01*
X411791Y210740D01*
X411890Y210722D01*
X411989Y210701D01*
X412086Y210676D01*
X412183Y210647D01*
X412278Y210614D01*
X412372Y210578D01*
X412464Y210538D01*
X412555Y210495D01*
X412644Y210448D01*
X412731Y210398D01*
X412817Y210344D01*
X412900Y210287D01*
X412980Y210227D01*
X413059Y210164D01*
X413135Y210097D01*
X413208Y210028D01*
X413278Y209956D01*
X413346Y209882D01*
X413411Y209805D01*
X413472Y209725D01*
X413531Y209643D01*
X413586Y209559D01*
X413638Y209473D01*
X413687Y209385D01*
X413732Y209295D01*
X413774Y209203D01*
X413812Y209110D01*
X413846Y209015D01*
X413877Y208920D01*
X413904Y208823D01*
X413927Y208725D01*
X413947Y208626D01*
X413962Y208526D01*
X413974Y208426D01*
X413982Y208326D01*
X413986Y208225D01*
X413986Y208125D01*
X413982Y208024D01*
X413974Y207924D01*
X413962Y207824D01*
X413947Y207724D01*
X413927Y207625D01*
X413904Y207527D01*
X413877Y207430D01*
X413846Y207335D01*
X413812Y207240D01*
X413774Y207147D01*
X413732Y207055D01*
X413687Y206965D01*
X413638Y206877D01*
X413586Y206791D01*
X413531Y206707D01*
X413472Y206625D01*
X413411Y206545D01*
X413346Y206468D01*
X413278Y206394D01*
X413208Y206322D01*
X413135Y206253D01*
X413059Y206186D01*
X412980Y206123D01*
X412900Y206063D01*
X412817Y206006D01*
X412731Y205952D01*
X412644Y205902D01*
X412555Y205855D01*
X412464Y205812D01*
X412372Y205772D01*
X412278Y205736D01*
X412183Y205703D01*
X412086Y205674D01*
X411989Y205649D01*
X411890Y205628D01*
X411791Y205610D01*
X411691Y205597D01*
X411591Y205587D01*
X411491Y205581D01*
X411390Y205579D01*
X408793Y205579D01*
X284906Y197945D02*
X281660Y197945D01*
X284906Y197944D02*
X285019Y197946D01*
X285132Y197952D01*
X285245Y197962D01*
X285358Y197976D01*
X285470Y197993D01*
X285581Y198015D01*
X285691Y198040D01*
X285801Y198070D01*
X285909Y198103D01*
X286016Y198140D01*
X286122Y198180D01*
X286226Y198225D01*
X286329Y198273D01*
X286430Y198324D01*
X286529Y198379D01*
X286626Y198437D01*
X286721Y198499D01*
X286814Y198564D01*
X286904Y198632D01*
X286992Y198703D01*
X287078Y198778D01*
X287161Y198855D01*
X287241Y198935D01*
X287318Y199018D01*
X287393Y199104D01*
X287464Y199192D01*
X287532Y199282D01*
X287597Y199375D01*
X287659Y199470D01*
X287717Y199567D01*
X287772Y199666D01*
X287823Y199767D01*
X287871Y199870D01*
X287916Y199974D01*
X287956Y200080D01*
X287993Y200187D01*
X288026Y200295D01*
X288056Y200405D01*
X288081Y200515D01*
X288103Y200626D01*
X288120Y200738D01*
X288134Y200851D01*
X288144Y200964D01*
X288150Y201077D01*
X288152Y201190D01*
X288150Y201303D01*
X288144Y201416D01*
X288134Y201529D01*
X288120Y201642D01*
X288103Y201754D01*
X288081Y201865D01*
X288056Y201975D01*
X288026Y202085D01*
X287993Y202193D01*
X287956Y202300D01*
X287916Y202406D01*
X287871Y202510D01*
X287823Y202613D01*
X287772Y202714D01*
X287717Y202813D01*
X287659Y202910D01*
X287597Y203005D01*
X287532Y203098D01*
X287464Y203188D01*
X287393Y203276D01*
X287318Y203362D01*
X287241Y203445D01*
X287161Y203525D01*
X287078Y203602D01*
X286992Y203677D01*
X286904Y203748D01*
X286814Y203816D01*
X286721Y203881D01*
X286626Y203943D01*
X286529Y204001D01*
X286430Y204056D01*
X286329Y204107D01*
X286226Y204155D01*
X286122Y204200D01*
X286016Y204240D01*
X285909Y204277D01*
X285801Y204310D01*
X285691Y204340D01*
X285581Y204365D01*
X285470Y204387D01*
X285358Y204404D01*
X285245Y204418D01*
X285132Y204428D01*
X285019Y204434D01*
X284906Y204436D01*
X285555Y209629D02*
X281660Y209629D01*
X285555Y209628D02*
X285656Y209626D01*
X285756Y209620D01*
X285856Y209610D01*
X285956Y209597D01*
X286055Y209579D01*
X286154Y209558D01*
X286251Y209533D01*
X286348Y209504D01*
X286443Y209471D01*
X286537Y209435D01*
X286629Y209395D01*
X286720Y209352D01*
X286809Y209305D01*
X286896Y209255D01*
X286982Y209201D01*
X287065Y209144D01*
X287145Y209084D01*
X287224Y209021D01*
X287300Y208954D01*
X287373Y208885D01*
X287443Y208813D01*
X287511Y208739D01*
X287576Y208662D01*
X287637Y208582D01*
X287696Y208500D01*
X287751Y208416D01*
X287803Y208330D01*
X287852Y208242D01*
X287897Y208152D01*
X287939Y208060D01*
X287977Y207967D01*
X288011Y207872D01*
X288042Y207777D01*
X288069Y207680D01*
X288092Y207582D01*
X288112Y207483D01*
X288127Y207383D01*
X288139Y207283D01*
X288147Y207183D01*
X288151Y207082D01*
X288151Y206982D01*
X288147Y206881D01*
X288139Y206781D01*
X288127Y206681D01*
X288112Y206581D01*
X288092Y206482D01*
X288069Y206384D01*
X288042Y206287D01*
X288011Y206192D01*
X287977Y206097D01*
X287939Y206004D01*
X287897Y205912D01*
X287852Y205822D01*
X287803Y205734D01*
X287751Y205648D01*
X287696Y205564D01*
X287637Y205482D01*
X287576Y205402D01*
X287511Y205325D01*
X287443Y205251D01*
X287373Y205179D01*
X287300Y205110D01*
X287224Y205043D01*
X287145Y204980D01*
X287065Y204920D01*
X286982Y204863D01*
X286896Y204809D01*
X286809Y204759D01*
X286720Y204712D01*
X286629Y204669D01*
X286537Y204629D01*
X286443Y204593D01*
X286348Y204560D01*
X286251Y204531D01*
X286154Y204506D01*
X286055Y204485D01*
X285956Y204467D01*
X285856Y204454D01*
X285756Y204444D01*
X285656Y204438D01*
X285555Y204436D01*
X282958Y204436D01*
X292441Y209629D02*
X296336Y197945D01*
X300230Y209629D01*
X304520Y197945D02*
X307766Y197945D01*
X307766Y197944D02*
X307879Y197946D01*
X307992Y197952D01*
X308105Y197962D01*
X308218Y197976D01*
X308330Y197993D01*
X308441Y198015D01*
X308551Y198040D01*
X308661Y198070D01*
X308769Y198103D01*
X308876Y198140D01*
X308982Y198180D01*
X309086Y198225D01*
X309189Y198273D01*
X309290Y198324D01*
X309389Y198379D01*
X309486Y198437D01*
X309581Y198499D01*
X309674Y198564D01*
X309764Y198632D01*
X309852Y198703D01*
X309938Y198778D01*
X310021Y198855D01*
X310101Y198935D01*
X310178Y199018D01*
X310253Y199104D01*
X310324Y199192D01*
X310392Y199282D01*
X310457Y199375D01*
X310519Y199470D01*
X310577Y199567D01*
X310632Y199666D01*
X310683Y199767D01*
X310731Y199870D01*
X310776Y199974D01*
X310816Y200080D01*
X310853Y200187D01*
X310886Y200295D01*
X310916Y200405D01*
X310941Y200515D01*
X310963Y200626D01*
X310980Y200738D01*
X310994Y200851D01*
X311004Y200964D01*
X311010Y201077D01*
X311012Y201190D01*
X311010Y201303D01*
X311004Y201416D01*
X310994Y201529D01*
X310980Y201642D01*
X310963Y201754D01*
X310941Y201865D01*
X310916Y201975D01*
X310886Y202085D01*
X310853Y202193D01*
X310816Y202300D01*
X310776Y202406D01*
X310731Y202510D01*
X310683Y202613D01*
X310632Y202714D01*
X310577Y202813D01*
X310519Y202910D01*
X310457Y203005D01*
X310392Y203098D01*
X310324Y203188D01*
X310253Y203276D01*
X310178Y203362D01*
X310101Y203445D01*
X310021Y203525D01*
X309938Y203602D01*
X309852Y203677D01*
X309764Y203748D01*
X309674Y203816D01*
X309581Y203881D01*
X309486Y203943D01*
X309389Y204001D01*
X309290Y204056D01*
X309189Y204107D01*
X309086Y204155D01*
X308982Y204200D01*
X308876Y204240D01*
X308769Y204277D01*
X308661Y204310D01*
X308551Y204340D01*
X308441Y204365D01*
X308330Y204387D01*
X308218Y204404D01*
X308105Y204418D01*
X307992Y204428D01*
X307879Y204434D01*
X307766Y204436D01*
X308415Y209629D02*
X304520Y209629D01*
X308415Y209628D02*
X308516Y209626D01*
X308616Y209620D01*
X308716Y209610D01*
X308816Y209597D01*
X308915Y209579D01*
X309014Y209558D01*
X309111Y209533D01*
X309208Y209504D01*
X309303Y209471D01*
X309397Y209435D01*
X309489Y209395D01*
X309580Y209352D01*
X309669Y209305D01*
X309756Y209255D01*
X309842Y209201D01*
X309925Y209144D01*
X310005Y209084D01*
X310084Y209021D01*
X310160Y208954D01*
X310233Y208885D01*
X310303Y208813D01*
X310371Y208739D01*
X310436Y208662D01*
X310497Y208582D01*
X310556Y208500D01*
X310611Y208416D01*
X310663Y208330D01*
X310712Y208242D01*
X310757Y208152D01*
X310799Y208060D01*
X310837Y207967D01*
X310871Y207872D01*
X310902Y207777D01*
X310929Y207680D01*
X310952Y207582D01*
X310972Y207483D01*
X310987Y207383D01*
X310999Y207283D01*
X311007Y207183D01*
X311011Y207082D01*
X311011Y206982D01*
X311007Y206881D01*
X310999Y206781D01*
X310987Y206681D01*
X310972Y206581D01*
X310952Y206482D01*
X310929Y206384D01*
X310902Y206287D01*
X310871Y206192D01*
X310837Y206097D01*
X310799Y206004D01*
X310757Y205912D01*
X310712Y205822D01*
X310663Y205734D01*
X310611Y205648D01*
X310556Y205564D01*
X310497Y205482D01*
X310436Y205402D01*
X310371Y205325D01*
X310303Y205251D01*
X310233Y205179D01*
X310160Y205110D01*
X310084Y205043D01*
X310005Y204980D01*
X309925Y204920D01*
X309842Y204863D01*
X309756Y204809D01*
X309669Y204759D01*
X309580Y204712D01*
X309489Y204669D01*
X309397Y204629D01*
X309303Y204593D01*
X309208Y204560D01*
X309111Y204531D01*
X309014Y204506D01*
X308915Y204485D01*
X308816Y204467D01*
X308716Y204454D01*
X308616Y204444D01*
X308516Y204438D01*
X308415Y204436D01*
X305818Y204436D01*
X206842Y331524D02*
X206842Y334770D01*
X206840Y334883D01*
X206834Y334996D01*
X206824Y335109D01*
X206810Y335222D01*
X206793Y335334D01*
X206771Y335445D01*
X206746Y335555D01*
X206716Y335665D01*
X206683Y335773D01*
X206646Y335880D01*
X206606Y335986D01*
X206561Y336090D01*
X206513Y336193D01*
X206462Y336294D01*
X206407Y336393D01*
X206349Y336490D01*
X206287Y336585D01*
X206222Y336678D01*
X206154Y336768D01*
X206083Y336856D01*
X206008Y336942D01*
X205931Y337025D01*
X205851Y337105D01*
X205768Y337182D01*
X205682Y337257D01*
X205594Y337328D01*
X205504Y337396D01*
X205411Y337461D01*
X205316Y337523D01*
X205219Y337581D01*
X205120Y337636D01*
X205019Y337687D01*
X204916Y337735D01*
X204812Y337780D01*
X204706Y337820D01*
X204599Y337857D01*
X204491Y337890D01*
X204381Y337920D01*
X204271Y337945D01*
X204160Y337967D01*
X204048Y337984D01*
X203935Y337998D01*
X203822Y338008D01*
X203709Y338014D01*
X203596Y338016D01*
X203483Y338014D01*
X203370Y338008D01*
X203257Y337998D01*
X203144Y337984D01*
X203032Y337967D01*
X202921Y337945D01*
X202811Y337920D01*
X202701Y337890D01*
X202593Y337857D01*
X202486Y337820D01*
X202380Y337780D01*
X202276Y337735D01*
X202173Y337687D01*
X202072Y337636D01*
X201973Y337581D01*
X201876Y337523D01*
X201781Y337461D01*
X201688Y337396D01*
X201598Y337328D01*
X201510Y337257D01*
X201424Y337182D01*
X201341Y337105D01*
X201261Y337025D01*
X201184Y336942D01*
X201109Y336856D01*
X201038Y336768D01*
X200970Y336678D01*
X200905Y336585D01*
X200843Y336490D01*
X200785Y336393D01*
X200730Y336294D01*
X200679Y336193D01*
X200631Y336090D01*
X200586Y335986D01*
X200546Y335880D01*
X200509Y335773D01*
X200476Y335665D01*
X200446Y335555D01*
X200421Y335445D01*
X200399Y335334D01*
X200382Y335222D01*
X200368Y335109D01*
X200358Y334996D01*
X200352Y334883D01*
X200350Y334770D01*
X195158Y335419D02*
X195158Y331524D01*
X195158Y335419D02*
X195160Y335520D01*
X195166Y335620D01*
X195176Y335720D01*
X195189Y335820D01*
X195207Y335919D01*
X195228Y336018D01*
X195253Y336115D01*
X195282Y336212D01*
X195315Y336307D01*
X195351Y336401D01*
X195391Y336493D01*
X195434Y336584D01*
X195481Y336673D01*
X195531Y336760D01*
X195585Y336846D01*
X195642Y336929D01*
X195702Y337009D01*
X195765Y337088D01*
X195832Y337164D01*
X195901Y337237D01*
X195973Y337307D01*
X196047Y337375D01*
X196124Y337440D01*
X196204Y337501D01*
X196286Y337560D01*
X196370Y337615D01*
X196456Y337667D01*
X196544Y337716D01*
X196634Y337761D01*
X196726Y337803D01*
X196819Y337841D01*
X196914Y337875D01*
X197009Y337906D01*
X197106Y337933D01*
X197204Y337956D01*
X197303Y337976D01*
X197403Y337991D01*
X197503Y338003D01*
X197603Y338011D01*
X197704Y338015D01*
X197804Y338015D01*
X197905Y338011D01*
X198005Y338003D01*
X198105Y337991D01*
X198205Y337976D01*
X198304Y337956D01*
X198402Y337933D01*
X198499Y337906D01*
X198594Y337875D01*
X198689Y337841D01*
X198782Y337803D01*
X198874Y337761D01*
X198964Y337716D01*
X199052Y337667D01*
X199138Y337615D01*
X199222Y337560D01*
X199304Y337501D01*
X199384Y337440D01*
X199461Y337375D01*
X199535Y337307D01*
X199607Y337237D01*
X199676Y337164D01*
X199743Y337088D01*
X199806Y337009D01*
X199866Y336929D01*
X199923Y336846D01*
X199977Y336760D01*
X200027Y336673D01*
X200074Y336584D01*
X200117Y336493D01*
X200157Y336401D01*
X200193Y336307D01*
X200226Y336212D01*
X200255Y336115D01*
X200280Y336018D01*
X200301Y335919D01*
X200319Y335820D01*
X200332Y335720D01*
X200342Y335620D01*
X200348Y335520D01*
X200350Y335419D01*
X200351Y335419D02*
X200351Y332823D01*
X195158Y342305D02*
X206842Y346200D01*
X195158Y350095D01*
X206842Y354384D02*
X206842Y357630D01*
X206840Y357743D01*
X206834Y357856D01*
X206824Y357969D01*
X206810Y358082D01*
X206793Y358194D01*
X206771Y358305D01*
X206746Y358415D01*
X206716Y358525D01*
X206683Y358633D01*
X206646Y358740D01*
X206606Y358846D01*
X206561Y358950D01*
X206513Y359053D01*
X206462Y359154D01*
X206407Y359253D01*
X206349Y359350D01*
X206287Y359445D01*
X206222Y359538D01*
X206154Y359628D01*
X206083Y359716D01*
X206008Y359802D01*
X205931Y359885D01*
X205851Y359965D01*
X205768Y360042D01*
X205682Y360117D01*
X205594Y360188D01*
X205504Y360256D01*
X205411Y360321D01*
X205316Y360383D01*
X205219Y360441D01*
X205120Y360496D01*
X205019Y360547D01*
X204916Y360595D01*
X204812Y360640D01*
X204706Y360680D01*
X204599Y360717D01*
X204491Y360750D01*
X204381Y360780D01*
X204271Y360805D01*
X204160Y360827D01*
X204048Y360844D01*
X203935Y360858D01*
X203822Y360868D01*
X203709Y360874D01*
X203596Y360876D01*
X203483Y360874D01*
X203370Y360868D01*
X203257Y360858D01*
X203144Y360844D01*
X203032Y360827D01*
X202921Y360805D01*
X202811Y360780D01*
X202701Y360750D01*
X202593Y360717D01*
X202486Y360680D01*
X202380Y360640D01*
X202276Y360595D01*
X202173Y360547D01*
X202072Y360496D01*
X201973Y360441D01*
X201876Y360383D01*
X201781Y360321D01*
X201688Y360256D01*
X201598Y360188D01*
X201510Y360117D01*
X201424Y360042D01*
X201341Y359965D01*
X201261Y359885D01*
X201184Y359802D01*
X201109Y359716D01*
X201038Y359628D01*
X200970Y359538D01*
X200905Y359445D01*
X200843Y359350D01*
X200785Y359253D01*
X200730Y359154D01*
X200679Y359053D01*
X200631Y358950D01*
X200586Y358846D01*
X200546Y358740D01*
X200509Y358633D01*
X200476Y358525D01*
X200446Y358415D01*
X200421Y358305D01*
X200399Y358194D01*
X200382Y358082D01*
X200368Y357969D01*
X200358Y357856D01*
X200352Y357743D01*
X200350Y357630D01*
X195158Y358279D02*
X195158Y354384D01*
X195158Y358279D02*
X195160Y358380D01*
X195166Y358480D01*
X195176Y358580D01*
X195189Y358680D01*
X195207Y358779D01*
X195228Y358878D01*
X195253Y358975D01*
X195282Y359072D01*
X195315Y359167D01*
X195351Y359261D01*
X195391Y359353D01*
X195434Y359444D01*
X195481Y359533D01*
X195531Y359620D01*
X195585Y359706D01*
X195642Y359789D01*
X195702Y359869D01*
X195765Y359948D01*
X195832Y360024D01*
X195901Y360097D01*
X195973Y360167D01*
X196047Y360235D01*
X196124Y360300D01*
X196204Y360361D01*
X196286Y360420D01*
X196370Y360475D01*
X196456Y360527D01*
X196544Y360576D01*
X196634Y360621D01*
X196726Y360663D01*
X196819Y360701D01*
X196914Y360735D01*
X197009Y360766D01*
X197106Y360793D01*
X197204Y360816D01*
X197303Y360836D01*
X197403Y360851D01*
X197503Y360863D01*
X197603Y360871D01*
X197704Y360875D01*
X197804Y360875D01*
X197905Y360871D01*
X198005Y360863D01*
X198105Y360851D01*
X198205Y360836D01*
X198304Y360816D01*
X198402Y360793D01*
X198499Y360766D01*
X198594Y360735D01*
X198689Y360701D01*
X198782Y360663D01*
X198874Y360621D01*
X198964Y360576D01*
X199052Y360527D01*
X199138Y360475D01*
X199222Y360420D01*
X199304Y360361D01*
X199384Y360300D01*
X199461Y360235D01*
X199535Y360167D01*
X199607Y360097D01*
X199676Y360024D01*
X199743Y359948D01*
X199806Y359869D01*
X199866Y359789D01*
X199923Y359706D01*
X199977Y359620D01*
X200027Y359533D01*
X200074Y359444D01*
X200117Y359353D01*
X200157Y359261D01*
X200193Y359167D01*
X200226Y359072D01*
X200255Y358975D01*
X200280Y358878D01*
X200301Y358779D01*
X200319Y358680D01*
X200332Y358580D01*
X200342Y358480D01*
X200348Y358380D01*
X200350Y358279D01*
X200351Y358279D02*
X200351Y355683D01*
D11*
X450897Y308399D02*
X450897Y290619D01*
X450897Y308399D02*
X455835Y308399D01*
X455975Y308397D01*
X456114Y308391D01*
X456254Y308381D01*
X456393Y308367D01*
X456532Y308350D01*
X456670Y308328D01*
X456807Y308302D01*
X456944Y308273D01*
X457080Y308240D01*
X457214Y308203D01*
X457348Y308162D01*
X457480Y308117D01*
X457612Y308068D01*
X457741Y308016D01*
X457869Y307961D01*
X457996Y307901D01*
X458121Y307838D01*
X458244Y307772D01*
X458365Y307702D01*
X458484Y307629D01*
X458601Y307552D01*
X458715Y307472D01*
X458828Y307389D01*
X458938Y307303D01*
X459045Y307213D01*
X459150Y307121D01*
X459252Y307026D01*
X459352Y306928D01*
X459449Y306827D01*
X459543Y306723D01*
X459633Y306617D01*
X459721Y306508D01*
X459806Y306397D01*
X459887Y306283D01*
X459966Y306168D01*
X460041Y306050D01*
X460112Y305930D01*
X460180Y305807D01*
X460245Y305684D01*
X460306Y305558D01*
X460364Y305430D01*
X460418Y305302D01*
X460468Y305171D01*
X460515Y305039D01*
X460558Y304906D01*
X460597Y304772D01*
X460632Y304637D01*
X460663Y304501D01*
X460691Y304363D01*
X460714Y304226D01*
X460734Y304087D01*
X460750Y303948D01*
X460762Y303809D01*
X460770Y303670D01*
X460774Y303530D01*
X460774Y303390D01*
X460770Y303250D01*
X460762Y303111D01*
X460750Y302972D01*
X460734Y302833D01*
X460714Y302694D01*
X460691Y302557D01*
X460663Y302419D01*
X460632Y302283D01*
X460597Y302148D01*
X460558Y302014D01*
X460515Y301881D01*
X460468Y301749D01*
X460418Y301618D01*
X460364Y301490D01*
X460306Y301362D01*
X460245Y301236D01*
X460180Y301113D01*
X460112Y300991D01*
X460041Y300870D01*
X459966Y300752D01*
X459887Y300637D01*
X459806Y300523D01*
X459721Y300412D01*
X459633Y300303D01*
X459543Y300197D01*
X459449Y300093D01*
X459352Y299992D01*
X459252Y299894D01*
X459150Y299799D01*
X459045Y299707D01*
X458938Y299617D01*
X458828Y299531D01*
X458715Y299448D01*
X458601Y299368D01*
X458484Y299291D01*
X458365Y299218D01*
X458244Y299148D01*
X458121Y299082D01*
X457996Y299019D01*
X457869Y298959D01*
X457741Y298904D01*
X457612Y298852D01*
X457480Y298803D01*
X457348Y298758D01*
X457214Y298717D01*
X457080Y298680D01*
X456944Y298647D01*
X456807Y298618D01*
X456670Y298592D01*
X456532Y298570D01*
X456393Y298553D01*
X456254Y298539D01*
X456114Y298529D01*
X455975Y298523D01*
X455835Y298521D01*
X450897Y298521D01*
X472324Y308399D02*
X472456Y308397D01*
X472587Y308391D01*
X472719Y308381D01*
X472850Y308368D01*
X472980Y308350D01*
X473110Y308329D01*
X473240Y308304D01*
X473368Y308275D01*
X473496Y308242D01*
X473622Y308205D01*
X473748Y308165D01*
X473872Y308121D01*
X473995Y308073D01*
X474116Y308022D01*
X474236Y307967D01*
X474354Y307909D01*
X474470Y307847D01*
X474584Y307781D01*
X474697Y307713D01*
X474807Y307641D01*
X474915Y307566D01*
X475021Y307487D01*
X475125Y307406D01*
X475226Y307321D01*
X475324Y307234D01*
X475420Y307143D01*
X475513Y307050D01*
X475604Y306954D01*
X475691Y306856D01*
X475776Y306755D01*
X475857Y306651D01*
X475936Y306545D01*
X476011Y306437D01*
X476083Y306327D01*
X476151Y306214D01*
X476217Y306100D01*
X476279Y305984D01*
X476337Y305866D01*
X476392Y305746D01*
X476443Y305625D01*
X476491Y305502D01*
X476535Y305378D01*
X476575Y305252D01*
X476612Y305126D01*
X476645Y304998D01*
X476674Y304870D01*
X476699Y304740D01*
X476720Y304610D01*
X476738Y304480D01*
X476751Y304349D01*
X476761Y304217D01*
X476767Y304086D01*
X476769Y303954D01*
X472324Y308400D02*
X472174Y308398D01*
X472025Y308392D01*
X471876Y308382D01*
X471727Y308369D01*
X471578Y308351D01*
X471430Y308330D01*
X471282Y308304D01*
X471136Y308275D01*
X470990Y308242D01*
X470845Y308205D01*
X470701Y308164D01*
X470558Y308120D01*
X470416Y308072D01*
X470276Y308020D01*
X470137Y307965D01*
X469999Y307906D01*
X469864Y307843D01*
X469729Y307777D01*
X469597Y307707D01*
X469467Y307634D01*
X469338Y307557D01*
X469211Y307477D01*
X469087Y307394D01*
X468965Y307308D01*
X468845Y307218D01*
X468728Y307125D01*
X468613Y307030D01*
X468500Y306931D01*
X468390Y306829D01*
X468283Y306725D01*
X468179Y306618D01*
X468077Y306508D01*
X467979Y306395D01*
X467883Y306280D01*
X467791Y306162D01*
X467701Y306042D01*
X467615Y305920D01*
X467532Y305796D01*
X467452Y305669D01*
X467376Y305541D01*
X467303Y305410D01*
X467233Y305277D01*
X467167Y305143D01*
X467105Y305007D01*
X467046Y304870D01*
X466990Y304731D01*
X466939Y304590D01*
X466891Y304449D01*
X475287Y300497D02*
X475383Y300590D01*
X475475Y300686D01*
X475565Y300785D01*
X475652Y300886D01*
X475737Y300989D01*
X475818Y301094D01*
X475896Y301202D01*
X475971Y301312D01*
X476044Y301424D01*
X476113Y301538D01*
X476179Y301654D01*
X476241Y301772D01*
X476300Y301891D01*
X476356Y302012D01*
X476409Y302135D01*
X476458Y302259D01*
X476503Y302384D01*
X476546Y302511D01*
X476584Y302638D01*
X476619Y302767D01*
X476650Y302896D01*
X476678Y303027D01*
X476702Y303158D01*
X476723Y303290D01*
X476739Y303422D01*
X476752Y303555D01*
X476762Y303688D01*
X476767Y303821D01*
X476769Y303954D01*
X475288Y300497D02*
X466892Y290619D01*
X476769Y290619D01*
X335778Y230229D02*
X335778Y212449D01*
X335778Y230229D02*
X340717Y230229D01*
X340857Y230227D01*
X340996Y230221D01*
X341136Y230211D01*
X341275Y230197D01*
X341414Y230180D01*
X341552Y230158D01*
X341689Y230132D01*
X341826Y230103D01*
X341962Y230070D01*
X342096Y230033D01*
X342230Y229992D01*
X342362Y229947D01*
X342494Y229898D01*
X342623Y229846D01*
X342751Y229791D01*
X342878Y229731D01*
X343003Y229668D01*
X343126Y229602D01*
X343247Y229532D01*
X343366Y229459D01*
X343483Y229382D01*
X343597Y229302D01*
X343710Y229219D01*
X343820Y229133D01*
X343927Y229043D01*
X344032Y228951D01*
X344134Y228856D01*
X344234Y228758D01*
X344331Y228657D01*
X344425Y228553D01*
X344515Y228447D01*
X344603Y228338D01*
X344688Y228227D01*
X344769Y228113D01*
X344848Y227998D01*
X344923Y227880D01*
X344994Y227760D01*
X345062Y227637D01*
X345127Y227514D01*
X345188Y227388D01*
X345246Y227260D01*
X345300Y227132D01*
X345350Y227001D01*
X345397Y226869D01*
X345440Y226736D01*
X345479Y226602D01*
X345514Y226467D01*
X345545Y226331D01*
X345573Y226193D01*
X345596Y226056D01*
X345616Y225917D01*
X345632Y225778D01*
X345644Y225639D01*
X345652Y225500D01*
X345656Y225360D01*
X345656Y225220D01*
X345652Y225080D01*
X345644Y224941D01*
X345632Y224802D01*
X345616Y224663D01*
X345596Y224524D01*
X345573Y224387D01*
X345545Y224249D01*
X345514Y224113D01*
X345479Y223978D01*
X345440Y223844D01*
X345397Y223711D01*
X345350Y223579D01*
X345300Y223448D01*
X345246Y223320D01*
X345188Y223192D01*
X345127Y223066D01*
X345062Y222943D01*
X344994Y222821D01*
X344923Y222700D01*
X344848Y222582D01*
X344769Y222467D01*
X344688Y222353D01*
X344603Y222242D01*
X344515Y222133D01*
X344425Y222027D01*
X344331Y221923D01*
X344234Y221822D01*
X344134Y221724D01*
X344032Y221629D01*
X343927Y221537D01*
X343820Y221447D01*
X343710Y221361D01*
X343597Y221278D01*
X343483Y221198D01*
X343366Y221121D01*
X343247Y221048D01*
X343126Y220978D01*
X343003Y220912D01*
X342878Y220849D01*
X342751Y220789D01*
X342623Y220734D01*
X342494Y220682D01*
X342362Y220633D01*
X342230Y220588D01*
X342096Y220547D01*
X341962Y220510D01*
X341826Y220477D01*
X341689Y220448D01*
X341552Y220422D01*
X341414Y220400D01*
X341275Y220383D01*
X341136Y220369D01*
X340996Y220359D01*
X340857Y220353D01*
X340717Y220351D01*
X335778Y220351D01*
X351773Y212449D02*
X356712Y212449D01*
X356852Y212451D01*
X356991Y212457D01*
X357131Y212467D01*
X357270Y212481D01*
X357409Y212498D01*
X357547Y212520D01*
X357684Y212546D01*
X357821Y212575D01*
X357957Y212608D01*
X358091Y212645D01*
X358225Y212686D01*
X358357Y212731D01*
X358489Y212780D01*
X358618Y212832D01*
X358746Y212887D01*
X358873Y212947D01*
X358998Y213010D01*
X359121Y213076D01*
X359242Y213146D01*
X359361Y213219D01*
X359478Y213296D01*
X359592Y213376D01*
X359705Y213459D01*
X359815Y213545D01*
X359922Y213635D01*
X360027Y213727D01*
X360129Y213822D01*
X360229Y213920D01*
X360326Y214021D01*
X360420Y214125D01*
X360510Y214231D01*
X360598Y214340D01*
X360683Y214451D01*
X360764Y214565D01*
X360843Y214680D01*
X360918Y214798D01*
X360989Y214919D01*
X361057Y215041D01*
X361122Y215164D01*
X361183Y215290D01*
X361241Y215418D01*
X361295Y215546D01*
X361345Y215677D01*
X361392Y215809D01*
X361435Y215942D01*
X361474Y216076D01*
X361509Y216211D01*
X361540Y216347D01*
X361568Y216485D01*
X361591Y216622D01*
X361611Y216761D01*
X361627Y216900D01*
X361639Y217039D01*
X361647Y217178D01*
X361651Y217318D01*
X361651Y217458D01*
X361647Y217598D01*
X361639Y217737D01*
X361627Y217876D01*
X361611Y218015D01*
X361591Y218154D01*
X361568Y218291D01*
X361540Y218429D01*
X361509Y218565D01*
X361474Y218700D01*
X361435Y218834D01*
X361392Y218967D01*
X361345Y219099D01*
X361295Y219230D01*
X361241Y219358D01*
X361183Y219486D01*
X361122Y219612D01*
X361057Y219735D01*
X360989Y219858D01*
X360918Y219978D01*
X360843Y220096D01*
X360764Y220211D01*
X360683Y220325D01*
X360598Y220436D01*
X360510Y220545D01*
X360420Y220651D01*
X360326Y220755D01*
X360229Y220856D01*
X360129Y220954D01*
X360027Y221049D01*
X359922Y221141D01*
X359815Y221231D01*
X359705Y221317D01*
X359592Y221400D01*
X359478Y221480D01*
X359361Y221557D01*
X359242Y221630D01*
X359121Y221700D01*
X358998Y221766D01*
X358873Y221829D01*
X358746Y221889D01*
X358618Y221944D01*
X358489Y221996D01*
X358357Y222045D01*
X358225Y222090D01*
X358091Y222131D01*
X357957Y222168D01*
X357821Y222201D01*
X357684Y222230D01*
X357547Y222256D01*
X357409Y222278D01*
X357270Y222295D01*
X357131Y222309D01*
X356991Y222319D01*
X356852Y222325D01*
X356712Y222327D01*
X357700Y230229D02*
X351773Y230229D01*
X357700Y230229D02*
X357824Y230227D01*
X357948Y230221D01*
X358072Y230211D01*
X358195Y230198D01*
X358318Y230180D01*
X358440Y230159D01*
X358562Y230134D01*
X358683Y230105D01*
X358802Y230072D01*
X358921Y230036D01*
X359038Y229995D01*
X359154Y229952D01*
X359269Y229904D01*
X359382Y229853D01*
X359494Y229798D01*
X359603Y229740D01*
X359711Y229679D01*
X359817Y229614D01*
X359921Y229546D01*
X360022Y229474D01*
X360122Y229400D01*
X360218Y229322D01*
X360313Y229242D01*
X360405Y229158D01*
X360494Y229072D01*
X360580Y228983D01*
X360664Y228891D01*
X360744Y228796D01*
X360822Y228700D01*
X360896Y228600D01*
X360968Y228499D01*
X361036Y228395D01*
X361101Y228289D01*
X361162Y228181D01*
X361220Y228072D01*
X361275Y227960D01*
X361326Y227847D01*
X361374Y227732D01*
X361417Y227616D01*
X361458Y227499D01*
X361494Y227380D01*
X361527Y227261D01*
X361556Y227140D01*
X361581Y227018D01*
X361602Y226896D01*
X361620Y226773D01*
X361633Y226650D01*
X361643Y226526D01*
X361649Y226402D01*
X361651Y226278D01*
X361649Y226154D01*
X361643Y226030D01*
X361633Y225906D01*
X361620Y225783D01*
X361602Y225660D01*
X361581Y225538D01*
X361556Y225416D01*
X361527Y225295D01*
X361494Y225176D01*
X361458Y225057D01*
X361417Y224940D01*
X361374Y224824D01*
X361326Y224709D01*
X361275Y224596D01*
X361220Y224484D01*
X361162Y224375D01*
X361101Y224267D01*
X361036Y224161D01*
X360968Y224057D01*
X360896Y223956D01*
X360822Y223856D01*
X360744Y223760D01*
X360664Y223665D01*
X360580Y223573D01*
X360494Y223484D01*
X360405Y223398D01*
X360313Y223314D01*
X360218Y223234D01*
X360122Y223156D01*
X360022Y223082D01*
X359921Y223010D01*
X359817Y222942D01*
X359711Y222877D01*
X359603Y222816D01*
X359494Y222758D01*
X359382Y222703D01*
X359269Y222652D01*
X359154Y222604D01*
X359038Y222561D01*
X358921Y222520D01*
X358802Y222484D01*
X358683Y222451D01*
X358562Y222422D01*
X358440Y222397D01*
X358318Y222376D01*
X358195Y222358D01*
X358072Y222345D01*
X357948Y222335D01*
X357824Y222329D01*
X357700Y222327D01*
X357700Y222326D02*
X353749Y222326D01*
X232771Y283068D02*
X232771Y300848D01*
X237710Y300848D01*
X237850Y300846D01*
X237989Y300840D01*
X238129Y300830D01*
X238268Y300816D01*
X238407Y300799D01*
X238545Y300777D01*
X238682Y300751D01*
X238819Y300722D01*
X238955Y300689D01*
X239089Y300652D01*
X239223Y300611D01*
X239355Y300566D01*
X239487Y300517D01*
X239616Y300465D01*
X239744Y300410D01*
X239871Y300350D01*
X239996Y300287D01*
X240119Y300221D01*
X240240Y300151D01*
X240359Y300078D01*
X240476Y300001D01*
X240590Y299921D01*
X240703Y299838D01*
X240813Y299752D01*
X240920Y299662D01*
X241025Y299570D01*
X241127Y299475D01*
X241227Y299377D01*
X241324Y299276D01*
X241418Y299172D01*
X241508Y299066D01*
X241596Y298957D01*
X241681Y298846D01*
X241762Y298732D01*
X241841Y298617D01*
X241916Y298499D01*
X241987Y298379D01*
X242055Y298256D01*
X242120Y298133D01*
X242181Y298007D01*
X242239Y297879D01*
X242293Y297751D01*
X242343Y297620D01*
X242390Y297488D01*
X242433Y297355D01*
X242472Y297221D01*
X242507Y297086D01*
X242538Y296950D01*
X242566Y296812D01*
X242589Y296675D01*
X242609Y296536D01*
X242625Y296397D01*
X242637Y296258D01*
X242645Y296119D01*
X242649Y295979D01*
X242649Y295839D01*
X242645Y295699D01*
X242637Y295560D01*
X242625Y295421D01*
X242609Y295282D01*
X242589Y295143D01*
X242566Y295006D01*
X242538Y294868D01*
X242507Y294732D01*
X242472Y294597D01*
X242433Y294463D01*
X242390Y294330D01*
X242343Y294198D01*
X242293Y294067D01*
X242239Y293939D01*
X242181Y293811D01*
X242120Y293685D01*
X242055Y293562D01*
X241987Y293440D01*
X241916Y293319D01*
X241841Y293201D01*
X241762Y293086D01*
X241681Y292972D01*
X241596Y292861D01*
X241508Y292752D01*
X241418Y292646D01*
X241324Y292542D01*
X241227Y292441D01*
X241127Y292343D01*
X241025Y292248D01*
X240920Y292156D01*
X240813Y292066D01*
X240703Y291980D01*
X240590Y291897D01*
X240476Y291817D01*
X240359Y291740D01*
X240240Y291667D01*
X240119Y291597D01*
X239996Y291531D01*
X239871Y291468D01*
X239744Y291408D01*
X239616Y291353D01*
X239487Y291301D01*
X239355Y291252D01*
X239223Y291207D01*
X239089Y291166D01*
X238955Y291129D01*
X238819Y291096D01*
X238682Y291067D01*
X238545Y291041D01*
X238407Y291019D01*
X238268Y291002D01*
X238129Y290988D01*
X237989Y290978D01*
X237850Y290972D01*
X237710Y290970D01*
X232771Y290970D01*
X248766Y287019D02*
X252717Y300848D01*
X248766Y287019D02*
X258643Y287019D01*
X255680Y290970D02*
X255680Y283068D01*
D12*
X349131Y456024D03*
D13*
X348615Y456171D03*
D14*
X348026Y456319D03*
D15*
X347584Y456466D03*
D16*
X347068Y456613D03*
D17*
X346626Y456761D03*
D18*
X346037Y456908D03*
D19*
X345521Y457055D03*
D20*
X345079Y457203D03*
D21*
X344637Y457350D03*
D22*
X344564Y457497D03*
D23*
X344637Y457645D03*
D24*
X344711Y457792D03*
D25*
X344637Y457939D03*
D26*
X344711Y458087D03*
D27*
X344711Y458234D03*
D28*
X344785Y458381D03*
X344785Y458528D03*
D29*
X344785Y458676D03*
D30*
X344858Y458823D03*
D31*
X344858Y458970D03*
X344858Y459118D03*
D32*
X344932Y459265D03*
D33*
X344932Y459412D03*
D34*
X345006Y459560D03*
D35*
X344932Y459707D03*
D36*
X345006Y459854D03*
D37*
X345079Y460002D03*
D38*
X345079Y460149D03*
X345079Y460296D03*
D39*
X345153Y460444D03*
D40*
X345153Y460591D03*
D41*
X345227Y460738D03*
D42*
X345153Y460886D03*
D43*
X345227Y461033D03*
D44*
X345300Y461180D03*
D45*
X345300Y461328D03*
X345300Y461475D03*
D46*
X345300Y461622D03*
D47*
X345374Y461770D03*
X345374Y461917D03*
D48*
X345374Y462064D03*
D49*
X345448Y462211D03*
D50*
X345448Y462359D03*
X345448Y462506D03*
D51*
X345521Y462653D03*
D52*
X345521Y462801D03*
D53*
X345595Y462948D03*
D54*
X345521Y463095D03*
D55*
X345595Y463243D03*
D56*
X345669Y463390D03*
D57*
X366146Y463390D03*
D58*
X345669Y463537D03*
D59*
X365557Y463537D03*
D58*
X345669Y463685D03*
D60*
X365115Y463685D03*
D61*
X345669Y463832D03*
D62*
X364599Y463832D03*
D63*
X345742Y463979D03*
D64*
X364157Y463979D03*
D63*
X345742Y464127D03*
D65*
X363568Y464127D03*
D66*
X345669Y464274D03*
D67*
X363126Y464274D03*
D66*
X345669Y464421D03*
D68*
X362610Y464421D03*
D63*
X345595Y464569D03*
D69*
X362168Y464569D03*
D66*
X345521Y464716D03*
D21*
X362021Y464716D03*
D66*
X345521Y464863D03*
D23*
X362021Y464863D03*
D66*
X345374Y465011D03*
D24*
X362095Y465011D03*
D66*
X345374Y465158D03*
D25*
X362168Y465158D03*
D63*
X345300Y465305D03*
D26*
X362095Y465305D03*
D66*
X345227Y465453D03*
D70*
X362168Y465453D03*
D66*
X345227Y465600D03*
D28*
X362168Y465600D03*
D66*
X345079Y465747D03*
D71*
X362242Y465747D03*
D66*
X345079Y465894D03*
D71*
X362242Y465894D03*
D63*
X345006Y466042D03*
D30*
X362242Y466042D03*
D66*
X344932Y466189D03*
D72*
X362316Y466189D03*
D66*
X344932Y466336D03*
D32*
X362316Y466336D03*
D66*
X344785Y466484D03*
D32*
X362316Y466484D03*
D66*
X344785Y466631D03*
D73*
X362389Y466631D03*
D63*
X344711Y466778D03*
D34*
X362389Y466778D03*
D61*
X344785Y466926D03*
D35*
X362463Y466926D03*
D61*
X344785Y467073D03*
D36*
X362389Y467073D03*
D74*
X344785Y467220D03*
D75*
X362463Y467220D03*
D76*
X344858Y467368D03*
D77*
X362537Y467368D03*
D55*
X344858Y467515D03*
D78*
X362537Y467515D03*
D55*
X344858Y467662D03*
D78*
X362537Y467662D03*
D54*
X344932Y467810D03*
D79*
X362610Y467810D03*
D52*
X344932Y467957D03*
D41*
X362610Y467957D03*
D80*
X345006Y468104D03*
D41*
X362610Y468104D03*
D51*
X344932Y468252D03*
D43*
X362610Y468252D03*
D81*
X345006Y468399D03*
D44*
X362684Y468399D03*
D82*
X345079Y468546D03*
D83*
X362758Y468546D03*
D48*
X345079Y468694D03*
D84*
X362684Y468694D03*
D48*
X345079Y468841D03*
D85*
X362758Y468841D03*
D86*
X345153Y468988D03*
D47*
X362758Y468988D03*
D46*
X345153Y469136D03*
D86*
X362831Y469136D03*
D46*
X345153Y469283D03*
D86*
X362831Y469283D03*
D84*
X345153Y469430D03*
D49*
X362831Y469430D03*
D87*
X345227Y469577D03*
D82*
X362905Y469577D03*
D44*
X345300Y469725D03*
D51*
X362905Y469725D03*
D43*
X345227Y469872D03*
D51*
X362905Y469872D03*
D42*
X345300Y470019D03*
D80*
X362979Y470019D03*
D40*
X345300Y470167D03*
D53*
X362979Y470167D03*
D79*
X345374Y470314D03*
D54*
X363052Y470314D03*
D79*
X345374Y470461D03*
D55*
X362979Y470461D03*
D88*
X345374Y470609D03*
D89*
X363052Y470609D03*
D77*
X345448Y470756D03*
D76*
X363126Y470756D03*
D36*
X345448Y470903D03*
D90*
X363126Y470903D03*
D36*
X345448Y471051D03*
D90*
X363126Y471051D03*
D35*
X345521Y471198D03*
D63*
X363126Y471198D03*
D33*
X345521Y471345D03*
D66*
X363200Y471345D03*
D73*
X345595Y471493D03*
D63*
X363126Y471493D03*
D32*
X345521Y471640D03*
D66*
X363052Y471640D03*
D91*
X345595Y471787D03*
D66*
X363052Y471787D03*
D92*
X345669Y471935D03*
D63*
X362979Y471935D03*
D29*
X345669Y472082D03*
D66*
X362905Y472082D03*
D29*
X345669Y472229D03*
D66*
X362905Y472229D03*
D71*
X345742Y472377D03*
D66*
X362758Y472377D03*
D27*
X345742Y472524D03*
D66*
X362758Y472524D03*
D70*
X345816Y472671D03*
D63*
X362684Y472671D03*
D93*
X345742Y472819D03*
D66*
X362610Y472819D03*
D25*
X345816Y472966D03*
D66*
X362610Y472966D03*
D24*
X345890Y473113D03*
D66*
X362463Y473113D03*
D23*
X345816Y473260D03*
D66*
X362463Y473260D03*
D22*
X345890Y473408D03*
D63*
X362389Y473408D03*
D69*
X345816Y473555D03*
D66*
X362316Y473555D03*
D94*
X345300Y473702D03*
D66*
X362316Y473702D03*
D67*
X344711Y473850D03*
D66*
X362168Y473850D03*
D65*
X344269Y473997D03*
D66*
X362168Y473997D03*
D95*
X343753Y474144D03*
D61*
X362168Y474144D03*
D96*
X343312Y474292D03*
D90*
X362242Y474292D03*
D60*
X342722Y474439D03*
D90*
X362242Y474439D03*
D97*
X342207Y474586D03*
D98*
X362242Y474586D03*
D99*
X341765Y474734D03*
D56*
X362316Y474734D03*
D100*
X351561Y474881D03*
D55*
X362242Y474881D03*
D101*
X351046Y475028D03*
D54*
X362316Y475028D03*
D14*
X350530Y475176D03*
D53*
X362389Y475176D03*
D102*
X350015Y475323D03*
D80*
X362389Y475323D03*
D16*
X349573Y475470D03*
D80*
X362389Y475470D03*
D103*
X349057Y475618D03*
D81*
X362389Y475618D03*
D18*
X348541Y475765D03*
D104*
X362463Y475765D03*
D19*
X348026Y475912D03*
D49*
X362537Y475912D03*
D105*
X347510Y476060D03*
D48*
X362463Y476060D03*
D106*
X347068Y476207D03*
D86*
X362537Y476207D03*
D22*
X347068Y476354D03*
D47*
X362610Y476354D03*
D23*
X347142Y476502D03*
D85*
X362610Y476502D03*
D24*
X347215Y476649D03*
D85*
X362610Y476649D03*
D25*
X347142Y476796D03*
D87*
X362610Y476796D03*
D26*
X347215Y476943D03*
D44*
X362684Y476943D03*
D107*
X347215Y477091D03*
D43*
X362758Y477091D03*
D28*
X347289Y477238D03*
D42*
X362684Y477238D03*
D28*
X347289Y477385D03*
D41*
X362758Y477385D03*
D29*
X347289Y477533D03*
D79*
X362758Y477533D03*
D30*
X347363Y477680D03*
D39*
X362831Y477680D03*
D31*
X347363Y477827D03*
D39*
X362831Y477827D03*
D31*
X347363Y477975D03*
D108*
X362831Y477975D03*
D32*
X347436Y478122D03*
D75*
X362905Y478122D03*
D33*
X347436Y478269D03*
D35*
X362905Y478269D03*
D34*
X347510Y478417D03*
D35*
X362905Y478417D03*
X347436Y478564D03*
D34*
X362979Y478564D03*
D36*
X347510Y478711D03*
D73*
X362979Y478711D03*
D75*
X347584Y478859D03*
D73*
X362979Y478859D03*
D38*
X347584Y479006D03*
D91*
X362979Y479006D03*
D38*
X347584Y479153D03*
D72*
X363052Y479153D03*
D79*
X347584Y479301D03*
D30*
X363126Y479301D03*
D40*
X347657Y479448D03*
D29*
X363052Y479448D03*
D41*
X347731Y479595D03*
D71*
X363126Y479595D03*
D42*
X347657Y479743D03*
D27*
X363126Y479743D03*
D43*
X347731Y479890D03*
D109*
X363200Y479890D03*
D87*
X347731Y480037D03*
D109*
X363200Y480037D03*
D45*
X347805Y480185D03*
D25*
X363200Y480185D03*
D45*
X347805Y480332D03*
D24*
X363273Y480332D03*
D46*
X347805Y480479D03*
D23*
X363347Y480479D03*
D47*
X347878Y480626D03*
D22*
X363273Y480626D03*
D47*
X347878Y480774D03*
D106*
X363273Y480774D03*
D48*
X347878Y480921D03*
D110*
X362831Y480921D03*
D49*
X347952Y481068D03*
D111*
X362316Y481068D03*
D50*
X347952Y481216D03*
D18*
X361800Y481216D03*
D50*
X347952Y481363D03*
D112*
X361285Y481363D03*
D51*
X348026Y481510D03*
D113*
X360843Y481510D03*
D52*
X348026Y481658D03*
D114*
X360327Y481658D03*
D53*
X348099Y481805D03*
D14*
X359811Y481805D03*
D54*
X348026Y481952D03*
D115*
X359296Y481952D03*
D55*
X348099Y482100D03*
D12*
X358854Y482100D03*
D56*
X348173Y482247D03*
D58*
X348173Y482394D03*
X348173Y482542D03*
D61*
X348173Y482689D03*
D63*
X348247Y482836D03*
X348247Y482984D03*
D66*
X348173Y483131D03*
X348173Y483278D03*
X348026Y483426D03*
X348026Y483573D03*
D63*
X347952Y483720D03*
D66*
X347878Y483868D03*
X347878Y484015D03*
X347731Y484162D03*
X347731Y484309D03*
D63*
X347657Y484457D03*
D66*
X347584Y484604D03*
X347584Y484751D03*
D63*
X347510Y484899D03*
D66*
X347436Y485046D03*
X347436Y485193D03*
X347289Y485341D03*
X347289Y485488D03*
D63*
X347215Y485635D03*
D61*
X347289Y485783D03*
X347289Y485930D03*
D74*
X347289Y486077D03*
D76*
X347363Y486225D03*
D55*
X347363Y486372D03*
X347363Y486519D03*
D54*
X347436Y486667D03*
D52*
X347436Y486814D03*
D80*
X347510Y486961D03*
D51*
X347436Y487109D03*
D81*
X347510Y487256D03*
D82*
X347584Y487403D03*
D116*
X347510Y487551D03*
D48*
X347584Y487698D03*
D47*
X347584Y487845D03*
D46*
X347657Y487992D03*
X347657Y488140D03*
D84*
X347657Y488287D03*
D87*
X347731Y488434D03*
D43*
X347731Y488582D03*
X347731Y488729D03*
D42*
X347805Y488876D03*
D40*
X347805Y489024D03*
D79*
X347878Y489171D03*
X347878Y489318D03*
D88*
X347878Y489466D03*
D77*
X347952Y489613D03*
D36*
X347952Y489760D03*
X347952Y489908D03*
D35*
X348026Y490055D03*
D33*
X348026Y490202D03*
D73*
X348099Y490350D03*
D32*
X348026Y490497D03*
D91*
X348099Y490644D03*
D92*
X348173Y490792D03*
D29*
X348173Y490939D03*
X348173Y491086D03*
D28*
X348173Y491234D03*
D27*
X348247Y491381D03*
D70*
X348320Y491528D03*
D93*
X348247Y491675D03*
D25*
X348320Y491823D03*
D23*
X348320Y491970D03*
X348320Y492117D03*
D22*
X348394Y492265D03*
D117*
X348247Y492412D03*
D118*
X347731Y492559D03*
D67*
X347215Y492707D03*
D119*
X346700Y492854D03*
D95*
X346258Y493001D03*
D120*
X345742Y493149D03*
D60*
X345227Y493296D03*
D97*
X344711Y493443D03*
D121*
X344195Y493591D03*
D122*
X259040Y308610D02*
X259040Y306110D01*
X259040Y308610D02*
X259040Y311110D01*
X259040Y308610D02*
X254040Y306110D01*
X254040Y311110D02*
X259040Y308610D01*
X254040Y311110D02*
X254040Y306110D01*
X244040Y303610D02*
X244040Y313610D01*
X269040Y313610D01*
X269040Y303610D01*
X244040Y303610D01*
D123*
X227882Y306963D02*
X227882Y316361D01*
X230493Y316361D01*
X230593Y316359D01*
X230693Y316353D01*
X230792Y316344D01*
X230892Y316330D01*
X230990Y316313D01*
X231088Y316292D01*
X231185Y316268D01*
X231281Y316239D01*
X231376Y316207D01*
X231469Y316172D01*
X231561Y316133D01*
X231652Y316090D01*
X231740Y316044D01*
X231827Y315994D01*
X231912Y315942D01*
X231995Y315886D01*
X232076Y315827D01*
X232154Y315764D01*
X232230Y315699D01*
X232304Y315631D01*
X232374Y315561D01*
X232442Y315487D01*
X232507Y315411D01*
X232570Y315333D01*
X232629Y315252D01*
X232685Y315169D01*
X232737Y315084D01*
X232787Y314997D01*
X232833Y314909D01*
X232876Y314818D01*
X232915Y314726D01*
X232950Y314633D01*
X232982Y314538D01*
X233011Y314442D01*
X233035Y314345D01*
X233056Y314247D01*
X233073Y314149D01*
X233087Y314049D01*
X233096Y313950D01*
X233102Y313850D01*
X233104Y313750D01*
X233103Y313750D02*
X233103Y309573D01*
X233104Y309573D02*
X233102Y309473D01*
X233096Y309373D01*
X233087Y309274D01*
X233073Y309174D01*
X233056Y309076D01*
X233035Y308978D01*
X233011Y308881D01*
X232982Y308785D01*
X232950Y308690D01*
X232915Y308597D01*
X232876Y308505D01*
X232833Y308414D01*
X232787Y308326D01*
X232737Y308239D01*
X232685Y308154D01*
X232629Y308071D01*
X232570Y307990D01*
X232507Y307912D01*
X232442Y307836D01*
X232374Y307762D01*
X232304Y307692D01*
X232230Y307624D01*
X232154Y307559D01*
X232076Y307496D01*
X231995Y307437D01*
X231912Y307381D01*
X231827Y307329D01*
X231740Y307279D01*
X231652Y307233D01*
X231561Y307190D01*
X231469Y307151D01*
X231376Y307116D01*
X231281Y307084D01*
X231185Y307055D01*
X231088Y307031D01*
X230990Y307010D01*
X230892Y306993D01*
X230792Y306979D01*
X230693Y306970D01*
X230593Y306964D01*
X230493Y306962D01*
X230493Y306963D02*
X227882Y306963D01*
X237331Y314272D02*
X239942Y316361D01*
X239942Y306963D01*
X242552Y306963D02*
X237331Y306963D01*
X434901Y290932D02*
X444299Y290932D01*
X434901Y290932D02*
X434901Y295109D01*
X439078Y295109D02*
X439078Y290932D01*
X439078Y298971D02*
X439078Y301581D01*
X439077Y301581D02*
X439079Y301682D01*
X439085Y301783D01*
X439095Y301884D01*
X439108Y301984D01*
X439126Y302084D01*
X439147Y302183D01*
X439173Y302281D01*
X439202Y302378D01*
X439234Y302474D01*
X439271Y302568D01*
X439311Y302661D01*
X439355Y302753D01*
X439402Y302842D01*
X439453Y302930D01*
X439507Y303016D01*
X439564Y303099D01*
X439624Y303181D01*
X439688Y303259D01*
X439754Y303336D01*
X439824Y303409D01*
X439896Y303480D01*
X439971Y303548D01*
X440049Y303613D01*
X440129Y303675D01*
X440211Y303734D01*
X440296Y303790D01*
X440383Y303842D01*
X440471Y303891D01*
X440562Y303937D01*
X440654Y303978D01*
X440748Y304017D01*
X440843Y304051D01*
X440939Y304082D01*
X441037Y304109D01*
X441135Y304133D01*
X441235Y304152D01*
X441335Y304168D01*
X441435Y304180D01*
X441536Y304188D01*
X441637Y304192D01*
X441739Y304192D01*
X441840Y304188D01*
X441941Y304180D01*
X442041Y304168D01*
X442141Y304152D01*
X442241Y304133D01*
X442339Y304109D01*
X442437Y304082D01*
X442533Y304051D01*
X442628Y304017D01*
X442722Y303978D01*
X442814Y303937D01*
X442905Y303891D01*
X442994Y303842D01*
X443080Y303790D01*
X443165Y303734D01*
X443247Y303675D01*
X443327Y303613D01*
X443405Y303548D01*
X443480Y303480D01*
X443552Y303409D01*
X443622Y303336D01*
X443688Y303259D01*
X443752Y303181D01*
X443812Y303099D01*
X443869Y303016D01*
X443923Y302930D01*
X443974Y302842D01*
X444021Y302753D01*
X444065Y302661D01*
X444105Y302568D01*
X444142Y302474D01*
X444174Y302378D01*
X444203Y302281D01*
X444229Y302183D01*
X444250Y302084D01*
X444268Y301984D01*
X444281Y301884D01*
X444291Y301783D01*
X444297Y301682D01*
X444299Y301581D01*
X444299Y298971D01*
X434901Y298971D01*
X434901Y301581D01*
X434903Y301671D01*
X434909Y301760D01*
X434918Y301850D01*
X434932Y301939D01*
X434949Y302027D01*
X434970Y302114D01*
X434995Y302201D01*
X435024Y302286D01*
X435056Y302370D01*
X435091Y302452D01*
X435131Y302533D01*
X435173Y302612D01*
X435219Y302689D01*
X435269Y302764D01*
X435321Y302837D01*
X435377Y302908D01*
X435435Y302976D01*
X435497Y303041D01*
X435561Y303104D01*
X435628Y303164D01*
X435697Y303221D01*
X435769Y303275D01*
X435843Y303326D01*
X435919Y303374D01*
X435997Y303418D01*
X436077Y303459D01*
X436159Y303497D01*
X436242Y303531D01*
X436327Y303561D01*
X436413Y303588D01*
X436499Y303611D01*
X436587Y303630D01*
X436676Y303645D01*
X436765Y303657D01*
X436854Y303665D01*
X436944Y303669D01*
X437034Y303669D01*
X437124Y303665D01*
X437213Y303657D01*
X437302Y303645D01*
X437391Y303630D01*
X437479Y303611D01*
X437565Y303588D01*
X437651Y303561D01*
X437736Y303531D01*
X437819Y303497D01*
X437901Y303459D01*
X437981Y303418D01*
X438059Y303374D01*
X438135Y303326D01*
X438209Y303275D01*
X438281Y303221D01*
X438350Y303164D01*
X438417Y303104D01*
X438481Y303041D01*
X438543Y302976D01*
X438601Y302908D01*
X438657Y302837D01*
X438709Y302764D01*
X438759Y302689D01*
X438805Y302612D01*
X438847Y302533D01*
X438887Y302452D01*
X438922Y302370D01*
X438954Y302286D01*
X438983Y302201D01*
X439008Y302114D01*
X439029Y302027D01*
X439046Y301939D01*
X439060Y301850D01*
X439069Y301760D01*
X439075Y301671D01*
X439077Y301581D01*
X436989Y307679D02*
X434901Y310289D01*
X444299Y310289D01*
X444299Y307679D02*
X444299Y312900D01*
X264669Y319277D02*
X255271Y319277D01*
X255271Y321888D01*
X255273Y321989D01*
X255279Y322090D01*
X255289Y322191D01*
X255302Y322291D01*
X255320Y322391D01*
X255341Y322490D01*
X255367Y322588D01*
X255396Y322685D01*
X255428Y322781D01*
X255465Y322875D01*
X255505Y322968D01*
X255549Y323060D01*
X255596Y323149D01*
X255647Y323237D01*
X255701Y323323D01*
X255758Y323406D01*
X255818Y323488D01*
X255882Y323566D01*
X255948Y323643D01*
X256018Y323716D01*
X256090Y323787D01*
X256165Y323855D01*
X256243Y323920D01*
X256323Y323982D01*
X256405Y324041D01*
X256490Y324097D01*
X256577Y324149D01*
X256665Y324198D01*
X256756Y324244D01*
X256848Y324285D01*
X256942Y324324D01*
X257037Y324358D01*
X257133Y324389D01*
X257231Y324416D01*
X257329Y324440D01*
X257429Y324459D01*
X257529Y324475D01*
X257629Y324487D01*
X257730Y324495D01*
X257831Y324499D01*
X257933Y324499D01*
X258034Y324495D01*
X258135Y324487D01*
X258235Y324475D01*
X258335Y324459D01*
X258435Y324440D01*
X258533Y324416D01*
X258631Y324389D01*
X258727Y324358D01*
X258822Y324324D01*
X258916Y324285D01*
X259008Y324244D01*
X259099Y324198D01*
X259188Y324149D01*
X259274Y324097D01*
X259359Y324041D01*
X259441Y323982D01*
X259521Y323920D01*
X259599Y323855D01*
X259674Y323787D01*
X259746Y323716D01*
X259816Y323643D01*
X259882Y323566D01*
X259946Y323488D01*
X260006Y323406D01*
X260063Y323323D01*
X260117Y323237D01*
X260168Y323149D01*
X260215Y323060D01*
X260259Y322968D01*
X260299Y322875D01*
X260336Y322781D01*
X260368Y322685D01*
X260397Y322588D01*
X260423Y322490D01*
X260444Y322391D01*
X260462Y322291D01*
X260475Y322191D01*
X260485Y322090D01*
X260491Y321989D01*
X260493Y321888D01*
X260492Y321888D02*
X260492Y319277D01*
X260492Y322410D02*
X264669Y324498D01*
X257360Y328364D02*
X255271Y330974D01*
X264669Y330974D01*
X264669Y328364D02*
X264669Y333585D01*
D11*
X237312Y345685D02*
X233361Y345685D01*
X233237Y345687D01*
X233113Y345693D01*
X232989Y345703D01*
X232866Y345716D01*
X232743Y345734D01*
X232621Y345755D01*
X232499Y345780D01*
X232378Y345809D01*
X232259Y345842D01*
X232140Y345878D01*
X232023Y345919D01*
X231907Y345962D01*
X231792Y346010D01*
X231679Y346061D01*
X231567Y346116D01*
X231458Y346174D01*
X231350Y346235D01*
X231244Y346300D01*
X231140Y346368D01*
X231039Y346440D01*
X230939Y346514D01*
X230843Y346592D01*
X230748Y346672D01*
X230656Y346756D01*
X230567Y346842D01*
X230481Y346931D01*
X230397Y347023D01*
X230317Y347118D01*
X230239Y347214D01*
X230165Y347314D01*
X230093Y347415D01*
X230025Y347519D01*
X229960Y347625D01*
X229899Y347733D01*
X229841Y347842D01*
X229786Y347954D01*
X229735Y348067D01*
X229687Y348182D01*
X229644Y348298D01*
X229603Y348415D01*
X229567Y348534D01*
X229534Y348653D01*
X229505Y348774D01*
X229480Y348896D01*
X229459Y349018D01*
X229441Y349141D01*
X229428Y349264D01*
X229418Y349388D01*
X229412Y349512D01*
X229410Y349636D01*
X229410Y359514D01*
X229412Y359638D01*
X229418Y359762D01*
X229428Y359886D01*
X229441Y360009D01*
X229459Y360132D01*
X229480Y360254D01*
X229505Y360376D01*
X229534Y360497D01*
X229567Y360616D01*
X229603Y360735D01*
X229644Y360852D01*
X229687Y360968D01*
X229735Y361083D01*
X229786Y361196D01*
X229841Y361308D01*
X229899Y361417D01*
X229960Y361525D01*
X230025Y361631D01*
X230093Y361735D01*
X230165Y361836D01*
X230239Y361936D01*
X230317Y362032D01*
X230397Y362127D01*
X230481Y362219D01*
X230567Y362308D01*
X230656Y362394D01*
X230748Y362478D01*
X230843Y362558D01*
X230939Y362636D01*
X231039Y362710D01*
X231140Y362782D01*
X231244Y362850D01*
X231350Y362915D01*
X231458Y362976D01*
X231567Y363034D01*
X231679Y363089D01*
X231792Y363140D01*
X231907Y363188D01*
X232023Y363231D01*
X232140Y363272D01*
X232259Y363308D01*
X232378Y363341D01*
X232499Y363370D01*
X232621Y363395D01*
X232743Y363416D01*
X232866Y363434D01*
X232989Y363447D01*
X233113Y363457D01*
X233237Y363463D01*
X233361Y363465D01*
X237312Y363465D01*
X228511Y337705D02*
X228511Y319925D01*
X228511Y337705D02*
X233450Y337705D01*
X233589Y337703D01*
X233727Y337697D01*
X233865Y337688D01*
X234003Y337674D01*
X234140Y337657D01*
X234277Y337635D01*
X234414Y337610D01*
X234549Y337581D01*
X234684Y337548D01*
X234817Y337512D01*
X234950Y337472D01*
X235081Y337428D01*
X235211Y337380D01*
X235340Y337329D01*
X235467Y337274D01*
X235593Y337216D01*
X235717Y337154D01*
X235839Y337089D01*
X235959Y337020D01*
X236078Y336948D01*
X236194Y336873D01*
X236308Y336794D01*
X236420Y336712D01*
X236529Y336627D01*
X236637Y336540D01*
X236741Y336449D01*
X236843Y336355D01*
X236942Y336258D01*
X237039Y336159D01*
X237133Y336057D01*
X237224Y335953D01*
X237311Y335845D01*
X237396Y335736D01*
X237478Y335624D01*
X237557Y335510D01*
X237632Y335394D01*
X237704Y335275D01*
X237773Y335155D01*
X237838Y335033D01*
X237900Y334909D01*
X237958Y334783D01*
X238013Y334656D01*
X238064Y334527D01*
X238112Y334397D01*
X238156Y334266D01*
X238196Y334133D01*
X238232Y334000D01*
X238265Y333865D01*
X238294Y333730D01*
X238319Y333593D01*
X238341Y333456D01*
X238358Y333319D01*
X238372Y333181D01*
X238381Y333043D01*
X238387Y332905D01*
X238389Y332766D01*
X238389Y324863D01*
X238387Y324724D01*
X238381Y324586D01*
X238372Y324448D01*
X238358Y324310D01*
X238341Y324173D01*
X238319Y324036D01*
X238294Y323899D01*
X238265Y323764D01*
X238232Y323629D01*
X238196Y323496D01*
X238156Y323363D01*
X238112Y323232D01*
X238064Y323102D01*
X238013Y322973D01*
X237958Y322846D01*
X237900Y322720D01*
X237838Y322596D01*
X237773Y322474D01*
X237704Y322354D01*
X237632Y322235D01*
X237557Y322119D01*
X237478Y322005D01*
X237396Y321893D01*
X237311Y321784D01*
X237224Y321676D01*
X237133Y321572D01*
X237039Y321470D01*
X236942Y321371D01*
X236843Y321274D01*
X236741Y321180D01*
X236637Y321089D01*
X236529Y321002D01*
X236420Y320917D01*
X236308Y320835D01*
X236194Y320756D01*
X236078Y320681D01*
X235959Y320609D01*
X235839Y320540D01*
X235717Y320475D01*
X235593Y320413D01*
X235467Y320355D01*
X235340Y320300D01*
X235211Y320249D01*
X235081Y320201D01*
X234950Y320157D01*
X234817Y320117D01*
X234684Y320081D01*
X234549Y320048D01*
X234414Y320019D01*
X234277Y319994D01*
X234140Y319972D01*
X234003Y319955D01*
X233865Y319941D01*
X233727Y319932D01*
X233589Y319926D01*
X233450Y319924D01*
X233450Y319925D02*
X228511Y319925D01*
X469748Y333436D02*
X469748Y338375D01*
X469750Y338515D01*
X469756Y338654D01*
X469766Y338794D01*
X469780Y338933D01*
X469797Y339072D01*
X469819Y339210D01*
X469845Y339347D01*
X469874Y339484D01*
X469907Y339620D01*
X469944Y339754D01*
X469985Y339888D01*
X470030Y340020D01*
X470079Y340152D01*
X470131Y340281D01*
X470186Y340409D01*
X470246Y340536D01*
X470309Y340661D01*
X470375Y340784D01*
X470445Y340905D01*
X470518Y341024D01*
X470595Y341141D01*
X470675Y341255D01*
X470758Y341368D01*
X470844Y341478D01*
X470934Y341585D01*
X471026Y341690D01*
X471121Y341792D01*
X471219Y341892D01*
X471320Y341989D01*
X471424Y342083D01*
X471530Y342173D01*
X471639Y342261D01*
X471750Y342346D01*
X471864Y342427D01*
X471979Y342506D01*
X472097Y342581D01*
X472218Y342652D01*
X472340Y342720D01*
X472463Y342785D01*
X472589Y342846D01*
X472717Y342904D01*
X472845Y342958D01*
X472976Y343008D01*
X473108Y343055D01*
X473241Y343098D01*
X473375Y343137D01*
X473510Y343172D01*
X473646Y343203D01*
X473784Y343231D01*
X473921Y343254D01*
X474060Y343274D01*
X474199Y343290D01*
X474338Y343302D01*
X474477Y343310D01*
X474617Y343314D01*
X474757Y343314D01*
X474897Y343310D01*
X475036Y343302D01*
X475175Y343290D01*
X475314Y343274D01*
X475453Y343254D01*
X475590Y343231D01*
X475728Y343203D01*
X475864Y343172D01*
X475999Y343137D01*
X476133Y343098D01*
X476266Y343055D01*
X476398Y343008D01*
X476529Y342958D01*
X476657Y342904D01*
X476785Y342846D01*
X476911Y342785D01*
X477034Y342720D01*
X477157Y342652D01*
X477277Y342581D01*
X477395Y342506D01*
X477510Y342427D01*
X477624Y342346D01*
X477735Y342261D01*
X477844Y342173D01*
X477950Y342083D01*
X478054Y341989D01*
X478155Y341892D01*
X478253Y341792D01*
X478348Y341690D01*
X478440Y341585D01*
X478530Y341478D01*
X478616Y341368D01*
X478699Y341255D01*
X478779Y341141D01*
X478856Y341024D01*
X478929Y340905D01*
X478999Y340784D01*
X479065Y340661D01*
X479128Y340536D01*
X479188Y340409D01*
X479243Y340281D01*
X479295Y340152D01*
X479344Y340020D01*
X479389Y339888D01*
X479430Y339754D01*
X479467Y339620D01*
X479500Y339484D01*
X479529Y339347D01*
X479555Y339210D01*
X479577Y339072D01*
X479594Y338933D01*
X479608Y338794D01*
X479618Y338654D01*
X479624Y338515D01*
X479626Y338375D01*
X479626Y333436D01*
X461846Y333436D01*
X461846Y338375D01*
X461848Y338499D01*
X461854Y338623D01*
X461864Y338747D01*
X461877Y338870D01*
X461895Y338993D01*
X461916Y339115D01*
X461941Y339237D01*
X461970Y339358D01*
X462003Y339477D01*
X462039Y339596D01*
X462080Y339713D01*
X462123Y339829D01*
X462171Y339944D01*
X462222Y340057D01*
X462277Y340169D01*
X462335Y340278D01*
X462396Y340386D01*
X462461Y340492D01*
X462529Y340596D01*
X462601Y340697D01*
X462675Y340797D01*
X462753Y340893D01*
X462833Y340988D01*
X462917Y341080D01*
X463003Y341169D01*
X463092Y341255D01*
X463184Y341339D01*
X463279Y341419D01*
X463375Y341497D01*
X463475Y341571D01*
X463576Y341643D01*
X463680Y341711D01*
X463786Y341776D01*
X463894Y341837D01*
X464003Y341895D01*
X464115Y341950D01*
X464228Y342001D01*
X464343Y342049D01*
X464459Y342092D01*
X464576Y342133D01*
X464695Y342169D01*
X464814Y342202D01*
X464935Y342231D01*
X465057Y342256D01*
X465179Y342277D01*
X465302Y342295D01*
X465425Y342308D01*
X465549Y342318D01*
X465673Y342324D01*
X465797Y342326D01*
X465921Y342324D01*
X466045Y342318D01*
X466169Y342308D01*
X466292Y342295D01*
X466415Y342277D01*
X466537Y342256D01*
X466659Y342231D01*
X466780Y342202D01*
X466899Y342169D01*
X467018Y342133D01*
X467135Y342092D01*
X467251Y342049D01*
X467366Y342001D01*
X467479Y341950D01*
X467591Y341895D01*
X467700Y341837D01*
X467808Y341776D01*
X467914Y341711D01*
X468018Y341643D01*
X468119Y341571D01*
X468219Y341497D01*
X468315Y341419D01*
X468410Y341339D01*
X468502Y341255D01*
X468591Y341169D01*
X468677Y341080D01*
X468761Y340988D01*
X468841Y340893D01*
X468919Y340797D01*
X468993Y340697D01*
X469065Y340596D01*
X469133Y340492D01*
X469198Y340386D01*
X469259Y340278D01*
X469317Y340169D01*
X469372Y340057D01*
X469423Y339944D01*
X469471Y339829D01*
X469514Y339713D01*
X469555Y339596D01*
X469591Y339477D01*
X469624Y339358D01*
X469653Y339237D01*
X469678Y339115D01*
X469699Y338993D01*
X469717Y338870D01*
X469730Y338747D01*
X469740Y338623D01*
X469746Y338499D01*
X469748Y338375D01*
X481089Y327637D02*
X481089Y309857D01*
X481089Y327637D02*
X486028Y327637D01*
X486168Y327635D01*
X486307Y327629D01*
X486447Y327619D01*
X486586Y327605D01*
X486725Y327588D01*
X486863Y327566D01*
X487000Y327540D01*
X487137Y327511D01*
X487273Y327478D01*
X487407Y327441D01*
X487541Y327400D01*
X487673Y327355D01*
X487805Y327306D01*
X487934Y327254D01*
X488062Y327199D01*
X488189Y327139D01*
X488314Y327076D01*
X488437Y327010D01*
X488558Y326940D01*
X488677Y326867D01*
X488794Y326790D01*
X488908Y326710D01*
X489021Y326627D01*
X489131Y326541D01*
X489238Y326451D01*
X489343Y326359D01*
X489445Y326264D01*
X489545Y326166D01*
X489642Y326065D01*
X489736Y325961D01*
X489826Y325855D01*
X489914Y325746D01*
X489999Y325635D01*
X490080Y325521D01*
X490159Y325406D01*
X490234Y325288D01*
X490305Y325168D01*
X490373Y325045D01*
X490438Y324922D01*
X490499Y324796D01*
X490557Y324668D01*
X490611Y324540D01*
X490661Y324409D01*
X490708Y324277D01*
X490751Y324144D01*
X490790Y324010D01*
X490825Y323875D01*
X490856Y323739D01*
X490884Y323601D01*
X490907Y323464D01*
X490927Y323325D01*
X490943Y323186D01*
X490955Y323047D01*
X490963Y322908D01*
X490967Y322768D01*
X490967Y322628D01*
X490963Y322488D01*
X490955Y322349D01*
X490943Y322210D01*
X490927Y322071D01*
X490907Y321932D01*
X490884Y321795D01*
X490856Y321657D01*
X490825Y321521D01*
X490790Y321386D01*
X490751Y321252D01*
X490708Y321119D01*
X490661Y320987D01*
X490611Y320856D01*
X490557Y320728D01*
X490499Y320600D01*
X490438Y320474D01*
X490373Y320351D01*
X490305Y320229D01*
X490234Y320108D01*
X490159Y319990D01*
X490080Y319875D01*
X489999Y319761D01*
X489914Y319650D01*
X489826Y319541D01*
X489736Y319435D01*
X489642Y319331D01*
X489545Y319230D01*
X489445Y319132D01*
X489343Y319037D01*
X489238Y318945D01*
X489131Y318855D01*
X489021Y318769D01*
X488908Y318686D01*
X488794Y318606D01*
X488677Y318529D01*
X488558Y318456D01*
X488437Y318386D01*
X488314Y318320D01*
X488189Y318257D01*
X488062Y318197D01*
X487934Y318142D01*
X487805Y318090D01*
X487673Y318041D01*
X487541Y317996D01*
X487407Y317955D01*
X487273Y317918D01*
X487137Y317885D01*
X487000Y317856D01*
X486863Y317830D01*
X486725Y317808D01*
X486586Y317791D01*
X486447Y317777D01*
X486307Y317767D01*
X486168Y317761D01*
X486028Y317759D01*
X481089Y317759D01*
X487015Y317759D02*
X490966Y309857D01*
D124*
X273230Y346890D02*
X199618Y389390D01*
X260268Y494439D02*
X333880Y451939D01*
X273230Y346890D01*
X199618Y389390D02*
X260268Y494439D01*
D125*
G36*
X333997Y453141D02*
X272498Y346621D01*
X263837Y351621D01*
X325336Y458141D01*
X333997Y453141D01*
G37*
D123*
X292150Y479949D02*
X296849Y488088D01*
X299109Y486783D01*
X299110Y486783D02*
X299196Y486731D01*
X299281Y486675D01*
X299363Y486616D01*
X299443Y486554D01*
X299521Y486489D01*
X299596Y486421D01*
X299668Y486350D01*
X299738Y486277D01*
X299804Y486200D01*
X299868Y486121D01*
X299928Y486040D01*
X299985Y485957D01*
X300039Y485871D01*
X300090Y485783D01*
X300137Y485694D01*
X300181Y485602D01*
X300221Y485509D01*
X300258Y485415D01*
X300290Y485319D01*
X300319Y485222D01*
X300345Y485124D01*
X300366Y485025D01*
X300384Y484925D01*
X300397Y484825D01*
X300407Y484724D01*
X300413Y484623D01*
X300415Y484522D01*
X300413Y484421D01*
X300407Y484320D01*
X300397Y484219D01*
X300384Y484119D01*
X300366Y484019D01*
X300345Y483920D01*
X300319Y483822D01*
X300290Y483725D01*
X300258Y483629D01*
X300221Y483535D01*
X300181Y483442D01*
X300137Y483350D01*
X300090Y483261D01*
X300039Y483173D01*
X299985Y483087D01*
X299928Y483004D01*
X299868Y482922D01*
X299804Y482844D01*
X299738Y482767D01*
X299668Y482694D01*
X299596Y482623D01*
X299521Y482555D01*
X299443Y482490D01*
X299363Y482428D01*
X299281Y482369D01*
X299196Y482313D01*
X299109Y482261D01*
X299021Y482212D01*
X298930Y482166D01*
X298838Y482125D01*
X298744Y482086D01*
X298649Y482052D01*
X298553Y482021D01*
X298455Y481994D01*
X298357Y481970D01*
X298257Y481951D01*
X298157Y481935D01*
X298057Y481923D01*
X297956Y481915D01*
X297855Y481911D01*
X297753Y481911D01*
X297652Y481915D01*
X297551Y481923D01*
X297451Y481935D01*
X297351Y481951D01*
X297251Y481970D01*
X297153Y481994D01*
X297055Y482021D01*
X296959Y482052D01*
X296864Y482086D01*
X296770Y482125D01*
X296678Y482166D01*
X296587Y482212D01*
X296498Y482261D01*
X296499Y482261D02*
X294238Y483566D01*
X306877Y482299D02*
X306958Y482250D01*
X307037Y482198D01*
X307114Y482143D01*
X307188Y482084D01*
X307260Y482023D01*
X307330Y481959D01*
X307397Y481892D01*
X307461Y481822D01*
X307522Y481750D01*
X307581Y481676D01*
X307636Y481599D01*
X307688Y481520D01*
X307737Y481439D01*
X307783Y481356D01*
X307825Y481271D01*
X307864Y481185D01*
X307899Y481097D01*
X307931Y481008D01*
X307959Y480918D01*
X307984Y480826D01*
X308005Y480734D01*
X308022Y480641D01*
X308035Y480547D01*
X308044Y480453D01*
X308050Y480359D01*
X308052Y480264D01*
X308050Y480169D01*
X308044Y480075D01*
X308035Y479981D01*
X308022Y479887D01*
X308005Y479794D01*
X307984Y479702D01*
X307959Y479610D01*
X307931Y479520D01*
X307899Y479431D01*
X307864Y479343D01*
X307825Y479257D01*
X307783Y479172D01*
X307737Y479089D01*
X306877Y482298D02*
X306782Y482350D01*
X306685Y482399D01*
X306587Y482445D01*
X306487Y482487D01*
X306386Y482525D01*
X306283Y482560D01*
X306179Y482591D01*
X306074Y482618D01*
X305968Y482642D01*
X305862Y482661D01*
X305754Y482677D01*
X305647Y482689D01*
X305538Y482697D01*
X305430Y482701D01*
X305322Y482702D01*
X305213Y482698D01*
X305105Y482691D01*
X304997Y482679D01*
X304890Y482664D01*
X304783Y482645D01*
X304677Y482622D01*
X304572Y482595D01*
X304468Y482565D01*
X304365Y482530D01*
X304263Y482493D01*
X304163Y482451D01*
X304065Y482406D01*
X303968Y482357D01*
X303873Y482305D01*
X303779Y482250D01*
X303688Y482191D01*
X303599Y482129D01*
X303513Y482064D01*
X303428Y481996D01*
X303346Y481925D01*
X306145Y477898D02*
X306239Y477923D01*
X306332Y477951D01*
X306424Y477983D01*
X306514Y478018D01*
X306604Y478057D01*
X306691Y478099D01*
X306777Y478145D01*
X306861Y478194D01*
X306944Y478246D01*
X307024Y478301D01*
X307102Y478360D01*
X307177Y478421D01*
X307250Y478485D01*
X307321Y478552D01*
X307389Y478621D01*
X307455Y478694D01*
X307517Y478768D01*
X307577Y478845D01*
X307633Y478924D01*
X307687Y479006D01*
X307737Y479089D01*
X306145Y477898D02*
X299691Y475595D01*
X304213Y472985D01*
D124*
X359355Y451330D02*
X432967Y493830D01*
X493617Y388781D02*
X420005Y346281D01*
X359355Y451330D01*
X432967Y493830D02*
X493617Y388781D01*
D125*
G36*
X420987Y345579D02*
X359488Y452099D01*
X368149Y457099D01*
X429648Y350579D01*
X420987Y345579D01*
G37*
D123*
X390897Y472422D02*
X386198Y480561D01*
X388459Y481866D01*
X388458Y481866D02*
X388547Y481915D01*
X388638Y481961D01*
X388730Y482002D01*
X388824Y482041D01*
X388919Y482075D01*
X389015Y482106D01*
X389113Y482133D01*
X389211Y482157D01*
X389311Y482176D01*
X389411Y482192D01*
X389511Y482204D01*
X389612Y482212D01*
X389713Y482216D01*
X389815Y482216D01*
X389916Y482212D01*
X390017Y482204D01*
X390117Y482192D01*
X390217Y482176D01*
X390317Y482157D01*
X390415Y482133D01*
X390513Y482106D01*
X390609Y482075D01*
X390704Y482041D01*
X390798Y482002D01*
X390890Y481961D01*
X390981Y481915D01*
X391069Y481866D01*
X391156Y481814D01*
X391241Y481758D01*
X391323Y481699D01*
X391403Y481637D01*
X391481Y481572D01*
X391556Y481504D01*
X391628Y481433D01*
X391698Y481360D01*
X391764Y481283D01*
X391828Y481205D01*
X391888Y481123D01*
X391945Y481040D01*
X391999Y480954D01*
X392050Y480866D01*
X392097Y480777D01*
X392141Y480685D01*
X392181Y480592D01*
X392218Y480498D01*
X392250Y480402D01*
X392279Y480305D01*
X392305Y480207D01*
X392326Y480108D01*
X392344Y480008D01*
X392357Y479908D01*
X392367Y479807D01*
X392373Y479706D01*
X392375Y479605D01*
X392373Y479504D01*
X392367Y479403D01*
X392357Y479302D01*
X392344Y479202D01*
X392326Y479102D01*
X392305Y479003D01*
X392279Y478905D01*
X392250Y478808D01*
X392218Y478712D01*
X392181Y478618D01*
X392141Y478525D01*
X392097Y478433D01*
X392050Y478344D01*
X391999Y478256D01*
X391945Y478170D01*
X391888Y478087D01*
X391828Y478006D01*
X391764Y477927D01*
X391698Y477850D01*
X391628Y477777D01*
X391556Y477706D01*
X391481Y477638D01*
X391403Y477573D01*
X391323Y477511D01*
X391241Y477452D01*
X391156Y477396D01*
X391070Y477344D01*
X391070Y477345D02*
X388809Y476039D01*
X398439Y476776D02*
X400699Y478081D01*
X400786Y478133D01*
X400871Y478189D01*
X400953Y478248D01*
X401033Y478310D01*
X401111Y478375D01*
X401186Y478443D01*
X401258Y478514D01*
X401328Y478587D01*
X401394Y478664D01*
X401458Y478742D01*
X401518Y478824D01*
X401575Y478907D01*
X401629Y478993D01*
X401680Y479081D01*
X401727Y479170D01*
X401771Y479262D01*
X401811Y479355D01*
X401848Y479449D01*
X401880Y479545D01*
X401909Y479642D01*
X401935Y479740D01*
X401956Y479839D01*
X401974Y479939D01*
X401987Y480039D01*
X401997Y480140D01*
X402003Y480241D01*
X402005Y480342D01*
X402003Y480443D01*
X401997Y480544D01*
X401987Y480645D01*
X401974Y480745D01*
X401956Y480845D01*
X401935Y480944D01*
X401909Y481042D01*
X401880Y481139D01*
X401848Y481235D01*
X401811Y481329D01*
X401771Y481422D01*
X401727Y481514D01*
X401680Y481603D01*
X401629Y481691D01*
X401575Y481777D01*
X401518Y481860D01*
X401458Y481942D01*
X401394Y482020D01*
X401328Y482097D01*
X401258Y482170D01*
X401186Y482241D01*
X401111Y482309D01*
X401033Y482374D01*
X400953Y482436D01*
X400871Y482495D01*
X400786Y482551D01*
X400699Y482603D01*
X400611Y482652D01*
X400520Y482698D01*
X400428Y482739D01*
X400334Y482778D01*
X400239Y482812D01*
X400143Y482843D01*
X400045Y482870D01*
X399947Y482894D01*
X399847Y482913D01*
X399747Y482929D01*
X399647Y482941D01*
X399546Y482949D01*
X399445Y482953D01*
X399343Y482953D01*
X399242Y482949D01*
X399141Y482941D01*
X399041Y482929D01*
X398941Y482913D01*
X398841Y482894D01*
X398743Y482870D01*
X398645Y482843D01*
X398549Y482812D01*
X398454Y482778D01*
X398360Y482739D01*
X398268Y482698D01*
X398177Y482652D01*
X398088Y482603D01*
X396452Y486481D02*
X393740Y484915D01*
X396453Y486481D02*
X396533Y486525D01*
X396615Y486565D01*
X396698Y486602D01*
X396783Y486635D01*
X396869Y486664D01*
X396957Y486690D01*
X397045Y486712D01*
X397134Y486729D01*
X397224Y486743D01*
X397315Y486753D01*
X397406Y486759D01*
X397497Y486761D01*
X397588Y486759D01*
X397679Y486753D01*
X397770Y486743D01*
X397860Y486729D01*
X397949Y486712D01*
X398037Y486690D01*
X398125Y486664D01*
X398211Y486635D01*
X398296Y486602D01*
X398379Y486565D01*
X398461Y486525D01*
X398541Y486481D01*
X398619Y486434D01*
X398695Y486383D01*
X398768Y486330D01*
X398839Y486273D01*
X398908Y486212D01*
X398973Y486149D01*
X399036Y486084D01*
X399096Y486015D01*
X399154Y485944D01*
X399207Y485871D01*
X399258Y485795D01*
X399305Y485717D01*
X399349Y485637D01*
X399389Y485555D01*
X399426Y485472D01*
X399459Y485387D01*
X399488Y485301D01*
X399514Y485213D01*
X399536Y485125D01*
X399553Y485036D01*
X399567Y484946D01*
X399577Y484855D01*
X399583Y484764D01*
X399585Y484673D01*
X399583Y484582D01*
X399577Y484491D01*
X399567Y484400D01*
X399553Y484310D01*
X399536Y484221D01*
X399514Y484133D01*
X399488Y484045D01*
X399459Y483959D01*
X399426Y483874D01*
X399389Y483791D01*
X399349Y483709D01*
X399305Y483629D01*
X399258Y483551D01*
X399207Y483475D01*
X399154Y483402D01*
X399097Y483331D01*
X399036Y483262D01*
X398973Y483197D01*
X398908Y483134D01*
X398839Y483074D01*
X398768Y483016D01*
X398695Y482963D01*
X398619Y482912D01*
X398541Y482865D01*
X398541Y482864D02*
X396732Y481820D01*
X381835Y254381D02*
X379747Y254381D01*
X379658Y254383D01*
X379570Y254389D01*
X379482Y254398D01*
X379394Y254411D01*
X379307Y254428D01*
X379221Y254448D01*
X379136Y254473D01*
X379051Y254500D01*
X378968Y254532D01*
X378887Y254566D01*
X378807Y254605D01*
X378729Y254646D01*
X378652Y254691D01*
X378578Y254739D01*
X378505Y254790D01*
X378435Y254844D01*
X378368Y254902D01*
X378302Y254962D01*
X378240Y255024D01*
X378180Y255090D01*
X378122Y255157D01*
X378068Y255227D01*
X378017Y255300D01*
X377969Y255374D01*
X377924Y255451D01*
X377883Y255529D01*
X377844Y255609D01*
X377810Y255690D01*
X377778Y255773D01*
X377751Y255858D01*
X377726Y255943D01*
X377706Y256029D01*
X377689Y256116D01*
X377676Y256204D01*
X377667Y256292D01*
X377661Y256380D01*
X377659Y256469D01*
X377658Y256469D02*
X377658Y261691D01*
X377659Y261691D02*
X377661Y261782D01*
X377667Y261873D01*
X377677Y261964D01*
X377691Y262054D01*
X377708Y262143D01*
X377730Y262231D01*
X377756Y262319D01*
X377785Y262405D01*
X377818Y262490D01*
X377855Y262573D01*
X377895Y262655D01*
X377939Y262735D01*
X377986Y262813D01*
X378037Y262889D01*
X378090Y262962D01*
X378147Y263033D01*
X378208Y263102D01*
X378271Y263167D01*
X378336Y263230D01*
X378405Y263290D01*
X378476Y263348D01*
X378549Y263401D01*
X378625Y263452D01*
X378703Y263499D01*
X378783Y263543D01*
X378865Y263583D01*
X378948Y263620D01*
X379033Y263653D01*
X379119Y263682D01*
X379207Y263708D01*
X379295Y263730D01*
X379384Y263747D01*
X379474Y263761D01*
X379565Y263771D01*
X379656Y263777D01*
X379747Y263779D01*
X381835Y263779D01*
X385304Y261691D02*
X387914Y263779D01*
X387914Y254381D01*
X385304Y254381D02*
X390525Y254381D01*
X394448Y259080D02*
X394450Y259265D01*
X394457Y259450D01*
X394468Y259634D01*
X394483Y259818D01*
X394503Y260002D01*
X394527Y260186D01*
X394556Y260368D01*
X394589Y260550D01*
X394626Y260731D01*
X394668Y260911D01*
X394714Y261091D01*
X394764Y261269D01*
X394818Y261445D01*
X394877Y261621D01*
X394939Y261795D01*
X395006Y261967D01*
X395077Y262138D01*
X395152Y262307D01*
X395231Y262474D01*
X395230Y262474D02*
X395260Y262554D01*
X395293Y262633D01*
X395330Y262710D01*
X395370Y262786D01*
X395413Y262860D01*
X395459Y262932D01*
X395509Y263001D01*
X395561Y263069D01*
X395617Y263134D01*
X395675Y263197D01*
X395737Y263256D01*
X395800Y263314D01*
X395867Y263368D01*
X395935Y263419D01*
X396006Y263467D01*
X396079Y263512D01*
X396153Y263554D01*
X396230Y263592D01*
X396308Y263627D01*
X396387Y263659D01*
X396468Y263687D01*
X396550Y263711D01*
X396634Y263732D01*
X396717Y263749D01*
X396802Y263762D01*
X396887Y263771D01*
X396972Y263777D01*
X397058Y263779D01*
X397144Y263777D01*
X397229Y263771D01*
X397314Y263762D01*
X397399Y263749D01*
X397482Y263732D01*
X397566Y263711D01*
X397648Y263687D01*
X397729Y263659D01*
X397808Y263627D01*
X397886Y263592D01*
X397963Y263554D01*
X398037Y263512D01*
X398110Y263467D01*
X398181Y263419D01*
X398249Y263368D01*
X398316Y263314D01*
X398379Y263256D01*
X398441Y263197D01*
X398499Y263134D01*
X398555Y263069D01*
X398607Y263001D01*
X398657Y262932D01*
X398703Y262860D01*
X398746Y262786D01*
X398786Y262710D01*
X398823Y262633D01*
X398856Y262554D01*
X398886Y262474D01*
X398965Y262307D01*
X399040Y262138D01*
X399111Y261967D01*
X399178Y261795D01*
X399240Y261621D01*
X399299Y261445D01*
X399353Y261269D01*
X399403Y261091D01*
X399449Y260911D01*
X399491Y260731D01*
X399528Y260550D01*
X399561Y260368D01*
X399590Y260186D01*
X399614Y260002D01*
X399634Y259818D01*
X399649Y259634D01*
X399660Y259450D01*
X399667Y259265D01*
X399669Y259080D01*
X394448Y259080D02*
X394450Y258895D01*
X394457Y258710D01*
X394468Y258526D01*
X394483Y258342D01*
X394503Y258158D01*
X394527Y257974D01*
X394556Y257792D01*
X394589Y257610D01*
X394626Y257429D01*
X394668Y257249D01*
X394714Y257069D01*
X394764Y256891D01*
X394818Y256715D01*
X394877Y256539D01*
X394939Y256365D01*
X395006Y256193D01*
X395077Y256022D01*
X395152Y255853D01*
X395231Y255686D01*
X395230Y255686D02*
X395260Y255606D01*
X395293Y255527D01*
X395330Y255450D01*
X395370Y255374D01*
X395413Y255300D01*
X395459Y255228D01*
X395509Y255159D01*
X395562Y255091D01*
X395617Y255026D01*
X395676Y254963D01*
X395737Y254904D01*
X395800Y254846D01*
X395867Y254792D01*
X395935Y254741D01*
X396006Y254693D01*
X396079Y254648D01*
X396153Y254606D01*
X396230Y254568D01*
X396308Y254533D01*
X396387Y254501D01*
X396468Y254473D01*
X396550Y254449D01*
X396634Y254428D01*
X396717Y254411D01*
X396802Y254398D01*
X396887Y254389D01*
X396972Y254383D01*
X397058Y254381D01*
X398886Y255686D02*
X398965Y255853D01*
X399040Y256022D01*
X399111Y256193D01*
X399178Y256365D01*
X399240Y256539D01*
X399299Y256715D01*
X399353Y256891D01*
X399403Y257069D01*
X399449Y257249D01*
X399491Y257429D01*
X399528Y257610D01*
X399561Y257792D01*
X399590Y257974D01*
X399614Y258158D01*
X399634Y258342D01*
X399649Y258526D01*
X399660Y258710D01*
X399667Y258895D01*
X399669Y259080D01*
X398886Y255686D02*
X398856Y255606D01*
X398823Y255527D01*
X398786Y255450D01*
X398746Y255374D01*
X398703Y255300D01*
X398657Y255228D01*
X398607Y255159D01*
X398555Y255091D01*
X398499Y255026D01*
X398441Y254963D01*
X398379Y254904D01*
X398316Y254846D01*
X398249Y254792D01*
X398181Y254741D01*
X398110Y254693D01*
X398037Y254648D01*
X397963Y254606D01*
X397886Y254568D01*
X397808Y254533D01*
X397729Y254501D01*
X397648Y254473D01*
X397566Y254449D01*
X397482Y254428D01*
X397399Y254411D01*
X397314Y254398D01*
X397229Y254389D01*
X397144Y254383D01*
X397058Y254381D01*
X394970Y256469D02*
X399147Y261691D01*
X442849Y257375D02*
X442849Y255287D01*
X442847Y255198D01*
X442841Y255110D01*
X442832Y255022D01*
X442819Y254934D01*
X442802Y254847D01*
X442782Y254761D01*
X442757Y254676D01*
X442730Y254591D01*
X442698Y254508D01*
X442664Y254427D01*
X442625Y254347D01*
X442584Y254269D01*
X442539Y254192D01*
X442491Y254118D01*
X442440Y254045D01*
X442386Y253975D01*
X442328Y253908D01*
X442268Y253842D01*
X442206Y253780D01*
X442140Y253720D01*
X442073Y253662D01*
X442003Y253608D01*
X441930Y253557D01*
X441856Y253509D01*
X441779Y253464D01*
X441701Y253423D01*
X441621Y253384D01*
X441540Y253350D01*
X441457Y253318D01*
X441372Y253291D01*
X441287Y253266D01*
X441201Y253246D01*
X441114Y253229D01*
X441026Y253216D01*
X440938Y253207D01*
X440850Y253201D01*
X440761Y253199D01*
X440761Y253198D02*
X435539Y253198D01*
X435448Y253200D01*
X435357Y253206D01*
X435266Y253216D01*
X435176Y253230D01*
X435087Y253248D01*
X434998Y253269D01*
X434911Y253295D01*
X434825Y253324D01*
X434740Y253357D01*
X434656Y253394D01*
X434574Y253434D01*
X434495Y253478D01*
X434417Y253525D01*
X434341Y253576D01*
X434267Y253630D01*
X434196Y253687D01*
X434128Y253747D01*
X434062Y253810D01*
X433999Y253876D01*
X433939Y253944D01*
X433882Y254015D01*
X433828Y254089D01*
X433777Y254165D01*
X433730Y254242D01*
X433686Y254322D01*
X433646Y254404D01*
X433609Y254488D01*
X433576Y254572D01*
X433547Y254659D01*
X433521Y254746D01*
X433500Y254835D01*
X433482Y254924D01*
X433468Y255014D01*
X433458Y255105D01*
X433452Y255196D01*
X433450Y255287D01*
X433451Y255287D02*
X433451Y257375D01*
X435539Y260844D02*
X433451Y263454D01*
X442849Y263454D01*
X442849Y260844D02*
X442849Y266065D01*
X435539Y269988D02*
X433451Y272598D01*
X442849Y272598D01*
X442849Y269988D02*
X442849Y275209D01*
X430149Y257375D02*
X430149Y255287D01*
X430147Y255198D01*
X430141Y255110D01*
X430132Y255022D01*
X430119Y254934D01*
X430102Y254847D01*
X430082Y254761D01*
X430057Y254676D01*
X430030Y254591D01*
X429998Y254508D01*
X429964Y254427D01*
X429925Y254347D01*
X429884Y254269D01*
X429839Y254192D01*
X429791Y254118D01*
X429740Y254045D01*
X429686Y253975D01*
X429628Y253908D01*
X429568Y253842D01*
X429506Y253780D01*
X429440Y253720D01*
X429373Y253662D01*
X429303Y253608D01*
X429230Y253557D01*
X429156Y253509D01*
X429079Y253464D01*
X429001Y253423D01*
X428921Y253384D01*
X428840Y253350D01*
X428757Y253318D01*
X428672Y253291D01*
X428587Y253266D01*
X428501Y253246D01*
X428414Y253229D01*
X428326Y253216D01*
X428238Y253207D01*
X428150Y253201D01*
X428061Y253199D01*
X428061Y253198D02*
X422839Y253198D01*
X422748Y253200D01*
X422657Y253206D01*
X422566Y253216D01*
X422476Y253230D01*
X422387Y253248D01*
X422298Y253269D01*
X422211Y253295D01*
X422125Y253324D01*
X422040Y253357D01*
X421956Y253394D01*
X421874Y253434D01*
X421795Y253478D01*
X421717Y253525D01*
X421641Y253576D01*
X421567Y253630D01*
X421496Y253687D01*
X421428Y253747D01*
X421362Y253810D01*
X421299Y253876D01*
X421239Y253944D01*
X421182Y254015D01*
X421128Y254089D01*
X421077Y254165D01*
X421030Y254242D01*
X420986Y254322D01*
X420946Y254404D01*
X420909Y254488D01*
X420876Y254572D01*
X420847Y254659D01*
X420821Y254746D01*
X420800Y254835D01*
X420782Y254924D01*
X420768Y255014D01*
X420758Y255105D01*
X420752Y255196D01*
X420750Y255287D01*
X420751Y255287D02*
X420751Y257375D01*
X422839Y260844D02*
X420751Y263454D01*
X430149Y263454D01*
X430149Y260844D02*
X430149Y266065D01*
X423101Y275210D02*
X423006Y275208D01*
X422912Y275202D01*
X422818Y275193D01*
X422724Y275180D01*
X422631Y275163D01*
X422539Y275142D01*
X422447Y275117D01*
X422357Y275089D01*
X422268Y275057D01*
X422180Y275022D01*
X422094Y274983D01*
X422009Y274941D01*
X421926Y274895D01*
X421845Y274846D01*
X421766Y274794D01*
X421689Y274739D01*
X421615Y274680D01*
X421543Y274619D01*
X421473Y274555D01*
X421406Y274488D01*
X421342Y274418D01*
X421281Y274346D01*
X421222Y274272D01*
X421167Y274195D01*
X421115Y274116D01*
X421066Y274035D01*
X421020Y273952D01*
X420978Y273867D01*
X420939Y273781D01*
X420904Y273693D01*
X420872Y273604D01*
X420844Y273514D01*
X420819Y273422D01*
X420798Y273330D01*
X420781Y273237D01*
X420768Y273143D01*
X420759Y273049D01*
X420753Y272955D01*
X420751Y272860D01*
X420753Y272752D01*
X420759Y272643D01*
X420769Y272535D01*
X420782Y272428D01*
X420800Y272321D01*
X420821Y272214D01*
X420846Y272109D01*
X420875Y272004D01*
X420907Y271901D01*
X420944Y271799D01*
X420984Y271698D01*
X421027Y271599D01*
X421074Y271501D01*
X421125Y271405D01*
X421179Y271311D01*
X421236Y271219D01*
X421297Y271129D01*
X421361Y271041D01*
X421427Y270956D01*
X421497Y270873D01*
X421570Y270793D01*
X421646Y270715D01*
X421724Y270640D01*
X421805Y270568D01*
X421889Y270499D01*
X421975Y270433D01*
X422063Y270370D01*
X422154Y270311D01*
X422246Y270254D01*
X422341Y270201D01*
X422438Y270152D01*
X422536Y270106D01*
X422635Y270063D01*
X422737Y270024D01*
X422839Y269989D01*
X424929Y274426D02*
X424860Y274495D01*
X424789Y274561D01*
X424716Y274625D01*
X424640Y274686D01*
X424561Y274744D01*
X424481Y274798D01*
X424398Y274850D01*
X424314Y274898D01*
X424228Y274944D01*
X424140Y274985D01*
X424050Y275024D01*
X423959Y275059D01*
X423867Y275090D01*
X423774Y275118D01*
X423680Y275142D01*
X423585Y275162D01*
X423489Y275179D01*
X423392Y275192D01*
X423295Y275201D01*
X423198Y275207D01*
X423101Y275209D01*
X424928Y274426D02*
X430149Y269988D01*
X430149Y275209D01*
X417449Y282321D02*
X408051Y282321D01*
X408051Y284932D01*
X408053Y285033D01*
X408059Y285134D01*
X408069Y285235D01*
X408082Y285335D01*
X408100Y285435D01*
X408121Y285534D01*
X408147Y285632D01*
X408176Y285729D01*
X408208Y285825D01*
X408245Y285919D01*
X408285Y286012D01*
X408329Y286104D01*
X408376Y286193D01*
X408427Y286281D01*
X408481Y286367D01*
X408538Y286450D01*
X408598Y286532D01*
X408662Y286610D01*
X408728Y286687D01*
X408798Y286760D01*
X408870Y286831D01*
X408945Y286899D01*
X409023Y286964D01*
X409103Y287026D01*
X409185Y287085D01*
X409270Y287141D01*
X409357Y287193D01*
X409445Y287242D01*
X409536Y287288D01*
X409628Y287329D01*
X409722Y287368D01*
X409817Y287402D01*
X409913Y287433D01*
X410011Y287460D01*
X410109Y287484D01*
X410209Y287503D01*
X410309Y287519D01*
X410409Y287531D01*
X410510Y287539D01*
X410611Y287543D01*
X410713Y287543D01*
X410814Y287539D01*
X410915Y287531D01*
X411015Y287519D01*
X411115Y287503D01*
X411215Y287484D01*
X411313Y287460D01*
X411411Y287433D01*
X411507Y287402D01*
X411602Y287368D01*
X411696Y287329D01*
X411788Y287288D01*
X411879Y287242D01*
X411968Y287193D01*
X412054Y287141D01*
X412139Y287085D01*
X412221Y287026D01*
X412301Y286964D01*
X412379Y286899D01*
X412454Y286831D01*
X412526Y286760D01*
X412596Y286687D01*
X412662Y286610D01*
X412726Y286532D01*
X412786Y286450D01*
X412843Y286367D01*
X412897Y286281D01*
X412948Y286193D01*
X412995Y286104D01*
X413039Y286012D01*
X413079Y285919D01*
X413116Y285825D01*
X413148Y285729D01*
X413177Y285632D01*
X413203Y285534D01*
X413224Y285435D01*
X413242Y285335D01*
X413255Y285235D01*
X413265Y285134D01*
X413271Y285033D01*
X413273Y284932D01*
X413272Y284932D02*
X413272Y282321D01*
X413272Y285454D02*
X417449Y287542D01*
X415361Y291408D02*
X408051Y293496D01*
X415361Y291408D02*
X415361Y296629D01*
X413272Y295063D02*
X417449Y295063D01*
X369189Y289941D02*
X359791Y289941D01*
X359791Y292552D01*
X359793Y292653D01*
X359799Y292754D01*
X359809Y292855D01*
X359822Y292955D01*
X359840Y293055D01*
X359861Y293154D01*
X359887Y293252D01*
X359916Y293349D01*
X359948Y293445D01*
X359985Y293539D01*
X360025Y293632D01*
X360069Y293724D01*
X360116Y293813D01*
X360167Y293901D01*
X360221Y293987D01*
X360278Y294070D01*
X360338Y294152D01*
X360402Y294230D01*
X360468Y294307D01*
X360538Y294380D01*
X360610Y294451D01*
X360685Y294519D01*
X360763Y294584D01*
X360843Y294646D01*
X360925Y294705D01*
X361010Y294761D01*
X361097Y294813D01*
X361185Y294862D01*
X361276Y294908D01*
X361368Y294949D01*
X361462Y294988D01*
X361557Y295022D01*
X361653Y295053D01*
X361751Y295080D01*
X361849Y295104D01*
X361949Y295123D01*
X362049Y295139D01*
X362149Y295151D01*
X362250Y295159D01*
X362351Y295163D01*
X362453Y295163D01*
X362554Y295159D01*
X362655Y295151D01*
X362755Y295139D01*
X362855Y295123D01*
X362955Y295104D01*
X363053Y295080D01*
X363151Y295053D01*
X363247Y295022D01*
X363342Y294988D01*
X363436Y294949D01*
X363528Y294908D01*
X363619Y294862D01*
X363708Y294813D01*
X363794Y294761D01*
X363879Y294705D01*
X363961Y294646D01*
X364041Y294584D01*
X364119Y294519D01*
X364194Y294451D01*
X364266Y294380D01*
X364336Y294307D01*
X364402Y294230D01*
X364466Y294152D01*
X364526Y294070D01*
X364583Y293987D01*
X364637Y293901D01*
X364688Y293813D01*
X364735Y293724D01*
X364779Y293632D01*
X364819Y293539D01*
X364856Y293445D01*
X364888Y293349D01*
X364917Y293252D01*
X364943Y293154D01*
X364964Y293055D01*
X364982Y292955D01*
X364995Y292855D01*
X365005Y292754D01*
X365011Y292653D01*
X365013Y292552D01*
X365012Y292552D02*
X365012Y289941D01*
X365012Y293074D02*
X369189Y295162D01*
X369189Y299028D02*
X369189Y302161D01*
X369187Y302250D01*
X369181Y302338D01*
X369172Y302426D01*
X369159Y302514D01*
X369142Y302601D01*
X369122Y302687D01*
X369097Y302772D01*
X369070Y302857D01*
X369038Y302940D01*
X369004Y303021D01*
X368965Y303101D01*
X368924Y303179D01*
X368879Y303256D01*
X368831Y303330D01*
X368780Y303403D01*
X368726Y303473D01*
X368668Y303540D01*
X368608Y303606D01*
X368546Y303668D01*
X368480Y303728D01*
X368413Y303786D01*
X368343Y303840D01*
X368270Y303891D01*
X368196Y303939D01*
X368119Y303984D01*
X368041Y304025D01*
X367961Y304064D01*
X367880Y304098D01*
X367797Y304130D01*
X367712Y304157D01*
X367627Y304182D01*
X367541Y304202D01*
X367454Y304219D01*
X367366Y304232D01*
X367278Y304241D01*
X367190Y304247D01*
X367101Y304249D01*
X366056Y304249D01*
X365967Y304247D01*
X365879Y304241D01*
X365791Y304232D01*
X365703Y304219D01*
X365616Y304202D01*
X365530Y304182D01*
X365445Y304157D01*
X365360Y304130D01*
X365277Y304098D01*
X365196Y304064D01*
X365116Y304025D01*
X365038Y303984D01*
X364961Y303939D01*
X364887Y303891D01*
X364814Y303840D01*
X364744Y303786D01*
X364677Y303728D01*
X364611Y303668D01*
X364549Y303606D01*
X364489Y303540D01*
X364431Y303473D01*
X364377Y303403D01*
X364326Y303330D01*
X364278Y303256D01*
X364233Y303179D01*
X364192Y303101D01*
X364153Y303021D01*
X364119Y302940D01*
X364087Y302857D01*
X364060Y302772D01*
X364035Y302687D01*
X364015Y302601D01*
X363998Y302514D01*
X363985Y302426D01*
X363976Y302338D01*
X363970Y302250D01*
X363968Y302161D01*
X363968Y299028D01*
X359791Y299028D01*
X359791Y304249D01*
X389001Y354711D02*
X398399Y354711D01*
X389001Y354711D02*
X389001Y358888D01*
X393178Y358888D02*
X393178Y354711D01*
X393178Y362750D02*
X393178Y365360D01*
X393177Y365360D02*
X393179Y365461D01*
X393185Y365562D01*
X393195Y365663D01*
X393208Y365763D01*
X393226Y365863D01*
X393247Y365962D01*
X393273Y366060D01*
X393302Y366157D01*
X393334Y366253D01*
X393371Y366347D01*
X393411Y366440D01*
X393455Y366532D01*
X393502Y366621D01*
X393553Y366709D01*
X393607Y366795D01*
X393664Y366878D01*
X393724Y366960D01*
X393788Y367038D01*
X393854Y367115D01*
X393924Y367188D01*
X393996Y367259D01*
X394071Y367327D01*
X394149Y367392D01*
X394229Y367454D01*
X394311Y367513D01*
X394396Y367569D01*
X394483Y367621D01*
X394571Y367670D01*
X394662Y367716D01*
X394754Y367757D01*
X394848Y367796D01*
X394943Y367830D01*
X395039Y367861D01*
X395137Y367888D01*
X395235Y367912D01*
X395335Y367931D01*
X395435Y367947D01*
X395535Y367959D01*
X395636Y367967D01*
X395737Y367971D01*
X395839Y367971D01*
X395940Y367967D01*
X396041Y367959D01*
X396141Y367947D01*
X396241Y367931D01*
X396341Y367912D01*
X396439Y367888D01*
X396537Y367861D01*
X396633Y367830D01*
X396728Y367796D01*
X396822Y367757D01*
X396914Y367716D01*
X397005Y367670D01*
X397094Y367621D01*
X397180Y367569D01*
X397265Y367513D01*
X397347Y367454D01*
X397427Y367392D01*
X397505Y367327D01*
X397580Y367259D01*
X397652Y367188D01*
X397722Y367115D01*
X397788Y367038D01*
X397852Y366960D01*
X397912Y366878D01*
X397969Y366795D01*
X398023Y366709D01*
X398074Y366621D01*
X398121Y366532D01*
X398165Y366440D01*
X398205Y366347D01*
X398242Y366253D01*
X398274Y366157D01*
X398303Y366060D01*
X398329Y365962D01*
X398350Y365863D01*
X398368Y365763D01*
X398381Y365663D01*
X398391Y365562D01*
X398397Y365461D01*
X398399Y365360D01*
X398399Y362750D01*
X389001Y362750D01*
X389001Y365360D01*
X389003Y365450D01*
X389009Y365539D01*
X389018Y365629D01*
X389032Y365718D01*
X389049Y365806D01*
X389070Y365893D01*
X389095Y365980D01*
X389124Y366065D01*
X389156Y366149D01*
X389191Y366231D01*
X389231Y366312D01*
X389273Y366391D01*
X389319Y366468D01*
X389369Y366543D01*
X389421Y366616D01*
X389477Y366687D01*
X389535Y366755D01*
X389597Y366820D01*
X389661Y366883D01*
X389728Y366943D01*
X389797Y367000D01*
X389869Y367054D01*
X389943Y367105D01*
X390019Y367153D01*
X390097Y367197D01*
X390177Y367238D01*
X390259Y367276D01*
X390342Y367310D01*
X390427Y367340D01*
X390513Y367367D01*
X390599Y367390D01*
X390687Y367409D01*
X390776Y367424D01*
X390865Y367436D01*
X390954Y367444D01*
X391044Y367448D01*
X391134Y367448D01*
X391224Y367444D01*
X391313Y367436D01*
X391402Y367424D01*
X391491Y367409D01*
X391579Y367390D01*
X391665Y367367D01*
X391751Y367340D01*
X391836Y367310D01*
X391919Y367276D01*
X392001Y367238D01*
X392081Y367197D01*
X392159Y367153D01*
X392235Y367105D01*
X392309Y367054D01*
X392381Y367000D01*
X392450Y366943D01*
X392517Y366883D01*
X392581Y366820D01*
X392643Y366755D01*
X392701Y366687D01*
X392757Y366616D01*
X392809Y366543D01*
X392859Y366468D01*
X392905Y366391D01*
X392947Y366312D01*
X392987Y366231D01*
X393022Y366149D01*
X393054Y366065D01*
X393083Y365980D01*
X393108Y365893D01*
X393129Y365806D01*
X393146Y365718D01*
X393160Y365629D01*
X393169Y365539D01*
X393175Y365450D01*
X393177Y365360D01*
X389001Y374329D02*
X389003Y374424D01*
X389009Y374518D01*
X389018Y374612D01*
X389031Y374706D01*
X389048Y374799D01*
X389069Y374891D01*
X389094Y374983D01*
X389122Y375073D01*
X389154Y375162D01*
X389189Y375250D01*
X389228Y375336D01*
X389270Y375421D01*
X389316Y375504D01*
X389365Y375585D01*
X389417Y375664D01*
X389472Y375741D01*
X389531Y375815D01*
X389592Y375887D01*
X389656Y375957D01*
X389723Y376024D01*
X389793Y376088D01*
X389865Y376149D01*
X389939Y376208D01*
X390016Y376263D01*
X390095Y376315D01*
X390176Y376364D01*
X390259Y376410D01*
X390344Y376452D01*
X390430Y376491D01*
X390518Y376526D01*
X390607Y376558D01*
X390697Y376586D01*
X390789Y376611D01*
X390881Y376632D01*
X390974Y376649D01*
X391068Y376662D01*
X391162Y376671D01*
X391256Y376677D01*
X391351Y376679D01*
X389001Y374329D02*
X389003Y374221D01*
X389009Y374112D01*
X389019Y374004D01*
X389032Y373897D01*
X389050Y373790D01*
X389071Y373683D01*
X389096Y373578D01*
X389125Y373473D01*
X389157Y373370D01*
X389194Y373268D01*
X389234Y373167D01*
X389277Y373068D01*
X389324Y372970D01*
X389375Y372874D01*
X389429Y372780D01*
X389486Y372688D01*
X389547Y372598D01*
X389611Y372510D01*
X389677Y372425D01*
X389747Y372342D01*
X389820Y372262D01*
X389896Y372184D01*
X389974Y372109D01*
X390055Y372037D01*
X390139Y371968D01*
X390225Y371902D01*
X390313Y371839D01*
X390404Y371780D01*
X390496Y371723D01*
X390591Y371670D01*
X390688Y371621D01*
X390786Y371575D01*
X390885Y371532D01*
X390987Y371493D01*
X391089Y371458D01*
X393179Y375896D02*
X393110Y375965D01*
X393039Y376031D01*
X392966Y376095D01*
X392890Y376156D01*
X392811Y376214D01*
X392731Y376268D01*
X392648Y376320D01*
X392564Y376368D01*
X392478Y376414D01*
X392390Y376455D01*
X392300Y376494D01*
X392209Y376529D01*
X392117Y376560D01*
X392024Y376588D01*
X391930Y376612D01*
X391835Y376632D01*
X391739Y376649D01*
X391642Y376662D01*
X391545Y376671D01*
X391448Y376677D01*
X391351Y376679D01*
X393178Y375895D02*
X398399Y371457D01*
X398399Y376679D01*
X381889Y354711D02*
X372491Y354711D01*
X372491Y358888D01*
X376668Y358888D02*
X376668Y354711D01*
X376668Y362750D02*
X376668Y365360D01*
X376667Y365360D02*
X376669Y365461D01*
X376675Y365562D01*
X376685Y365663D01*
X376698Y365763D01*
X376716Y365863D01*
X376737Y365962D01*
X376763Y366060D01*
X376792Y366157D01*
X376824Y366253D01*
X376861Y366347D01*
X376901Y366440D01*
X376945Y366532D01*
X376992Y366621D01*
X377043Y366709D01*
X377097Y366795D01*
X377154Y366878D01*
X377214Y366960D01*
X377278Y367038D01*
X377344Y367115D01*
X377414Y367188D01*
X377486Y367259D01*
X377561Y367327D01*
X377639Y367392D01*
X377719Y367454D01*
X377801Y367513D01*
X377886Y367569D01*
X377973Y367621D01*
X378061Y367670D01*
X378152Y367716D01*
X378244Y367757D01*
X378338Y367796D01*
X378433Y367830D01*
X378529Y367861D01*
X378627Y367888D01*
X378725Y367912D01*
X378825Y367931D01*
X378925Y367947D01*
X379025Y367959D01*
X379126Y367967D01*
X379227Y367971D01*
X379329Y367971D01*
X379430Y367967D01*
X379531Y367959D01*
X379631Y367947D01*
X379731Y367931D01*
X379831Y367912D01*
X379929Y367888D01*
X380027Y367861D01*
X380123Y367830D01*
X380218Y367796D01*
X380312Y367757D01*
X380404Y367716D01*
X380495Y367670D01*
X380584Y367621D01*
X380670Y367569D01*
X380755Y367513D01*
X380837Y367454D01*
X380917Y367392D01*
X380995Y367327D01*
X381070Y367259D01*
X381142Y367188D01*
X381212Y367115D01*
X381278Y367038D01*
X381342Y366960D01*
X381402Y366878D01*
X381459Y366795D01*
X381513Y366709D01*
X381564Y366621D01*
X381611Y366532D01*
X381655Y366440D01*
X381695Y366347D01*
X381732Y366253D01*
X381764Y366157D01*
X381793Y366060D01*
X381819Y365962D01*
X381840Y365863D01*
X381858Y365763D01*
X381871Y365663D01*
X381881Y365562D01*
X381887Y365461D01*
X381889Y365360D01*
X381889Y362750D01*
X372491Y362750D01*
X372491Y365360D01*
X372493Y365450D01*
X372499Y365539D01*
X372508Y365629D01*
X372522Y365718D01*
X372539Y365806D01*
X372560Y365893D01*
X372585Y365980D01*
X372614Y366065D01*
X372646Y366149D01*
X372681Y366231D01*
X372721Y366312D01*
X372763Y366391D01*
X372809Y366468D01*
X372859Y366543D01*
X372911Y366616D01*
X372967Y366687D01*
X373025Y366755D01*
X373087Y366820D01*
X373151Y366883D01*
X373218Y366943D01*
X373287Y367000D01*
X373359Y367054D01*
X373433Y367105D01*
X373509Y367153D01*
X373587Y367197D01*
X373667Y367238D01*
X373749Y367276D01*
X373832Y367310D01*
X373917Y367340D01*
X374003Y367367D01*
X374089Y367390D01*
X374177Y367409D01*
X374266Y367424D01*
X374355Y367436D01*
X374444Y367444D01*
X374534Y367448D01*
X374624Y367448D01*
X374714Y367444D01*
X374803Y367436D01*
X374892Y367424D01*
X374981Y367409D01*
X375069Y367390D01*
X375155Y367367D01*
X375241Y367340D01*
X375326Y367310D01*
X375409Y367276D01*
X375491Y367238D01*
X375571Y367197D01*
X375649Y367153D01*
X375725Y367105D01*
X375799Y367054D01*
X375871Y367000D01*
X375940Y366943D01*
X376007Y366883D01*
X376071Y366820D01*
X376133Y366755D01*
X376191Y366687D01*
X376247Y366616D01*
X376299Y366543D01*
X376349Y366468D01*
X376395Y366391D01*
X376437Y366312D01*
X376477Y366231D01*
X376512Y366149D01*
X376544Y366065D01*
X376573Y365980D01*
X376598Y365893D01*
X376619Y365806D01*
X376636Y365718D01*
X376650Y365629D01*
X376659Y365539D01*
X376665Y365450D01*
X376667Y365360D01*
X381889Y371457D02*
X381889Y374068D01*
X381887Y374169D01*
X381881Y374270D01*
X381871Y374371D01*
X381858Y374471D01*
X381840Y374571D01*
X381819Y374670D01*
X381793Y374768D01*
X381764Y374865D01*
X381732Y374961D01*
X381695Y375055D01*
X381655Y375148D01*
X381611Y375240D01*
X381564Y375329D01*
X381513Y375417D01*
X381459Y375503D01*
X381402Y375586D01*
X381342Y375668D01*
X381278Y375746D01*
X381212Y375823D01*
X381142Y375896D01*
X381070Y375967D01*
X380995Y376035D01*
X380917Y376100D01*
X380837Y376162D01*
X380755Y376221D01*
X380670Y376277D01*
X380584Y376329D01*
X380495Y376378D01*
X380404Y376424D01*
X380312Y376465D01*
X380218Y376504D01*
X380123Y376538D01*
X380027Y376569D01*
X379929Y376596D01*
X379831Y376620D01*
X379731Y376639D01*
X379631Y376655D01*
X379531Y376667D01*
X379430Y376675D01*
X379329Y376679D01*
X379227Y376679D01*
X379126Y376675D01*
X379025Y376667D01*
X378925Y376655D01*
X378825Y376639D01*
X378725Y376620D01*
X378627Y376596D01*
X378529Y376569D01*
X378433Y376538D01*
X378338Y376504D01*
X378244Y376465D01*
X378152Y376424D01*
X378061Y376378D01*
X377973Y376329D01*
X377886Y376277D01*
X377801Y376221D01*
X377719Y376162D01*
X377639Y376100D01*
X377561Y376035D01*
X377486Y375967D01*
X377414Y375896D01*
X377344Y375823D01*
X377278Y375746D01*
X377214Y375668D01*
X377154Y375586D01*
X377097Y375503D01*
X377043Y375417D01*
X376992Y375329D01*
X376945Y375240D01*
X376901Y375148D01*
X376861Y375055D01*
X376824Y374961D01*
X376792Y374865D01*
X376763Y374768D01*
X376737Y374670D01*
X376716Y374571D01*
X376698Y374471D01*
X376685Y374371D01*
X376675Y374270D01*
X376669Y374169D01*
X376667Y374068D01*
X372491Y374590D02*
X372491Y371457D01*
X372491Y374590D02*
X372493Y374680D01*
X372499Y374769D01*
X372508Y374859D01*
X372522Y374948D01*
X372539Y375036D01*
X372560Y375123D01*
X372585Y375210D01*
X372614Y375295D01*
X372646Y375379D01*
X372681Y375461D01*
X372721Y375542D01*
X372763Y375621D01*
X372809Y375698D01*
X372859Y375773D01*
X372911Y375846D01*
X372967Y375917D01*
X373025Y375985D01*
X373087Y376050D01*
X373151Y376113D01*
X373218Y376173D01*
X373287Y376230D01*
X373359Y376284D01*
X373433Y376335D01*
X373509Y376383D01*
X373587Y376427D01*
X373667Y376468D01*
X373749Y376506D01*
X373832Y376540D01*
X373917Y376570D01*
X374003Y376597D01*
X374089Y376620D01*
X374177Y376639D01*
X374266Y376654D01*
X374355Y376666D01*
X374444Y376674D01*
X374534Y376678D01*
X374624Y376678D01*
X374714Y376674D01*
X374803Y376666D01*
X374892Y376654D01*
X374981Y376639D01*
X375069Y376620D01*
X375155Y376597D01*
X375241Y376570D01*
X375326Y376540D01*
X375409Y376506D01*
X375491Y376468D01*
X375571Y376427D01*
X375649Y376383D01*
X375725Y376335D01*
X375799Y376284D01*
X375871Y376230D01*
X375940Y376173D01*
X376007Y376113D01*
X376071Y376050D01*
X376133Y375985D01*
X376191Y375917D01*
X376247Y375846D01*
X376299Y375773D01*
X376349Y375698D01*
X376395Y375621D01*
X376437Y375542D01*
X376477Y375461D01*
X376512Y375379D01*
X376544Y375295D01*
X376573Y375210D01*
X376598Y375123D01*
X376619Y375036D01*
X376636Y374948D01*
X376650Y374859D01*
X376659Y374769D01*
X376665Y374680D01*
X376667Y374590D01*
X376668Y374590D02*
X376668Y372502D01*
D126*
X372126Y389222D02*
X363376Y404378D01*
X374634Y410878D02*
X383384Y395722D01*
D123*
X364868Y432055D02*
X356868Y427436D01*
X364868Y432055D02*
X366151Y429833D01*
X366199Y429747D01*
X366243Y429659D01*
X366284Y429570D01*
X366321Y429479D01*
X366355Y429386D01*
X366385Y429293D01*
X366412Y429198D01*
X366435Y429103D01*
X366454Y429006D01*
X366470Y428909D01*
X366482Y428812D01*
X366490Y428714D01*
X366494Y428616D01*
X366495Y428517D01*
X366492Y428419D01*
X366485Y428321D01*
X366474Y428223D01*
X366460Y428126D01*
X366442Y428029D01*
X366420Y427933D01*
X366394Y427839D01*
X366365Y427745D01*
X366333Y427652D01*
X366297Y427560D01*
X366257Y427471D01*
X366214Y427382D01*
X366167Y427295D01*
X366118Y427211D01*
X366065Y427128D01*
X366009Y427047D01*
X365950Y426969D01*
X365888Y426892D01*
X365823Y426818D01*
X365755Y426747D01*
X365685Y426679D01*
X365612Y426613D01*
X365536Y426550D01*
X365458Y426490D01*
X365378Y426433D01*
X365296Y426379D01*
X365212Y426328D01*
X365212Y426327D02*
X361656Y424274D01*
X361656Y424275D02*
X361570Y424227D01*
X361482Y424183D01*
X361393Y424142D01*
X361302Y424105D01*
X361209Y424071D01*
X361116Y424041D01*
X361021Y424014D01*
X360926Y423991D01*
X360829Y423972D01*
X360732Y423956D01*
X360635Y423944D01*
X360537Y423936D01*
X360439Y423932D01*
X360340Y423931D01*
X360242Y423934D01*
X360144Y423941D01*
X360046Y423952D01*
X359949Y423966D01*
X359852Y423984D01*
X359756Y424006D01*
X359662Y424032D01*
X359568Y424061D01*
X359475Y424093D01*
X359383Y424129D01*
X359294Y424169D01*
X359205Y424212D01*
X359118Y424259D01*
X359034Y424308D01*
X358951Y424361D01*
X358870Y424417D01*
X358791Y424476D01*
X358715Y424538D01*
X358641Y424603D01*
X358570Y424671D01*
X358502Y424741D01*
X358436Y424814D01*
X358373Y424890D01*
X358313Y424968D01*
X358256Y425048D01*
X358202Y425130D01*
X358151Y425214D01*
X356868Y427436D01*
X370930Y421557D02*
X370976Y421473D01*
X371018Y421388D01*
X371057Y421301D01*
X371092Y421212D01*
X371124Y421122D01*
X371152Y421031D01*
X371176Y420938D01*
X371196Y420845D01*
X371213Y420751D01*
X371225Y420656D01*
X371234Y420561D01*
X371238Y420466D01*
X371239Y420370D01*
X371235Y420275D01*
X371228Y420180D01*
X371217Y420085D01*
X371202Y419990D01*
X371183Y419897D01*
X371160Y419804D01*
X371134Y419712D01*
X371103Y419622D01*
X371069Y419533D01*
X371031Y419445D01*
X370990Y419359D01*
X370945Y419275D01*
X370897Y419192D01*
X370845Y419112D01*
X370790Y419034D01*
X370732Y418958D01*
X370671Y418885D01*
X370607Y418814D01*
X370540Y418746D01*
X370470Y418681D01*
X370398Y418619D01*
X370323Y418560D01*
X370245Y418504D01*
X370166Y418451D01*
X370084Y418401D01*
X370930Y421556D02*
X370875Y421648D01*
X370816Y421737D01*
X370755Y421824D01*
X370691Y421909D01*
X370623Y421992D01*
X370553Y422072D01*
X370479Y422149D01*
X370404Y422224D01*
X370325Y422296D01*
X370244Y422365D01*
X370160Y422431D01*
X370074Y422495D01*
X369986Y422555D01*
X369896Y422611D01*
X369804Y422665D01*
X369710Y422715D01*
X369614Y422762D01*
X369517Y422805D01*
X369418Y422845D01*
X369317Y422881D01*
X369216Y422914D01*
X369113Y422943D01*
X369010Y422968D01*
X368905Y422989D01*
X368800Y423007D01*
X368694Y423021D01*
X368588Y423031D01*
X368482Y423037D01*
X368375Y423040D01*
X368269Y423039D01*
X368162Y423033D01*
X368056Y423024D01*
X367950Y423012D01*
X367845Y422995D01*
X367740Y422975D01*
X368144Y418170D02*
X368236Y418145D01*
X368329Y418123D01*
X368423Y418105D01*
X368518Y418091D01*
X368613Y418080D01*
X368708Y418073D01*
X368804Y418069D01*
X368899Y418070D01*
X368995Y418074D01*
X369090Y418081D01*
X369185Y418093D01*
X369280Y418108D01*
X369374Y418126D01*
X369467Y418148D01*
X369559Y418174D01*
X369650Y418204D01*
X369740Y418236D01*
X369828Y418273D01*
X369915Y418312D01*
X370001Y418355D01*
X370084Y418401D01*
X368143Y418170D02*
X361518Y419382D01*
X364084Y414937D01*
X430149Y228165D02*
X430149Y226077D01*
X430147Y225988D01*
X430141Y225900D01*
X430132Y225812D01*
X430119Y225724D01*
X430102Y225637D01*
X430082Y225551D01*
X430057Y225466D01*
X430030Y225381D01*
X429998Y225298D01*
X429964Y225217D01*
X429925Y225137D01*
X429884Y225059D01*
X429839Y224982D01*
X429791Y224908D01*
X429740Y224835D01*
X429686Y224765D01*
X429628Y224698D01*
X429568Y224632D01*
X429506Y224570D01*
X429440Y224510D01*
X429373Y224452D01*
X429303Y224398D01*
X429230Y224347D01*
X429156Y224299D01*
X429079Y224254D01*
X429001Y224213D01*
X428921Y224174D01*
X428840Y224140D01*
X428757Y224108D01*
X428672Y224081D01*
X428587Y224056D01*
X428501Y224036D01*
X428414Y224019D01*
X428326Y224006D01*
X428238Y223997D01*
X428150Y223991D01*
X428061Y223989D01*
X428061Y223988D02*
X422839Y223988D01*
X422748Y223990D01*
X422657Y223996D01*
X422566Y224006D01*
X422476Y224020D01*
X422387Y224038D01*
X422298Y224059D01*
X422211Y224085D01*
X422125Y224114D01*
X422040Y224147D01*
X421956Y224184D01*
X421874Y224224D01*
X421795Y224268D01*
X421717Y224315D01*
X421641Y224366D01*
X421567Y224420D01*
X421496Y224477D01*
X421428Y224537D01*
X421362Y224600D01*
X421299Y224666D01*
X421239Y224734D01*
X421182Y224805D01*
X421128Y224879D01*
X421077Y224955D01*
X421030Y225032D01*
X420986Y225112D01*
X420946Y225194D01*
X420909Y225278D01*
X420876Y225362D01*
X420847Y225449D01*
X420821Y225536D01*
X420800Y225625D01*
X420782Y225714D01*
X420768Y225804D01*
X420758Y225895D01*
X420752Y225986D01*
X420750Y226077D01*
X420751Y226077D02*
X420751Y228165D01*
X422839Y231634D02*
X420751Y234244D01*
X430149Y234244D01*
X430149Y231634D02*
X430149Y236855D01*
X428061Y240778D02*
X420751Y242866D01*
X428061Y240778D02*
X428061Y245999D01*
X425972Y244433D02*
X430149Y244433D01*
D11*
X313563Y237236D02*
X313563Y232664D01*
X292227Y232664D02*
X292227Y237236D01*
X295021Y236220D02*
X295065Y236120D01*
X295105Y236019D01*
X295141Y235916D01*
X295173Y235811D01*
X295202Y235706D01*
X295227Y235600D01*
X295249Y235493D01*
X295266Y235385D01*
X295280Y235277D01*
X295289Y235168D01*
X295295Y235059D01*
X295297Y234950D01*
X295295Y234841D01*
X295289Y234732D01*
X295280Y234623D01*
X295266Y234515D01*
X295249Y234407D01*
X295227Y234300D01*
X295202Y234194D01*
X295173Y234089D01*
X295141Y233984D01*
X295105Y233881D01*
X295065Y233780D01*
X295021Y233680D01*
D123*
X289235Y220183D02*
X285256Y220183D01*
X289235Y220183D02*
X292220Y222504D01*
X289235Y220183D02*
X292220Y217861D01*
X289235Y220183D02*
X287909Y223830D01*
X289235Y220183D02*
X287909Y216535D01*
X317246Y227457D02*
X324033Y227457D01*
X324134Y227459D01*
X324235Y227465D01*
X324336Y227475D01*
X324436Y227488D01*
X324536Y227506D01*
X324635Y227527D01*
X324733Y227553D01*
X324830Y227582D01*
X324926Y227614D01*
X325020Y227651D01*
X325113Y227691D01*
X325205Y227735D01*
X325294Y227782D01*
X325382Y227833D01*
X325468Y227887D01*
X325551Y227944D01*
X325633Y228004D01*
X325711Y228068D01*
X325788Y228134D01*
X325861Y228204D01*
X325932Y228276D01*
X326000Y228351D01*
X326065Y228429D01*
X326127Y228509D01*
X326186Y228591D01*
X326242Y228676D01*
X326294Y228762D01*
X326343Y228851D01*
X326389Y228942D01*
X326430Y229034D01*
X326469Y229128D01*
X326503Y229223D01*
X326534Y229319D01*
X326561Y229417D01*
X326585Y229515D01*
X326604Y229615D01*
X326620Y229715D01*
X326632Y229815D01*
X326640Y229916D01*
X326644Y230017D01*
X326644Y230119D01*
X326640Y230220D01*
X326632Y230321D01*
X326620Y230421D01*
X326604Y230521D01*
X326585Y230621D01*
X326561Y230719D01*
X326534Y230817D01*
X326503Y230913D01*
X326469Y231008D01*
X326430Y231102D01*
X326389Y231194D01*
X326343Y231285D01*
X326294Y231373D01*
X326242Y231460D01*
X326186Y231545D01*
X326127Y231627D01*
X326065Y231707D01*
X326000Y231785D01*
X325932Y231860D01*
X325861Y231932D01*
X325788Y232002D01*
X325711Y232068D01*
X325633Y232132D01*
X325551Y232192D01*
X325468Y232249D01*
X325382Y232303D01*
X325294Y232354D01*
X325205Y232401D01*
X325113Y232445D01*
X325020Y232485D01*
X324926Y232522D01*
X324830Y232554D01*
X324733Y232583D01*
X324635Y232609D01*
X324536Y232630D01*
X324436Y232648D01*
X324336Y232661D01*
X324235Y232671D01*
X324134Y232677D01*
X324033Y232679D01*
X324033Y232678D02*
X317246Y232678D01*
X326644Y236906D02*
X326644Y239516D01*
X326642Y239617D01*
X326636Y239718D01*
X326626Y239819D01*
X326613Y239919D01*
X326595Y240019D01*
X326574Y240118D01*
X326548Y240216D01*
X326519Y240313D01*
X326487Y240409D01*
X326450Y240503D01*
X326410Y240596D01*
X326366Y240688D01*
X326319Y240777D01*
X326268Y240865D01*
X326214Y240951D01*
X326157Y241034D01*
X326097Y241116D01*
X326033Y241194D01*
X325967Y241271D01*
X325897Y241344D01*
X325825Y241415D01*
X325750Y241483D01*
X325672Y241548D01*
X325592Y241610D01*
X325510Y241669D01*
X325425Y241725D01*
X325339Y241777D01*
X325250Y241826D01*
X325159Y241872D01*
X325067Y241913D01*
X324973Y241952D01*
X324878Y241986D01*
X324782Y242017D01*
X324684Y242044D01*
X324586Y242068D01*
X324486Y242087D01*
X324386Y242103D01*
X324286Y242115D01*
X324185Y242123D01*
X324084Y242127D01*
X323982Y242127D01*
X323881Y242123D01*
X323780Y242115D01*
X323680Y242103D01*
X323580Y242087D01*
X323480Y242068D01*
X323382Y242044D01*
X323284Y242017D01*
X323188Y241986D01*
X323093Y241952D01*
X322999Y241913D01*
X322907Y241872D01*
X322816Y241826D01*
X322728Y241777D01*
X322641Y241725D01*
X322556Y241669D01*
X322474Y241610D01*
X322394Y241548D01*
X322316Y241483D01*
X322241Y241415D01*
X322169Y241344D01*
X322099Y241271D01*
X322033Y241194D01*
X321969Y241116D01*
X321909Y241034D01*
X321852Y240951D01*
X321798Y240865D01*
X321747Y240777D01*
X321700Y240688D01*
X321656Y240596D01*
X321616Y240503D01*
X321579Y240409D01*
X321547Y240313D01*
X321518Y240216D01*
X321492Y240118D01*
X321471Y240019D01*
X321453Y239919D01*
X321440Y239819D01*
X321430Y239718D01*
X321424Y239617D01*
X321422Y239516D01*
X317246Y240038D02*
X317246Y236906D01*
X317246Y240038D02*
X317248Y240128D01*
X317254Y240217D01*
X317263Y240307D01*
X317277Y240396D01*
X317294Y240484D01*
X317315Y240571D01*
X317340Y240658D01*
X317369Y240743D01*
X317401Y240827D01*
X317436Y240909D01*
X317476Y240990D01*
X317518Y241069D01*
X317564Y241146D01*
X317614Y241221D01*
X317666Y241294D01*
X317722Y241365D01*
X317780Y241433D01*
X317842Y241498D01*
X317906Y241561D01*
X317973Y241621D01*
X318042Y241678D01*
X318114Y241732D01*
X318188Y241783D01*
X318264Y241831D01*
X318342Y241875D01*
X318422Y241916D01*
X318504Y241954D01*
X318587Y241988D01*
X318672Y242018D01*
X318758Y242045D01*
X318844Y242068D01*
X318932Y242087D01*
X319021Y242102D01*
X319110Y242114D01*
X319199Y242122D01*
X319289Y242126D01*
X319379Y242126D01*
X319469Y242122D01*
X319558Y242114D01*
X319647Y242102D01*
X319736Y242087D01*
X319824Y242068D01*
X319910Y242045D01*
X319996Y242018D01*
X320081Y241988D01*
X320164Y241954D01*
X320246Y241916D01*
X320326Y241875D01*
X320404Y241831D01*
X320480Y241783D01*
X320554Y241732D01*
X320626Y241678D01*
X320695Y241621D01*
X320762Y241561D01*
X320826Y241498D01*
X320888Y241433D01*
X320946Y241365D01*
X321002Y241294D01*
X321054Y241221D01*
X321104Y241146D01*
X321150Y241069D01*
X321192Y240990D01*
X321232Y240909D01*
X321267Y240827D01*
X321299Y240743D01*
X321328Y240658D01*
X321353Y240571D01*
X321374Y240484D01*
X321391Y240396D01*
X321405Y240307D01*
X321414Y240217D01*
X321420Y240128D01*
X321422Y240038D01*
X321423Y240038D02*
X321423Y237950D01*
X298015Y251841D02*
X295927Y251841D01*
X295838Y251843D01*
X295750Y251849D01*
X295662Y251858D01*
X295574Y251871D01*
X295487Y251888D01*
X295401Y251908D01*
X295316Y251933D01*
X295231Y251960D01*
X295148Y251992D01*
X295067Y252026D01*
X294987Y252065D01*
X294909Y252106D01*
X294832Y252151D01*
X294758Y252199D01*
X294685Y252250D01*
X294615Y252304D01*
X294548Y252362D01*
X294482Y252422D01*
X294420Y252484D01*
X294360Y252550D01*
X294302Y252617D01*
X294248Y252687D01*
X294197Y252760D01*
X294149Y252834D01*
X294104Y252911D01*
X294063Y252989D01*
X294024Y253069D01*
X293990Y253150D01*
X293958Y253233D01*
X293931Y253318D01*
X293906Y253403D01*
X293886Y253489D01*
X293869Y253576D01*
X293856Y253664D01*
X293847Y253752D01*
X293841Y253840D01*
X293839Y253929D01*
X293838Y253929D02*
X293838Y259151D01*
X293839Y259151D02*
X293841Y259242D01*
X293847Y259333D01*
X293857Y259424D01*
X293871Y259514D01*
X293888Y259603D01*
X293910Y259691D01*
X293936Y259779D01*
X293965Y259865D01*
X293998Y259950D01*
X294035Y260033D01*
X294075Y260115D01*
X294119Y260195D01*
X294166Y260273D01*
X294217Y260349D01*
X294270Y260422D01*
X294327Y260493D01*
X294388Y260562D01*
X294451Y260627D01*
X294516Y260690D01*
X294585Y260750D01*
X294656Y260808D01*
X294729Y260861D01*
X294805Y260912D01*
X294883Y260959D01*
X294963Y261003D01*
X295045Y261043D01*
X295128Y261080D01*
X295213Y261113D01*
X295299Y261142D01*
X295387Y261168D01*
X295475Y261190D01*
X295564Y261207D01*
X295654Y261221D01*
X295745Y261231D01*
X295836Y261237D01*
X295927Y261239D01*
X298015Y261239D01*
X301484Y259151D02*
X304094Y261239D01*
X304094Y251841D01*
X301484Y251841D02*
X306705Y251841D01*
X310628Y257062D02*
X313761Y257062D01*
X313850Y257060D01*
X313938Y257054D01*
X314026Y257045D01*
X314114Y257032D01*
X314201Y257015D01*
X314287Y256995D01*
X314372Y256970D01*
X314457Y256943D01*
X314540Y256911D01*
X314621Y256877D01*
X314701Y256838D01*
X314779Y256797D01*
X314856Y256752D01*
X314930Y256704D01*
X315003Y256653D01*
X315073Y256599D01*
X315140Y256541D01*
X315206Y256481D01*
X315268Y256419D01*
X315328Y256353D01*
X315386Y256286D01*
X315440Y256216D01*
X315491Y256143D01*
X315539Y256069D01*
X315584Y255992D01*
X315625Y255914D01*
X315664Y255834D01*
X315698Y255753D01*
X315730Y255670D01*
X315757Y255585D01*
X315782Y255500D01*
X315802Y255414D01*
X315819Y255327D01*
X315832Y255239D01*
X315841Y255151D01*
X315847Y255063D01*
X315849Y254974D01*
X315849Y254452D01*
X315847Y254351D01*
X315841Y254250D01*
X315831Y254149D01*
X315818Y254049D01*
X315800Y253949D01*
X315779Y253850D01*
X315753Y253752D01*
X315724Y253655D01*
X315692Y253559D01*
X315655Y253465D01*
X315615Y253372D01*
X315571Y253280D01*
X315524Y253191D01*
X315473Y253103D01*
X315419Y253017D01*
X315362Y252934D01*
X315302Y252852D01*
X315238Y252774D01*
X315172Y252697D01*
X315102Y252624D01*
X315030Y252553D01*
X314955Y252485D01*
X314877Y252420D01*
X314797Y252358D01*
X314715Y252299D01*
X314630Y252243D01*
X314543Y252191D01*
X314455Y252142D01*
X314364Y252096D01*
X314272Y252055D01*
X314178Y252016D01*
X314083Y251982D01*
X313987Y251951D01*
X313889Y251924D01*
X313791Y251900D01*
X313691Y251881D01*
X313591Y251865D01*
X313491Y251853D01*
X313390Y251845D01*
X313289Y251841D01*
X313187Y251841D01*
X313086Y251845D01*
X312985Y251853D01*
X312885Y251865D01*
X312785Y251881D01*
X312685Y251900D01*
X312587Y251924D01*
X312489Y251951D01*
X312393Y251982D01*
X312298Y252016D01*
X312204Y252055D01*
X312112Y252096D01*
X312021Y252142D01*
X311933Y252191D01*
X311846Y252243D01*
X311761Y252299D01*
X311679Y252358D01*
X311599Y252420D01*
X311521Y252485D01*
X311446Y252553D01*
X311374Y252624D01*
X311304Y252697D01*
X311238Y252774D01*
X311174Y252852D01*
X311114Y252934D01*
X311057Y253017D01*
X311003Y253103D01*
X310952Y253191D01*
X310905Y253280D01*
X310861Y253372D01*
X310821Y253465D01*
X310784Y253559D01*
X310752Y253655D01*
X310723Y253752D01*
X310697Y253850D01*
X310676Y253949D01*
X310658Y254049D01*
X310645Y254149D01*
X310635Y254250D01*
X310629Y254351D01*
X310627Y254452D01*
X310628Y254452D02*
X310628Y257062D01*
X310630Y257191D01*
X310636Y257319D01*
X310646Y257447D01*
X310660Y257575D01*
X310677Y257703D01*
X310699Y257830D01*
X310725Y257956D01*
X310754Y258081D01*
X310787Y258205D01*
X310825Y258328D01*
X310865Y258450D01*
X310910Y258571D01*
X310958Y258690D01*
X311010Y258808D01*
X311066Y258924D01*
X311125Y259038D01*
X311188Y259150D01*
X311254Y259261D01*
X311323Y259369D01*
X311396Y259475D01*
X311472Y259579D01*
X311551Y259681D01*
X311633Y259780D01*
X311718Y259876D01*
X311806Y259970D01*
X311897Y260061D01*
X311991Y260149D01*
X312087Y260234D01*
X312186Y260316D01*
X312288Y260395D01*
X312392Y260471D01*
X312498Y260544D01*
X312606Y260613D01*
X312716Y260679D01*
X312829Y260742D01*
X312943Y260801D01*
X313059Y260857D01*
X313177Y260909D01*
X313296Y260957D01*
X313417Y261002D01*
X313539Y261042D01*
X313662Y261080D01*
X313786Y261113D01*
X313911Y261142D01*
X314037Y261168D01*
X314164Y261190D01*
X314292Y261207D01*
X314420Y261221D01*
X314548Y261231D01*
X314676Y261237D01*
X314805Y261239D01*
X272669Y258558D02*
X272669Y256469D01*
X272667Y256380D01*
X272661Y256292D01*
X272652Y256204D01*
X272639Y256116D01*
X272622Y256029D01*
X272602Y255943D01*
X272577Y255858D01*
X272550Y255773D01*
X272518Y255690D01*
X272484Y255609D01*
X272445Y255529D01*
X272404Y255451D01*
X272359Y255374D01*
X272311Y255300D01*
X272260Y255227D01*
X272206Y255157D01*
X272148Y255090D01*
X272088Y255024D01*
X272026Y254962D01*
X271960Y254902D01*
X271893Y254844D01*
X271823Y254790D01*
X271750Y254739D01*
X271676Y254691D01*
X271599Y254646D01*
X271521Y254605D01*
X271441Y254566D01*
X271360Y254532D01*
X271277Y254500D01*
X271192Y254473D01*
X271107Y254448D01*
X271021Y254428D01*
X270934Y254411D01*
X270846Y254398D01*
X270758Y254389D01*
X270670Y254383D01*
X270581Y254381D01*
X265359Y254381D01*
X265268Y254383D01*
X265177Y254389D01*
X265086Y254399D01*
X264996Y254413D01*
X264907Y254431D01*
X264818Y254452D01*
X264731Y254478D01*
X264645Y254507D01*
X264560Y254540D01*
X264476Y254577D01*
X264394Y254617D01*
X264315Y254661D01*
X264237Y254708D01*
X264161Y254759D01*
X264087Y254813D01*
X264016Y254870D01*
X263948Y254930D01*
X263882Y254993D01*
X263819Y255059D01*
X263759Y255127D01*
X263702Y255198D01*
X263648Y255272D01*
X263597Y255348D01*
X263550Y255425D01*
X263506Y255505D01*
X263466Y255587D01*
X263429Y255671D01*
X263396Y255755D01*
X263367Y255842D01*
X263341Y255929D01*
X263320Y256018D01*
X263302Y256107D01*
X263288Y256197D01*
X263278Y256288D01*
X263272Y256379D01*
X263270Y256470D01*
X263271Y256469D02*
X263271Y258558D01*
X265359Y262027D02*
X263271Y264637D01*
X272669Y264637D01*
X272669Y262027D02*
X272669Y267248D01*
X264315Y271171D02*
X263271Y271171D01*
X263271Y276392D01*
X272669Y273781D01*
X259969Y258645D02*
X259969Y256557D01*
X259967Y256468D01*
X259961Y256380D01*
X259952Y256292D01*
X259939Y256204D01*
X259922Y256117D01*
X259902Y256031D01*
X259877Y255946D01*
X259850Y255861D01*
X259818Y255778D01*
X259784Y255697D01*
X259745Y255617D01*
X259704Y255539D01*
X259659Y255462D01*
X259611Y255388D01*
X259560Y255315D01*
X259506Y255245D01*
X259448Y255178D01*
X259388Y255112D01*
X259326Y255050D01*
X259260Y254990D01*
X259193Y254932D01*
X259123Y254878D01*
X259050Y254827D01*
X258976Y254779D01*
X258899Y254734D01*
X258821Y254693D01*
X258741Y254654D01*
X258660Y254620D01*
X258577Y254588D01*
X258492Y254561D01*
X258407Y254536D01*
X258321Y254516D01*
X258234Y254499D01*
X258146Y254486D01*
X258058Y254477D01*
X257970Y254471D01*
X257881Y254469D01*
X257881Y254468D02*
X252659Y254468D01*
X252568Y254470D01*
X252477Y254476D01*
X252386Y254486D01*
X252296Y254500D01*
X252207Y254518D01*
X252118Y254539D01*
X252031Y254565D01*
X251945Y254594D01*
X251860Y254627D01*
X251776Y254664D01*
X251694Y254704D01*
X251615Y254748D01*
X251537Y254795D01*
X251461Y254846D01*
X251387Y254900D01*
X251316Y254957D01*
X251248Y255017D01*
X251182Y255080D01*
X251119Y255146D01*
X251059Y255214D01*
X251002Y255285D01*
X250948Y255359D01*
X250897Y255435D01*
X250850Y255512D01*
X250806Y255592D01*
X250766Y255674D01*
X250729Y255758D01*
X250696Y255842D01*
X250667Y255929D01*
X250641Y256016D01*
X250620Y256105D01*
X250602Y256194D01*
X250588Y256284D01*
X250578Y256375D01*
X250572Y256466D01*
X250570Y256557D01*
X250571Y256557D02*
X250571Y258645D01*
X252659Y262114D02*
X250571Y264724D01*
X259969Y264724D01*
X259969Y262114D02*
X259969Y267335D01*
X257358Y271257D02*
X257257Y271259D01*
X257156Y271265D01*
X257055Y271275D01*
X256955Y271288D01*
X256855Y271306D01*
X256756Y271327D01*
X256658Y271353D01*
X256561Y271382D01*
X256465Y271414D01*
X256371Y271451D01*
X256278Y271491D01*
X256186Y271535D01*
X256097Y271582D01*
X256009Y271633D01*
X255923Y271687D01*
X255840Y271744D01*
X255758Y271804D01*
X255680Y271868D01*
X255603Y271934D01*
X255530Y272004D01*
X255459Y272076D01*
X255391Y272151D01*
X255326Y272229D01*
X255264Y272309D01*
X255205Y272391D01*
X255149Y272476D01*
X255097Y272563D01*
X255048Y272651D01*
X255002Y272742D01*
X254961Y272834D01*
X254922Y272928D01*
X254888Y273023D01*
X254857Y273119D01*
X254830Y273217D01*
X254806Y273315D01*
X254787Y273415D01*
X254771Y273515D01*
X254759Y273615D01*
X254751Y273716D01*
X254747Y273817D01*
X254747Y273919D01*
X254751Y274020D01*
X254759Y274121D01*
X254771Y274221D01*
X254787Y274321D01*
X254806Y274421D01*
X254830Y274519D01*
X254857Y274617D01*
X254888Y274713D01*
X254922Y274808D01*
X254961Y274902D01*
X255002Y274994D01*
X255048Y275085D01*
X255097Y275174D01*
X255149Y275260D01*
X255205Y275345D01*
X255264Y275427D01*
X255326Y275507D01*
X255391Y275585D01*
X255459Y275660D01*
X255530Y275732D01*
X255603Y275802D01*
X255680Y275868D01*
X255758Y275932D01*
X255840Y275992D01*
X255923Y276049D01*
X256009Y276103D01*
X256097Y276154D01*
X256186Y276201D01*
X256278Y276245D01*
X256371Y276285D01*
X256465Y276322D01*
X256561Y276354D01*
X256658Y276383D01*
X256756Y276409D01*
X256855Y276430D01*
X256955Y276448D01*
X257055Y276461D01*
X257156Y276471D01*
X257257Y276477D01*
X257358Y276479D01*
X257459Y276477D01*
X257560Y276471D01*
X257661Y276461D01*
X257761Y276448D01*
X257861Y276430D01*
X257960Y276409D01*
X258058Y276383D01*
X258155Y276354D01*
X258251Y276322D01*
X258345Y276285D01*
X258438Y276245D01*
X258530Y276201D01*
X258619Y276154D01*
X258707Y276103D01*
X258793Y276049D01*
X258876Y275992D01*
X258958Y275932D01*
X259036Y275868D01*
X259113Y275802D01*
X259186Y275732D01*
X259257Y275660D01*
X259325Y275585D01*
X259390Y275507D01*
X259452Y275427D01*
X259511Y275345D01*
X259567Y275260D01*
X259619Y275173D01*
X259668Y275085D01*
X259714Y274994D01*
X259755Y274902D01*
X259794Y274808D01*
X259828Y274713D01*
X259859Y274617D01*
X259886Y274519D01*
X259910Y274421D01*
X259929Y274321D01*
X259945Y274221D01*
X259957Y274121D01*
X259965Y274020D01*
X259969Y273919D01*
X259969Y273817D01*
X259965Y273716D01*
X259957Y273615D01*
X259945Y273515D01*
X259929Y273415D01*
X259910Y273315D01*
X259886Y273217D01*
X259859Y273119D01*
X259828Y273023D01*
X259794Y272928D01*
X259755Y272834D01*
X259714Y272742D01*
X259668Y272651D01*
X259619Y272563D01*
X259567Y272476D01*
X259511Y272391D01*
X259452Y272309D01*
X259390Y272229D01*
X259325Y272151D01*
X259257Y272076D01*
X259186Y272004D01*
X259113Y271934D01*
X259036Y271868D01*
X258958Y271804D01*
X258876Y271744D01*
X258793Y271687D01*
X258707Y271633D01*
X258619Y271582D01*
X258530Y271535D01*
X258438Y271491D01*
X258345Y271451D01*
X258251Y271414D01*
X258155Y271382D01*
X258058Y271353D01*
X257960Y271327D01*
X257861Y271306D01*
X257761Y271288D01*
X257661Y271275D01*
X257560Y271265D01*
X257459Y271259D01*
X257358Y271257D01*
X252659Y271780D02*
X252569Y271782D01*
X252480Y271788D01*
X252390Y271797D01*
X252301Y271811D01*
X252213Y271828D01*
X252126Y271849D01*
X252039Y271874D01*
X251954Y271903D01*
X251870Y271935D01*
X251788Y271970D01*
X251707Y272010D01*
X251628Y272052D01*
X251551Y272098D01*
X251476Y272148D01*
X251403Y272200D01*
X251332Y272256D01*
X251264Y272314D01*
X251199Y272376D01*
X251136Y272440D01*
X251076Y272507D01*
X251019Y272576D01*
X250965Y272648D01*
X250914Y272722D01*
X250866Y272798D01*
X250822Y272876D01*
X250781Y272956D01*
X250743Y273038D01*
X250709Y273121D01*
X250679Y273206D01*
X250652Y273292D01*
X250629Y273378D01*
X250610Y273466D01*
X250595Y273555D01*
X250583Y273644D01*
X250575Y273733D01*
X250571Y273823D01*
X250571Y273913D01*
X250575Y274003D01*
X250583Y274092D01*
X250595Y274181D01*
X250610Y274270D01*
X250629Y274358D01*
X250652Y274444D01*
X250679Y274530D01*
X250709Y274615D01*
X250743Y274698D01*
X250781Y274780D01*
X250822Y274860D01*
X250866Y274938D01*
X250914Y275014D01*
X250965Y275088D01*
X251019Y275160D01*
X251076Y275229D01*
X251136Y275296D01*
X251199Y275360D01*
X251264Y275422D01*
X251332Y275480D01*
X251403Y275536D01*
X251476Y275588D01*
X251551Y275638D01*
X251628Y275684D01*
X251707Y275726D01*
X251788Y275766D01*
X251870Y275801D01*
X251954Y275833D01*
X252039Y275862D01*
X252126Y275887D01*
X252213Y275908D01*
X252301Y275925D01*
X252390Y275939D01*
X252480Y275948D01*
X252569Y275954D01*
X252659Y275956D01*
X252749Y275954D01*
X252838Y275948D01*
X252928Y275939D01*
X253017Y275925D01*
X253105Y275908D01*
X253192Y275887D01*
X253279Y275862D01*
X253364Y275833D01*
X253448Y275801D01*
X253530Y275766D01*
X253611Y275726D01*
X253690Y275684D01*
X253767Y275638D01*
X253842Y275588D01*
X253915Y275536D01*
X253986Y275480D01*
X254054Y275422D01*
X254119Y275360D01*
X254182Y275296D01*
X254242Y275229D01*
X254299Y275160D01*
X254353Y275088D01*
X254404Y275014D01*
X254452Y274938D01*
X254496Y274860D01*
X254537Y274780D01*
X254575Y274698D01*
X254609Y274615D01*
X254639Y274530D01*
X254666Y274444D01*
X254689Y274358D01*
X254708Y274270D01*
X254723Y274181D01*
X254735Y274092D01*
X254743Y274003D01*
X254747Y273913D01*
X254747Y273823D01*
X254743Y273733D01*
X254735Y273644D01*
X254723Y273555D01*
X254708Y273466D01*
X254689Y273378D01*
X254666Y273292D01*
X254639Y273206D01*
X254609Y273121D01*
X254575Y273038D01*
X254537Y272956D01*
X254496Y272876D01*
X254452Y272798D01*
X254404Y272722D01*
X254353Y272648D01*
X254299Y272576D01*
X254242Y272507D01*
X254182Y272440D01*
X254119Y272376D01*
X254054Y272314D01*
X253986Y272256D01*
X253915Y272200D01*
X253842Y272148D01*
X253767Y272098D01*
X253690Y272052D01*
X253611Y272010D01*
X253530Y271970D01*
X253448Y271935D01*
X253364Y271903D01*
X253279Y271874D01*
X253192Y271849D01*
X253105Y271828D01*
X253017Y271811D01*
X252928Y271797D01*
X252838Y271788D01*
X252749Y271782D01*
X252659Y271780D01*
X301371Y283591D02*
X310769Y283591D01*
X301371Y283591D02*
X301371Y286202D01*
X301373Y286303D01*
X301379Y286404D01*
X301389Y286505D01*
X301402Y286605D01*
X301420Y286705D01*
X301441Y286804D01*
X301467Y286902D01*
X301496Y286999D01*
X301528Y287095D01*
X301565Y287189D01*
X301605Y287282D01*
X301649Y287374D01*
X301696Y287463D01*
X301747Y287551D01*
X301801Y287637D01*
X301858Y287720D01*
X301918Y287802D01*
X301982Y287880D01*
X302048Y287957D01*
X302118Y288030D01*
X302190Y288101D01*
X302265Y288169D01*
X302343Y288234D01*
X302423Y288296D01*
X302505Y288355D01*
X302590Y288411D01*
X302677Y288463D01*
X302765Y288512D01*
X302856Y288558D01*
X302948Y288599D01*
X303042Y288638D01*
X303137Y288672D01*
X303233Y288703D01*
X303331Y288730D01*
X303429Y288754D01*
X303529Y288773D01*
X303629Y288789D01*
X303729Y288801D01*
X303830Y288809D01*
X303931Y288813D01*
X304033Y288813D01*
X304134Y288809D01*
X304235Y288801D01*
X304335Y288789D01*
X304435Y288773D01*
X304535Y288754D01*
X304633Y288730D01*
X304731Y288703D01*
X304827Y288672D01*
X304922Y288638D01*
X305016Y288599D01*
X305108Y288558D01*
X305199Y288512D01*
X305288Y288463D01*
X305374Y288411D01*
X305459Y288355D01*
X305541Y288296D01*
X305621Y288234D01*
X305699Y288169D01*
X305774Y288101D01*
X305846Y288030D01*
X305916Y287957D01*
X305982Y287880D01*
X306046Y287802D01*
X306106Y287720D01*
X306163Y287637D01*
X306217Y287551D01*
X306268Y287463D01*
X306315Y287374D01*
X306359Y287282D01*
X306399Y287189D01*
X306436Y287095D01*
X306468Y286999D01*
X306497Y286902D01*
X306523Y286804D01*
X306544Y286705D01*
X306562Y286605D01*
X306575Y286505D01*
X306585Y286404D01*
X306591Y286303D01*
X306593Y286202D01*
X306592Y286202D02*
X306592Y283591D01*
X306592Y286724D02*
X310769Y288812D01*
X303459Y292678D02*
X301371Y295288D01*
X310769Y295288D01*
X310769Y292678D02*
X310769Y297899D01*
X303459Y301822D02*
X301371Y304432D01*
X310769Y304432D01*
X310769Y301822D02*
X310769Y307043D01*
X286639Y283591D02*
X277241Y283591D01*
X277241Y286202D01*
X277243Y286303D01*
X277249Y286404D01*
X277259Y286505D01*
X277272Y286605D01*
X277290Y286705D01*
X277311Y286804D01*
X277337Y286902D01*
X277366Y286999D01*
X277398Y287095D01*
X277435Y287189D01*
X277475Y287282D01*
X277519Y287374D01*
X277566Y287463D01*
X277617Y287551D01*
X277671Y287637D01*
X277728Y287720D01*
X277788Y287802D01*
X277852Y287880D01*
X277918Y287957D01*
X277988Y288030D01*
X278060Y288101D01*
X278135Y288169D01*
X278213Y288234D01*
X278293Y288296D01*
X278375Y288355D01*
X278460Y288411D01*
X278547Y288463D01*
X278635Y288512D01*
X278726Y288558D01*
X278818Y288599D01*
X278912Y288638D01*
X279007Y288672D01*
X279103Y288703D01*
X279201Y288730D01*
X279299Y288754D01*
X279399Y288773D01*
X279499Y288789D01*
X279599Y288801D01*
X279700Y288809D01*
X279801Y288813D01*
X279903Y288813D01*
X280004Y288809D01*
X280105Y288801D01*
X280205Y288789D01*
X280305Y288773D01*
X280405Y288754D01*
X280503Y288730D01*
X280601Y288703D01*
X280697Y288672D01*
X280792Y288638D01*
X280886Y288599D01*
X280978Y288558D01*
X281069Y288512D01*
X281158Y288463D01*
X281244Y288411D01*
X281329Y288355D01*
X281411Y288296D01*
X281491Y288234D01*
X281569Y288169D01*
X281644Y288101D01*
X281716Y288030D01*
X281786Y287957D01*
X281852Y287880D01*
X281916Y287802D01*
X281976Y287720D01*
X282033Y287637D01*
X282087Y287551D01*
X282138Y287463D01*
X282185Y287374D01*
X282229Y287282D01*
X282269Y287189D01*
X282306Y287095D01*
X282338Y286999D01*
X282367Y286902D01*
X282393Y286804D01*
X282414Y286705D01*
X282432Y286605D01*
X282445Y286505D01*
X282455Y286404D01*
X282461Y286303D01*
X282463Y286202D01*
X282462Y286202D02*
X282462Y283591D01*
X282462Y286724D02*
X286639Y288812D01*
X279329Y292678D02*
X277241Y295288D01*
X286639Y295288D01*
X286639Y292678D02*
X286639Y297899D01*
X279591Y307043D02*
X279496Y307041D01*
X279402Y307035D01*
X279308Y307026D01*
X279214Y307013D01*
X279121Y306996D01*
X279029Y306975D01*
X278937Y306950D01*
X278847Y306922D01*
X278758Y306890D01*
X278670Y306855D01*
X278584Y306816D01*
X278499Y306774D01*
X278416Y306728D01*
X278335Y306679D01*
X278256Y306627D01*
X278179Y306572D01*
X278105Y306513D01*
X278033Y306452D01*
X277963Y306388D01*
X277896Y306321D01*
X277832Y306251D01*
X277771Y306179D01*
X277712Y306105D01*
X277657Y306028D01*
X277605Y305949D01*
X277556Y305868D01*
X277510Y305785D01*
X277468Y305700D01*
X277429Y305614D01*
X277394Y305526D01*
X277362Y305437D01*
X277334Y305347D01*
X277309Y305255D01*
X277288Y305163D01*
X277271Y305070D01*
X277258Y304976D01*
X277249Y304882D01*
X277243Y304788D01*
X277241Y304693D01*
X277243Y304585D01*
X277249Y304476D01*
X277259Y304368D01*
X277272Y304261D01*
X277290Y304154D01*
X277311Y304047D01*
X277336Y303942D01*
X277365Y303837D01*
X277397Y303734D01*
X277434Y303632D01*
X277474Y303531D01*
X277517Y303432D01*
X277564Y303334D01*
X277615Y303238D01*
X277669Y303144D01*
X277726Y303052D01*
X277787Y302962D01*
X277851Y302874D01*
X277917Y302789D01*
X277987Y302706D01*
X278060Y302626D01*
X278136Y302548D01*
X278214Y302473D01*
X278295Y302401D01*
X278379Y302332D01*
X278465Y302266D01*
X278553Y302203D01*
X278644Y302144D01*
X278736Y302087D01*
X278831Y302034D01*
X278928Y301985D01*
X279026Y301939D01*
X279125Y301896D01*
X279227Y301857D01*
X279329Y301822D01*
X281419Y306260D02*
X281350Y306329D01*
X281279Y306395D01*
X281206Y306459D01*
X281130Y306520D01*
X281051Y306578D01*
X280971Y306632D01*
X280888Y306684D01*
X280804Y306732D01*
X280718Y306778D01*
X280630Y306819D01*
X280540Y306858D01*
X280449Y306893D01*
X280357Y306924D01*
X280264Y306952D01*
X280170Y306976D01*
X280075Y306996D01*
X279979Y307013D01*
X279882Y307026D01*
X279785Y307035D01*
X279688Y307041D01*
X279591Y307043D01*
X281418Y306260D02*
X286639Y301822D01*
X286639Y307043D01*
X307721Y354711D02*
X317119Y354711D01*
X307721Y354711D02*
X307721Y358888D01*
X311898Y358888D02*
X311898Y354711D01*
X311898Y362750D02*
X311898Y365360D01*
X311897Y365360D02*
X311899Y365461D01*
X311905Y365562D01*
X311915Y365663D01*
X311928Y365763D01*
X311946Y365863D01*
X311967Y365962D01*
X311993Y366060D01*
X312022Y366157D01*
X312054Y366253D01*
X312091Y366347D01*
X312131Y366440D01*
X312175Y366532D01*
X312222Y366621D01*
X312273Y366709D01*
X312327Y366795D01*
X312384Y366878D01*
X312444Y366960D01*
X312508Y367038D01*
X312574Y367115D01*
X312644Y367188D01*
X312716Y367259D01*
X312791Y367327D01*
X312869Y367392D01*
X312949Y367454D01*
X313031Y367513D01*
X313116Y367569D01*
X313203Y367621D01*
X313291Y367670D01*
X313382Y367716D01*
X313474Y367757D01*
X313568Y367796D01*
X313663Y367830D01*
X313759Y367861D01*
X313857Y367888D01*
X313955Y367912D01*
X314055Y367931D01*
X314155Y367947D01*
X314255Y367959D01*
X314356Y367967D01*
X314457Y367971D01*
X314559Y367971D01*
X314660Y367967D01*
X314761Y367959D01*
X314861Y367947D01*
X314961Y367931D01*
X315061Y367912D01*
X315159Y367888D01*
X315257Y367861D01*
X315353Y367830D01*
X315448Y367796D01*
X315542Y367757D01*
X315634Y367716D01*
X315725Y367670D01*
X315814Y367621D01*
X315900Y367569D01*
X315985Y367513D01*
X316067Y367454D01*
X316147Y367392D01*
X316225Y367327D01*
X316300Y367259D01*
X316372Y367188D01*
X316442Y367115D01*
X316508Y367038D01*
X316572Y366960D01*
X316632Y366878D01*
X316689Y366795D01*
X316743Y366709D01*
X316794Y366621D01*
X316841Y366532D01*
X316885Y366440D01*
X316925Y366347D01*
X316962Y366253D01*
X316994Y366157D01*
X317023Y366060D01*
X317049Y365962D01*
X317070Y365863D01*
X317088Y365763D01*
X317101Y365663D01*
X317111Y365562D01*
X317117Y365461D01*
X317119Y365360D01*
X317119Y362750D01*
X307721Y362750D01*
X307721Y365360D01*
X307723Y365450D01*
X307729Y365539D01*
X307738Y365629D01*
X307752Y365718D01*
X307769Y365806D01*
X307790Y365893D01*
X307815Y365980D01*
X307844Y366065D01*
X307876Y366149D01*
X307911Y366231D01*
X307951Y366312D01*
X307993Y366391D01*
X308039Y366468D01*
X308089Y366543D01*
X308141Y366616D01*
X308197Y366687D01*
X308255Y366755D01*
X308317Y366820D01*
X308381Y366883D01*
X308448Y366943D01*
X308517Y367000D01*
X308589Y367054D01*
X308663Y367105D01*
X308739Y367153D01*
X308817Y367197D01*
X308897Y367238D01*
X308979Y367276D01*
X309062Y367310D01*
X309147Y367340D01*
X309233Y367367D01*
X309319Y367390D01*
X309407Y367409D01*
X309496Y367424D01*
X309585Y367436D01*
X309674Y367444D01*
X309764Y367448D01*
X309854Y367448D01*
X309944Y367444D01*
X310033Y367436D01*
X310122Y367424D01*
X310211Y367409D01*
X310299Y367390D01*
X310385Y367367D01*
X310471Y367340D01*
X310556Y367310D01*
X310639Y367276D01*
X310721Y367238D01*
X310801Y367197D01*
X310879Y367153D01*
X310955Y367105D01*
X311029Y367054D01*
X311101Y367000D01*
X311170Y366943D01*
X311237Y366883D01*
X311301Y366820D01*
X311363Y366755D01*
X311421Y366687D01*
X311477Y366616D01*
X311529Y366543D01*
X311579Y366468D01*
X311625Y366391D01*
X311667Y366312D01*
X311707Y366231D01*
X311742Y366149D01*
X311774Y366065D01*
X311803Y365980D01*
X311828Y365893D01*
X311849Y365806D01*
X311866Y365718D01*
X311880Y365629D01*
X311889Y365539D01*
X311895Y365450D01*
X311897Y365360D01*
X315031Y371457D02*
X307721Y373546D01*
X315031Y371457D02*
X315031Y376679D01*
X317119Y375112D02*
X312942Y375112D01*
X304419Y354711D02*
X295021Y354711D01*
X295021Y358888D01*
X299198Y358888D02*
X299198Y354711D01*
X299198Y362750D02*
X299198Y365360D01*
X299197Y365360D02*
X299199Y365461D01*
X299205Y365562D01*
X299215Y365663D01*
X299228Y365763D01*
X299246Y365863D01*
X299267Y365962D01*
X299293Y366060D01*
X299322Y366157D01*
X299354Y366253D01*
X299391Y366347D01*
X299431Y366440D01*
X299475Y366532D01*
X299522Y366621D01*
X299573Y366709D01*
X299627Y366795D01*
X299684Y366878D01*
X299744Y366960D01*
X299808Y367038D01*
X299874Y367115D01*
X299944Y367188D01*
X300016Y367259D01*
X300091Y367327D01*
X300169Y367392D01*
X300249Y367454D01*
X300331Y367513D01*
X300416Y367569D01*
X300503Y367621D01*
X300591Y367670D01*
X300682Y367716D01*
X300774Y367757D01*
X300868Y367796D01*
X300963Y367830D01*
X301059Y367861D01*
X301157Y367888D01*
X301255Y367912D01*
X301355Y367931D01*
X301455Y367947D01*
X301555Y367959D01*
X301656Y367967D01*
X301757Y367971D01*
X301859Y367971D01*
X301960Y367967D01*
X302061Y367959D01*
X302161Y367947D01*
X302261Y367931D01*
X302361Y367912D01*
X302459Y367888D01*
X302557Y367861D01*
X302653Y367830D01*
X302748Y367796D01*
X302842Y367757D01*
X302934Y367716D01*
X303025Y367670D01*
X303114Y367621D01*
X303200Y367569D01*
X303285Y367513D01*
X303367Y367454D01*
X303447Y367392D01*
X303525Y367327D01*
X303600Y367259D01*
X303672Y367188D01*
X303742Y367115D01*
X303808Y367038D01*
X303872Y366960D01*
X303932Y366878D01*
X303989Y366795D01*
X304043Y366709D01*
X304094Y366621D01*
X304141Y366532D01*
X304185Y366440D01*
X304225Y366347D01*
X304262Y366253D01*
X304294Y366157D01*
X304323Y366060D01*
X304349Y365962D01*
X304370Y365863D01*
X304388Y365763D01*
X304401Y365663D01*
X304411Y365562D01*
X304417Y365461D01*
X304419Y365360D01*
X304419Y362750D01*
X295021Y362750D01*
X295021Y365360D01*
X295023Y365450D01*
X295029Y365539D01*
X295038Y365629D01*
X295052Y365718D01*
X295069Y365806D01*
X295090Y365893D01*
X295115Y365980D01*
X295144Y366065D01*
X295176Y366149D01*
X295211Y366231D01*
X295251Y366312D01*
X295293Y366391D01*
X295339Y366468D01*
X295389Y366543D01*
X295441Y366616D01*
X295497Y366687D01*
X295555Y366755D01*
X295617Y366820D01*
X295681Y366883D01*
X295748Y366943D01*
X295817Y367000D01*
X295889Y367054D01*
X295963Y367105D01*
X296039Y367153D01*
X296117Y367197D01*
X296197Y367238D01*
X296279Y367276D01*
X296362Y367310D01*
X296447Y367340D01*
X296533Y367367D01*
X296619Y367390D01*
X296707Y367409D01*
X296796Y367424D01*
X296885Y367436D01*
X296974Y367444D01*
X297064Y367448D01*
X297154Y367448D01*
X297244Y367444D01*
X297333Y367436D01*
X297422Y367424D01*
X297511Y367409D01*
X297599Y367390D01*
X297685Y367367D01*
X297771Y367340D01*
X297856Y367310D01*
X297939Y367276D01*
X298021Y367238D01*
X298101Y367197D01*
X298179Y367153D01*
X298255Y367105D01*
X298329Y367054D01*
X298401Y367000D01*
X298470Y366943D01*
X298537Y366883D01*
X298601Y366820D01*
X298663Y366755D01*
X298721Y366687D01*
X298777Y366616D01*
X298829Y366543D01*
X298879Y366468D01*
X298925Y366391D01*
X298967Y366312D01*
X299007Y366231D01*
X299042Y366149D01*
X299074Y366065D01*
X299103Y365980D01*
X299128Y365893D01*
X299149Y365806D01*
X299166Y365718D01*
X299180Y365629D01*
X299189Y365539D01*
X299195Y365450D01*
X299197Y365360D01*
X304419Y371457D02*
X304419Y374590D01*
X304417Y374679D01*
X304411Y374767D01*
X304402Y374855D01*
X304389Y374943D01*
X304372Y375030D01*
X304352Y375116D01*
X304327Y375201D01*
X304300Y375286D01*
X304268Y375369D01*
X304234Y375450D01*
X304195Y375530D01*
X304154Y375608D01*
X304109Y375685D01*
X304061Y375759D01*
X304010Y375832D01*
X303956Y375902D01*
X303898Y375969D01*
X303838Y376035D01*
X303776Y376097D01*
X303710Y376157D01*
X303643Y376215D01*
X303573Y376269D01*
X303500Y376320D01*
X303426Y376368D01*
X303349Y376413D01*
X303271Y376454D01*
X303191Y376493D01*
X303110Y376527D01*
X303027Y376559D01*
X302942Y376586D01*
X302857Y376611D01*
X302771Y376631D01*
X302684Y376648D01*
X302596Y376661D01*
X302508Y376670D01*
X302420Y376676D01*
X302331Y376678D01*
X302331Y376679D02*
X301286Y376679D01*
X301286Y376678D02*
X301197Y376676D01*
X301109Y376670D01*
X301021Y376661D01*
X300933Y376648D01*
X300846Y376631D01*
X300760Y376611D01*
X300675Y376586D01*
X300590Y376559D01*
X300507Y376527D01*
X300426Y376493D01*
X300346Y376454D01*
X300268Y376413D01*
X300191Y376368D01*
X300117Y376320D01*
X300044Y376269D01*
X299974Y376215D01*
X299907Y376157D01*
X299841Y376097D01*
X299779Y376035D01*
X299719Y375969D01*
X299661Y375902D01*
X299607Y375832D01*
X299556Y375759D01*
X299508Y375685D01*
X299463Y375608D01*
X299422Y375530D01*
X299383Y375450D01*
X299349Y375369D01*
X299317Y375286D01*
X299290Y375201D01*
X299265Y375116D01*
X299245Y375030D01*
X299228Y374943D01*
X299215Y374855D01*
X299206Y374767D01*
X299200Y374679D01*
X299198Y374590D01*
X299198Y371457D01*
X295021Y371457D01*
X295021Y376679D01*
X272669Y231888D02*
X272669Y229799D01*
X272667Y229710D01*
X272661Y229622D01*
X272652Y229534D01*
X272639Y229446D01*
X272622Y229359D01*
X272602Y229273D01*
X272577Y229188D01*
X272550Y229103D01*
X272518Y229020D01*
X272484Y228939D01*
X272445Y228859D01*
X272404Y228781D01*
X272359Y228704D01*
X272311Y228630D01*
X272260Y228557D01*
X272206Y228487D01*
X272148Y228420D01*
X272088Y228354D01*
X272026Y228292D01*
X271960Y228232D01*
X271893Y228174D01*
X271823Y228120D01*
X271750Y228069D01*
X271676Y228021D01*
X271599Y227976D01*
X271521Y227935D01*
X271441Y227896D01*
X271360Y227862D01*
X271277Y227830D01*
X271192Y227803D01*
X271107Y227778D01*
X271021Y227758D01*
X270934Y227741D01*
X270846Y227728D01*
X270758Y227719D01*
X270670Y227713D01*
X270581Y227711D01*
X265359Y227711D01*
X265268Y227713D01*
X265177Y227719D01*
X265086Y227729D01*
X264996Y227743D01*
X264907Y227761D01*
X264818Y227782D01*
X264731Y227808D01*
X264645Y227837D01*
X264560Y227870D01*
X264476Y227907D01*
X264394Y227947D01*
X264315Y227991D01*
X264237Y228038D01*
X264161Y228089D01*
X264087Y228143D01*
X264016Y228200D01*
X263948Y228260D01*
X263882Y228323D01*
X263819Y228389D01*
X263759Y228457D01*
X263702Y228528D01*
X263648Y228602D01*
X263597Y228678D01*
X263550Y228755D01*
X263506Y228835D01*
X263466Y228917D01*
X263429Y229001D01*
X263396Y229085D01*
X263367Y229172D01*
X263341Y229259D01*
X263320Y229348D01*
X263302Y229437D01*
X263288Y229527D01*
X263278Y229618D01*
X263272Y229709D01*
X263270Y229800D01*
X263271Y229799D02*
X263271Y231888D01*
X263271Y238228D02*
X263273Y238323D01*
X263279Y238417D01*
X263288Y238511D01*
X263301Y238605D01*
X263318Y238698D01*
X263339Y238790D01*
X263364Y238882D01*
X263392Y238972D01*
X263424Y239061D01*
X263459Y239149D01*
X263498Y239235D01*
X263540Y239320D01*
X263586Y239403D01*
X263635Y239484D01*
X263687Y239563D01*
X263742Y239640D01*
X263801Y239714D01*
X263862Y239786D01*
X263926Y239856D01*
X263993Y239923D01*
X264063Y239987D01*
X264135Y240048D01*
X264209Y240107D01*
X264286Y240162D01*
X264365Y240214D01*
X264446Y240263D01*
X264529Y240309D01*
X264614Y240351D01*
X264700Y240390D01*
X264788Y240425D01*
X264877Y240457D01*
X264967Y240485D01*
X265059Y240510D01*
X265151Y240531D01*
X265244Y240548D01*
X265338Y240561D01*
X265432Y240570D01*
X265526Y240576D01*
X265621Y240578D01*
X263271Y238228D02*
X263273Y238120D01*
X263279Y238011D01*
X263289Y237903D01*
X263302Y237796D01*
X263320Y237689D01*
X263341Y237582D01*
X263366Y237477D01*
X263395Y237372D01*
X263427Y237269D01*
X263464Y237167D01*
X263504Y237066D01*
X263547Y236967D01*
X263594Y236869D01*
X263645Y236773D01*
X263699Y236679D01*
X263756Y236587D01*
X263817Y236497D01*
X263881Y236409D01*
X263947Y236324D01*
X264017Y236241D01*
X264090Y236161D01*
X264166Y236083D01*
X264244Y236008D01*
X264325Y235936D01*
X264409Y235867D01*
X264495Y235801D01*
X264583Y235738D01*
X264674Y235679D01*
X264766Y235622D01*
X264861Y235569D01*
X264958Y235520D01*
X265056Y235474D01*
X265155Y235431D01*
X265257Y235392D01*
X265359Y235357D01*
X267449Y239795D02*
X267380Y239864D01*
X267309Y239930D01*
X267236Y239994D01*
X267160Y240055D01*
X267081Y240113D01*
X267001Y240167D01*
X266918Y240219D01*
X266834Y240267D01*
X266748Y240313D01*
X266660Y240354D01*
X266570Y240393D01*
X266479Y240428D01*
X266387Y240459D01*
X266294Y240487D01*
X266200Y240511D01*
X266105Y240531D01*
X266009Y240548D01*
X265912Y240561D01*
X265815Y240570D01*
X265718Y240576D01*
X265621Y240578D01*
X267448Y239795D02*
X272669Y235357D01*
X272669Y240578D01*
X265359Y244501D02*
X263271Y247111D01*
X272669Y247111D01*
X272669Y244501D02*
X272669Y249722D01*
D126*
X310036Y395722D02*
X318786Y410878D01*
X330044Y404378D02*
X321294Y389222D01*
D123*
X330863Y415565D02*
X322863Y420184D01*
X324146Y422406D01*
X324197Y422490D01*
X324251Y422572D01*
X324308Y422652D01*
X324368Y422730D01*
X324431Y422806D01*
X324497Y422879D01*
X324565Y422949D01*
X324636Y423017D01*
X324710Y423082D01*
X324787Y423144D01*
X324865Y423203D01*
X324946Y423259D01*
X325029Y423312D01*
X325113Y423361D01*
X325200Y423408D01*
X325289Y423451D01*
X325378Y423491D01*
X325470Y423527D01*
X325563Y423559D01*
X325657Y423588D01*
X325751Y423614D01*
X325847Y423636D01*
X325944Y423654D01*
X326041Y423668D01*
X326139Y423679D01*
X326237Y423686D01*
X326335Y423689D01*
X326434Y423688D01*
X326532Y423684D01*
X326630Y423676D01*
X326727Y423664D01*
X326824Y423648D01*
X326921Y423629D01*
X327016Y423606D01*
X327111Y423579D01*
X327204Y423549D01*
X327297Y423515D01*
X327388Y423478D01*
X327477Y423437D01*
X327565Y423393D01*
X327651Y423345D01*
X327651Y423346D02*
X331207Y421293D01*
X331207Y421292D02*
X331291Y421241D01*
X331373Y421187D01*
X331453Y421130D01*
X331531Y421070D01*
X331607Y421007D01*
X331680Y420941D01*
X331750Y420873D01*
X331818Y420802D01*
X331883Y420728D01*
X331945Y420652D01*
X332004Y420573D01*
X332060Y420492D01*
X332113Y420409D01*
X332162Y420325D01*
X332209Y420238D01*
X332252Y420149D01*
X332292Y420060D01*
X332328Y419968D01*
X332360Y419875D01*
X332389Y419781D01*
X332415Y419687D01*
X332437Y419591D01*
X332455Y419494D01*
X332469Y419397D01*
X332480Y419299D01*
X332487Y419201D01*
X332490Y419103D01*
X332489Y419004D01*
X332485Y418906D01*
X332477Y418808D01*
X332465Y418711D01*
X332449Y418614D01*
X332430Y418517D01*
X332407Y418422D01*
X332380Y418327D01*
X332350Y418234D01*
X332316Y418141D01*
X332279Y418050D01*
X332238Y417961D01*
X332194Y417873D01*
X332146Y417787D01*
X330863Y415565D01*
X335513Y423619D02*
X336796Y425841D01*
X336845Y425929D01*
X336890Y426019D01*
X336932Y426111D01*
X336970Y426204D01*
X337004Y426299D01*
X337034Y426395D01*
X337061Y426492D01*
X337084Y426590D01*
X337103Y426689D01*
X337118Y426789D01*
X337129Y426889D01*
X337136Y426990D01*
X337140Y427090D01*
X337139Y427191D01*
X337135Y427292D01*
X337126Y427392D01*
X337113Y427492D01*
X337097Y427592D01*
X337077Y427690D01*
X337053Y427788D01*
X337025Y427885D01*
X336993Y427981D01*
X336957Y428075D01*
X336918Y428168D01*
X336875Y428259D01*
X336829Y428348D01*
X336779Y428436D01*
X336726Y428522D01*
X336670Y428605D01*
X336610Y428686D01*
X336547Y428765D01*
X336481Y428841D01*
X336412Y428915D01*
X336340Y428985D01*
X336266Y429053D01*
X336189Y429118D01*
X336109Y429180D01*
X336027Y429239D01*
X335943Y429294D01*
X335857Y429346D01*
X335769Y429395D01*
X335679Y429440D01*
X335587Y429482D01*
X335494Y429520D01*
X335399Y429554D01*
X335303Y429584D01*
X335206Y429611D01*
X335108Y429634D01*
X335009Y429653D01*
X334909Y429668D01*
X334809Y429679D01*
X334708Y429686D01*
X334608Y429690D01*
X334507Y429689D01*
X334406Y429685D01*
X334306Y429676D01*
X334206Y429663D01*
X334106Y429647D01*
X334008Y429627D01*
X333910Y429603D01*
X333813Y429575D01*
X333717Y429543D01*
X333623Y429507D01*
X333530Y429468D01*
X333439Y429425D01*
X333350Y429379D01*
X333262Y429329D01*
X333176Y429276D01*
X333093Y429220D01*
X333012Y429160D01*
X332933Y429097D01*
X332857Y429031D01*
X332783Y428962D01*
X332713Y428890D01*
X332645Y428816D01*
X332580Y428739D01*
X332518Y428659D01*
X332459Y428577D01*
X332404Y428493D01*
X332352Y428407D01*
X329053Y430905D02*
X327513Y428238D01*
X329052Y430904D02*
X329099Y430981D01*
X329148Y431056D01*
X329201Y431128D01*
X329257Y431198D01*
X329316Y431265D01*
X329378Y431330D01*
X329443Y431392D01*
X329510Y431451D01*
X329580Y431507D01*
X329652Y431560D01*
X329727Y431609D01*
X329804Y431656D01*
X329882Y431699D01*
X329962Y431739D01*
X330044Y431775D01*
X330128Y431807D01*
X330213Y431836D01*
X330299Y431861D01*
X330386Y431882D01*
X330474Y431900D01*
X330562Y431913D01*
X330651Y431923D01*
X330740Y431929D01*
X330830Y431931D01*
X330920Y431929D01*
X331009Y431923D01*
X331098Y431913D01*
X331187Y431900D01*
X331274Y431882D01*
X331361Y431861D01*
X331447Y431836D01*
X331532Y431807D01*
X331616Y431775D01*
X331698Y431739D01*
X331778Y431699D01*
X331857Y431656D01*
X331933Y431609D01*
X332008Y431560D01*
X332080Y431507D01*
X332150Y431451D01*
X332217Y431392D01*
X332282Y431330D01*
X332344Y431265D01*
X332403Y431198D01*
X332459Y431128D01*
X332512Y431056D01*
X332561Y430981D01*
X332608Y430904D01*
X332651Y430826D01*
X332691Y430746D01*
X332727Y430664D01*
X332759Y430580D01*
X332788Y430495D01*
X332813Y430409D01*
X332834Y430322D01*
X332852Y430234D01*
X332865Y430146D01*
X332875Y430057D01*
X332881Y429968D01*
X332883Y429878D01*
X332881Y429788D01*
X332875Y429699D01*
X332865Y429610D01*
X332852Y429521D01*
X332834Y429434D01*
X332813Y429347D01*
X332788Y429261D01*
X332759Y429176D01*
X332727Y429092D01*
X332691Y429010D01*
X332651Y428930D01*
X332608Y428851D01*
X332608Y428852D02*
X331582Y427074D01*
X334391Y291127D02*
X343789Y291127D01*
X334391Y291127D02*
X334391Y293738D01*
X334393Y293839D01*
X334399Y293940D01*
X334409Y294041D01*
X334422Y294141D01*
X334440Y294241D01*
X334461Y294340D01*
X334487Y294438D01*
X334516Y294535D01*
X334548Y294631D01*
X334585Y294725D01*
X334625Y294818D01*
X334669Y294910D01*
X334716Y294999D01*
X334767Y295087D01*
X334821Y295173D01*
X334878Y295256D01*
X334938Y295338D01*
X335002Y295416D01*
X335068Y295493D01*
X335138Y295566D01*
X335210Y295637D01*
X335285Y295705D01*
X335363Y295770D01*
X335443Y295832D01*
X335525Y295891D01*
X335610Y295947D01*
X335697Y295999D01*
X335785Y296048D01*
X335876Y296094D01*
X335968Y296135D01*
X336062Y296174D01*
X336157Y296208D01*
X336253Y296239D01*
X336351Y296266D01*
X336449Y296290D01*
X336549Y296309D01*
X336649Y296325D01*
X336749Y296337D01*
X336850Y296345D01*
X336951Y296349D01*
X337053Y296349D01*
X337154Y296345D01*
X337255Y296337D01*
X337355Y296325D01*
X337455Y296309D01*
X337555Y296290D01*
X337653Y296266D01*
X337751Y296239D01*
X337847Y296208D01*
X337942Y296174D01*
X338036Y296135D01*
X338128Y296094D01*
X338219Y296048D01*
X338308Y295999D01*
X338394Y295947D01*
X338479Y295891D01*
X338561Y295832D01*
X338641Y295770D01*
X338719Y295705D01*
X338794Y295637D01*
X338866Y295566D01*
X338936Y295493D01*
X339002Y295416D01*
X339066Y295338D01*
X339126Y295256D01*
X339183Y295173D01*
X339237Y295087D01*
X339288Y294999D01*
X339335Y294910D01*
X339379Y294818D01*
X339419Y294725D01*
X339456Y294631D01*
X339488Y294535D01*
X339517Y294438D01*
X339543Y294340D01*
X339564Y294241D01*
X339582Y294141D01*
X339595Y294041D01*
X339605Y293940D01*
X339611Y293839D01*
X339613Y293738D01*
X339612Y293738D02*
X339612Y291127D01*
X339612Y294260D02*
X343789Y296348D01*
X336479Y300214D02*
X334391Y302824D01*
X343789Y302824D01*
X343789Y300214D02*
X343789Y305435D01*
X343789Y309358D02*
X343789Y312491D01*
X343787Y312580D01*
X343781Y312668D01*
X343772Y312756D01*
X343759Y312844D01*
X343742Y312931D01*
X343722Y313017D01*
X343697Y313102D01*
X343670Y313187D01*
X343638Y313270D01*
X343604Y313351D01*
X343565Y313431D01*
X343524Y313509D01*
X343479Y313586D01*
X343431Y313660D01*
X343380Y313733D01*
X343326Y313803D01*
X343268Y313870D01*
X343208Y313936D01*
X343146Y313998D01*
X343080Y314058D01*
X343013Y314116D01*
X342943Y314170D01*
X342870Y314221D01*
X342796Y314269D01*
X342719Y314314D01*
X342641Y314355D01*
X342561Y314394D01*
X342480Y314428D01*
X342397Y314460D01*
X342312Y314487D01*
X342227Y314512D01*
X342141Y314532D01*
X342054Y314549D01*
X341966Y314562D01*
X341878Y314571D01*
X341790Y314577D01*
X341701Y314579D01*
X340656Y314579D01*
X340567Y314577D01*
X340479Y314571D01*
X340391Y314562D01*
X340303Y314549D01*
X340216Y314532D01*
X340130Y314512D01*
X340045Y314487D01*
X339960Y314460D01*
X339877Y314428D01*
X339796Y314394D01*
X339716Y314355D01*
X339638Y314314D01*
X339561Y314269D01*
X339487Y314221D01*
X339414Y314170D01*
X339344Y314116D01*
X339277Y314058D01*
X339211Y313998D01*
X339149Y313936D01*
X339089Y313870D01*
X339031Y313803D01*
X338977Y313733D01*
X338926Y313660D01*
X338878Y313586D01*
X338833Y313509D01*
X338792Y313431D01*
X338753Y313351D01*
X338719Y313270D01*
X338687Y313187D01*
X338660Y313102D01*
X338635Y313017D01*
X338615Y312931D01*
X338598Y312844D01*
X338585Y312756D01*
X338576Y312668D01*
X338570Y312580D01*
X338568Y312491D01*
X338568Y309358D01*
X334391Y309358D01*
X334391Y314579D01*
X343789Y321327D02*
X343789Y323415D01*
X343789Y321327D02*
X343787Y321238D01*
X343781Y321150D01*
X343772Y321062D01*
X343759Y320974D01*
X343742Y320887D01*
X343722Y320801D01*
X343697Y320716D01*
X343670Y320631D01*
X343638Y320548D01*
X343604Y320467D01*
X343565Y320387D01*
X343524Y320309D01*
X343479Y320232D01*
X343431Y320158D01*
X343380Y320085D01*
X343326Y320015D01*
X343268Y319948D01*
X343208Y319882D01*
X343146Y319820D01*
X343080Y319760D01*
X343013Y319702D01*
X342943Y319648D01*
X342870Y319597D01*
X342796Y319549D01*
X342719Y319504D01*
X342641Y319463D01*
X342561Y319424D01*
X342480Y319390D01*
X342397Y319358D01*
X342312Y319331D01*
X342227Y319306D01*
X342141Y319286D01*
X342054Y319269D01*
X341966Y319256D01*
X341878Y319247D01*
X341790Y319241D01*
X341701Y319239D01*
X341701Y319238D02*
X336479Y319238D01*
X336388Y319240D01*
X336297Y319246D01*
X336206Y319256D01*
X336116Y319270D01*
X336027Y319288D01*
X335938Y319309D01*
X335851Y319335D01*
X335765Y319364D01*
X335680Y319397D01*
X335596Y319434D01*
X335514Y319474D01*
X335435Y319518D01*
X335357Y319565D01*
X335281Y319616D01*
X335207Y319670D01*
X335136Y319727D01*
X335068Y319787D01*
X335002Y319850D01*
X334939Y319916D01*
X334879Y319984D01*
X334822Y320055D01*
X334768Y320129D01*
X334717Y320205D01*
X334670Y320282D01*
X334626Y320362D01*
X334586Y320444D01*
X334549Y320528D01*
X334516Y320612D01*
X334487Y320699D01*
X334461Y320786D01*
X334440Y320875D01*
X334422Y320964D01*
X334408Y321054D01*
X334398Y321145D01*
X334392Y321236D01*
X334390Y321327D01*
X334391Y321327D02*
X334391Y323415D01*
X334391Y329756D02*
X334393Y329851D01*
X334399Y329945D01*
X334408Y330039D01*
X334421Y330133D01*
X334438Y330226D01*
X334459Y330318D01*
X334484Y330410D01*
X334512Y330500D01*
X334544Y330589D01*
X334579Y330677D01*
X334618Y330763D01*
X334660Y330848D01*
X334706Y330931D01*
X334755Y331012D01*
X334807Y331091D01*
X334862Y331168D01*
X334921Y331242D01*
X334982Y331314D01*
X335046Y331384D01*
X335113Y331451D01*
X335183Y331515D01*
X335255Y331576D01*
X335329Y331635D01*
X335406Y331690D01*
X335485Y331742D01*
X335566Y331791D01*
X335649Y331837D01*
X335734Y331879D01*
X335820Y331918D01*
X335908Y331953D01*
X335997Y331985D01*
X336087Y332013D01*
X336179Y332038D01*
X336271Y332059D01*
X336364Y332076D01*
X336458Y332089D01*
X336552Y332098D01*
X336646Y332104D01*
X336741Y332106D01*
X334391Y329756D02*
X334393Y329648D01*
X334399Y329539D01*
X334409Y329431D01*
X334422Y329324D01*
X334440Y329217D01*
X334461Y329110D01*
X334486Y329005D01*
X334515Y328900D01*
X334547Y328797D01*
X334584Y328695D01*
X334624Y328594D01*
X334667Y328495D01*
X334714Y328397D01*
X334765Y328301D01*
X334819Y328207D01*
X334876Y328115D01*
X334937Y328025D01*
X335001Y327937D01*
X335067Y327852D01*
X335137Y327769D01*
X335210Y327689D01*
X335286Y327611D01*
X335364Y327536D01*
X335445Y327464D01*
X335529Y327395D01*
X335615Y327329D01*
X335703Y327266D01*
X335794Y327207D01*
X335886Y327150D01*
X335981Y327097D01*
X336078Y327048D01*
X336176Y327002D01*
X336275Y326959D01*
X336377Y326920D01*
X336479Y326885D01*
X338569Y331322D02*
X338500Y331391D01*
X338429Y331457D01*
X338356Y331521D01*
X338280Y331582D01*
X338201Y331640D01*
X338121Y331694D01*
X338038Y331746D01*
X337954Y331794D01*
X337868Y331840D01*
X337780Y331881D01*
X337690Y331920D01*
X337599Y331955D01*
X337507Y331986D01*
X337414Y332014D01*
X337320Y332038D01*
X337225Y332058D01*
X337129Y332075D01*
X337032Y332088D01*
X336935Y332097D01*
X336838Y332103D01*
X336741Y332105D01*
X338568Y331322D02*
X343789Y326884D01*
X343789Y332105D01*
X336741Y341250D02*
X336646Y341248D01*
X336552Y341242D01*
X336458Y341233D01*
X336364Y341220D01*
X336271Y341203D01*
X336179Y341182D01*
X336087Y341157D01*
X335997Y341129D01*
X335908Y341097D01*
X335820Y341062D01*
X335734Y341023D01*
X335649Y340981D01*
X335566Y340935D01*
X335485Y340886D01*
X335406Y340834D01*
X335329Y340779D01*
X335255Y340720D01*
X335183Y340659D01*
X335113Y340595D01*
X335046Y340528D01*
X334982Y340458D01*
X334921Y340386D01*
X334862Y340312D01*
X334807Y340235D01*
X334755Y340156D01*
X334706Y340075D01*
X334660Y339992D01*
X334618Y339907D01*
X334579Y339821D01*
X334544Y339733D01*
X334512Y339644D01*
X334484Y339554D01*
X334459Y339462D01*
X334438Y339370D01*
X334421Y339277D01*
X334408Y339183D01*
X334399Y339089D01*
X334393Y338995D01*
X334391Y338900D01*
X334393Y338792D01*
X334399Y338683D01*
X334409Y338575D01*
X334422Y338468D01*
X334440Y338361D01*
X334461Y338254D01*
X334486Y338149D01*
X334515Y338044D01*
X334547Y337941D01*
X334584Y337839D01*
X334624Y337738D01*
X334667Y337639D01*
X334714Y337541D01*
X334765Y337445D01*
X334819Y337351D01*
X334876Y337259D01*
X334937Y337169D01*
X335001Y337081D01*
X335067Y336996D01*
X335137Y336913D01*
X335210Y336833D01*
X335286Y336755D01*
X335364Y336680D01*
X335445Y336608D01*
X335529Y336539D01*
X335615Y336473D01*
X335703Y336410D01*
X335794Y336351D01*
X335886Y336294D01*
X335981Y336241D01*
X336078Y336192D01*
X336176Y336146D01*
X336275Y336103D01*
X336377Y336064D01*
X336479Y336029D01*
X338569Y340466D02*
X338500Y340535D01*
X338429Y340601D01*
X338356Y340665D01*
X338280Y340726D01*
X338201Y340784D01*
X338121Y340838D01*
X338038Y340890D01*
X337954Y340938D01*
X337868Y340984D01*
X337780Y341025D01*
X337690Y341064D01*
X337599Y341099D01*
X337507Y341130D01*
X337414Y341158D01*
X337320Y341182D01*
X337225Y341202D01*
X337129Y341219D01*
X337032Y341232D01*
X336935Y341241D01*
X336838Y341247D01*
X336741Y341249D01*
X338568Y340466D02*
X343789Y336028D01*
X343789Y341249D01*
D127*
X341965Y244094D02*
X340384Y244094D01*
X340306Y244096D01*
X340229Y244102D01*
X340152Y244111D01*
X340076Y244124D01*
X340000Y244141D01*
X339925Y244162D01*
X339852Y244186D01*
X339779Y244214D01*
X339708Y244246D01*
X339639Y244281D01*
X339572Y244319D01*
X339506Y244360D01*
X339443Y244405D01*
X339382Y244453D01*
X339323Y244503D01*
X339267Y244557D01*
X339213Y244613D01*
X339163Y244672D01*
X339115Y244733D01*
X339070Y244796D01*
X339029Y244862D01*
X338991Y244929D01*
X338956Y244998D01*
X338924Y245069D01*
X338896Y245142D01*
X338872Y245215D01*
X338851Y245290D01*
X338834Y245366D01*
X338821Y245442D01*
X338812Y245519D01*
X338806Y245596D01*
X338804Y245674D01*
X338804Y249626D01*
X338806Y249704D01*
X338812Y249781D01*
X338821Y249858D01*
X338834Y249934D01*
X338851Y250010D01*
X338872Y250085D01*
X338896Y250158D01*
X338924Y250231D01*
X338956Y250302D01*
X338991Y250371D01*
X339029Y250438D01*
X339070Y250504D01*
X339115Y250567D01*
X339163Y250628D01*
X339213Y250687D01*
X339267Y250743D01*
X339323Y250797D01*
X339382Y250847D01*
X339443Y250895D01*
X339506Y250940D01*
X339572Y250981D01*
X339639Y251019D01*
X339708Y251054D01*
X339779Y251086D01*
X339852Y251114D01*
X339925Y251138D01*
X340000Y251159D01*
X340076Y251176D01*
X340152Y251189D01*
X340229Y251198D01*
X340306Y251204D01*
X340384Y251206D01*
X341965Y251206D01*
X346710Y251206D02*
X346792Y251204D01*
X346874Y251198D01*
X346956Y251189D01*
X347037Y251176D01*
X347117Y251159D01*
X347197Y251138D01*
X347275Y251114D01*
X347352Y251086D01*
X347428Y251055D01*
X347503Y251020D01*
X347575Y250981D01*
X347646Y250940D01*
X347715Y250895D01*
X347781Y250847D01*
X347846Y250796D01*
X347908Y250742D01*
X347967Y250685D01*
X348024Y250626D01*
X348078Y250564D01*
X348129Y250499D01*
X348177Y250433D01*
X348222Y250364D01*
X348263Y250293D01*
X348302Y250221D01*
X348337Y250146D01*
X348368Y250070D01*
X348396Y249993D01*
X348420Y249915D01*
X348441Y249835D01*
X348458Y249755D01*
X348471Y249674D01*
X348480Y249592D01*
X348486Y249510D01*
X348488Y249428D01*
X346710Y251206D02*
X346617Y251204D01*
X346525Y251198D01*
X346433Y251189D01*
X346341Y251176D01*
X346250Y251159D01*
X346160Y251139D01*
X346070Y251115D01*
X345982Y251087D01*
X345894Y251055D01*
X345809Y251021D01*
X345724Y250982D01*
X345642Y250941D01*
X345561Y250896D01*
X345481Y250847D01*
X345404Y250796D01*
X345329Y250742D01*
X345257Y250684D01*
X345187Y250624D01*
X345119Y250560D01*
X345054Y250495D01*
X344991Y250426D01*
X344932Y250355D01*
X344875Y250282D01*
X344821Y250206D01*
X344771Y250129D01*
X344723Y250049D01*
X344679Y249968D01*
X344639Y249884D01*
X344601Y249800D01*
X344567Y249713D01*
X344537Y249626D01*
X347895Y248045D02*
X347956Y248106D01*
X348014Y248169D01*
X348069Y248235D01*
X348122Y248303D01*
X348171Y248374D01*
X348216Y248446D01*
X348259Y248521D01*
X348298Y248597D01*
X348334Y248676D01*
X348366Y248755D01*
X348394Y248836D01*
X348419Y248919D01*
X348440Y249002D01*
X348457Y249086D01*
X348471Y249171D01*
X348480Y249256D01*
X348486Y249342D01*
X348488Y249428D01*
X347895Y248045D02*
X344537Y244094D01*
X348488Y244094D01*
X351395Y244094D02*
X353370Y244094D01*
X353457Y244096D01*
X353545Y244102D01*
X353632Y244111D01*
X353718Y244125D01*
X353804Y244142D01*
X353888Y244163D01*
X353972Y244188D01*
X354055Y244217D01*
X354136Y244249D01*
X354216Y244284D01*
X354294Y244323D01*
X354371Y244366D01*
X354445Y244412D01*
X354517Y244461D01*
X354587Y244513D01*
X354655Y244569D01*
X354720Y244627D01*
X354783Y244688D01*
X354842Y244752D01*
X354899Y244819D01*
X354953Y244887D01*
X355004Y244959D01*
X355051Y245032D01*
X355096Y245107D01*
X355137Y245185D01*
X355174Y245264D01*
X355208Y245344D01*
X355238Y245426D01*
X355265Y245509D01*
X355288Y245594D01*
X355307Y245679D01*
X355322Y245765D01*
X355334Y245852D01*
X355342Y245939D01*
X355346Y246026D01*
X355346Y246114D01*
X355342Y246201D01*
X355334Y246288D01*
X355322Y246375D01*
X355307Y246461D01*
X355288Y246546D01*
X355265Y246631D01*
X355238Y246714D01*
X355208Y246796D01*
X355174Y246876D01*
X355137Y246955D01*
X355096Y247033D01*
X355051Y247108D01*
X355004Y247181D01*
X354953Y247253D01*
X354899Y247321D01*
X354842Y247388D01*
X354783Y247452D01*
X354720Y247513D01*
X354655Y247571D01*
X354587Y247627D01*
X354517Y247679D01*
X354445Y247728D01*
X354371Y247774D01*
X354294Y247817D01*
X354216Y247856D01*
X354136Y247891D01*
X354055Y247923D01*
X353972Y247952D01*
X353888Y247977D01*
X353804Y247998D01*
X353718Y248015D01*
X353632Y248029D01*
X353545Y248038D01*
X353457Y248044D01*
X353370Y248046D01*
X353766Y251206D02*
X351395Y251206D01*
X353766Y251206D02*
X353845Y251204D01*
X353923Y251198D01*
X354001Y251188D01*
X354079Y251175D01*
X354156Y251157D01*
X354232Y251136D01*
X354306Y251111D01*
X354380Y251082D01*
X354452Y251050D01*
X354522Y251014D01*
X354590Y250974D01*
X354656Y250931D01*
X354720Y250885D01*
X354782Y250836D01*
X354841Y250784D01*
X354897Y250729D01*
X354951Y250671D01*
X355001Y250611D01*
X355049Y250548D01*
X355093Y250483D01*
X355134Y250416D01*
X355172Y250347D01*
X355206Y250276D01*
X355237Y250203D01*
X355264Y250129D01*
X355287Y250054D01*
X355306Y249978D01*
X355322Y249900D01*
X355334Y249822D01*
X355342Y249744D01*
X355346Y249665D01*
X355346Y249587D01*
X355342Y249508D01*
X355334Y249430D01*
X355322Y249352D01*
X355306Y249274D01*
X355287Y249198D01*
X355264Y249123D01*
X355237Y249049D01*
X355206Y248976D01*
X355172Y248905D01*
X355134Y248836D01*
X355093Y248769D01*
X355049Y248704D01*
X355001Y248641D01*
X354951Y248581D01*
X354897Y248523D01*
X354841Y248468D01*
X354782Y248416D01*
X354720Y248367D01*
X354656Y248321D01*
X354590Y248278D01*
X354522Y248238D01*
X354452Y248202D01*
X354380Y248170D01*
X354306Y248141D01*
X354232Y248116D01*
X354156Y248095D01*
X354079Y248077D01*
X354001Y248064D01*
X353923Y248054D01*
X353845Y248048D01*
X353766Y248046D01*
X353766Y248045D02*
X352185Y248045D01*
D11*
X356667Y435445D02*
X336537Y435445D01*
D123*
X339019Y437261D02*
X341108Y437261D01*
X339019Y437261D02*
X338930Y437263D01*
X338842Y437269D01*
X338754Y437278D01*
X338666Y437291D01*
X338579Y437308D01*
X338493Y437328D01*
X338408Y437353D01*
X338323Y437380D01*
X338240Y437412D01*
X338159Y437446D01*
X338079Y437485D01*
X338001Y437526D01*
X337924Y437571D01*
X337850Y437619D01*
X337777Y437670D01*
X337707Y437724D01*
X337640Y437782D01*
X337574Y437842D01*
X337512Y437904D01*
X337452Y437970D01*
X337394Y438037D01*
X337340Y438107D01*
X337289Y438180D01*
X337241Y438254D01*
X337196Y438331D01*
X337155Y438409D01*
X337116Y438489D01*
X337082Y438570D01*
X337050Y438653D01*
X337023Y438738D01*
X336998Y438823D01*
X336978Y438909D01*
X336961Y438996D01*
X336948Y439084D01*
X336939Y439172D01*
X336933Y439260D01*
X336931Y439349D01*
X336931Y444571D01*
X336933Y444662D01*
X336939Y444753D01*
X336949Y444844D01*
X336963Y444934D01*
X336980Y445023D01*
X337002Y445111D01*
X337028Y445199D01*
X337057Y445285D01*
X337090Y445370D01*
X337127Y445453D01*
X337167Y445535D01*
X337211Y445615D01*
X337258Y445693D01*
X337309Y445769D01*
X337362Y445842D01*
X337419Y445913D01*
X337480Y445982D01*
X337543Y446047D01*
X337608Y446110D01*
X337677Y446170D01*
X337748Y446228D01*
X337821Y446281D01*
X337897Y446332D01*
X337975Y446379D01*
X338055Y446423D01*
X338137Y446463D01*
X338220Y446500D01*
X338305Y446533D01*
X338391Y446562D01*
X338479Y446588D01*
X338567Y446610D01*
X338656Y446627D01*
X338746Y446641D01*
X338837Y446651D01*
X338928Y446657D01*
X339019Y446659D01*
X341108Y446659D01*
X347448Y446660D02*
X347543Y446658D01*
X347637Y446652D01*
X347731Y446643D01*
X347825Y446630D01*
X347918Y446613D01*
X348010Y446592D01*
X348102Y446567D01*
X348192Y446539D01*
X348281Y446507D01*
X348369Y446472D01*
X348455Y446433D01*
X348540Y446391D01*
X348623Y446345D01*
X348704Y446296D01*
X348783Y446244D01*
X348860Y446189D01*
X348934Y446130D01*
X349006Y446069D01*
X349076Y446005D01*
X349143Y445938D01*
X349207Y445868D01*
X349268Y445796D01*
X349327Y445722D01*
X349382Y445645D01*
X349434Y445566D01*
X349483Y445485D01*
X349529Y445402D01*
X349571Y445317D01*
X349610Y445231D01*
X349645Y445143D01*
X349677Y445054D01*
X349705Y444964D01*
X349730Y444872D01*
X349751Y444780D01*
X349768Y444687D01*
X349781Y444593D01*
X349790Y444499D01*
X349796Y444405D01*
X349798Y444310D01*
X347448Y446659D02*
X347340Y446657D01*
X347231Y446651D01*
X347123Y446641D01*
X347016Y446628D01*
X346909Y446610D01*
X346802Y446589D01*
X346697Y446564D01*
X346592Y446535D01*
X346489Y446503D01*
X346387Y446466D01*
X346286Y446426D01*
X346187Y446383D01*
X346089Y446336D01*
X345993Y446285D01*
X345899Y446231D01*
X345807Y446174D01*
X345717Y446113D01*
X345629Y446049D01*
X345544Y445983D01*
X345461Y445913D01*
X345381Y445840D01*
X345303Y445764D01*
X345228Y445686D01*
X345156Y445605D01*
X345087Y445521D01*
X345021Y445435D01*
X344958Y445347D01*
X344899Y445256D01*
X344842Y445164D01*
X344789Y445069D01*
X344740Y444973D01*
X344694Y444874D01*
X344651Y444775D01*
X344612Y444673D01*
X344577Y444571D01*
X349015Y442482D02*
X349084Y442551D01*
X349150Y442622D01*
X349214Y442695D01*
X349275Y442771D01*
X349333Y442850D01*
X349387Y442930D01*
X349439Y443013D01*
X349487Y443097D01*
X349533Y443183D01*
X349574Y443271D01*
X349613Y443361D01*
X349648Y443452D01*
X349679Y443544D01*
X349707Y443637D01*
X349731Y443731D01*
X349751Y443826D01*
X349768Y443922D01*
X349781Y444019D01*
X349790Y444116D01*
X349796Y444213D01*
X349798Y444310D01*
X349015Y442482D02*
X344577Y437261D01*
X349798Y437261D01*
X353721Y439349D02*
X355809Y446659D01*
X353721Y439349D02*
X358942Y439349D01*
X357375Y437261D02*
X357375Y441438D01*
D126*
X363710Y386110D02*
X363710Y358110D01*
X329710Y358110D02*
X329710Y386110D01*
D128*
X337210Y346340D03*
D123*
X325758Y366461D02*
X318971Y366461D01*
X325758Y366461D02*
X325859Y366463D01*
X325960Y366469D01*
X326061Y366479D01*
X326161Y366492D01*
X326261Y366510D01*
X326360Y366531D01*
X326458Y366557D01*
X326555Y366586D01*
X326651Y366618D01*
X326745Y366655D01*
X326838Y366695D01*
X326930Y366739D01*
X327019Y366786D01*
X327107Y366837D01*
X327193Y366891D01*
X327276Y366948D01*
X327358Y367008D01*
X327436Y367072D01*
X327513Y367138D01*
X327586Y367208D01*
X327657Y367280D01*
X327725Y367355D01*
X327790Y367433D01*
X327852Y367513D01*
X327911Y367595D01*
X327967Y367680D01*
X328019Y367767D01*
X328068Y367855D01*
X328114Y367946D01*
X328155Y368038D01*
X328194Y368132D01*
X328228Y368227D01*
X328259Y368323D01*
X328286Y368421D01*
X328310Y368519D01*
X328329Y368619D01*
X328345Y368719D01*
X328357Y368819D01*
X328365Y368920D01*
X328369Y369021D01*
X328369Y369123D01*
X328365Y369224D01*
X328357Y369325D01*
X328345Y369425D01*
X328329Y369525D01*
X328310Y369625D01*
X328286Y369723D01*
X328259Y369821D01*
X328228Y369917D01*
X328194Y370012D01*
X328155Y370106D01*
X328114Y370198D01*
X328068Y370289D01*
X328019Y370377D01*
X327967Y370464D01*
X327911Y370549D01*
X327852Y370631D01*
X327790Y370711D01*
X327725Y370789D01*
X327657Y370864D01*
X327586Y370936D01*
X327513Y371006D01*
X327436Y371072D01*
X327358Y371136D01*
X327276Y371196D01*
X327193Y371253D01*
X327107Y371307D01*
X327019Y371358D01*
X326930Y371405D01*
X326838Y371449D01*
X326745Y371489D01*
X326651Y371526D01*
X326555Y371558D01*
X326458Y371587D01*
X326360Y371613D01*
X326261Y371634D01*
X326161Y371652D01*
X326061Y371665D01*
X325960Y371675D01*
X325859Y371681D01*
X325758Y371683D01*
X325758Y371682D02*
X318971Y371682D01*
X318971Y377998D02*
X326281Y375910D01*
X326281Y381131D01*
X324192Y379565D02*
X328369Y379565D01*
D11*
X394843Y237236D02*
X394843Y232664D01*
X373507Y232664D02*
X373507Y237236D01*
X376301Y236220D02*
X376345Y236120D01*
X376385Y236019D01*
X376421Y235916D01*
X376453Y235811D01*
X376482Y235706D01*
X376507Y235600D01*
X376529Y235493D01*
X376546Y235385D01*
X376560Y235277D01*
X376569Y235168D01*
X376575Y235059D01*
X376577Y234950D01*
X376575Y234841D01*
X376569Y234732D01*
X376560Y234623D01*
X376546Y234515D01*
X376529Y234407D01*
X376507Y234300D01*
X376482Y234194D01*
X376453Y234089D01*
X376421Y233984D01*
X376385Y233881D01*
X376345Y233780D01*
X376301Y233680D01*
D123*
X370515Y220183D02*
X366536Y220183D01*
X370515Y220183D02*
X373500Y222504D01*
X370515Y220183D02*
X373500Y217861D01*
X370515Y220183D02*
X369189Y223830D01*
X370515Y220183D02*
X369189Y216535D01*
X369499Y228473D02*
X362712Y228473D01*
X369499Y228473D02*
X369600Y228475D01*
X369701Y228481D01*
X369802Y228491D01*
X369902Y228504D01*
X370002Y228522D01*
X370101Y228543D01*
X370199Y228569D01*
X370296Y228598D01*
X370392Y228630D01*
X370486Y228667D01*
X370579Y228707D01*
X370671Y228751D01*
X370760Y228798D01*
X370848Y228849D01*
X370934Y228903D01*
X371017Y228960D01*
X371099Y229020D01*
X371177Y229084D01*
X371254Y229150D01*
X371327Y229220D01*
X371398Y229292D01*
X371466Y229367D01*
X371531Y229445D01*
X371593Y229525D01*
X371652Y229607D01*
X371708Y229692D01*
X371760Y229778D01*
X371809Y229867D01*
X371855Y229958D01*
X371896Y230050D01*
X371935Y230144D01*
X371969Y230239D01*
X372000Y230335D01*
X372027Y230433D01*
X372051Y230531D01*
X372070Y230631D01*
X372086Y230731D01*
X372098Y230831D01*
X372106Y230932D01*
X372110Y231033D01*
X372110Y231135D01*
X372106Y231236D01*
X372098Y231337D01*
X372086Y231437D01*
X372070Y231537D01*
X372051Y231637D01*
X372027Y231735D01*
X372000Y231833D01*
X371969Y231929D01*
X371935Y232024D01*
X371896Y232118D01*
X371855Y232210D01*
X371809Y232301D01*
X371760Y232389D01*
X371708Y232476D01*
X371652Y232561D01*
X371593Y232643D01*
X371531Y232723D01*
X371466Y232801D01*
X371398Y232876D01*
X371327Y232948D01*
X371254Y233018D01*
X371177Y233084D01*
X371099Y233148D01*
X371017Y233208D01*
X370934Y233265D01*
X370848Y233319D01*
X370760Y233370D01*
X370671Y233417D01*
X370579Y233461D01*
X370486Y233501D01*
X370392Y233538D01*
X370296Y233570D01*
X370199Y233599D01*
X370101Y233625D01*
X370002Y233646D01*
X369902Y233664D01*
X369802Y233677D01*
X369701Y233687D01*
X369600Y233693D01*
X369499Y233695D01*
X369499Y233694D02*
X362712Y233694D01*
X362712Y240793D02*
X362714Y240888D01*
X362720Y240982D01*
X362729Y241076D01*
X362742Y241170D01*
X362759Y241263D01*
X362780Y241355D01*
X362805Y241447D01*
X362833Y241537D01*
X362865Y241626D01*
X362900Y241714D01*
X362939Y241800D01*
X362981Y241885D01*
X363027Y241968D01*
X363076Y242049D01*
X363128Y242128D01*
X363183Y242205D01*
X363242Y242279D01*
X363303Y242351D01*
X363367Y242421D01*
X363434Y242488D01*
X363504Y242552D01*
X363576Y242613D01*
X363650Y242672D01*
X363727Y242727D01*
X363806Y242779D01*
X363887Y242828D01*
X363970Y242874D01*
X364055Y242916D01*
X364141Y242955D01*
X364229Y242990D01*
X364318Y243022D01*
X364408Y243050D01*
X364500Y243075D01*
X364592Y243096D01*
X364685Y243113D01*
X364779Y243126D01*
X364873Y243135D01*
X364967Y243141D01*
X365062Y243143D01*
X362712Y240793D02*
X362714Y240685D01*
X362720Y240576D01*
X362730Y240468D01*
X362743Y240361D01*
X362761Y240254D01*
X362782Y240147D01*
X362807Y240042D01*
X362836Y239937D01*
X362868Y239834D01*
X362905Y239732D01*
X362945Y239631D01*
X362988Y239532D01*
X363035Y239434D01*
X363086Y239338D01*
X363140Y239244D01*
X363197Y239152D01*
X363258Y239062D01*
X363322Y238974D01*
X363388Y238889D01*
X363458Y238806D01*
X363531Y238726D01*
X363607Y238648D01*
X363685Y238573D01*
X363766Y238501D01*
X363850Y238432D01*
X363936Y238366D01*
X364024Y238303D01*
X364115Y238244D01*
X364207Y238187D01*
X364302Y238134D01*
X364399Y238085D01*
X364497Y238039D01*
X364596Y237996D01*
X364698Y237957D01*
X364800Y237922D01*
X366890Y242360D02*
X366821Y242429D01*
X366750Y242495D01*
X366677Y242559D01*
X366601Y242620D01*
X366522Y242678D01*
X366442Y242732D01*
X366359Y242784D01*
X366275Y242832D01*
X366189Y242878D01*
X366101Y242919D01*
X366011Y242958D01*
X365920Y242993D01*
X365828Y243024D01*
X365735Y243052D01*
X365641Y243076D01*
X365546Y243096D01*
X365450Y243113D01*
X365353Y243126D01*
X365256Y243135D01*
X365159Y243141D01*
X365062Y243143D01*
X366889Y242360D02*
X372110Y237922D01*
X372110Y243143D01*
M02*
