G04 EAGLE Gerber RS-274X export*
G75*
%MOMM*%
%FSLAX34Y34*%
%LPD*%
%INSilkscreen Bottom*%
%IPPOS*%
%AMOC8*
5,1,8,0,0,1.08239X$1,22.5*%
G01*
%ADD10C,0.152400*%
%ADD11C,0.101600*%
%ADD12C,0.076200*%
%ADD13C,0.127000*%
%ADD14C,0.254000*%
%ADD15C,0.150000*%
%ADD16C,0.500000*%


D10*
X471995Y333078D02*
X471995Y338017D01*
X471993Y338157D01*
X471987Y338296D01*
X471977Y338436D01*
X471963Y338575D01*
X471946Y338714D01*
X471924Y338852D01*
X471898Y338989D01*
X471869Y339126D01*
X471836Y339262D01*
X471799Y339396D01*
X471758Y339530D01*
X471713Y339662D01*
X471664Y339794D01*
X471612Y339923D01*
X471557Y340051D01*
X471497Y340178D01*
X471434Y340303D01*
X471368Y340426D01*
X471298Y340547D01*
X471225Y340666D01*
X471148Y340783D01*
X471068Y340897D01*
X470985Y341010D01*
X470899Y341120D01*
X470809Y341227D01*
X470717Y341332D01*
X470622Y341434D01*
X470524Y341534D01*
X470423Y341631D01*
X470319Y341725D01*
X470213Y341815D01*
X470104Y341903D01*
X469993Y341988D01*
X469879Y342069D01*
X469764Y342148D01*
X469646Y342223D01*
X469526Y342294D01*
X469403Y342362D01*
X469280Y342427D01*
X469154Y342488D01*
X469026Y342546D01*
X468898Y342600D01*
X468767Y342650D01*
X468635Y342697D01*
X468502Y342740D01*
X468368Y342779D01*
X468233Y342814D01*
X468097Y342845D01*
X467959Y342873D01*
X467822Y342896D01*
X467683Y342916D01*
X467544Y342932D01*
X467405Y342944D01*
X467266Y342952D01*
X467126Y342956D01*
X466986Y342956D01*
X466846Y342952D01*
X466707Y342944D01*
X466568Y342932D01*
X466429Y342916D01*
X466290Y342896D01*
X466153Y342873D01*
X466015Y342845D01*
X465879Y342814D01*
X465744Y342779D01*
X465610Y342740D01*
X465477Y342697D01*
X465345Y342650D01*
X465214Y342600D01*
X465086Y342546D01*
X464958Y342488D01*
X464832Y342427D01*
X464709Y342362D01*
X464587Y342294D01*
X464466Y342223D01*
X464348Y342148D01*
X464233Y342069D01*
X464119Y341988D01*
X464008Y341903D01*
X463899Y341815D01*
X463793Y341725D01*
X463689Y341631D01*
X463588Y341534D01*
X463490Y341434D01*
X463395Y341332D01*
X463303Y341227D01*
X463213Y341120D01*
X463127Y341010D01*
X463044Y340897D01*
X462964Y340783D01*
X462887Y340666D01*
X462814Y340547D01*
X462744Y340426D01*
X462678Y340303D01*
X462615Y340178D01*
X462555Y340051D01*
X462500Y339923D01*
X462448Y339794D01*
X462399Y339662D01*
X462354Y339530D01*
X462313Y339396D01*
X462276Y339262D01*
X462243Y339126D01*
X462214Y338989D01*
X462188Y338852D01*
X462166Y338714D01*
X462149Y338575D01*
X462135Y338436D01*
X462125Y338296D01*
X462119Y338157D01*
X462117Y338017D01*
X462117Y333078D01*
X479897Y333078D01*
X479897Y338017D01*
X479895Y338141D01*
X479889Y338265D01*
X479879Y338389D01*
X479866Y338512D01*
X479848Y338635D01*
X479827Y338757D01*
X479802Y338879D01*
X479773Y339000D01*
X479740Y339119D01*
X479704Y339238D01*
X479663Y339355D01*
X479620Y339471D01*
X479572Y339586D01*
X479521Y339699D01*
X479466Y339811D01*
X479408Y339920D01*
X479347Y340028D01*
X479282Y340134D01*
X479214Y340238D01*
X479142Y340339D01*
X479068Y340439D01*
X478990Y340535D01*
X478910Y340630D01*
X478826Y340722D01*
X478740Y340811D01*
X478651Y340897D01*
X478559Y340981D01*
X478464Y341061D01*
X478368Y341139D01*
X478268Y341213D01*
X478167Y341285D01*
X478063Y341353D01*
X477957Y341418D01*
X477849Y341479D01*
X477740Y341537D01*
X477628Y341592D01*
X477515Y341643D01*
X477400Y341691D01*
X477284Y341734D01*
X477167Y341775D01*
X477048Y341811D01*
X476929Y341844D01*
X476808Y341873D01*
X476686Y341898D01*
X476564Y341919D01*
X476441Y341937D01*
X476318Y341950D01*
X476194Y341960D01*
X476070Y341966D01*
X475946Y341968D01*
X475822Y341966D01*
X475698Y341960D01*
X475574Y341950D01*
X475451Y341937D01*
X475328Y341919D01*
X475206Y341898D01*
X475084Y341873D01*
X474963Y341844D01*
X474844Y341811D01*
X474725Y341775D01*
X474608Y341734D01*
X474492Y341691D01*
X474377Y341643D01*
X474264Y341592D01*
X474152Y341537D01*
X474043Y341479D01*
X473935Y341418D01*
X473829Y341353D01*
X473725Y341285D01*
X473624Y341213D01*
X473524Y341139D01*
X473428Y341061D01*
X473333Y340981D01*
X473241Y340897D01*
X473152Y340811D01*
X473066Y340722D01*
X472982Y340630D01*
X472902Y340535D01*
X472824Y340439D01*
X472750Y340339D01*
X472678Y340238D01*
X472610Y340134D01*
X472545Y340028D01*
X472484Y339920D01*
X472426Y339811D01*
X472371Y339699D01*
X472320Y339586D01*
X472272Y339471D01*
X472229Y339355D01*
X472188Y339238D01*
X472152Y339119D01*
X472119Y339000D01*
X472090Y338879D01*
X472065Y338757D01*
X472044Y338635D01*
X472026Y338512D01*
X472013Y338389D01*
X472003Y338265D01*
X471997Y338141D01*
X471995Y338017D01*
X490542Y326410D02*
X490542Y308630D01*
X490542Y326410D02*
X485603Y326410D01*
X485463Y326408D01*
X485324Y326402D01*
X485184Y326392D01*
X485045Y326378D01*
X484906Y326361D01*
X484768Y326339D01*
X484631Y326313D01*
X484494Y326284D01*
X484358Y326251D01*
X484224Y326214D01*
X484090Y326173D01*
X483958Y326128D01*
X483826Y326079D01*
X483697Y326027D01*
X483569Y325972D01*
X483442Y325912D01*
X483317Y325849D01*
X483194Y325783D01*
X483073Y325713D01*
X482954Y325640D01*
X482837Y325563D01*
X482723Y325483D01*
X482610Y325400D01*
X482500Y325314D01*
X482393Y325224D01*
X482288Y325132D01*
X482186Y325037D01*
X482086Y324939D01*
X481989Y324838D01*
X481895Y324734D01*
X481805Y324628D01*
X481717Y324519D01*
X481632Y324408D01*
X481551Y324294D01*
X481472Y324179D01*
X481397Y324061D01*
X481326Y323941D01*
X481258Y323818D01*
X481193Y323695D01*
X481132Y323569D01*
X481074Y323441D01*
X481020Y323313D01*
X480970Y323182D01*
X480923Y323050D01*
X480880Y322917D01*
X480841Y322783D01*
X480806Y322648D01*
X480775Y322512D01*
X480747Y322374D01*
X480724Y322237D01*
X480704Y322098D01*
X480688Y321959D01*
X480676Y321820D01*
X480668Y321681D01*
X480664Y321541D01*
X480664Y321401D01*
X480668Y321261D01*
X480676Y321122D01*
X480688Y320983D01*
X480704Y320844D01*
X480724Y320705D01*
X480747Y320568D01*
X480775Y320430D01*
X480806Y320294D01*
X480841Y320159D01*
X480880Y320025D01*
X480923Y319892D01*
X480970Y319760D01*
X481020Y319629D01*
X481074Y319501D01*
X481132Y319373D01*
X481193Y319247D01*
X481258Y319124D01*
X481326Y319002D01*
X481397Y318881D01*
X481472Y318763D01*
X481551Y318648D01*
X481632Y318534D01*
X481717Y318423D01*
X481805Y318314D01*
X481895Y318208D01*
X481989Y318104D01*
X482086Y318003D01*
X482186Y317905D01*
X482288Y317810D01*
X482393Y317718D01*
X482500Y317628D01*
X482610Y317542D01*
X482723Y317459D01*
X482837Y317379D01*
X482954Y317302D01*
X483073Y317229D01*
X483194Y317159D01*
X483317Y317093D01*
X483442Y317030D01*
X483569Y316970D01*
X483697Y316915D01*
X483826Y316863D01*
X483958Y316814D01*
X484090Y316769D01*
X484224Y316728D01*
X484358Y316691D01*
X484494Y316658D01*
X484631Y316629D01*
X484768Y316603D01*
X484906Y316581D01*
X485045Y316564D01*
X485184Y316550D01*
X485324Y316540D01*
X485463Y316534D01*
X485603Y316532D01*
X485603Y316533D02*
X490542Y316533D01*
X484616Y316533D02*
X480665Y308630D01*
X238470Y331965D02*
X238470Y349745D01*
X233532Y349745D01*
X233393Y349743D01*
X233255Y349737D01*
X233117Y349728D01*
X232979Y349714D01*
X232842Y349697D01*
X232705Y349675D01*
X232568Y349650D01*
X232433Y349621D01*
X232298Y349588D01*
X232165Y349552D01*
X232032Y349512D01*
X231901Y349468D01*
X231771Y349420D01*
X231642Y349369D01*
X231515Y349314D01*
X231389Y349256D01*
X231265Y349194D01*
X231143Y349129D01*
X231023Y349060D01*
X230904Y348988D01*
X230788Y348913D01*
X230674Y348834D01*
X230562Y348752D01*
X230453Y348667D01*
X230345Y348580D01*
X230241Y348489D01*
X230139Y348395D01*
X230040Y348298D01*
X229943Y348199D01*
X229849Y348097D01*
X229758Y347993D01*
X229671Y347885D01*
X229586Y347776D01*
X229504Y347664D01*
X229425Y347550D01*
X229350Y347434D01*
X229278Y347315D01*
X229209Y347195D01*
X229144Y347073D01*
X229082Y346949D01*
X229024Y346823D01*
X228969Y346696D01*
X228918Y346567D01*
X228870Y346437D01*
X228826Y346306D01*
X228786Y346173D01*
X228750Y346040D01*
X228717Y345905D01*
X228688Y345770D01*
X228663Y345633D01*
X228641Y345496D01*
X228624Y345359D01*
X228610Y345221D01*
X228601Y345083D01*
X228595Y344945D01*
X228593Y344806D01*
X228593Y336904D01*
X228595Y336765D01*
X228601Y336627D01*
X228610Y336489D01*
X228624Y336351D01*
X228641Y336214D01*
X228663Y336077D01*
X228688Y335940D01*
X228717Y335805D01*
X228750Y335670D01*
X228786Y335537D01*
X228826Y335404D01*
X228870Y335273D01*
X228918Y335143D01*
X228969Y335014D01*
X229024Y334887D01*
X229082Y334761D01*
X229144Y334637D01*
X229209Y334515D01*
X229278Y334395D01*
X229350Y334276D01*
X229425Y334160D01*
X229504Y334046D01*
X229586Y333934D01*
X229671Y333825D01*
X229758Y333717D01*
X229849Y333613D01*
X229943Y333511D01*
X230040Y333412D01*
X230139Y333315D01*
X230241Y333221D01*
X230345Y333130D01*
X230453Y333043D01*
X230562Y332958D01*
X230674Y332876D01*
X230788Y332797D01*
X230904Y332722D01*
X231023Y332650D01*
X231143Y332581D01*
X231265Y332516D01*
X231389Y332454D01*
X231515Y332396D01*
X231642Y332341D01*
X231771Y332290D01*
X231901Y332242D01*
X232032Y332198D01*
X232165Y332158D01*
X232298Y332122D01*
X232433Y332089D01*
X232568Y332060D01*
X232705Y332035D01*
X232842Y332013D01*
X232979Y331996D01*
X233117Y331982D01*
X233255Y331973D01*
X233393Y331967D01*
X233532Y331965D01*
X238470Y331965D01*
X233531Y354033D02*
X229580Y354033D01*
X233531Y354033D02*
X233655Y354035D01*
X233779Y354041D01*
X233903Y354051D01*
X234026Y354064D01*
X234149Y354082D01*
X234271Y354103D01*
X234393Y354128D01*
X234514Y354157D01*
X234633Y354190D01*
X234752Y354226D01*
X234869Y354267D01*
X234985Y354310D01*
X235100Y354358D01*
X235213Y354409D01*
X235325Y354464D01*
X235434Y354522D01*
X235542Y354583D01*
X235648Y354648D01*
X235752Y354716D01*
X235853Y354788D01*
X235953Y354862D01*
X236049Y354940D01*
X236144Y355020D01*
X236236Y355104D01*
X236325Y355190D01*
X236411Y355279D01*
X236495Y355371D01*
X236575Y355466D01*
X236653Y355562D01*
X236727Y355662D01*
X236799Y355763D01*
X236867Y355867D01*
X236932Y355973D01*
X236993Y356081D01*
X237051Y356190D01*
X237106Y356302D01*
X237157Y356415D01*
X237205Y356530D01*
X237248Y356646D01*
X237289Y356763D01*
X237325Y356882D01*
X237358Y357001D01*
X237387Y357122D01*
X237412Y357244D01*
X237433Y357366D01*
X237451Y357489D01*
X237464Y357612D01*
X237474Y357736D01*
X237480Y357860D01*
X237482Y357984D01*
X237482Y367862D01*
X237480Y367986D01*
X237474Y368110D01*
X237464Y368234D01*
X237451Y368357D01*
X237433Y368480D01*
X237412Y368602D01*
X237387Y368724D01*
X237358Y368845D01*
X237325Y368964D01*
X237289Y369083D01*
X237248Y369200D01*
X237205Y369316D01*
X237157Y369431D01*
X237106Y369544D01*
X237051Y369656D01*
X236993Y369765D01*
X236932Y369873D01*
X236867Y369979D01*
X236799Y370083D01*
X236727Y370184D01*
X236653Y370284D01*
X236575Y370380D01*
X236495Y370475D01*
X236411Y370567D01*
X236325Y370656D01*
X236236Y370742D01*
X236144Y370826D01*
X236049Y370906D01*
X235953Y370984D01*
X235853Y371058D01*
X235752Y371130D01*
X235648Y371198D01*
X235542Y371263D01*
X235434Y371324D01*
X235325Y371382D01*
X235213Y371437D01*
X235100Y371488D01*
X234986Y371536D01*
X234869Y371579D01*
X234752Y371620D01*
X234633Y371656D01*
X234514Y371689D01*
X234393Y371718D01*
X234271Y371743D01*
X234149Y371764D01*
X234026Y371782D01*
X233903Y371795D01*
X233779Y371805D01*
X233655Y371811D01*
X233531Y371813D01*
X229580Y371813D01*
D11*
X492049Y337254D02*
X492049Y335306D01*
X492049Y337254D02*
X485558Y337254D01*
X485558Y333359D01*
X485560Y333260D01*
X485566Y333160D01*
X485575Y333061D01*
X485588Y332963D01*
X485605Y332865D01*
X485626Y332767D01*
X485651Y332671D01*
X485679Y332576D01*
X485711Y332482D01*
X485746Y332389D01*
X485785Y332297D01*
X485828Y332207D01*
X485873Y332119D01*
X485923Y332032D01*
X485975Y331948D01*
X486031Y331865D01*
X486089Y331785D01*
X486151Y331707D01*
X486216Y331632D01*
X486284Y331559D01*
X486354Y331489D01*
X486427Y331421D01*
X486502Y331356D01*
X486580Y331294D01*
X486660Y331236D01*
X486743Y331180D01*
X486827Y331128D01*
X486914Y331078D01*
X487002Y331033D01*
X487092Y330990D01*
X487184Y330951D01*
X487277Y330916D01*
X487371Y330884D01*
X487466Y330856D01*
X487562Y330831D01*
X487660Y330810D01*
X487758Y330793D01*
X487856Y330780D01*
X487955Y330771D01*
X488055Y330765D01*
X488154Y330763D01*
X494646Y330763D01*
X494745Y330765D01*
X494845Y330771D01*
X494944Y330780D01*
X495042Y330793D01*
X495140Y330810D01*
X495238Y330831D01*
X495334Y330856D01*
X495429Y330884D01*
X495523Y330916D01*
X495616Y330951D01*
X495708Y330990D01*
X495798Y331033D01*
X495886Y331078D01*
X495973Y331128D01*
X496057Y331180D01*
X496140Y331236D01*
X496220Y331294D01*
X496298Y331356D01*
X496373Y331421D01*
X496446Y331489D01*
X496516Y331559D01*
X496584Y331632D01*
X496649Y331707D01*
X496711Y331785D01*
X496769Y331865D01*
X496825Y331948D01*
X496877Y332032D01*
X496927Y332119D01*
X496972Y332207D01*
X497015Y332297D01*
X497054Y332389D01*
X497089Y332481D01*
X497121Y332576D01*
X497149Y332671D01*
X497174Y332767D01*
X497195Y332865D01*
X497212Y332963D01*
X497225Y333061D01*
X497234Y333160D01*
X497240Y333260D01*
X497242Y333359D01*
X497242Y337254D01*
X497242Y342954D02*
X485558Y342954D01*
X485558Y349446D02*
X497242Y342954D01*
X497242Y349446D02*
X485558Y349446D01*
X485558Y355146D02*
X497242Y355146D01*
X497242Y358392D01*
X497240Y358505D01*
X497234Y358618D01*
X497224Y358731D01*
X497210Y358844D01*
X497193Y358956D01*
X497171Y359067D01*
X497146Y359177D01*
X497116Y359287D01*
X497083Y359395D01*
X497046Y359502D01*
X497006Y359608D01*
X496961Y359712D01*
X496913Y359815D01*
X496862Y359916D01*
X496807Y360015D01*
X496749Y360112D01*
X496687Y360207D01*
X496622Y360300D01*
X496554Y360390D01*
X496483Y360478D01*
X496408Y360564D01*
X496331Y360647D01*
X496251Y360727D01*
X496168Y360804D01*
X496082Y360879D01*
X495994Y360950D01*
X495904Y361018D01*
X495811Y361083D01*
X495716Y361145D01*
X495619Y361203D01*
X495520Y361258D01*
X495419Y361309D01*
X495316Y361357D01*
X495212Y361402D01*
X495106Y361442D01*
X494999Y361479D01*
X494891Y361512D01*
X494781Y361542D01*
X494671Y361567D01*
X494560Y361589D01*
X494448Y361606D01*
X494335Y361620D01*
X494222Y361630D01*
X494109Y361636D01*
X493996Y361638D01*
X488804Y361638D01*
X488691Y361636D01*
X488578Y361630D01*
X488465Y361620D01*
X488352Y361606D01*
X488240Y361589D01*
X488129Y361567D01*
X488019Y361542D01*
X487909Y361512D01*
X487801Y361479D01*
X487694Y361442D01*
X487588Y361402D01*
X487484Y361357D01*
X487381Y361309D01*
X487280Y361258D01*
X487181Y361203D01*
X487084Y361145D01*
X486989Y361083D01*
X486896Y361018D01*
X486806Y360950D01*
X486718Y360879D01*
X486632Y360804D01*
X486549Y360727D01*
X486469Y360647D01*
X486392Y360564D01*
X486317Y360478D01*
X486246Y360390D01*
X486178Y360300D01*
X486113Y360207D01*
X486051Y360112D01*
X485993Y360015D01*
X485938Y359916D01*
X485887Y359815D01*
X485839Y359712D01*
X485794Y359608D01*
X485754Y359502D01*
X485717Y359395D01*
X485684Y359287D01*
X485654Y359177D01*
X485629Y359067D01*
X485607Y358956D01*
X485590Y358844D01*
X485576Y358731D01*
X485566Y358618D01*
X485560Y358505D01*
X485558Y358392D01*
X485558Y355146D01*
X425667Y224415D02*
X424072Y223298D01*
X427795Y217981D01*
X430986Y220215D01*
X430985Y220215D02*
X431065Y220274D01*
X431143Y220336D01*
X431219Y220400D01*
X431292Y220468D01*
X431363Y220538D01*
X431430Y220611D01*
X431495Y220686D01*
X431557Y220764D01*
X431616Y220844D01*
X431672Y220926D01*
X431725Y221011D01*
X431774Y221097D01*
X431820Y221185D01*
X431863Y221275D01*
X431902Y221366D01*
X431937Y221459D01*
X431969Y221553D01*
X431998Y221649D01*
X432022Y221745D01*
X432043Y221842D01*
X432061Y221940D01*
X432074Y222039D01*
X432084Y222138D01*
X432090Y222237D01*
X432092Y222336D01*
X432090Y222436D01*
X432085Y222535D01*
X432075Y222634D01*
X432062Y222733D01*
X432046Y222831D01*
X432025Y222928D01*
X432001Y223025D01*
X431973Y223120D01*
X431941Y223214D01*
X431906Y223307D01*
X431867Y223399D01*
X431825Y223489D01*
X431779Y223577D01*
X431730Y223664D01*
X431678Y223748D01*
X431623Y223831D01*
X427900Y229148D01*
X427841Y229228D01*
X427779Y229306D01*
X427715Y229382D01*
X427647Y229455D01*
X427577Y229526D01*
X427504Y229593D01*
X427429Y229658D01*
X427351Y229720D01*
X427271Y229779D01*
X427189Y229835D01*
X427104Y229888D01*
X427018Y229937D01*
X426930Y229983D01*
X426840Y230026D01*
X426749Y230065D01*
X426656Y230100D01*
X426562Y230132D01*
X426466Y230161D01*
X426370Y230185D01*
X426273Y230206D01*
X426175Y230224D01*
X426076Y230237D01*
X425977Y230247D01*
X425878Y230253D01*
X425779Y230255D01*
X425679Y230253D01*
X425580Y230248D01*
X425481Y230239D01*
X425382Y230225D01*
X425284Y230209D01*
X425187Y230188D01*
X425090Y230164D01*
X424995Y230136D01*
X424901Y230104D01*
X424808Y230069D01*
X424716Y230030D01*
X424626Y229988D01*
X424538Y229942D01*
X424451Y229893D01*
X424367Y229841D01*
X424284Y229786D01*
X421094Y227552D01*
X416424Y224282D02*
X423125Y214711D01*
X417808Y210988D02*
X416424Y224282D01*
X411107Y220559D02*
X417808Y210988D01*
X413138Y207718D02*
X406437Y217289D01*
X403778Y215427D01*
X403778Y215428D02*
X403687Y215361D01*
X403597Y215292D01*
X403510Y215219D01*
X403426Y215143D01*
X403345Y215064D01*
X403266Y214983D01*
X403190Y214899D01*
X403117Y214812D01*
X403048Y214723D01*
X402981Y214631D01*
X402918Y214537D01*
X402858Y214441D01*
X402801Y214343D01*
X402748Y214243D01*
X402698Y214141D01*
X402652Y214037D01*
X402610Y213932D01*
X402571Y213826D01*
X402536Y213718D01*
X402505Y213609D01*
X402477Y213499D01*
X402454Y213388D01*
X402434Y213277D01*
X402418Y213165D01*
X402406Y213052D01*
X402398Y212939D01*
X402394Y212826D01*
X402394Y212712D01*
X402398Y212599D01*
X402406Y212486D01*
X402418Y212373D01*
X402434Y212261D01*
X402454Y212150D01*
X402477Y212039D01*
X402505Y211929D01*
X402536Y211820D01*
X402571Y211712D01*
X402610Y211606D01*
X402652Y211501D01*
X402698Y211397D01*
X402748Y211295D01*
X402801Y211195D01*
X402858Y211097D01*
X402918Y211001D01*
X402981Y210907D01*
X405960Y206653D01*
X405959Y206653D02*
X406026Y206562D01*
X406095Y206472D01*
X406168Y206385D01*
X406244Y206301D01*
X406323Y206220D01*
X406404Y206141D01*
X406488Y206065D01*
X406575Y205992D01*
X406665Y205923D01*
X406756Y205856D01*
X406850Y205793D01*
X406946Y205733D01*
X407044Y205676D01*
X407144Y205623D01*
X407246Y205573D01*
X407350Y205527D01*
X407455Y205485D01*
X407561Y205446D01*
X407669Y205411D01*
X407778Y205380D01*
X407888Y205352D01*
X407999Y205329D01*
X408110Y205309D01*
X408222Y205293D01*
X408335Y205281D01*
X408448Y205273D01*
X408561Y205269D01*
X408675Y205269D01*
X408788Y205273D01*
X408901Y205281D01*
X409014Y205293D01*
X409126Y205309D01*
X409237Y205329D01*
X409348Y205352D01*
X409458Y205380D01*
X409567Y205411D01*
X409675Y205446D01*
X409781Y205485D01*
X409886Y205527D01*
X409990Y205573D01*
X410092Y205623D01*
X410192Y205676D01*
X410290Y205733D01*
X410386Y205793D01*
X410480Y205856D01*
X413138Y207718D01*
X284057Y212027D02*
X282462Y213144D01*
X278738Y207827D01*
X281929Y205593D01*
X282012Y205538D01*
X282096Y205486D01*
X282183Y205437D01*
X282271Y205391D01*
X282361Y205349D01*
X282453Y205310D01*
X282546Y205275D01*
X282640Y205243D01*
X282735Y205215D01*
X282832Y205191D01*
X282929Y205170D01*
X283027Y205154D01*
X283126Y205140D01*
X283225Y205131D01*
X283324Y205126D01*
X283424Y205124D01*
X283523Y205126D01*
X283622Y205132D01*
X283721Y205142D01*
X283820Y205155D01*
X283918Y205173D01*
X284015Y205194D01*
X284111Y205218D01*
X284207Y205247D01*
X284301Y205279D01*
X284394Y205314D01*
X284485Y205353D01*
X284575Y205396D01*
X284663Y205442D01*
X284749Y205491D01*
X284834Y205544D01*
X284916Y205600D01*
X284996Y205659D01*
X285074Y205721D01*
X285149Y205786D01*
X285222Y205853D01*
X285292Y205924D01*
X285360Y205997D01*
X285424Y206073D01*
X285486Y206151D01*
X285545Y206231D01*
X289268Y211548D01*
X289323Y211631D01*
X289375Y211715D01*
X289424Y211802D01*
X289470Y211890D01*
X289512Y211980D01*
X289551Y212072D01*
X289586Y212165D01*
X289618Y212259D01*
X289646Y212354D01*
X289670Y212451D01*
X289691Y212548D01*
X289707Y212646D01*
X289721Y212745D01*
X289730Y212844D01*
X289735Y212943D01*
X289737Y213043D01*
X289735Y213142D01*
X289729Y213241D01*
X289719Y213340D01*
X289706Y213439D01*
X289688Y213537D01*
X289667Y213634D01*
X289643Y213730D01*
X289614Y213826D01*
X289582Y213920D01*
X289547Y214013D01*
X289508Y214104D01*
X289465Y214194D01*
X289419Y214282D01*
X289370Y214368D01*
X289317Y214453D01*
X289261Y214535D01*
X289202Y214615D01*
X289140Y214693D01*
X289075Y214768D01*
X289008Y214841D01*
X288937Y214911D01*
X288864Y214979D01*
X288788Y215043D01*
X288710Y215105D01*
X288630Y215164D01*
X285440Y217398D01*
X280770Y220668D02*
X274069Y211097D01*
X268751Y214820D02*
X280770Y220668D01*
X275453Y224391D02*
X268751Y214820D01*
X264082Y218090D02*
X270783Y227661D01*
X268125Y229523D01*
X268031Y229586D01*
X267935Y229646D01*
X267837Y229703D01*
X267737Y229756D01*
X267635Y229806D01*
X267531Y229852D01*
X267426Y229894D01*
X267320Y229933D01*
X267212Y229968D01*
X267103Y229999D01*
X266993Y230027D01*
X266882Y230050D01*
X266771Y230070D01*
X266659Y230086D01*
X266546Y230098D01*
X266433Y230106D01*
X266320Y230110D01*
X266206Y230110D01*
X266093Y230106D01*
X265980Y230098D01*
X265867Y230086D01*
X265755Y230070D01*
X265644Y230050D01*
X265533Y230027D01*
X265423Y229999D01*
X265314Y229968D01*
X265206Y229933D01*
X265100Y229894D01*
X264995Y229852D01*
X264891Y229806D01*
X264789Y229756D01*
X264689Y229703D01*
X264591Y229646D01*
X264495Y229586D01*
X264401Y229523D01*
X264310Y229456D01*
X264220Y229387D01*
X264133Y229314D01*
X264049Y229238D01*
X263968Y229159D01*
X263889Y229078D01*
X263813Y228994D01*
X263740Y228907D01*
X263671Y228818D01*
X263604Y228726D01*
X260626Y224472D01*
X260563Y224378D01*
X260503Y224282D01*
X260446Y224184D01*
X260393Y224084D01*
X260343Y223982D01*
X260297Y223878D01*
X260255Y223773D01*
X260216Y223667D01*
X260181Y223559D01*
X260150Y223450D01*
X260122Y223340D01*
X260099Y223229D01*
X260079Y223118D01*
X260063Y223006D01*
X260051Y222893D01*
X260043Y222780D01*
X260039Y222667D01*
X260039Y222553D01*
X260043Y222440D01*
X260051Y222327D01*
X260063Y222214D01*
X260079Y222102D01*
X260099Y221991D01*
X260122Y221880D01*
X260150Y221770D01*
X260181Y221661D01*
X260216Y221553D01*
X260255Y221447D01*
X260297Y221342D01*
X260343Y221238D01*
X260393Y221136D01*
X260446Y221036D01*
X260503Y220938D01*
X260563Y220842D01*
X260626Y220748D01*
X260693Y220656D01*
X260762Y220567D01*
X260835Y220480D01*
X260911Y220396D01*
X260990Y220315D01*
X261071Y220236D01*
X261155Y220160D01*
X261242Y220087D01*
X261332Y220018D01*
X261423Y219951D01*
X261423Y219952D02*
X264082Y218090D01*
X201649Y335306D02*
X201649Y337254D01*
X195158Y337254D01*
X195158Y333359D01*
X195160Y333260D01*
X195166Y333160D01*
X195175Y333061D01*
X195188Y332963D01*
X195205Y332865D01*
X195226Y332767D01*
X195251Y332671D01*
X195279Y332576D01*
X195311Y332482D01*
X195346Y332389D01*
X195385Y332297D01*
X195428Y332207D01*
X195473Y332119D01*
X195523Y332032D01*
X195575Y331948D01*
X195631Y331865D01*
X195689Y331785D01*
X195751Y331707D01*
X195816Y331632D01*
X195884Y331559D01*
X195954Y331489D01*
X196027Y331421D01*
X196102Y331356D01*
X196180Y331294D01*
X196260Y331236D01*
X196343Y331180D01*
X196427Y331128D01*
X196514Y331078D01*
X196602Y331033D01*
X196692Y330990D01*
X196784Y330951D01*
X196877Y330916D01*
X196971Y330884D01*
X197066Y330856D01*
X197162Y330831D01*
X197260Y330810D01*
X197358Y330793D01*
X197456Y330780D01*
X197555Y330771D01*
X197655Y330765D01*
X197754Y330763D01*
X204246Y330763D01*
X204345Y330765D01*
X204445Y330771D01*
X204544Y330780D01*
X204642Y330793D01*
X204740Y330810D01*
X204838Y330831D01*
X204934Y330856D01*
X205029Y330884D01*
X205123Y330916D01*
X205216Y330951D01*
X205308Y330990D01*
X205398Y331033D01*
X205486Y331078D01*
X205573Y331128D01*
X205657Y331180D01*
X205740Y331236D01*
X205820Y331294D01*
X205898Y331356D01*
X205973Y331421D01*
X206046Y331489D01*
X206116Y331559D01*
X206184Y331632D01*
X206249Y331707D01*
X206311Y331785D01*
X206369Y331865D01*
X206425Y331948D01*
X206477Y332032D01*
X206527Y332119D01*
X206572Y332207D01*
X206615Y332297D01*
X206654Y332389D01*
X206689Y332481D01*
X206721Y332576D01*
X206749Y332671D01*
X206774Y332767D01*
X206795Y332865D01*
X206812Y332963D01*
X206825Y333061D01*
X206834Y333160D01*
X206840Y333260D01*
X206842Y333359D01*
X206842Y337254D01*
X206842Y342954D02*
X195158Y342954D01*
X195158Y349446D02*
X206842Y342954D01*
X206842Y349446D02*
X195158Y349446D01*
X195158Y355146D02*
X206842Y355146D01*
X206842Y358392D01*
X206840Y358505D01*
X206834Y358618D01*
X206824Y358731D01*
X206810Y358844D01*
X206793Y358956D01*
X206771Y359067D01*
X206746Y359177D01*
X206716Y359287D01*
X206683Y359395D01*
X206646Y359502D01*
X206606Y359608D01*
X206561Y359712D01*
X206513Y359815D01*
X206462Y359916D01*
X206407Y360015D01*
X206349Y360112D01*
X206287Y360207D01*
X206222Y360300D01*
X206154Y360390D01*
X206083Y360478D01*
X206008Y360564D01*
X205931Y360647D01*
X205851Y360727D01*
X205768Y360804D01*
X205682Y360879D01*
X205594Y360950D01*
X205504Y361018D01*
X205411Y361083D01*
X205316Y361145D01*
X205219Y361203D01*
X205120Y361258D01*
X205019Y361309D01*
X204916Y361357D01*
X204812Y361402D01*
X204706Y361442D01*
X204599Y361479D01*
X204491Y361512D01*
X204381Y361542D01*
X204271Y361567D01*
X204160Y361589D01*
X204048Y361606D01*
X203935Y361620D01*
X203822Y361630D01*
X203709Y361636D01*
X203596Y361638D01*
X198404Y361638D01*
X198291Y361636D01*
X198178Y361630D01*
X198065Y361620D01*
X197952Y361606D01*
X197840Y361589D01*
X197729Y361567D01*
X197619Y361542D01*
X197509Y361512D01*
X197401Y361479D01*
X197294Y361442D01*
X197188Y361402D01*
X197084Y361357D01*
X196981Y361309D01*
X196880Y361258D01*
X196781Y361203D01*
X196684Y361145D01*
X196589Y361083D01*
X196496Y361018D01*
X196406Y360950D01*
X196318Y360879D01*
X196232Y360804D01*
X196149Y360727D01*
X196069Y360647D01*
X195992Y360564D01*
X195917Y360478D01*
X195846Y360390D01*
X195778Y360300D01*
X195713Y360207D01*
X195651Y360112D01*
X195593Y360015D01*
X195538Y359916D01*
X195487Y359815D01*
X195439Y359712D01*
X195394Y359608D01*
X195354Y359502D01*
X195317Y359395D01*
X195284Y359287D01*
X195254Y359177D01*
X195229Y359067D01*
X195207Y358956D01*
X195190Y358844D01*
X195176Y358731D01*
X195166Y358618D01*
X195160Y358505D01*
X195158Y358392D01*
X195158Y355146D01*
D10*
X476772Y308379D02*
X476772Y290599D01*
X476772Y308379D02*
X471833Y308379D01*
X471693Y308377D01*
X471554Y308371D01*
X471414Y308361D01*
X471275Y308347D01*
X471136Y308330D01*
X470998Y308308D01*
X470861Y308282D01*
X470724Y308253D01*
X470588Y308220D01*
X470454Y308183D01*
X470320Y308142D01*
X470188Y308097D01*
X470056Y308048D01*
X469927Y307996D01*
X469799Y307941D01*
X469672Y307881D01*
X469547Y307818D01*
X469424Y307752D01*
X469303Y307682D01*
X469184Y307609D01*
X469067Y307532D01*
X468953Y307452D01*
X468840Y307369D01*
X468730Y307283D01*
X468623Y307193D01*
X468518Y307101D01*
X468416Y307006D01*
X468316Y306908D01*
X468219Y306807D01*
X468125Y306703D01*
X468035Y306597D01*
X467947Y306488D01*
X467862Y306377D01*
X467781Y306263D01*
X467702Y306148D01*
X467627Y306030D01*
X467556Y305910D01*
X467488Y305787D01*
X467423Y305664D01*
X467362Y305538D01*
X467304Y305410D01*
X467250Y305282D01*
X467200Y305151D01*
X467153Y305019D01*
X467110Y304886D01*
X467071Y304752D01*
X467036Y304617D01*
X467005Y304481D01*
X466977Y304343D01*
X466954Y304206D01*
X466934Y304067D01*
X466918Y303928D01*
X466906Y303789D01*
X466898Y303650D01*
X466894Y303510D01*
X466894Y303370D01*
X466898Y303230D01*
X466906Y303091D01*
X466918Y302952D01*
X466934Y302813D01*
X466954Y302674D01*
X466977Y302537D01*
X467005Y302399D01*
X467036Y302263D01*
X467071Y302128D01*
X467110Y301994D01*
X467153Y301861D01*
X467200Y301729D01*
X467250Y301598D01*
X467304Y301470D01*
X467362Y301342D01*
X467423Y301216D01*
X467488Y301093D01*
X467556Y300971D01*
X467627Y300850D01*
X467702Y300732D01*
X467781Y300617D01*
X467862Y300503D01*
X467947Y300392D01*
X468035Y300283D01*
X468125Y300177D01*
X468219Y300073D01*
X468316Y299972D01*
X468416Y299874D01*
X468518Y299779D01*
X468623Y299687D01*
X468730Y299597D01*
X468840Y299511D01*
X468953Y299428D01*
X469067Y299348D01*
X469184Y299271D01*
X469303Y299198D01*
X469424Y299128D01*
X469547Y299062D01*
X469672Y298999D01*
X469799Y298939D01*
X469927Y298884D01*
X470056Y298832D01*
X470188Y298783D01*
X470320Y298738D01*
X470454Y298697D01*
X470588Y298660D01*
X470724Y298627D01*
X470861Y298598D01*
X470998Y298572D01*
X471136Y298550D01*
X471275Y298533D01*
X471414Y298519D01*
X471554Y298509D01*
X471693Y298503D01*
X471833Y298501D01*
X476772Y298501D01*
X455344Y308379D02*
X455212Y308377D01*
X455081Y308371D01*
X454949Y308361D01*
X454818Y308348D01*
X454688Y308330D01*
X454558Y308309D01*
X454428Y308284D01*
X454300Y308255D01*
X454172Y308222D01*
X454046Y308185D01*
X453920Y308145D01*
X453796Y308101D01*
X453673Y308053D01*
X453552Y308002D01*
X453432Y307947D01*
X453314Y307889D01*
X453198Y307827D01*
X453084Y307761D01*
X452971Y307693D01*
X452861Y307621D01*
X452753Y307546D01*
X452647Y307467D01*
X452543Y307386D01*
X452442Y307301D01*
X452344Y307214D01*
X452248Y307123D01*
X452155Y307030D01*
X452064Y306934D01*
X451977Y306836D01*
X451892Y306735D01*
X451811Y306631D01*
X451732Y306525D01*
X451657Y306417D01*
X451585Y306307D01*
X451517Y306194D01*
X451451Y306080D01*
X451389Y305964D01*
X451331Y305846D01*
X451276Y305726D01*
X451225Y305605D01*
X451177Y305482D01*
X451133Y305358D01*
X451093Y305232D01*
X451056Y305106D01*
X451023Y304978D01*
X450994Y304850D01*
X450969Y304720D01*
X450948Y304590D01*
X450930Y304460D01*
X450917Y304329D01*
X450907Y304197D01*
X450901Y304066D01*
X450899Y303934D01*
X455344Y308379D02*
X455494Y308377D01*
X455643Y308371D01*
X455792Y308361D01*
X455941Y308348D01*
X456090Y308330D01*
X456238Y308309D01*
X456386Y308283D01*
X456532Y308254D01*
X456678Y308221D01*
X456823Y308184D01*
X456967Y308143D01*
X457110Y308099D01*
X457252Y308051D01*
X457392Y307999D01*
X457531Y307944D01*
X457669Y307885D01*
X457804Y307822D01*
X457939Y307756D01*
X458071Y307686D01*
X458201Y307613D01*
X458330Y307536D01*
X458457Y307456D01*
X458581Y307373D01*
X458703Y307287D01*
X458823Y307197D01*
X458940Y307104D01*
X459055Y307009D01*
X459168Y306910D01*
X459278Y306808D01*
X459385Y306704D01*
X459489Y306597D01*
X459591Y306487D01*
X459689Y306374D01*
X459785Y306259D01*
X459877Y306141D01*
X459967Y306021D01*
X460053Y305899D01*
X460136Y305775D01*
X460216Y305648D01*
X460292Y305520D01*
X460365Y305389D01*
X460435Y305256D01*
X460501Y305122D01*
X460563Y304986D01*
X460622Y304849D01*
X460678Y304710D01*
X460729Y304569D01*
X460777Y304428D01*
X452381Y300477D02*
X452285Y300570D01*
X452193Y300666D01*
X452103Y300765D01*
X452016Y300866D01*
X451932Y300969D01*
X451850Y301074D01*
X451772Y301182D01*
X451697Y301292D01*
X451624Y301404D01*
X451555Y301518D01*
X451489Y301634D01*
X451427Y301752D01*
X451368Y301871D01*
X451312Y301992D01*
X451259Y302115D01*
X451210Y302239D01*
X451165Y302364D01*
X451122Y302491D01*
X451084Y302618D01*
X451049Y302747D01*
X451018Y302876D01*
X450990Y303007D01*
X450966Y303138D01*
X450945Y303270D01*
X450929Y303402D01*
X450916Y303535D01*
X450906Y303668D01*
X450901Y303801D01*
X450899Y303934D01*
X452381Y300477D02*
X460777Y290599D01*
X450899Y290599D01*
X361582Y232751D02*
X361582Y214971D01*
X361582Y232751D02*
X356644Y232751D01*
X356504Y232749D01*
X356365Y232743D01*
X356225Y232733D01*
X356086Y232719D01*
X355947Y232702D01*
X355809Y232680D01*
X355672Y232654D01*
X355535Y232625D01*
X355399Y232592D01*
X355265Y232555D01*
X355131Y232514D01*
X354999Y232469D01*
X354867Y232420D01*
X354738Y232368D01*
X354610Y232313D01*
X354483Y232253D01*
X354358Y232190D01*
X354235Y232124D01*
X354114Y232054D01*
X353995Y231981D01*
X353878Y231904D01*
X353764Y231824D01*
X353651Y231741D01*
X353541Y231655D01*
X353434Y231565D01*
X353329Y231473D01*
X353227Y231378D01*
X353127Y231280D01*
X353030Y231179D01*
X352936Y231075D01*
X352846Y230969D01*
X352758Y230860D01*
X352673Y230749D01*
X352592Y230635D01*
X352513Y230520D01*
X352438Y230402D01*
X352367Y230282D01*
X352299Y230159D01*
X352234Y230036D01*
X352173Y229910D01*
X352115Y229782D01*
X352061Y229654D01*
X352011Y229523D01*
X351964Y229391D01*
X351921Y229258D01*
X351882Y229124D01*
X351847Y228989D01*
X351816Y228853D01*
X351788Y228715D01*
X351765Y228578D01*
X351745Y228439D01*
X351729Y228300D01*
X351717Y228161D01*
X351709Y228022D01*
X351705Y227882D01*
X351705Y227742D01*
X351709Y227602D01*
X351717Y227463D01*
X351729Y227324D01*
X351745Y227185D01*
X351765Y227046D01*
X351788Y226909D01*
X351816Y226771D01*
X351847Y226635D01*
X351882Y226500D01*
X351921Y226366D01*
X351964Y226233D01*
X352011Y226101D01*
X352061Y225970D01*
X352115Y225842D01*
X352173Y225714D01*
X352234Y225588D01*
X352299Y225465D01*
X352367Y225342D01*
X352438Y225222D01*
X352513Y225104D01*
X352592Y224989D01*
X352673Y224875D01*
X352758Y224764D01*
X352846Y224655D01*
X352936Y224549D01*
X353030Y224445D01*
X353127Y224344D01*
X353227Y224246D01*
X353329Y224151D01*
X353434Y224059D01*
X353541Y223969D01*
X353651Y223883D01*
X353764Y223800D01*
X353878Y223720D01*
X353995Y223643D01*
X354114Y223570D01*
X354235Y223500D01*
X354358Y223434D01*
X354483Y223371D01*
X354610Y223311D01*
X354738Y223256D01*
X354867Y223204D01*
X354999Y223155D01*
X355131Y223110D01*
X355265Y223069D01*
X355399Y223032D01*
X355535Y222999D01*
X355672Y222970D01*
X355809Y222944D01*
X355947Y222922D01*
X356086Y222905D01*
X356225Y222891D01*
X356365Y222881D01*
X356504Y222875D01*
X356644Y222873D01*
X361582Y222873D01*
X345587Y214971D02*
X340649Y214971D01*
X340509Y214973D01*
X340370Y214979D01*
X340230Y214989D01*
X340091Y215003D01*
X339952Y215020D01*
X339814Y215042D01*
X339677Y215068D01*
X339540Y215097D01*
X339404Y215130D01*
X339270Y215167D01*
X339136Y215208D01*
X339004Y215253D01*
X338872Y215302D01*
X338743Y215354D01*
X338615Y215409D01*
X338488Y215469D01*
X338363Y215532D01*
X338240Y215598D01*
X338119Y215668D01*
X338000Y215741D01*
X337883Y215818D01*
X337769Y215898D01*
X337656Y215981D01*
X337546Y216067D01*
X337439Y216157D01*
X337334Y216249D01*
X337232Y216344D01*
X337132Y216442D01*
X337035Y216543D01*
X336941Y216647D01*
X336851Y216753D01*
X336763Y216862D01*
X336678Y216973D01*
X336597Y217087D01*
X336518Y217202D01*
X336443Y217320D01*
X336372Y217440D01*
X336304Y217563D01*
X336239Y217686D01*
X336178Y217812D01*
X336120Y217940D01*
X336066Y218068D01*
X336016Y218199D01*
X335969Y218331D01*
X335926Y218464D01*
X335887Y218598D01*
X335852Y218733D01*
X335821Y218869D01*
X335793Y219007D01*
X335770Y219144D01*
X335750Y219283D01*
X335734Y219422D01*
X335722Y219561D01*
X335714Y219700D01*
X335710Y219840D01*
X335710Y219980D01*
X335714Y220120D01*
X335722Y220259D01*
X335734Y220398D01*
X335750Y220537D01*
X335770Y220676D01*
X335793Y220813D01*
X335821Y220951D01*
X335852Y221087D01*
X335887Y221222D01*
X335926Y221356D01*
X335969Y221489D01*
X336016Y221621D01*
X336066Y221752D01*
X336120Y221880D01*
X336178Y222008D01*
X336239Y222134D01*
X336304Y222257D01*
X336372Y222380D01*
X336443Y222500D01*
X336518Y222618D01*
X336597Y222733D01*
X336678Y222847D01*
X336763Y222958D01*
X336851Y223067D01*
X336941Y223173D01*
X337035Y223277D01*
X337132Y223378D01*
X337232Y223476D01*
X337334Y223571D01*
X337439Y223663D01*
X337546Y223753D01*
X337656Y223839D01*
X337769Y223922D01*
X337883Y224002D01*
X338000Y224079D01*
X338119Y224152D01*
X338240Y224222D01*
X338363Y224288D01*
X338488Y224351D01*
X338615Y224411D01*
X338743Y224466D01*
X338872Y224518D01*
X339004Y224567D01*
X339136Y224612D01*
X339270Y224653D01*
X339404Y224690D01*
X339540Y224723D01*
X339677Y224752D01*
X339814Y224778D01*
X339952Y224800D01*
X340091Y224817D01*
X340230Y224831D01*
X340370Y224841D01*
X340509Y224847D01*
X340649Y224849D01*
X339661Y232751D02*
X345587Y232751D01*
X339661Y232751D02*
X339537Y232749D01*
X339413Y232743D01*
X339289Y232733D01*
X339166Y232720D01*
X339043Y232702D01*
X338921Y232681D01*
X338799Y232656D01*
X338678Y232627D01*
X338559Y232594D01*
X338440Y232558D01*
X338323Y232517D01*
X338207Y232474D01*
X338092Y232426D01*
X337979Y232375D01*
X337867Y232320D01*
X337758Y232262D01*
X337650Y232201D01*
X337544Y232136D01*
X337440Y232068D01*
X337339Y231996D01*
X337239Y231922D01*
X337143Y231844D01*
X337048Y231764D01*
X336956Y231680D01*
X336867Y231594D01*
X336781Y231505D01*
X336697Y231413D01*
X336617Y231318D01*
X336539Y231222D01*
X336465Y231122D01*
X336393Y231021D01*
X336325Y230917D01*
X336260Y230811D01*
X336199Y230703D01*
X336141Y230594D01*
X336086Y230482D01*
X336035Y230369D01*
X335987Y230254D01*
X335944Y230138D01*
X335903Y230021D01*
X335867Y229902D01*
X335834Y229783D01*
X335805Y229662D01*
X335780Y229540D01*
X335759Y229418D01*
X335741Y229295D01*
X335728Y229172D01*
X335718Y229048D01*
X335712Y228924D01*
X335710Y228800D01*
X335712Y228676D01*
X335718Y228552D01*
X335728Y228428D01*
X335741Y228305D01*
X335759Y228182D01*
X335780Y228060D01*
X335805Y227938D01*
X335834Y227817D01*
X335867Y227698D01*
X335903Y227579D01*
X335944Y227462D01*
X335987Y227346D01*
X336035Y227231D01*
X336086Y227118D01*
X336141Y227006D01*
X336199Y226897D01*
X336260Y226789D01*
X336325Y226683D01*
X336393Y226579D01*
X336465Y226478D01*
X336539Y226378D01*
X336617Y226282D01*
X336697Y226187D01*
X336781Y226095D01*
X336867Y226006D01*
X336956Y225920D01*
X337048Y225836D01*
X337143Y225756D01*
X337239Y225678D01*
X337339Y225604D01*
X337440Y225532D01*
X337544Y225464D01*
X337650Y225399D01*
X337758Y225338D01*
X337867Y225280D01*
X337979Y225225D01*
X338092Y225174D01*
X338207Y225126D01*
X338323Y225083D01*
X338440Y225042D01*
X338559Y225006D01*
X338678Y224973D01*
X338799Y224944D01*
X338921Y224919D01*
X339043Y224898D01*
X339166Y224880D01*
X339289Y224867D01*
X339413Y224857D01*
X339537Y224851D01*
X339661Y224849D01*
X343612Y224849D01*
X258615Y283108D02*
X258615Y300888D01*
X253677Y300888D01*
X253677Y300889D02*
X253537Y300887D01*
X253398Y300881D01*
X253258Y300871D01*
X253119Y300857D01*
X252980Y300840D01*
X252842Y300818D01*
X252705Y300792D01*
X252568Y300763D01*
X252432Y300730D01*
X252298Y300693D01*
X252164Y300652D01*
X252032Y300607D01*
X251900Y300558D01*
X251771Y300506D01*
X251643Y300451D01*
X251516Y300391D01*
X251391Y300328D01*
X251268Y300262D01*
X251147Y300192D01*
X251028Y300119D01*
X250911Y300042D01*
X250797Y299962D01*
X250684Y299879D01*
X250574Y299793D01*
X250467Y299703D01*
X250362Y299611D01*
X250260Y299516D01*
X250160Y299418D01*
X250063Y299317D01*
X249969Y299213D01*
X249879Y299107D01*
X249791Y298998D01*
X249706Y298887D01*
X249625Y298773D01*
X249546Y298658D01*
X249471Y298540D01*
X249400Y298420D01*
X249332Y298297D01*
X249267Y298174D01*
X249206Y298048D01*
X249148Y297920D01*
X249094Y297792D01*
X249044Y297661D01*
X248997Y297529D01*
X248954Y297396D01*
X248915Y297262D01*
X248880Y297127D01*
X248849Y296991D01*
X248821Y296853D01*
X248798Y296716D01*
X248778Y296577D01*
X248762Y296438D01*
X248750Y296299D01*
X248742Y296160D01*
X248738Y296020D01*
X248738Y295880D01*
X248742Y295740D01*
X248750Y295601D01*
X248762Y295462D01*
X248778Y295323D01*
X248798Y295184D01*
X248821Y295047D01*
X248849Y294909D01*
X248880Y294773D01*
X248915Y294638D01*
X248954Y294504D01*
X248997Y294371D01*
X249044Y294239D01*
X249094Y294108D01*
X249148Y293980D01*
X249206Y293852D01*
X249267Y293726D01*
X249332Y293603D01*
X249400Y293481D01*
X249471Y293360D01*
X249546Y293242D01*
X249625Y293127D01*
X249706Y293013D01*
X249791Y292902D01*
X249879Y292793D01*
X249969Y292687D01*
X250063Y292583D01*
X250160Y292482D01*
X250260Y292384D01*
X250362Y292289D01*
X250467Y292197D01*
X250574Y292107D01*
X250684Y292021D01*
X250797Y291938D01*
X250911Y291858D01*
X251028Y291781D01*
X251147Y291708D01*
X251268Y291638D01*
X251391Y291572D01*
X251516Y291509D01*
X251643Y291449D01*
X251771Y291394D01*
X251900Y291342D01*
X252032Y291293D01*
X252164Y291248D01*
X252298Y291207D01*
X252432Y291170D01*
X252568Y291137D01*
X252705Y291108D01*
X252842Y291082D01*
X252980Y291060D01*
X253119Y291043D01*
X253258Y291029D01*
X253398Y291019D01*
X253537Y291013D01*
X253677Y291011D01*
X258615Y291011D01*
X242620Y287060D02*
X238669Y300888D01*
X242620Y287060D02*
X232743Y287060D01*
X235706Y291011D02*
X235706Y283108D01*
X366143Y384810D02*
X366143Y402590D01*
X366143Y394688D02*
X356266Y394688D01*
X356266Y402590D02*
X356266Y384810D01*
X338957Y398145D02*
X338959Y398277D01*
X338965Y398408D01*
X338975Y398540D01*
X338988Y398671D01*
X339006Y398801D01*
X339027Y398931D01*
X339052Y399061D01*
X339081Y399189D01*
X339114Y399317D01*
X339151Y399443D01*
X339191Y399569D01*
X339235Y399693D01*
X339283Y399816D01*
X339334Y399937D01*
X339389Y400057D01*
X339447Y400175D01*
X339509Y400291D01*
X339575Y400405D01*
X339643Y400518D01*
X339715Y400628D01*
X339790Y400736D01*
X339869Y400842D01*
X339950Y400946D01*
X340035Y401047D01*
X340122Y401145D01*
X340213Y401241D01*
X340306Y401334D01*
X340402Y401425D01*
X340500Y401512D01*
X340601Y401597D01*
X340705Y401678D01*
X340811Y401757D01*
X340919Y401832D01*
X341029Y401904D01*
X341142Y401972D01*
X341256Y402038D01*
X341372Y402100D01*
X341490Y402158D01*
X341610Y402213D01*
X341731Y402264D01*
X341854Y402312D01*
X341978Y402356D01*
X342104Y402396D01*
X342230Y402433D01*
X342358Y402466D01*
X342486Y402495D01*
X342616Y402520D01*
X342746Y402541D01*
X342876Y402559D01*
X343007Y402572D01*
X343139Y402582D01*
X343270Y402588D01*
X343402Y402590D01*
X343552Y402588D01*
X343701Y402582D01*
X343850Y402572D01*
X343999Y402559D01*
X344148Y402541D01*
X344296Y402520D01*
X344444Y402494D01*
X344590Y402465D01*
X344736Y402432D01*
X344881Y402395D01*
X345025Y402354D01*
X345168Y402310D01*
X345310Y402262D01*
X345450Y402210D01*
X345589Y402155D01*
X345727Y402096D01*
X345862Y402033D01*
X345997Y401967D01*
X346129Y401897D01*
X346259Y401824D01*
X346388Y401747D01*
X346515Y401667D01*
X346639Y401584D01*
X346761Y401498D01*
X346881Y401408D01*
X346998Y401315D01*
X347113Y401220D01*
X347226Y401121D01*
X347336Y401019D01*
X347443Y400915D01*
X347547Y400808D01*
X347649Y400698D01*
X347747Y400585D01*
X347843Y400470D01*
X347935Y400352D01*
X348025Y400232D01*
X348111Y400110D01*
X348194Y399986D01*
X348274Y399859D01*
X348350Y399731D01*
X348423Y399600D01*
X348493Y399467D01*
X348559Y399333D01*
X348621Y399197D01*
X348680Y399060D01*
X348736Y398921D01*
X348787Y398780D01*
X348835Y398639D01*
X340439Y394688D02*
X340343Y394781D01*
X340251Y394877D01*
X340161Y394976D01*
X340074Y395077D01*
X339990Y395180D01*
X339908Y395285D01*
X339830Y395393D01*
X339755Y395503D01*
X339682Y395615D01*
X339613Y395729D01*
X339547Y395845D01*
X339485Y395963D01*
X339426Y396082D01*
X339370Y396203D01*
X339317Y396326D01*
X339268Y396450D01*
X339223Y396575D01*
X339180Y396702D01*
X339142Y396829D01*
X339107Y396958D01*
X339076Y397087D01*
X339048Y397218D01*
X339024Y397349D01*
X339003Y397481D01*
X338987Y397613D01*
X338974Y397746D01*
X338964Y397879D01*
X338959Y398012D01*
X338957Y398145D01*
X340438Y394688D02*
X348835Y384810D01*
X338957Y384810D01*
X333072Y384810D02*
X327145Y402590D01*
X321219Y384810D01*
X322700Y389255D02*
X331590Y389255D01*
X314690Y384810D02*
X314690Y402590D01*
X309751Y402590D01*
X309611Y402588D01*
X309472Y402582D01*
X309332Y402572D01*
X309193Y402558D01*
X309054Y402541D01*
X308916Y402519D01*
X308779Y402493D01*
X308642Y402464D01*
X308506Y402431D01*
X308372Y402394D01*
X308238Y402353D01*
X308106Y402308D01*
X307974Y402259D01*
X307845Y402207D01*
X307717Y402152D01*
X307590Y402092D01*
X307465Y402029D01*
X307342Y401963D01*
X307221Y401893D01*
X307102Y401820D01*
X306985Y401743D01*
X306871Y401663D01*
X306758Y401580D01*
X306648Y401494D01*
X306541Y401404D01*
X306436Y401312D01*
X306334Y401217D01*
X306234Y401119D01*
X306137Y401018D01*
X306043Y400914D01*
X305953Y400808D01*
X305865Y400699D01*
X305780Y400588D01*
X305699Y400474D01*
X305620Y400359D01*
X305545Y400241D01*
X305474Y400121D01*
X305406Y399998D01*
X305341Y399875D01*
X305280Y399749D01*
X305222Y399621D01*
X305168Y399493D01*
X305118Y399362D01*
X305071Y399230D01*
X305028Y399097D01*
X304989Y398963D01*
X304954Y398828D01*
X304923Y398692D01*
X304895Y398554D01*
X304872Y398417D01*
X304852Y398278D01*
X304836Y398139D01*
X304824Y398000D01*
X304816Y397861D01*
X304812Y397721D01*
X304812Y397581D01*
X304816Y397441D01*
X304824Y397302D01*
X304836Y397163D01*
X304852Y397024D01*
X304872Y396885D01*
X304895Y396748D01*
X304923Y396610D01*
X304954Y396474D01*
X304989Y396339D01*
X305028Y396205D01*
X305071Y396072D01*
X305118Y395940D01*
X305168Y395809D01*
X305222Y395681D01*
X305280Y395553D01*
X305341Y395427D01*
X305406Y395304D01*
X305474Y395182D01*
X305545Y395061D01*
X305620Y394943D01*
X305699Y394828D01*
X305780Y394714D01*
X305865Y394603D01*
X305953Y394494D01*
X306043Y394388D01*
X306137Y394284D01*
X306234Y394183D01*
X306334Y394085D01*
X306436Y393990D01*
X306541Y393898D01*
X306648Y393808D01*
X306758Y393722D01*
X306871Y393639D01*
X306985Y393559D01*
X307102Y393482D01*
X307221Y393409D01*
X307342Y393339D01*
X307465Y393273D01*
X307590Y393210D01*
X307717Y393150D01*
X307845Y393095D01*
X307974Y393043D01*
X308106Y392994D01*
X308238Y392949D01*
X308372Y392908D01*
X308506Y392871D01*
X308642Y392838D01*
X308779Y392809D01*
X308916Y392783D01*
X309054Y392761D01*
X309193Y392744D01*
X309332Y392730D01*
X309472Y392720D01*
X309611Y392714D01*
X309751Y392712D01*
X314690Y392712D01*
X308763Y392712D02*
X304812Y384810D01*
X298025Y384810D02*
X293086Y384810D01*
X292946Y384812D01*
X292807Y384818D01*
X292667Y384828D01*
X292528Y384842D01*
X292389Y384859D01*
X292251Y384881D01*
X292114Y384907D01*
X291977Y384936D01*
X291841Y384969D01*
X291707Y385006D01*
X291573Y385047D01*
X291441Y385092D01*
X291309Y385141D01*
X291180Y385193D01*
X291052Y385248D01*
X290925Y385308D01*
X290800Y385371D01*
X290677Y385437D01*
X290556Y385507D01*
X290437Y385580D01*
X290320Y385657D01*
X290206Y385737D01*
X290093Y385820D01*
X289983Y385906D01*
X289876Y385996D01*
X289771Y386088D01*
X289669Y386183D01*
X289569Y386281D01*
X289472Y386382D01*
X289378Y386486D01*
X289288Y386592D01*
X289200Y386701D01*
X289115Y386812D01*
X289034Y386926D01*
X288955Y387041D01*
X288880Y387159D01*
X288809Y387280D01*
X288741Y387402D01*
X288676Y387525D01*
X288615Y387651D01*
X288557Y387779D01*
X288503Y387907D01*
X288453Y388038D01*
X288406Y388170D01*
X288363Y388303D01*
X288324Y388437D01*
X288289Y388572D01*
X288258Y388708D01*
X288230Y388846D01*
X288207Y388983D01*
X288187Y389122D01*
X288171Y389261D01*
X288159Y389400D01*
X288151Y389539D01*
X288147Y389679D01*
X288147Y389819D01*
X288151Y389959D01*
X288159Y390098D01*
X288171Y390237D01*
X288187Y390376D01*
X288207Y390515D01*
X288230Y390652D01*
X288258Y390790D01*
X288289Y390926D01*
X288324Y391061D01*
X288363Y391195D01*
X288406Y391328D01*
X288453Y391460D01*
X288503Y391591D01*
X288557Y391719D01*
X288615Y391847D01*
X288676Y391973D01*
X288741Y392096D01*
X288809Y392219D01*
X288880Y392339D01*
X288955Y392457D01*
X289034Y392572D01*
X289115Y392686D01*
X289200Y392797D01*
X289288Y392906D01*
X289378Y393012D01*
X289472Y393116D01*
X289569Y393217D01*
X289669Y393315D01*
X289771Y393410D01*
X289876Y393502D01*
X289983Y393592D01*
X290093Y393678D01*
X290206Y393761D01*
X290320Y393841D01*
X290437Y393918D01*
X290556Y393991D01*
X290677Y394061D01*
X290800Y394127D01*
X290925Y394190D01*
X291052Y394250D01*
X291180Y394305D01*
X291309Y394357D01*
X291441Y394406D01*
X291573Y394451D01*
X291707Y394492D01*
X291841Y394529D01*
X291977Y394562D01*
X292114Y394591D01*
X292251Y394617D01*
X292389Y394639D01*
X292528Y394656D01*
X292667Y394670D01*
X292807Y394680D01*
X292946Y394686D01*
X293086Y394688D01*
X292098Y402590D02*
X298025Y402590D01*
X292098Y402590D02*
X291974Y402588D01*
X291850Y402582D01*
X291726Y402572D01*
X291603Y402559D01*
X291480Y402541D01*
X291358Y402520D01*
X291236Y402495D01*
X291115Y402466D01*
X290996Y402433D01*
X290877Y402397D01*
X290760Y402356D01*
X290644Y402313D01*
X290529Y402265D01*
X290416Y402214D01*
X290304Y402159D01*
X290195Y402101D01*
X290087Y402040D01*
X289981Y401975D01*
X289877Y401907D01*
X289776Y401835D01*
X289676Y401761D01*
X289580Y401683D01*
X289485Y401603D01*
X289393Y401519D01*
X289304Y401433D01*
X289218Y401344D01*
X289134Y401252D01*
X289054Y401157D01*
X288976Y401061D01*
X288902Y400961D01*
X288830Y400860D01*
X288762Y400756D01*
X288697Y400650D01*
X288636Y400542D01*
X288578Y400433D01*
X288523Y400321D01*
X288472Y400208D01*
X288424Y400093D01*
X288381Y399977D01*
X288340Y399860D01*
X288304Y399741D01*
X288271Y399622D01*
X288242Y399501D01*
X288217Y399379D01*
X288196Y399257D01*
X288178Y399134D01*
X288165Y399011D01*
X288155Y398887D01*
X288149Y398763D01*
X288147Y398639D01*
X288149Y398515D01*
X288155Y398391D01*
X288165Y398267D01*
X288178Y398144D01*
X288196Y398021D01*
X288217Y397899D01*
X288242Y397777D01*
X288271Y397656D01*
X288304Y397537D01*
X288340Y397418D01*
X288381Y397301D01*
X288424Y397185D01*
X288472Y397070D01*
X288523Y396957D01*
X288578Y396845D01*
X288636Y396736D01*
X288697Y396628D01*
X288762Y396522D01*
X288830Y396418D01*
X288902Y396317D01*
X288976Y396217D01*
X289054Y396121D01*
X289134Y396026D01*
X289218Y395934D01*
X289304Y395845D01*
X289393Y395759D01*
X289485Y395675D01*
X289580Y395595D01*
X289676Y395517D01*
X289776Y395443D01*
X289877Y395371D01*
X289981Y395303D01*
X290087Y395238D01*
X290195Y395177D01*
X290304Y395119D01*
X290416Y395064D01*
X290529Y395013D01*
X290644Y394965D01*
X290760Y394922D01*
X290877Y394881D01*
X290996Y394845D01*
X291115Y394812D01*
X291236Y394783D01*
X291358Y394758D01*
X291480Y394737D01*
X291603Y394719D01*
X291726Y394706D01*
X291850Y394696D01*
X291974Y394690D01*
X292098Y394688D01*
X296049Y394688D01*
X281274Y393700D02*
X281270Y394050D01*
X281257Y394399D01*
X281236Y394748D01*
X281207Y395097D01*
X281170Y395445D01*
X281124Y395792D01*
X281070Y396137D01*
X281008Y396481D01*
X280937Y396824D01*
X280858Y397165D01*
X280772Y397504D01*
X280677Y397840D01*
X280574Y398175D01*
X280463Y398506D01*
X280345Y398836D01*
X280218Y399162D01*
X280084Y399485D01*
X279942Y399804D01*
X279792Y400121D01*
X279793Y400120D02*
X279753Y400233D01*
X279709Y400343D01*
X279661Y400453D01*
X279610Y400560D01*
X279555Y400666D01*
X279497Y400771D01*
X279435Y400873D01*
X279370Y400973D01*
X279302Y401071D01*
X279231Y401167D01*
X279156Y401260D01*
X279079Y401351D01*
X278999Y401439D01*
X278916Y401524D01*
X278830Y401607D01*
X278741Y401687D01*
X278650Y401764D01*
X278556Y401838D01*
X278460Y401909D01*
X278362Y401977D01*
X278262Y402041D01*
X278159Y402103D01*
X278055Y402160D01*
X277949Y402215D01*
X277841Y402266D01*
X277731Y402313D01*
X277620Y402357D01*
X277508Y402397D01*
X277394Y402433D01*
X277280Y402466D01*
X277164Y402495D01*
X277047Y402520D01*
X276930Y402541D01*
X276812Y402559D01*
X276693Y402572D01*
X276574Y402582D01*
X276455Y402588D01*
X276336Y402590D01*
X276217Y402588D01*
X276098Y402582D01*
X275979Y402572D01*
X275860Y402559D01*
X275742Y402541D01*
X275625Y402520D01*
X275508Y402495D01*
X275392Y402466D01*
X275278Y402433D01*
X275164Y402397D01*
X275052Y402357D01*
X274941Y402313D01*
X274831Y402266D01*
X274723Y402215D01*
X274617Y402160D01*
X274513Y402103D01*
X274410Y402041D01*
X274310Y401977D01*
X274212Y401909D01*
X274116Y401838D01*
X274022Y401764D01*
X273931Y401687D01*
X273842Y401607D01*
X273757Y401524D01*
X273673Y401439D01*
X273593Y401351D01*
X273516Y401260D01*
X273441Y401167D01*
X273370Y401071D01*
X273302Y400973D01*
X273237Y400873D01*
X273175Y400771D01*
X273117Y400666D01*
X273062Y400561D01*
X273011Y400453D01*
X272963Y400343D01*
X272919Y400233D01*
X272879Y400120D01*
X272879Y400121D02*
X272729Y399804D01*
X272587Y399485D01*
X272453Y399162D01*
X272326Y398836D01*
X272208Y398506D01*
X272097Y398175D01*
X271994Y397840D01*
X271899Y397504D01*
X271813Y397165D01*
X271734Y396824D01*
X271663Y396481D01*
X271601Y396137D01*
X271547Y395792D01*
X271501Y395445D01*
X271464Y395097D01*
X271435Y394748D01*
X271414Y394399D01*
X271401Y394050D01*
X271397Y393700D01*
X281274Y393700D02*
X281270Y393350D01*
X281257Y393001D01*
X281236Y392652D01*
X281207Y392303D01*
X281170Y391955D01*
X281124Y391608D01*
X281070Y391263D01*
X281008Y390919D01*
X280937Y390576D01*
X280858Y390235D01*
X280772Y389896D01*
X280677Y389560D01*
X280574Y389225D01*
X280463Y388894D01*
X280345Y388565D01*
X280218Y388238D01*
X280084Y387915D01*
X279942Y387596D01*
X279792Y387280D01*
X279793Y387280D02*
X279753Y387167D01*
X279709Y387057D01*
X279661Y386947D01*
X279610Y386840D01*
X279555Y386734D01*
X279497Y386629D01*
X279435Y386527D01*
X279370Y386427D01*
X279302Y386329D01*
X279231Y386233D01*
X279156Y386140D01*
X279079Y386049D01*
X278999Y385961D01*
X278916Y385876D01*
X278830Y385793D01*
X278741Y385713D01*
X278650Y385636D01*
X278556Y385562D01*
X278460Y385491D01*
X278362Y385423D01*
X278262Y385359D01*
X278159Y385297D01*
X278055Y385240D01*
X277949Y385185D01*
X277841Y385134D01*
X277731Y385087D01*
X277620Y385043D01*
X277508Y385003D01*
X277394Y384967D01*
X277280Y384934D01*
X277164Y384905D01*
X277047Y384880D01*
X276930Y384859D01*
X276812Y384841D01*
X276693Y384828D01*
X276574Y384818D01*
X276455Y384812D01*
X276336Y384810D01*
X272879Y387280D02*
X272729Y387596D01*
X272587Y387915D01*
X272453Y388238D01*
X272326Y388565D01*
X272208Y388894D01*
X272097Y389225D01*
X271994Y389560D01*
X271899Y389896D01*
X271813Y390235D01*
X271734Y390576D01*
X271663Y390919D01*
X271601Y391263D01*
X271547Y391608D01*
X271501Y391955D01*
X271464Y392303D01*
X271435Y392652D01*
X271414Y393001D01*
X271401Y393350D01*
X271397Y393700D01*
X272879Y387280D02*
X272919Y387167D01*
X272963Y387057D01*
X273011Y386947D01*
X273062Y386839D01*
X273117Y386733D01*
X273175Y386629D01*
X273237Y386527D01*
X273302Y386427D01*
X273370Y386329D01*
X273441Y386233D01*
X273516Y386140D01*
X273593Y386049D01*
X273673Y385961D01*
X273757Y385876D01*
X273842Y385793D01*
X273931Y385713D01*
X274022Y385636D01*
X274116Y385562D01*
X274212Y385491D01*
X274310Y385423D01*
X274410Y385359D01*
X274513Y385297D01*
X274617Y385239D01*
X274723Y385185D01*
X274831Y385134D01*
X274941Y385087D01*
X275052Y385043D01*
X275164Y385003D01*
X275278Y384967D01*
X275392Y384934D01*
X275508Y384905D01*
X275625Y384880D01*
X275742Y384859D01*
X275860Y384841D01*
X275979Y384828D01*
X276098Y384818D01*
X276217Y384812D01*
X276336Y384810D01*
X280287Y388761D02*
X272384Y398639D01*
X267545Y466081D02*
X253467Y474209D01*
X251209Y470299D01*
X251144Y470182D01*
X251082Y470063D01*
X251024Y469943D01*
X250969Y469821D01*
X250918Y469697D01*
X250871Y469572D01*
X250828Y469445D01*
X250788Y469317D01*
X250752Y469188D01*
X250720Y469058D01*
X250692Y468927D01*
X250668Y468796D01*
X250647Y468664D01*
X250631Y468531D01*
X250618Y468398D01*
X250610Y468264D01*
X250605Y468130D01*
X250604Y467996D01*
X250608Y467863D01*
X250615Y467729D01*
X250626Y467596D01*
X250641Y467463D01*
X250660Y467330D01*
X250683Y467198D01*
X250710Y467067D01*
X250741Y466937D01*
X250776Y466808D01*
X250814Y466679D01*
X250856Y466552D01*
X250902Y466427D01*
X250952Y466302D01*
X251005Y466180D01*
X251062Y466059D01*
X251123Y465939D01*
X251187Y465822D01*
X251254Y465706D01*
X251325Y465593D01*
X251400Y465481D01*
X251477Y465372D01*
X251558Y465265D01*
X251642Y465161D01*
X251728Y465059D01*
X251818Y464960D01*
X251911Y464864D01*
X252007Y464770D01*
X252105Y464679D01*
X252206Y464591D01*
X252309Y464506D01*
X252415Y464425D01*
X252524Y464346D01*
X252634Y464271D01*
X252747Y464199D01*
X252862Y464130D01*
X252979Y464065D01*
X253098Y464003D01*
X253218Y463945D01*
X253340Y463890D01*
X253464Y463840D01*
X253589Y463792D01*
X253716Y463749D01*
X253844Y463709D01*
X253973Y463673D01*
X254103Y463641D01*
X254233Y463613D01*
X254365Y463589D01*
X254497Y463568D01*
X254630Y463552D01*
X254763Y463539D01*
X254897Y463531D01*
X255031Y463526D01*
X255165Y463525D01*
X255298Y463529D01*
X255432Y463536D01*
X255565Y463547D01*
X255698Y463562D01*
X255831Y463581D01*
X255963Y463604D01*
X256094Y463631D01*
X256224Y463662D01*
X256353Y463697D01*
X256482Y463735D01*
X256609Y463777D01*
X256734Y463823D01*
X256858Y463873D01*
X256981Y463926D01*
X257102Y463983D01*
X257222Y464044D01*
X257339Y464108D01*
X257455Y464175D01*
X257568Y464246D01*
X257680Y464320D01*
X257789Y464398D01*
X257896Y464479D01*
X258000Y464562D01*
X258102Y464649D01*
X258201Y464739D01*
X258297Y464832D01*
X258391Y464928D01*
X258482Y465026D01*
X258570Y465127D01*
X258655Y465230D01*
X258736Y465336D01*
X258815Y465445D01*
X258890Y465555D01*
X258962Y465668D01*
X259031Y465783D01*
X259030Y465783D02*
X261288Y469694D01*
X259835Y452727D02*
X245757Y460855D01*
X252014Y457243D02*
X247498Y449421D01*
X241241Y453034D02*
X255319Y444906D01*
X239174Y415897D02*
X225096Y424025D01*
X234659Y408076D01*
X220581Y416204D01*
X436732Y446280D02*
X438539Y443151D01*
X438600Y443050D01*
X438664Y442950D01*
X438731Y442853D01*
X438801Y442758D01*
X438875Y442666D01*
X438951Y442575D01*
X439031Y442488D01*
X439113Y442403D01*
X439198Y442321D01*
X439285Y442241D01*
X439376Y442165D01*
X439468Y442091D01*
X439563Y442021D01*
X439660Y441954D01*
X439760Y441890D01*
X439861Y441829D01*
X439964Y441771D01*
X440069Y441717D01*
X440176Y441667D01*
X440285Y441620D01*
X440395Y441576D01*
X440506Y441537D01*
X440619Y441501D01*
X440732Y441468D01*
X440847Y441439D01*
X440962Y441414D01*
X441079Y441393D01*
X441196Y441376D01*
X441313Y441362D01*
X441431Y441353D01*
X441549Y441347D01*
X441667Y441345D01*
X441785Y441347D01*
X441903Y441353D01*
X442021Y441362D01*
X442138Y441376D01*
X442255Y441393D01*
X442372Y441414D01*
X442487Y441439D01*
X442602Y441468D01*
X442716Y441501D01*
X442828Y441537D01*
X442939Y441577D01*
X443049Y441620D01*
X443158Y441667D01*
X443265Y441718D01*
X443370Y441772D01*
X443473Y441829D01*
X451295Y446344D01*
X451294Y446345D02*
X451395Y446406D01*
X451495Y446470D01*
X451592Y446537D01*
X451687Y446607D01*
X451779Y446681D01*
X451870Y446757D01*
X451957Y446837D01*
X452042Y446919D01*
X452124Y447004D01*
X452204Y447091D01*
X452280Y447182D01*
X452354Y447274D01*
X452424Y447369D01*
X452491Y447466D01*
X452555Y447566D01*
X452616Y447667D01*
X452673Y447770D01*
X452727Y447875D01*
X452778Y447982D01*
X452825Y448091D01*
X452868Y448201D01*
X452908Y448312D01*
X452944Y448424D01*
X452977Y448538D01*
X453006Y448653D01*
X453031Y448768D01*
X453052Y448885D01*
X453069Y449002D01*
X453083Y449119D01*
X453092Y449237D01*
X453098Y449355D01*
X453100Y449473D01*
X453098Y449591D01*
X453092Y449709D01*
X453083Y449827D01*
X453069Y449944D01*
X453052Y450061D01*
X453031Y450178D01*
X453006Y450293D01*
X452977Y450408D01*
X452944Y450521D01*
X452908Y450634D01*
X452869Y450745D01*
X452825Y450855D01*
X452778Y450964D01*
X452728Y451071D01*
X452674Y451176D01*
X452616Y451279D01*
X452617Y451279D02*
X450811Y454408D01*
X446154Y462474D02*
X432075Y454346D01*
X448411Y458563D02*
X443896Y466384D01*
X437988Y469392D02*
X438859Y475108D01*
X424781Y466980D01*
X427039Y463070D02*
X422523Y470891D01*
X464672Y396750D02*
X466479Y393621D01*
X466540Y393520D01*
X466604Y393420D01*
X466671Y393323D01*
X466741Y393228D01*
X466815Y393136D01*
X466891Y393045D01*
X466971Y392958D01*
X467053Y392873D01*
X467138Y392791D01*
X467225Y392711D01*
X467316Y392635D01*
X467408Y392561D01*
X467503Y392491D01*
X467600Y392424D01*
X467700Y392360D01*
X467801Y392299D01*
X467904Y392241D01*
X468009Y392187D01*
X468116Y392137D01*
X468225Y392090D01*
X468335Y392046D01*
X468446Y392007D01*
X468559Y391971D01*
X468672Y391938D01*
X468787Y391909D01*
X468902Y391884D01*
X469019Y391863D01*
X469136Y391846D01*
X469253Y391832D01*
X469371Y391823D01*
X469489Y391817D01*
X469607Y391815D01*
X469725Y391817D01*
X469843Y391823D01*
X469961Y391832D01*
X470078Y391846D01*
X470195Y391863D01*
X470312Y391884D01*
X470427Y391909D01*
X470542Y391938D01*
X470656Y391971D01*
X470768Y392007D01*
X470879Y392047D01*
X470989Y392090D01*
X471098Y392137D01*
X471205Y392188D01*
X471310Y392242D01*
X471413Y392299D01*
X479235Y396814D01*
X479234Y396815D02*
X479335Y396876D01*
X479435Y396940D01*
X479532Y397007D01*
X479627Y397077D01*
X479719Y397151D01*
X479810Y397227D01*
X479897Y397307D01*
X479982Y397389D01*
X480064Y397474D01*
X480144Y397561D01*
X480220Y397652D01*
X480294Y397744D01*
X480364Y397839D01*
X480431Y397936D01*
X480495Y398036D01*
X480556Y398137D01*
X480613Y398240D01*
X480667Y398345D01*
X480718Y398452D01*
X480765Y398561D01*
X480808Y398671D01*
X480848Y398782D01*
X480884Y398894D01*
X480917Y399008D01*
X480946Y399123D01*
X480971Y399238D01*
X480992Y399355D01*
X481009Y399472D01*
X481023Y399589D01*
X481032Y399707D01*
X481038Y399825D01*
X481040Y399943D01*
X481038Y400061D01*
X481032Y400179D01*
X481023Y400297D01*
X481009Y400414D01*
X480992Y400531D01*
X480971Y400648D01*
X480946Y400763D01*
X480917Y400878D01*
X480884Y400991D01*
X480848Y401104D01*
X480809Y401215D01*
X480765Y401325D01*
X480718Y401434D01*
X480668Y401541D01*
X480614Y401646D01*
X480556Y401749D01*
X480557Y401749D02*
X478751Y404878D01*
X474094Y412944D02*
X460015Y404816D01*
X476351Y409033D02*
X471836Y416854D01*
X466574Y425969D02*
X466509Y426076D01*
X466442Y426182D01*
X466371Y426285D01*
X466297Y426386D01*
X466220Y426485D01*
X466140Y426581D01*
X466057Y426675D01*
X465972Y426766D01*
X465883Y426855D01*
X465792Y426940D01*
X465698Y427023D01*
X465602Y427103D01*
X465503Y427180D01*
X465402Y427254D01*
X465299Y427325D01*
X465193Y427392D01*
X465086Y427457D01*
X464977Y427517D01*
X464865Y427575D01*
X464753Y427629D01*
X464638Y427680D01*
X464522Y427727D01*
X464405Y427770D01*
X464286Y427810D01*
X464166Y427846D01*
X464045Y427878D01*
X463923Y427907D01*
X463801Y427932D01*
X463677Y427953D01*
X463553Y427970D01*
X463429Y427984D01*
X463304Y427993D01*
X463179Y427999D01*
X463054Y428001D01*
X462929Y427999D01*
X462804Y427993D01*
X462679Y427984D01*
X462555Y427970D01*
X462431Y427953D01*
X462307Y427932D01*
X462185Y427907D01*
X462063Y427878D01*
X461942Y427846D01*
X461822Y427810D01*
X461703Y427770D01*
X461586Y427727D01*
X461470Y427680D01*
X461355Y427629D01*
X461243Y427575D01*
X461131Y427517D01*
X461022Y427457D01*
X466573Y425970D02*
X466643Y425845D01*
X466709Y425719D01*
X466772Y425590D01*
X466831Y425460D01*
X466887Y425329D01*
X466939Y425196D01*
X466987Y425062D01*
X467032Y424926D01*
X467073Y424790D01*
X467110Y424652D01*
X467144Y424513D01*
X467174Y424373D01*
X467199Y424233D01*
X467221Y424092D01*
X467239Y423950D01*
X467254Y423808D01*
X467264Y423666D01*
X467270Y423523D01*
X467273Y423381D01*
X467272Y423238D01*
X467266Y423095D01*
X467257Y422953D01*
X467244Y422811D01*
X467227Y422669D01*
X467206Y422528D01*
X467182Y422387D01*
X467153Y422247D01*
X467121Y422108D01*
X467085Y421970D01*
X467045Y421833D01*
X467001Y421697D01*
X466954Y421563D01*
X466903Y421429D01*
X466849Y421297D01*
X466791Y421167D01*
X466729Y421038D01*
X466664Y420911D01*
X466595Y420786D01*
X466523Y420663D01*
X466448Y420542D01*
X466369Y420423D01*
X466287Y420306D01*
X466202Y420191D01*
X466114Y420079D01*
X466023Y419969D01*
X465929Y419862D01*
X458961Y424704D02*
X458994Y424830D01*
X459031Y424956D01*
X459071Y425081D01*
X459115Y425204D01*
X459162Y425326D01*
X459214Y425446D01*
X459269Y425565D01*
X459327Y425682D01*
X459389Y425798D01*
X459454Y425911D01*
X459523Y426023D01*
X459595Y426132D01*
X459670Y426239D01*
X459748Y426344D01*
X459830Y426446D01*
X459915Y426546D01*
X460002Y426644D01*
X460093Y426738D01*
X460186Y426830D01*
X460282Y426919D01*
X460380Y427006D01*
X460481Y427089D01*
X460585Y427169D01*
X460691Y427246D01*
X460799Y427320D01*
X460909Y427390D01*
X461022Y427457D01*
X458962Y424703D02*
X454979Y413540D01*
X450463Y421361D01*
D12*
X434638Y299281D02*
X434638Y297193D01*
X434640Y297104D01*
X434646Y297016D01*
X434655Y296928D01*
X434668Y296840D01*
X434685Y296753D01*
X434705Y296667D01*
X434730Y296582D01*
X434757Y296497D01*
X434789Y296414D01*
X434823Y296333D01*
X434862Y296253D01*
X434903Y296175D01*
X434948Y296098D01*
X434996Y296024D01*
X435047Y295951D01*
X435101Y295881D01*
X435159Y295814D01*
X435219Y295748D01*
X435281Y295686D01*
X435347Y295626D01*
X435414Y295568D01*
X435484Y295514D01*
X435557Y295463D01*
X435631Y295415D01*
X435708Y295370D01*
X435786Y295329D01*
X435866Y295290D01*
X435947Y295256D01*
X436030Y295224D01*
X436115Y295197D01*
X436200Y295172D01*
X436286Y295152D01*
X436373Y295135D01*
X436461Y295122D01*
X436549Y295113D01*
X436637Y295107D01*
X436726Y295105D01*
X436726Y295104D02*
X441947Y295104D01*
X441947Y295105D02*
X442038Y295107D01*
X442129Y295113D01*
X442220Y295123D01*
X442310Y295137D01*
X442399Y295154D01*
X442487Y295176D01*
X442575Y295202D01*
X442661Y295231D01*
X442746Y295264D01*
X442829Y295301D01*
X442911Y295341D01*
X442991Y295385D01*
X443069Y295432D01*
X443145Y295483D01*
X443218Y295536D01*
X443289Y295593D01*
X443358Y295654D01*
X443423Y295717D01*
X443486Y295782D01*
X443546Y295851D01*
X443604Y295922D01*
X443657Y295995D01*
X443708Y296071D01*
X443755Y296149D01*
X443799Y296229D01*
X443839Y296311D01*
X443876Y296394D01*
X443909Y296479D01*
X443938Y296565D01*
X443964Y296653D01*
X443986Y296741D01*
X444003Y296830D01*
X444017Y296920D01*
X444027Y297011D01*
X444033Y297102D01*
X444035Y297193D01*
X444036Y297193D02*
X444036Y299281D01*
X437248Y302749D02*
X437349Y302751D01*
X437450Y302757D01*
X437551Y302767D01*
X437651Y302780D01*
X437751Y302798D01*
X437850Y302819D01*
X437948Y302845D01*
X438045Y302874D01*
X438141Y302906D01*
X438235Y302943D01*
X438328Y302983D01*
X438420Y303027D01*
X438509Y303074D01*
X438597Y303125D01*
X438683Y303179D01*
X438766Y303236D01*
X438848Y303296D01*
X438926Y303360D01*
X439003Y303426D01*
X439076Y303496D01*
X439147Y303568D01*
X439215Y303643D01*
X439280Y303721D01*
X439342Y303801D01*
X439401Y303883D01*
X439457Y303968D01*
X439509Y304055D01*
X439558Y304143D01*
X439604Y304234D01*
X439645Y304326D01*
X439684Y304420D01*
X439718Y304515D01*
X439749Y304611D01*
X439776Y304709D01*
X439800Y304807D01*
X439819Y304907D01*
X439835Y305007D01*
X439847Y305107D01*
X439855Y305208D01*
X439859Y305309D01*
X439859Y305411D01*
X439855Y305512D01*
X439847Y305613D01*
X439835Y305713D01*
X439819Y305813D01*
X439800Y305913D01*
X439776Y306011D01*
X439749Y306109D01*
X439718Y306205D01*
X439684Y306300D01*
X439645Y306394D01*
X439604Y306486D01*
X439558Y306577D01*
X439509Y306665D01*
X439457Y306752D01*
X439401Y306837D01*
X439342Y306919D01*
X439280Y306999D01*
X439215Y307077D01*
X439147Y307152D01*
X439076Y307224D01*
X439003Y307294D01*
X438926Y307360D01*
X438848Y307424D01*
X438766Y307484D01*
X438683Y307541D01*
X438597Y307595D01*
X438509Y307646D01*
X438420Y307693D01*
X438328Y307737D01*
X438235Y307777D01*
X438141Y307814D01*
X438045Y307846D01*
X437948Y307875D01*
X437850Y307901D01*
X437751Y307922D01*
X437651Y307940D01*
X437551Y307953D01*
X437450Y307963D01*
X437349Y307969D01*
X437248Y307971D01*
X437147Y307969D01*
X437046Y307963D01*
X436945Y307953D01*
X436845Y307940D01*
X436745Y307922D01*
X436646Y307901D01*
X436548Y307875D01*
X436451Y307846D01*
X436355Y307814D01*
X436261Y307777D01*
X436168Y307737D01*
X436076Y307693D01*
X435987Y307646D01*
X435899Y307595D01*
X435813Y307541D01*
X435730Y307484D01*
X435648Y307424D01*
X435570Y307360D01*
X435493Y307294D01*
X435420Y307224D01*
X435349Y307152D01*
X435281Y307077D01*
X435216Y306999D01*
X435154Y306919D01*
X435095Y306837D01*
X435039Y306752D01*
X434987Y306666D01*
X434938Y306577D01*
X434892Y306486D01*
X434851Y306394D01*
X434812Y306300D01*
X434778Y306205D01*
X434747Y306109D01*
X434720Y306011D01*
X434696Y305913D01*
X434677Y305813D01*
X434661Y305713D01*
X434649Y305613D01*
X434641Y305512D01*
X434637Y305411D01*
X434637Y305309D01*
X434641Y305208D01*
X434649Y305107D01*
X434661Y305007D01*
X434677Y304907D01*
X434696Y304807D01*
X434720Y304709D01*
X434747Y304611D01*
X434778Y304515D01*
X434812Y304420D01*
X434851Y304326D01*
X434892Y304234D01*
X434938Y304143D01*
X434987Y304055D01*
X435039Y303968D01*
X435095Y303883D01*
X435154Y303801D01*
X435216Y303721D01*
X435281Y303643D01*
X435349Y303568D01*
X435420Y303496D01*
X435493Y303426D01*
X435570Y303360D01*
X435648Y303296D01*
X435730Y303236D01*
X435813Y303179D01*
X435899Y303125D01*
X435987Y303074D01*
X436076Y303027D01*
X436168Y302983D01*
X436261Y302943D01*
X436355Y302906D01*
X436451Y302874D01*
X436548Y302845D01*
X436646Y302819D01*
X436745Y302798D01*
X436845Y302780D01*
X436945Y302767D01*
X437046Y302757D01*
X437147Y302751D01*
X437248Y302749D01*
X441947Y303272D02*
X442037Y303274D01*
X442126Y303280D01*
X442216Y303289D01*
X442305Y303303D01*
X442393Y303320D01*
X442480Y303341D01*
X442567Y303366D01*
X442652Y303395D01*
X442736Y303427D01*
X442818Y303462D01*
X442899Y303502D01*
X442978Y303544D01*
X443055Y303590D01*
X443130Y303640D01*
X443203Y303692D01*
X443274Y303748D01*
X443342Y303806D01*
X443407Y303868D01*
X443470Y303932D01*
X443530Y303999D01*
X443587Y304068D01*
X443641Y304140D01*
X443692Y304214D01*
X443740Y304290D01*
X443784Y304368D01*
X443825Y304448D01*
X443863Y304530D01*
X443897Y304613D01*
X443927Y304698D01*
X443954Y304784D01*
X443977Y304870D01*
X443996Y304958D01*
X444011Y305047D01*
X444023Y305136D01*
X444031Y305225D01*
X444035Y305315D01*
X444035Y305405D01*
X444031Y305495D01*
X444023Y305584D01*
X444011Y305673D01*
X443996Y305762D01*
X443977Y305850D01*
X443954Y305936D01*
X443927Y306022D01*
X443897Y306107D01*
X443863Y306190D01*
X443825Y306272D01*
X443784Y306352D01*
X443740Y306430D01*
X443692Y306506D01*
X443641Y306580D01*
X443587Y306652D01*
X443530Y306721D01*
X443470Y306788D01*
X443407Y306852D01*
X443342Y306914D01*
X443274Y306972D01*
X443203Y307028D01*
X443130Y307080D01*
X443055Y307130D01*
X442978Y307176D01*
X442899Y307218D01*
X442818Y307258D01*
X442736Y307293D01*
X442652Y307325D01*
X442567Y307354D01*
X442480Y307379D01*
X442393Y307400D01*
X442305Y307417D01*
X442216Y307431D01*
X442126Y307440D01*
X442037Y307446D01*
X441947Y307448D01*
X441857Y307446D01*
X441768Y307440D01*
X441678Y307431D01*
X441589Y307417D01*
X441501Y307400D01*
X441414Y307379D01*
X441327Y307354D01*
X441242Y307325D01*
X441158Y307293D01*
X441076Y307258D01*
X440995Y307218D01*
X440916Y307176D01*
X440839Y307130D01*
X440764Y307080D01*
X440691Y307028D01*
X440620Y306972D01*
X440552Y306914D01*
X440487Y306852D01*
X440424Y306788D01*
X440364Y306721D01*
X440307Y306652D01*
X440253Y306580D01*
X440202Y306506D01*
X440154Y306430D01*
X440110Y306352D01*
X440069Y306272D01*
X440031Y306190D01*
X439997Y306107D01*
X439967Y306022D01*
X439940Y305936D01*
X439917Y305850D01*
X439898Y305762D01*
X439883Y305673D01*
X439871Y305584D01*
X439863Y305495D01*
X439859Y305405D01*
X439859Y305315D01*
X439863Y305225D01*
X439871Y305136D01*
X439883Y305047D01*
X439898Y304958D01*
X439917Y304870D01*
X439940Y304784D01*
X439967Y304698D01*
X439997Y304613D01*
X440031Y304530D01*
X440069Y304448D01*
X440110Y304368D01*
X440154Y304290D01*
X440202Y304214D01*
X440253Y304140D01*
X440307Y304068D01*
X440364Y303999D01*
X440424Y303932D01*
X440487Y303868D01*
X440552Y303806D01*
X440620Y303748D01*
X440691Y303692D01*
X440764Y303640D01*
X440839Y303590D01*
X440916Y303544D01*
X440995Y303502D01*
X441076Y303462D01*
X441158Y303427D01*
X441242Y303395D01*
X441327Y303366D01*
X441414Y303341D01*
X441501Y303320D01*
X441589Y303303D01*
X441678Y303289D01*
X441768Y303280D01*
X441857Y303274D01*
X441947Y303272D01*
D10*
X429057Y263055D02*
X408927Y263055D01*
D12*
X430195Y266627D02*
X430195Y268716D01*
X430196Y266627D02*
X430198Y266538D01*
X430204Y266450D01*
X430213Y266362D01*
X430226Y266274D01*
X430243Y266187D01*
X430263Y266101D01*
X430288Y266016D01*
X430315Y265931D01*
X430347Y265848D01*
X430381Y265767D01*
X430420Y265687D01*
X430461Y265609D01*
X430506Y265532D01*
X430554Y265458D01*
X430605Y265385D01*
X430659Y265315D01*
X430717Y265248D01*
X430777Y265182D01*
X430839Y265120D01*
X430905Y265060D01*
X430972Y265002D01*
X431042Y264948D01*
X431115Y264897D01*
X431189Y264849D01*
X431266Y264804D01*
X431344Y264763D01*
X431424Y264724D01*
X431505Y264690D01*
X431588Y264658D01*
X431673Y264631D01*
X431758Y264606D01*
X431844Y264586D01*
X431931Y264569D01*
X432019Y264556D01*
X432107Y264547D01*
X432195Y264541D01*
X432284Y264539D01*
X437505Y264539D01*
X437596Y264541D01*
X437687Y264547D01*
X437778Y264557D01*
X437868Y264571D01*
X437957Y264588D01*
X438045Y264610D01*
X438133Y264636D01*
X438219Y264665D01*
X438304Y264698D01*
X438387Y264735D01*
X438469Y264775D01*
X438549Y264819D01*
X438627Y264866D01*
X438703Y264917D01*
X438776Y264970D01*
X438847Y265027D01*
X438916Y265088D01*
X438981Y265151D01*
X439044Y265216D01*
X439104Y265285D01*
X439162Y265356D01*
X439215Y265429D01*
X439266Y265505D01*
X439313Y265583D01*
X439357Y265663D01*
X439397Y265745D01*
X439434Y265828D01*
X439467Y265913D01*
X439496Y265999D01*
X439522Y266087D01*
X439544Y266175D01*
X439561Y266264D01*
X439575Y266354D01*
X439585Y266445D01*
X439591Y266536D01*
X439593Y266627D01*
X439593Y268716D01*
X439594Y275056D02*
X439592Y275151D01*
X439586Y275245D01*
X439577Y275339D01*
X439564Y275433D01*
X439547Y275526D01*
X439526Y275618D01*
X439501Y275710D01*
X439473Y275800D01*
X439441Y275889D01*
X439406Y275977D01*
X439367Y276063D01*
X439325Y276148D01*
X439279Y276231D01*
X439230Y276312D01*
X439178Y276391D01*
X439123Y276468D01*
X439064Y276542D01*
X439003Y276614D01*
X438939Y276684D01*
X438872Y276751D01*
X438802Y276815D01*
X438730Y276876D01*
X438656Y276935D01*
X438579Y276990D01*
X438500Y277042D01*
X438419Y277091D01*
X438336Y277137D01*
X438251Y277179D01*
X438165Y277218D01*
X438077Y277253D01*
X437988Y277285D01*
X437898Y277313D01*
X437806Y277338D01*
X437714Y277359D01*
X437621Y277376D01*
X437527Y277389D01*
X437433Y277398D01*
X437339Y277404D01*
X437244Y277406D01*
X439593Y275056D02*
X439591Y274948D01*
X439585Y274839D01*
X439575Y274731D01*
X439562Y274624D01*
X439544Y274517D01*
X439523Y274410D01*
X439498Y274305D01*
X439469Y274200D01*
X439437Y274097D01*
X439400Y273995D01*
X439360Y273894D01*
X439317Y273795D01*
X439270Y273697D01*
X439219Y273601D01*
X439165Y273507D01*
X439108Y273415D01*
X439047Y273325D01*
X438983Y273237D01*
X438917Y273152D01*
X438847Y273069D01*
X438774Y272989D01*
X438698Y272911D01*
X438620Y272836D01*
X438539Y272764D01*
X438455Y272695D01*
X438369Y272629D01*
X438281Y272566D01*
X438190Y272507D01*
X438098Y272450D01*
X438003Y272397D01*
X437907Y272348D01*
X437808Y272302D01*
X437709Y272259D01*
X437607Y272220D01*
X437505Y272185D01*
X435416Y276623D02*
X435485Y276692D01*
X435556Y276758D01*
X435629Y276822D01*
X435705Y276883D01*
X435784Y276941D01*
X435864Y276995D01*
X435947Y277047D01*
X436031Y277095D01*
X436117Y277141D01*
X436205Y277182D01*
X436295Y277221D01*
X436386Y277256D01*
X436478Y277287D01*
X436571Y277315D01*
X436665Y277339D01*
X436760Y277359D01*
X436856Y277376D01*
X436953Y277389D01*
X437050Y277398D01*
X437147Y277404D01*
X437244Y277406D01*
X435417Y276622D02*
X430195Y272184D01*
X430195Y277405D01*
D13*
X380440Y350040D02*
X375440Y355040D01*
X310440Y285050D02*
X310440Y285040D01*
X310480Y355050D02*
X310480Y355060D01*
X315180Y355060D01*
X315140Y285050D02*
X310440Y285050D01*
X310480Y350360D02*
X310480Y355050D01*
X310430Y289740D02*
X310430Y285040D01*
X375760Y285040D02*
X380460Y285040D01*
X380460Y285030D02*
X380460Y289730D01*
X385210Y347690D02*
X385212Y347779D01*
X385218Y347868D01*
X385228Y347957D01*
X385242Y348045D01*
X385259Y348132D01*
X385281Y348218D01*
X385307Y348304D01*
X385336Y348388D01*
X385369Y348471D01*
X385405Y348552D01*
X385446Y348632D01*
X385489Y348709D01*
X385536Y348785D01*
X385587Y348858D01*
X385640Y348929D01*
X385697Y348998D01*
X385757Y349064D01*
X385820Y349128D01*
X385885Y349188D01*
X385953Y349246D01*
X386024Y349300D01*
X386097Y349351D01*
X386172Y349399D01*
X386249Y349444D01*
X386328Y349485D01*
X386409Y349522D01*
X386491Y349556D01*
X386575Y349587D01*
X386660Y349613D01*
X386746Y349636D01*
X386833Y349654D01*
X386921Y349669D01*
X387010Y349680D01*
X387099Y349687D01*
X387188Y349690D01*
X387277Y349689D01*
X387366Y349684D01*
X387454Y349675D01*
X387543Y349662D01*
X387630Y349645D01*
X387717Y349625D01*
X387803Y349600D01*
X387887Y349572D01*
X387970Y349540D01*
X388052Y349504D01*
X388132Y349465D01*
X388210Y349422D01*
X388286Y349376D01*
X388360Y349326D01*
X388432Y349273D01*
X388501Y349217D01*
X388568Y349158D01*
X388632Y349096D01*
X388693Y349032D01*
X388752Y348964D01*
X388807Y348894D01*
X388859Y348822D01*
X388908Y348747D01*
X388953Y348671D01*
X388995Y348592D01*
X389033Y348512D01*
X389068Y348430D01*
X389099Y348346D01*
X389127Y348261D01*
X389150Y348175D01*
X389170Y348088D01*
X389186Y348001D01*
X389198Y347912D01*
X389206Y347824D01*
X389210Y347735D01*
X389210Y347645D01*
X389206Y347556D01*
X389198Y347468D01*
X389186Y347379D01*
X389170Y347292D01*
X389150Y347205D01*
X389127Y347119D01*
X389099Y347034D01*
X389068Y346950D01*
X389033Y346868D01*
X388995Y346788D01*
X388953Y346709D01*
X388908Y346633D01*
X388859Y346558D01*
X388807Y346486D01*
X388752Y346416D01*
X388693Y346348D01*
X388632Y346284D01*
X388568Y346222D01*
X388501Y346163D01*
X388432Y346107D01*
X388360Y346054D01*
X388286Y346004D01*
X388210Y345958D01*
X388132Y345915D01*
X388052Y345876D01*
X387970Y345840D01*
X387887Y345808D01*
X387803Y345780D01*
X387717Y345755D01*
X387630Y345735D01*
X387543Y345718D01*
X387454Y345705D01*
X387366Y345696D01*
X387277Y345691D01*
X387188Y345690D01*
X387099Y345693D01*
X387010Y345700D01*
X386921Y345711D01*
X386833Y345726D01*
X386746Y345744D01*
X386660Y345767D01*
X386575Y345793D01*
X386491Y345824D01*
X386409Y345858D01*
X386328Y345895D01*
X386249Y345936D01*
X386172Y345981D01*
X386097Y346029D01*
X386024Y346080D01*
X385953Y346134D01*
X385885Y346192D01*
X385820Y346252D01*
X385757Y346316D01*
X385697Y346382D01*
X385640Y346451D01*
X385587Y346522D01*
X385536Y346595D01*
X385489Y346671D01*
X385446Y346748D01*
X385405Y346828D01*
X385369Y346909D01*
X385336Y346992D01*
X385307Y347076D01*
X385281Y347162D01*
X385259Y347248D01*
X385242Y347335D01*
X385228Y347423D01*
X385218Y347512D01*
X385212Y347601D01*
X385210Y347690D01*
D12*
X327965Y363000D02*
X327965Y369788D01*
X327966Y363000D02*
X327964Y362899D01*
X327958Y362798D01*
X327948Y362697D01*
X327935Y362597D01*
X327917Y362497D01*
X327896Y362398D01*
X327870Y362300D01*
X327841Y362203D01*
X327809Y362107D01*
X327772Y362013D01*
X327732Y361920D01*
X327688Y361828D01*
X327641Y361739D01*
X327590Y361651D01*
X327536Y361565D01*
X327479Y361482D01*
X327419Y361400D01*
X327355Y361322D01*
X327289Y361245D01*
X327219Y361172D01*
X327147Y361101D01*
X327072Y361033D01*
X326994Y360968D01*
X326914Y360906D01*
X326832Y360847D01*
X326747Y360791D01*
X326660Y360739D01*
X326572Y360690D01*
X326481Y360644D01*
X326389Y360603D01*
X326295Y360564D01*
X326200Y360530D01*
X326104Y360499D01*
X326006Y360472D01*
X325908Y360448D01*
X325808Y360429D01*
X325708Y360413D01*
X325608Y360401D01*
X325507Y360393D01*
X325406Y360389D01*
X325304Y360389D01*
X325203Y360393D01*
X325102Y360401D01*
X325002Y360413D01*
X324902Y360429D01*
X324802Y360448D01*
X324704Y360472D01*
X324606Y360499D01*
X324510Y360530D01*
X324415Y360564D01*
X324321Y360603D01*
X324229Y360644D01*
X324138Y360690D01*
X324050Y360739D01*
X323963Y360791D01*
X323878Y360847D01*
X323796Y360906D01*
X323716Y360968D01*
X323638Y361033D01*
X323563Y361101D01*
X323491Y361172D01*
X323421Y361245D01*
X323355Y361322D01*
X323291Y361400D01*
X323231Y361482D01*
X323174Y361565D01*
X323120Y361651D01*
X323069Y361739D01*
X323022Y361828D01*
X322978Y361920D01*
X322938Y362013D01*
X322901Y362107D01*
X322869Y362203D01*
X322840Y362300D01*
X322814Y362398D01*
X322793Y362497D01*
X322775Y362597D01*
X322762Y362697D01*
X322752Y362798D01*
X322746Y362899D01*
X322744Y363000D01*
X322744Y369788D01*
X318517Y367699D02*
X315906Y369788D01*
X315906Y360390D01*
X313296Y360390D02*
X318517Y360390D01*
D14*
X411480Y342900D02*
X411480Y307340D01*
X431800Y307340D01*
X431800Y342900D01*
X411480Y342900D01*
D12*
X407685Y314395D02*
X398287Y308130D01*
X398287Y314395D02*
X407685Y308130D01*
X405597Y317796D02*
X407685Y320406D01*
X398287Y320406D01*
X398287Y317796D02*
X398287Y323017D01*
X453230Y349959D02*
X462628Y349959D01*
X462628Y352569D01*
X462626Y352670D01*
X462620Y352771D01*
X462610Y352872D01*
X462597Y352972D01*
X462579Y353072D01*
X462558Y353171D01*
X462532Y353269D01*
X462503Y353366D01*
X462471Y353462D01*
X462434Y353556D01*
X462394Y353649D01*
X462350Y353741D01*
X462303Y353830D01*
X462252Y353918D01*
X462198Y354004D01*
X462141Y354087D01*
X462081Y354169D01*
X462017Y354247D01*
X461951Y354324D01*
X461881Y354397D01*
X461809Y354468D01*
X461734Y354536D01*
X461656Y354601D01*
X461576Y354663D01*
X461494Y354722D01*
X461409Y354778D01*
X461323Y354830D01*
X461234Y354879D01*
X461143Y354925D01*
X461051Y354966D01*
X460957Y355005D01*
X460862Y355039D01*
X460766Y355070D01*
X460668Y355097D01*
X460570Y355121D01*
X460470Y355140D01*
X460370Y355156D01*
X460270Y355168D01*
X460169Y355176D01*
X460068Y355180D01*
X459966Y355180D01*
X459865Y355176D01*
X459764Y355168D01*
X459664Y355156D01*
X459564Y355140D01*
X459464Y355121D01*
X459366Y355097D01*
X459268Y355070D01*
X459172Y355039D01*
X459077Y355005D01*
X458983Y354966D01*
X458891Y354925D01*
X458800Y354879D01*
X458712Y354830D01*
X458625Y354778D01*
X458540Y354722D01*
X458458Y354663D01*
X458378Y354601D01*
X458300Y354536D01*
X458225Y354468D01*
X458153Y354397D01*
X458083Y354324D01*
X458017Y354247D01*
X457953Y354169D01*
X457893Y354087D01*
X457836Y354004D01*
X457782Y353918D01*
X457731Y353830D01*
X457684Y353741D01*
X457640Y353649D01*
X457600Y353556D01*
X457563Y353462D01*
X457531Y353366D01*
X457502Y353269D01*
X457476Y353171D01*
X457455Y353072D01*
X457437Y352972D01*
X457424Y352872D01*
X457414Y352771D01*
X457408Y352670D01*
X457406Y352569D01*
X457407Y352569D02*
X457407Y349959D01*
X457407Y353091D02*
X453230Y355180D01*
X453230Y359046D02*
X453230Y361656D01*
X453229Y361656D02*
X453231Y361757D01*
X453237Y361858D01*
X453247Y361959D01*
X453260Y362059D01*
X453278Y362159D01*
X453299Y362258D01*
X453325Y362356D01*
X453354Y362453D01*
X453386Y362549D01*
X453423Y362643D01*
X453463Y362736D01*
X453507Y362828D01*
X453554Y362917D01*
X453605Y363005D01*
X453659Y363091D01*
X453716Y363174D01*
X453776Y363256D01*
X453840Y363334D01*
X453906Y363411D01*
X453976Y363484D01*
X454048Y363555D01*
X454123Y363623D01*
X454201Y363688D01*
X454281Y363750D01*
X454363Y363809D01*
X454448Y363865D01*
X454535Y363917D01*
X454623Y363966D01*
X454714Y364012D01*
X454806Y364053D01*
X454900Y364092D01*
X454995Y364126D01*
X455091Y364157D01*
X455189Y364184D01*
X455287Y364208D01*
X455387Y364227D01*
X455487Y364243D01*
X455587Y364255D01*
X455688Y364263D01*
X455789Y364267D01*
X455891Y364267D01*
X455992Y364263D01*
X456093Y364255D01*
X456193Y364243D01*
X456293Y364227D01*
X456393Y364208D01*
X456491Y364184D01*
X456589Y364157D01*
X456685Y364126D01*
X456780Y364092D01*
X456874Y364053D01*
X456966Y364012D01*
X457057Y363966D01*
X457146Y363917D01*
X457232Y363865D01*
X457317Y363809D01*
X457399Y363750D01*
X457479Y363688D01*
X457557Y363623D01*
X457632Y363555D01*
X457704Y363484D01*
X457774Y363411D01*
X457840Y363334D01*
X457904Y363256D01*
X457964Y363174D01*
X458021Y363091D01*
X458075Y363005D01*
X458126Y362917D01*
X458173Y362828D01*
X458217Y362736D01*
X458257Y362643D01*
X458294Y362549D01*
X458326Y362453D01*
X458355Y362356D01*
X458381Y362258D01*
X458402Y362159D01*
X458420Y362059D01*
X458433Y361959D01*
X458443Y361858D01*
X458449Y361757D01*
X458451Y361656D01*
X462628Y362178D02*
X462628Y359046D01*
X462627Y362178D02*
X462625Y362268D01*
X462619Y362357D01*
X462610Y362447D01*
X462596Y362536D01*
X462579Y362624D01*
X462558Y362711D01*
X462533Y362798D01*
X462504Y362883D01*
X462472Y362967D01*
X462437Y363049D01*
X462397Y363130D01*
X462355Y363209D01*
X462309Y363286D01*
X462259Y363361D01*
X462207Y363434D01*
X462151Y363505D01*
X462093Y363573D01*
X462031Y363638D01*
X461967Y363701D01*
X461900Y363761D01*
X461831Y363818D01*
X461759Y363872D01*
X461685Y363923D01*
X461609Y363971D01*
X461531Y364015D01*
X461451Y364056D01*
X461369Y364094D01*
X461286Y364128D01*
X461201Y364158D01*
X461115Y364185D01*
X461029Y364208D01*
X460941Y364227D01*
X460852Y364242D01*
X460763Y364254D01*
X460674Y364262D01*
X460584Y364266D01*
X460494Y364266D01*
X460404Y364262D01*
X460315Y364254D01*
X460226Y364242D01*
X460137Y364227D01*
X460049Y364208D01*
X459963Y364185D01*
X459877Y364158D01*
X459792Y364128D01*
X459709Y364094D01*
X459627Y364056D01*
X459547Y364015D01*
X459469Y363971D01*
X459393Y363923D01*
X459319Y363872D01*
X459247Y363818D01*
X459178Y363761D01*
X459111Y363701D01*
X459047Y363638D01*
X458985Y363573D01*
X458927Y363505D01*
X458871Y363434D01*
X458819Y363361D01*
X458769Y363286D01*
X458723Y363209D01*
X458681Y363130D01*
X458641Y363049D01*
X458606Y362967D01*
X458574Y362883D01*
X458545Y362798D01*
X458520Y362711D01*
X458499Y362624D01*
X458482Y362536D01*
X458468Y362447D01*
X458459Y362357D01*
X458453Y362268D01*
X458451Y362178D01*
X458451Y360090D01*
D10*
X284493Y368135D02*
X264363Y368135D01*
D12*
X254381Y345997D02*
X254381Y343909D01*
X254382Y343909D02*
X254384Y343820D01*
X254390Y343732D01*
X254399Y343644D01*
X254412Y343556D01*
X254429Y343469D01*
X254449Y343383D01*
X254474Y343298D01*
X254501Y343213D01*
X254533Y343130D01*
X254567Y343049D01*
X254606Y342969D01*
X254647Y342891D01*
X254692Y342814D01*
X254740Y342740D01*
X254791Y342667D01*
X254845Y342597D01*
X254903Y342530D01*
X254963Y342464D01*
X255025Y342402D01*
X255091Y342342D01*
X255158Y342284D01*
X255228Y342230D01*
X255301Y342179D01*
X255375Y342131D01*
X255452Y342086D01*
X255530Y342045D01*
X255610Y342006D01*
X255691Y341972D01*
X255774Y341940D01*
X255859Y341913D01*
X255944Y341888D01*
X256030Y341868D01*
X256117Y341851D01*
X256205Y341838D01*
X256293Y341829D01*
X256381Y341823D01*
X256470Y341821D01*
X256470Y341820D02*
X261691Y341820D01*
X261691Y341821D02*
X261782Y341823D01*
X261873Y341829D01*
X261964Y341839D01*
X262054Y341853D01*
X262143Y341870D01*
X262231Y341892D01*
X262319Y341918D01*
X262405Y341947D01*
X262490Y341980D01*
X262573Y342017D01*
X262655Y342057D01*
X262735Y342101D01*
X262813Y342148D01*
X262889Y342199D01*
X262962Y342252D01*
X263033Y342309D01*
X263102Y342370D01*
X263167Y342433D01*
X263230Y342498D01*
X263290Y342567D01*
X263348Y342638D01*
X263401Y342711D01*
X263452Y342787D01*
X263499Y342865D01*
X263543Y342945D01*
X263583Y343027D01*
X263620Y343110D01*
X263653Y343195D01*
X263682Y343281D01*
X263708Y343369D01*
X263730Y343457D01*
X263747Y343546D01*
X263761Y343636D01*
X263771Y343727D01*
X263777Y343818D01*
X263779Y343909D01*
X263779Y345997D01*
X263779Y351554D02*
X256470Y349466D01*
X256470Y354687D01*
X258558Y353121D02*
X254381Y353121D01*
D10*
X280657Y278041D02*
X300787Y278041D01*
D12*
X271061Y293762D02*
X271061Y295850D01*
X271062Y293762D02*
X271064Y293673D01*
X271070Y293585D01*
X271079Y293497D01*
X271092Y293409D01*
X271109Y293322D01*
X271129Y293236D01*
X271154Y293151D01*
X271181Y293066D01*
X271213Y292983D01*
X271247Y292902D01*
X271286Y292822D01*
X271327Y292744D01*
X271372Y292667D01*
X271420Y292593D01*
X271471Y292520D01*
X271525Y292450D01*
X271583Y292383D01*
X271643Y292317D01*
X271705Y292255D01*
X271771Y292195D01*
X271838Y292137D01*
X271908Y292083D01*
X271981Y292032D01*
X272055Y291984D01*
X272132Y291939D01*
X272210Y291898D01*
X272290Y291859D01*
X272371Y291825D01*
X272454Y291793D01*
X272539Y291766D01*
X272624Y291741D01*
X272710Y291721D01*
X272797Y291704D01*
X272885Y291691D01*
X272973Y291682D01*
X273061Y291676D01*
X273150Y291674D01*
X273150Y291673D02*
X278371Y291673D01*
X278371Y291674D02*
X278462Y291676D01*
X278553Y291682D01*
X278644Y291692D01*
X278734Y291706D01*
X278823Y291723D01*
X278911Y291745D01*
X278999Y291771D01*
X279085Y291800D01*
X279170Y291833D01*
X279253Y291870D01*
X279335Y291910D01*
X279415Y291954D01*
X279493Y292001D01*
X279569Y292052D01*
X279642Y292105D01*
X279713Y292162D01*
X279782Y292223D01*
X279847Y292286D01*
X279910Y292351D01*
X279970Y292420D01*
X280028Y292491D01*
X280081Y292564D01*
X280132Y292640D01*
X280179Y292718D01*
X280223Y292798D01*
X280263Y292880D01*
X280300Y292963D01*
X280333Y293048D01*
X280362Y293134D01*
X280388Y293222D01*
X280410Y293310D01*
X280427Y293399D01*
X280441Y293489D01*
X280451Y293580D01*
X280457Y293671D01*
X280459Y293762D01*
X280459Y295850D01*
X280459Y299319D02*
X279415Y299319D01*
X280459Y299319D02*
X280459Y304540D01*
X271061Y301930D01*
X393883Y264128D02*
X393883Y262039D01*
X393884Y262039D02*
X393886Y261950D01*
X393892Y261862D01*
X393901Y261774D01*
X393914Y261686D01*
X393931Y261599D01*
X393951Y261513D01*
X393976Y261428D01*
X394003Y261343D01*
X394035Y261260D01*
X394069Y261179D01*
X394108Y261099D01*
X394149Y261021D01*
X394194Y260944D01*
X394242Y260870D01*
X394293Y260797D01*
X394347Y260727D01*
X394405Y260660D01*
X394465Y260594D01*
X394527Y260532D01*
X394593Y260472D01*
X394660Y260414D01*
X394730Y260360D01*
X394803Y260309D01*
X394877Y260261D01*
X394954Y260216D01*
X395032Y260175D01*
X395112Y260136D01*
X395193Y260102D01*
X395276Y260070D01*
X395361Y260043D01*
X395446Y260018D01*
X395532Y259998D01*
X395619Y259981D01*
X395707Y259968D01*
X395795Y259959D01*
X395883Y259953D01*
X395972Y259951D01*
X401193Y259951D01*
X401284Y259953D01*
X401375Y259959D01*
X401466Y259969D01*
X401556Y259983D01*
X401645Y260000D01*
X401733Y260022D01*
X401821Y260048D01*
X401907Y260077D01*
X401992Y260110D01*
X402075Y260147D01*
X402157Y260187D01*
X402237Y260231D01*
X402315Y260278D01*
X402391Y260329D01*
X402464Y260382D01*
X402535Y260439D01*
X402604Y260500D01*
X402669Y260563D01*
X402732Y260628D01*
X402792Y260697D01*
X402850Y260768D01*
X402903Y260841D01*
X402954Y260917D01*
X403001Y260995D01*
X403045Y261075D01*
X403085Y261157D01*
X403122Y261240D01*
X403155Y261325D01*
X403184Y261411D01*
X403210Y261499D01*
X403232Y261587D01*
X403249Y261676D01*
X403263Y261766D01*
X403273Y261857D01*
X403279Y261948D01*
X403281Y262039D01*
X403281Y264128D01*
X401193Y267596D02*
X403281Y270207D01*
X393883Y270207D01*
X393883Y267596D02*
X393883Y272818D01*
X290160Y366645D02*
X290160Y368734D01*
X290160Y366645D02*
X290162Y366556D01*
X290168Y366468D01*
X290177Y366380D01*
X290190Y366292D01*
X290207Y366205D01*
X290227Y366119D01*
X290252Y366034D01*
X290279Y365949D01*
X290311Y365866D01*
X290345Y365785D01*
X290384Y365705D01*
X290425Y365627D01*
X290470Y365550D01*
X290518Y365476D01*
X290569Y365403D01*
X290623Y365333D01*
X290681Y365266D01*
X290741Y365200D01*
X290803Y365138D01*
X290869Y365078D01*
X290936Y365020D01*
X291006Y364966D01*
X291079Y364915D01*
X291153Y364867D01*
X291230Y364822D01*
X291308Y364781D01*
X291388Y364742D01*
X291469Y364708D01*
X291552Y364676D01*
X291637Y364649D01*
X291722Y364624D01*
X291808Y364604D01*
X291895Y364587D01*
X291983Y364574D01*
X292071Y364565D01*
X292159Y364559D01*
X292248Y364557D01*
X297469Y364557D01*
X297560Y364559D01*
X297651Y364565D01*
X297742Y364575D01*
X297832Y364589D01*
X297921Y364606D01*
X298009Y364628D01*
X298097Y364654D01*
X298183Y364683D01*
X298268Y364716D01*
X298351Y364753D01*
X298433Y364793D01*
X298513Y364837D01*
X298591Y364884D01*
X298667Y364935D01*
X298740Y364988D01*
X298811Y365045D01*
X298880Y365106D01*
X298945Y365169D01*
X299008Y365234D01*
X299068Y365303D01*
X299126Y365374D01*
X299179Y365447D01*
X299230Y365523D01*
X299277Y365601D01*
X299321Y365681D01*
X299361Y365763D01*
X299398Y365846D01*
X299431Y365931D01*
X299460Y366017D01*
X299486Y366105D01*
X299508Y366193D01*
X299525Y366282D01*
X299539Y366372D01*
X299549Y366463D01*
X299555Y366554D01*
X299557Y366645D01*
X299558Y366645D02*
X299558Y368734D01*
X290160Y372203D02*
X290160Y374813D01*
X290159Y374813D02*
X290161Y374914D01*
X290167Y375015D01*
X290177Y375116D01*
X290190Y375216D01*
X290208Y375316D01*
X290229Y375415D01*
X290255Y375513D01*
X290284Y375610D01*
X290316Y375706D01*
X290353Y375800D01*
X290393Y375893D01*
X290437Y375985D01*
X290484Y376074D01*
X290535Y376162D01*
X290589Y376248D01*
X290646Y376331D01*
X290706Y376413D01*
X290770Y376491D01*
X290836Y376568D01*
X290906Y376641D01*
X290978Y376712D01*
X291053Y376780D01*
X291131Y376845D01*
X291211Y376907D01*
X291293Y376966D01*
X291378Y377022D01*
X291465Y377074D01*
X291553Y377123D01*
X291644Y377169D01*
X291736Y377210D01*
X291830Y377249D01*
X291925Y377283D01*
X292021Y377314D01*
X292119Y377341D01*
X292217Y377365D01*
X292317Y377384D01*
X292417Y377400D01*
X292517Y377412D01*
X292618Y377420D01*
X292719Y377424D01*
X292821Y377424D01*
X292922Y377420D01*
X293023Y377412D01*
X293123Y377400D01*
X293223Y377384D01*
X293323Y377365D01*
X293421Y377341D01*
X293519Y377314D01*
X293615Y377283D01*
X293710Y377249D01*
X293804Y377210D01*
X293896Y377169D01*
X293987Y377123D01*
X294076Y377074D01*
X294162Y377022D01*
X294247Y376966D01*
X294329Y376907D01*
X294409Y376845D01*
X294487Y376780D01*
X294562Y376712D01*
X294634Y376641D01*
X294704Y376568D01*
X294770Y376491D01*
X294834Y376413D01*
X294894Y376331D01*
X294951Y376248D01*
X295005Y376162D01*
X295056Y376074D01*
X295103Y375985D01*
X295147Y375893D01*
X295187Y375800D01*
X295224Y375706D01*
X295256Y375610D01*
X295285Y375513D01*
X295311Y375415D01*
X295332Y375316D01*
X295350Y375216D01*
X295363Y375116D01*
X295373Y375015D01*
X295379Y374914D01*
X295381Y374813D01*
X299558Y375335D02*
X299558Y372203D01*
X299557Y375335D02*
X299555Y375425D01*
X299549Y375514D01*
X299540Y375604D01*
X299526Y375693D01*
X299509Y375781D01*
X299488Y375868D01*
X299463Y375955D01*
X299434Y376040D01*
X299402Y376124D01*
X299367Y376206D01*
X299327Y376287D01*
X299285Y376366D01*
X299239Y376443D01*
X299189Y376518D01*
X299137Y376591D01*
X299081Y376662D01*
X299023Y376730D01*
X298961Y376795D01*
X298897Y376858D01*
X298830Y376918D01*
X298761Y376975D01*
X298689Y377029D01*
X298615Y377080D01*
X298539Y377128D01*
X298461Y377172D01*
X298381Y377213D01*
X298299Y377251D01*
X298216Y377285D01*
X298131Y377315D01*
X298045Y377342D01*
X297959Y377365D01*
X297871Y377384D01*
X297782Y377399D01*
X297693Y377411D01*
X297604Y377419D01*
X297514Y377423D01*
X297424Y377423D01*
X297334Y377419D01*
X297245Y377411D01*
X297156Y377399D01*
X297067Y377384D01*
X296979Y377365D01*
X296893Y377342D01*
X296807Y377315D01*
X296722Y377285D01*
X296639Y377251D01*
X296557Y377213D01*
X296477Y377172D01*
X296399Y377128D01*
X296323Y377080D01*
X296249Y377029D01*
X296177Y376975D01*
X296108Y376918D01*
X296041Y376858D01*
X295977Y376795D01*
X295915Y376730D01*
X295857Y376662D01*
X295801Y376591D01*
X295749Y376518D01*
X295699Y376443D01*
X295653Y376366D01*
X295611Y376287D01*
X295571Y376206D01*
X295536Y376124D01*
X295504Y376040D01*
X295475Y375955D01*
X295450Y375868D01*
X295429Y375781D01*
X295412Y375693D01*
X295398Y375604D01*
X295389Y375514D01*
X295383Y375425D01*
X295381Y375335D01*
X295381Y373247D01*
X420938Y359870D02*
X423026Y359870D01*
X423115Y359872D01*
X423203Y359878D01*
X423291Y359887D01*
X423379Y359900D01*
X423466Y359917D01*
X423552Y359937D01*
X423637Y359962D01*
X423722Y359989D01*
X423805Y360021D01*
X423886Y360055D01*
X423966Y360094D01*
X424044Y360135D01*
X424121Y360180D01*
X424195Y360228D01*
X424268Y360279D01*
X424338Y360333D01*
X424405Y360391D01*
X424471Y360451D01*
X424533Y360513D01*
X424593Y360579D01*
X424651Y360646D01*
X424705Y360716D01*
X424756Y360789D01*
X424804Y360863D01*
X424849Y360940D01*
X424890Y361018D01*
X424929Y361098D01*
X424963Y361179D01*
X424995Y361262D01*
X425022Y361347D01*
X425047Y361432D01*
X425067Y361518D01*
X425084Y361605D01*
X425097Y361693D01*
X425106Y361781D01*
X425112Y361869D01*
X425114Y361958D01*
X425115Y361958D02*
X425115Y367179D01*
X425114Y367179D02*
X425112Y367268D01*
X425106Y367356D01*
X425097Y367444D01*
X425084Y367532D01*
X425067Y367619D01*
X425047Y367705D01*
X425022Y367790D01*
X424995Y367875D01*
X424963Y367958D01*
X424929Y368039D01*
X424890Y368119D01*
X424849Y368197D01*
X424804Y368274D01*
X424756Y368348D01*
X424705Y368421D01*
X424651Y368491D01*
X424593Y368558D01*
X424533Y368624D01*
X424471Y368686D01*
X424405Y368746D01*
X424338Y368804D01*
X424268Y368858D01*
X424195Y368909D01*
X424121Y368957D01*
X424044Y369002D01*
X423966Y369043D01*
X423886Y369082D01*
X423805Y369116D01*
X423722Y369148D01*
X423637Y369175D01*
X423552Y369200D01*
X423466Y369220D01*
X423379Y369237D01*
X423291Y369250D01*
X423203Y369259D01*
X423115Y369265D01*
X423026Y369267D01*
X423026Y369268D02*
X420938Y369268D01*
X417469Y359870D02*
X414336Y359870D01*
X414247Y359872D01*
X414159Y359878D01*
X414071Y359887D01*
X413983Y359900D01*
X413896Y359917D01*
X413810Y359937D01*
X413725Y359962D01*
X413640Y359989D01*
X413557Y360021D01*
X413476Y360055D01*
X413396Y360094D01*
X413318Y360135D01*
X413241Y360180D01*
X413167Y360228D01*
X413094Y360279D01*
X413024Y360333D01*
X412957Y360391D01*
X412891Y360451D01*
X412829Y360513D01*
X412769Y360579D01*
X412711Y360646D01*
X412657Y360716D01*
X412606Y360789D01*
X412558Y360863D01*
X412513Y360940D01*
X412472Y361018D01*
X412433Y361098D01*
X412399Y361179D01*
X412367Y361262D01*
X412340Y361347D01*
X412315Y361432D01*
X412295Y361518D01*
X412278Y361605D01*
X412265Y361693D01*
X412256Y361781D01*
X412250Y361869D01*
X412248Y361958D01*
X412248Y363002D01*
X412250Y363091D01*
X412256Y363179D01*
X412265Y363267D01*
X412278Y363355D01*
X412295Y363442D01*
X412315Y363528D01*
X412340Y363613D01*
X412367Y363698D01*
X412399Y363781D01*
X412433Y363862D01*
X412472Y363942D01*
X412513Y364020D01*
X412558Y364097D01*
X412606Y364171D01*
X412657Y364244D01*
X412711Y364314D01*
X412769Y364381D01*
X412829Y364447D01*
X412891Y364509D01*
X412957Y364569D01*
X413024Y364627D01*
X413094Y364681D01*
X413167Y364732D01*
X413241Y364780D01*
X413318Y364825D01*
X413396Y364866D01*
X413476Y364905D01*
X413557Y364939D01*
X413640Y364971D01*
X413725Y364998D01*
X413810Y365023D01*
X413896Y365043D01*
X413983Y365060D01*
X414071Y365073D01*
X414159Y365082D01*
X414247Y365088D01*
X414336Y365090D01*
X414336Y365091D02*
X417469Y365091D01*
X417469Y369268D01*
X412248Y369268D01*
X305346Y251242D02*
X303257Y251242D01*
X305346Y251242D02*
X305435Y251244D01*
X305523Y251250D01*
X305611Y251259D01*
X305699Y251272D01*
X305786Y251289D01*
X305872Y251309D01*
X305957Y251334D01*
X306042Y251361D01*
X306125Y251393D01*
X306206Y251427D01*
X306286Y251466D01*
X306364Y251507D01*
X306441Y251552D01*
X306515Y251600D01*
X306588Y251651D01*
X306658Y251705D01*
X306725Y251763D01*
X306791Y251823D01*
X306853Y251885D01*
X306913Y251951D01*
X306971Y252018D01*
X307025Y252088D01*
X307076Y252161D01*
X307124Y252235D01*
X307169Y252312D01*
X307210Y252390D01*
X307249Y252470D01*
X307283Y252551D01*
X307315Y252634D01*
X307342Y252719D01*
X307367Y252804D01*
X307387Y252890D01*
X307404Y252977D01*
X307417Y253065D01*
X307426Y253153D01*
X307432Y253241D01*
X307434Y253330D01*
X307434Y258551D01*
X307432Y258640D01*
X307426Y258728D01*
X307417Y258816D01*
X307404Y258904D01*
X307387Y258991D01*
X307367Y259077D01*
X307342Y259162D01*
X307315Y259247D01*
X307283Y259330D01*
X307249Y259411D01*
X307210Y259491D01*
X307169Y259569D01*
X307124Y259646D01*
X307076Y259720D01*
X307025Y259793D01*
X306971Y259863D01*
X306913Y259930D01*
X306853Y259996D01*
X306791Y260058D01*
X306725Y260118D01*
X306658Y260176D01*
X306588Y260230D01*
X306515Y260281D01*
X306441Y260329D01*
X306364Y260374D01*
X306286Y260415D01*
X306206Y260454D01*
X306125Y260488D01*
X306042Y260520D01*
X305957Y260547D01*
X305872Y260572D01*
X305786Y260592D01*
X305699Y260609D01*
X305611Y260622D01*
X305523Y260631D01*
X305435Y260637D01*
X305346Y260639D01*
X305346Y260640D02*
X303257Y260640D01*
X299788Y256463D02*
X296656Y256463D01*
X296656Y256462D02*
X296567Y256460D01*
X296479Y256454D01*
X296391Y256445D01*
X296303Y256432D01*
X296216Y256415D01*
X296130Y256395D01*
X296045Y256370D01*
X295960Y256343D01*
X295877Y256311D01*
X295796Y256277D01*
X295716Y256238D01*
X295638Y256197D01*
X295561Y256152D01*
X295487Y256104D01*
X295414Y256053D01*
X295344Y255999D01*
X295277Y255941D01*
X295211Y255881D01*
X295149Y255819D01*
X295089Y255753D01*
X295031Y255686D01*
X294977Y255616D01*
X294926Y255543D01*
X294878Y255469D01*
X294833Y255392D01*
X294792Y255314D01*
X294753Y255234D01*
X294719Y255153D01*
X294687Y255070D01*
X294660Y254985D01*
X294635Y254900D01*
X294615Y254814D01*
X294598Y254727D01*
X294585Y254639D01*
X294576Y254551D01*
X294570Y254463D01*
X294568Y254374D01*
X294567Y254374D02*
X294567Y253852D01*
X294569Y253751D01*
X294575Y253650D01*
X294585Y253549D01*
X294598Y253449D01*
X294616Y253349D01*
X294637Y253250D01*
X294663Y253152D01*
X294692Y253055D01*
X294724Y252959D01*
X294761Y252865D01*
X294801Y252772D01*
X294845Y252680D01*
X294892Y252591D01*
X294943Y252503D01*
X294997Y252417D01*
X295054Y252334D01*
X295114Y252252D01*
X295178Y252174D01*
X295244Y252097D01*
X295314Y252024D01*
X295386Y251953D01*
X295461Y251885D01*
X295539Y251820D01*
X295619Y251758D01*
X295701Y251699D01*
X295786Y251643D01*
X295873Y251591D01*
X295961Y251542D01*
X296052Y251496D01*
X296144Y251455D01*
X296238Y251416D01*
X296333Y251382D01*
X296429Y251351D01*
X296527Y251324D01*
X296625Y251300D01*
X296725Y251281D01*
X296825Y251265D01*
X296925Y251253D01*
X297026Y251245D01*
X297127Y251241D01*
X297229Y251241D01*
X297330Y251245D01*
X297431Y251253D01*
X297531Y251265D01*
X297631Y251281D01*
X297731Y251300D01*
X297829Y251324D01*
X297927Y251351D01*
X298023Y251382D01*
X298118Y251416D01*
X298212Y251455D01*
X298304Y251496D01*
X298395Y251542D01*
X298483Y251591D01*
X298570Y251643D01*
X298655Y251699D01*
X298737Y251758D01*
X298817Y251820D01*
X298895Y251885D01*
X298970Y251953D01*
X299042Y252024D01*
X299112Y252097D01*
X299178Y252174D01*
X299242Y252252D01*
X299302Y252334D01*
X299359Y252417D01*
X299413Y252503D01*
X299464Y252591D01*
X299511Y252680D01*
X299555Y252772D01*
X299595Y252865D01*
X299632Y252959D01*
X299664Y253055D01*
X299693Y253152D01*
X299719Y253250D01*
X299740Y253349D01*
X299758Y253449D01*
X299771Y253549D01*
X299781Y253650D01*
X299787Y253751D01*
X299789Y253852D01*
X299788Y253852D02*
X299788Y256463D01*
X299786Y256589D01*
X299780Y256715D01*
X299771Y256841D01*
X299758Y256966D01*
X299740Y257091D01*
X299720Y257216D01*
X299695Y257340D01*
X299667Y257463D01*
X299635Y257585D01*
X299599Y257706D01*
X299560Y257826D01*
X299517Y257944D01*
X299470Y258061D01*
X299420Y258177D01*
X299366Y258292D01*
X299310Y258404D01*
X299249Y258515D01*
X299186Y258624D01*
X299119Y258731D01*
X299049Y258836D01*
X298975Y258939D01*
X298899Y259039D01*
X298820Y259137D01*
X298738Y259233D01*
X298652Y259326D01*
X298565Y259417D01*
X298474Y259504D01*
X298381Y259590D01*
X298285Y259672D01*
X298187Y259751D01*
X298087Y259827D01*
X297984Y259901D01*
X297879Y259971D01*
X297772Y260038D01*
X297663Y260101D01*
X297552Y260162D01*
X297440Y260218D01*
X297325Y260272D01*
X297209Y260322D01*
X297092Y260369D01*
X296974Y260412D01*
X296854Y260451D01*
X296733Y260487D01*
X296611Y260519D01*
X296488Y260547D01*
X296364Y260572D01*
X296239Y260592D01*
X296114Y260610D01*
X295989Y260623D01*
X295863Y260632D01*
X295737Y260638D01*
X295611Y260640D01*
X376618Y360815D02*
X376618Y362904D01*
X376619Y360815D02*
X376621Y360726D01*
X376627Y360638D01*
X376636Y360550D01*
X376649Y360462D01*
X376666Y360375D01*
X376686Y360289D01*
X376711Y360204D01*
X376738Y360119D01*
X376770Y360036D01*
X376804Y359955D01*
X376843Y359875D01*
X376884Y359797D01*
X376929Y359720D01*
X376977Y359646D01*
X377028Y359573D01*
X377082Y359503D01*
X377140Y359436D01*
X377200Y359370D01*
X377262Y359308D01*
X377328Y359248D01*
X377395Y359190D01*
X377465Y359136D01*
X377538Y359085D01*
X377612Y359037D01*
X377689Y358992D01*
X377767Y358951D01*
X377847Y358912D01*
X377928Y358878D01*
X378011Y358846D01*
X378096Y358819D01*
X378181Y358794D01*
X378267Y358774D01*
X378354Y358757D01*
X378442Y358744D01*
X378530Y358735D01*
X378618Y358729D01*
X378707Y358727D01*
X383928Y358727D01*
X384019Y358729D01*
X384110Y358735D01*
X384201Y358745D01*
X384291Y358759D01*
X384380Y358776D01*
X384468Y358798D01*
X384556Y358824D01*
X384642Y358853D01*
X384727Y358886D01*
X384810Y358923D01*
X384892Y358963D01*
X384972Y359007D01*
X385050Y359054D01*
X385126Y359105D01*
X385199Y359158D01*
X385270Y359215D01*
X385339Y359276D01*
X385404Y359339D01*
X385467Y359404D01*
X385527Y359473D01*
X385585Y359544D01*
X385638Y359617D01*
X385689Y359693D01*
X385736Y359771D01*
X385780Y359851D01*
X385820Y359933D01*
X385857Y360016D01*
X385890Y360101D01*
X385919Y360187D01*
X385945Y360275D01*
X385967Y360363D01*
X385984Y360452D01*
X385998Y360542D01*
X386008Y360633D01*
X386014Y360724D01*
X386016Y360815D01*
X386016Y362904D01*
X380795Y368461D02*
X380795Y371594D01*
X380796Y368461D02*
X380798Y368372D01*
X380804Y368284D01*
X380813Y368196D01*
X380826Y368108D01*
X380843Y368021D01*
X380863Y367935D01*
X380888Y367850D01*
X380915Y367765D01*
X380947Y367682D01*
X380981Y367601D01*
X381020Y367521D01*
X381061Y367443D01*
X381106Y367366D01*
X381154Y367292D01*
X381205Y367219D01*
X381259Y367149D01*
X381317Y367082D01*
X381377Y367016D01*
X381439Y366954D01*
X381505Y366894D01*
X381572Y366836D01*
X381642Y366782D01*
X381715Y366731D01*
X381789Y366683D01*
X381866Y366638D01*
X381944Y366597D01*
X382024Y366558D01*
X382105Y366524D01*
X382188Y366492D01*
X382273Y366465D01*
X382358Y366440D01*
X382444Y366420D01*
X382531Y366403D01*
X382619Y366390D01*
X382707Y366381D01*
X382795Y366375D01*
X382884Y366373D01*
X382884Y366372D02*
X383406Y366372D01*
X383507Y366374D01*
X383608Y366380D01*
X383709Y366390D01*
X383809Y366403D01*
X383909Y366421D01*
X384008Y366442D01*
X384106Y366468D01*
X384203Y366497D01*
X384299Y366529D01*
X384393Y366566D01*
X384486Y366606D01*
X384578Y366650D01*
X384667Y366697D01*
X384755Y366748D01*
X384841Y366802D01*
X384924Y366859D01*
X385006Y366919D01*
X385084Y366983D01*
X385161Y367049D01*
X385234Y367119D01*
X385305Y367191D01*
X385373Y367266D01*
X385438Y367344D01*
X385500Y367424D01*
X385559Y367506D01*
X385615Y367591D01*
X385667Y367678D01*
X385716Y367766D01*
X385762Y367857D01*
X385803Y367949D01*
X385842Y368043D01*
X385876Y368138D01*
X385907Y368234D01*
X385934Y368332D01*
X385958Y368430D01*
X385977Y368530D01*
X385993Y368630D01*
X386005Y368730D01*
X386013Y368831D01*
X386017Y368932D01*
X386017Y369034D01*
X386013Y369135D01*
X386005Y369236D01*
X385993Y369336D01*
X385977Y369436D01*
X385958Y369536D01*
X385934Y369634D01*
X385907Y369732D01*
X385876Y369828D01*
X385842Y369923D01*
X385803Y370017D01*
X385762Y370109D01*
X385716Y370200D01*
X385667Y370288D01*
X385615Y370375D01*
X385559Y370460D01*
X385500Y370542D01*
X385438Y370622D01*
X385373Y370700D01*
X385305Y370775D01*
X385234Y370847D01*
X385161Y370917D01*
X385084Y370983D01*
X385006Y371047D01*
X384924Y371107D01*
X384841Y371164D01*
X384755Y371218D01*
X384667Y371269D01*
X384578Y371316D01*
X384486Y371360D01*
X384393Y371400D01*
X384299Y371437D01*
X384203Y371469D01*
X384106Y371498D01*
X384008Y371524D01*
X383909Y371545D01*
X383809Y371563D01*
X383709Y371576D01*
X383608Y371586D01*
X383507Y371592D01*
X383406Y371594D01*
X380795Y371594D01*
X380669Y371592D01*
X380543Y371586D01*
X380417Y371577D01*
X380292Y371564D01*
X380167Y371546D01*
X380042Y371526D01*
X379918Y371501D01*
X379795Y371473D01*
X379673Y371441D01*
X379552Y371405D01*
X379432Y371366D01*
X379314Y371323D01*
X379197Y371276D01*
X379081Y371226D01*
X378966Y371172D01*
X378854Y371116D01*
X378743Y371055D01*
X378634Y370992D01*
X378527Y370925D01*
X378422Y370855D01*
X378319Y370781D01*
X378219Y370705D01*
X378121Y370626D01*
X378025Y370544D01*
X377932Y370458D01*
X377841Y370371D01*
X377754Y370280D01*
X377668Y370187D01*
X377586Y370091D01*
X377507Y369993D01*
X377431Y369893D01*
X377357Y369790D01*
X377287Y369685D01*
X377220Y369578D01*
X377157Y369469D01*
X377096Y369358D01*
X377040Y369246D01*
X376986Y369131D01*
X376936Y369015D01*
X376889Y368898D01*
X376846Y368780D01*
X376807Y368660D01*
X376771Y368539D01*
X376739Y368417D01*
X376711Y368294D01*
X376686Y368170D01*
X376666Y368045D01*
X376648Y367920D01*
X376635Y367795D01*
X376626Y367669D01*
X376620Y367543D01*
X376618Y367417D01*
X413708Y253451D02*
X413708Y244053D01*
X413708Y253451D02*
X411097Y253451D01*
X411097Y253452D02*
X410996Y253450D01*
X410895Y253444D01*
X410794Y253434D01*
X410694Y253421D01*
X410594Y253403D01*
X410495Y253382D01*
X410397Y253356D01*
X410300Y253327D01*
X410204Y253295D01*
X410110Y253258D01*
X410017Y253218D01*
X409925Y253174D01*
X409836Y253127D01*
X409748Y253076D01*
X409662Y253022D01*
X409579Y252965D01*
X409497Y252905D01*
X409419Y252841D01*
X409342Y252775D01*
X409269Y252705D01*
X409198Y252633D01*
X409130Y252558D01*
X409065Y252480D01*
X409003Y252400D01*
X408944Y252318D01*
X408888Y252233D01*
X408836Y252147D01*
X408787Y252058D01*
X408741Y251967D01*
X408700Y251875D01*
X408661Y251781D01*
X408627Y251686D01*
X408596Y251590D01*
X408569Y251492D01*
X408545Y251394D01*
X408526Y251294D01*
X408510Y251194D01*
X408498Y251094D01*
X408490Y250993D01*
X408486Y250892D01*
X408486Y250790D01*
X408490Y250689D01*
X408498Y250588D01*
X408510Y250488D01*
X408526Y250388D01*
X408545Y250288D01*
X408569Y250190D01*
X408596Y250092D01*
X408627Y249996D01*
X408661Y249901D01*
X408700Y249807D01*
X408741Y249715D01*
X408787Y249624D01*
X408836Y249536D01*
X408888Y249449D01*
X408944Y249364D01*
X409003Y249282D01*
X409065Y249202D01*
X409130Y249124D01*
X409198Y249049D01*
X409269Y248977D01*
X409342Y248907D01*
X409419Y248841D01*
X409497Y248777D01*
X409579Y248717D01*
X409662Y248660D01*
X409748Y248606D01*
X409836Y248555D01*
X409925Y248508D01*
X410017Y248464D01*
X410110Y248424D01*
X410204Y248387D01*
X410300Y248355D01*
X410397Y248326D01*
X410495Y248300D01*
X410594Y248279D01*
X410694Y248261D01*
X410794Y248248D01*
X410895Y248238D01*
X410996Y248232D01*
X411097Y248230D01*
X413708Y248230D01*
X410575Y248230D02*
X408486Y244053D01*
X399399Y251102D02*
X399401Y251197D01*
X399407Y251291D01*
X399416Y251385D01*
X399429Y251479D01*
X399446Y251572D01*
X399467Y251664D01*
X399492Y251756D01*
X399520Y251846D01*
X399552Y251935D01*
X399587Y252023D01*
X399626Y252109D01*
X399668Y252194D01*
X399714Y252277D01*
X399763Y252358D01*
X399815Y252437D01*
X399870Y252514D01*
X399929Y252588D01*
X399990Y252660D01*
X400054Y252730D01*
X400121Y252797D01*
X400191Y252861D01*
X400263Y252922D01*
X400337Y252981D01*
X400414Y253036D01*
X400493Y253088D01*
X400574Y253137D01*
X400657Y253183D01*
X400742Y253225D01*
X400828Y253264D01*
X400916Y253299D01*
X401005Y253331D01*
X401095Y253359D01*
X401187Y253384D01*
X401279Y253405D01*
X401372Y253422D01*
X401466Y253435D01*
X401560Y253444D01*
X401654Y253450D01*
X401749Y253452D01*
X401749Y253451D02*
X401857Y253449D01*
X401966Y253443D01*
X402074Y253433D01*
X402181Y253420D01*
X402288Y253402D01*
X402395Y253381D01*
X402500Y253356D01*
X402605Y253327D01*
X402708Y253295D01*
X402810Y253258D01*
X402911Y253218D01*
X403010Y253175D01*
X403108Y253128D01*
X403204Y253077D01*
X403298Y253023D01*
X403390Y252966D01*
X403480Y252905D01*
X403568Y252841D01*
X403653Y252775D01*
X403736Y252705D01*
X403816Y252632D01*
X403894Y252556D01*
X403969Y252478D01*
X404041Y252397D01*
X404110Y252313D01*
X404176Y252227D01*
X404239Y252139D01*
X404298Y252048D01*
X404355Y251956D01*
X404408Y251861D01*
X404457Y251764D01*
X404503Y251666D01*
X404546Y251567D01*
X404585Y251465D01*
X404620Y251363D01*
X400182Y249274D02*
X400113Y249343D01*
X400047Y249414D01*
X399983Y249487D01*
X399922Y249563D01*
X399864Y249642D01*
X399810Y249722D01*
X399758Y249805D01*
X399710Y249889D01*
X399664Y249975D01*
X399623Y250063D01*
X399584Y250153D01*
X399549Y250244D01*
X399518Y250336D01*
X399490Y250429D01*
X399466Y250523D01*
X399446Y250618D01*
X399429Y250714D01*
X399416Y250811D01*
X399407Y250908D01*
X399401Y251005D01*
X399399Y251102D01*
X400183Y249274D02*
X404621Y244053D01*
X399400Y244053D01*
D15*
X412623Y408768D02*
X394773Y439685D01*
X366385Y420293D02*
X384235Y389376D01*
D16*
X418279Y381491D03*
D12*
X418515Y406685D02*
X426516Y411304D01*
X425233Y413526D01*
X425232Y413526D02*
X425181Y413611D01*
X425126Y413694D01*
X425068Y413775D01*
X425007Y413854D01*
X424943Y413930D01*
X424876Y414004D01*
X424807Y414075D01*
X424734Y414143D01*
X424659Y414209D01*
X424582Y414271D01*
X424502Y414331D01*
X424420Y414387D01*
X424336Y414440D01*
X424250Y414490D01*
X424162Y414536D01*
X424072Y414579D01*
X423980Y414618D01*
X423888Y414654D01*
X423793Y414686D01*
X423698Y414715D01*
X423602Y414740D01*
X423505Y414761D01*
X423406Y414778D01*
X423308Y414792D01*
X423209Y414801D01*
X423109Y414807D01*
X423010Y414809D01*
X422911Y414807D01*
X422811Y414801D01*
X422712Y414792D01*
X422614Y414778D01*
X422516Y414761D01*
X422418Y414740D01*
X422322Y414715D01*
X422227Y414686D01*
X422132Y414654D01*
X422040Y414618D01*
X421948Y414579D01*
X421858Y414536D01*
X421770Y414490D01*
X421684Y414440D01*
X421600Y414387D01*
X421518Y414331D01*
X421438Y414271D01*
X421361Y414209D01*
X421286Y414143D01*
X421213Y414075D01*
X421144Y414004D01*
X421077Y413930D01*
X421013Y413854D01*
X420952Y413775D01*
X420894Y413694D01*
X420839Y413611D01*
X420788Y413526D01*
X420740Y413439D01*
X420695Y413350D01*
X420654Y413259D01*
X420616Y413167D01*
X420582Y413074D01*
X420552Y412979D01*
X420525Y412883D01*
X420502Y412786D01*
X420483Y412689D01*
X420468Y412590D01*
X420456Y412491D01*
X420448Y412392D01*
X420444Y412293D01*
X420444Y412193D01*
X420448Y412094D01*
X420456Y411995D01*
X420468Y411896D01*
X420483Y411797D01*
X420502Y411700D01*
X420525Y411603D01*
X420552Y411507D01*
X420582Y411412D01*
X420616Y411319D01*
X420654Y411227D01*
X420695Y411136D01*
X420740Y411047D01*
X420788Y410960D01*
X422071Y408738D01*
X420531Y411404D02*
X415949Y411129D01*
X418488Y416996D02*
X416949Y419663D01*
X416902Y419739D01*
X416853Y419814D01*
X416800Y419886D01*
X416744Y419956D01*
X416685Y420023D01*
X416623Y420088D01*
X416558Y420150D01*
X416491Y420209D01*
X416421Y420265D01*
X416349Y420318D01*
X416274Y420367D01*
X416198Y420414D01*
X416119Y420457D01*
X416039Y420497D01*
X415957Y420533D01*
X415873Y420565D01*
X415788Y420594D01*
X415702Y420619D01*
X415615Y420640D01*
X415528Y420658D01*
X415439Y420671D01*
X415350Y420681D01*
X415261Y420687D01*
X415171Y420689D01*
X415081Y420687D01*
X414992Y420681D01*
X414903Y420671D01*
X414815Y420658D01*
X414727Y420640D01*
X414640Y420619D01*
X414554Y420594D01*
X414469Y420565D01*
X414385Y420533D01*
X414303Y420497D01*
X414223Y420457D01*
X414145Y420414D01*
X414144Y420414D02*
X413700Y420158D01*
X413700Y420157D02*
X413614Y420105D01*
X413530Y420050D01*
X413448Y419991D01*
X413368Y419929D01*
X413291Y419864D01*
X413217Y419796D01*
X413145Y419725D01*
X413076Y419652D01*
X413010Y419576D01*
X412947Y419497D01*
X412887Y419416D01*
X412831Y419332D01*
X412778Y419247D01*
X412728Y419159D01*
X412682Y419070D01*
X412639Y418979D01*
X412600Y418886D01*
X412564Y418791D01*
X412532Y418696D01*
X412504Y418599D01*
X412480Y418501D01*
X412460Y418403D01*
X412444Y418303D01*
X412431Y418203D01*
X412422Y418103D01*
X412418Y418002D01*
X412417Y417901D01*
X412421Y417801D01*
X412428Y417700D01*
X412439Y417600D01*
X412454Y417500D01*
X412473Y417401D01*
X412496Y417303D01*
X412523Y417206D01*
X412553Y417110D01*
X412587Y417015D01*
X412625Y416922D01*
X412667Y416830D01*
X412712Y416740D01*
X412761Y416652D01*
X412813Y416566D01*
X412868Y416482D01*
X412927Y416400D01*
X412989Y416320D01*
X413054Y416243D01*
X413122Y416169D01*
X413192Y416097D01*
X413266Y416028D01*
X413342Y415962D01*
X413421Y415899D01*
X413502Y415840D01*
X413585Y415783D01*
X413671Y415730D01*
X413759Y415680D01*
X413848Y415634D01*
X413939Y415591D01*
X414032Y415552D01*
X414126Y415516D01*
X414222Y415484D01*
X414319Y415456D01*
X414417Y415432D01*
X414515Y415412D01*
X414615Y415396D01*
X414715Y415383D01*
X414815Y415374D01*
X414916Y415370D01*
X415016Y415369D01*
X415117Y415373D01*
X415218Y415380D01*
X415318Y415391D01*
X415417Y415406D01*
X415516Y415425D01*
X415615Y415448D01*
X415712Y415475D01*
X415808Y415505D01*
X415902Y415539D01*
X415996Y415577D01*
X416088Y415619D01*
X416178Y415664D01*
X416266Y415713D01*
X418488Y416996D01*
X418597Y417061D01*
X418703Y417129D01*
X418807Y417201D01*
X418909Y417275D01*
X419009Y417353D01*
X419106Y417434D01*
X419201Y417518D01*
X419293Y417604D01*
X419383Y417694D01*
X419469Y417786D01*
X419553Y417881D01*
X419634Y417978D01*
X419712Y418078D01*
X419786Y418180D01*
X419858Y418284D01*
X419926Y418390D01*
X419991Y418499D01*
X420052Y418609D01*
X420111Y418722D01*
X420165Y418836D01*
X420216Y418952D01*
X420264Y419069D01*
X420308Y419187D01*
X420348Y419307D01*
X420384Y419428D01*
X420417Y419550D01*
X420446Y419674D01*
X420471Y419798D01*
X420492Y419922D01*
X420510Y420047D01*
X420523Y420173D01*
X420533Y420299D01*
X420539Y420426D01*
X420541Y420552D01*
X420539Y420678D01*
X420533Y420805D01*
X420523Y420931D01*
X420510Y421057D01*
X420492Y421182D01*
X420471Y421306D01*
X420446Y421430D01*
X420417Y421554D01*
X420384Y421676D01*
X420348Y421797D01*
X420308Y421917D01*
X420264Y422035D01*
X420216Y422152D01*
X420165Y422268D01*
X420111Y422382D01*
X420052Y422495D01*
X419991Y422605D01*
X337693Y244929D02*
X337693Y242841D01*
X337695Y242752D01*
X337701Y242664D01*
X337710Y242576D01*
X337723Y242488D01*
X337740Y242401D01*
X337760Y242315D01*
X337785Y242230D01*
X337812Y242145D01*
X337844Y242062D01*
X337878Y241981D01*
X337917Y241901D01*
X337958Y241823D01*
X338003Y241746D01*
X338051Y241672D01*
X338102Y241599D01*
X338156Y241529D01*
X338214Y241462D01*
X338274Y241396D01*
X338336Y241334D01*
X338402Y241274D01*
X338469Y241216D01*
X338539Y241162D01*
X338612Y241111D01*
X338686Y241063D01*
X338763Y241018D01*
X338841Y240977D01*
X338921Y240938D01*
X339002Y240904D01*
X339085Y240872D01*
X339170Y240845D01*
X339255Y240820D01*
X339341Y240800D01*
X339428Y240783D01*
X339516Y240770D01*
X339604Y240761D01*
X339692Y240755D01*
X339781Y240753D01*
X339781Y240752D02*
X345003Y240752D01*
X345003Y240753D02*
X345094Y240755D01*
X345185Y240761D01*
X345276Y240771D01*
X345366Y240785D01*
X345455Y240802D01*
X345543Y240824D01*
X345631Y240850D01*
X345717Y240879D01*
X345802Y240912D01*
X345885Y240949D01*
X345967Y240989D01*
X346047Y241033D01*
X346125Y241080D01*
X346201Y241131D01*
X346274Y241184D01*
X346345Y241241D01*
X346414Y241302D01*
X346479Y241365D01*
X346542Y241430D01*
X346602Y241499D01*
X346660Y241570D01*
X346713Y241643D01*
X346764Y241719D01*
X346811Y241797D01*
X346855Y241877D01*
X346895Y241959D01*
X346932Y242042D01*
X346965Y242127D01*
X346994Y242213D01*
X347020Y242301D01*
X347042Y242389D01*
X347059Y242478D01*
X347073Y242568D01*
X347083Y242659D01*
X347089Y242750D01*
X347091Y242841D01*
X347091Y244929D01*
X345003Y248398D02*
X347091Y251008D01*
X337693Y251008D01*
X337693Y248398D02*
X337693Y253619D01*
X337693Y257542D02*
X337693Y260675D01*
X337695Y260764D01*
X337701Y260852D01*
X337710Y260940D01*
X337723Y261028D01*
X337740Y261115D01*
X337760Y261201D01*
X337785Y261286D01*
X337812Y261371D01*
X337844Y261454D01*
X337878Y261535D01*
X337917Y261615D01*
X337958Y261693D01*
X338003Y261770D01*
X338051Y261844D01*
X338102Y261917D01*
X338156Y261987D01*
X338214Y262054D01*
X338274Y262120D01*
X338336Y262182D01*
X338402Y262242D01*
X338469Y262300D01*
X338539Y262354D01*
X338612Y262405D01*
X338686Y262453D01*
X338763Y262498D01*
X338841Y262539D01*
X338921Y262578D01*
X339002Y262612D01*
X339085Y262644D01*
X339170Y262671D01*
X339255Y262696D01*
X339341Y262716D01*
X339428Y262733D01*
X339516Y262746D01*
X339604Y262755D01*
X339692Y262761D01*
X339781Y262763D01*
X340826Y262763D01*
X340915Y262761D01*
X341003Y262755D01*
X341091Y262746D01*
X341179Y262733D01*
X341266Y262716D01*
X341352Y262696D01*
X341437Y262671D01*
X341522Y262644D01*
X341605Y262612D01*
X341686Y262578D01*
X341766Y262539D01*
X341844Y262498D01*
X341921Y262453D01*
X341995Y262405D01*
X342068Y262354D01*
X342138Y262300D01*
X342205Y262242D01*
X342271Y262182D01*
X342333Y262120D01*
X342393Y262054D01*
X342451Y261987D01*
X342505Y261917D01*
X342556Y261844D01*
X342604Y261770D01*
X342649Y261693D01*
X342690Y261615D01*
X342729Y261535D01*
X342763Y261454D01*
X342795Y261371D01*
X342822Y261286D01*
X342847Y261201D01*
X342867Y261115D01*
X342884Y261028D01*
X342897Y260940D01*
X342906Y260852D01*
X342912Y260764D01*
X342914Y260675D01*
X342914Y257542D01*
X347091Y257542D01*
X347091Y262763D01*
X371221Y251841D02*
X380619Y251841D01*
X380619Y254452D01*
X380617Y254553D01*
X380611Y254654D01*
X380601Y254755D01*
X380588Y254855D01*
X380570Y254955D01*
X380549Y255054D01*
X380523Y255152D01*
X380494Y255249D01*
X380462Y255345D01*
X380425Y255439D01*
X380385Y255532D01*
X380341Y255624D01*
X380294Y255713D01*
X380243Y255801D01*
X380189Y255887D01*
X380132Y255970D01*
X380072Y256052D01*
X380008Y256130D01*
X379942Y256207D01*
X379872Y256280D01*
X379800Y256351D01*
X379725Y256419D01*
X379647Y256484D01*
X379567Y256546D01*
X379485Y256605D01*
X379400Y256661D01*
X379314Y256713D01*
X379225Y256762D01*
X379134Y256808D01*
X379042Y256849D01*
X378948Y256888D01*
X378853Y256922D01*
X378757Y256953D01*
X378659Y256980D01*
X378561Y257004D01*
X378461Y257023D01*
X378361Y257039D01*
X378261Y257051D01*
X378160Y257059D01*
X378059Y257063D01*
X377957Y257063D01*
X377856Y257059D01*
X377755Y257051D01*
X377655Y257039D01*
X377555Y257023D01*
X377455Y257004D01*
X377357Y256980D01*
X377259Y256953D01*
X377163Y256922D01*
X377068Y256888D01*
X376974Y256849D01*
X376882Y256808D01*
X376791Y256762D01*
X376703Y256713D01*
X376616Y256661D01*
X376531Y256605D01*
X376449Y256546D01*
X376369Y256484D01*
X376291Y256419D01*
X376216Y256351D01*
X376144Y256280D01*
X376074Y256207D01*
X376008Y256130D01*
X375944Y256052D01*
X375884Y255970D01*
X375827Y255887D01*
X375773Y255801D01*
X375722Y255713D01*
X375675Y255624D01*
X375631Y255532D01*
X375591Y255439D01*
X375554Y255345D01*
X375522Y255249D01*
X375493Y255152D01*
X375467Y255054D01*
X375446Y254955D01*
X375428Y254855D01*
X375415Y254755D01*
X375405Y254654D01*
X375399Y254553D01*
X375397Y254452D01*
X375398Y254452D02*
X375398Y251841D01*
X375398Y254974D02*
X371221Y257062D01*
X379575Y260928D02*
X380619Y260928D01*
X380619Y266149D01*
X371221Y263538D01*
X291719Y462661D02*
X291719Y472059D01*
X289108Y472059D01*
X289007Y472057D01*
X288906Y472051D01*
X288805Y472041D01*
X288705Y472028D01*
X288605Y472010D01*
X288506Y471989D01*
X288408Y471963D01*
X288311Y471934D01*
X288215Y471902D01*
X288121Y471865D01*
X288028Y471825D01*
X287936Y471781D01*
X287847Y471734D01*
X287759Y471683D01*
X287673Y471629D01*
X287590Y471572D01*
X287508Y471512D01*
X287430Y471448D01*
X287353Y471382D01*
X287280Y471312D01*
X287209Y471240D01*
X287141Y471165D01*
X287076Y471087D01*
X287014Y471007D01*
X286955Y470925D01*
X286899Y470840D01*
X286847Y470754D01*
X286798Y470665D01*
X286752Y470574D01*
X286711Y470482D01*
X286672Y470388D01*
X286638Y470293D01*
X286607Y470197D01*
X286580Y470099D01*
X286556Y470001D01*
X286537Y469901D01*
X286521Y469801D01*
X286509Y469701D01*
X286501Y469600D01*
X286497Y469499D01*
X286497Y469397D01*
X286501Y469296D01*
X286509Y469195D01*
X286521Y469095D01*
X286537Y468995D01*
X286556Y468895D01*
X286580Y468797D01*
X286607Y468699D01*
X286638Y468603D01*
X286672Y468508D01*
X286711Y468414D01*
X286752Y468322D01*
X286798Y468231D01*
X286847Y468143D01*
X286899Y468056D01*
X286955Y467971D01*
X287014Y467889D01*
X287076Y467809D01*
X287141Y467731D01*
X287209Y467656D01*
X287280Y467584D01*
X287353Y467514D01*
X287430Y467448D01*
X287508Y467384D01*
X287590Y467324D01*
X287673Y467267D01*
X287759Y467213D01*
X287847Y467162D01*
X287936Y467115D01*
X288028Y467071D01*
X288121Y467031D01*
X288215Y466994D01*
X288311Y466962D01*
X288408Y466933D01*
X288506Y466907D01*
X288605Y466886D01*
X288705Y466868D01*
X288805Y466855D01*
X288906Y466845D01*
X289007Y466839D01*
X289108Y466837D01*
X289108Y466838D02*
X291719Y466838D01*
X288586Y466838D02*
X286498Y462661D01*
X282633Y465272D02*
X282631Y465373D01*
X282625Y465474D01*
X282615Y465575D01*
X282602Y465675D01*
X282584Y465775D01*
X282563Y465874D01*
X282537Y465972D01*
X282508Y466069D01*
X282476Y466165D01*
X282439Y466259D01*
X282399Y466352D01*
X282355Y466444D01*
X282308Y466533D01*
X282257Y466621D01*
X282203Y466707D01*
X282146Y466790D01*
X282086Y466872D01*
X282022Y466950D01*
X281956Y467027D01*
X281886Y467100D01*
X281814Y467171D01*
X281739Y467239D01*
X281661Y467304D01*
X281581Y467366D01*
X281499Y467425D01*
X281414Y467481D01*
X281328Y467533D01*
X281239Y467582D01*
X281148Y467628D01*
X281056Y467669D01*
X280962Y467708D01*
X280867Y467742D01*
X280771Y467773D01*
X280673Y467800D01*
X280575Y467824D01*
X280475Y467843D01*
X280375Y467859D01*
X280275Y467871D01*
X280174Y467879D01*
X280073Y467883D01*
X279971Y467883D01*
X279870Y467879D01*
X279769Y467871D01*
X279669Y467859D01*
X279569Y467843D01*
X279469Y467824D01*
X279371Y467800D01*
X279273Y467773D01*
X279177Y467742D01*
X279082Y467708D01*
X278988Y467669D01*
X278896Y467628D01*
X278805Y467582D01*
X278717Y467533D01*
X278630Y467481D01*
X278545Y467425D01*
X278463Y467366D01*
X278383Y467304D01*
X278305Y467239D01*
X278230Y467171D01*
X278158Y467100D01*
X278088Y467027D01*
X278022Y466950D01*
X277958Y466872D01*
X277898Y466790D01*
X277841Y466707D01*
X277787Y466621D01*
X277736Y466533D01*
X277689Y466444D01*
X277645Y466352D01*
X277605Y466259D01*
X277568Y466165D01*
X277536Y466069D01*
X277507Y465972D01*
X277481Y465874D01*
X277460Y465775D01*
X277442Y465675D01*
X277429Y465575D01*
X277419Y465474D01*
X277413Y465373D01*
X277411Y465272D01*
X277413Y465171D01*
X277419Y465070D01*
X277429Y464969D01*
X277442Y464869D01*
X277460Y464769D01*
X277481Y464670D01*
X277507Y464572D01*
X277536Y464475D01*
X277568Y464379D01*
X277605Y464285D01*
X277645Y464192D01*
X277689Y464100D01*
X277736Y464011D01*
X277787Y463923D01*
X277841Y463837D01*
X277898Y463754D01*
X277958Y463672D01*
X278022Y463594D01*
X278088Y463517D01*
X278158Y463444D01*
X278230Y463373D01*
X278305Y463305D01*
X278383Y463240D01*
X278463Y463178D01*
X278545Y463119D01*
X278630Y463063D01*
X278717Y463011D01*
X278805Y462962D01*
X278896Y462916D01*
X278988Y462875D01*
X279082Y462836D01*
X279177Y462802D01*
X279273Y462771D01*
X279371Y462744D01*
X279469Y462720D01*
X279569Y462701D01*
X279669Y462685D01*
X279769Y462673D01*
X279870Y462665D01*
X279971Y462661D01*
X280073Y462661D01*
X280174Y462665D01*
X280275Y462673D01*
X280375Y462685D01*
X280475Y462701D01*
X280575Y462720D01*
X280673Y462744D01*
X280771Y462771D01*
X280867Y462802D01*
X280962Y462836D01*
X281056Y462875D01*
X281148Y462916D01*
X281239Y462962D01*
X281327Y463011D01*
X281414Y463063D01*
X281499Y463119D01*
X281581Y463178D01*
X281661Y463240D01*
X281739Y463305D01*
X281814Y463373D01*
X281886Y463444D01*
X281956Y463517D01*
X282022Y463594D01*
X282086Y463672D01*
X282146Y463754D01*
X282203Y463837D01*
X282257Y463923D01*
X282308Y464011D01*
X282355Y464100D01*
X282399Y464192D01*
X282439Y464285D01*
X282476Y464379D01*
X282508Y464475D01*
X282537Y464572D01*
X282563Y464670D01*
X282584Y464769D01*
X282602Y464869D01*
X282615Y464969D01*
X282625Y465070D01*
X282631Y465171D01*
X282633Y465272D01*
X282110Y469971D02*
X282108Y470061D01*
X282102Y470150D01*
X282093Y470240D01*
X282079Y470329D01*
X282062Y470417D01*
X282041Y470504D01*
X282016Y470591D01*
X281987Y470676D01*
X281955Y470760D01*
X281920Y470842D01*
X281880Y470923D01*
X281838Y471002D01*
X281792Y471079D01*
X281742Y471154D01*
X281690Y471227D01*
X281634Y471298D01*
X281576Y471366D01*
X281514Y471431D01*
X281450Y471494D01*
X281383Y471554D01*
X281314Y471611D01*
X281242Y471665D01*
X281168Y471716D01*
X281092Y471764D01*
X281014Y471808D01*
X280934Y471849D01*
X280852Y471887D01*
X280769Y471921D01*
X280684Y471951D01*
X280598Y471978D01*
X280512Y472001D01*
X280424Y472020D01*
X280335Y472035D01*
X280246Y472047D01*
X280157Y472055D01*
X280067Y472059D01*
X279977Y472059D01*
X279887Y472055D01*
X279798Y472047D01*
X279709Y472035D01*
X279620Y472020D01*
X279532Y472001D01*
X279446Y471978D01*
X279360Y471951D01*
X279275Y471921D01*
X279192Y471887D01*
X279110Y471849D01*
X279030Y471808D01*
X278952Y471764D01*
X278876Y471716D01*
X278802Y471665D01*
X278730Y471611D01*
X278661Y471554D01*
X278594Y471494D01*
X278530Y471431D01*
X278468Y471366D01*
X278410Y471298D01*
X278354Y471227D01*
X278302Y471154D01*
X278252Y471079D01*
X278206Y471002D01*
X278164Y470923D01*
X278124Y470842D01*
X278089Y470760D01*
X278057Y470676D01*
X278028Y470591D01*
X278003Y470504D01*
X277982Y470417D01*
X277965Y470329D01*
X277951Y470240D01*
X277942Y470150D01*
X277936Y470061D01*
X277934Y469971D01*
X277936Y469881D01*
X277942Y469792D01*
X277951Y469702D01*
X277965Y469613D01*
X277982Y469525D01*
X278003Y469438D01*
X278028Y469351D01*
X278057Y469266D01*
X278089Y469182D01*
X278124Y469100D01*
X278164Y469019D01*
X278206Y468940D01*
X278252Y468863D01*
X278302Y468788D01*
X278354Y468715D01*
X278410Y468644D01*
X278468Y468576D01*
X278530Y468511D01*
X278594Y468448D01*
X278661Y468388D01*
X278730Y468331D01*
X278802Y468277D01*
X278876Y468226D01*
X278952Y468178D01*
X279030Y468134D01*
X279110Y468093D01*
X279192Y468055D01*
X279275Y468021D01*
X279360Y467991D01*
X279446Y467964D01*
X279532Y467941D01*
X279620Y467922D01*
X279709Y467907D01*
X279798Y467895D01*
X279887Y467887D01*
X279977Y467883D01*
X280067Y467883D01*
X280157Y467887D01*
X280246Y467895D01*
X280335Y467907D01*
X280424Y467922D01*
X280512Y467941D01*
X280598Y467964D01*
X280684Y467991D01*
X280769Y468021D01*
X280852Y468055D01*
X280934Y468093D01*
X281014Y468134D01*
X281092Y468178D01*
X281168Y468226D01*
X281242Y468277D01*
X281314Y468331D01*
X281383Y468388D01*
X281450Y468448D01*
X281514Y468511D01*
X281576Y468576D01*
X281634Y468644D01*
X281690Y468715D01*
X281742Y468788D01*
X281792Y468863D01*
X281838Y468940D01*
X281880Y469019D01*
X281920Y469100D01*
X281955Y469182D01*
X281987Y469266D01*
X282016Y469351D01*
X282041Y469438D01*
X282062Y469525D01*
X282079Y469613D01*
X282093Y469702D01*
X282102Y469792D01*
X282108Y469881D01*
X282110Y469971D01*
X379349Y477901D02*
X379349Y487299D01*
X376738Y487299D01*
X376637Y487297D01*
X376536Y487291D01*
X376435Y487281D01*
X376335Y487268D01*
X376235Y487250D01*
X376136Y487229D01*
X376038Y487203D01*
X375941Y487174D01*
X375845Y487142D01*
X375751Y487105D01*
X375658Y487065D01*
X375566Y487021D01*
X375477Y486974D01*
X375389Y486923D01*
X375303Y486869D01*
X375220Y486812D01*
X375138Y486752D01*
X375060Y486688D01*
X374983Y486622D01*
X374910Y486552D01*
X374839Y486480D01*
X374771Y486405D01*
X374706Y486327D01*
X374644Y486247D01*
X374585Y486165D01*
X374529Y486080D01*
X374477Y485994D01*
X374428Y485905D01*
X374382Y485814D01*
X374341Y485722D01*
X374302Y485628D01*
X374268Y485533D01*
X374237Y485437D01*
X374210Y485339D01*
X374186Y485241D01*
X374167Y485141D01*
X374151Y485041D01*
X374139Y484941D01*
X374131Y484840D01*
X374127Y484739D01*
X374127Y484637D01*
X374131Y484536D01*
X374139Y484435D01*
X374151Y484335D01*
X374167Y484235D01*
X374186Y484135D01*
X374210Y484037D01*
X374237Y483939D01*
X374268Y483843D01*
X374302Y483748D01*
X374341Y483654D01*
X374382Y483562D01*
X374428Y483471D01*
X374477Y483383D01*
X374529Y483296D01*
X374585Y483211D01*
X374644Y483129D01*
X374706Y483049D01*
X374771Y482971D01*
X374839Y482896D01*
X374910Y482824D01*
X374983Y482754D01*
X375060Y482688D01*
X375138Y482624D01*
X375220Y482564D01*
X375303Y482507D01*
X375389Y482453D01*
X375477Y482402D01*
X375566Y482355D01*
X375658Y482311D01*
X375751Y482271D01*
X375845Y482234D01*
X375941Y482202D01*
X376038Y482173D01*
X376136Y482147D01*
X376235Y482126D01*
X376335Y482108D01*
X376435Y482095D01*
X376536Y482085D01*
X376637Y482079D01*
X376738Y482077D01*
X376738Y482078D02*
X379349Y482078D01*
X376216Y482078D02*
X374128Y477901D01*
X368174Y482078D02*
X365041Y482078D01*
X368174Y482078D02*
X368263Y482080D01*
X368351Y482086D01*
X368439Y482095D01*
X368527Y482108D01*
X368614Y482125D01*
X368700Y482145D01*
X368785Y482170D01*
X368870Y482197D01*
X368953Y482229D01*
X369034Y482263D01*
X369114Y482302D01*
X369192Y482343D01*
X369269Y482388D01*
X369343Y482436D01*
X369416Y482487D01*
X369486Y482541D01*
X369553Y482599D01*
X369619Y482659D01*
X369681Y482721D01*
X369741Y482787D01*
X369799Y482854D01*
X369853Y482924D01*
X369904Y482997D01*
X369952Y483071D01*
X369997Y483148D01*
X370038Y483226D01*
X370077Y483306D01*
X370111Y483387D01*
X370143Y483470D01*
X370170Y483555D01*
X370195Y483640D01*
X370215Y483726D01*
X370232Y483813D01*
X370245Y483901D01*
X370254Y483989D01*
X370260Y484077D01*
X370262Y484166D01*
X370262Y484688D01*
X370263Y484688D02*
X370261Y484789D01*
X370255Y484890D01*
X370245Y484991D01*
X370232Y485091D01*
X370214Y485191D01*
X370193Y485290D01*
X370167Y485388D01*
X370138Y485485D01*
X370106Y485581D01*
X370069Y485675D01*
X370029Y485768D01*
X369985Y485860D01*
X369938Y485949D01*
X369887Y486037D01*
X369833Y486123D01*
X369776Y486206D01*
X369716Y486288D01*
X369652Y486366D01*
X369586Y486443D01*
X369516Y486516D01*
X369444Y486587D01*
X369369Y486655D01*
X369291Y486720D01*
X369211Y486782D01*
X369129Y486841D01*
X369044Y486897D01*
X368958Y486949D01*
X368869Y486998D01*
X368778Y487044D01*
X368686Y487085D01*
X368592Y487124D01*
X368497Y487158D01*
X368401Y487189D01*
X368303Y487216D01*
X368205Y487240D01*
X368105Y487259D01*
X368005Y487275D01*
X367905Y487287D01*
X367804Y487295D01*
X367703Y487299D01*
X367601Y487299D01*
X367500Y487295D01*
X367399Y487287D01*
X367299Y487275D01*
X367199Y487259D01*
X367099Y487240D01*
X367001Y487216D01*
X366903Y487189D01*
X366807Y487158D01*
X366712Y487124D01*
X366618Y487085D01*
X366526Y487044D01*
X366435Y486998D01*
X366347Y486949D01*
X366260Y486897D01*
X366175Y486841D01*
X366093Y486782D01*
X366013Y486720D01*
X365935Y486655D01*
X365860Y486587D01*
X365788Y486516D01*
X365718Y486443D01*
X365652Y486366D01*
X365588Y486288D01*
X365528Y486206D01*
X365471Y486123D01*
X365417Y486037D01*
X365366Y485949D01*
X365319Y485860D01*
X365275Y485768D01*
X365235Y485675D01*
X365198Y485581D01*
X365166Y485485D01*
X365137Y485388D01*
X365111Y485290D01*
X365090Y485191D01*
X365072Y485091D01*
X365059Y484991D01*
X365049Y484890D01*
X365043Y484789D01*
X365041Y484688D01*
X365041Y482078D01*
X365043Y481952D01*
X365049Y481826D01*
X365058Y481700D01*
X365071Y481575D01*
X365089Y481450D01*
X365109Y481325D01*
X365134Y481201D01*
X365162Y481078D01*
X365194Y480956D01*
X365230Y480835D01*
X365269Y480715D01*
X365312Y480597D01*
X365359Y480480D01*
X365409Y480364D01*
X365463Y480249D01*
X365519Y480137D01*
X365580Y480026D01*
X365643Y479917D01*
X365710Y479810D01*
X365780Y479705D01*
X365854Y479602D01*
X365930Y479502D01*
X366009Y479404D01*
X366091Y479308D01*
X366177Y479215D01*
X366264Y479124D01*
X366355Y479037D01*
X366448Y478951D01*
X366544Y478869D01*
X366642Y478790D01*
X366742Y478714D01*
X366845Y478640D01*
X366950Y478570D01*
X367057Y478503D01*
X367166Y478440D01*
X367277Y478379D01*
X367389Y478323D01*
X367504Y478269D01*
X367620Y478219D01*
X367737Y478172D01*
X367855Y478129D01*
X367975Y478090D01*
X368096Y478054D01*
X368218Y478022D01*
X368341Y477994D01*
X368465Y477969D01*
X368590Y477949D01*
X368715Y477931D01*
X368840Y477918D01*
X368966Y477909D01*
X369092Y477903D01*
X369218Y477901D01*
X356489Y444881D02*
X347091Y444881D01*
X356489Y444881D02*
X356489Y447492D01*
X356487Y447593D01*
X356481Y447694D01*
X356471Y447795D01*
X356458Y447895D01*
X356440Y447995D01*
X356419Y448094D01*
X356393Y448192D01*
X356364Y448289D01*
X356332Y448385D01*
X356295Y448479D01*
X356255Y448572D01*
X356211Y448664D01*
X356164Y448753D01*
X356113Y448841D01*
X356059Y448927D01*
X356002Y449010D01*
X355942Y449092D01*
X355878Y449170D01*
X355812Y449247D01*
X355742Y449320D01*
X355670Y449391D01*
X355595Y449459D01*
X355517Y449524D01*
X355437Y449586D01*
X355355Y449645D01*
X355270Y449701D01*
X355184Y449753D01*
X355095Y449802D01*
X355004Y449848D01*
X354912Y449889D01*
X354818Y449928D01*
X354723Y449962D01*
X354627Y449993D01*
X354529Y450020D01*
X354431Y450044D01*
X354331Y450063D01*
X354231Y450079D01*
X354131Y450091D01*
X354030Y450099D01*
X353929Y450103D01*
X353827Y450103D01*
X353726Y450099D01*
X353625Y450091D01*
X353525Y450079D01*
X353425Y450063D01*
X353325Y450044D01*
X353227Y450020D01*
X353129Y449993D01*
X353033Y449962D01*
X352938Y449928D01*
X352844Y449889D01*
X352752Y449848D01*
X352661Y449802D01*
X352573Y449753D01*
X352486Y449701D01*
X352401Y449645D01*
X352319Y449586D01*
X352239Y449524D01*
X352161Y449459D01*
X352086Y449391D01*
X352014Y449320D01*
X351944Y449247D01*
X351878Y449170D01*
X351814Y449092D01*
X351754Y449010D01*
X351697Y448927D01*
X351643Y448841D01*
X351592Y448753D01*
X351545Y448664D01*
X351501Y448572D01*
X351461Y448479D01*
X351424Y448385D01*
X351392Y448289D01*
X351363Y448192D01*
X351337Y448094D01*
X351316Y447995D01*
X351298Y447895D01*
X351285Y447795D01*
X351275Y447694D01*
X351269Y447593D01*
X351267Y447492D01*
X351268Y447492D02*
X351268Y444881D01*
X351268Y448014D02*
X347091Y450102D01*
X354401Y453968D02*
X356489Y456578D01*
X347091Y456578D01*
X347091Y453968D02*
X347091Y459189D01*
X351790Y463112D02*
X351975Y463114D01*
X352160Y463121D01*
X352344Y463132D01*
X352528Y463147D01*
X352712Y463167D01*
X352896Y463191D01*
X353078Y463220D01*
X353260Y463253D01*
X353441Y463290D01*
X353621Y463332D01*
X353801Y463378D01*
X353979Y463428D01*
X354155Y463482D01*
X354331Y463541D01*
X354505Y463603D01*
X354677Y463670D01*
X354848Y463741D01*
X355017Y463816D01*
X355184Y463895D01*
X355184Y463894D02*
X355264Y463924D01*
X355343Y463957D01*
X355420Y463994D01*
X355496Y464034D01*
X355570Y464077D01*
X355642Y464123D01*
X355711Y464173D01*
X355779Y464225D01*
X355844Y464281D01*
X355907Y464339D01*
X355966Y464401D01*
X356024Y464464D01*
X356078Y464531D01*
X356129Y464599D01*
X356177Y464670D01*
X356222Y464743D01*
X356264Y464817D01*
X356302Y464894D01*
X356337Y464972D01*
X356369Y465051D01*
X356397Y465132D01*
X356421Y465214D01*
X356442Y465298D01*
X356459Y465381D01*
X356472Y465466D01*
X356481Y465551D01*
X356487Y465636D01*
X356489Y465722D01*
X356487Y465808D01*
X356481Y465893D01*
X356472Y465978D01*
X356459Y466063D01*
X356442Y466146D01*
X356421Y466230D01*
X356397Y466312D01*
X356369Y466393D01*
X356337Y466472D01*
X356302Y466550D01*
X356264Y466627D01*
X356222Y466701D01*
X356177Y466774D01*
X356129Y466845D01*
X356078Y466913D01*
X356024Y466980D01*
X355966Y467043D01*
X355907Y467105D01*
X355844Y467163D01*
X355779Y467219D01*
X355711Y467271D01*
X355642Y467321D01*
X355570Y467367D01*
X355496Y467410D01*
X355420Y467450D01*
X355343Y467487D01*
X355264Y467520D01*
X355184Y467550D01*
X355017Y467629D01*
X354848Y467704D01*
X354677Y467775D01*
X354505Y467842D01*
X354331Y467904D01*
X354155Y467963D01*
X353979Y468017D01*
X353801Y468067D01*
X353621Y468113D01*
X353441Y468155D01*
X353260Y468192D01*
X353078Y468225D01*
X352896Y468254D01*
X352712Y468278D01*
X352528Y468298D01*
X352344Y468313D01*
X352160Y468324D01*
X351975Y468331D01*
X351790Y468333D01*
X351790Y463112D02*
X351605Y463114D01*
X351420Y463121D01*
X351236Y463132D01*
X351052Y463147D01*
X350868Y463167D01*
X350684Y463191D01*
X350502Y463220D01*
X350320Y463253D01*
X350139Y463290D01*
X349959Y463332D01*
X349779Y463378D01*
X349601Y463428D01*
X349425Y463482D01*
X349249Y463541D01*
X349075Y463603D01*
X348903Y463670D01*
X348732Y463741D01*
X348563Y463816D01*
X348396Y463895D01*
X348396Y463894D02*
X348316Y463924D01*
X348237Y463957D01*
X348160Y463994D01*
X348084Y464034D01*
X348010Y464077D01*
X347938Y464123D01*
X347869Y464173D01*
X347801Y464226D01*
X347736Y464281D01*
X347673Y464340D01*
X347614Y464401D01*
X347556Y464464D01*
X347502Y464531D01*
X347451Y464599D01*
X347403Y464670D01*
X347358Y464743D01*
X347316Y464817D01*
X347278Y464894D01*
X347243Y464972D01*
X347211Y465051D01*
X347183Y465132D01*
X347159Y465214D01*
X347138Y465298D01*
X347121Y465381D01*
X347108Y465466D01*
X347099Y465551D01*
X347093Y465636D01*
X347091Y465722D01*
X348396Y467550D02*
X348563Y467629D01*
X348732Y467704D01*
X348903Y467775D01*
X349075Y467842D01*
X349249Y467904D01*
X349425Y467963D01*
X349601Y468017D01*
X349779Y468067D01*
X349959Y468113D01*
X350139Y468155D01*
X350320Y468192D01*
X350502Y468225D01*
X350684Y468254D01*
X350868Y468278D01*
X351052Y468298D01*
X351236Y468313D01*
X351420Y468324D01*
X351605Y468331D01*
X351790Y468333D01*
X348396Y467550D02*
X348316Y467520D01*
X348237Y467487D01*
X348160Y467450D01*
X348084Y467410D01*
X348010Y467367D01*
X347938Y467321D01*
X347869Y467271D01*
X347801Y467219D01*
X347736Y467163D01*
X347673Y467105D01*
X347614Y467043D01*
X347556Y466980D01*
X347502Y466913D01*
X347451Y466845D01*
X347403Y466774D01*
X347358Y466701D01*
X347316Y466627D01*
X347278Y466550D01*
X347243Y466472D01*
X347211Y466393D01*
X347183Y466312D01*
X347159Y466230D01*
X347138Y466146D01*
X347121Y466063D01*
X347108Y465978D01*
X347099Y465893D01*
X347093Y465808D01*
X347091Y465722D01*
X349179Y463634D02*
X354401Y467811D01*
X255651Y311985D02*
X255651Y309897D01*
X255653Y309808D01*
X255659Y309720D01*
X255668Y309632D01*
X255681Y309544D01*
X255698Y309457D01*
X255718Y309371D01*
X255743Y309286D01*
X255770Y309201D01*
X255802Y309118D01*
X255836Y309037D01*
X255875Y308957D01*
X255916Y308879D01*
X255961Y308802D01*
X256009Y308728D01*
X256060Y308655D01*
X256114Y308585D01*
X256172Y308518D01*
X256232Y308452D01*
X256294Y308390D01*
X256360Y308330D01*
X256427Y308272D01*
X256497Y308218D01*
X256570Y308167D01*
X256644Y308119D01*
X256721Y308074D01*
X256799Y308033D01*
X256879Y307994D01*
X256960Y307960D01*
X257043Y307928D01*
X257128Y307901D01*
X257213Y307876D01*
X257299Y307856D01*
X257386Y307839D01*
X257474Y307826D01*
X257562Y307817D01*
X257650Y307811D01*
X257739Y307809D01*
X257739Y307808D02*
X262961Y307808D01*
X262961Y307809D02*
X263052Y307811D01*
X263143Y307817D01*
X263234Y307827D01*
X263324Y307841D01*
X263413Y307858D01*
X263501Y307880D01*
X263589Y307906D01*
X263675Y307935D01*
X263760Y307968D01*
X263843Y308005D01*
X263925Y308045D01*
X264005Y308089D01*
X264083Y308136D01*
X264159Y308187D01*
X264232Y308240D01*
X264303Y308297D01*
X264372Y308358D01*
X264437Y308421D01*
X264500Y308486D01*
X264560Y308555D01*
X264618Y308626D01*
X264671Y308699D01*
X264722Y308775D01*
X264769Y308853D01*
X264813Y308933D01*
X264853Y309015D01*
X264890Y309098D01*
X264923Y309183D01*
X264952Y309269D01*
X264978Y309357D01*
X265000Y309445D01*
X265017Y309534D01*
X265031Y309624D01*
X265041Y309715D01*
X265047Y309806D01*
X265049Y309897D01*
X265049Y311985D01*
X262961Y315454D02*
X265049Y318064D01*
X255651Y318064D01*
X255651Y315454D02*
X255651Y320675D01*
X259828Y326686D02*
X259828Y329819D01*
X259828Y326686D02*
X259830Y326597D01*
X259836Y326509D01*
X259845Y326421D01*
X259858Y326333D01*
X259875Y326246D01*
X259895Y326160D01*
X259920Y326075D01*
X259947Y325990D01*
X259979Y325907D01*
X260013Y325826D01*
X260052Y325746D01*
X260093Y325668D01*
X260138Y325591D01*
X260186Y325517D01*
X260237Y325444D01*
X260291Y325374D01*
X260349Y325307D01*
X260409Y325241D01*
X260471Y325179D01*
X260537Y325119D01*
X260604Y325061D01*
X260674Y325007D01*
X260747Y324956D01*
X260821Y324908D01*
X260898Y324863D01*
X260976Y324822D01*
X261056Y324783D01*
X261137Y324749D01*
X261220Y324717D01*
X261305Y324690D01*
X261390Y324665D01*
X261476Y324645D01*
X261563Y324628D01*
X261651Y324615D01*
X261739Y324606D01*
X261827Y324600D01*
X261916Y324598D01*
X262438Y324598D01*
X262438Y324597D02*
X262539Y324599D01*
X262640Y324605D01*
X262741Y324615D01*
X262841Y324628D01*
X262941Y324646D01*
X263040Y324667D01*
X263138Y324693D01*
X263235Y324722D01*
X263331Y324754D01*
X263425Y324791D01*
X263518Y324831D01*
X263610Y324875D01*
X263699Y324922D01*
X263787Y324973D01*
X263873Y325027D01*
X263956Y325084D01*
X264038Y325144D01*
X264116Y325208D01*
X264193Y325274D01*
X264266Y325344D01*
X264337Y325416D01*
X264405Y325491D01*
X264470Y325569D01*
X264532Y325649D01*
X264591Y325731D01*
X264647Y325816D01*
X264699Y325903D01*
X264748Y325991D01*
X264794Y326082D01*
X264835Y326174D01*
X264874Y326268D01*
X264908Y326363D01*
X264939Y326459D01*
X264966Y326557D01*
X264990Y326655D01*
X265009Y326755D01*
X265025Y326855D01*
X265037Y326955D01*
X265045Y327056D01*
X265049Y327157D01*
X265049Y327259D01*
X265045Y327360D01*
X265037Y327461D01*
X265025Y327561D01*
X265009Y327661D01*
X264990Y327761D01*
X264966Y327859D01*
X264939Y327957D01*
X264908Y328053D01*
X264874Y328148D01*
X264835Y328242D01*
X264794Y328334D01*
X264748Y328425D01*
X264699Y328513D01*
X264647Y328600D01*
X264591Y328685D01*
X264532Y328767D01*
X264470Y328847D01*
X264405Y328925D01*
X264337Y329000D01*
X264266Y329072D01*
X264193Y329142D01*
X264116Y329208D01*
X264038Y329272D01*
X263956Y329332D01*
X263873Y329389D01*
X263787Y329443D01*
X263699Y329494D01*
X263610Y329541D01*
X263518Y329585D01*
X263425Y329625D01*
X263331Y329662D01*
X263235Y329694D01*
X263138Y329723D01*
X263040Y329749D01*
X262941Y329770D01*
X262841Y329788D01*
X262741Y329801D01*
X262640Y329811D01*
X262539Y329817D01*
X262438Y329819D01*
X259828Y329819D01*
X259702Y329817D01*
X259576Y329811D01*
X259450Y329802D01*
X259325Y329789D01*
X259200Y329771D01*
X259075Y329751D01*
X258951Y329726D01*
X258828Y329698D01*
X258706Y329666D01*
X258585Y329630D01*
X258465Y329591D01*
X258347Y329548D01*
X258230Y329501D01*
X258114Y329451D01*
X257999Y329397D01*
X257887Y329341D01*
X257776Y329280D01*
X257667Y329217D01*
X257560Y329150D01*
X257455Y329080D01*
X257352Y329006D01*
X257252Y328930D01*
X257154Y328851D01*
X257058Y328769D01*
X256965Y328683D01*
X256874Y328596D01*
X256787Y328505D01*
X256701Y328412D01*
X256619Y328316D01*
X256540Y328218D01*
X256464Y328118D01*
X256390Y328015D01*
X256320Y327910D01*
X256253Y327803D01*
X256190Y327694D01*
X256129Y327583D01*
X256073Y327471D01*
X256019Y327356D01*
X255969Y327240D01*
X255922Y327123D01*
X255879Y327005D01*
X255840Y326885D01*
X255804Y326764D01*
X255772Y326642D01*
X255744Y326519D01*
X255719Y326395D01*
X255699Y326270D01*
X255681Y326145D01*
X255668Y326020D01*
X255659Y325894D01*
X255653Y325768D01*
X255651Y325642D01*
X229489Y303149D02*
X229489Y293751D01*
X229489Y303149D02*
X226878Y303149D01*
X226777Y303147D01*
X226676Y303141D01*
X226575Y303131D01*
X226475Y303118D01*
X226375Y303100D01*
X226276Y303079D01*
X226178Y303053D01*
X226081Y303024D01*
X225985Y302992D01*
X225891Y302955D01*
X225798Y302915D01*
X225706Y302871D01*
X225617Y302824D01*
X225529Y302773D01*
X225443Y302719D01*
X225360Y302662D01*
X225278Y302602D01*
X225200Y302538D01*
X225123Y302472D01*
X225050Y302402D01*
X224979Y302330D01*
X224911Y302255D01*
X224846Y302177D01*
X224784Y302097D01*
X224725Y302015D01*
X224669Y301930D01*
X224617Y301844D01*
X224568Y301755D01*
X224522Y301664D01*
X224481Y301572D01*
X224442Y301478D01*
X224408Y301383D01*
X224377Y301287D01*
X224350Y301189D01*
X224326Y301091D01*
X224307Y300991D01*
X224291Y300891D01*
X224279Y300791D01*
X224271Y300690D01*
X224267Y300589D01*
X224267Y300487D01*
X224271Y300386D01*
X224279Y300285D01*
X224291Y300185D01*
X224307Y300085D01*
X224326Y299985D01*
X224350Y299887D01*
X224377Y299789D01*
X224408Y299693D01*
X224442Y299598D01*
X224481Y299504D01*
X224522Y299412D01*
X224568Y299321D01*
X224617Y299233D01*
X224669Y299146D01*
X224725Y299061D01*
X224784Y298979D01*
X224846Y298899D01*
X224911Y298821D01*
X224979Y298746D01*
X225050Y298674D01*
X225123Y298604D01*
X225200Y298538D01*
X225278Y298474D01*
X225360Y298414D01*
X225443Y298357D01*
X225529Y298303D01*
X225617Y298252D01*
X225706Y298205D01*
X225798Y298161D01*
X225891Y298121D01*
X225985Y298084D01*
X226081Y298052D01*
X226178Y298023D01*
X226276Y297997D01*
X226375Y297976D01*
X226475Y297958D01*
X226575Y297945D01*
X226676Y297935D01*
X226777Y297929D01*
X226878Y297927D01*
X226878Y297928D02*
X229489Y297928D01*
X226356Y297928D02*
X224268Y293751D01*
X220402Y301061D02*
X217792Y303149D01*
X217792Y293751D01*
X220402Y293751D02*
X215181Y293751D01*
X211258Y293751D02*
X208648Y293751D01*
X208547Y293753D01*
X208446Y293759D01*
X208345Y293769D01*
X208245Y293782D01*
X208145Y293800D01*
X208046Y293821D01*
X207948Y293847D01*
X207851Y293876D01*
X207755Y293908D01*
X207661Y293945D01*
X207568Y293985D01*
X207476Y294029D01*
X207387Y294076D01*
X207299Y294127D01*
X207213Y294181D01*
X207130Y294238D01*
X207048Y294298D01*
X206970Y294362D01*
X206893Y294428D01*
X206820Y294498D01*
X206749Y294570D01*
X206681Y294645D01*
X206616Y294723D01*
X206554Y294803D01*
X206495Y294885D01*
X206439Y294970D01*
X206387Y295057D01*
X206338Y295145D01*
X206292Y295236D01*
X206251Y295328D01*
X206212Y295422D01*
X206178Y295517D01*
X206147Y295613D01*
X206120Y295711D01*
X206096Y295809D01*
X206077Y295909D01*
X206061Y296009D01*
X206049Y296109D01*
X206041Y296210D01*
X206037Y296311D01*
X206037Y296413D01*
X206041Y296514D01*
X206049Y296615D01*
X206061Y296715D01*
X206077Y296815D01*
X206096Y296915D01*
X206120Y297013D01*
X206147Y297111D01*
X206178Y297207D01*
X206212Y297302D01*
X206251Y297396D01*
X206292Y297488D01*
X206338Y297579D01*
X206387Y297668D01*
X206439Y297754D01*
X206495Y297839D01*
X206554Y297921D01*
X206616Y298001D01*
X206681Y298079D01*
X206749Y298154D01*
X206820Y298226D01*
X206893Y298296D01*
X206970Y298362D01*
X207048Y298426D01*
X207130Y298486D01*
X207213Y298543D01*
X207299Y298597D01*
X207387Y298648D01*
X207476Y298695D01*
X207568Y298739D01*
X207661Y298779D01*
X207755Y298816D01*
X207851Y298848D01*
X207948Y298877D01*
X208046Y298903D01*
X208145Y298924D01*
X208245Y298942D01*
X208345Y298955D01*
X208446Y298965D01*
X208547Y298971D01*
X208648Y298973D01*
X208125Y303149D02*
X211258Y303149D01*
X208125Y303149D02*
X208035Y303147D01*
X207946Y303141D01*
X207856Y303132D01*
X207767Y303118D01*
X207679Y303101D01*
X207592Y303080D01*
X207505Y303055D01*
X207420Y303026D01*
X207336Y302994D01*
X207254Y302959D01*
X207173Y302919D01*
X207094Y302877D01*
X207017Y302831D01*
X206942Y302781D01*
X206869Y302729D01*
X206798Y302673D01*
X206730Y302615D01*
X206665Y302553D01*
X206602Y302489D01*
X206542Y302422D01*
X206485Y302353D01*
X206431Y302281D01*
X206380Y302207D01*
X206332Y302131D01*
X206288Y302053D01*
X206247Y301973D01*
X206209Y301891D01*
X206175Y301808D01*
X206145Y301723D01*
X206118Y301637D01*
X206095Y301551D01*
X206076Y301463D01*
X206061Y301374D01*
X206049Y301285D01*
X206041Y301196D01*
X206037Y301106D01*
X206037Y301016D01*
X206041Y300926D01*
X206049Y300837D01*
X206061Y300748D01*
X206076Y300659D01*
X206095Y300571D01*
X206118Y300485D01*
X206145Y300399D01*
X206175Y300314D01*
X206209Y300231D01*
X206247Y300149D01*
X206288Y300069D01*
X206332Y299991D01*
X206380Y299915D01*
X206431Y299841D01*
X206485Y299769D01*
X206542Y299700D01*
X206602Y299633D01*
X206665Y299569D01*
X206730Y299507D01*
X206798Y299449D01*
X206869Y299393D01*
X206942Y299341D01*
X207017Y299291D01*
X207094Y299245D01*
X207173Y299203D01*
X207254Y299163D01*
X207336Y299128D01*
X207420Y299096D01*
X207505Y299067D01*
X207592Y299042D01*
X207679Y299021D01*
X207767Y299004D01*
X207856Y298990D01*
X207946Y298981D01*
X208035Y298975D01*
X208125Y298973D01*
X208125Y298972D02*
X210214Y298972D01*
X287401Y413131D02*
X296799Y413131D01*
X296799Y415742D01*
X296797Y415843D01*
X296791Y415944D01*
X296781Y416045D01*
X296768Y416145D01*
X296750Y416245D01*
X296729Y416344D01*
X296703Y416442D01*
X296674Y416539D01*
X296642Y416635D01*
X296605Y416729D01*
X296565Y416822D01*
X296521Y416914D01*
X296474Y417003D01*
X296423Y417091D01*
X296369Y417177D01*
X296312Y417260D01*
X296252Y417342D01*
X296188Y417420D01*
X296122Y417497D01*
X296052Y417570D01*
X295980Y417641D01*
X295905Y417709D01*
X295827Y417774D01*
X295747Y417836D01*
X295665Y417895D01*
X295580Y417951D01*
X295494Y418003D01*
X295405Y418052D01*
X295314Y418098D01*
X295222Y418139D01*
X295128Y418178D01*
X295033Y418212D01*
X294937Y418243D01*
X294839Y418270D01*
X294741Y418294D01*
X294641Y418313D01*
X294541Y418329D01*
X294441Y418341D01*
X294340Y418349D01*
X294239Y418353D01*
X294137Y418353D01*
X294036Y418349D01*
X293935Y418341D01*
X293835Y418329D01*
X293735Y418313D01*
X293635Y418294D01*
X293537Y418270D01*
X293439Y418243D01*
X293343Y418212D01*
X293248Y418178D01*
X293154Y418139D01*
X293062Y418098D01*
X292971Y418052D01*
X292883Y418003D01*
X292796Y417951D01*
X292711Y417895D01*
X292629Y417836D01*
X292549Y417774D01*
X292471Y417709D01*
X292396Y417641D01*
X292324Y417570D01*
X292254Y417497D01*
X292188Y417420D01*
X292124Y417342D01*
X292064Y417260D01*
X292007Y417177D01*
X291953Y417091D01*
X291902Y417003D01*
X291855Y416914D01*
X291811Y416822D01*
X291771Y416729D01*
X291734Y416635D01*
X291702Y416539D01*
X291673Y416442D01*
X291647Y416344D01*
X291626Y416245D01*
X291608Y416145D01*
X291595Y416045D01*
X291585Y415944D01*
X291579Y415843D01*
X291577Y415742D01*
X291578Y415742D02*
X291578Y413131D01*
X291578Y416264D02*
X287401Y418352D01*
X294711Y422218D02*
X296799Y424828D01*
X287401Y424828D01*
X287401Y422218D02*
X287401Y427439D01*
X289489Y431362D02*
X296799Y433450D01*
X289489Y431362D02*
X289489Y436583D01*
X291578Y435017D02*
X287401Y435017D01*
M02*
